<?xml version="1.0" encoding="UTF-8" standalone="no"?>
<!-- Created with Inkscape (http://www.inkscape.org/) -->

<svg
   width="100mm"
   height="100mm"
   viewBox="0 0 100 100"
   version="1.1"
   id="svg1"
   inkscape:version="1.4 (86a8ad7, 2024-10-11)"
   sodipodi:docname="bush2.svg"
   xml:space="preserve"
   xmlns:inkscape="http://www.inkscape.org/namespaces/inkscape"
   xmlns:sodipodi="http://sodipodi.sourceforge.net/DTD/sodipodi-0.dtd"
   xmlns="http://www.w3.org/2000/svg"
   xmlns:svg="http://www.w3.org/2000/svg"><sodipodi:namedview
     id="namedview1"
     pagecolor="#ffffff"
     bordercolor="#000000"
     borderopacity="0.25"
     inkscape:showpageshadow="2"
     inkscape:pageopacity="0.0"
     inkscape:pagecheckerboard="true"
     inkscape:deskcolor="#d1d1d1"
     inkscape:document-units="mm"
     inkscape:zoom="1.4464538"
     inkscape:cx="131.01006"
     inkscape:cy="179.40428"
     inkscape:window-width="1920"
     inkscape:window-height="1009"
     inkscape:window-x="1912"
     inkscape:window-y="-8"
     inkscape:window-maximized="1"
     inkscape:current-layer="layer1" /><defs
     id="defs1" /><g
     inkscape:label="Warstwa 1"
     inkscape:groupmode="layer"
     id="layer1"><path
       style="fill:#9aa3a8;fill-opacity:1"
       d="M 42.337442,71.960952 C 41.512517,70.123993 38.266051,64.918581 37.27939,63.850828 36.868967,63.406673 35.339419,61.964367 33.880393,60.645704 l -2.652773,-2.397571 -0.561058,1.402221 c -0.308581,0.771222 -0.693055,1.402221 -0.854384,1.402221 -0.324217,0 -2.640151,-3.313345 -3.5405,-5.065299 L 25.69811,54.871193 h 3.288269 c 3.464889,0 4.575621,0.328019 5.830548,1.721864 0.377305,0.419072 1.381415,1.233919 2.231355,1.810771 0.84994,0.576852 2.138593,1.575353 2.863673,2.218891 0.725079,0.643538 1.391395,1.097 1.480702,1.007693 0.399749,-0.399748 -3.69871,-7.691287 -6.642906,-11.818347 -1.782904,-2.499207 -3.363476,-4.619309 -3.512382,-4.711337 -0.148906,-0.09203 -0.606122,0.986936 -1.016036,2.397699 -0.409915,1.410763 -0.857325,2.563845 -0.994244,2.562405 C 28.98039,50.058237 25.372228,37.974 25.554912,37.7622 c 0.05227,-0.06061 1.183293,0.213904 2.513376,0.61002 2.182156,0.649874 2.602991,0.928938 4.309137,2.857472 3.517538,3.976033 5.702619,6.591543 7.787325,9.321316 2.388261,3.127255 2.390899,3.299988 -0.07254,-4.750579 -0.919741,-3.005726 -1.617596,-5.519618 -1.550788,-5.586426 0.267944,-0.267944 4.763991,6.447977 6.363921,9.506038 0.93876,1.794318 2.18444,4.874523 2.768178,6.8449 1.143476,3.859747 1.596535,4.79088 1.264528,2.598879 -0.11443,-0.755503 -0.446537,-4.077996 -0.738015,-7.383318 -0.515088,-5.841027 -1.75225,-15.440503 -2.025108,-15.713361 -0.07439,-0.0744 -0.237055,0.18545 -0.361467,0.577435 -0.591874,1.864833 -0.744908,0.941098 -1.858938,-11.220802 -0.125433,-1.369348 -0.146669,-2.487834 -0.04719,-2.485524 0.09948,0.0023 1.200657,1.045418 2.447067,2.318018 l 2.266201,2.313819 0.879734,3.777512 c 1.122094,4.818185 2.905479,13.326037 3.491243,16.655391 0.24923,1.416567 0.541379,2.343774 0.649221,2.060461 0.107842,-0.283313 0.922094,-2.678599 1.80945,-5.322857 2.380942,-7.095046 3.229798,-8.492243 2.582321,-4.250443 -0.183856,1.20449 -0.426762,3.580793 -0.53979,5.280673 -0.113029,1.69988 -0.27396,3.786097 -0.357624,4.636037 -0.13877,1.409763 -0.06551,1.30431 0.834976,-1.201935 1.589748,-4.424599 2.997733,-7.600232 4.068115,-9.175414 0.549512,-0.808665 1.490833,-2.552042 2.091824,-3.874171 0.60099,-1.322129 1.214612,-2.635673 1.363602,-2.918987 0.289925,-0.551307 5.403271,-4.120921 5.903074,-4.120921 0.164422,0 0.0838,0.734039 -0.179163,1.631198 -0.262963,0.897159 -0.78895,2.801541 -1.16886,4.23196 -0.379911,1.430419 -0.869642,3.053032 -1.088291,3.605807 L 68.56288,39.589442 67.982535,38.243211 67.402191,36.89698 65.79813,41.162197 c -2.089694,5.556523 -3.367179,9.329452 -3.211571,9.485061 0.06845,0.06845 0.399783,-0.295766 0.736303,-0.809361 1.658536,-2.531246 7.500622,-9.37866 8.650318,-10.138896 1.739581,-1.150299 3.567527,-2.082295 3.741951,-1.907871 0.148189,0.148189 -2.798908,8.112583 -3.121186,8.434861 -0.102499,0.102499 -0.37209,-0.305684 -0.599089,-0.907075 -0.227,-0.60139 -0.497238,-1.093437 -0.600529,-1.093437 -0.276817,0 -6.168305,9.407943 -7.52238,12.012268 l -1.164262,2.239252 3.053017,-2.974892 c 5.097348,-4.966909 10.356535,-8.888592 12.840207,-9.574717 2.459573,-0.679466 4.120922,-0.94457 4.120922,-0.657582 0,0.145909 -0.438893,1.245534 -0.975317,2.443613 -0.536424,1.198079 -1.399055,3.453235 -1.916957,5.011459 -0.517903,1.558223 -1.079168,2.833133 -1.247257,2.833133 -0.168088,0 -0.552314,-0.888574 -0.853835,-1.974608 -0.751828,-2.707978 -0.839405,-2.951149 -1.007122,-2.796433 -4.022563,3.710746 -8.8073,8.919136 -10.180201,11.081581 -1.492912,2.351474 -1.591313,2.608584 -0.752664,1.966621 2.678972,-2.050679 4.01794,-2.841283 6.662779,-3.934086 2.556637,-1.056361 5.927366,-1.988217 5.462832,-1.51023 -0.09444,0.09717 -1.407982,1.150236 -2.918987,2.340141 -4.354303,3.428981 -7.307593,6.439985 -9.493967,9.679502 L 63.473147,73.41534 H 53.231856 42.990565 Z"
       id="path13" /><path
       style="fill:#506067;fill-opacity:1"
       d="M 42.361118,71.678514 C 40.291539,67.594395 38.504974,65.145222 35.048337,61.653543 l -3.654609,-3.691659 h 2.432342 c 2.17247,0 2.59378,0.114593 3.94336,1.072567 0.83106,0.589911 2.090523,1.625748 2.798806,2.30186 0.708283,0.676111 1.287788,1.069313 1.287788,0.873781 0,-1.076632 -4.497331,-9.073163 -7.024534,-12.490051 -1.606508,-2.172069 -2.923947,-4.043934 -2.927642,-4.1597 -0.0141,-0.441748 3.206411,0.871865 4.046679,1.650599 0.484737,0.44924 1.093278,0.735471 1.352313,0.636071 0.557663,-0.213996 1.660138,0.965346 3.433538,3.672929 0.710243,1.084383 1.387465,1.972957 1.504938,1.974609 0.251882,0.0035 -0.608249,-3.270591 -2.119277,-8.067135 -1.534424,-4.870814 -1.510131,-4.771392 -1.104641,-4.520786 0.585685,0.361974 4.704384,6.726359 6.036936,9.328528 1.191941,2.327586 3.321043,8.353605 3.331741,9.429859 0.0029,0.290969 0.16989,0.760837 0.371106,1.04415 0.265664,0.374056 0.311484,-0.190182 0.167325,-2.060461 -0.653696,-8.480872 -0.989318,-11.80327 -1.755798,-17.381014 -0.755301,-5.496397 -0.79926,-6.352187 -0.377781,-7.354591 l 0.476982,-1.134405 0.728159,1.646125 c 0.400487,0.905368 0.728159,1.735865 0.728159,1.845549 0,0.109683 0.524422,0.746811 1.165382,1.415839 1.232462,1.286432 1.551269,2.402763 2.943247,10.30605 l 0.572704,3.251664 1.825949,-5.483829 c 1.004271,-3.016107 2.044515,-5.870166 2.311651,-6.342355 0.529394,-0.935754 0.526894,-0.872027 -0.255954,6.524792 -0.169914,1.605443 -0.299293,3.768927 -0.287511,4.807742 l 0.02142,1.888756 1.06845,-3.434101 1.068449,-3.434102 3.562818,-3.533984 c 1.95955,-1.943691 3.724981,-3.999162 3.923179,-4.567714 0.198198,-0.568551 0.422685,-0.971406 0.498859,-0.895232 0.07617,0.07617 -0.541947,1.899844 -1.373601,4.052599 -2.205288,5.708437 -3.751037,10.282671 -3.544551,10.489157 0.09915,0.09915 0.350524,-0.137866 0.558617,-0.526693 0.965829,-1.804668 3.951706,-4.88994 5.846138,-6.040746 1.144538,-0.69527 2.240017,-1.211115 2.434397,-1.146322 0.194381,0.06479 -0.677779,1.73832 -1.938132,3.718947 -1.260354,1.980627 -2.784523,4.373813 -3.387043,5.318191 -1.150069,1.802595 -2.934656,5.160467 -2.934656,5.521838 0,0.116392 1.480653,-1.189664 3.290338,-2.902347 2.58053,-2.442207 3.562119,-3.156295 4.550185,-3.310178 0.692915,-0.107915 2.385598,-0.559841 3.761517,-1.00428 2.981698,-0.963124 3.12597,-1.215107 -2.533401,4.4248 -2.709629,2.700309 -4.644105,4.968444 -5.566926,6.527112 -0.777851,1.313808 -1.355455,2.447562 -1.283564,2.519452 0.07189,0.07189 0.943689,-0.511914 1.937331,-1.297343 1.928042,-1.52403 3.672432,-2.50344 5.941725,-3.33606 1.583702,-0.581072 4.669431,-1.459569 4.669431,-1.329372 0,0.04685 -1.312921,1.125657 -2.917602,2.39734 -4.311343,3.416666 -7.352549,6.547375 -9.453985,9.732217 L 63.329722,73.41534 H 53.285478 43.241235 Z"
       id="path14" /></g></svg>
