<?xml version="1.0" encoding="UTF-8" standalone="no"?>
<!-- Created with Inkscape (http://www.inkscape.org/) -->

<svg
   width="100mm"
   height="100mm"
   viewBox="0 0 100 100"
   version="1.1"
   id="svg1"
   inkscape:version="1.4 (86a8ad7, 2024-10-11)"
   sodipodi:docname="bush1.svg"
   xml:space="preserve"
   xmlns:inkscape="http://www.inkscape.org/namespaces/inkscape"
   xmlns:sodipodi="http://sodipodi.sourceforge.net/DTD/sodipodi-0.dtd"
   xmlns="http://www.w3.org/2000/svg"
   xmlns:svg="http://www.w3.org/2000/svg"><sodipodi:namedview
     id="namedview1"
     pagecolor="#ffffff"
     bordercolor="#000000"
     borderopacity="0.25"
     inkscape:showpageshadow="2"
     inkscape:pageopacity="0.0"
     inkscape:pagecheckerboard="true"
     inkscape:deskcolor="#d1d1d1"
     inkscape:document-units="mm"
     inkscape:zoom="1.4464538"
     inkscape:cx="131.01006"
     inkscape:cy="179.40428"
     inkscape:window-width="1920"
     inkscape:window-height="1009"
     inkscape:window-x="1912"
     inkscape:window-y="-8"
     inkscape:window-maximized="1"
     inkscape:current-layer="layer1" /><defs
     id="defs1" /><g
     inkscape:label="Warstwa 1"
     inkscape:groupmode="layer"
     id="layer1"><path
       style="fill:#9aa3a8;fill-opacity:1;stroke-width:1.36822"
       d="m 39.163839,74.938365 c -0.385717,-0.547538 -1.637705,-2.624564 -2.782195,-4.615613 -2.451832,-4.265408 -3.37054,-5.611138 -3.830631,-5.611138 -0.185548,0 -0.338267,0.447986 -0.339377,0.995524 -0.0027,1.341894 -0.599157,3.404867 -1.234613,4.270327 -0.500524,0.68169 -0.534358,0.667979 -0.934545,-0.378731 -0.22837,-0.597315 -0.730921,-2.618935 -1.11678,-4.492489 -0.385858,-1.873554 -0.881253,-3.622978 -1.100878,-3.88761 -0.471712,-0.568378 -1.041299,-0.313463 -1.041299,0.466027 0,0.633965 -1.76157,5.2275 -2.181204,5.687785 -0.154326,0.169278 -0.716792,-1.622667 -1.249925,-3.982097 -0.533132,-2.359431 -1.608268,-5.954298 -2.38919,-7.988593 -0.780922,-2.034296 -1.419858,-3.770198 -1.419858,-3.857562 0,-0.159772 10.812471,4.183203 11.550895,4.639573 0.792825,0.489992 0.350651,-0.539176 -1.788103,-4.161856 -1.200926,-2.03416 -2.127843,-3.754132 -2.059817,-3.822158 0.149023,-0.149022 4.696119,3.008105 7.694306,5.34229 2.885027,2.246088 3.786434,3.252992 5.786254,6.463453 0.930178,1.493288 1.604359,2.389259 1.498178,1.99105 -0.106188,-0.39821 -0.704037,-3.814992 -1.328569,-7.592848 -0.624532,-3.777857 -1.246874,-7.067821 -1.38298,-7.311031 -0.141548,-0.252934 -0.763414,0.867006 -1.452919,2.616618 -0.662998,1.68235 -1.353813,2.967125 -1.535144,2.855056 -0.18133,-0.112071 -0.327993,-0.886489 -0.325916,-1.720934 0.0021,-0.834445 -0.266542,-3.985757 -0.59693,-7.002915 -0.597122,-5.453017 -0.595785,-5.510784 0.224288,-9.683738 0.453746,-2.308898 0.885693,-4.197997 0.95988,-4.197997 0.561208,0 6.913663,8.057284 7.563419,9.593237 0.252682,0.597314 0.663387,2.94789 0.912678,5.223503 0.249292,2.275612 0.811761,5.451047 1.249933,7.056521 l 0.796676,2.919044 0.231553,-1.626387 c 0.127354,-0.894513 0.39381,-3.396678 0.592124,-5.560368 0.305807,-3.336487 0.614654,-4.573581 2.033481,-8.1452 0.920101,-2.316171 1.801984,-4.349565 1.959738,-4.518651 0.157756,-0.169088 0.403087,1.297049 0.545181,3.25808 0.142093,1.961031 0.362138,4.530869 0.488988,5.710753 l 0.230637,2.145242 1.466588,-1.964238 c 2.394947,-3.207611 3.040064,-4.46563 4.011678,-7.823035 0.507971,-1.755283 1.087076,-3.389812 1.286902,-3.632286 0.199827,-0.242474 2.261846,-1.449286 4.582267,-2.681805 2.320422,-1.23252 4.556421,-2.459237 4.968888,-2.726039 0.749797,-0.484999 0.749916,-0.483922 0.616041,5.577877 -0.145386,6.582972 -0.287937,7.841674 -0.848832,7.495021 -0.201656,-0.124631 -0.624532,-0.871119 -0.939725,-1.658863 -0.315194,-0.787746 -0.674864,-1.330551 -0.79927,-1.206236 -0.124398,0.124317 -0.472259,2.533908 -0.773011,5.35465 l -0.546823,5.128621 -0.959906,-1.708225 c -0.527948,-0.939523 -1.153843,-2.295859 -1.390877,-3.014079 -0.498546,-1.51061 -0.588308,-1.435256 -2.391071,2.007237 -0.847065,1.617528 -1.066431,2.546776 -1.169323,4.953334 l -0.126656,2.962285 3.203729,-0.876951 c 2.972144,-0.813561 3.317705,-1.008539 4.780501,-2.697328 1.982088,-2.28831 5.682569,-4.506003 8.74048,-5.238156 1.294182,-0.309867 2.882496,-0.70831 3.529587,-0.885431 0.647091,-0.17712 1.176529,-0.194718 1.176529,-0.0391 0,0.155612 -0.542261,1.484321 -1.205025,2.95269 -0.662763,1.468367 -1.392693,3.402827 -1.622067,4.298798 -0.907177,3.54359 -1.852252,7.950366 -2.090987,9.750036 -0.325161,2.451185 -0.606819,1.955063 -1.797907,-3.166892 -0.524652,-2.256121 -1.060856,-3.996095 -1.191563,-3.866609 -0.130707,0.129488 -0.652429,1.322455 -1.15938,2.651043 -1.023007,2.681034 -1.777592,3.083926 -2.320711,1.239084 -0.190503,-0.64709 -0.455848,-1.176527 -0.589655,-1.176527 -0.219944,0 -3.73387,4.515806 -4.484538,5.763158 -0.235468,0.39127 -0.157041,0.455586 0.328394,0.269306 0.619849,-0.237857 3.870325,-0.743511 6.992715,-1.087805 0.846195,-0.09331 1.533542,-0.06298 1.527438,0.06741 -0.0062,0.130378 -1.631775,1.356635 -3.6126,2.725006 -4.750184,3.281466 -4.972303,3.567966 -2.280871,2.94199 2.436664,-0.56672 6.628587,-1.082934 6.628587,-0.816276 0,0.10014 -1.925294,1.419294 -4.278433,2.93146 -3.204018,2.058952 -4.71822,3.297701 -6.029698,4.932816 l -1.751264,2.183423 H 51.368224 39.865141 Z"
       id="path12" /><path
       style="fill:#506067;fill-opacity:1;stroke-width:1.36822"
       d="m 37.761242,72.404303 c -1.018117,-1.742168 -2.056992,-3.574838 -2.308612,-4.0726 -0.25162,-0.497763 -1.001873,-1.62079 -1.667229,-2.495618 -1.316743,-1.73129 -1.342309,-1.802918 -0.89521,-2.508076 0.23023,-0.363114 1.233326,0.140911 4.157559,2.089052 2.119766,1.412199 3.854412,2.686438 3.854772,2.831641 3.6e-4,0.145203 0.906908,1.24143 2.014554,2.436059 1.107646,1.194629 1.949659,2.009149 1.871141,1.810045 -0.07852,-0.199105 -1.919329,-3.28027 -4.090689,-6.847032 -3.963019,-6.509815 -5.453273,-8.218213 -7.649715,-8.769485 -0.584306,-0.146651 -1.459862,-1.269334 -2.88577,-3.700285 -1.125833,-1.919368 -2.301431,-3.883123 -2.612441,-4.363901 -0.698078,-1.079132 7.802008,4.953761 9.902561,7.028293 0.806408,0.796419 2.235812,2.751267 3.17645,4.344106 0.94064,1.59284 1.712737,2.682239 1.715772,2.42089 0.01067,-0.922009 -1.820022,-11.864622 -2.384161,-14.250575 -0.38863,-1.643662 -0.459339,-2.618028 -0.220909,-3.044082 0.304826,-0.544694 0.498199,-0.422979 1.47892,0.930867 0.620534,0.856623 1.540616,2.429178 2.044626,3.494568 0.50401,1.065391 1.342223,2.216097 1.862695,2.557122 0.520471,0.341027 1.237377,1.098666 1.593124,1.683646 l 0.646812,1.063597 0.200223,-1.22911 c 0.110129,-0.67601 0.434243,-3.346862 0.720264,-5.935226 0.437695,-3.960922 0.760746,-5.308002 2.040164,-8.507209 0.836067,-2.090602 1.636037,-3.927792 1.777711,-4.082646 0.141673,-0.154854 0.293385,0.659665 0.33714,1.810045 0.04375,1.150378 0.235226,3.615064 0.425494,5.477081 0.335963,3.287825 0.320956,3.415178 -0.520229,4.414869 -0.592599,0.704264 -1.163395,2.321906 -1.807237,5.121725 -1.959868,8.5227 -1.873682,7.521713 -0.950515,11.039549 0.460286,1.753973 0.971105,3.340159 1.135155,3.524858 0.378371,0.425997 1.458104,-2.019595 2.526353,-5.722186 0.670791,-2.324981 1.146953,-3.206838 2.575552,-4.769954 l 1.752621,-1.917646 -0.102453,-4.156357 c -0.09861,-3.999933 -0.0684,-4.193123 0.802566,-5.133326 0.871661,-0.940958 4.206898,-3.061564 4.826143,-3.068553 0.165568,-0.0019 -0.0582,0.577866 -0.497279,1.288298 -1.860499,3.01035 -2.052978,3.787699 -2.279642,9.206564 -0.120759,2.88702 -0.4664,6.145101 -0.768087,7.240178 -0.301688,1.095078 -0.550458,2.042236 -0.552821,2.1048 -0.0023,0.06255 1.20265,-0.979377 2.677806,-2.315421 2.491767,-2.256785 6.498699,-4.495494 8.046213,-4.495494 0.304221,0 -0.626923,1.515023 -2.241407,3.646895 -2.69556,3.559395 -3.081581,4.376629 -1.730246,3.663048 0.765942,-0.404462 7.067491,-1.314192 7.682699,-1.109123 0.226279,0.07543 -1.382421,1.401237 -3.574888,2.946243 -4.11635,2.900746 -4.871082,3.738582 -2.809775,3.119162 1.093995,-0.328743 6.893587,-1.385449 7.681739,-1.399638 0.193082,-0.0034 -0.784342,0.713978 -2.172053,1.594341 -4.682563,2.970617 -6.651853,4.523526 -8.029464,6.331739 l -1.371818,1.800607 -11.776526,0.02062 -11.776528,0.02062 z"
       id="path11" /></g></svg>
