<?xml version="1.0" encoding="UTF-8" standalone="no"?>
<!-- Created with Inkscape (http://www.inkscape.org/) -->

<svg
   width="100mm"
   height="100mm"
   viewBox="0 0 100 100"
   version="1.1"
   id="svg1"
   inkscape:version="1.4 (86a8ad7, 2024-10-11)"
   sodipodi:docname="bush4.svg"
   xml:space="preserve"
   xmlns:inkscape="http://www.inkscape.org/namespaces/inkscape"
   xmlns:sodipodi="http://sodipodi.sourceforge.net/DTD/sodipodi-0.dtd"
   xmlns="http://www.w3.org/2000/svg"
   xmlns:svg="http://www.w3.org/2000/svg"><sodipodi:namedview
     id="namedview1"
     pagecolor="#ffffff"
     bordercolor="#000000"
     borderopacity="0.25"
     inkscape:showpageshadow="2"
     inkscape:pageopacity="0.0"
     inkscape:pagecheckerboard="true"
     inkscape:deskcolor="#d1d1d1"
     inkscape:document-units="mm"
     inkscape:zoom="1.4464538"
     inkscape:cx="261.67445"
     inkscape:cy="207.05812"
     inkscape:window-width="1920"
     inkscape:window-height="1009"
     inkscape:window-x="1912"
     inkscape:window-y="-8"
     inkscape:window-maximized="1"
     inkscape:current-layer="layer1" /><defs
     id="defs1" /><g
     inkscape:label="Warstwa 1"
     inkscape:groupmode="layer"
     id="layer1"><path
       style="fill:#9aa3a8;fill-opacity:1"
       d="m 38.456767,68.317852 c -0.818439,-0.830935 -1.947351,-1.551011 -4.287558,-2.734819 l -3.176605,-1.606905 0.153248,0.958359 0.153248,0.95836 -0.897458,-0.671243 c -2.426872,-1.815152 -3.055253,-2.316743 -3.064226,-2.445948 -0.01914,-0.275645 2.744527,-0.71912 3.614506,-0.580005 0.487215,0.07791 1.340227,0.336599 1.895582,0.574867 1.107063,0.47497 3.641875,0.68006 2.880009,0.233019 -0.231446,-0.135805 -2.312402,-1.004853 -4.624347,-1.931217 -2.311945,-0.926364 -4.736074,-1.954156 -5.386953,-2.283981 -0.650879,-0.329826 -1.210343,-0.566977 -1.243254,-0.527002 -0.03291,0.03997 -0.151532,0.83158 -0.263604,1.759123 l -0.203767,1.686443 -1.853034,-3.519308 c -1.019169,-1.93562 -1.84155,-3.5389 -1.827514,-3.562845 0.01404,-0.02395 0.834183,0.01762 1.822548,0.09237 1.726969,0.13061 1.858305,0.182333 3.368833,1.326712 1.524478,1.154948 1.628873,1.195329 3.467109,1.341113 1.042417,0.08267 2.153051,0.210293 2.468075,0.283606 0.45589,0.106096 0.302196,-0.116294 -0.753183,-1.089823 -1.179401,-1.087934 -1.383044,-1.412994 -1.8425,-2.94105 l -0.516548,-1.717931 -0.400892,1.001927 c -0.22049,0.551059 -0.434324,0.963283 -0.475187,0.916052 -0.148596,-0.171755 -1.311996,-5.72056 -1.240344,-5.915787 0.04055,-0.110471 0.793204,0.238616 1.672575,0.775749 1.305799,0.797603 1.699879,1.182323 2.150019,2.098952 1.041712,2.121258 1.946269,2.987126 4.285802,4.102494 1.187387,0.566085 2.203307,1.029245 2.257601,1.029245 0.05429,0 -0.250719,-0.580294 -0.677806,-1.289542 -0.427087,-0.709248 -1.098711,-2.326599 -1.492497,-3.594115 l -0.715976,-2.304573 -0.610946,1.131202 c -0.336019,0.622161 -0.713636,1.123161 -0.839146,1.113333 -0.21047,-0.01648 -2.257761,-6.505945 -2.101719,-6.661987 0.03813,-0.03813 1.506257,0.55359 3.262505,1.314933 2.172252,0.941685 3.486178,1.660141 4.109609,2.24714 1.207666,1.137094 2.859817,2.396309 2.982762,2.273364 0.05378,-0.05378 0.0061,-0.452827 -0.106014,-0.886775 -0.112085,-0.433948 -0.274574,-1.613786 -0.361085,-2.621862 -0.08651,-1.008076 -0.209475,-1.918574 -0.273251,-2.023329 -0.06378,-0.104755 -0.409797,0.152992 -0.768935,0.57277 l -0.652976,0.763235 -0.0093,-3.086343 -0.0093,-3.086342 1.507586,1.482585 c 1.889294,1.857963 3.383389,4.800956 4.537788,8.938305 0.898257,3.21934 0.962487,3.263928 0.481082,0.333958 -0.186334,-1.134085 -0.339183,-3.170284 -0.339662,-4.524886 -9.04e-4,-2.551681 -0.15648,-2.908631 -0.823819,-1.890143 -0.620256,0.946631 -0.853424,0.698268 -0.699047,-0.744602 0.07752,-0.724554 0.155437,-2.554556 0.173144,-4.06667 0.04576,-3.907642 0.08035,-3.948257 1.632586,-1.917018 1.702759,2.228207 2.622521,4.2186 2.825566,6.114612 0.11336,1.058537 0.358605,1.831865 0.817406,2.577511 0.360501,0.585888 0.655456,1.234272 0.655456,1.440852 0,0.507222 0.456326,0.482373 0.465315,-0.02534 0.02692,-1.520298 2.968165,-10.825362 3.4218,-10.825362 0.09256,0 0.446929,1.149656 0.787492,2.554791 0.472395,1.949057 0.585686,2.858933 0.477829,3.837562 l -0.141378,1.282771 0.644708,-0.70893 c 0.35459,-0.389911 1.151193,-1.420898 1.770229,-2.291082 1.247113,-1.753078 1.546434,-1.701997 0.820385,0.140003 -0.474966,1.204998 -1.15389,5.694442 -1.125456,7.442173 l 0.01491,0.916433 0.444035,-1.260095 c 0.244219,-0.693052 1.02822,-2.629304 1.742223,-4.302782 1.090056,-2.554869 1.539609,-3.319217 2.804016,-4.767496 l 1.50583,-1.724809 0.0754,1.674535 c 0.04147,0.920994 0.0028,3.272565 -0.08591,5.225712 l -0.161312,3.551178 -0.503708,-1.145541 -0.503708,-1.145541 -0.152463,0.916432 c -0.08385,0.504038 -0.153597,1.512562 -0.154984,2.241164 -0.0014,0.728602 -0.166144,1.708039 -0.366127,2.176528 -0.862453,2.020421 -0.847387,2.036149 0.596435,0.622689 0.772297,-0.756057 1.519361,-1.580847 1.66014,-1.832866 0.14078,-0.252019 0.845817,-2.204428 1.566748,-4.338686 l 1.310785,-3.88047 0.261733,1.016617 c 0.143953,0.55914 0.513971,1.912357 0.822263,3.007149 0.308292,1.094793 0.560531,2.05042 0.560531,2.123616 0,0.0732 -0.235299,0.07403 -0.522886,0.0018 -0.487806,-0.122431 -0.570287,0.02348 -1.229438,2.174871 l -0.706553,2.306106 0.761685,-0.861863 c 0.418927,-0.474025 0.765977,-0.931997 0.771222,-1.017717 0.01758,-0.287349 4.238357,-3.881139 5.049918,-4.299767 0.90782,-0.468283 4.112912,-1.244935 4.312781,-1.045066 0.182033,0.182033 -2.296402,5.155888 -2.504924,5.027014 -0.09287,-0.05739 -0.240452,-0.438241 -0.32797,-0.846327 -0.08752,-0.408086 -0.206242,-0.821902 -0.263832,-0.919591 -0.116358,-0.197377 -6.714652,8.483147 -6.714652,8.833601 0,0.252122 0.336554,0.0086 1.94742,-1.409134 1.554815,-1.368399 2.00983,-1.644952 3.115022,-1.893272 0.521271,-0.117122 1.5371,-0.666431 2.257397,-1.220686 1.112683,-0.856191 1.596459,-1.062148 3.216948,-1.36955 1.049026,-0.198997 1.939077,-0.330054 1.977892,-0.291239 0.09284,0.09284 -2.546835,5.533705 -3.188131,6.571344 L 75.1042,58.561346 74.941831,57.645803 c -0.0893,-0.503549 -0.168311,-1.302163 -0.175573,-1.774699 -0.0073,-0.472536 -0.116302,-0.859156 -0.242312,-0.859156 -0.126009,0 -0.229108,0.08858 -0.229108,0.196852 0,0.403435 -1.901296,2.337034 -3.328178,3.384724 -0.811894,0.596134 -1.442262,1.11779 -1.400817,1.159235 0.04144,0.04145 0.529606,-0.08783 1.084802,-0.287279 0.794036,-0.285249 1.425022,-0.326015 2.956868,-0.191033 1.071081,0.09438 2.050519,0.141806 2.176528,0.10539 0.12601,-0.03642 0.815604,-0.06057 1.532433,-0.05367 1.368854,0.01317 1.788657,0.176756 4.382666,1.707791 l 1.562043,0.921949 -2.59303,1.066842 c -1.426166,0.586763 -2.626407,1.044378 -2.667201,1.016922 -0.04079,-0.02746 0.08808,-0.363678 0.286386,-0.747159 0.198305,-0.383481 0.360556,-0.779738 0.360556,-0.880571 0,-0.100834 -1.469157,-0.0693 -3.264792,0.07006 -2.649569,0.205646 -3.556598,0.372315 -4.813314,0.884461 -0.851686,0.347085 -1.600734,0.715546 -1.664549,0.818801 -0.06381,0.103255 0.43454,0.130913 1.107457,0.06146 0.928791,-0.09586 1.741417,0.02273 3.373802,0.492355 3.642279,1.047854 3.691216,1.158339 0.655357,1.479599 -3.237909,0.342642 -4.170759,0.636908 -6.598171,2.081382 L 65.518357,69.44576 H 52.543039 39.56772 Z"
       id="path17"
       sodipodi:nodetypes="sscccssssssssscsssssssscssssssssscsssssscssscccssssssssssssssscsssscssscsccccsssssscssscscsssssssssssssscscssssssssscssssssssssscccs" /><path
       style="fill:#506067;fill-opacity:1"
       d="m 38.253859,68.097779 c -0.771921,-0.726333 -2.254135,-1.666268 -4.224787,-2.679116 -1.669626,-0.858132 -3.035684,-1.638699 -3.035684,-1.734594 0,-0.322962 1.641169,-0.48565 3.709496,-0.367719 1.129913,0.06442 1.968923,0.03687 1.864467,-0.06124 -0.104456,-0.09811 -1.942598,-0.871988 -4.08476,-1.719735 -5.065034,-2.004454 -8.403218,-3.595554 -7.780661,-3.708546 0.256979,-0.04664 1.209648,0.0039 2.117043,0.112241 1.629706,0.194641 1.644951,0.191548 1.251078,-0.253804 -0.385667,-0.436074 -0.379965,-0.446456 0.174039,-0.316871 0.315023,0.07369 1.342915,0.207778 2.284203,0.297983 l 1.711432,0.164009 -1.426106,-1.320323 c -1.204816,-1.115447 -1.481175,-1.520759 -1.780995,-2.612036 -0.195189,-0.710443 -0.450248,-1.523686 -0.5668,-1.807207 -0.270352,-0.657658 -0.219521,-0.650477 1.092196,0.154301 0.600438,0.368387 1.246354,0.703458 1.435368,0.744602 0.189014,0.04114 0.4664,0.238123 0.616412,0.437731 0.298333,0.396965 5.086954,2.830745 5.24962,2.668079 0.05525,-0.05525 -0.297894,-0.708277 -0.784761,-1.451174 -0.697315,-1.064012 -2.331972,-5.357143 -2.331972,-6.124502 0,-0.0712 0.799014,0.241992 1.775588,0.695988 2.242637,1.042572 4.533636,3.164371 4.897727,4.536009 0.214424,0.807796 0.873189,2.705244 2.726247,7.852442 0.284618,0.790577 0.541659,1.409169 0.571202,1.374649 0.02954,-0.03452 -0.08335,-1.145299 -0.250867,-2.468399 -0.16752,-1.3231 -0.306505,-2.766481 -0.308856,-3.207515 l -0.0043,-0.801878 1.813078,1.86915 c 1.466879,1.512245 1.998185,2.266561 2.782505,3.950429 0.533184,1.144703 1.002811,2.047894 1.043615,2.00709 0.124824,-0.124824 -0.977748,-3.180826 -1.542551,-4.275492 C 45.907399,57.45774 44.243631,55.060382 43.096329,54.072836 41.911497,53.052987 41.29267,52.015062 40.649607,49.969083 40.337899,48.977347 39.83402,44.49119 40.01411,44.3111 c 0.07209,-0.07209 0.623615,0.07682 1.225605,0.330907 1.376227,0.580884 1.860626,1.4899 3.067326,5.756101 0.822771,2.908849 1.373031,4.28005 1.024058,2.551867 -0.374729,-1.855736 -0.80654,-6.22393 -0.813181,-8.226127 -0.007,-2.119542 1.31e-4,-2.148174 0.438116,-1.751803 0.25613,0.231794 0.600565,1.085768 0.810879,2.01045 0.307551,1.352197 0.559984,1.836602 1.58947,3.050102 1.293515,1.524722 1.501674,2.122998 2.213475,6.361794 0.143985,0.857434 0.292561,1.527576 0.330168,1.489204 0.03761,-0.03837 -0.07506,-1.714028 -0.25038,-3.723679 -0.213853,-2.451399 -0.247232,-3.921702 -0.101424,-4.46761 0.119534,-0.447534 0.544124,-2.153982 0.943534,-3.792105 0.39941,-1.638124 0.796619,-3.057856 0.882686,-3.15496 0.08607,-0.0971 0.542528,0.810936 1.014359,2.017867 l 0.857874,2.194421 -0.816775,1.901648 c -1.070987,2.493518 -1.029664,2.712911 0.115324,0.612282 1.172079,-2.150332 3.178213,-5.092363 4.544246,-6.664219 l 0.696879,-0.801879 -0.578393,1.690997 c -0.556274,1.62633 -0.870897,3.641413 -1.089654,6.978974 -0.117684,1.795485 0.02716,1.752121 0.746665,-0.223542 0.446645,-1.226426 0.628436,-1.457838 1.428746,-1.818727 0.504342,-0.227427 1.318983,-0.870196 1.810313,-1.428377 0.881129,-1.001015 0.896096,-1.007465 1.096055,-0.472355 0.118532,0.317206 0.113191,1.714321 -0.01286,3.364041 -0.165555,2.166719 -0.342271,3.094955 -0.761461,3.999733 -0.30023,0.648017 -0.496018,1.228067 -0.435083,1.289002 0.16815,0.16815 2.467429,-2.173666 3.080708,-3.137702 0.714117,-1.122545 3.265719,-3.297056 3.473781,-2.960405 0.08642,0.139833 0.07485,0.414446 -0.02572,0.610249 -0.100566,0.195804 -0.313566,0.92305 -0.473335,1.616103 -0.159768,0.693052 -0.489881,1.656706 -0.733583,2.141452 -0.50862,1.011693 -0.359968,1.427408 0.212411,0.594023 0.211141,-0.307421 0.904685,-1.105021 1.54121,-1.772443 1.093655,-1.146742 1.264446,-1.23708 3.104738,-1.642217 1.071081,-0.235797 2.140798,-0.50474 2.377149,-0.597652 0.236351,-0.09291 -1.078158,1.840547 -2.92113,4.296577 -3.325605,4.431855 -4.298976,6.199579 -2.491702,4.525142 2.191075,-2.03003 1.936351,-1.91691 4.364589,-1.938272 1.222249,-0.01075 2.428469,-0.110983 2.680488,-0.222736 0.383185,-0.169914 0.349273,-0.05523 -0.207102,0.70037 -0.8815,1.197149 -2.004708,2.212985 -3.737758,3.380452 -0.783569,0.527849 -1.427936,1.03243 -1.431927,1.121291 -0.004,0.08886 0.684399,-0.09878 1.529754,-0.416966 1.430815,-0.538557 1.658428,-0.562189 3.294339,-0.342029 1.015982,0.13673 2.13147,0.451454 2.644214,0.746041 1.066454,0.612708 2.65817,1.822206 2.545856,1.93452 -0.04426,0.04426 -1.672818,0.228831 -3.619019,0.410159 -3.23905,0.301782 -3.69064,0.400709 -5.335508,1.168816 -0.988329,0.461521 -1.75123,0.88486 -1.695336,0.940754 0.05589,0.05589 0.635481,-0.0216 1.287973,-0.172217 1.0523,-0.2429 1.399185,-0.214804 3.069985,0.248658 4.149579,1.151046 4.316467,1.279926 1.940114,1.498264 -3.732956,0.342981 -5.421824,0.909554 -7.996078,2.682483 -0.571835,0.393832 -1.396664,0.418835 -13.817483,0.418835 H 39.442962 Z m 27.881741,-4.322442 1.305509,-1.661035 -0.75436,0.0055 c -1.734226,0.01257 -3.345277,0.854807 -5.794741,3.02943 -0.126009,0.111871 0.778239,-0.282517 2.009441,-0.876417 1.231202,-0.5939 2.302719,-1.015649 2.381148,-0.93722 0.07843,0.07843 -0.08324,0.686026 -0.359265,1.350215 -0.564076,1.357318 -0.578783,1.368363 1.212268,-0.910439 z m -11.04156,0.443727 c 1.249068,-2.06487 4.056273,-4.953813 4.440398,-4.569688 0.116414,0.116414 -0.454735,4.048904 -0.711284,4.89735 -0.277063,0.91629 2.956613,-5.593022 3.360233,-6.764069 0.647075,-1.877396 0.580177,-1.940386 -1.004994,-0.946287 -2.225245,1.395505 -2.669041,1.80468 -4.098367,3.778645 -2.199908,3.038177 -2.066476,2.896736 -1.696001,1.797793 0.178293,-0.528874 0.486945,-2.126903 0.685892,-3.551177 0.411813,-2.948193 0.709219,-4.228109 1.682509,-7.240853 l 0.688461,-2.131074 -0.650138,0.527317 c -3.397072,2.755316 -3.823199,3.234015 -4.752291,5.33859 -0.500657,1.134085 -1.131219,2.806086 -1.401248,3.715557 -0.27003,0.909471 -0.545842,1.83736 -0.612916,2.061974 -0.06707,0.224614 0.373044,-0.531543 0.978041,-1.680349 1.172292,-2.226022 3.049086,-5.10889 3.333799,-5.120913 0.09451,-0.004 0.171831,1.463972 0.171831,3.262141 0,3.152886 -0.124685,3.990774 -1.05621,7.097749 -0.198201,0.661073 0.08055,0.455923 0.642285,-0.472706 z M 36.828375,59.896408 c -0.316858,-0.841814 -0.547944,-1.609619 -0.513525,-1.706234 0.102817,-0.288608 3.065886,1.067436 4.353032,1.992158 l 1.196715,0.859754 -1.319058,-1.502427 c -1.225727,-1.396122 -1.427956,-1.530117 -2.858137,-1.893776 -0.846494,-0.215242 -1.977249,-0.528827 -2.512789,-0.696857 -0.535541,-0.168029 -0.97371,-0.26353 -0.97371,-0.212223 0,0.132004 3.042859,4.690175 3.13098,4.690175 0.03993,0 -0.18665,-0.688757 -0.503508,-1.53057 z"
       id="path18" /></g></svg>
