<?xml version="1.0" encoding="UTF-8" standalone="no"?>
<!-- Created with Inkscape (http://www.inkscape.org/) -->

<svg
   width="100mm"
   height="100mm"
   viewBox="0 0 100 100"
   version="1.1"
   id="svg1"
   xml:space="preserve"
   inkscape:version="1.4.2 (f4327f4, 2025-05-13)"
   sodipodi:docname="h1t0.svg"
   xmlns:inkscape="http://www.inkscape.org/namespaces/inkscape"
   xmlns:sodipodi="http://sodipodi.sourceforge.net/DTD/sodipodi-0.dtd"
   xmlns="http://www.w3.org/2000/svg"
   xmlns:svg="http://www.w3.org/2000/svg"><sodipodi:namedview
     id="namedview1"
     pagecolor="#ffffff"
     bordercolor="#000000"
     borderopacity="0.25"
     inkscape:showpageshadow="2"
     inkscape:pageopacity="0.0"
     inkscape:pagecheckerboard="true"
     inkscape:deskcolor="#d1d1d1"
     inkscape:document-units="mm"
     inkscape:zoom="1.4378367"
     inkscape:cx="300.79911"
     inkscape:cy="218.38363"
     inkscape:window-width="1920"
     inkscape:window-height="1058"
     inkscape:window-x="2993"
     inkscape:window-y="-6"
     inkscape:window-maximized="1"
     inkscape:current-layer="layer1" /><defs
     id="defs1" /><g
     inkscape:label="Warstwa 1"
     inkscape:groupmode="layer"
     id="layer1"><rect
       style="fill:#714830;stroke-width:0.100069;fill-opacity:1"
       id="rect1"
       width="100"
       height="100"
       x="0"
       y="0" /><path
       style="fill:#9adeea;fill-opacity:1"
       d="m 61.870681,94.92045 c -2.792457,-0.21168 -4.956416,-0.747286 -11.013031,-2.72586 -2.478273,-0.809602 -5.701805,-1.661678 -7.358264,-1.945011 -3.166896,-0.541689 -7.211985,-0.518916 -10.62319,0.05981 -2.92353,0.495988 -4.173089,0.717621 -4.856875,0.86146 -1.483838,0.312135 -5.380859,0.928341 -6.545997,1.035069 -1.516175,0.138883 -4.254677,-0.174055 -5.292566,-0.14407 C 7.3182429,92.317885 8.3551437,87.231614 8.2165531,80.745976 8.1705076,78.591181 7.5330211,77.035647 6.9027334,74.640554 6.1225274,71.675771 5.2204303,67.81724 5.0604099,66.760402 4.6874565,64.29727 4.617152,61.950043 4.8553405,59.913831 5.1073074,57.759832 5.5468177,55.999084 6.7103304,52.482448 8.783794,46.215548 9.0689515,44.952433 9.2846129,41.079576 9.4249503,38.55939 9.2969813,37.42086 8.2110819,31.528453 7.182706,25.948185 6.9519914,24.050756 6.9518345,21.172232 6.9516171,17.180681 7.5241136,14.337513 9.2312066,12.304265 11.170387,9.994587 11.477308,6.4238483 15.153442,5.7843771 20.329189,4.8840449 21.718324,8.022051 25.664123,6.7562621 29.929991,5.3877969 31.2551,5.043166 33.65588,4.6777857 c 2.73477,-0.4162109 5.020838,-0.4324881 7.163343,-0.051004 2.458744,0.4377917 3.808366,0.8403821 9.161283,2.7327975 4.748533,1.6787476 7.801343,2.2881673 11.451603,2.2860356 3.124107,0.036134 6.179317,-0.6277075 9.210012,-1.3033372 3.552223,-0.8521045 7.013699,-2.8917876 10.662491,-3.2172199 5.872825,-0.5237917 9.344776,1.2326127 10.720666,3.2880127 1.183922,1.7686266 0.79697,5.5741106 0.692772,8.6912366 -0.116743,3.49241 1.274055,6.854996 2.135615,10.233347 1.165525,4.569026 1.594482,8.432631 1.269136,11.431078 -0.284972,2.626352 -0.796166,4.739381 -2.133898,8.820498 -1.263446,3.854487 -1.393384,4.280284 -1.746041,5.721631 -0.788647,3.223283 1.143634,6.427405 1.422507,9.043298 0.211592,1.984772 -1.418027,5.24975 -0.895625,8.548312 0.670439,4.2333 2.792068,8.690675 2.851521,11.402359 0.101977,4.651215 0.07133,7.423433 -6.444047,9.490693 -3.925033,1.245371 -4.322513,-2.556032 -14.685409,1.226865 -2.967622,1.083308 -4.790689,1.264011 -5.847627,1.467101 -2.224946,0.427521 -4.722562,0.586431 -6.773501,0.430961 z"
       id="path1"
       sodipodi:nodetypes="sssssssssssssssssssssssssssssssssssss" /></g></svg>
