<?xml version="1.0" encoding="UTF-8" standalone="no"?>
<!-- Created with Inkscape (http://www.inkscape.org/) -->

<svg
   width="100mm"
   height="100mm"
   viewBox="0 0 100 100"
   version="1.1"
   id="svg1"
   inkscape:version="1.4 (86a8ad7, 2024-10-11)"
   sodipodi:docname="tree4.svg"
   xml:space="preserve"
   xmlns:inkscape="http://www.inkscape.org/namespaces/inkscape"
   xmlns:sodipodi="http://sodipodi.sourceforge.net/DTD/sodipodi-0.dtd"
   xmlns="http://www.w3.org/2000/svg"
   xmlns:svg="http://www.w3.org/2000/svg"><sodipodi:namedview
     id="namedview1"
     pagecolor="#ffffff"
     bordercolor="#000000"
     borderopacity="0.25"
     inkscape:showpageshadow="2"
     inkscape:pageopacity="0.0"
     inkscape:pagecheckerboard="true"
     inkscape:deskcolor="#d1d1d1"
     inkscape:document-units="mm"
     inkscape:zoom="0.87925266"
     inkscape:cx="445.83317"
     inkscape:cy="230.30923"
     inkscape:window-width="1920"
     inkscape:window-height="1009"
     inkscape:window-x="1912"
     inkscape:window-y="-8"
     inkscape:window-maximized="1"
     inkscape:current-layer="layer1" /><defs
     id="defs1" /><g
     inkscape:label="Warstwa 1"
     inkscape:groupmode="layer"
     id="layer1"><path
       style="fill:#ac7e47;fill-opacity:1;stroke-width:1.12543"
       d="m 45.132547,92.007576 c -0.126273,-0.204306 0.172877,-0.937101 0.664768,-1.628435 1.151492,-1.618368 0.754216,-2.097945 -1.254694,-1.51464 -5.640269,1.637703 -7.183252,1.916136 -7.708399,1.390991 -0.771064,-0.771066 -0.259568,-1.605504 1.544525,-2.519708 2.354123,-1.192929 4.679515,-3.840123 5.410592,-6.159357 0.570501,-1.809832 0.572775,-2.065295 0.0377,-4.233473 C 43.042517,74.163871 42.2236,72.997866 39.111501,70.62883 35.041878,67.530888 33.352095,64.975106 32.37357,60.437765 31.683953,57.240027 31.526112,56.956694 28.969986,54.328117 27.139242,52.445472 25.983924,50.051679 25.983924,48.14105 c 0,-0.433692 -0.529728,-0.757442 -1.88311,-1.15088 -2.248738,-0.653724 -2.973401,-1.50001 -2.620107,-3.059856 1.233592,-5.446481 7.804477,-9.078394 13.208586,-7.300752 2.552368,0.83958 4.490589,2.259837 5.72785,4.197158 2.743161,4.29525 1.762047,5.852413 -4.233598,6.719292 -2.461984,0.355967 -2.94809,0.529663 -2.94809,1.053409 0,1.444034 1.415709,9.297727 2.034266,11.28516 0.626356,2.012465 2.010002,4.516576 2.498583,4.521902 0.446254,0.0048 1.618927,-3.336718 1.695704,-4.831995 0.17775,-3.461685 0.04783,-4.143583 -0.789904,-4.14566 -1.285091,-0.0032 -3.286247,-0.67138 -3.473709,-1.159886 -0.09656,-0.251736 0.102639,-1.079332 0.442833,-1.839103 1.140519,-2.547421 4.152859,-3.600158 6.953372,-2.430028 1.776397,0.742225 3.430864,3.278857 2.796157,4.287079 -0.334488,0.531327 -1.956532,1.143864 -3.029042,1.143864 -0.818894,0 -0.840795,0.07006 -0.840795,2.689939 0,1.479467 -0.255438,3.61608 -0.567643,4.748028 -0.943772,3.421848 -0.922208,3.48878 1.667557,5.175903 l 2.308498,1.503892 0.228248,-1.965542 c 0.12553,-1.081049 0.691924,-4.296393 1.258644,-7.145209 0.687208,-3.454449 1.095097,-6.744666 1.224633,-9.878308 0.226785,-5.486034 -0.115727,-6.945256 -2.292517,-9.766925 -2.101634,-2.724254 -3.482105,-6.569147 -3.482105,-9.698358 0,-1.162122 -0.0079,-1.167703 -1.985546,-1.408723 -4.74596,-0.578392 -9.064291,-2.513007 -10.002908,-4.481307 -0.480456,-1.007534 -0.498992,-1.436473 -0.132767,-3.07292 1.346697,-6.017669 7.631836,-12.6105494 13.9827,-14.6673416 2.936757,-0.951095 7.279813,-1.5283615 9.520415,-1.2654234 4.817402,0.5653279 10.083781,2.9924655 13.426964,6.188144 3.798699,3.631103 6.856889,10.02997 5.942727,12.434399 -0.662235,1.741801 -3.724173,3.674734 -6.666141,4.208175 -0.712204,0.129137 -1.294916,0.422383 -1.294916,0.651657 0,1.466933 -1.235989,4.197524 -2.590148,5.722225 -1.517784,1.708948 -1.776025,2.360092 -2.533392,6.387907 -0.214282,1.139528 -1.130357,3.548072 -2.03574,5.352322 -1.871518,3.729554 -1.832162,3.310823 -1.307803,13.916499 l 0.286838,5.801689 1.241312,-1.160924 c 0.682707,-0.638509 1.807819,-1.574382 2.500226,-2.079719 l 1.258925,-0.918793 0.01126,-5.362198 0.01125,-5.362199 h -1.145403 c -0.629981,0 -1.501534,-0.288373 -1.936804,-0.640831 -0.717978,-0.581386 -0.751234,-0.737786 -0.358482,-1.685989 1.138335,-2.748184 4.152083,-4.046892 6.737335,-2.90331 1.64462,0.727491 3.086855,2.671247 2.907226,3.918154 -0.108717,0.754717 -0.471521,0.926471 -3.091278,1.463523 -0.560767,0.114957 -0.988407,0.484958 -1.117549,0.966938 -0.340465,1.270568 -0.248123,4.674196 0.172089,6.342982 l 0.390714,1.551688 0.768689,-0.722144 c 1.721026,-1.616816 3.264425,-5.873839 4.293111,-11.841273 l 0.60827,-3.528614 -1.758175,-0.295988 c -4.777405,-0.804265 -5.841541,-1.473549 -5.406912,-3.400632 0.407461,-1.806661 2.006614,-3.944284 3.822367,-5.109449 4.085446,-2.621623 9.60032,-1.666895 12.405559,2.147636 2.283987,3.105732 2.087803,4.929306 -0.617488,5.739832 -1.223429,0.366547 -1.425837,0.572832 -1.588562,1.618943 -0.102527,0.659377 -0.277497,1.776212 -0.388734,2.481852 -0.307197,1.948604 -1.013852,3.056704 -3.551724,5.569383 -1.872947,1.854344 -2.477448,2.732006 -3.129036,4.542899 -1.060817,2.948264 -2.319607,4.730421 -4.921819,6.968174 -4.214713,3.624405 -4.984652,4.563135 -6.081549,7.414872 -1.424408,3.703177 -1.646489,5.486543 -0.972122,7.806268 0.680681,2.341495 2.353336,4.269069 5.564033,6.412056 1.639927,1.094569 2.417181,1.833901 2.417181,2.299242 0,1.074286 -1.045972,1.02969 -4.169144,-0.17775 -3.280744,-1.268356 -4.131229,-1.213821 -3.582404,0.229708 0.851487,2.239571 -0.822597,2.4816 -3.256018,0.470738 -0.919316,-0.759685 -1.83269,-1.381245 -2.029719,-1.381245 -0.197028,0 -1.115737,0.708559 -2.041581,1.574574 -2.268399,2.121824 -4.72838,3.139833 -5.310653,2.197696 z M 31.351322,52.409283 c -0.09116,-0.712204 -0.257914,-2.03302 -0.370558,-2.935144 l -0.204783,-1.640228 h -1.570173 c -1.540102,0 -1.56565,0.01819 -1.333463,0.949605 0.419323,1.682142 1.276561,3.180833 2.323073,4.061419 0.561644,0.472594 1.088783,0.859264 1.171423,0.859264 0.08261,0 0.07563,-0.582712 -0.01553,-1.294916 z m 42.007555,-2.330851 c 0.587518,-0.663669 0.996903,-1.829312 1.485642,-4.23006 l 0.228473,-1.122262 h -1.532145 -1.532145 l -0.212064,1.98554 c -0.116628,1.092045 -0.317416,2.762489 -0.446187,3.712094 l -0.234134,1.726556 0.815586,-0.690623 c 0.448584,-0.379842 1.090719,-1.001402 1.426974,-1.381245 z M 56.555328,42.771271 c 0.883618,-1.867819 1.343546,-4.758576 1.62793,-10.232061 l 0.121873,-2.345535 -2.089164,0.101018 -2.089175,0.101018 0.129367,7.251533 c 0.07113,3.988343 0.201531,7.37562 0.28973,7.527284 0.286658,0.492932 1.098867,-0.478456 2.009439,-2.403247 z m -7.707982,-9.850446 c 0.148916,-2.650188 0.108603,-2.68482 -3.138479,-2.693063 l -1.857011,-0.0047 0.208373,1.294916 c 0.464081,2.883977 1.295479,4.86249 2.727101,6.489834 l 1.469178,1.670018 0.230532,-2.223879 c 0.126791,-1.223133 0.288931,-3.263033 0.360306,-4.53311 z M 62.27835,31.87703 c 0.988913,-1.937594 0.882852,-2.272888 -0.641043,-2.026656 l -1.294917,0.209234 -0.104665,2.223663 -0.104664,2.223661 0.745663,-0.67437 c 0.410105,-0.370905 1.039906,-1.250894 1.399536,-1.955532 z"
       id="path61" /><path
       style="fill:#611415;fill-opacity:1;stroke-width:1.12543"
       d="m 45.362934,91.937175 c -0.267953,-0.267948 -0.125924,-0.698356 0.502154,-1.521809 1.562892,-2.049056 0.497236,-2.323796 -3.751004,-0.967062 -5.89502,1.882653 -7.658249,0.502774 -2.83549,-2.219019 2.02273,-1.141557 3.572972,-2.936673 4.430434,-5.130238 0.72805,-1.862499 0.726171,-3.126026 -0.009,-5.744457 -0.621216,-2.213952 -1.340398,-3.060579 -6.39693,-7.530426 -2.644698,-2.337841 -4.139749,-4.924156 -4.854654,-8.398163 -0.612919,-2.978409 -1.268986,-4.294256 -2.776372,-5.568464 -1.767978,-1.494496 -2.673002,-2.942879 -3.32333,-5.318612 -0.571942,-2.089431 -0.641775,-2.177411 -2.060567,-2.596332 -1.82533,-0.538956 -2.79376,-1.386981 -2.79376,-2.44642 0,-1.276861 1.284427,-3.687509 2.653059,-4.979332 0.686995,-0.648442 1.149759,-1.002354 1.028371,-0.786472 -0.297563,0.529179 0.668785,1.288548 1.321183,1.0382 0.625423,-0.239995 0.693804,-1.456653 0.102414,-1.822149 -0.272162,-0.168207 0.0619,-0.472142 0.949377,-0.863682 1.311415,-0.578595 1.379053,-0.577814 1.599637,0.01847 0.126678,0.342438 0.471914,0.715321 0.767192,0.828631 0.680658,0.261193 1.626287,-0.656802 1.368519,-1.328533 -0.215463,-0.561479 0.224298,-0.628827 1.907656,-0.292154 0.748183,0.149634 1.079104,0.414373 1.079104,0.863278 0,0.719788 0.687456,0.857805 1.286903,0.258362 0.864598,-0.864595 4.41325,2.289542 5.657162,5.02822 1.523243,3.353704 0.249563,4.381492 -6.453142,5.207334 l -1.753585,0.21606 0.294648,2.133945 c 0.602948,4.366856 1.364997,8.400704 1.903503,10.076101 0.551819,1.716835 2.054264,4.316388 2.4947,4.316388 0.52069,0 1.779717,-3.295799 1.975845,-5.172249 0.321174,-3.072867 0.0556,-3.69841 -1.692856,-3.98806 -2.028999,-0.336115 -2.677245,-0.74352 -2.677245,-1.68257 0,-1.129515 1.260872,-2.648767 1.971861,-2.375936 0.411467,0.157895 0.509379,0.07139 0.359934,-0.318048 -0.13459,-0.350751 0.08261,-0.666084 0.630678,-0.915823 0.515806,-0.235019 0.835945,-0.251477 0.835945,-0.04298 0,0.185849 0.233087,0.337908 0.517966,0.337908 0.28488,0 0.517967,-0.15539 0.517967,-0.345311 0,-0.189921 0.388475,-0.345311 0.863281,-0.345311 0.474807,0 0.863282,0.150513 0.863282,0.334473 0,0.18396 0.198694,0.258227 0.441538,0.165036 0.242856,-0.0932 0.747869,0.06213 1.122265,0.345167 0.378897,0.286438 0.489336,0.519473 0.249079,0.525586 -0.237408,0.0061 -0.431646,0.176843 -0.431646,0.379563 0,0.20272 0.284823,0.278182 0.63294,0.167695 0.452906,-0.143748 0.747554,0.05069 1.035933,0.683601 0.889212,1.951611 0.351505,2.702964 -2.229921,3.115946 l -1.338155,0.214083 -0.02487,3.336352 c -0.01722,2.314951 -0.20225,3.745693 -0.604287,4.67344 -0.815676,1.882229 -0.733227,2.839449 0.307253,3.567474 0.487693,0.341228 1.561316,1.11364 2.385838,1.71647 0.824522,0.602829 1.590937,1.004253 1.703142,0.892054 0.112205,-0.112205 0.207056,-0.83851 0.210793,-1.614021 0.0034,-0.775512 0.235968,-2.653141 0.516064,-4.172509 1.583375,-8.588948 1.884348,-10.867064 1.929995,-14.608206 0.05526,-4.53285 -0.382431,-6.086167 -2.451101,-8.698085 -1.621369,-2.047135 -2.727855,-4.805219 -3.16344,-7.88532 l -0.3974,-2.810117 -1.241931,-0.19328 C 34.044874,28.688167 30.273568,26.8499 29.682493,24.413346 29.13701,22.164779 31.545176,16.9103 34.698207,13.469322 c 2.160077,-2.35735 2.680519,-2.662647 2.680519,-1.572436 0,0.954075 0.929963,1.75122 2.043011,1.75122 2.007491,0 2.835254,-2.479893 1.245228,-3.7306058 L 39.811472,9.244568 42.223904,8.1658821 c 2.57994,-1.1535874 3.881384,-1.3795664 3.591282,-0.6235856 -0.29467,0.7679025 1.18171,2.3079639 2.206918,2.3021005 0.508502,-0.00293 1.095513,-0.1194506 1.304482,-0.2589833 0.71925,-0.4802524 1.232253,-1.8736324 1.012378,-2.7497076 l -0.220313,-0.877788 2.176486,0.2457415 c 3.866382,0.4365407 3.965025,0.4773487 3.804101,1.5737825 -0.110517,0.7525956 0.05638,1.10565 0.731718,1.5481285 1.051611,0.6890404 2.302365,0.2168045 2.302365,-0.8692799 0,-0.8588595 0.01553,-0.8572366 2.151839,0.2253274 4.363574,2.2111929 7.771738,5.7001199 9.875758,10.1097799 1.568204,3.286695 1.82273,5.679873 0.748792,7.040369 -0.879578,1.114263 -3.382325,2.463079 -5.6121,3.024541 -1.532415,0.385866 -1.560855,0.419619 -2.132234,2.530473 -0.426942,1.577246 -1.022619,2.659139 -2.267027,4.117428 -1.323828,1.551356 -1.736421,2.331022 -1.912719,3.614427 -0.410263,2.98666 -0.857238,4.366082 -2.613782,8.066447 -1.939842,4.086518 -2.000086,4.56398 -1.36727,10.835497 0.191638,1.89921 0.35245,4.675464 0.357345,6.169453 l 0.009,2.716342 1.32169,-1.194069 c 0.726925,-0.656738 1.821054,-1.489051 2.431395,-1.849586 0.610331,-0.360534 1.187708,-0.967861 1.283055,-1.349618 0.09532,-0.381754 0.205503,-2.90842 0.244769,-5.614811 0.06955,-4.791856 0.05244,-4.920711 -0.654008,-4.920684 -1.193752,4.6e-5 -2.90035,-0.724587 -2.90035,-1.231503 0,-0.278886 0.212796,-0.391692 0.517967,-0.274587 0.284879,0.109324 0.517966,0.02675 0.517966,-0.183493 0,-0.21024 -0.233087,-0.382255 -0.517966,-0.382255 -0.284879,0 -0.51719,-0.116542 -0.516256,-0.258983 0.0034,-0.462695 1.69962,-2.344305 1.712427,-1.899211 0.02026,0.705454 0.703043,0.489824 0.703043,-0.222039 0,-0.359523 0.233087,-0.743121 0.517967,-0.85244 0.284879,-0.109324 0.517966,-0.04825 0.517966,0.135711 0,0.18396 0.233088,0.334473 0.517967,0.334473 0.284879,0 0.517966,-0.15539 0.517966,-0.345311 0,-0.189921 0.310776,-0.34531 0.690619,-0.34531 0.379843,0 0.690629,0.16586 0.690629,0.36858 0,0.203087 0.290349,0.276425 0.64666,0.163336 0.457621,-0.145243 0.953461,0.144166 1.696086,0.989975 2.060848,2.347178 1.753291,3.548945 -1.000325,3.908677 -0.8333,0.108862 -1.629247,0.368874 -1.768777,0.577807 -0.386483,0.57872 -0.30884,5.730466 0.109053,7.23546 l 0.369467,1.330604 0.870799,-0.812638 c 1.727013,-1.611664 3.199184,-5.555519 4.247992,-11.380069 0.384153,-2.133422 0.63644,-3.940972 0.560632,-4.01678 -0.07585,-0.07581 -1.227492,-0.299559 -2.559289,-0.497228 -2.995988,-0.444668 -4.553546,-1.313999 -4.553546,-2.541497 0,-1.102197 0.839648,-2.801595 1.993965,-4.035656 0.790545,-0.845157 0.920802,-0.883022 1.291889,-0.375533 0.526294,0.719744 1.649966,0.339583 1.467185,-0.496376 -0.07281,-0.332938 -0.328917,-0.562642 -0.569151,-0.510456 -0.800955,0.173987 -0.07,-0.516707 1.028269,-0.971621 0.947114,-0.392309 1.123795,-0.37626 1.405816,0.127693 0.596668,1.066184 1.899282,0.650455 1.710379,-0.545872 -0.02251,-0.142441 0.580675,-0.258983 1.340361,-0.258983 1.151031,0 1.381237,0.115103 1.381237,0.690622 0,0.383679 0.230206,0.690622 0.517966,0.690622 0.284891,0 0.517967,-0.15539 0.517967,-0.345311 0,-0.716306 0.993133,-0.297396 2.555653,1.077987 1.832691,1.613199 2.969327,3.576708 2.969327,5.129442 0,0.890684 -0.201969,1.141728 -1.294916,1.609556 -2.23673,0.957414 -2.328588,1.035262 -2.429842,2.059209 -0.379157,3.834388 -0.718799,4.542022 -3.726087,7.763228 -1.59967,1.713452 -2.908486,3.256801 -2.908486,3.429663 0,0.172862 -0.322063,1.175093 -0.715704,2.22718 -0.937987,2.506991 -2.837505,4.863968 -5.869744,7.283345 -2.632013,2.100041 -4.052685,4.019374 -5.154129,6.96324 -2.078225,5.55456 -0.732124,9.809788 4.113008,13.001776 2.480396,1.63409 3.482837,2.491798 3.482837,2.979986 0,0.765905 -1.541779,0.640033 -4.033846,-0.329326 -1.484843,-0.577574 -3.066192,-1.050851 -3.514101,-1.051724 -0.719215,-0.0014 -0.785075,0.109392 -0.563591,0.948016 0.67287,2.547713 -0.322525,2.830963 -2.788223,0.793426 -0.93029,-0.768746 -1.964568,-1.397721 -2.298404,-1.397721 -0.333835,0 -1.464901,0.77695 -2.513495,1.726556 -1.048583,0.949605 -1.944749,1.726555 -1.991465,1.726555 -0.04671,0 -0.573225,0.140035 -1.170006,0.311186 -0.718371,0.206029 -1.211297,0.184932 -1.458654,-0.06243 z M 31.309771,51.188666 C 31.180448,49.7616 30.978119,48.446273 30.86014,48.265716 30.742173,48.085159 29.985233,47.85123 29.178066,47.745873 c -1.287376,-0.168036 -1.467568,-0.109436 -1.467568,0.477298 0,1.185394 1.036518,3.202496 2.325278,4.525084 0.690585,0.708717 1.312653,1.23154 1.382362,1.161828 0.06966,-0.06971 0.02093,-1.294351 -0.108378,-2.721417 z m 9.004587,2.515533 c -0.117382,-0.189921 -0.446502,-0.345311 -0.731381,-0.345311 -0.284891,0 -0.421934,0.15539 -0.304552,0.345311 0.11737,0.189921 0.44649,0.345311 0.73137,0.345311 0.28489,0 0.421934,-0.15539 0.304563,-0.345311 z m 4.661699,-0.172656 c 0,-0.284882 -0.155399,-0.517967 -0.345315,-0.517967 -0.189927,0 -0.345315,0.233085 -0.345315,0.517967 0,0.284882 0.155388,0.517967 0.345315,0.517967 0.189916,0 0.345315,-0.233085 0.345315,-0.517967 z M 42.904191,53.41644 c 0,-0.449621 -0.4105,-0.748647 -0.744425,-0.54227 -0.357121,0.220716 -0.04918,0.830029 0.419491,0.830029 0.178707,0 0.324934,-0.129491 0.324934,-0.287759 z m -4.489048,-0.575519 c 0,-0.284881 -0.233087,-0.517966 -0.517966,-0.517966 -0.539226,0 -0.685093,0.408399 -0.287761,0.805726 0.397321,0.397326 0.805727,0.25147 0.805727,-0.28776 z M 72.10927,51.41069 c 1.274963,-0.835385 2.487858,-3.146936 2.767279,-5.27392 0.221428,-1.685498 0.186675,-1.847168 -0.352607,-1.640227 -0.32903,0.126262 -1.027999,0.229567 -1.553247,0.229567 -0.950412,0 -0.957435,0.01743 -1.460309,3.625767 -0.277925,1.994172 -0.451556,3.625766 -0.385853,3.625766 0.06573,0 0.508839,-0.255128 0.984737,-0.566953 z m -9.522351,-0.986946 c 0,-0.284882 -0.155387,-0.517967 -0.345314,-0.517967 -0.189916,0 -0.345315,0.233085 -0.345315,0.517967 0,0.284881 0.155399,0.517966 0.345315,0.517966 0.189927,0 0.345314,-0.233085 0.345314,-0.517966 z m 4.834351,-0.172655 c 0,-0.189922 -0.242248,-0.345312 -0.538348,-0.345312 -0.296089,0 -0.442304,0.15539 -0.324922,0.345312 0.117371,0.18992 0.35963,0.34531 0.538337,0.34531 0.178718,0 0.324933,-0.15539 0.324933,-0.34531 z m -2.244518,-0.345312 c -0.117382,-0.189921 -0.35963,-0.345311 -0.538348,-0.345311 -0.178706,0 -0.324933,0.15539 -0.324933,0.345311 0,0.189922 0.242259,0.345312 0.538348,0.345312 0.296088,0 0.442304,-0.15539 0.324933,-0.345312 z m -1.5539,-1.5539 c 0,-0.284881 -0.155387,-0.517966 -0.345314,-0.517966 -0.189916,0 -0.345315,0.233085 -0.345315,0.517966 0,0.284882 0.155399,0.517967 0.345315,0.517967 0.189927,0 0.345314,-0.233085 0.345314,-0.517967 z m 2.589833,-0.172656 c -0.117382,-0.18992 -0.35963,-0.34531 -0.538348,-0.34531 -0.178706,0 -0.324933,0.15539 -0.324933,0.34531 0,0.189922 0.242259,0.345312 0.538348,0.345312 0.296089,0 0.442304,-0.15539 0.324933,-0.345312 z M 55.613436,44.588233 c 1.254457,-1.842406 2.066689,-4.347461 2.284043,-7.044359 0.110179,-1.367561 0.287501,-3.574203 0.393955,-4.90365 l 0.193574,-2.417178 H 56.165514 53.84602 l 0.225558,5.438649 c 0.124067,2.991258 0.226087,6.487532 0.226717,7.769499 6.42e-4,1.281967 0.117698,2.329788 0.260143,2.328491 0.142434,-0.0014 0.617184,-0.528451 1.054998,-1.171452 z m -24.486153,0.354302 c 0.533993,-0.643425 0.114658,-1.597668 -0.702075,-1.597668 -0.74178,0 -1.166325,0.764175 -0.863282,1.5539 0.248461,0.647462 1.045837,0.669757 1.565357,0.04377 z m 9.652686,-0.176761 c 0.681233,-0.43172 0.336379,-1.576584 -0.511517,-1.698148 -0.86587,-0.12414 -1.356354,0.836404 -0.781058,1.529597 0.455179,0.548446 0.652511,0.574178 1.292575,0.168551 z M 23.91208,43.862834 c 0,-0.624322 -0.185527,-0.863278 -0.670248,-0.863278 -0.368634,0 -0.770873,0.162831 -0.893871,0.361847 -0.369916,0.59852 0.114411,1.364707 0.862652,1.364707 0.518022,0 0.701467,-0.22576 0.701467,-0.863276 z m 12.708435,-0.38769 c 0.129311,-0.906266 -0.899453,-1.382609 -1.55982,-0.722239 -0.26192,0.261916 -0.368014,0.733431 -0.240053,1.066879 0.322829,0.841278 1.667399,0.58382 1.799873,-0.34464 z m -8.946346,-0.259165 c 0.575307,-0.693192 0.08486,-1.653738 -0.781047,-1.529597 -0.847896,0.121564 -1.19275,1.266428 -0.511517,1.698147 0.640064,0.405628 0.837396,0.379895 1.292564,-0.16855 z m 43.372867,-1.425013 c 0,-0.762854 -1.077169,-1.132815 -1.645003,-0.564984 -0.253874,0.253872 -0.226425,0.52769 0.09127,0.910471 0.601034,0.724196 1.553753,0.512351 1.553753,-0.345487 z m 8.447568,0.01513 c 0.474536,-0.571771 0.205267,-1.223715 -0.505407,-1.223715 -0.621393,0 -0.975059,0.591876 -0.732056,1.225125 0.245286,0.639215 0.706228,0.638689 1.237463,-0.0014 z M 64.658786,41.29338 c 0,-0.929814 -0.653243,-1.241688 -1.282582,-0.612341 -0.62935,0.629346 -0.317472,1.282584 0.612334,1.282584 0.433244,0 0.670248,-0.237001 0.670248,-0.670243 z m 11.243083,-0.05351 c 0.128648,-0.208147 -0.01756,-0.629919 -0.324933,-0.937272 -0.514883,-0.514893 -0.602756,-0.514893 -1.11765,0 -0.652669,0.652672 -0.371054,1.315719 0.558831,1.315719 0.357424,0 0.755116,-0.1703 0.883752,-0.378447 z M 33.40813,40.414453 c 0,-0.761812 -1.073534,-1.141183 -1.636428,-0.57829 -0.580382,0.580383 -0.0079,1.497682 0.857936,1.37473 0.509391,-0.07233 0.778492,-0.347638 0.778492,-0.79644 z m 5.179665,-0.551471 c 0,-0.602377 -0.190782,-0.834502 -0.685891,-0.834502 -0.810285,0 -1.153045,1.161067 -0.470339,1.593236 0.714354,0.452212 1.15623,0.162247 1.15623,-0.758734 z M 68.04712,40.14573 c 0.137437,-0.713613 -0.85941,-1.194465 -1.385536,-0.668346 -0.526114,0.526118 -0.04524,1.522963 0.668346,1.385534 0.330763,-0.0637 0.653491,-0.386432 0.71719,-0.717188 z m -19.163355,-5.865277 0.210691,-4.057406 h -2.577172 c -2.950915,0 -2.973412,0.03523 -2.104931,3.296384 0.613875,2.305106 1.090449,3.180358 2.580075,4.738505 1.551806,1.623183 1.606457,1.508232 1.891337,-3.977483 z m 24.00017,3.944029 c 0.08126,-0.55241 -0.06809,-0.749902 -0.56735,-0.749902 -0.812356,0 -1.198355,0.79634 -0.651217,1.343482 0.550953,0.550948 1.088704,0.289002 1.218567,-0.59358 z m 4.744497,-0.09242 c 0.128636,-0.208146 0.02127,-0.591002 -0.238602,-0.85079 -0.599042,-0.598836 -1.518662,-0.09073 -1.224284,0.67642 0.242687,0.632431 1.115489,0.736465 1.462886,0.17437 z M 62.649955,31.184765 c 0.216104,-0.721314 0.321016,-1.383385 0.233143,-1.471267 -0.0879,-0.08788 -0.734341,-0.06655 -1.436574,0.0474 l -1.276786,0.207193 v 2.263945 2.263946 l 1.043643,-0.999871 c 0.574001,-0.549928 1.220458,-1.590038 1.436574,-2.311353 z M 49.953832,24.73037 c 0.379674,-0.419538 0.555646,-1.076229 0.48516,-1.810481 -0.247177,-2.574518 -3.797168,-2.488319 -4.013655,0.09745 -0.125564,1.499772 0.600325,2.371347 1.974967,2.371347 0.526767,0 1.225849,-0.296245 1.553528,-0.658322 z m 20.498404,-0.569848 c 1.088435,-0.762365 1.060558,-2.707594 -0.04918,-3.434743 -0.97687,-0.64007 -2.386862,-0.247056 -2.960751,0.825261 -0.507466,0.948209 -0.46856,1.197345 0.349378,2.237184 0.817263,1.03899 1.560314,1.142965 2.660588,0.372298 z M 34.530394,23.388614 c 1.130942,-1.438703 -0.210387,-3.777181 -1.929139,-3.363267 -1.090809,0.262691 -1.782958,1.07127 -1.782958,2.082889 0,1.964032 2.497514,2.825475 3.712097,1.280378 z m 27.02147,-0.590818 c 1.028235,-1.238947 0.02026,-3.624704 -1.53147,-3.624704 -1.921475,0 -2.949193,2.127869 -1.696345,3.512249 0.695233,0.768222 2.627704,0.835548 3.227815,0.112452 z M 42.711945,20.822814 c 1.471834,-2.10133 -0.62576,-4.256429 -2.938265,-3.018816 -0.832129,0.445341 -0.909908,2.459021 -0.125282,3.24364 0.805423,0.805428 2.425194,0.686558 3.063547,-0.224824 z m 11.775861,-4.56917 c 1.01383,-1.013837 1.059072,-1.577211 0.21077,-2.624825 -0.804905,-0.994008 -2.702826,-1.075302 -3.383146,-0.144911 -0.670721,0.917264 -0.579235,2.125931 0.221529,2.926696 0.923818,0.923816 1.923231,0.870657 2.950847,-0.15696 z M 65.75386,15.148496 c 1.271485,-1.150679 0.254977,-3.572247 -1.49953,-3.572247 -1.803835,0 -2.626522,2.148696 -1.322107,3.453111 0.839737,0.839727 1.972536,0.887558 2.821637,0.119136 z"
       id="path56" /><path
       style="fill:#552f14;fill-opacity:1;stroke-width:1.12543"
       d="m 45.32136,91.674435 c 0,-0.197612 0.331709,-0.807955 0.737132,-1.356318 0.789184,-1.067431 0.673816,-2.082811 -0.236654,-2.082811 -0.30642,0 -1.67629,0.386283 -3.044157,0.858406 -1.367855,0.472124 -3.25864,0.899446 -4.201725,0.949606 -1.514904,0.08057 -1.714712,0.01069 -1.714712,-0.599422 0,-0.478625 0.55066,-0.985725 1.793874,-1.651974 1.998387,-1.070951 4.384248,-3.574473 5.168231,-5.4231 0.987889,-2.329444 0.49781,-6.066542 -1.140485,-8.696785 -0.434662,-0.697836 -1.802574,-1.99114 -3.039801,-2.87401 -2.632711,-1.878662 -4.554412,-3.96156 -5.611165,-6.081846 -0.6883,-1.380988 -0.930425,-2.180428 -1.904752,-6.288995 -0.213707,-0.901174 -1.05547,-2.120696 -2.653149,-3.84379 -1.913913,-2.064157 -2.444844,-2.897053 -2.915093,-4.572985 -0.714646,-2.546986 -0.715524,-2.521811 0.08823,-2.521811 0.468313,0 0.734364,0.329769 0.905417,1.122261 0.401991,1.862424 1.421403,3.54028 2.781032,4.577319 l 1.287319,0.981882 -0.224882,-3.168075 -0.224872,-3.168076 h 0.843868 c 0.688198,0 0.874108,0.207011 1.007853,1.122261 1.56144,10.685623 2.27836,13.317398 4.091929,15.021154 l 0.816126,0.766714 0.932732,-1.901804 c 0.770085,-1.570157 0.932742,-2.369395 0.932742,-4.583159 0,-2.433807 0.0637,-2.686158 0.690619,-2.733379 0.592368,-0.04462 0.698958,0.178278 0.749219,1.566745 0.104215,2.878314 -0.107816,4.685155 -0.789498,6.727151 -0.393855,1.179864 -0.552945,2.205853 -0.387811,2.500944 0.236317,0.422259 4.776504,3.613282 5.140984,3.613282 0.06685,0 0.121457,-0.707428 0.121457,-1.572062 0,-1.418654 0.368464,-3.562992 1.391241,-8.096649 0.569601,-2.524847 1.371254,-9.631029 1.371254,-12.155386 0,-2.737373 -0.851329,-5.285212 -2.416967,-7.233432 -1.71577,-2.135049 -2.762316,-4.582418 -3.316003,-7.754537 -0.28578,-1.637266 -0.445298,-3.05115 -0.354487,-3.141963 0.09082,-0.09081 0.478138,-0.06577 0.860715,0.05566 0.519328,0.164828 0.793753,0.719707 1.082987,2.189723 0.507005,2.57682 1.808629,5.204081 3.289241,6.63915 0.654211,0.634086 1.259105,1.083253 1.34421,0.998149 0.08508,-0.0851 0.263035,-2.249942 0.395419,-4.810753 l 0.240672,-4.656017 2.158907,0.113991 2.158896,0.113991 0.209543,1.267253 c 0.115255,0.69699 0.212064,2.665763 0.215137,4.375053 0.0034,1.70929 0.105902,4.622451 0.228484,6.473689 0.249507,3.767877 0.433379,3.858338 2.091516,1.028943 1.202237,-2.051451 1.743894,-4.569905 2.028166,-9.430058 0.232108,-3.968215 0.255112,-4.056458 1.099216,-4.217819 l 0.862133,-0.164808 -0.221011,2.378076 c -0.130235,1.4012 -0.08846,2.378077 0.101513,2.378077 0.593911,0 2.457764,-2.575017 2.811868,-3.884749 0.201677,-0.745947 0.564053,-1.294916 0.854762,-1.294916 1.256405,0 0.132913,3.278962 -1.978208,5.773523 -0.92904,1.097786 -1.745684,2.306755 -1.814762,2.686598 -0.0691,0.379842 -0.319115,1.778351 -0.555635,3.107799 -0.270946,1.522985 -1.081096,3.758465 -2.189991,6.042944 -2.010406,4.141694 -1.990723,3.943112 -1.317999,13.294477 0.218592,3.038736 0.402318,5.819599 0.408271,6.179694 0.01013,0.58969 0.08823,0.571234 0.789803,-0.185818 0.428438,-0.462294 1.692226,-1.515184 2.808402,-2.339754 l 2.029415,-1.499218 -0.220449,-2.643339 c -0.121242,-1.453837 -0.120792,-3.822151 9.9e-4,-5.26292 0.202521,-2.395724 0.280187,-2.604218 0.908952,-2.439795 0.624251,0.163246 0.666928,0.373599 0.463822,2.286257 -0.220134,2.073109 0.384052,6.76817 0.870968,6.76817 0.33998,0 1.960876,-1.977083 2.54163,-3.100134 0.838691,-1.621834 1.84022,-4.893901 2.433331,-7.94982 0.313319,-1.614329 0.676821,-3.479009 0.807776,-4.143733 0.197332,-1.001644 0.406256,-1.228017 1.220165,-1.322053 0.93909,-0.108503 0.972977,-0.06317 0.774463,1.035934 -0.611535,3.385887 -0.952505,6.234389 -0.768307,6.418586 0.281728,0.281721 2.55661,-1.936734 3.152963,-3.074747 0.263249,-0.502346 0.581992,-1.590076 0.70831,-2.417178 0.43706,-2.861689 1.733461,-3.37738 1.393256,-0.554214 -0.43123,3.578404 -0.854379,4.436343 -3.372241,6.837161 -2.015718,1.92203 -2.564837,2.711046 -3.569179,5.128518 -1.416418,3.409331 -2.254838,4.565666 -5.075226,6.99967 -4.426541,3.820126 -5.459042,5.25674 -6.64092,9.240178 -1.542668,5.199436 -0.0736,8.810033 4.995771,12.278484 4.23308,2.896255 3.404113,3.877145 -1.587483,1.878414 -3.294597,-1.319223 -3.742382,-1.203631 -3.429131,0.885217 0.209633,1.397974 0.164031,1.55647 -0.447807,1.55647 -0.374666,0 -1.387348,-0.62156 -2.250393,-1.381245 -1.999096,-1.759676 -2.85065,-1.761795 -4.559915,-0.01134 -1.438082,1.472732 -3.12781,2.428526 -4.293336,2.428526 -0.398615,0 -0.724764,-0.161682 -0.724764,-0.359293 z m 5.747106,-10.796973 c 0.201148,-2.379626 -0.353789,-7.317454 -0.857418,-7.629218 -0.125395,-0.07762 -0.227989,2.649912 -0.227989,6.061192 0,5.333371 0.06122,6.052986 0.436936,5.136371 0.240312,-0.586278 0.532124,-2.192033 0.648471,-3.568345 z m -3.673416,-0.16365 c 0.771199,-2.046442 0.910729,-4.212176 0.738989,-11.470615 -0.116898,-4.940651 -0.125148,-4.986416 -0.622339,-3.453111 -0.353001,1.088629 -0.526666,3.466683 -0.580011,7.942156 -0.07236,6.067132 -0.123032,6.501081 -1.008642,8.632776 l -0.932484,2.244522 0.858578,-1.035933 c 0.472217,-0.569763 1.167878,-1.856672 1.545909,-2.859795 z m 7.855559,-1.832237 c -0.280985,-0.764268 -0.433188,-3.14131 -0.433188,-6.765317 0,-5.734547 -0.17183,-6.297777 -0.830835,-2.723313 -0.67296,3.650183 -0.412402,6.662878 0.834324,9.646718 0.676348,1.618737 1.034526,1.486964 0.429699,-0.158088 z M 53.733264,57.675276 c -0.0056,-2.713231 -0.17559,-5.213127 -0.387237,-5.697633 -0.299994,-0.686783 -0.374419,-0.0514 -0.363997,3.107801 0.0068,2.184091 -0.07844,5.447282 -0.190378,7.251531 l -0.203454,3.280456 0.577603,-1.5539 c 0.440762,-1.185785 0.575194,-2.699147 0.567463,-6.388255 z m -3.107023,-5.036212 c 0.149164,-2.489496 0.06944,-4.287458 -0.259006,-5.841086 -0.463946,-2.194584 -0.474761,-2.094707 -0.485982,4.489044 -0.01193,6.979345 0.366653,7.666361 0.744988,1.352042 z"
       id="path52" /></g></svg>
