<?xml version="1.0" encoding="UTF-8" standalone="no"?>
<!-- Created with Inkscape (http://www.inkscape.org/) -->

<svg
   width="100mm"
   height="100mm"
   viewBox="0 0 100 100"
   version="1.1"
   id="svg1"
   inkscape:version="1.4 (86a8ad7, 2024-10-11)"
   sodipodi:docname="tree2.svg"
   xml:space="preserve"
   xmlns:inkscape="http://www.inkscape.org/namespaces/inkscape"
   xmlns:sodipodi="http://sodipodi.sourceforge.net/DTD/sodipodi-0.dtd"
   xmlns="http://www.w3.org/2000/svg"
   xmlns:svg="http://www.w3.org/2000/svg"><sodipodi:namedview
     id="namedview1"
     pagecolor="#ffffff"
     bordercolor="#000000"
     borderopacity="0.25"
     inkscape:showpageshadow="2"
     inkscape:pageopacity="0.0"
     inkscape:pagecheckerboard="true"
     inkscape:deskcolor="#d1d1d1"
     inkscape:document-units="mm"
     inkscape:zoom="0.87925266"
     inkscape:cx="445.83317"
     inkscape:cy="230.30923"
     inkscape:window-width="1920"
     inkscape:window-height="1009"
     inkscape:window-x="1912"
     inkscape:window-y="-8"
     inkscape:window-maximized="1"
     inkscape:current-layer="layer1" /><defs
     id="defs1" /><g
     inkscape:label="Warstwa 1"
     inkscape:groupmode="layer"
     id="layer1"><path
       style="fill:#ac7e47;fill-opacity:1;stroke-width:1.06168"
       d="m 44.074595,91.451813 c -0.241786,-0.391197 0.254347,-1.402075 0.986226,-2.009494 0.642019,-0.532814 0.684348,-1.655837 0.07135,-1.891095 -0.248337,-0.09523 -1.87517,0.281313 -3.615199,0.836911 -4.091436,1.306397 -5.685357,1.548173 -6.448948,0.978232 -0.542742,-0.405094 -0.549377,-0.509012 -0.0757,-1.185291 0.28556,-0.407706 1.436112,-1.229987 2.556789,-1.827299 4.495735,-2.3962 7.630715,-8.952665 5.779327,-12.086817 -0.751478,-1.272146 -2.224017,-1.938499 -5.074796,-2.296455 -3.93985,-0.494711 -6.405017,-1.99807 -7.817995,-4.767737 -0.60709,-1.189994 -0.669294,-1.218797 -3.076938,-1.424466 -3.05201,-0.260706 -5.611836,-1.004508 -6.588475,-1.914388 -1.561083,-1.454366 -0.447254,-5.024059 2.381113,-7.631153 1.947757,-1.795384 3.146404,-2.394852 5.962647,-2.982055 2.01288,-0.419698 2.601433,-0.416862 4.690595,0.0226 2.790763,0.587054 3.707565,1.02274 5.618673,2.670099 1.610642,1.388373 3.470025,4.824898 3.470025,6.413342 0,1.695873 -1.891435,2.923769 -5.128527,3.329373 -0.878583,0.110086 -2.291678,0.287078 -3.140225,0.393331 -1.522873,0.190678 -1.53487,0.201942 -0.928577,0.871894 1.086618,1.200695 1.894068,1.428001 5.834353,1.642418 2.127086,0.115755 4.116238,0.320627 4.420334,0.45528 0.469613,0.207951 0.585878,-0.07517 0.771703,-1.879343 0.120342,-1.168293 0.532518,-4.008841 0.915932,-6.312328 0.666172,-4.002162 0.671237,-4.236232 0.114205,-5.270588 C 45.064983,54.310181 43.313849,53.380609 40.083466,52.577439 37.41915,51.915012 35.31074,50.478469 34.32272,48.652403 33.70805,47.516379 33.508104,47.40238 31.800488,47.2143 c -5.194607,-0.572139 -7.403547,-1.612679 -7.403547,-3.487501 0,-1.391714 1.559352,-4.219393 3.088828,-5.601184 1.885087,-1.703063 3.93417,-2.530843 6.77567,-2.737211 2.990953,-0.217221 5.478288,0.619638 7.728284,2.600167 1.638001,1.441829 3.257646,4.280488 3.257646,5.709502 0,1.697046 -1.993462,2.800911 -5.804499,3.214202 -2.893872,0.313827 -3.245755,0.552223 -2.052003,1.390201 1.225369,0.860172 2.790359,1.331599 5.33427,1.606856 1.109784,0.120081 2.564211,0.49693 3.232071,0.837442 l 1.214285,0.619114 0.21498,-2.543162 c 0.323769,-3.830189 0.258731,-15.893572 -0.08568,-15.893572 -1.380693,0 -7.735046,-0.812847 -9.6201,-1.230601 -2.995911,-0.663933 -6.314615,-2.222331 -7.245485,-3.402339 -1.704972,-2.161294 0.139898,-7.964782 3.824902,-12.032132 4.077232,-4.500268 9.102903,-6.8067386 15.510712,-7.1184423 3.188967,-0.1551252 4.097308,-0.073606 6.406216,0.5749015 4.431227,1.2446168 6.73865,2.5557748 9.772399,5.5530108 3.381778,3.341088 5.259092,6.792009 5.464156,10.044311 0.108694,1.723886 0.01147,2.212725 -0.592534,2.978351 -0.911431,1.155366 -4.225007,2.747362 -7.102434,3.412339 -1.924485,0.44475 -8.07834,1.220601 -9.681508,1.220601 -0.659197,0 -0.65719,0.068 0.303694,10.257064 0.953728,10.113226 1.044363,10.929659 1.213351,10.929659 0.08355,0 0.560481,-0.210301 1.059949,-0.467335 0.499456,-0.257034 2.034719,-0.641308 3.411685,-0.853942 1.376956,-0.212634 3.117293,-0.662779 3.867412,-1.000322 1.295588,-0.582995 3.15272,-2.226419 2.850492,-2.522466 -0.07782,-0.07621 -1.555944,-0.381988 -3.284762,-0.679514 -3.179995,-0.547272 -4.113912,-0.872182 -5.18005,-1.802146 -2.046016,-1.784702 1.483527,-7.67372 5.74205,-9.580553 2.436682,-1.09107 6.721227,-1.196166 9.290247,-0.227884 4.769383,1.797624 8.531805,7.863211 6.215826,10.020866 -0.933684,0.869868 -3.912109,1.661612 -7.291785,1.938356 -2.157152,0.176637 -2.774455,0.340796 -2.774455,0.737807 0,0.280843 -0.373743,1.148363 -0.83053,1.927824 -1.032452,1.761744 -3.459217,3.357921 -6.476999,4.260169 -3.631793,1.085825 -4.629007,1.72432 -5.520393,3.534573 -0.741668,1.50621 -0.791047,1.978109 -0.775323,7.409758 0.0096,3.251351 0.159337,5.943642 0.341096,6.125402 0.208196,0.208206 0.864345,0.135428 1.832841,-0.20329 1.088264,-0.380602 2.170179,-0.473626 3.883422,-0.333909 2.843836,0.231924 4.527564,-0.176101 5.94206,-1.439956 l 1.050691,-0.93879 -2.43494,-0.23994 C 63.54762,69.492361 61.220557,68.83223 60.34895,68.043434 c -1.399293,-1.26635 -0.407918,-4.664978 2.089152,-7.162049 1.718508,-1.718514 3.721059,-2.679343 6.479228,-3.10875 5.181738,-0.806721 10.611454,2.412535 12.024655,7.129364 0.546383,1.823668 0.162936,2.882502 -1.313605,3.627302 -1.29389,0.652667 -4.87467,1.392541 -6.739467,1.392541 -0.854949,0 -1.162114,0.208747 -1.608264,1.092967 -1.458875,2.891357 -3.631644,4.167994 -8.173275,4.802326 -3.01999,0.421806 -3.299753,0.52825 -4.322978,1.644775 -1.338407,1.460457 -1.358292,2.000449 -0.144187,3.914901 0.676375,1.066542 1.932978,2.156441 4.364734,3.785694 1.878196,1.258377 3.506812,2.43666 3.619127,2.618409 0.296697,0.48006 -0.500932,1.309869 -1.259077,1.309869 -0.357744,0 -1.929996,-0.529672 -3.493881,-1.177042 -3.982848,-1.648703 -4.734103,-1.518042 -3.867348,0.672595 0.725392,1.833351 -1.220018,2.069819 -3.195464,0.388416 -2.532116,-2.155242 -2.564869,-2.155443 -4.875338,-0.03132 -2.628644,2.416584 -5.227381,3.52932 -5.858326,2.508419 z"
       id="path59" /><path
       style="fill:#611415;fill-opacity:1;stroke-width:1.06168"
       d="m 44.238444,91.20063 c 0,-0.348687 0.367787,-1.132493 0.817303,-1.74178 0.887043,-1.20232 0.818756,-2.049551 -0.165198,-2.049551 -0.341616,0 -2.021798,0.454006 -3.733735,1.008893 -1.714241,0.55564 -3.846889,1.008892 -4.747034,1.008892 -1.501459,0 -1.625697,-0.06136 -1.526971,-0.754748 0.07241,-0.508841 0.710072,-1.099464 1.957099,-1.812807 2.97007,-1.699005 4.528828,-3.284517 5.836063,-5.936263 1.557144,-3.158677 1.798283,-4.750028 0.953611,-6.293254 -0.872934,-1.594855 -2.129262,-2.255623 -5.112974,-2.689181 -1.384589,-0.201199 -3.15099,-0.595283 -3.925326,-0.875747 -1.532428,-0.555046 -3.6715,-2.678479 -4.186542,-4.155923 -0.294626,-0.845171 -0.511305,-0.946477 -2.40912,-1.126389 -5.178289,-0.490899 -7.721765,-1.61629 -7.905987,-3.498083 -0.203981,-2.08349 1.818253,-5.33558 4.430059,-7.124323 2.001903,-1.371032 2.779349,-1.557072 2.998873,-0.717618 0.107527,0.4112 0.457934,0.682025 0.882425,0.682025 0.558114,0 0.704085,-0.209161 0.704085,-1.008892 0,-0.983905 0.04087,-1.008891 1.649998,-1.008891 1.459831,0 1.630602,0.0742 1.481648,0.6438 -0.225734,0.86319 1.060204,1.605735 1.766157,1.019845 0.265622,-0.220447 0.482947,-0.619482 0.482947,-0.886742 0,-0.349572 0.212336,-0.419785 0.75667,-0.250214 2.30738,0.718791 3.01484,1.262362 2.099928,1.613448 -0.973359,0.373512 -0.364666,2.231726 0.73104,2.231726 0.234546,0 0.638154,-0.404049 0.896896,-0.897886 l 0.470452,-0.897887 1.211164,1.654556 c 1.209826,1.65272 2.241279,4.074168 2.241279,5.26164 0,1.662555 -3.980045,3.28701 -8.053443,3.28701 -2.041982,0 -2.244454,0.574814 -0.611931,1.737268 0.930912,0.662871 1.66828,0.806962 5.128527,1.002141 2.222711,0.125374 4.381795,0.33462 4.797963,0.464984 0.729002,0.228356 0.757402,0.158731 0.776714,-1.904059 0.01104,-1.177593 0.157776,-2.897748 0.326116,-3.822566 1.073985,-5.900187 1.125147,-6.784175 0.45872,-7.924713 -0.766458,-1.311728 -2.378533,-2.201757 -4.830057,-2.666677 -2.744155,-0.520419 -5.025917,-1.942346 -6.384144,-3.9784 -1.11333,-1.668946 -1.224117,-1.74084 -2.69037,-1.745878 -1.96605,-0.0068 -5.131415,-0.75249 -6.219117,-1.465179 -0.466587,-0.305722 -0.940945,-0.924784 -1.054109,-1.375693 -0.248295,-0.989289 1.001641,-3.874421 2.389638,-5.515827 0.916092,-1.083344 0.968082,-1.101258 1.219955,-0.420372 0.172958,0.467557 0.554812,0.711192 1.114668,0.711192 0.684157,0 0.851573,-0.165295 0.851573,-0.840743 0,-0.462408 -0.163945,-0.840743 -0.364315,-0.840743 -0.200382,0 -0.305361,-0.176887 -0.233294,-0.393082 0.158573,-0.475739 2.615394,-1.376143 2.615394,-0.958522 0,0.162069 0.237509,0.532181 0.527804,0.822471 0.711696,0.711694 1.967207,0.09547 1.721311,-0.844849 -0.134833,-0.515573 0.0096,-0.642886 0.724968,-0.639208 1.644892,0.0085 2.341491,0.340178 2.161303,1.029219 -0.2384,0.911628 0.880982,1.276843 1.465107,0.478012 0.435119,-0.595062 0.489169,-0.594096 1.647939,0.02943 1.652493,0.889199 2.982173,2.348312 4.003105,4.392784 1.100293,2.203403 1.102257,3.246097 0.0074,4.107058 -0.933057,0.733948 -4.785234,1.729303 -6.692658,1.729303 -1.329074,0 -1.489929,0.301203 -0.593903,1.112093 0.963283,0.871763 2.767841,1.486287 5.116222,1.742284 1.202267,0.131057 2.818473,0.512895 3.591577,0.848527 l 1.405632,0.61024 0.20037,-2.072498 c 0.110203,-1.139874 0.234334,-5.326173 0.275846,-9.302887 l 0.07548,-7.23039 -3.194827,-0.21415 C 37.924095,32.101079 33.39168,30.790509 31.183641,28.674834 29.710253,27.263076 29.693319,27.221409 29.84583,25.382371 c 0.106168,-1.279865 0.58644,-2.731722 1.535178,-4.640525 1.305048,-2.625679 4.15691,-6.284978 5.428558,-6.965545 0.492948,-0.263821 0.560439,-0.174759 0.449674,0.593423 -0.154103,1.0687 0.940913,2.417167 1.962843,2.417167 0.842634,0 2.325694,-1.443702 2.325694,-2.263966 0,-0.928787 -0.962348,-2.107898 -1.720398,-2.107898 -0.370356,0 -0.585973,-0.141413 -0.479157,-0.314253 0.202133,-0.327058 5.279668,-2.3761241 5.887978,-2.3761241 0.190933,0 0.347148,0.4454201 0.347148,0.9898221 0,1.06004 1.010878,2.036852 2.107901,2.036852 0.337179,0 1.001408,-0.388366 1.476085,-0.863035 0.689592,-0.68959 0.821442,-1.070988 0.656086,-1.8977723 l -0.206943,-1.0347372 2.660866,0.1823796 c 2.724949,0.1867727 4.146103,0.6266807 3.4381,1.0642459 -0.605667,0.374328 -0.439599,1.717674 0.294478,2.382007 0.556883,0.503966 0.819787,0.543485 1.513339,0.227481 0.770429,-0.351029 1.006749,-0.894964 0.865163,-1.991299 -0.04013,-0.310398 0.165803,-0.333861 0.803182,-0.09153 2.817559,1.071233 6.339479,3.679582 8.275579,6.128935 2.550058,3.226073 4.407392,8.056563 3.890152,10.117406 -0.701409,2.79464 -6.481977,5.05174 -14.100005,5.50554 -1.99515,0.11885 -3.702097,0.336722 -3.793221,0.484162 -0.09109,0.14744 0.152032,3.566843 0.540352,7.598672 0.38832,4.03183 0.84136,8.76827 1.006769,10.525423 0.16541,1.757153 0.306136,3.236146 0.312739,3.286651 0.0064,0.0505 0.3699,-0.142683 0.807344,-0.429305 0.437433,-0.286622 2.13147,-0.754347 3.764503,-1.039389 3.540998,-0.618069 4.716935,-1.076864 5.949439,-2.321179 1.315601,-1.328222 1.201577,-1.850858 -0.40382,-1.850858 -1.831026,0 -4.650878,-0.633076 -6.112503,-1.372298 -1.215761,-0.614876 -1.641834,-1.206309 -1.635602,-2.270401 0.0053,-0.953224 1.531887,-3.902087 2.720192,-5.255495 1.111579,-1.266015 1.13363,-1.274074 1.320507,-0.482453 0.147233,0.62367 0.412929,0.805069 1.179175,0.805069 1.178666,0 1.514316,-0.907881 0.677511,-1.832538 -0.515732,-0.569885 -0.46768,-0.637564 0.818077,-1.152018 1.775319,-0.710343 1.957408,-0.692299 2.085659,0.206668 0.05913,0.414279 0.353932,0.800172 0.655173,0.857541 0.731943,0.139396 1.659447,-0.827862 1.412055,-1.47257 -0.163786,-0.426828 0.08239,-0.497083 1.438724,-0.410639 1.491861,0.09508 1.636749,0.178511 1.641144,0.945029 0.0032,0.613999 0.208896,0.869726 0.7615,0.948208 0.575568,0.08174 0.75667,-0.05912 0.75667,-0.58852 0,-0.906594 0.153104,-0.883653 1.996275,0.299105 2.071666,1.329385 3.162244,2.524208 4.201108,4.602654 2.039211,4.079864 0.683425,5.364063 -6.582985,6.2354 l -3.244121,0.389012 -0.429365,1.300993 c -0.787575,2.386377 -3.460565,4.258571 -8.038505,5.630274 -2.900307,0.869024 -4.525165,2.283066 -4.956079,4.313027 -0.322942,1.521346 -0.341978,11.785195 -0.02336,12.584204 0.213493,0.535363 0.297684,0.535947 1.33795,0.0096 0.832802,-0.421603 2.034273,-0.564325 4.809397,-0.571311 3.251786,-0.0085 3.847781,-0.101602 4.92701,-0.772775 1.66517,-1.035488 1.840591,-1.632725 0.555078,-1.889821 -0.564389,-0.112878 -1.475777,-0.205233 -2.025324,-0.205233 -1.518796,0 -4.621416,-0.996503 -5.340046,-1.715122 -1.207341,-1.207353 -0.463699,-3.991225 1.735146,-6.495574 1.05532,-1.201943 1.131899,-1.233413 1.378601,-0.566534 0.16697,0.451369 0.555428,0.706101 1.076798,0.706101 1.029733,0 1.321833,-0.719356 0.669994,-1.64999 -0.476631,-0.680488 -0.440449,-0.744502 0.687161,-1.215648 1.559671,-0.65167 1.771295,-0.630191 1.988887,0.201864 0.259049,0.990613 1.70528,0.759679 1.854977,-0.296205 0.09905,-0.698983 0.261693,-0.764208 1.676657,-0.672595 1.415378,0.09164 1.567389,0.182183 1.571742,0.936183 0.0064,1.082092 1.148716,1.382493 1.413074,0.371559 0.236096,-0.902817 0.350779,-0.889074 2.161091,0.258994 2.523527,1.600374 4.669946,4.86903 4.669946,7.111584 0,1.514411 -2.831839,2.729015 -7.422403,3.18353 -2.136927,0.211572 -2.223454,0.256577 -2.6241,1.364545 -0.913533,2.526319 -4.028766,4.212383 -8.701174,4.709334 -2.68538,0.285613 -4.175745,1.240477 -4.601351,2.948029 -0.277809,1.114594 -0.201645,1.413297 0.683074,2.679074 0.567723,0.812238 2.219982,2.261197 3.843789,3.370843 1.566423,1.070427 3.214076,2.264456 3.661446,2.653402 0.776173,0.674814 0.785229,0.727781 0.197855,1.157284 -0.735659,0.537921 -1.561189,0.374263 -4.661665,-0.924129 -1.267868,-0.530956 -2.675283,-0.965374 -3.127591,-0.965374 -0.771034,0 -0.81607,0.09969 -0.721453,1.597413 0.08833,1.39837 0.01412,1.609814 -0.595358,1.696968 -0.421296,0.0602 -1.473803,-0.504213 -2.665081,-1.429265 -1.082849,-0.84085 -2.179225,-1.528819 -2.436385,-1.528819 -0.25716,0 -1.252208,0.767595 -2.211223,1.705758 -1.911607,1.870053 -2.86318,2.464084 -4.518104,2.820479 -0.929819,0.200233 -1.092967,0.140736 -1.092967,-0.398607 z M 69.601382,67.363645 c 0.654462,-0.251151 0.694254,-1.260299 0.07007,-1.778282 -0.253996,-0.210807 -0.708002,-0.288808 -1.008893,-0.173351 -0.642486,0.246544 -0.73688,1.686818 -0.126701,1.933032 0.231213,0.09332 0.445832,0.181568 0.476949,0.196177 0.03111,0.01465 0.295944,-0.06529 0.588521,-0.177576 z m 10.781312,-1.074123 c 0.250504,-0.652795 -0.673816,-1.452122 -1.370182,-1.184908 -0.584837,0.224428 -0.624628,1.68118 -0.05138,1.881147 0.612536,0.213663 1.178836,-0.0637 1.421567,-0.696239 z m -18.15235,-0.403236 c 0,-0.616348 -0.202367,-0.869484 -0.758178,-0.948409 -0.826315,-0.117337 -1.295631,0.603862 -0.960788,1.476435 0.121531,0.316731 0.506029,0.484954 0.960788,0.420372 0.555811,-0.07888 0.758178,-0.332061 0.758178,-0.948398 z m 13.229088,0.377183 c 0.247382,-0.1568 0.398724,-0.646319 0.336298,-1.087808 -0.08494,-0.600422 -0.324216,-0.802714 -0.949641,-0.802714 -0.950882,0 -1.310144,0.91882 -0.663783,1.697636 0.465058,0.560365 0.652678,0.588701 1.277126,0.192886 z m -9.193517,-1.722373 c 0,-0.616348 -0.202367,-0.869481 -0.758178,-0.948406 -0.826315,-0.117338 -1.295641,0.603859 -0.960798,1.476432 0.121541,0.316731 0.506028,0.484954 0.960798,0.420372 0.555811,-0.07888 0.758178,-0.332062 0.758178,-0.948398 z M 33.603336,62.781844 c 0.282046,-0.447882 0.238188,-0.710663 -0.190104,-1.138953 -1.007438,-1.007448 -2.51049,0.309214 -1.602255,1.403571 0.522898,0.630063 1.301311,0.515141 1.792359,-0.264618 z m 38.486039,-0.510756 c -0.135109,-1.174246 -1.44519,-1.500151 -1.780723,-0.442986 -0.296336,0.93368 0.03493,1.367803 1.043896,1.367803 0.721496,0 0.827876,-0.133523 0.736827,-0.924817 z M 23.051718,61.711913 c 0,-0.766131 -0.992829,-1.381223 -1.605577,-0.99471 -0.781619,0.493027 -0.853506,0.980469 -0.235715,1.598258 0.411667,0.411668 0.699668,0.458866 1.192054,0.195351 0.357085,-0.191104 0.649238,-0.550609 0.649238,-0.798899 z m 18.970619,0.600624 c 0.262639,-0.684432 -0.360408,-1.470713 -1.165384,-1.470713 -0.640851,0 -1.181225,1.100609 -0.824086,1.678477 0.334461,0.541163 1.759171,0.392377 1.98947,-0.207764 z m 36.062151,-0.297955 c 0.230968,-0.601893 -0.435586,-1.509054 -1.108797,-1.509054 -0.572585,0 -0.933811,0.819078 -0.667404,1.513337 0.251661,0.655801 1.524084,0.652733 1.776201,-0.0042 z M 27.73502,61.560875 c 0.236202,-0.441346 0.207314,-0.800888 -0.09789,-1.218253 -0.612472,-0.8376 -1.895055,-0.38956 -1.895055,0.661989 0,1.212554 1.42832,1.611228 1.992921,0.556264 z m 9.903887,-0.796814 c 0.282046,-0.447882 0.238188,-0.710663 -0.190104,-1.138953 -1.007449,-1.007448 -2.5105,0.309215 -1.602266,1.403571 0.522909,0.630063 1.301322,0.51514 1.79237,-0.264618 z M 31.627296,57.81515 c 0,-0.978999 -1.155744,-1.340525 -1.800789,-0.563299 -0.628079,0.756785 -0.09884,1.624334 0.918937,1.506308 0.689178,-0.07992 0.881852,-0.285962 0.881852,-0.943009 z m -5.885197,-0.998061 c 0,-0.664301 -1.088774,-1.217893 -1.678473,-0.853433 -0.482353,0.298107 -0.4212,1.76608 0.08111,1.946175 0.668582,0.239729 1.597413,-0.395655 1.597413,-1.092742 z M 68.724477,45.478983 c 0.146311,-1.02773 -1.037345,-1.648157 -1.761952,-0.923551 -0.405041,0.405044 -0.444122,0.682231 -0.168743,1.196782 0.480813,0.898409 1.790278,0.713095 1.930695,-0.273231 z m 10.825171,-0.430937 c 0,-0.548229 -1.020837,-1.331683 -1.497064,-1.148937 -0.728981,0.279734 -0.880642,1.065081 -0.314926,1.630795 0.385783,0.385782 0.675005,0.427084 1.162751,0.166048 0.357086,-0.191104 0.649239,-0.482662 0.649239,-0.647906 z M 60.212558,44.69956 c 0,-1.103273 -1.346443,-1.391903 -1.674311,-0.358912 -0.294403,0.9276 0.07039,1.428222 0.949375,1.30296 0.521518,-0.07432 0.724936,-0.339218 0.724936,-0.944048 z m 14.267772,0.04646 c 0.441085,-0.824177 -0.31483,-1.927647 -1.111175,-1.622063 -0.775281,0.297505 -1.039193,1.148828 -0.541892,1.748038 0.564952,0.680732 1.249236,0.628585 1.653067,-0.125975 z M 34.419534,43.81755 c 0.129451,-0.907309 -0.879835,-1.342657 -1.552738,-0.669757 -0.685208,0.685202 -0.248677,1.624961 0.692703,1.491284 0.471864,-0.067 0.796642,-0.377239 0.860035,-0.821527 z m -7.719524,0.248047 c 0.680706,-0.431386 0.319427,-1.536677 -0.542476,-1.659626 -0.903744,-0.128916 -1.347388,0.735125 -0.748176,1.457133 0.475611,0.573074 0.660184,0.602034 1.290652,0.202493 z M 44.238444,43.85882 c 0.334005,-0.402452 0.334005,-0.60644 0,-1.008892 -0.840393,-1.012613 -2.038286,-0.23784 -1.559872,1.008892 0.106465,0.277445 0.406793,0.504446 0.667393,0.504446 0.26061,0 0.662222,-0.227001 0.892479,-0.504446 z m 20.345983,-0.504445 c 0,-0.616342 -0.202367,-0.86948 -0.758177,-0.948405 -0.454771,-0.06458 -0.839258,0.103652 -0.960799,0.420372 -0.334833,0.872581 0.134483,1.593774 0.960799,1.476436 0.55581,-0.07893 0.758177,-0.332062 0.758177,-0.948403 z M 40.004552,43.143597 c 0.235533,-0.613801 -0.334705,-1.470712 -0.978709,-1.470712 -0.644004,0 -1.214254,0.856911 -0.97872,1.470712 0.115457,0.30089 0.555885,0.547071 0.97872,0.547071 0.422824,0 0.863251,-0.246181 0.978709,-0.547071 z M 30.783006,42.51791 c 0.599212,-0.722007 0.155557,-1.586048 -0.748176,-1.457131 -0.861903,0.122948 -1.223193,1.228239 -0.542476,1.659624 0.630457,0.399541 0.815041,0.370583 1.290652,-0.202493 z m 40.160891,-1.055798 c 0.266938,-0.695633 -0.36474,-1.470713 -1.198594,-1.470713 -0.717897,0 -1.129913,0.746238 -0.835552,1.513338 0.259538,0.676328 1.770404,0.644668 2.034146,-0.04263 z m 5.747221,-1.139021 c 0,-0.611562 -0.20363,-0.865053 -0.758166,-0.943799 -0.914913,-0.129919 -1.350127,0.735962 -0.739641,1.471557 0.630086,0.759208 1.497807,0.453463 1.497807,-0.527758 z M 36.443116,39.737672 c 0.133687,-0.941387 -0.80608,-1.377911 -1.491277,-0.692709 -0.672903,0.6729 -0.237551,1.682193 0.66976,1.552737 0.444281,-0.06339 0.754515,-0.388164 0.821517,-0.860028 z m 5.665939,-0.276795 c 0.111965,-0.291788 -0.04417,-0.778218 -0.34685,-1.080956 -0.509713,-0.509712 -0.591154,-0.509712 -1.100866,0 -0.687555,0.687554 -0.37197,1.611478 0.550427,1.611478 0.381536,0 0.785314,-0.238735 0.897289,-0.530522 z m 7.51014,-12.248771 c 1.287785,-1.287784 0.465217,-3.362972 -1.333034,-3.362972 -1.89978,0 -2.807441,1.702471 -1.675118,3.141982 0.843494,1.072328 2.066941,1.162207 3.008152,0.22099 z m 19.057337,-0.204762 c 0.994061,-0.266642 1.664766,-1.929829 1.194474,-2.962006 -0.475441,-1.043479 -1.927627,-1.389994 -2.968116,-0.708241 -1.012162,0.663194 -1.078114,2.256835 -0.132529,3.202415 0.733334,0.733334 0.828906,0.75679 1.906171,0.467832 z m -34.00727,-0.956991 c 0.453996,-0.454002 0.825456,-1.066215 0.825456,-1.360476 0,-0.756296 -1.521047,-2.185931 -2.325694,-2.185931 -0.889645,0 -2.046174,1.271369 -2.046174,2.249344 0,0.96208 1.111535,2.122519 2.033073,2.122519 0.37833,0 1.059333,-0.371456 1.513339,-0.825456 z M 60.438303,25.31035 c 1.276043,-1.154802 0.377926,-3.478999 -1.344352,-3.478999 -1.798856,0 -2.726191,2.087346 -1.519645,3.420567 0.693001,0.765753 2.05178,0.793475 2.863997,0.05843 z M 42.698192,23.542578 c 0.843695,-0.932276 0.570217,-2.415468 -0.561607,-3.045808 -0.830457,-0.4625 -1.019181,-0.462512 -1.849637,-1.16e-4 -1.115921,0.621347 -1.426823,2.297979 -0.58266,3.14215 0.739693,0.739692 2.282281,0.690112 2.993904,-0.09623 z M 53.712362,19.257 c 0.765747,-0.692996 0.793478,-2.051784 0.05839,-2.863998 -0.76218,-0.84219 -2.672747,-0.820536 -3.130872,0.03548 -1.19388,2.230774 1.24845,4.479199 3.072437,2.828513 z m 11.244534,-1.298665 c 0.958473,-0.958476 0.866734,-1.953402 -0.270803,-2.937001 -0.862317,-0.745624 -1.351836,-0.741285 -2.292378,0.02032 -0.993998,0.804891 -0.993998,2.349289 0,3.15418 1.010485,0.818244 1.558184,0.767495 2.563181,-0.2375 z"
       id="path58" /><path
       style="fill:#552f14;fill-opacity:1;stroke-width:1.06168"
       d="m 44.238444,91.073048 c 0,-0.204511 0.385549,-0.830021 0.856765,-1.390035 1.933902,-2.298324 0.280952,-2.79674 -4.26431,-1.285853 -6.185206,2.056027 -8.20693,0.643845 -2.909723,-2.032458 4.14451,-2.093929 7.439803,-8.838046 5.803267,-11.876912 -0.843664,-1.566593 -1.908029,-2.090798 -5.560705,-2.738645 -4.489036,-0.796185 -6.303924,-1.960837 -7.581262,-4.86504 -0.366524,-0.833333 -0.348316,-0.84895 0.839534,-0.720073 0.667796,0.07241 1.592519,0.475101 2.054923,0.894783 1.54348,1.400876 2.450419,1.665531 6.389643,1.864564 2.127085,0.107474 4.112076,0.308874 4.411098,0.447562 0.471608,0.218727 0.575589,-0.162692 0.784432,-2.877364 0.132423,-1.721237 0.453029,-4.037525 0.712472,-5.147306 0.259442,-1.109781 0.473944,-2.858266 0.476683,-3.885522 0.0042,-1.672593 -0.110372,-1.979525 -1.098891,-2.937643 -0.812036,-0.787052 -1.784832,-1.244067 -3.679675,-1.728685 -2.900582,-0.741845 -4.077698,-1.28156 -5.613449,-2.573804 -0.86804,-0.730414 -2.046016,-2.408461 -2.046016,-2.914599 0,-0.367493 2.402984,0.247635 2.946893,0.754361 1.116505,1.040184 2.532212,1.606184 4.620142,1.847132 2.735258,0.315649 4.598092,0.810139 5.253594,1.394573 0.484157,0.431665 0.571948,0.399655 0.777499,-0.283508 0.127444,-0.423562 0.319428,-4.666956 0.426647,-9.429765 l 0.194924,-8.659653 h 2.642775 2.642764 v 1.282143 c 0,0.705178 0.307378,4.223686 0.683053,7.818909 0.375675,3.595222 0.776406,7.860938 0.890516,9.479368 0.114109,1.61843 0.268254,2.9426 0.34255,2.9426 0.07432,0 0.543718,-0.208906 1.043185,-0.464237 0.499457,-0.255329 2.043118,-0.647364 3.43034,-0.871187 3.185452,-0.51396 5.760195,-1.658265 6.753173,-3.001347 0.598532,-0.809557 1.027047,-1.043984 1.908315,-1.043984 1.020572,0 1.11367,0.07715 0.912949,0.756668 -0.455609,1.542431 -1.870456,3.268686 -3.429479,4.184324 -1.723722,1.012365 -4.595225,2.121249 -5.493066,2.121249 -0.837357,0 -3.254068,1.880619 -3.817926,2.971006 -0.986035,1.90679 -1.34897,6.256201 -0.881577,10.564953 0.235746,2.173321 0.491101,3.951496 0.567436,3.951496 0.07634,0 0.682097,-0.226997 1.346114,-0.504446 0.797566,-0.33324 2.338392,-0.504446 4.540017,-0.504446 3.711664,0 5.154465,-0.421678 6.262486,-1.830304 0.574454,-0.730308 0.939215,-0.882754 1.90803,-0.797427 l 1.197786,0.105531 -0.731072,1.472539 c -1.248004,2.513738 -3.088373,3.357847 -9.304824,4.267781 -0.921495,0.134886 -1.878801,0.584009 -2.606296,1.222768 -2.217593,1.947067 -1.224169,4.567547 2.792143,7.365231 1.166711,0.812705 2.724397,1.894769 3.461521,2.404577 2.896367,2.003198 0.874664,2.607824 -3.085294,0.922705 -2.340844,-0.99611 -4.109687,-1.282063 -4.456771,-0.720466 -0.0981,0.158626 -0.05457,0.726125 0.09651,1.261105 0.642401,2.27398 -0.445067,2.383333 -2.984657,0.300105 -1.014679,-0.832335 -2.154296,-1.513339 -2.532488,-1.513339 -0.379667,0 -1.425697,0.749355 -2.335641,1.673186 -0.90642,0.920253 -2.134273,1.90392 -2.72857,2.185934 -1.260786,0.598288 -2.828515,0.676396 -2.828515,0.140927 z m 6.549458,-11.452962 c 0.197664,-1.917595 -0.554908,-8.860246 -1.009731,-9.315069 -0.08621,-0.08621 -0.119396,3.060015 -0.07379,6.991584 0.07039,6.066362 0.142042,6.944487 0.473382,5.801674 0.214725,-0.740649 0.489285,-2.30584 0.610126,-3.478189 z m -5.3143,2.324388 c 2.235642,-3.410475 2.496221,-4.579225 2.408813,-10.803958 -0.05829,-4.153226 0.06381,-6.078359 0.521911,-8.224996 0.328929,-1.541438 0.529619,-2.871046 0.44598,-2.954686 -0.275453,-0.275457 -1.551008,3.362971 -1.914888,5.462114 -0.196304,1.132387 -0.323143,4.234731 -0.281886,6.894089 0.0843,5.434737 -0.311465,7.383429 -2.057854,10.131883 -0.558263,0.878572 -0.899115,1.597414 -0.757455,1.597414 0.141671,0 0.877584,-0.94584 1.635379,-2.10186 z m 8.973825,-7.902983 c -0.249569,-1.267029 -0.433463,-4.247885 -0.416221,-6.746484 0.01699,-2.462056 -0.04374,-4.551062 -0.134876,-4.642235 -0.382162,-0.382161 -1.031262,3.610336 -1.008043,6.200303 0.0241,2.687938 1.152909,7.458425 1.764829,7.458425 0.132785,0 0.04024,-1.021505 -0.205689,-2.270009 z m -1.64003,-15.740189 c 0.475325,-2.018421 0.561576,-3.376461 0.411528,-6.48024 -0.284201,-5.878993 -0.828959,-6.999418 -0.84636,-1.740747 -0.01232,3.708388 -0.428653,8.603402 -0.944003,11.097807 -0.158519,0.767272 -0.132136,0.789883 0.301889,0.258742 0.261576,-0.320101 0.746201,-1.731104 1.076946,-3.135562 z M 50.198331,47.053641 c -0.103833,-2.951443 -0.313355,-4.554352 -0.703342,-5.380756 -0.389349,-0.825043 -0.500613,-0.925614 -0.372055,-0.336297 0.10086,0.462408 0.281303,3.489083 0.400986,6.725943 0.170983,4.624909 0.282332,5.597135 0.519936,4.540012 0.166291,-0.739853 0.23581,-3.23686 0.154475,-5.548902 z"
       id="path54" /></g></svg>
