<?xml version="1.0" encoding="UTF-8" standalone="no"?>
<!-- Created with Inkscape (http://www.inkscape.org/) -->

<svg
   width="100mm"
   height="100mm"
   viewBox="0 0 100 100"
   version="1.1"
   id="svg1"
   inkscape:version="1.4 (86a8ad7, 2024-10-11)"
   sodipodi:docname="tree3.svg"
   xml:space="preserve"
   xmlns:inkscape="http://www.inkscape.org/namespaces/inkscape"
   xmlns:sodipodi="http://sodipodi.sourceforge.net/DTD/sodipodi-0.dtd"
   xmlns="http://www.w3.org/2000/svg"
   xmlns:svg="http://www.w3.org/2000/svg"><sodipodi:namedview
     id="namedview1"
     pagecolor="#ffffff"
     bordercolor="#000000"
     borderopacity="0.25"
     inkscape:showpageshadow="2"
     inkscape:pageopacity="0.0"
     inkscape:pagecheckerboard="true"
     inkscape:deskcolor="#d1d1d1"
     inkscape:document-units="mm"
     inkscape:zoom="0.87925266"
     inkscape:cx="445.83317"
     inkscape:cy="230.30923"
     inkscape:window-width="1920"
     inkscape:window-height="1009"
     inkscape:window-x="1912"
     inkscape:window-y="-8"
     inkscape:window-maximized="1"
     inkscape:current-layer="layer1" /><defs
     id="defs1" /><g
     inkscape:label="Warstwa 1"
     inkscape:groupmode="layer"
     id="layer1"><path
       style="fill:#ac7e47;fill-opacity:1;stroke-width:1.03704"
       d="m 37.909109,92.113223 c -0.747498,-0.747498 0.314918,-2.26169 2.563655,-3.653823 0.504334,-0.312221 1.01857,-0.887799 1.142756,-1.279064 0.749002,-2.359908 -3.832163,-2.234965 -6.97571,0.190266 -1.952632,1.506435 -3.077892,1.721911 -5.240722,1.003533 -1.161038,-0.385634 -2.262758,-0.513106 -3.256979,-0.376829 -1.791434,0.24554 -1.90919,-0.112768 -0.500133,-1.521825 0.906062,-0.906051 1.220451,-1.002319 3.273499,-1.002319 2.20791,0 2.287451,-0.0307 2.855302,-1.103079 0.911164,-1.720667 2.218228,-2.802558 3.942825,-3.263595 1.806918,-0.483032 2.246457,-1.087803 2.52989,-3.48099 0.174015,-1.469257 0.10444,-1.720615 -0.617391,-2.230693 -0.447431,-0.316173 -1.615044,-0.809534 -2.594715,-1.096348 -1.677246,-0.491059 -3.876631,-2.328693 -3.876631,-3.239017 0,-0.182032 -0.983694,-0.330972 -2.185986,-0.330972 -3.019342,0 -4.291997,-0.310386 -4.866268,-1.186829 -0.427374,-0.652257 -0.422666,-0.978032 0.0365,-2.524279 1.474567,-4.96543 7.920329,-7.077591 12.406687,-4.065466 1.591545,1.068566 3.164724,3.257975 3.175893,4.419946 0.0093,1.004653 -1.340519,1.905157 -3.877834,2.586326 l -2.440362,0.655139 0.889697,0.582951 c 0.489338,0.320622 1.719319,0.676731 2.733295,0.791345 1.013976,0.114624 2.229355,0.401583 2.700845,0.637706 0.77694,0.389098 0.981486,0.321721 2.183425,-0.719218 0.735292,-0.636784 2.33951,-1.483672 3.600447,-1.900707 1.521855,-0.503317 2.642968,-1.140163 3.388693,-1.924901 0.968564,-1.019244 1.114423,-1.409742 1.114423,-2.983564 0,-2.952296 -1.335821,-4.335313 -6.096134,-6.311508 -0.604034,-0.250758 -1.36183,-0.902149 -1.683997,-1.447538 -0.903127,-1.528872 -2.13682,-1.79404 -4.662603,-1.002174 -4.56396,1.430858 -7.595093,0.509495 -9.514902,-2.892211 l -1.02512,-1.816436 -2.996132,-0.203311 c -5.463146,-0.370715 -7.605131,-1.654635 -7.120585,-4.268111 0.668901,-3.607803 3.886919,-6.654873 8.219795,-7.783147 4.849498,-1.2628 10.293822,1.198183 12.553459,5.674501 1.156123,2.290255 1.280941,3.727799 0.393432,4.530982 -0.917282,0.830132 -3.391182,1.615167 -5.812265,1.844388 -1.17872,0.111598 -2.143126,0.321179 -2.143126,0.465738 0,0.144559 0.474757,0.662312 1.055012,1.150564 1.445457,1.21627 3.198676,1.173681 5.802984,-0.140968 2.276935,-1.149395 3.554889,-1.271849 5.367832,-0.51435 0.677062,0.282892 1.280785,0.51435 1.341618,0.51435 0.06087,0 -0.294198,-0.884199 -0.788949,-1.964886 -1.417643,-3.096535 -1.475697,-6.377235 -0.177914,-10.054589 0.562252,-1.593165 1.131223,-3.151942 1.26439,-3.463948 0.211037,-0.49445 -0.146192,-0.596385 -2.782357,-0.793933 -9.667813,-0.724484 -15.661208,-2.739586 -17.878513,-6.011127 -1.019182,-1.503759 -0.888266,-3.624892 0.422904,-6.851688 3.20716,-7.89287 10.52306,-13.734686 19.156499,-15.2966416 2.859876,-0.517404 8.072504,-0.6658397 9.772669,-0.2782865 5.929274,1.3515794 10.490631,3.7050701 14.104279,7.2772891 4.837656,4.782188 7.688167,11.943876 6.030117,15.150189 -1.626131,3.144593 -8.673904,5.430736 -18.603187,6.034471 l -3.858938,0.234637 -0.650629,2.106466 c -1.369649,4.434407 -1.275299,7.106709 0.32169,9.11145 0.638879,0.802 0.706577,0.817211 1.050459,0.236029 0.20216,-0.341671 1.36492,-1.09763 2.583909,-1.67991 3.108174,-1.484686 4.12131,-3.054222 2.271252,-3.518558 -1.821405,-0.457144 -2.33251,-1.680128 -1.282248,-3.06819 2.157478,-2.851392 6.2612,-2.450995 7.594916,0.741028 0.840956,2.012686 0.126363,2.815845 -2.515444,2.827223 -0.923411,0.0039 -1.120635,0.156993 -1.309262,1.015799 -0.217343,0.989539 -0.499356,1.316604 -3.561921,4.130943 -1.459882,1.341559 -1.496168,1.42584 -1.335136,3.101721 0.199256,2.073675 1.158373,3.244286 3.146098,3.839821 0.75903,0.227414 2.054801,1.059987 2.879476,1.850165 1.476526,1.414766 1.509411,1.42668 2.155186,0.780904 0.360682,-0.36068 0.655782,-1.12571 0.655782,-1.700068 0,-0.651548 0.316536,-1.36082 0.841662,-1.885948 0.707282,-0.707277 1.171388,-0.841663 2.90675,-0.841663 1.842539,0 2.127673,-0.09553 2.645944,-0.886514 0.494492,-0.754688 0.508409,-0.93237 0.09365,-1.194897 -0.267981,-0.169612 -0.960714,-0.310748 -1.539423,-0.313637 -1.437037,-0.0072 -4.643895,-0.982154 -5.377176,-1.63483 -1.552013,-1.381396 0.247531,-5.446854 3.311496,-7.481212 3.695886,-2.45393 8.484354,-2.289586 12.023366,0.41265 1.479161,1.129427 3.61034,4.658955 3.61034,5.979231 0,1.605935 -3.722672,3.06181 -7.829048,3.06181 -1.209946,0 -1.429238,0.107322 -1.429238,0.699461 0,1.098482 -1.228332,3.226491 -2.112046,3.658985 -0.441436,0.216038 -1.389353,0.489567 -2.106497,0.607842 -1.465773,0.241744 -1.473208,0.254566 -1.792679,3.091421 -0.202005,1.79387 -0.396087,2.210521 -1.517334,3.257548 -0.979505,0.914659 -1.341079,1.568077 -1.518216,2.743634 -0.398762,2.646432 -1.786415,5.018722 -3.810167,6.51376 -2.622549,1.937388 -3.380511,3.151004 -3.540879,5.669486 -0.127721,2.005842 -0.08618,2.136727 0.957561,3.014955 0.94407,0.794382 1.399403,0.918257 3.37935,0.919367 2.819555,0.0021 3.894997,0.592274 5.545808,3.046076 0.8643,1.284705 1.656111,1.995057 2.829501,2.538372 1.793187,0.830296 1.911804,1.272676 0.446332,1.664604 -1.539465,0.411716 -2.812556,-0.02655 -5.259866,-1.810744 -2.500147,-1.822701 -2.925759,-1.913566 -5.419538,-1.157056 -2.103449,0.638101 -4.012888,0.65711 -5.215024,0.05185 -0.50927,-0.256387 -1.673129,-0.563994 -2.586346,-0.683575 -1.825304,-0.238996 -1.585105,-0.407194 -4.954914,3.469686 -1.032466,1.187836 -1.690219,1.581786 -3.500227,2.096397 -1.225864,0.348538 -2.468362,0.736682 -2.761108,0.862537 -0.292746,0.125865 -0.639926,0.121178 -0.771526,-0.01037 z"
       id="path60" /><path
       style="fill:#611415;fill-opacity:1;stroke-width:1.03704"
       d="m 37.805571,91.930455 c -0.402735,-0.651644 0.359085,-1.747287 2.118828,-3.047279 2.59486,-1.916936 2.438713,-3.425207 -0.351453,-3.394967 -1.881947,0.02043 -3.57787,0.673848 -5.262531,2.027672 -1.348909,1.084018 -1.490247,1.120552 -3.395994,0.877823 -1.093683,-0.139306 -2.875773,-0.274764 -3.960195,-0.301032 -2.271211,-0.05496 -2.467865,-0.426534 -0.916661,-1.731784 0.868158,-0.730511 1.405314,-0.887726 3.032958,-0.887726 1.480716,0 2.120601,-0.157641 2.545435,-0.627078 0.312118,-0.344888 0.567489,-0.7708 0.567489,-0.946475 0,-0.743972 1.756921,-2.121099 3.233521,-2.534514 2.085497,-0.583906 2.93868,-1.678947 2.93868,-3.771724 0,-1.933499 -0.577248,-2.578154 -2.947246,-3.291419 -2.119844,-0.637977 -3.09098,-1.291073 -3.715434,-2.498633 -0.480357,-0.928898 -0.643856,-0.984773 -3.381392,-1.155563 -1.58215,-0.09873 -3.209877,-0.35781 -3.617174,-0.575786 -0.894914,-0.478946 -0.97798,-1.883347 -0.218857,-3.700188 0.792817,-1.897493 1.130042,-2.20342 1.899297,-1.723011 0.84611,0.528403 1.744881,-0.178588 1.076592,-0.846878 -0.596692,-0.596681 -0.517586,-0.801694 0.48575,-1.258841 0.759393,-0.345998 0.964395,-0.31694 1.334494,0.189197 0.370036,0.506055 0.522045,0.527625 0.988724,0.140322 0.303292,-0.25171 0.551456,-0.670228 0.551456,-0.930028 0,-0.291999 0.377513,-0.472361 0.988703,-0.472361 0.716812,0 1.040618,0.198521 1.177497,0.721925 0.194859,0.745144 1.167893,0.726498 0.996999,-0.01908 -0.126871,-0.553551 1.159203,-0.142841 2.494641,0.796644 1.492725,1.050148 2.494765,2.279527 2.951425,3.621042 0.37097,1.089763 0.333149,1.235291 -0.50929,1.959933 -0.828159,0.712342 -1.624564,1.007473 -4.413807,1.63565 -0.518634,0.116801 -0.94298,0.346153 -0.94298,0.509663 0,0.517328 2.279952,1.403519 3.652277,1.419604 0.725876,0.0083 1.779872,0.211649 2.342206,0.451434 0.946455,0.403574 1.129824,0.353993 2.467657,-0.667201 0.79487,-0.60674 2.449488,-1.437357 3.676928,-1.845827 6.199932,-2.063211 6.120267,-8.221474 -0.137573,-10.634779 -1.215007,-0.468562 -2.391176,-1.270008 -3.306093,-2.252794 -1.632042,-1.7531 -2.178365,-1.843141 -5.094946,-0.83969 -2.322606,0.799092 -4.205579,0.872345 -5.754585,0.22387 -1.334245,-0.558568 -3.575101,-2.963356 -3.875086,-4.158572 -0.193895,-0.772537 -0.391378,-0.865894 -1.831671,-0.865894 -2.017768,0 -5.248219,-0.585729 -6.920249,-1.254745 -2.367945,-0.947461 -2.448357,-2.95118 -0.255568,-6.368338 1.410747,-2.198468 5.644203,-5.059148 5.349787,-3.615024 -0.04719,0.231266 0.261469,0.473455 0.685805,0.538198 0.630468,0.0962 0.771526,-0.04337 0.771526,-0.763383 0,-0.817355 0.11309,-0.881098 1.563286,-0.881098 0.859799,0 1.476527,0.14038 1.370479,0.311955 -0.374962,0.606707 0.236922,1.402543 1.078366,1.402543 0.564284,0 0.913321,-0.231944 1.03201,-0.685799 0.21812,-0.834091 0.426638,-0.845665 1.970645,-0.109383 1.129917,0.53882 1.172695,0.616266 0.655845,1.187377 -0.624298,0.689839 -0.424907,1.572349 0.429313,1.900145 0.651946,0.250171 1.603243,-0.800641 1.267315,-1.399882 -0.116574,-0.20796 0.353755,0.156055 1.045191,0.808921 1.361228,1.285301 2.967281,4.176276 2.949735,5.309667 -0.02645,1.710681 -1.852599,2.736635 -5.916913,3.324274 -2.729064,0.394581 -2.916478,0.472512 -2.592423,1.078003 0.192111,0.358972 1.036614,0.956709 1.876668,1.328307 1.309501,0.579252 1.708865,0.618114 2.799603,0.27243 0.699722,-0.221761 1.580832,-0.594066 1.958014,-0.827344 2.018992,-1.24867 3.839235,-1.336052 6.506906,-0.312368 0.322291,0.123673 0.210705,-0.447524 -0.366677,-1.876976 -1.602029,-3.966215 -1.386429,-7.723247 0.705529,-12.294947 l 0.815985,-1.783225 -1.430576,-0.1726 C 42.25695,36.547888 40.455913,36.38246 39.041442,36.275201 33.190993,35.831558 28.155844,34.472956 25.405925,32.596018 23.195693,31.08744 22.824495,30.32377 22.982301,27.609895 23.213644,23.631607 26.757955,17.47281 30.647508,14.290407 l 1.378703,-1.128045 -0.124736,1.308003 c -0.09738,1.020935 0.04698,1.467973 0.657629,2.036887 0.880498,0.820308 1.601594,0.906939 2.842588,0.341504 1.948515,-0.887807 1.85682,-3.699661 -0.148141,-4.542686 -1.250006,-0.525586 -1.010481,-0.821767 1.570503,-1.942022 1.371278,-0.5951893 4.487935,-1.6799402 4.874865,-1.6966935 0.04719,-0.00207 0.08576,0.4592032 0.08576,1.0249872 0,2.0412313 2.443774,3.3566713 4.032404,2.1705803 1.40296,-1.047455 1.666513,-1.662974 1.219352,-2.8476563 L 46.644852,7.977841 h 1.913805 c 2.826016,0 6.503162,0.6917929 5.792146,1.0896947 -0.89902,0.5031198 -0.741296,2.5506353 0.246339,3.1977573 1.41503,0.927165 2.960935,-0.07276 2.960935,-1.915198 0,-0.3617655 0.09219,-0.6577553 0.204815,-0.6577553 0.654134,0 5.766252,2.9797503 7.198923,4.1961093 5.102588,4.332174 8.961485,11.572531 8.234157,15.449528 -0.410087,2.185958 -2.976812,4.109896 -7.171928,5.375861 -3.275417,0.988424 -5.488159,1.347135 -10.687887,1.732626 -2.636518,0.195464 -4.901859,0.466519 -5.034091,0.602346 -0.455499,0.467882 -1.659389,5.693988 -1.659389,7.203437 0,1.569755 0.729869,3.512883 1.586547,4.223863 0.39618,0.328796 0.634751,0.260194 1.198133,-0.344529 0.386899,-0.415289 1.534871,-1.12276 2.551035,-1.572158 1.220897,-0.539939 2.079939,-1.19918 2.532638,-1.94358 l 0.685058,-1.126492 -1.444752,-0.533687 c -0.83237,-0.307478 -1.494405,-0.791518 -1.561896,-1.141978 -0.271321,-1.408869 2.282493,-3.656883 4.157181,-3.659386 2.19224,-0.0029 4.179561,2.036592 3.946901,4.050558 -0.09458,0.81854 -0.304496,0.955418 -1.900241,1.238917 -1.61242,0.286462 -1.831464,0.432421 -2.16483,1.442508 -0.203986,0.61809 -0.913,1.554804 -1.575585,2.081588 -2.777327,2.208095 -3.209669,2.815692 -3.208311,4.508775 0.0021,2.36509 0.85758,3.492637 3.375772,4.448352 1.417695,0.53805 2.436338,1.201878 3.12347,2.035493 1.000194,1.213397 1.033027,1.224979 1.717276,0.605735 0.383684,-0.347223 0.697596,-1.000823 0.697596,-1.452447 0,-1.072628 0.854987,-2.704438 1.558411,-2.974371 0.305294,-0.117151 1.352559,-0.215365 2.327252,-0.218253 1.979419,-0.0059 2.346365,-0.166568 2.935787,-1.28571 0.479818,-0.911028 0.592482,-0.857983 -3.007467,-1.415886 -2.86475,-0.443965 -4.439961,-1.221648 -4.71795,-2.329259 -0.28642,-1.141192 0.502643,-3.12684 1.823562,-4.588944 l 1.179726,-1.305817 0.687785,0.687782 c 0.546105,0.546106 0.789001,0.603772 1.179187,0.27995 0.622016,-0.516228 0.619019,-0.833053 -0.0139,-1.465922 -0.445067,-0.445068 -0.34213,-0.570519 0.864186,-1.053192 1.708025,-0.683416 1.698463,-0.683985 1.698463,0.101173 0,0.891493 1.07288,1.252016 1.59617,0.536369 0.227765,-0.311488 0.321669,-0.807268 0.208673,-1.101735 -0.170157,-0.443421 -0.01151,-0.4966 0.923661,-0.30957 0.62101,0.124203 1.344221,0.225823 1.607131,0.225823 0.338666,0 0.415304,0.249913 0.262869,0.857249 -0.179294,0.714351 -0.09282,0.857249 0.518582,0.857249 0.403554,0 0.821087,-0.22764 0.92785,-0.505866 0.169888,-0.442716 0.313466,-0.444151 1.150129,-0.0115 1.38478,0.716101 3.718959,3.49921 4.154796,4.953888 0.878331,2.931608 -0.296583,3.909025 -5.463623,4.545215 L 71.673837,51.972428 71.44688,53.1822 c -0.32983,1.758139 -2.174226,3.487402 -3.719581,3.487402 -1.541943,0 -2.282587,0.977798 -2.282587,3.013487 0,1.727835 -0.413488,2.650883 -1.722212,3.844505 -0.675921,0.616479 -1.097271,1.52896 -1.500202,3.248859 -0.687194,2.933236 -1.741252,4.587055 -3.72233,5.84038 -2.682313,1.69696 -4.095156,4.649267 -3.375087,7.052658 0.553178,1.846346 1.161298,2.179941 4.364931,2.394442 3.173653,0.212489 3.74278,0.546623 5.66762,3.327466 0.636711,0.919875 1.659242,1.789526 2.759863,2.347257 1.951636,0.988973 1.778108,1.491916 -0.517939,1.501167 -1.522105,0.0062 -2.96835,-0.672614 -4.845288,-2.27399 -1.538832,-1.312913 -2.944509,-1.480208 -5.33895,-0.635405 -1.868103,0.659112 -3.198252,0.651282 -4.508977,-0.02655 -1.498097,-0.7747 -4.268839,-0.965982 -5.141238,-0.354927 -0.387915,0.271705 -1.193166,1.240207 -1.789454,2.152221 -0.619849,0.948061 -1.596429,1.90612 -2.280305,2.237071 -1.860076,0.900129 -5.48957,1.915827 -5.689584,1.592198 z M 25.668359,68.328178 c 0,-0.709916 -0.827247,-0.946268 -1.200156,-0.342908 -0.287011,0.464418 0.100282,1.028702 0.706037,1.028702 0.271767,0 0.494119,-0.308613 0.494119,-0.685794 z m 5.71414,0.1484 c 0.285788,-0.744771 -0.439746,-1.445156 -0.959075,-0.925827 -0.438927,0.438916 -0.167015,1.463221 0.388434,1.463221 0.200428,0 0.45722,-0.241827 0.570641,-0.537394 z m -2.713673,-1.434101 c 0.187486,-0.563082 -0.886898,-0.965038 -1.347727,-0.504209 -0.197203,0.197203 -0.249595,0.534843 -0.116428,0.750319 0.302971,0.490209 1.273298,0.327113 1.464155,-0.24611 z m 6.77217,-0.08587 c 0,-0.27773 -0.270035,-0.556963 -0.600073,-0.620523 -0.421028,-0.0811 -0.600073,0.104056 -0.600073,0.620523 0,0.516456 0.179045,0.701599 0.600073,0.620512 0.330038,-0.06357 0.600073,-0.342793 0.600073,-0.620512 z m 3.429003,0 c 0,-0.27773 -0.270035,-0.556963 -0.600073,-0.620523 -0.421038,-0.0811 -0.600083,0.104056 -0.600083,0.620523 0,0.516456 0.179045,0.701599 0.600083,0.620512 0.330038,-0.06357 0.600073,-0.342793 0.600073,-0.620512 z m -6.252976,-1.576581 c 0.327237,-0.327227 -0.119913,-1.166618 -0.621467,-1.166618 -0.574417,0 -0.949172,0.575941 -0.669358,1.028692 0.234205,0.378955 0.971074,0.457687 1.290825,0.137926 z m 4.301744,-1.423793 c -0.06357,-0.330048 -0.342793,-0.600073 -0.620523,-0.600073 -0.277719,0 -0.556953,0.270025 -0.620513,0.600073 -0.0811,0.421028 0.104057,0.600073 0.620513,0.600073 0.516466,0 0.701609,-0.179045 0.620523,-0.600073 z M 70.588222,48.587621 c 0,-0.717598 -0.143163,-0.860765 -0.771527,-0.771524 -0.495819,0.07042 -0.810674,0.38528 -0.8811,0.881098 -0.08929,0.628357 0.05393,0.771524 0.771527,0.771524 0.7176,0 0.8811,-0.163499 0.8811,-0.881098 z m 9.258297,-0.155712 c 0,-0.341296 -0.19289,-0.687819 -0.42863,-0.770051 -0.694319,-0.242195 -1.285877,0.11952 -1.285877,0.786274 0,0.341296 0.192889,0.687819 0.428629,0.770051 0.694319,0.242194 1.285878,-0.11952 1.285878,-0.786274 z m -50.099431,0.222992 c 0.56557,-0.681474 0.0925,-1.586511 -0.8293,-1.586511 -0.913186,0 -1.235115,0.593309 -0.790733,1.457324 0.369985,0.719376 1.083022,0.776236 1.620033,0.129187 z M 63.558773,47.92564 c 0,-0.450134 -0.26512,-0.723454 -0.771517,-0.795374 -0.632884,-0.08988 -0.771526,0.05305 -0.771526,0.795374 0,0.74233 0.138642,0.885257 0.771526,0.795373 0.506397,-0.07192 0.771517,-0.34524 0.771517,-0.795373 z m 11.778064,0.553735 c 0.622535,-0.394519 0.362383,-1.546282 -0.38162,-1.689565 -0.666464,-0.12835 -1.116778,0.689694 -0.813993,1.47873 0.223243,0.581778 0.526028,0.63517 1.195613,0.210835 z m -55.84068,-0.859948 c 0,-1.006619 -0.828916,-1.387627 -1.518547,-0.697993 -0.689642,0.689633 -0.308634,1.518555 0.69799,1.518555 0.636887,0 0.820557,-0.183678 0.820557,-0.820562 z m 18.34514,6.84e-4 c 0,-0.356635 -0.279068,-0.81955 -0.62016,-1.028699 -0.493662,-0.302704 -0.71617,-0.251071 -1.090873,0.253133 -0.670166,0.901799 -0.270678,1.653808 0.811868,1.528268 0.61653,-0.07149 0.899165,-0.308093 0.899165,-0.752702 z m -14.08693,0.268842 c 0.634388,-0.243441 0.713867,-1.197726 0.146959,-1.764633 -0.272057,-0.272062 -0.593,-0.289695 -1.028702,-0.05652 -0.728292,0.389772 -0.815279,1.024308 -0.221781,1.617804 0.480854,0.480862 0.412938,0.468346 1.103524,0.203344 z m 43.540735,-0.680056 c 0.278694,-0.726282 -0.03256,-1.169205 -0.821677,-1.169205 -0.770811,0 -1.161972,0.529692 -0.898398,1.216568 0.256377,0.668115 1.458223,0.635021 1.720075,-0.04736 z M 33.679055,46.55404 c 0.29287,-0.763206 -0.113722,-1.543048 -0.804504,-1.543048 -0.808995,0 -1.440677,0.806405 -1.174676,1.499587 0.268894,0.700731 1.714776,0.732482 1.97918,0.04346 z m 38.795117,-1.719194 c 0,-0.445263 -0.267152,-0.719045 -0.771526,-0.790677 -0.568184,-0.08069 -0.771527,0.06239 -0.771527,0.542924 0,0.358874 0.108205,0.760703 0.240459,0.892953 0.454866,0.45487 1.302594,0.03498 1.302594,-0.6452 z m 5.399192,0.09042 c 0.25534,-0.694324 -0.0952,-1.285874 -0.761934,-1.285874 -0.760264,0 -1.122824,0.805532 -0.598538,1.329815 0.509695,0.509696 1.164658,0.488542 1.360472,-0.04394 z M 28.06866,43.867358 c 0,-0.558126 -0.69854,-1.256665 -1.256675,-1.256665 -0.238529,0 -0.593124,0.297893 -0.787984,0.661987 -0.503732,0.941238 0.441426,1.886403 1.382664,1.382667 0.364095,-0.194856 0.661995,-0.549451 0.661995,-0.787989 z m -6.001723,-0.567797 c 0.279783,-0.881524 -0.03847,-1.374668 -0.887281,-1.374668 -0.75092,0 -1.177029,0.752562 -0.873695,1.543049 0.286835,0.747465 1.507337,0.630762 1.760976,-0.168381 z m 24.38488,-13.15044 c 1.81231,-1.558878 0.874878,-4.340515 -1.462776,-4.340515 -2.40615,0 -3.485272,2.961737 -1.615106,4.432809 1.169532,0.91995 1.927504,0.897223 3.077882,-0.0923 z m 24.323445,-1.06738 c 1.072683,-1.072684 1.072683,-2.387486 0,-3.46017 -1.64041,-1.640405 -3.95894,-0.730787 -3.95894,1.553191 0,1.025451 0.205458,1.488876 0.9035,2.037955 1.186487,0.933292 2.027205,0.897254 3.05544,-0.130976 z M 28.550126,28.539324 c 1.422984,-1.365645 0.306673,-4.102316 -1.673367,-4.102316 -1.139894,0 -2.58,1.270575 -2.58,2.276278 0,2.512474 2.444552,3.56196 4.253367,1.826038 z m 31.190515,-0.698206 c 2.369429,-1.863795 -0.230036,-5.501925 -2.907361,-4.069061 -1.572329,0.841484 -1.576622,3.408744 -0.0073,4.261486 1.24451,0.676168 1.862088,0.635393 2.914497,-0.192425 z m -21.54086,-2.188375 c 2.360987,-2.360988 -1.074021,-5.843055 -3.508202,-3.556261 -1.121932,1.053996 -1.071148,2.758251 0.109864,3.687237 1.198517,0.942758 2.36975,0.897618 3.398338,-0.130976 z m 12.981404,-5.034896 c 1.675431,-0.763379 1.759659,-3.076932 0.152974,-4.202293 -1.061483,-0.743497 -2.06653,-0.69337 -2.969761,0.148118 -1.08801,1.013637 -1.014152,2.81554 0.153036,3.733652 1.03451,0.813748 1.467017,0.865791 2.663751,0.320523 z m 14.322265,-1.89183 c 0.8923,-0.807523 0.792537,-2.384315 -0.214584,-3.391439 -0.462914,-0.462914 -1.090281,-0.841662 -1.394144,-0.841662 -0.673278,0 -1.958481,0.650734 -2.302363,1.165757 -0.425664,0.637482 -0.290257,2.07092 0.271362,2.872742 0.654403,0.934291 2.701447,1.043738 3.639729,0.194602 z"
       id="path57" /><path
       style="fill:#552f14;fill-opacity:1;stroke-width:1.03704"
       d="m 38.012751,91.403805 c 0,-0.664379 1.161422,-2.158743 1.677785,-2.158743 0.668787,0 2.094104,-1.745058 2.094104,-2.563863 0,-1.212103 -1.195395,-1.631627 -3.437537,-1.20642 -2.019687,0.383031 -2.920771,0.805231 -4.138453,1.939099 -1.222981,1.138804 -3.036877,1.376006 -4.946233,0.646812 -1.080222,-0.412535 -1.962899,-0.518396 -2.942486,-0.352894 -1.339265,0.226261 -1.382976,0.205779 -1.017616,-0.476904 0.572788,-1.070246 1.478632,-1.414833 3.719353,-1.414833 2.145086,0 2.840618,-0.412058 3.312948,-1.962722 0.323484,-1.062043 1.75577,-2.10431 3.492781,-2.541691 1.709,-0.430341 2.375827,-1.274429 2.696593,-3.4135 0.293493,-1.957122 -0.469965,-2.901865 -2.979062,-3.686427 -1.000132,-0.31273 -2.141124,-0.800055 -2.535531,-1.08295 -0.651074,-0.466979 -1.511745,-1.723083 -1.511745,-2.206302 0,-0.474518 1.860076,-0.129256 2.649626,0.491806 0.588178,0.462655 1.391075,0.685795 2.467605,0.685795 0.877668,0 2.147015,0.281048 2.820769,0.624546 l 1.225014,0.624547 1.186103,-1.086973 c 0.65235,-0.597833 1.946804,-1.351522 2.876562,-1.674861 4.115388,-1.431187 5.633801,-2.933547 5.633801,-5.574223 0,-2.056554 -1.185782,-3.831976 -3.34381,-5.006519 -0.946579,-0.515187 -1.947654,-0.936704 -2.224637,-0.936704 -0.491474,0 -1.318554,-0.70823 -2.954308,-2.529765 -0.99505,-1.108075 -2.264625,-1.162033 -5.021782,-0.213433 -2.512073,0.864281 -3.702388,0.863624 -5.49266,-0.003 -1.727874,-0.836451 -2.70991,-1.838498 -3.384836,-3.453821 l -0.509176,-1.218646 1.092884,0.148752 c 0.6011,0.08181 1.478664,0.497727 1.950143,0.924253 2.054563,1.858634 3.242886,1.95619 6.290217,0.516397 2.419393,-1.143108 4.088311,-1.286203 5.946385,-0.509848 0.682984,0.285368 1.288346,0.472298 1.345238,0.4154 0.05693,-0.0569 -0.284574,-0.914224 -0.758823,-1.90517 -1.766607,-3.691346 -1.727148,-7.097823 0.136361,-11.77026 l 1.004186,-2.517858 2.906293,-0.09826 2.906304,-0.09826 -0.801237,2.457716 c -1.145608,3.514037 -1.107497,6.720453 0.101526,8.547493 1.035888,1.56533 1.174126,1.617877 1.765415,0.671076 0.238083,-0.381245 1.426489,-1.148249 2.640884,-1.704454 1.652844,-0.757019 2.362221,-1.304438 2.821411,-2.177258 0.446301,-0.848328 0.772502,-1.107961 1.197367,-0.95302 0.54597,0.199109 0.543025,0.304281 -0.04522,1.617291 -0.374838,0.836631 -1.124857,1.710677 -1.855337,2.162142 -1.912353,1.181896 -2.969812,2.638719 -2.96834,4.089353 0.0021,2.071152 1.038616,3.321749 3.86456,4.662775 1.582595,0.751004 2.689729,1.518108 2.983636,2.067268 0.773787,1.445838 2.408815,0.933036 2.408815,-0.755491 0,-1.081286 0.882272,-2.726544 1.695508,-3.161773 0.36284,-0.194186 1.525703,-0.353065 2.584148,-0.353065 1.778678,0 1.968674,-0.07775 2.508568,-1.026532 0.427343,-0.751007 0.838975,-1.027113 1.533626,-1.028699 0.86235,-0.002 0.928752,0.08439 0.723408,0.940807 -0.296583,1.236903 -1.00064,2.617403 -1.564582,3.067817 -0.248174,0.198217 -1.183781,0.466407 -2.079109,0.595977 -1.907977,0.276115 -2.14772,0.618151 -2.419238,3.451375 -0.179542,1.873577 -0.321586,2.165462 -1.58974,3.266902 -1.182785,1.027271 -1.394798,1.41473 -1.407222,2.571745 -0.02333,2.176643 -1.592053,4.857815 -3.895899,6.658863 -3.572114,2.79253 -4.669831,6.391172 -2.641889,8.660848 0.946247,1.059025 1.106977,1.110037 3.531089,1.120677 3.049436,0.01338 3.800833,0.421173 5.648963,3.065821 0.937515,1.341598 1.778388,2.095453 2.948718,2.643601 1.781334,0.83433 1.643034,1.314966 -0.381029,1.324217 -1.428211,0.0062 -3.013046,-0.729381 -4.730622,-2.196647 -1.883783,-1.609268 -2.493811,-1.709986 -5.406649,-0.892643 -2.604442,0.730813 -3.587701,0.691301 -5.322181,-0.213848 -0.484059,-0.252602 -1.661337,-0.460228 -2.616181,-0.461389 -1.460183,-0.0021 -1.871463,0.147737 -2.588109,0.940854 -0.468628,0.518645 -1.066461,1.372595 -1.328521,1.897669 -0.609167,1.220575 -2.282514,2.250926 -4.556244,2.805472 -0.985904,0.240459 -2.062579,0.550855 -2.392617,0.689777 -0.450749,0.189726 -0.600073,0.08887 -0.600073,-0.405244 z M 47.410799,79.33342 c 0.729402,-0.74698 1.298301,-1.725189 1.418971,-2.439896 0.17472,-1.03483 0.147021,-1.102082 -0.20886,-0.507205 -0.225649,0.377192 -0.921109,1.225864 -1.545459,1.88595 -1.262502,1.334753 -1.869409,2.666167 -1.84676,4.051393 0.01327,0.812645 0.07073,0.764391 0.489804,-0.411353 0.261106,-0.732596 1.022646,-1.893095 1.692304,-2.578889 z M 41.88121,77.965212 c 0.704658,-1.997743 1.80532,-2.932261 4.875476,-4.139552 3.902982,-1.534788 5.753019,-3.657556 6.167337,-7.07651 0.111876,-0.923194 0.05631,-2.141435 -0.123563,-2.707223 -0.303158,-0.953755 -0.329125,-0.902463 -0.356451,0.704201 -0.0365,2.144298 -1.380093,4.988939 -2.893849,6.126686 -0.593436,0.44602 -2.279424,1.306691 -3.746638,1.912602 -3.059983,1.263654 -4.08996,2.347588 -4.724971,4.972502 -0.228128,0.94297 -0.715132,2.254566 -1.082234,2.914641 l -0.667459,1.200156 0.970721,-1.087761 c 0.533889,-0.598268 1.24563,-1.867149 1.581631,-2.819742 z m 11.328103,0.735676 c -0.18311,-2.878221 -0.233718,-2.753776 2.809527,-6.908697 0.469365,-0.640828 0.847355,-1.4895 0.839971,-1.88595 -0.01089,-0.586446 -0.098,-0.529056 -0.467227,0.307876 -0.249595,0.565789 -1.069396,1.519108 -1.821768,2.118496 -2.412165,1.921656 -3.027845,4.263001 -1.951595,7.421617 0.300617,0.882272 0.594639,1.604134 0.653377,1.604134 0.0587,0 0.0307,-1.195862 -0.06233,-2.657476 z m 7.311991,-12.986756 c 0.341622,-2.884505 -1.386719,-6.066128 -3.789986,-6.976806 -0.971302,-0.368057 -0.960143,-0.336993 0.414349,1.154163 1.803692,1.956777 2.501433,3.645181 2.538144,6.141865 0.03453,2.351073 0.544239,2.156804 0.837493,-0.319222 z m -5.114856,-2.657144 c -0.2293,-2.221702 -1.074923,-3.962651 -2.967417,-6.109273 -0.779615,-0.884298 -1.633255,-2.19589 -1.896974,-2.914648 -0.448426,-1.22216 -0.481062,-1.24485 -0.503659,-0.350197 -0.03039,1.204289 1.046881,3.349421 2.78161,5.538783 0.803188,1.013697 1.56537,2.495116 1.896518,3.686177 0.304506,1.095239 0.627087,1.991345 0.716854,1.991345 0.0897,0 0.07767,-0.828989 -0.02696,-1.842187 z M 46.267877,51.097462 c -1.77453,-2.638968 -2.11499,-5.054817 -1.206471,-8.56093 0.698114,-2.694082 0.415853,-2.899009 -0.525945,-0.381849 -1.508592,4.032093 -1.200094,6.483108 1.168775,9.285679 1.351014,1.598366 1.718634,1.374722 0.563641,-0.3429 z"
       id="path53" /></g></svg>
