<?xml version="1.0" encoding="UTF-8" standalone="no"?>
<!-- Created with Inkscape (http://www.inkscape.org/) -->

<svg
   width="100mm"
   height="100mm"
   viewBox="0 0 100 100"
   version="1.1"
   id="svg1"
   inkscape:version="1.4 (86a8ad7, 2024-10-11)"
   sodipodi:docname="tree1.svg"
   xml:space="preserve"
   xmlns:inkscape="http://www.inkscape.org/namespaces/inkscape"
   xmlns:sodipodi="http://sodipodi.sourceforge.net/DTD/sodipodi-0.dtd"
   xmlns="http://www.w3.org/2000/svg"
   xmlns:svg="http://www.w3.org/2000/svg"><sodipodi:namedview
     id="namedview1"
     pagecolor="#ffffff"
     bordercolor="#000000"
     borderopacity="0.25"
     inkscape:showpageshadow="2"
     inkscape:pageopacity="0.0"
     inkscape:pagecheckerboard="true"
     inkscape:deskcolor="#d1d1d1"
     inkscape:document-units="mm"
     inkscape:zoom="0.87925266"
     inkscape:cx="445.83317"
     inkscape:cy="233.72122"
     inkscape:window-width="1920"
     inkscape:window-height="1009"
     inkscape:window-x="1912"
     inkscape:window-y="-8"
     inkscape:window-maximized="1"
     inkscape:current-layer="layer1" /><defs
     id="defs1" /><g
     inkscape:label="Warstwa 1"
     inkscape:groupmode="layer"
     id="layer1"><path
       style="fill:#ac7e47;fill-opacity:1"
       d="m 43.013003,88.640602 c 0,-0.286094 0.36446,-0.953307 0.80991,-1.482695 1.8273,-2.171627 0.42914,-2.565923 -3.65183,-1.02985 -1.16785,0.439574 -3.02427,0.883356 -4.1254,0.98618 -1.72258,0.160857 -2.03284,0.106704 -2.22265,-0.387944 -0.29115,-0.758713 0.50709,-1.617401 2.61139,-2.809154 0.92538,-0.524079 2.12887,-1.409427 2.67443,-1.967439 1.14038,-1.166411 2.28433,-3.361639 2.28433,-4.383619 0,-1.070869 -1.67492,-1.7415 -5.00695,-2.004764 -3.24231,-0.256175 -4.80786,-0.796323 -5.97402,-2.061157 -0.71316,-0.773512 -0.92595,-0.826102 -2.62431,-0.648588 -2.14968,0.224686 -4.18744,-0.31497 -4.26314,-1.128998 -0.25649,-2.75823 1.70167,-5.636733 4.45198,-6.544417 1.70298,-0.562033 4.40717,-0.253938 5.73062,0.652902 1.07085,0.733759 2.25425,2.195426 2.67166,3.299877 0.29163,0.771659 -0.80129,1.740487 -2.74032,2.429169 -0.90227,0.320456 -1.64048,0.682907 -1.64048,0.805447 0,0.122539 0.47707,0.380247 1.06016,0.572684 1.12355,0.370807 8.36483,0.340605 8.13553,-0.03393 -0.0742,-0.121132 -0.27613,-1.334697 -0.44883,-2.696809 -0.47972,-3.78365 -1.2392,-4.530863 -6.5694,-6.463287 -2.44889,-0.887824 -4.60561,-2.795132 -5.63272,-4.981318 l -0.8904,-1.895189 -3.25357,-0.381086 c -2.06549,-0.241928 -3.78592,-0.645272 -4.71141,-1.104558 -1.34937,-0.669639 -1.46526,-0.826122 -1.55759,-2.103004 -0.19716,-2.72663 2.69331,-6.426474 6.31649,-8.085223 2.6158,-1.197553 6.34985,-1.212838 8.8881,-0.03638 1.00227,0.464543 2.41838,1.383131 3.1469,2.041307 1.46432,1.322924 3.29188,4.652439 3.29188,5.997263 0,1.716956 -2.56485,2.994789 -6.87363,3.424512 l -2.17615,0.217031 0.48437,0.93667 c 0.6403,1.238206 2.51359,2.435282 4.51586,2.885733 0.8909,0.200427 2.63835,0.634874 3.88323,0.965439 1.24487,0.330564 2.3071,0.557334 2.3605,0.503934 0.0534,-0.0534 0.98484,-2.683862 2.06987,-5.845471 2.14994,-6.264578 2.36738,-7.912312 1.78,-13.488316 l -0.25998,-2.468072 -3.13501,-0.227089 c -9.50264,-0.688339 -16.39867,-2.875814 -18.2326,-5.783524 -1.41947,-2.250597 -0.0881,-7.162403 3.25053,-11.991864 2.73731,-3.959653 6.37048,-6.933748 11.19119,-9.161056 3.96349,-1.831242 10.201,-2.759033 14.26307,-2.121543 10.44423,1.639089 18.63424,8.303211 21.9117,17.829301 1.56542,4.549968 0.0461,7.047297 -5.4375,8.937848 -3.19306,1.100849 -6.70137,1.754248 -11.65352,2.170394 -3.91634,0.329103 -4.33543,0.423851 -4.33543,0.98014 0,0.820629 0.68357,5.241293 0.8353,5.401854 0.0657,0.06953 0.73618,-0.430747 1.48995,-1.111732 l 1.37049,-1.238155 0.40527,0.949749 c 0.64612,1.514215 0.50935,2.50647 -0.69561,5.046669 -0.62155,1.310301 -1.41147,3.69442 -1.75539,5.298043 -0.34392,1.603622 -0.78297,3.326074 -0.97568,3.827669 -0.37524,0.976726 -0.48352,4.516246 -0.1484,4.85136 0.11108,0.111081 0.66561,-0.151679 1.2323,-0.583911 1.50595,-1.148642 2.94341,-1.665342 5.85259,-2.103733 3.46905,-0.522759 4.81927,-1.114117 6.18512,-2.708889 l 1.14654,-1.338711 -2.66588,-0.381602 c -3.32423,-0.475841 -5.34839,-1.232273 -6.01341,-2.247224 -0.44164,-0.674024 -0.45586,-0.987746 -0.10208,-2.251324 0.75696,-2.703608 2.96448,-5.156505 5.97408,-6.638126 5.20892,-2.56434 11.6899,-0.397376 14.55488,4.866527 1.26087,2.316638 1.11025,4.104428 -0.42088,4.995659 -1.27039,0.739461 -4.6587,1.464803 -6.92385,1.4822 -1.51211,0.01161 -1.56492,0.04592 -2.14157,1.391189 -1.31998,3.079384 -3.3162,4.606173 -7.98991,6.110993 -1.69295,0.545089 -3.4884,1.336324 -3.98989,1.758301 -0.50149,0.421976 -1.31729,1.670787 -1.8129,2.775135 -0.78299,1.744733 -0.8744,2.26322 -0.69749,3.955862 0.11198,1.071377 0.25249,1.996844 0.31224,2.056595 0.0598,0.05975 0.6061,-0.143105 1.21411,-0.450791 0.8525,-0.431409 1.95804,-0.561468 4.83106,-0.568342 3.42827,-0.0082 3.81449,-0.07232 4.83956,-0.803389 l 1.11397,-0.794475 -1.11397,-0.267763 c -4.08915,-0.982903 -4.79694,-1.831963 -3.49444,-4.191948 2.21512,-4.013552 7.89349,-4.710456 11.00953,-1.351194 1.10826,1.194768 1.89978,2.783276 1.89978,3.812693 0,1.193672 -1.19306,1.808571 -3.93634,2.028774 -2.206,0.177076 -2.44873,0.271806 -3.3032,1.289112 -1.393,1.658472 -3.14015,2.396318 -6.39783,2.701903 -2.82766,0.265248 -4.62272,0.937126 -4.97812,1.863277 -0.35941,0.936609 0.88959,2.390598 3.6452,4.243469 3.21896,2.164424 3.7889,2.73194 3.49991,3.485042 -0.28736,0.748845 -2.07952,0.456888 -4.96239,-0.808411 -1.26708,-0.556122 -2.61237,-1.011131 -2.98955,-1.011131 -0.63529,0 -0.67001,0.118838 -0.47164,1.614256 0.17809,1.342502 0.12195,1.649631 -0.33347,1.824391 -0.7326,0.281127 -1.82411,-0.251823 -3.36284,-1.641974 -0.69934,-0.63181 -1.60423,-1.148745 -2.01087,-1.148745 -0.44378,0 -1.4304,0.653576 -2.46803,1.634919 -1.81052,1.712318 -3.42157,2.576616 -4.80279,2.576616 -0.53719,0 -0.82032,-0.179539 -0.82032,-0.520172 z"
       id="path62" /><path
       style="fill:#611415;fill-opacity:1"
       d="m 43.179123,88.843505 c -0.23291,-0.376859 0.24502,-1.350665 0.95007,-1.935802 0.64487,-0.535193 0.65002,-1.598658 0.009,-1.844664 -0.27208,-0.104405 -1.89161,0.273382 -3.59896,0.839529 -3.82504,1.268359 -5.97866,1.573737 -6.51774,0.924196 -0.58773,-0.708173 0.26213,-1.676241 2.53511,-2.887727 2.60849,-1.390312 4.83663,-4.272064 4.83663,-6.255436 0,-1.322619 -1.25292,-1.880312 -4.85035,-2.158971 -3.36794,-0.260882 -5.47895,-1.020078 -6.24437,-2.24571 -0.3477,-0.556767 -0.76172,-0.640321 -3.17284,-0.640321 -1.72479,0 -2.91991,-0.146948 -3.16172,-0.388757 -0.52816,-0.528163 -0.48902,-1.983799 0.0907,-3.371144 0.38726,-0.926838 0.60551,-1.107353 1.13547,-0.939149 0.73417,0.233014 1.33929,-0.708082 0.70668,-1.099051 -0.22764,-0.140693 -0.002,-0.439476 0.60073,-0.79553 0.53414,-0.315524 0.96529,-0.417332 0.96529,-0.227933 0,0.618695 1.02867,0.357119 1.20199,-0.305648 0.17906,-0.684729 1.71369,-0.951791 1.71369,-0.298224 0,0.218084 0.3569,0.271317 0.94824,0.141435 1.22532,-0.269125 2.58681,0.434279 3.88206,2.005647 1.71874,2.085124 1.21771,3.183871 -1.94153,4.257728 l -1.75461,0.59641 1.03665,0.536072 c 0.79777,0.41254 1.9442,0.536073 4.97497,0.536073 3.62116,0 3.92007,-0.04566 3.71164,-0.566938 -0.12468,-0.311815 -0.30587,-1.44164 -0.40265,-2.510722 -0.29419,-3.249889 -1.35533,-4.60503 -4.46056,-5.696431 -4.47632,-1.573298 -7.1037,-3.600317 -7.93617,-6.122732 -0.24212,-0.733627 -0.53132,-1.390172 -0.64267,-1.458987 -0.11134,-0.06882 -1.50699,-0.287233 -3.10143,-0.485371 -3.10477,-0.385822 -5.36909,-1.063495 -6.14455,-1.838953 -0.67348,-0.673486 -0.59712,-2.255069 0.1871,-3.875058 0.83103,-1.716671 3.18823,-4.395383 3.20715,-3.644585 0.0184,0.729027 0.79553,1.306972 1.43006,1.06348 0.61234,-0.234977 0.70062,-1.44954 0.14569,-2.004469 -0.29245,-0.292453 -0.10613,-0.496306 0.7995,-0.874703 1.53838,-0.642774 1.73975,-0.624349 1.94967,0.178391 0.13489,0.515815 0.3881,0.647434 1.09067,0.566937 0.73522,-0.08424 0.93581,-0.286859 1.02093,-1.031243 0.0967,-0.845544 0.19213,-0.90917 1.09338,-0.728919 0.5431,0.108619 1.1879,0.197489 1.4329,0.197489 0.245,0 0.44545,0.296143 0.44545,0.658096 0,0.837314 0.94819,1.225644 1.42369,0.583072 0.66949,-0.904712 3.164,0.614161 4.90594,2.987166 1.55449,2.117638 2.29209,4.310965 1.80745,5.374634 -0.50886,1.116837 -2.68355,1.989367 -5.83784,2.342268 -1.4651,0.163914 -2.74347,0.377684 -2.84083,0.475044 -0.26705,0.267049 1.0927,2.045048 2.12747,2.781873 0.50171,0.357244 1.55284,0.801702 2.33586,0.987685 2.81259,0.668048 5.32428,1.289619 6.03622,1.493791 0.47452,0.136082 0.77255,0.05531 0.86266,-0.233798 0.0757,-0.242941 0.88396,-2.536565 1.79607,-5.096943 2.14942,-6.033581 2.51199,-8.347517 2.01755,-12.87581 -0.2085,-1.909555 -0.42487,-3.517689 -0.48081,-3.573632 -0.0559,-0.05594 -1.84196,-0.253452 -3.96892,-0.438911 -11.73267,-1.02302 -17.9504,-3.751457 -17.95752,-7.880036 -0.005,-2.851074 2.42624,-8.13565 5.26167,-11.437233 1.33554,-1.555114 3.5674,-3.684223 3.86201,-3.684223 0.0722,0 0.15423,0.304857 0.1823,0.67746 0.1009,1.339465 0.99289,2.238218 2.22138,2.238218 1.5869,0 2.28668,-0.453874 2.71888,-1.763452 0.41889,-1.269245 0.0915,-2.224842 -1.08119,-3.155811 -0.67612,-0.536756 -0.65164,-0.56181 1.48603,-1.520917 1.85578,-0.832629 4.22461,-1.652687 4.78464,-1.65638 0.0891,-5.87e-4 0.17888,0.463108 0.19953,1.030435 0.0465,1.278255 1.39072,2.530626 2.71615,2.530626 0.52218,0 1.33749,-0.345595 1.84473,-0.781945 0.77356,-0.665458 0.90055,-1.004109 0.8525,-2.273284 l -0.0565,-1.49134 2.64818,0.219079 c 3.92513,0.324719 4.28675,0.465989 4.17335,1.630339 -0.12349,1.268003 0.83157,2.454178 1.97603,2.454178 1.12441,0 1.84421,-0.611594 1.84421,-1.566985 v -0.75873 l 1.46007,0.625859 c 3.33431,1.429252 7.85768,5.108499 10.25955,8.344974 2.80338,3.777496 4.6987,8.467151 4.38056,10.838994 -0.54695,4.077847 -6.90021,6.514113 -19.68894,7.550063 l -2.45489,0.198858 0.43926,2.967205 c 0.24159,1.631963 0.55205,3.080002 0.68991,3.217864 0.13786,0.137863 0.74548,-0.259868 1.35026,-0.883846 0.60479,-0.623978 1.21118,-1.134505 1.34754,-1.134505 0.13636,0 0.41128,0.606655 0.61093,1.348122 0.33712,1.251968 0.27979,1.525466 -0.80379,3.834552 -0.64175,1.367536 -1.38931,3.553535 -1.66125,4.857777 -0.27195,1.304241 -0.78969,3.447514 -1.15054,4.762828 -0.59272,2.160494 -0.61537,3.783851 -0.0658,4.717254 0.0792,0.134565 0.80555,-0.210461 1.61405,-0.766724 1.11868,-0.769668 2.33333,-1.186544 5.08228,-1.744265 4.60702,-0.934698 4.99519,-1.101216 6.53188,-2.802065 l 1.27471,-1.410893 -2.42112,-0.369883 c -3.43738,-0.525138 -4.93548,-0.978792 -5.75569,-1.742932 -1.31027,-1.220701 -0.74274,-3.727743 1.44949,-6.403064 l 1.17884,-1.438623 0.55463,0.735293 c 0.95554,1.266779 2.49731,-0.0083 1.6502,-1.364742 -0.34042,-0.545094 -0.25297,-0.672571 0.74838,-1.090961 1.48834,-0.621869 1.69386,-0.600479 1.90267,0.198026 0.25458,0.973509 1.96374,0.757296 2.10919,-0.266817 0.0896,-0.630655 0.29701,-0.728919 1.53883,-0.728919 1.22672,0 1.43531,0.09564 1.43531,0.658096 0,0.86949 0.95294,1.221048 1.45366,0.53628 0.35175,-0.481045 0.52352,-0.44482 1.83519,0.387017 3.18994,2.022996 5.45177,6.0888 4.60901,8.285001 -0.11068,0.288433 -0.6454,0.754111 -1.18827,1.03484 -1.12637,0.582468 -5.2543,1.381296 -7.22468,1.398103 -1.25588,0.01071 -1.34736,0.07909 -1.75388,1.310848 -0.94579,2.865781 -3.91577,5.062136 -8.53652,6.312915 -4.07229,1.102315 -6.30104,4.242685 -5.93914,8.368371 0.0911,1.038613 0.22894,1.951676 0.30629,2.029028 0.0774,0.07735 0.66859,-0.07995 1.31386,-0.349558 0.79656,-0.332825 2.27377,-0.490199 4.60132,-0.490199 3.45342,0 4.71649,-0.31653 5.62336,-1.409233 0.32481,-0.391379 0.29053,-0.50862 -0.18558,-0.63465 -0.3212,-0.08502 -1.26917,-0.332863 -2.10661,-0.550754 -2.09703,-0.545623 -2.6967,-1.256747 -2.23421,-2.649468 0.19601,-0.590258 0.81541,-1.562562 1.37644,-2.160675 0.89023,-0.94908 1.0584,-1.018946 1.32141,-0.548973 0.23832,0.425857 0.39838,0.457987 0.76516,0.153594 0.34399,-0.285489 0.37169,-0.495882 0.10724,-0.814527 -0.27741,-0.334259 -0.16272,-0.478264 0.51672,-0.648793 0.55585,-0.139509 0.96306,-0.0739 1.12029,0.18051 0.3058,0.494795 1.49553,0.279719 1.38425,-0.250242 -0.0445,-0.212143 0.17413,-0.375468 0.48595,-0.362945 0.82186,0.03301 1.7398,0.439571 1.80577,0.79979 0.0314,0.171223 0.37086,0.271574 0.75443,0.223002 1.44599,-0.183106 4.06838,4.034532 3.47309,5.585829 -0.28862,0.752119 -1.42214,1.124543 -4.1306,1.357124 -2.1339,0.183242 -2.35643,0.274137 -2.95558,1.20726 -0.93938,1.463017 -3.08916,2.384507 -6.38176,2.735502 -2.95062,0.314538 -4.87039,1.109655 -5.06031,2.095842 -0.18568,0.964142 1.2228,2.46866 4.15991,4.443568 3.20682,2.156261 3.4523,2.417867 2.89687,3.087124 -0.58154,0.700716 -1.27471,0.589852 -4.2355,-0.677419 -2.96588,-1.269449 -4.42817,-1.376956 -4.19844,-0.308665 0.0766,0.356361 0.14953,1.08528 0.16199,1.619821 0.0204,0.877956 -0.0687,0.965277 -0.92275,0.903441 -0.5683,-0.04115 -1.40824,-0.510452 -2.10577,-1.176562 -1.05523,-1.007704 -2.29557,-1.832646 -2.75547,-1.832646 -0.0989,0 -0.97925,0.723937 -1.95629,1.608749 -2.62313,2.375523 -5.25669,3.552386 -5.83944,2.609481 z M 24.871003,70.837677 c 0,-0.256755 -0.21867,-0.466827 -0.48594,-0.466827 -0.48797,0 -0.66597,0.683885 -0.27878,1.071073 0.30234,0.302337 0.76472,-0.06302 0.76472,-0.604246 z m 4.79779,-0.385836 c -0.0601,-0.311816 -0.32386,-0.566937 -0.58625,-0.566937 -0.26239,0 -0.52621,0.255121 -0.58626,0.566937 -0.0766,0.397779 0.0983,0.566937 0.58626,0.566937 0.48794,0 0.66286,-0.169158 0.58625,-0.566937 z m 46.38856,-0.08099 c 0,-0.622549 -0.63355,-0.878284 -1.07707,-0.434763 -0.24525,0.245251 0.36794,1.082691 0.79277,1.082691 0.15637,0 0.2843,-0.291567 0.2843,-0.647928 z m -6.23622,-0.242803 c 0.17713,-0.53199 -0.83792,-0.911745 -1.2733,-0.47637 -0.18631,0.186314 -0.23581,0.505311 -0.11,0.708883 0.28624,0.463145 1.20298,0.309054 1.3833,-0.232513 z m -42.56052,-0.255407 c 0.11079,-0.288705 -0.02,-0.579257 -0.31108,-0.690945 -0.60495,-0.232144 -1.26693,0.343731 -0.9621,0.836963 0.3179,0.514372 1.05208,0.430171 1.27318,-0.146018 z m 46.04304,-0.149718 c 0,-0.262391 -0.25512,-0.526205 -0.56693,-0.586255 -0.39778,-0.07661 -0.56694,0.09832 -0.56694,0.586255 0,0.487938 0.16916,0.66286 0.56694,0.586255 0.31181,-0.06005 0.56693,-0.323865 0.56693,-0.586255 z m -8.58505,-0.323965 c 0,-0.35996 -0.21597,-0.647928 -0.48594,-0.647928 -0.49321,0 -0.66454,0.685315 -0.26997,1.079881 0.41071,0.410718 0.75591,0.213463 0.75591,-0.431953 z m -31.74849,-0.142862 c 0,-0.256755 -0.15849,-0.564777 -0.35219,-0.684494 -0.45745,-0.282716 -1.08185,0.341684 -0.79913,0.799129 0.31755,0.513814 1.15132,0.430797 1.15132,-0.114635 z m 2.7537,-0.203662 c 0,-0.249982 -0.25513,-0.503645 -0.56694,-0.563695 -0.55843,-0.107544 -0.78929,0.579881 -0.34421,1.024957 0.33958,0.339581 0.91115,0.05023 0.91115,-0.461262 z m 31.69151,-0.107749 c 0.20331,-0.529823 -0.0356,-0.841583 -0.64494,-0.841583 -0.23758,0 -0.43196,0.291567 -0.43196,0.647928 0,0.736643 0.81247,0.882746 1.0769,0.193655 z m -36.93175,-1.054749 c 0.29297,-0.292971 -0.43308,-1.118496 -0.78981,-0.898023 -0.44666,0.276053 -0.33791,1.111189 0.1447,1.111189 0.23757,0 0.52787,-0.09593 0.64511,-0.213166 z m 40.8763,-0.434763 c 0,-0.26239 -0.25512,-0.526205 -0.56694,-0.586255 -0.39778,-0.0766 -0.56694,0.09832 -0.56694,0.586255 0,0.487938 0.16916,0.66286 0.56694,0.586255 0.31182,-0.06005 0.56694,-0.323865 0.56694,-0.586255 z m 3.54092,-0.360671 c -0.27605,-0.446663 -1.11119,-0.337914 -1.11119,0.144695 0,0.237574 0.0959,0.527877 0.21317,0.645118 0.29297,0.292971 1.11849,-0.43308 0.89802,-0.789813 z m -41.03963,-0.368248 c -0.2041,-0.613002 -1.21501,-0.700152 -1.21501,-0.104746 0,0.300521 0.27698,0.509701 0.67492,0.509701 0.39588,0 0.61918,-0.16743 0.54009,-0.404955 z m 35.97551,-13.067909 c 0.13899,-0.972764 -0.68358,-1.57161 -1.53375,-1.116609 -0.75785,0.40559 -0.85675,0.989244 -0.26747,1.578525 0.59864,0.598642 1.68967,0.318852 1.80122,-0.461916 z m -41.28029,-0.208546 c 0.27103,-0.430382 0.23098,-0.683068 -0.17213,-1.08618 -0.73321,-0.733209 -1.89342,-0.322671 -1.89342,0.66998 0,1.198859 1.39559,1.480064 2.06555,0.4162 z m 51.52189,-0.01928 c 0.25526,-0.404677 0.21423,-0.66896 -0.16231,-1.045505 -0.66796,-0.667954 -1.59086,-0.284247 -1.59086,0.661417 0,1.165887 1.10703,1.408419 1.75317,0.384088 z m -41.41971,-0.04881 c 0.50351,-0.373895 0.55724,-0.583756 0.26958,-1.052884 -0.44998,-0.733849 -1.40559,-0.75762 -1.85438,-0.04613 -0.24709,0.391712 -0.22368,0.680533 0.0854,1.052884 0.52403,0.631421 0.7038,0.636952 1.49945,0.04613 z m 23.30635,-0.504921 c 0,-0.593738 -0.19494,-0.837592 -0.73037,-0.913623 -0.79602,-0.113035 -1.24812,0.581711 -0.92556,1.422292 0.11708,0.305109 0.48747,0.467164 0.92556,0.404955 0.53543,-0.07603 0.73037,-0.319885 0.73037,-0.913624 z m -41.3708,-0.19033 c 0.13539,-0.947549 -0.74277,-1.644738 -1.39248,-1.105526 -0.5102,0.423427 -0.64672,1.351055 -0.2563,1.741474 0.45722,0.457228 1.55298,0.03459 1.64878,-0.635948 z m 54.98223,0.174784 c 0.22668,-0.71421 -0.31527,-1.604275 -0.97683,-1.604275 -0.66156,0 -1.20351,0.890065 -0.97683,1.604275 0.13404,0.422295 0.48912,0.663475 0.97683,0.663475 0.48771,0 0.8428,-0.24118 0.97683,-0.663475 z m -41.69913,-0.04925 c 0.60155,-0.601546 0.46,-1.488754 -0.27472,-1.721944 -0.70244,-0.222946 -1.60427,0.312049 -1.60427,0.951701 0,0.480542 0.66375,1.159 1.13387,1.159 0.196,0 0.5313,-0.174941 0.74512,-0.388757 z m 32.25902,-0.982012 c 0.53976,-0.857111 -0.444,-1.742013 -1.37983,-1.241172 -0.77237,0.413356 -0.87779,0.994435 -0.28751,1.584711 0.51302,0.513027 1.2196,0.367444 1.66734,-0.343539 z m -41.33058,-0.439383 c 0.0531,-0.371952 -0.12723,-0.862059 -0.40083,-1.089127 -0.98754,-0.819583 -2.28079,0.473662 -1.4612,1.461199 0.57453,0.692271 1.74333,0.458721 1.86203,-0.372072 z m 46.85169,-1.302168 c 0.74529,-0.285997 0.64983,-1.659874 -0.13259,-1.908205 -0.35477,-0.112598 -0.79212,-0.113819 -0.97189,-0.0027 -0.46414,0.286851 -0.40594,1.697696 0.0781,1.893004 0.22272,0.08987 0.42948,0.174912 0.45945,0.188979 0.03,0.01407 0.28509,-0.06291 0.56694,-0.171067 z m -40.93244,-0.640424 c 0.5755,-0.693441 -0.003,-1.592665 -1.0253,-1.592665 -0.88154,0 -1.21415,0.900371 -0.60414,1.635384 0.50806,0.612186 1.09877,0.5967 1.62944,-0.04272 z m 46.92571,-0.409161 c 0.37767,-0.705674 -0.10751,-1.345486 -1.02029,-1.345486 -0.76046,0 -1.08707,0.838381 -0.56955,1.461964 0.54305,0.654325 1.2032,0.605959 1.58984,-0.116478 z m -41.30751,-0.467788 c 0.25726,-0.407851 0.20919,-0.674005 -0.19471,-1.077902 -0.70514,-0.705137 -1.55846,-0.34979 -1.55846,0.648985 0,1.205311 1.09452,1.473088 1.75317,0.428917 z m 11.70607,-15.279379 c 1.66199,-1.661991 0.53127,-4.388243 -1.82004,-4.388243 -1.66115,0 -2.5682,0.879373 -2.5682,2.489843 0,2.46529 2.6674,3.619237 4.38824,1.8984 z m 24.94525,-0.971893 c 1.47252,-1.472526 0.76624,-3.733959 -1.33055,-4.260218 -2.12662,-0.533749 -3.62894,2.602904 -2.05109,4.282442 0.95572,1.017324 2.35126,1.008152 3.38164,-0.02222 z m -43.83616,-0.419681 c 1.57844,-1.78939 0.5897,-4.292525 -1.69554,-4.292525 -2.22394,0 -3.30211,2.249146 -1.92027,4.005863 0.81724,1.038951 2.81266,1.197148 3.61581,0.286662 z m 32.54279,-0.785391 c 1.57818,-1.48262 0.51067,-4.479027 -1.59572,-4.479027 -1.31163,0 -2.03495,0.463443 -2.50881,1.60744 -0.46418,1.120625 -0.0131,2.699811 0.92825,3.249849 0.91382,0.533938 2.39277,0.357811 3.17628,-0.378262 z m -22.5673,-2.382117 c 1.04054,-1.107599 1.05049,-2.924506 0.0206,-3.758471 -1.75799,-1.423534 -4.24043,-0.241869 -4.24043,2.018483 0,2.288767 2.67002,3.389707 4.21985,1.739988 z m 13.50518,-5.028713 c 1.67634,-0.584376 2.18553,-2.535183 1.04138,-3.989738 -0.85665,-1.089055 -2.87334,-1.196396 -3.86406,-0.205671 -1.27144,1.271442 -0.56257,3.627348 1.29586,4.306706 0.26727,0.0977 0.50063,0.189149 0.51859,0.203216 0.018,0.01407 0.47166,-0.127464 1.00823,-0.314513 z m 14.64787,-2.133332 c 0.88469,-1.124699 0.84694,-1.803797 -0.16726,-3.009114 -1.11111,-1.320478 -2.69853,-1.38234 -3.67328,-0.143149 -0.8907,1.132338 -0.84805,2.238886 0.12374,3.210678 1.11478,1.114774 2.81499,1.088053 3.7168,-0.05842 z"
       id="path55" /><path
       style="fill:#552f14;fill-opacity:1"
       d="m 43.336963,88.653212 c 0,-0.279159 0.36721,-0.988996 0.81602,-1.577414 1.56893,-2.056969 0.22145,-2.69646 -3.08834,-1.465675 -2.56701,0.954574 -5.78181,1.664802 -6.50157,1.436358 -0.34159,-0.108416 -0.62007,-0.442417 -0.61885,-0.742225 0.002,-0.52322 0.70865,-1.084287 3.29576,-2.617225 2.36261,-1.399915 4.77316,-5.069959 4.30301,-6.551289 -0.30697,-0.967182 -1.89062,-1.505915 -5.18914,-1.765272 -2.97957,-0.234278 -4.68116,-0.831456 -5.75614,-2.020129 -0.57222,-0.63274 -0.57134,-0.659174 0.0283,-0.849485 0.34038,-0.108032 1.28161,0.09674 2.09161,0.455041 1.23535,0.546453 2.05531,0.638661 5.08684,0.572038 l 3.6141,-0.07943 -0.16599,-1.133875 c -0.0913,-0.623631 -0.26172,-1.862794 -0.37871,-2.753696 -0.41608,-3.168347 -1.20162,-3.945639 -5.758,-5.697548 -3.32998,-1.280364 -5.31317,-2.844431 -6.31848,-4.983135 -0.90867,-1.933107 -0.87543,-2.115902 0.3848,-2.115902 0.89489,0 1.23389,0.230375 2.05664,1.397613 1.11983,1.588717 2.54537,2.3736 5.22112,2.874672 1.02058,0.191119 2.69163,0.609782 3.71344,0.930362 2.02255,0.63455 1.9754,0.653632 2.44852,-0.991113 0.17939,-0.623631 0.79085,-2.373038 1.35881,-3.88757 2.09932,-5.598133 2.33993,-6.877988 2.1621,-11.50073 -0.0891,-2.316344 -0.26223,-4.466656 -0.38471,-4.778472 -0.20425,-0.519991 0.0859,-0.566937 3.50431,-0.566937 h 3.72699 l 0.35722,2.051313 c 0.19647,1.128222 0.35945,2.403831 0.36218,2.834687 0.003,0.430855 0.14255,1.00101 0.31072,1.267009 0.25234,0.399141 0.53343,0.26132 1.60891,-0.78886 0.71674,-0.699873 1.3781,-1.197555 1.46969,-1.105961 0.0916,0.09159 0.25992,0.8478 0.37404,1.680458 0.176,1.284003 0.0565,1.821322 -0.78657,3.538004 -0.54675,1.113243 -1.23108,3.044566 -1.52075,4.291829 -0.28966,1.247262 -0.82765,3.345204 -1.19553,4.662093 -0.47101,1.686029 -0.61219,2.873039 -0.47724,4.012495 0.10541,0.889984 0.25941,1.685908 0.34222,1.768722 0.0828,0.08281 0.71072,-0.299579 1.39535,-0.849761 1.3182,-1.059337 3.41907,-1.80015 6.08736,-2.146532 3.31046,-0.429746 5.62704,-1.664359 6.62628,-3.531441 0.36253,-0.677397 0.6862,-0.837916 1.68955,-0.837916 0.68261,0 1.24111,0.05509 1.24111,0.122418 0,0.55636 -1.16221,2.663509 -1.98752,3.603492 -1.32503,1.509121 -3.10387,2.524905 -6.16541,3.52068 -3.49375,1.136349 -4.36773,1.656791 -5.32271,3.169572 -1.38369,2.191916 -1.84911,4.233305 -1.42782,6.262651 l 0.36022,1.735166 1.41935,-0.627845 c 1.15818,-0.512319 2.0453,-0.61392 4.82121,-0.552167 3.36594,0.07488 3.41717,0.06468 4.85288,-0.966369 1.63888,-1.176957 2.65912,-1.145519 2.1076,0.06495 -0.49212,1.080086 -2.75241,2.406069 -4.4527,2.612149 -4.63479,0.561748 -5.79294,0.865509 -6.62963,1.738818 l -0.84006,0.876835 0.71995,1.185897 c 0.6149,1.012859 3.09658,3.170894 3.64644,3.170894 0.53823,0 3.04351,2.192337 3.05421,2.672704 0.0201,0.901768 -1.73108,0.838162 -3.71295,-0.134861 -3.11975,-1.531681 -5.02145,-1.812865 -5.02145,-0.74247 0,0.236608 0.1512,0.827886 0.33601,1.313951 0.21562,0.567132 0.22412,0.995636 0.0237,1.196038 -0.41124,0.411238 -1.66832,0.079 -2.47194,-0.653319 -1.45411,-1.325098 -2.54633,-2.032222 -3.13895,-2.032222 -0.34556,0 -1.45573,0.778141 -2.46704,1.729202 -1.01131,0.951061 -2.46127,1.971548 -3.22214,2.267749 -1.71504,0.667651 -2.01823,0.672305 -2.01823,0.03099 z m 5.81722,-11.481391 c 0.008,-0.624884 -0.34851,-2.447182 -0.79175,-4.049553 -0.44323,-1.60237 -0.80769,-3.387198 -0.80991,-3.966284 -0.002,-0.579086 -0.1498,-1.052883 -0.32798,-1.052883 -0.54063,0 -0.35036,4.185832 0.32396,7.127212 0.34721,1.514533 0.64997,3.701291 0.67281,4.859463 l 0.0415,2.105767 0.43861,-1.943785 c 0.24124,-1.069082 0.44498,-2.455054 0.45275,-3.079937 z m -4.56833,1.463208 c 0.79237,-1.500726 0.84638,-1.854625 0.71736,-4.700573 -0.0767,-1.692713 -0.14624,-4.608391 -0.15443,-6.479284 -0.0157,-3.575677 0.17395,-4.300503 3.09341,-11.824693 0.62508,-1.610982 0.74712,-2.498458 0.71277,-5.183428 -0.0228,-1.781803 -0.17854,-3.676993 -0.34611,-4.211534 -0.22818,-0.72787 -0.30704,0.0042 -0.31411,2.915678 -0.008,3.23977 -0.13198,4.21147 -0.74489,5.831355 -0.4045,1.069082 -0.84828,2.08957 -0.98618,2.26775 -0.1379,0.17818 -0.79312,1.636019 -1.45605,3.239642 -1.65953,4.014417 -1.88638,6.201587 -1.0713,10.328992 0.78293,3.964544 0.64435,6.007332 -0.57952,8.542886 -1.21178,2.51051 -1.2436,2.636317 -0.4306,1.70294 0.38652,-0.44375 1.08836,-1.53713 1.55965,-2.429731 z m 7.16401,-11.674898 c -0.50819,-2.191924 -0.34714,-4.734362 0.4921,-7.768323 0.85247,-3.081824 1.00684,-4.867293 0.48997,-5.667097 -0.23206,-0.359089 -0.31712,-0.14766 -0.32584,0.809911 -0.006,0.712721 -0.3857,2.316344 -0.8427,3.563606 -1.65938,4.528868 -1.7066,6.052854 -0.29243,9.437445 0.62663,1.499738 0.86952,1.309269 0.4789,-0.375542 z"
       id="path51" /></g></svg>
