<?xml version="1.0" encoding="UTF-8" standalone="no"?>
<!-- Created with Inkscape (http://www.inkscape.org/) -->

<svg
   width="100mm"
   height="100mm"
   viewBox="0 0 100 100"
   version="1.1"
   id="svg1"
   inkscape:version="1.4 (86a8ad7, 2024-10-11)"
   sodipodi:docname="decor3.svg"
   xml:space="preserve"
   xmlns:inkscape="http://www.inkscape.org/namespaces/inkscape"
   xmlns:sodipodi="http://sodipodi.sourceforge.net/DTD/sodipodi-0.dtd"
   xmlns="http://www.w3.org/2000/svg"
   xmlns:svg="http://www.w3.org/2000/svg"><sodipodi:namedview
     id="namedview1"
     pagecolor="#ffffff"
     bordercolor="#000000"
     borderopacity="0.25"
     inkscape:showpageshadow="2"
     inkscape:pageopacity="0.0"
     inkscape:pagecheckerboard="true"
     inkscape:deskcolor="#d1d1d1"
     inkscape:document-units="mm"
     inkscape:zoom="1.0227973"
     inkscape:cx="117.81416"
     inkscape:cy="78.705722"
     inkscape:window-width="1920"
     inkscape:window-height="1009"
     inkscape:window-x="1912"
     inkscape:window-y="-8"
     inkscape:window-maximized="1"
     inkscape:current-layer="layer1" /><defs
     id="defs1" /><g
     inkscape:label="Warstwa 1"
     inkscape:groupmode="layer"
     id="layer1"><path
       style="fill:#a6beb0;fill-opacity:1"
       d="m 51.945094,32.771297 c -0.57108,-0.10278 -2.80345,-0.722889 -4.96084,-1.378019 -2.15739,-0.655129 -5.8434,-1.654167 -8.19115,-2.220084 -8.01025,-1.930847 -7.8025,-1.849129 -7.52383,-2.959444 0.17643,-0.702954 2.17418,-1.718012 4.98573,-2.533256 3.6507,-1.058565 4.50315,-1.420929 4.45874,-1.895327 -0.0354,-0.378238 -0.006,-0.388426 0.23073,-0.07941 0.51612,0.674244 1.0776,0.276268 1.0937,-0.775211 l 0.0148,-0.963712 0.37321,0.749894 c 0.64497,1.295955 1.28828,0.933546 1.75168,-0.98681 l 0.33258,-1.37824 0.0291,1.038315 c 0.0357,1.275861 0.24411,1.634556 0.85646,1.474423 0.33223,-0.08688 0.61536,-0.545064 0.95706,-1.548797 0.46909,-1.377939 0.48069,-1.390831 0.34821,-0.387099 -0.20885,1.582313 -0.20014,1.734714 0.0958,1.677573 0.15082,-0.02912 0.87764,-0.108226 1.61515,-0.175786 2.69083,-0.246492 3.31484,-0.371724 3.15345,-0.63286 -0.10808,-0.174863 -0.0187,-0.194754 0.28395,-0.06322 0.2429,0.105557 0.84468,0.239244 1.33729,0.297081 0.66415,0.07798 0.85077,0.03255 0.72202,-0.175774 -0.17218,-0.278603 -0.55824,-3.003645 -0.42553,-3.003645 0.038,0 0.33221,0.519157 0.65375,1.153683 0.32154,0.634525 0.63721,1.153682 0.7015,1.153682 0.0643,0 0.058,-0.856609 -0.014,-1.903576 l -0.13084,-1.903577 0.73556,1.499788 0.73555,1.499787 0.41892,-2.163491 c 0.23041,-1.189921 0.46228,-2.206848 0.51527,-2.259838 0.053,-0.05299 0.1745,1.128243 0.27002,2.624965 0.19056,2.986111 0.19859,2.98342 1.17385,-0.393633 0.34816,-1.205599 0.7047,-2.27605 0.79232,-2.378782 0.0876,-0.102731 -0.0328,0.935584 -0.26761,2.307366 -0.23479,1.371783 -0.40034,2.576727 -0.36789,2.677654 0.0325,0.100927 0.45412,-0.548019 0.93704,-1.442104 0.48292,-0.894084 0.92174,-1.625607 0.97516,-1.625607 0.1057,0 -0.93814,2.853963 -1.20754,3.301559 -0.091,0.151171 0.43635,-0.272248 1.17188,-0.940933 2.04353,-1.857827 2.28157,-1.839205 1.00439,0.07858 -0.63525,0.953881 -1.09115,1.798183 -1.0131,1.876229 0.078,0.07804 0.9474,-0.348909 1.9319,-0.948788 l 1.78999,-1.090688 -0.86526,0.890696 c -0.47589,0.489883 -0.86526,0.964193 -0.86526,1.054021 0,0.08983 0.88257,0.163324 1.96126,0.163324 1.87545,0 1.96194,-0.02271 1.97688,-0.519158 l 0.0156,-0.519157 0.24226,0.500955 c 0.23945,0.495157 1.25967,0.923918 1.54194,0.648023 0.0802,-0.07839 0.25721,-0.680478 0.39335,-1.337965 l 0.24751,-1.195432 0.18043,1.454986 c 0.16156,1.302912 0.23128,1.447611 0.667,1.38442 0.37781,-0.05479 0.60634,-0.431588 1.02239,-1.685723 0.48078,-1.449251 0.52249,-1.508503 0.40603,-0.576842 -0.0714,0.571073 -0.19047,1.375767 -0.26464,1.788209 -0.11669,0.648847 -0.0702,0.749893 0.34492,0.749893 0.28206,0 0.62856,-0.261494 0.84079,-0.634525 l 0.361,-0.634526 -0.13692,0.730275 c -0.17714,0.944771 0.37665,1.111241 1.50628,0.452793 0.67214,-0.391781 0.75369,-0.40376 0.48628,-0.07143 -0.17672,0.219615 -0.28055,0.433924 -0.23074,0.476243 0.0498,0.04232 1.06079,0.313425 2.24662,0.602459 3.74753,0.913422 5.3152,2.037871 4.39199,3.150268 -0.16175,0.194906 -1.40606,0.912041 -2.76511,1.593632 -1.35905,0.681592 -3.08737,1.63763 -3.8407,2.12453 -1.14249,0.73843 -1.76798,0.953586 -3.7709,1.297108 -1.32067,0.226509 -5.20467,0.966476 -8.63111,1.64437 -6.88076,1.361304 -8.27508,1.541267 -9.8063,1.265681 z"
       id="path33" /><path
       style="fill:#566852;fill-opacity:1"
       d="m 40.849254,26.715883 c -0.28236,-0.412442 -0.88157,-1.139262 -1.33159,-1.615156 -1.01647,-1.074923 -0.73562,-1.096682 0.96186,-0.07452 0.72223,0.434909 1.31316,0.757742 1.31316,0.717407 0,-0.04034 -0.20539,-0.52596 -0.45641,-1.079166 -0.25102,-0.553205 -0.45743,-1.473069 -0.45869,-2.044142 l -0.002,-1.038314 0.59339,1.038314 c 0.32636,0.571073 0.63209,1.077069 0.67941,1.124436 0.0473,0.04737 0.0452,-0.783285 -0.005,-1.845893 l -0.0906,-1.932014 0.7638,1.492302 0.7638,1.492302 0.12118,-0.91546 c 0.0666,-0.503503 0.27589,-1.486534 0.46498,-2.184512 0.29293,-1.081243 0.34758,-1.159469 0.36932,-0.528582 0.014,0.407257 0.14663,1.549403 0.29466,2.538102 l 0.26915,1.797634 0.27321,-1.153683 c 0.15027,-0.634526 0.49581,-1.776672 0.76787,-2.538103 l 0.49465,-1.384419 -0.13601,1.615156 c -0.0748,0.888336 -0.22939,1.978566 -0.34351,2.422734 -0.35969,1.399824 -0.22826,1.317337 0.64335,-0.403789 0.46594,-0.920062 0.93026,-1.67284 1.03181,-1.67284 0.17652,0 -0.47067,1.839813 -1.00614,2.860215 -0.14012,0.267006 0.30837,-0.04357 0.99664,-0.690174 0.68826,-0.646602 1.49224,-1.30454 1.78662,-1.462085 0.45627,-0.244189 0.40072,-0.08778 -0.37654,1.060271 -0.50147,0.740694 -1.08388,1.681642 -1.29424,2.090995 l -0.38247,0.744278 1.44512,-1.00136 c 2.40301,-1.665101 2.73349,-1.721496 1.32108,-0.22544 -0.70275,0.74437 -1.47579,1.591634 -1.71787,1.882809 l -0.44016,0.529409 1.24668,-0.577594 c 0.68567,-0.317677 1.28297,-0.541297 1.32734,-0.496933 0.0444,0.04436 -0.4185,0.55684 -1.02859,1.138835 l -1.10924,1.058174 -3.61839,0.0053 -3.61839,0.0053 z m 24.67686,-0.464355 c -0.11969,-0.223668 -0.68171,-0.976446 -1.24893,-1.67284 -0.56722,-0.696393 -0.98818,-1.266169 -0.93545,-1.266169 0.0527,0 0.71654,0.350831 1.47515,0.779624 l 1.3793,0.779625 -0.43419,-1.235333 c -0.2388,-0.679434 -0.43094,-1.679211 -0.42697,-2.221729 l 0.007,-0.986395 0.54264,1.107476 c 0.29846,0.609112 0.62003,1.180185 0.7146,1.269051 0.0946,0.08887 0.11007,-0.720991 0.0345,-1.799685 l -0.1375,-1.961261 0.72687,1.488758 c 0.42699,0.874536 0.77328,1.350516 0.83935,1.153684 0.0619,-0.184292 0.28557,-1.113812 0.49712,-2.065601 l 0.38464,-1.730524 0.16875,1.730524 c 0.17212,1.765173 0.53233,3.635889 0.57502,2.986408 0.013,-0.197601 0.38981,-1.443578 0.83737,-2.768839 0.44756,-1.325262 0.76562,-2.149987 0.70679,-1.832725 -0.0588,0.317263 -0.22545,1.456477 -0.37028,2.531587 -0.14483,1.07511 -0.31327,2.035551 -0.3743,2.134314 -0.061,0.09876 -0.0547,0.179568 0.0141,0.179568 0.0688,0 0.37814,-0.4932 0.68742,-1.095999 1.00699,-1.962691 1.34984,-2.173425 0.74347,-0.456981 l -0.5518,1.561964 0.97802,-0.901503 c 0.53791,-0.495826 1.19476,-1.017501 1.45967,-1.159276 0.44962,-0.24063 0.46295,-0.223174 0.20043,0.262485 -0.15468,0.286142 -0.54773,0.935584 -0.87347,1.443205 -1.25077,1.949184 -1.20989,1.984646 0.7546,0.654583 2.48873,-1.684999 2.90914,-1.791475 1.29861,-0.328895 -0.72584,0.659159 -1.53048,1.494489 -1.78811,1.856289 l -0.46841,0.657818 1.15359,-0.438327 c 0.63447,-0.241079 1.1438,-0.360876 1.13185,-0.266215 -0.012,0.09466 -0.45324,0.550373 -0.98063,1.012693 l -0.9589,0.84058 -3.77225,0.08237 c -3.41666,0.0746 -3.79276,0.04403 -3.98986,-0.324305 z m -11.73513,-3.62224 c 0,-0.121967 -0.46844,-0.796871 -1.04097,-1.499788 -0.57253,-0.702917 -0.93079,-1.27803 -0.79612,-1.27803 0.32907,0 1.63065,0.668197 2.09814,1.077133 0.3303,0.28893 0.32323,0.16805 -0.0577,-0.986587 -0.23874,-0.723724 -0.43409,-1.678619 -0.43409,-2.121989 V 17.0139 l 0.59909,1.130364 c 0.3295,0.621701 0.6554,1.18228 0.72424,1.245733 0.0688,0.06345 0.0603,-0.819115 -0.0189,-1.961261 l -0.14406,-2.076629 0.64814,1.439835 c 0.35648,0.79191 0.70372,1.495407 0.77164,1.563327 0.0679,0.06792 0.25279,-0.678016 0.41082,-1.657637 0.41478,-2.571205 0.66311,-3.042485 0.70901,-1.345525 0.0206,0.761431 0.10892,1.955492 0.19628,2.65347 l 0.15883,1.269052 0.63853,-2.07663 c 1.21236,-3.94279 1.32049,-3.98235 0.63071,-0.230736 -0.23333,1.269051 -0.39428,2.340956 -0.35768,2.382011 0.0366,0.04106 0.45404,-0.66272 0.92762,-1.563945 0.47358,-0.901225 0.90469,-1.594958 0.95802,-1.541628 0.0533,0.05333 -0.22064,0.797425 -0.60882,1.653544 -0.38819,0.856119 -0.70579,1.574054 -0.70579,1.595409 0,0.02136 0.55771,-0.50136 1.23937,-1.161592 0.68165,-0.660232 1.47937,-1.328867 1.7727,-1.485856 0.45892,-0.245607 0.41894,-0.128222 -0.28656,0.841257 -0.77147,1.06013 -1.57183,2.449648 -1.57183,2.728877 0,0.06892 0.70086,-0.321477 1.55747,-0.867554 2.26811,-1.44589 2.33047,-1.466956 1.42124,-0.480111 -2.25782,2.450556 -2.40572,2.706726 -1.21194,2.099091 1.6703,-0.850184 1.82922,-0.706027 0.54937,0.498335 l -1.26029,1.185945 h -3.75824 c -2.25022,0 -3.75823,-0.08898 -3.75823,-0.221758 z"
       id="path32" /><path
       style="fill:#a6beb0;fill-opacity:1"
       d="m 29.854129,80.194562 c -0.71135,-0.149058 -0.8628,-0.285422 -1.28038,-1.152841 -0.41096,-0.853686 -1.08716,-1.292495 -2.31385,-1.501531 -0.54144,-0.09226 -1.69007,-0.285734 -2.55251,-0.429929 -1.97472,-0.330162 -3.1936,-0.763969 -3.64501,-1.297281 -0.42464,-0.501687 -0.43385,-0.586098 -0.0792,-0.725193 1.20265,-0.471652 5.95405,-1.776214 6.91936,-1.899804 0.30116,-0.03856 0.58022,-0.102773 0.62015,-0.142701 0.13037,-0.130372 -1.11985,-1.181394 -2.56086,-2.152839 l -1.41127,-0.951394 1.04811,0.104783 c 1.22423,0.12239 2.07781,0.400129 3.23251,1.051805 0.79936,0.451131 0.82588,0.455685 0.64752,0.111198 -0.50081,-0.967246 -2.27834,-3.829094 -3.02265,-4.866507 -0.46072,-0.642148 -0.89667,-1.263002 -0.96878,-1.379676 -0.18964,-0.306852 1.57969,0.719729 2.59147,1.503589 1.12785,0.873789 1.88485,1.677364 2.5749,2.733335 0.30869,0.472378 0.56126,0.815759 0.56126,0.763071 0,-0.10755 -1.00845,-2.537254 -1.64874,-3.972392 l -0.41901,-0.939183 0.36744,0.310365 c 0.20209,0.170701 0.81093,0.769742 1.35298,1.331203 l 0.98554,1.020837 -0.079,-0.627231 c -0.0435,-0.344978 -0.19424,-1.460932 -0.33507,-2.479899 -0.14083,-1.018966 -0.22729,-1.881436 -0.19212,-1.916599 0.0943,-0.09429 1.35604,1.856874 2.13326,3.298842 l 0.67616,1.254463 -0.0953,-1.176059 c -0.0524,-0.646832 -0.25969,-2.124632 -0.46067,-3.283999 -0.40832,-2.355431 -0.38447,-2.362977 0.77143,-0.244179 0.76442,1.401218 1.23605,2.523095 1.648,3.920198 0.15258,0.517466 0.31408,0.835002 0.35887,0.705635 0.0448,-0.129366 0.35268,-1.046692 0.68418,-2.038502 l 0.60274,-1.803291 0.1748,1.332867 c 0.0961,0.733077 0.1852,1.227022 0.19792,1.097655 0.0693,-0.704728 2.27962,-5.005105 2.47311,-4.81162 0.0404,0.04039 -0.0729,0.848658 -0.25169,1.79616 -0.31272,1.657063 -0.63743,4.289214 -0.54321,4.403397 0.025,0.03029 0.26792,-0.385656 0.53983,-0.92432 0.54811,-1.085792 2.17879,-3.668445 2.25952,-3.578601 0.0283,0.03148 -0.0721,0.903993 -0.22297,1.938925 -0.15092,1.034932 -0.31209,2.181337 -0.35816,2.547566 l -0.0838,0.665871 1.11756,-1.009917 c 0.61467,-0.555454 1.14437,-0.983115 1.17713,-0.950357 0.0328,0.03276 -0.30771,0.915388 -0.7566,1.961399 -0.4489,1.046012 -0.78549,1.932514 -0.748,1.970005 0.0375,0.03749 0.28853,-0.266937 0.55786,-0.676506 0.64007,-0.973325 1.68075,-2.050881 2.72346,-2.819953 0.93191,-0.687346 2.32772,-1.514082 2.32772,-1.378701 0,0.04808 -0.35298,0.57272 -0.7844,1.165869 -0.8713,1.197931 -3.29261,5.143585 -3.29261,5.365491 0,0.0779 0.26471,-0.03354 0.58823,-0.247637 0.80302,-0.531413 2.27727,-1.019476 3.41038,-1.129037 l 0.94084,-0.09097 -1.41127,0.970578 c -1.3166,0.905475 -2.807,2.191732 -2.68312,2.315614 0.14074,0.140738 3.70156,1.007417 5.71189,1.390231 2.16716,0.41268 2.23489,0.437263 1.9601,0.711439 -0.15655,0.156194 -1.16667,0.759119 -2.24473,1.339833 l -1.9601,1.055844 -2.97935,0.106206 c -3.52835,0.125776 -5.04017,0.407737 -8.46763,1.579247 -2.11374,0.722482 -2.51103,0.808825 -3.92019,0.851987 -0.86245,0.02642 -1.83628,-0.0082 -2.16408,-0.07686 z"
       id="path34" /><path
       style="fill:#566852;fill-opacity:1"
       d="m 29.082609,75.201055 c -0.23439,-0.495905 -0.81328,-1.360309 -1.28641,-1.920897 -0.805,-0.953792 -1.35229,-1.409873 -3.30427,-2.753589 -0.87386,-0.60155 -0.76169,-0.654948 0.77793,-0.370334 0.99893,0.184661 2.49756,0.79369 2.94139,1.195348 0.15438,0.139719 0.31449,0.220249 0.35578,0.178956 0.153,-0.152997 -2.06944,-3.825551 -3.54057,-5.850752 l -0.67995,-0.936035 0.7781,0.451155 c 2.1285,1.234149 3.76318,2.716458 4.5932,4.165053 0.27179,0.474344 0.49483,0.776076 0.49563,0.670516 0.002,-0.233443 -0.70652,-2.026009 -1.47319,-3.72827 l -0.56498,-1.254463 1.33344,1.365305 c 0.73339,0.750918 1.33344,1.275658 1.33344,1.166089 0,-0.193637 -0.3488,-2.912284 -0.55613,-4.334685 l -0.10286,-0.705636 0.75,1.095983 c 0.41249,0.602791 1.06016,1.661244 1.43927,2.352119 l 0.68929,1.256135 -0.0862,-1.176059 c -0.0474,-0.646832 -0.2322,-2.014076 -0.41062,-3.038319 -0.17843,-1.024243 -0.30279,-1.927125 -0.27636,-2.006404 0.13241,-0.397237 2.17256,3.886045 2.60792,5.475321 l 0.27875,1.017582 0.69523,-2.096159 c 0.56923,-1.716272 0.70231,-1.996695 0.73434,-1.547332 0.0215,0.301856 0.082,0.936928 0.13437,1.411272 l 0.0953,0.862443 0.34515,-0.940847 c 0.57583,-1.569684 2.07074,-4.423991 2.23236,-4.262372 0.0331,0.03312 -0.0416,0.547036 -0.16604,1.142041 -0.31386,1.500759 -0.76887,4.927137 -0.66773,5.028274 0.0458,0.04584 0.27318,-0.291294 0.50521,-0.74918 0.85174,-1.680824 2.65144,-4.411828 2.34483,-3.558228 -0.0951,0.264858 -0.70272,4.886652 -0.64941,4.93996 0.0223,0.02232 0.49478,-0.37852 1.0499,-0.890763 0.55511,-0.512243 1.05955,-0.934218 1.12096,-0.937724 0.0614,-0.0035 -0.14142,0.575777 -0.45074,1.287292 -0.70683,1.625869 -1.16023,2.825976 -1.09304,2.893163 0.0285,0.02846 0.30946,-0.365786 0.62444,-0.876099 0.71317,-1.155424 2.53793,-2.869721 3.96164,-3.721809 0.59392,-0.355461 1.106,-0.623328 1.13796,-0.595261 0.032,0.02807 -0.15303,0.318899 -0.41108,0.646292 -1.03458,1.312585 -3.9976,6.120181 -3.68415,5.977647 0.0643,-0.02924 0.55723,-0.282644 1.09537,-0.563114 0.99599,-0.519093 2.57176,-0.970973 3.40052,-0.97516 0.40044,-0.002 0.28085,0.11635 -0.94085,0.931216 -2.22476,1.483906 -3.40664,2.756735 -4.13282,4.450856 l -0.3134,0.731118 h -6.31734 -6.31734 z"
       id="path35" /></g></svg>
