<?xml version="1.0" encoding="UTF-8" standalone="no"?>
<!-- Created with Inkscape (http://www.inkscape.org/) -->

<svg
   width="100mm"
   height="100mm"
   viewBox="0 0 100 100"
   version="1.1"
   id="svg1"
   inkscape:version="1.4 (86a8ad7, 2024-10-11)"
   sodipodi:docname="decor2.svg"
   xml:space="preserve"
   xmlns:inkscape="http://www.inkscape.org/namespaces/inkscape"
   xmlns:sodipodi="http://sodipodi.sourceforge.net/DTD/sodipodi-0.dtd"
   xmlns="http://www.w3.org/2000/svg"
   xmlns:svg="http://www.w3.org/2000/svg"><sodipodi:namedview
     id="namedview1"
     pagecolor="#ffffff"
     bordercolor="#000000"
     borderopacity="0.25"
     inkscape:showpageshadow="2"
     inkscape:pageopacity="0.0"
     inkscape:pagecheckerboard="true"
     inkscape:deskcolor="#d1d1d1"
     inkscape:document-units="mm"
     inkscape:zoom="1.0227973"
     inkscape:cx="117.81416"
     inkscape:cy="78.705722"
     inkscape:window-width="1920"
     inkscape:window-height="1009"
     inkscape:window-x="1912"
     inkscape:window-y="-8"
     inkscape:window-maximized="1"
     inkscape:current-layer="layer1" /><defs
     id="defs1" /><g
     inkscape:label="Warstwa 1"
     inkscape:groupmode="layer"
     id="layer1"><path
       style="fill:#a6beb0;fill-opacity:1"
       d="m 28.910391,44.719362 c -0.91569,-0.196125 -2.10346,-0.545273 -2.6395,-0.775884 -1.1281,-0.485329 -2.33897,-0.756748 -7.41313,-1.661665 -3.48368,-0.621273 -4.44174,-0.945172 -4.44174,-1.501655 0,-0.467063 2.2417,-1.225654 6.26752,-2.120929 l 1.4687,-0.326616 -1.15279,-1.208585 c -0.63404,-0.664722 -1.64752,-1.579919 -2.25219,-2.033771 -0.60466,-0.453852 -1.18753,-0.905858 -1.29525,-1.004458 -0.55508,-0.508037 2.53506,0.831415 3.95923,1.716169 l 0.82531,0.512722 -0.309,-0.74136 c -0.62133,-1.490726 -1.25335,-2.594139 -2.20927,-3.857083 -0.53758,-0.710242 -0.90996,-1.291349 -0.82751,-1.291349 0.49547,0 2.86119,2.32032 3.77613,3.703666 0.5704,0.862415 1.06112,1.543996 1.09049,1.514625 0.2212,-0.221196 -2.00277,-6.469535 -2.90308,-8.156338 l -0.57499,-1.077285 0.98971,1.070039 c 0.86168,0.931624 2.20426,3.318793 3.08855,5.491601 l 0.19929,0.489675 0.10127,-0.489675 c 0.67604,-3.269047 2.14903,-8.044604 2.40298,-7.790657 0.0389,0.03889 -0.0123,0.860174 -0.11381,1.82508 -0.10149,0.964907 -0.18238,3.208709 -0.17976,4.986228 l 0.005,3.231853 0.64062,-1.588615 c 0.64982,-1.611424 1.99642,-3.689837 2.9682,-4.581286 0.51817,-0.475328 0.51234,-0.446789 -0.19912,0.974071 -0.60702,1.212272 -2.0551,4.706107 -2.0551,4.958397 0,0.03913 0.73117,-0.640645 1.62483,-1.510607 0.89365,-0.869961 2.10559,-1.841264 2.69321,-2.15845 l 1.06838,-0.576703 -1.25884,1.458117 c -1.19943,1.389304 -3.3441,4.474466 -3.3441,4.810575 0,0.08716 0.41867,-0.247774 0.93038,-0.744297 0.51171,-0.496524 1.28345,-1.078968 1.71497,-1.29432 0.85133,-0.424864 2.43712,-0.899608 2.56795,-0.768779 0.0446,0.04462 -0.42702,0.396107 -1.04809,0.781074 -0.62107,0.384966 -1.43297,1.015309 -1.80422,1.400762 l -0.675,0.700824 1.94815,-0.0074 1.94815,-0.0074 -0.78348,-0.680233 -0.78347,-0.680233 0.80252,0.276602 c 0.44139,0.152131 1.16505,0.461546 1.60812,0.687587 0.44308,0.226042 0.9905,0.410985 1.21649,0.410985 0.38849,0 0.37412,-0.06524 -0.26381,-1.197226 -0.37108,-0.658474 -0.97114,-1.605995 -1.33347,-2.105601 -0.95411,-1.315618 -0.93336,-1.391677 0.14091,-0.516635 1.23877,1.009033 1.71087,1.527241 2.55758,2.807384 0.37999,0.574505 0.72899,1.006456 0.77555,0.95989 0.15831,-0.158304 -1.53329,-4.935612 -2.30493,-6.509452 l -0.76826,-1.566959 0.79066,0.881415 c 0.43486,0.484778 1.30977,1.910485 1.94424,3.168238 l 1.15358,2.286824 0.12831,-0.967227 c 0.17808,-1.342445 0.97521,-4.020807 1.57404,-5.288788 0.36088,-0.764134 0.47196,-0.895874 0.39814,-0.472201 -0.0563,0.323185 -0.14622,2.306367 -0.19979,4.407071 -0.0766,3.003574 -0.0485,3.714861 0.13144,3.329788 1.20471,-2.577872 1.66976,-3.385172 2.43165,-4.221212 l 0.88337,-0.969339 -0.56919,1.175219 c -0.53824,1.111339 -1.59747,3.879896 -1.59747,4.17541 0,0.0752 0.64363,-0.480934 1.4303,-1.23586 0.78666,-0.754925 1.81279,-1.583582 2.2803,-1.841458 l 0.85002,-0.468868 -1.4937,1.794664 c -1.5169,1.822535 -2.25121,2.962533 -1.90829,2.962533 0.10414,0 0.24485,-0.08982 0.3127,-0.199595 0.27998,-0.453018 3.34034,-1.713606 3.57951,-1.474433 0.043,0.043 -0.18386,0.213694 -0.50415,0.379318 -0.32028,0.165625 -0.87033,0.543477 -1.22234,0.839671 l -0.64001,0.538536 2.52626,0.42441 c 3.9082,0.656574 4.97852,1.039462 4.72832,1.691473 -0.0627,0.163531 -0.80424,0.582054 -1.64775,0.930049 -0.84351,0.347996 -2.18412,0.93869 -2.97912,1.312655 -1.29926,0.611162 -2.15598,0.79732 -8.46994,1.840453 -3.86347,0.638284 -7.39973,1.1517 -7.85836,1.140924 -0.45863,-0.01077 -1.58308,-0.180058 -2.49877,-0.376182 z"
       id="path26" /><path
       style="fill:#566852;fill-opacity:1"
       d="m 36.904191,39.635717 c -0.4645,-0.69752 -1.48287,-1.821323 -2.26303,-2.497341 -0.78017,-0.676017 -1.32162,-1.229122 -1.20323,-1.229122 0.31992,0 2.76419,1.179803 3.16156,1.526019 0.18918,0.164834 0.38504,0.258631 0.43523,0.208438 0.16651,-0.166514 -1.08897,-2.599302 -1.88838,-3.659174 -0.4328,-0.573816 -0.74494,-1.085276 -0.69363,-1.136578 0.19906,-0.199067 2.52982,2.188021 3.20595,3.283438 0.39206,0.635188 0.75171,1.116016 0.79922,1.068506 0.20806,-0.208064 -1.39356,-4.952224 -2.25417,-6.67707 -0.48177,-0.96558 -0.48246,-0.973842 -0.0489,-0.587609 0.60613,0.539947 2.07904,3.088543 2.58911,4.47998 l 0.42164,1.150194 0.35444,-1.737803 c 0.34672,-1.699996 1.3852,-4.973712 1.76286,-5.557265 0.13795,-0.213147 0.15475,-0.159375 0.0612,0.19587 -0.0709,0.269321 -0.16547,2.296574 -0.21009,4.505006 -0.0632,3.125507 -0.0313,3.906817 0.14379,3.525658 0.12371,-0.269321 0.48137,-1.060616 0.79479,-1.758432 0.53159,-1.18354 2.07874,-3.436427 2.24545,-3.269717 0.0409,0.04094 -0.18151,0.594064 -0.49433,1.229169 -0.52694,1.069819 -1.59413,3.848077 -1.59413,4.150061 0,0.07253 0.40446,-0.330492 0.8988,-0.895595 0.49434,-0.565103 1.44186,-1.409326 2.1056,-1.876051 1.70644,-1.199923 1.89065,-1.26727 1.09231,-0.399359 -1.11201,1.208924 -2.04729,2.44152 -2.71019,3.57175 l -0.61329,1.045631 0.83757,-0.676966 c 0.46067,-0.372332 1.04065,-0.782408 1.28886,-0.911281 0.3914,-0.203221 2.14,-0.788704 2.37344,-0.7947 0.0454,-0.0012 -0.32256,0.266216 -0.8177,0.594183 -1.43592,0.951113 -3.0045,2.737609 -3.44193,3.920109 -0.14894,0.40261 -0.28273,0.42394 -2.82531,0.450446 l -2.66897,0.02782 z m -14.43132,-0.52629 c -0.62932,-1.295337 -1.54503,-2.3382 -3.2355,-3.684804 -0.80795,-0.643597 -1.43856,-1.200613 -1.40136,-1.237813 0.12386,-0.12386 2.14788,0.806226 3.21201,1.475995 0.57734,0.363381 1.09309,0.617319 1.1461,0.564307 0.15028,-0.150285 -1.26488,-2.827277 -2.21801,-4.195672 -0.47256,-0.678464 -0.85921,-1.27942 -0.85921,-1.335459 0,-0.05604 0.27512,0.09402 0.61138,0.333453 1.09196,0.777543 2.54749,2.403666 3.26699,3.649873 0.38689,0.670134 0.74253,1.179348 0.79029,1.131588 0.2379,-0.237909 -1.66747,-5.833754 -2.72549,-8.004418 l -0.58541,-1.201041 0.70843,0.78348 c 0.82732,0.914964 1.84996,2.684493 2.75628,4.769343 0.35395,0.814213 0.68206,1.352249 0.72912,1.195635 0.0471,-0.156614 0.1892,-0.899233 0.31584,-1.650264 0.23482,-1.392601 1.35428,-5.015789 1.87778,-6.077543 0.25556,-0.518318 0.27798,-0.529866 0.19016,-0.09793 -0.22607,1.111867 -0.51271,7.437432 -0.38996,8.605516 l 0.13245,1.260398 0.53319,-1.358332 c 0.29325,-0.747083 0.70316,-1.684506 0.91091,-2.083163 0.37783,-0.72503 2.04667,-2.871315 2.24653,-2.889251 0.0583,-0.0052 -0.22505,0.673585 -0.62964,1.508481 -0.71272,1.47075 -1.72884,4.076782 -1.72884,4.433959 0,0.09652 0.57085,-0.403844 1.26855,-1.111917 1.35141,-1.371505 2.07892,-1.957468 3.3344,-2.685627 l 0.78347,-0.454407 -0.70344,0.765926 c -1.60045,1.742593 -3.8995,4.963513 -3.8995,5.463112 0,0.07751 0.48508,-0.302395 1.07794,-0.844241 0.64442,-0.588964 1.51389,-1.148283 2.16192,-1.390743 1.59652,-0.597336 1.88329,-0.4956 0.75148,0.266602 -1.26534,0.852127 -2.83546,2.607426 -3.54205,3.959775 l -0.54722,1.04735 -2.94799,4.65e-4 -2.94798,4.66e-4 z"
       id="path27" /><path
       style="fill:#a6beb0;fill-opacity:1;stroke-width:0.998982"
       d="m 69.766201,64.734209 c 1.808024,-0.22163 2.224525,-0.45567 2.742799,-1.54116 0.764981,-1.60223 1.495741,-1.9076 6.558202,-2.74059 2.549614,-0.41952 3.858905,-0.83316 4.591003,-1.45044 0.80937,-0.68243 0.79468,-1.20774 -0.04052,-1.44886 -5.010078,-1.44637 -7.909578,-2.25466 -9.100979,-2.53706 -0.797585,-0.18905 -1.450155,-0.39584 -1.450155,-0.45954 0,-0.0637 0.200911,-0.33011 0.44647,-0.59203 l 0.44648,-0.47622 -1.06956,0.49654 c -0.882281,0.4096 -1.266927,0.47711 -2.196662,0.38553 -0.619907,-0.0611 -1.150565,-0.1296 -1.179246,-0.15231 -0.02864,-0.0227 0.09022,-0.43867 0.264211,-0.92436 0.173995,-0.4857 0.367192,-1.73993 0.429335,-2.78717 l 0.11297,-1.90408 -1.047795,2.04694 c -0.576285,1.12582 -1.190423,2.16304 -1.364738,2.30494 -0.268782,0.21879 -0.297833,0.20684 -0.19117,-0.0786 0.06916,-0.18514 0.18138,-1.58314 0.249341,-3.10665 0.06796,-1.52351 0.169605,-2.9955 0.22586,-3.27109 0.194564,-0.95304 -0.273542,-0.12252 -1.32933,2.35849 -0.575457,1.35229 -1.11377,2.5005 -1.196242,2.55158 -0.08243,0.0511 -0.211868,-0.46909 -0.287544,-1.15593 -0.153138,-1.38978 -1.262297,-6.97666 -1.415565,-7.13025 -0.05379,-0.0539 -0.0997,0.39054 -0.101902,0.98766 -0.002,0.59711 -0.136083,2.61894 -0.297394,4.49295 -0.161311,1.87401 -0.301585,3.67788 -0.311724,4.00859 -0.01816,0.5933 -0.02066,0.59463 -0.187239,0.10021 -0.09281,-0.27559 -0.532295,-1.80887 -0.976549,-3.4073 -1.016708,-3.65809 -2.229057,-7.338913 -2.112484,-6.41373 0.310706,2.46587 1.151383,7.5597 1.463706,8.86899 0.203805,0.85433 0.341724,1.55333 0.306475,1.55333 -0.07605,0 -0.56413,-0.85676 -2.376037,-4.17049 -0.741857,-1.35676 -1.381324,-2.43429 -1.421033,-2.3945 -0.107251,0.10747 1.155594,3.43761 1.989106,5.24532 0.399805,0.8671 0.726928,1.61704 0.726928,1.66654 0,0.0495 -0.344747,-0.34653 -0.766119,-0.88005 -0.421361,-0.53352 -1.290399,-1.44968 -1.931193,-2.03592 -1.097493,-1.00404 -3.333007,-2.64206 -3.605781,-2.64206 -0.06846,0 0.185702,0.38332 0.564689,0.85182 1.106256,1.36754 3.338146,5.01391 3.338146,5.45371 0,0.38326 -1.052654,-0.0658 -2.743388,-1.17042 -1.076416,-0.70324 -2.49718,-1.58064 -3.157245,-1.94978 l -1.200133,-0.67115 2.050221,1.97435 c 1.127621,1.0859 2.050221,2.05349 2.050221,2.15021 0,0.0967 -0.293911,0.17585 -0.653129,0.17585 -0.359218,0 -2.066777,0.36038 -3.794576,0.80083 -1.727788,0.44046 -4.3367,1.02909 -5.797562,1.30807 -3.619872,0.69128 -3.580602,0.66907 -2.521711,1.42577 0.47613,0.34025 1.865249,1.12724 3.086918,1.74885 l 2.221213,1.13022 h 2.61483 c 4.314436,0 7.164756,0.4959 12.04479,2.09558 4.156917,1.36264 5.255617,1.55962 7.300789,1.30891 z"
       id="path30" /><path
       style="fill:#566852;fill-opacity:1;stroke-width:0.998982"
       d="m 70.417373,57.621779 c 0.576176,-0.77166 1.37884,-1.76378 1.783685,-2.20472 1.28015,-1.39429 1.775241,-1.9957 1.465562,-1.7803 -0.165023,0.11477 -0.792265,0.41545 -1.393888,0.66816 -0.601614,0.25272 -1.668989,0.80961 -2.371946,1.23753 -0.90774,0.5526 -1.234953,0.6762 -1.129218,0.42655 0.832543,-1.96585 1.308443,-3.80325 1.420574,-5.4847 l 0.125485,-1.88184 -1.022436,2.02707 c -1.114638,2.20985 -1.771051,3.03898 -1.565639,1.97758 0.06357,-0.32854 0.168576,-1.90515 0.233314,-3.50358 l 0.11771,-2.90622 -1.124308,2.60558 c -0.61837,1.43307 -1.19692,2.68145 -1.285669,2.77419 -0.08872,0.0927 -0.223874,-0.40333 -0.300298,-1.10236 -0.154366,-1.41192 -1.253276,-6.99847 -1.406933,-7.15244 -0.05379,-0.0539 -0.0978,0.43715 -0.0978,1.09123 0,1.22604 -0.575378,8.54025 -0.680074,8.64516 -0.03233,0.0324 -0.520519,-1.58836 -1.084869,-3.60166 -1.095208,-3.90716 -1.99653,-6.65828 -2.020062,-6.16592 -0.02734,0.57133 0.981329,6.66324 1.385745,8.36951 0.223175,0.9416 0.365894,1.75197 0.317144,1.80082 -0.0487,0.0489 -0.239432,-0.2127 -0.423757,-0.58121 -0.813981,-1.62739 -3.1693,-5.77306 -3.239776,-5.70244 -0.101264,0.10147 1.09877,3.18954 2.029733,5.22316 0.401282,0.87657 0.694225,1.55301 0.650983,1.50322 -0.04321,-0.0498 -0.644995,-0.7553 -1.337254,-1.56779 -1.080688,-1.26841 -4.398445,-4.02801 -4.848608,-4.03291 -0.08243,-9e-4 0.252436,0.51739 0.744054,1.15175 0.911662,1.17634 3.553996,5.68013 3.4145,5.81991 -0.04231,0.0424 -0.331474,-0.0987 -0.64266,-0.31346 -1.724695,-1.19032 -6.37325,-4.05425 -6.580627,-4.05425 -0.0502,0 0.757396,0.78919 1.794732,1.75375 1.708817,1.58893 4.120102,4.25126 4.120102,4.54905 0,0.0655 -0.376512,-0.0734 -0.836704,-0.30865 -0.946142,-0.48367 -3.270015,-1.38428 -3.57189,-1.38428 -0.109467,0 0.651512,0.77121 1.691063,1.71381 l 1.890078,1.71381 6.366174,0.0399 6.366174,0.0399 z"
       id="path31" /></g></svg>
