<?xml version="1.0" encoding="UTF-8" standalone="no"?>
<!-- Created with Inkscape (http://www.inkscape.org/) -->

<svg
   width="100mm"
   height="100mm"
   viewBox="0 0 100 100"
   version="1.1"
   id="svg1"
   inkscape:version="1.4 (86a8ad7, 2024-10-11)"
   sodipodi:docname="decor7.svg"
   xml:space="preserve"
   xmlns:inkscape="http://www.inkscape.org/namespaces/inkscape"
   xmlns:sodipodi="http://sodipodi.sourceforge.net/DTD/sodipodi-0.dtd"
   xmlns="http://www.w3.org/2000/svg"
   xmlns:svg="http://www.w3.org/2000/svg"><sodipodi:namedview
     id="namedview1"
     pagecolor="#ffffff"
     bordercolor="#000000"
     borderopacity="0.25"
     inkscape:showpageshadow="2"
     inkscape:pageopacity="0.0"
     inkscape:pagecheckerboard="true"
     inkscape:deskcolor="#d1d1d1"
     inkscape:document-units="mm"
     inkscape:zoom="1.4464538"
     inkscape:cx="256.83503"
     inkscape:cy="148.29371"
     inkscape:window-width="1920"
     inkscape:window-height="1009"
     inkscape:window-x="1912"
     inkscape:window-y="-8"
     inkscape:window-maximized="1"
     inkscape:current-layer="layer1" /><defs
     id="defs1" /><g
     inkscape:label="Warstwa 1"
     inkscape:groupmode="layer"
     id="layer1"><path
       style="fill:#7e8e82;fill-opacity:1"
       d="m 66.044881,69.388565 c -0.28248,-0.213653 -0.77875,-0.38846 -1.10284,-0.38846 -0.99284,0 -1.42628,-0.292036 -1.42628,-0.960964 0,-0.499184 -0.17442,-0.674649 -0.79375,-0.798515 -1.2018,-0.240361 -1.0938,-1.424486 0.30353,-3.327944 0.967,-1.317256 1.31434,-1.575179 2.92555,-2.172399 1.00555,-0.372723 2.02982,-0.675593 2.27616,-0.673045 0.25782,0.0027 0.79183,0.592143 1.25837,1.389063 0.73351,1.252936 0.8891,1.376737 1.63809,1.303441 0.90314,-0.08838 2.06478,0.408647 2.75406,1.178379 0.54929,0.613405 0.91907,2.868229 0.51167,3.120019 -0.15924,0.09841 -1.15291,0.242467 -2.20816,0.320118 -1.20726,0.08884 -2.43636,0.377445 -3.31494,0.778391 -1.60483,0.732372 -2.1054,0.773517 -2.82146,0.231916 z"
       id="path39" /><path
       style="fill:#7e8e82;fill-opacity:1"
       d="m 74.535669,77.273348 c -0.87313,-0.06058 -1.68547,-0.207519 -1.8052,-0.326539 -0.38548,-0.383178 0.31948,-2.278634 1.20746,-3.246551 0.47828,-0.521345 1.42727,-1.143138 2.13086,-1.396186 1.12056,-0.403009 1.46856,-0.416473 2.98319,-0.115412 1.43196,0.28463 1.82482,0.485268 2.38294,1.217003 0.36757,0.481901 0.81107,0.877658 0.98557,0.87946 0.43765,0.0045 1.55822,1.78647 1.2451,1.979989 -0.4302,0.26588 -4.55745,0.977641 -6.08722,1.049765 -0.80036,0.03773 -2.16958,0.01905 -3.0427,-0.04153 z"
       id="path38" /><path
       style="fill:#7e8e82;fill-opacity:1"
       d="m 40.156486,28.948787 c -0.32078,-0.519038 0.11494,-1.442629 0.89912,-1.905858 1.04307,-0.616157 1.71979,-0.579916 2.55293,0.136721 0.60669,0.521848 0.65937,0.688527 0.41818,1.322917 -0.26162,0.688105 -0.3649,0.725841 -1.98669,0.725841 -0.9409,0 -1.78849,-0.12583 -1.88354,-0.279621 z"
       id="path37" /><path
       style="fill:#7e8e82;fill-opacity:1"
       d="m 33.99013,23.472572 c -0.61576,-0.10035 -1.17808,-0.24097 -1.2496,-0.312489 -0.0715,-0.07152 -0.008,-0.540058 0.14047,-1.041199 0.17999,-0.606265 0.67528,-1.205808 1.48013,-1.79168 1.64352,-1.19635 1.70534,-1.209391 3.39915,-0.716988 1.29111,0.375337 1.54047,0.557677 1.88267,1.376686 0.51953,1.243398 0.34674,1.587762 -1.10998,2.212186 -1.23304,0.52854 -2.50713,0.605242 -4.54284,0.273484 z"
       id="path36" /><path
       style="fill:#7e8e82;fill-opacity:1"
       d="m 71.35277,19.772574 c -1.03016,-0.447249 -1.06902,-0.74297 -0.21046,-1.601526 0.88899,-0.888999 1.79544,-0.832356 2.63434,0.164619 1.01648,1.208029 0.94769,1.386395 -0.63794,1.653968 -0.55324,0.09336 -1.27222,0.006 -1.78594,-0.217061 z"
       id="path35" /><path
       style="fill:#7e8e82;fill-opacity:1"
       d="m 61.510734,81.293512 c -1.03016,-0.447249 -1.06902,-0.74297 -0.21046,-1.601526 0.88899,-0.888999 1.79544,-0.832356 2.63434,0.164619 1.01648,1.208029 0.94769,1.386395 -0.63794,1.653968 -0.55324,0.09336 -1.27222,0.006 -1.78594,-0.217061 z"
       id="path35-7" /><path
       style="fill:#7e8e82;fill-opacity:1"
       d="m 73.871102,61.952982 c -1.03016,-0.447249 -1.06902,-0.74297 -0.21046,-1.601526 0.88899,-0.888999 1.79544,-0.832356 2.63434,0.164619 1.01648,1.208029 0.94769,1.386395 -0.63794,1.653968 -0.55324,0.09336 -1.27222,0.006 -1.78594,-0.217061 z"
       id="path35-6" /></g></svg>
