<?xml version="1.0" encoding="UTF-8" standalone="no"?>
<!-- Created with Inkscape (http://www.inkscape.org/) -->

<svg
   width="100mm"
   height="100mm"
   viewBox="0 0 100 100"
   version="1.1"
   id="svg1"
   inkscape:version="1.4 (86a8ad7, 2024-10-11)"
   sodipodi:docname="decor1.svg"
   xml:space="preserve"
   xmlns:inkscape="http://www.inkscape.org/namespaces/inkscape"
   xmlns:sodipodi="http://sodipodi.sourceforge.net/DTD/sodipodi-0.dtd"
   xmlns="http://www.w3.org/2000/svg"
   xmlns:svg="http://www.w3.org/2000/svg"><sodipodi:namedview
     id="namedview1"
     pagecolor="#ffffff"
     bordercolor="#000000"
     borderopacity="0.25"
     inkscape:showpageshadow="2"
     inkscape:pageopacity="0.0"
     inkscape:pagecheckerboard="true"
     inkscape:deskcolor="#d1d1d1"
     inkscape:document-units="mm"
     inkscape:zoom="1.0227973"
     inkscape:cx="117.81416"
     inkscape:cy="156.92259"
     inkscape:window-width="1920"
     inkscape:window-height="1009"
     inkscape:window-x="1912"
     inkscape:window-y="-8"
     inkscape:window-maximized="1"
     inkscape:current-layer="layer1" /><defs
     id="defs1" /><g
     inkscape:label="Warstwa 1"
     inkscape:groupmode="layer"
     id="layer1"><path
       style="fill:#a6beb0;fill-opacity:1;stroke-width:0.708256"
       d="m 35.503593,36.066542 c -0.15905,-0.03638 -1.00492,-0.28244 -1.8797,-0.546817 -2.61449,-0.790149 -4.67003,-1.336658 -6.50666,-1.729929 -2.25259,-0.48234 -2.82185,-0.640303 -3.21718,-0.892728 -0.81514,-0.520487 -0.0602,-1.228369 1.98815,-1.864113 0.67596,-0.209804 1.91223,-0.613286 2.74725,-0.896628 0.83502,-0.283341 1.87609,-0.591631 2.31348,-0.68509 l 0.79526,-0.169923 -1.0483,-0.768492 c -0.57656,-0.42267 -1.0483,-0.787065 -1.0483,-0.809766 0,-0.0227 0.37414,0.07272 0.83141,0.212057 0.88998,0.271178 2.16628,0.878212 2.82788,1.344991 0.22328,0.157528 0.44138,0.250982 0.48469,0.207676 0.13849,-0.13849 -1.27058,-2.654047 -2.08657,-3.725062 -0.75785,-0.994714 -0.76992,-1.024228 -0.31245,-0.763955 1.12963,0.642678 2.52374,2.165506 3.70414,4.046138 0.27959,0.445454 -0.48154,-2.279517 -1.04283,-3.733461 -0.2852,-0.738801 -0.8391,-1.961407 -1.23088,-2.716902 l -0.71234,-1.373627 0.58529,0.650665 c 1.30373,1.449349 2.20859,2.956844 3.12035,5.198497 0.1248,0.306837 0.16924,0.199617 0.32962,-0.795258 0.10196,-0.632451 0.37123,-1.718859 0.59839,-2.414241 0.46392,-1.420104 1.29578,-3.477004 1.3744,-3.398387 0.0283,0.02833 -0.0451,1.0565 -0.16318,2.284818 -0.21932,2.281603 -0.27188,6.199157 -0.0801,5.973333 0.0585,-0.06887 0.28531,-0.593917 0.50407,-1.166774 0.21876,-0.572856 0.64403,-1.418722 0.94506,-1.879701 0.60401,-0.924962 1.7451,-2.26075 1.84548,-2.160371 0.0352,0.03518 -0.13094,0.412139 -0.36916,0.837688 -0.38626,0.689996 -1.40386,3.117744 -1.67655,3.999822 -0.0683,0.22084 0.31196,-0.07352 1.12064,-0.867555 1.00016,-0.98204 3.01035,-2.430839 3.37276,-2.430839 0.047,0 -0.41153,0.528261 -1.01892,1.173914 -1.0045,1.067787 -1.96214,2.290798 -1.96214,2.50585 0,0.110894 0.59844,-0.03239 1.59051,-0.3808 0.71082,-0.24964 2.16889,-0.566651 2.16889,-0.471558 0,0.02033 -0.30844,0.21772 -0.68542,0.438647 l -0.68542,0.401683 0.86616,0.179418 c 0.47639,0.09868 1.74169,0.319798 2.81179,0.491375 3.3294,0.533827 4.84071,1.170273 4.55388,1.917742 -0.0473,0.123276 -0.74814,0.571645 -1.55739,0.996372 -0.80926,0.424728 -1.8453,1.021402 -2.30234,1.325942 -0.76551,0.510105 -1.07866,0.604144 -3.97654,1.194173 -1.73008,0.352257 -3.89387,0.80132 -4.80842,0.997921 -1.57435,0.33844 -2.45416,0.412944 -3.10873,0.263255 z"
       id="path29" /><path
       style="fill:#566852;fill-opacity:1;stroke-width:0.708256"
       d="m 33.954503,31.724279 c -0.44392,-0.808897 -2.29008,-2.637498 -3.45458,-3.42171 -0.42689,-0.287488 -0.70589,-0.522706 -0.61999,-0.522706 0.54852,0 2.57204,0.911336 3.78981,1.70682 0.33185,0.216777 0.3312,0.210744 -0.0685,-0.635538 -0.49411,-1.046269 -1.82192,-3.162102 -2.34191,-3.731761 l -0.38274,-0.419297 0.48669,0.274705 c 0.90069,0.508383 2.46033,2.087605 3.14226,3.181703 0.37041,0.594299 0.69987,1.054145 0.73213,1.021879 0.2184,-0.218399 -1.19639,-4.211795 -2.20832,-6.233227 -0.58412,-1.166833 -0.61317,-1.268579 -0.27049,-0.947363 0.92922,0.871025 2.46998,3.460215 2.96753,4.986821 l 0.1885,0.578369 0.32079,-1.590516 c 0.32822,-1.627323 0.91418,-3.429526 1.57491,-4.843843 0.26483,-0.56687 0.3503,-0.670684 0.29763,-0.361482 -0.31262,1.834989 -0.51055,8.396411 -0.24405,8.089943 0.0657,-0.07555 0.21128,-0.42913 0.32351,-0.785736 0.31977,-1.016083 1.15841,-2.533606 1.87052,-3.384728 1.0302,-1.231299 1.13357,-1.161521 0.41931,0.283048 -0.36583,0.739871 -0.86109,1.905538 -1.10058,2.590371 l -0.43545,1.24515 1.24518,-1.216694 c 1.13103,-1.105171 2.88525,-2.411286 3.23854,-2.411286 0.0776,0 -0.221,0.374132 -0.66362,0.831405 -1.09783,1.134195 -1.8447,2.11424 -2.39298,3.140071 l -0.46111,0.862739 0.50866,-0.493018 c 0.37747,-0.365859 0.46217,-0.52663 0.32839,-0.623342 -0.12138,-0.08776 -0.0916,-0.101441 0.0911,-0.04189 0.14925,0.04864 0.34461,0.02764 0.43414,-0.04666 0.30959,-0.256943 1.62776,-0.711814 2.33944,-0.807296 l 0.71446,-0.09585 -0.63339,0.37437 c -0.71158,0.420584 -1.94422,1.407372 -2.44541,1.957665 -0.18236,0.200216 -0.5612,0.738162 -0.84188,1.195435 l -0.51032,0.831406 h -1.05128 c -0.5782,0 -1.82602,0.03982 -2.77293,0.08849 l -1.72167,0.08849 z"
       id="path28" /><path
       style="fill:#a6beb0;fill-opacity:1"
       d="m 50.916088,78.961939 c -1.81171,-0.22163 -2.22906,-0.45567 -2.74839,-1.54116 -0.76654,-1.60223 -1.49879,-1.9076 -6.57157,-2.74059 -2.55481,-0.41952 -3.86677,-0.83316 -4.60036,-1.45044 -0.81102,-0.68243 -0.7963,-1.20774 0.0406,-1.44886 5.02029,-1.44637 7.9257,-2.25466 9.11953,-2.53706 0.79921,-0.18905 1.45311,-0.39584 1.45311,-0.45954 0,-0.0637 -0.20132,-0.33011 -0.44738,-0.59203 l -0.44739,-0.47622 1.07174,0.49654 c 0.88408,0.4096 1.26951,0.47711 2.20114,0.38553 0.62117,-0.0611 1.15291,-0.1296 1.18165,-0.15231 0.0287,-0.0227 -0.0904,-0.43867 -0.26475,-0.92436 -0.17435,-0.4857 -0.36794,-1.73993 -0.43021,-2.78717 l -0.1132,-1.90408 1.04993,2.04694 c 0.57746,1.12582 1.19285,2.16304 1.36752,2.30494 0.26933,0.21879 0.29844,0.20684 0.19156,-0.0786 -0.0693,-0.18514 -0.18175,-1.58314 -0.24985,-3.10665 -0.0681,-1.52351 -0.16995,-2.9955 -0.22632,-3.27109 -0.19496,-0.95304 0.2741,-0.12252 1.33204,2.35849 0.57663,1.35229 1.11604,2.5005 1.19868,2.55158 0.0826,0.0511 0.2123,-0.46909 0.28813,-1.15593 0.15345,-1.38978 1.26487,-6.97666 1.41845,-7.13025 0.0539,-0.0539 0.0999,0.39054 0.10211,0.98766 0.002,0.59711 0.13636,2.61894 0.298,4.49295 0.16164,1.87401 0.3022,3.67788 0.31236,4.00859 0.0182,0.5933 0.0207,0.59463 0.18762,0.10021 0.093,-0.27559 0.53338,-1.80887 0.97854,-3.4073 1.01878,-3.65809 2.2336,-7.338913 2.11679,-6.41373 -0.31134,2.46587 -1.15373,7.5597 -1.46669,8.86899 -0.20422,0.85433 -0.34242,1.55333 -0.3071,1.55333 0.0762,0 0.56528,-0.85676 2.38088,-4.17049 0.74337,-1.35676 1.38414,-2.43429 1.42393,-2.3945 0.10747,0.10747 -1.15795,3.43761 -1.99316,5.24532 -0.40062,0.8671 -0.72841,1.61704 -0.72841,1.66654 0,0.0495 0.34545,-0.34653 0.76768,-0.88005 0.42222,-0.53352 1.29303,-1.44968 1.93513,-2.03592 1.09973,-1.00404 3.3398,-2.64206 3.61313,-2.64206 0.0686,0 -0.18608,0.38332 -0.56584,0.85182 -1.10851,1.36754 -3.34495,5.01391 -3.34495,5.45371 0,0.38326 1.0548,-0.0658 2.74898,-1.17042 1.07861,-0.70324 2.50227,-1.58064 3.16368,-1.94978 l 1.20258,-0.67115 -2.0544,1.97435 c -1.12992,1.0859 -2.0544,2.05349 -2.0544,2.15021 0,0.0967 0.29451,0.17585 0.65446,0.17585 0.35995,0 2.07099,0.36038 3.80231,0.80083 1.73131,0.44046 4.34554,1.02909 5.80938,1.30807 3.62725,0.69128 3.5879,0.66907 2.52685,1.42577 -0.4771,0.34025 -1.86905,1.12724 -3.09321,1.74885 l -2.22574,1.13022 h -2.62016 c -4.32323,0 -7.17936,0.4959 -12.06934,2.09558 -4.16539,1.36264 -5.26633,1.55962 -7.31567,1.30891 z"
       id="path30" /><path
       style="fill:#566852;fill-opacity:1"
       d="m 50.263588,71.849509 c -0.57735,-0.77166 -1.38165,-1.76378 -1.78732,-2.20472 -1.28276,-1.39429 -1.77886,-1.9957 -1.46855,-1.7803 0.16536,0.11477 0.79388,0.41545 1.39673,0.66816 0.60284,0.25272 1.67239,0.80961 2.37678,1.23753 0.90959,0.5526 1.23747,0.6762 1.13152,0.42655 -0.83424,-1.96585 -1.31111,-3.80325 -1.42347,-5.4847 l -0.12574,-1.88184 1.02452,2.02707 c 1.11691,2.20985 1.77466,3.03898 1.56883,1.97758 -0.0637,-0.32854 -0.16892,-1.90515 -0.23379,-3.50358 l -0.11795,-2.90622 1.1266,2.60558 c 0.61963,1.43307 1.19936,2.68145 1.28829,2.77419 0.0889,0.0927 0.22433,-0.40333 0.30091,-1.10236 0.15468,-1.41192 1.25583,-6.99847 1.4098,-7.15244 0.0539,-0.0539 0.098,0.43715 0.098,1.09123 0,1.22604 0.57655,8.54025 0.68146,8.64516 0.0324,0.0324 0.52158,-1.58836 1.08708,-3.60166 1.09744,-3.90716 2.0006,-6.65828 2.02418,-6.16592 0.0274,0.57133 -0.98333,6.66324 -1.38857,8.36951 -0.22363,0.9416 -0.36664,1.75197 -0.31779,1.80082 0.0488,0.0489 0.23992,-0.2127 0.42462,-0.58121 0.81564,-1.62739 3.17576,-5.77306 3.24638,-5.70244 0.10147,0.10147 -1.10101,3.18954 -2.03387,5.22316 -0.4021,0.87657 -0.69564,1.55301 -0.65231,1.50322 0.0433,-0.0498 0.64631,-0.7553 1.33998,-1.56779 1.08289,-1.26841 4.40741,-4.02801 4.85849,-4.03291 0.0826,-9e-4 -0.25295,0.51739 -0.74557,1.15175 -0.91352,1.17634 -3.56124,5.68013 -3.42146,5.81991 0.0424,0.0424 0.33215,-0.0987 0.64397,-0.31346 1.72821,-1.19032 6.38624,-4.05425 6.59404,-4.05425 0.0503,0 -0.75894,0.78919 -1.79839,1.75375 -1.7123,1.58893 -4.1285,4.25126 -4.1285,4.54905 0,0.0655 0.37728,-0.0734 0.83841,-0.30865 0.94807,-0.48367 3.27668,-1.38428 3.57917,-1.38428 0.10969,0 -0.65284,0.77121 -1.69451,1.71381 l -1.89393,1.71381 -6.37915,0.0399 -6.37915,0.0399 z"
       id="path31" /></g></svg>
