<?xml version="1.0" encoding="UTF-8" standalone="no"?>
<!-- Created with Inkscape (http://www.inkscape.org/) -->

<svg
   width="100mm"
   height="100mm"
   viewBox="0 0 100 100"
   version="1.1"
   id="svg1"
   inkscape:version="1.4 (86a8ad7, 2024-10-11)"
   sodipodi:docname="decor6.svg"
   xml:space="preserve"
   xmlns:inkscape="http://www.inkscape.org/namespaces/inkscape"
   xmlns:sodipodi="http://sodipodi.sourceforge.net/DTD/sodipodi-0.dtd"
   xmlns="http://www.w3.org/2000/svg"
   xmlns:svg="http://www.w3.org/2000/svg"><sodipodi:namedview
     id="namedview1"
     pagecolor="#ffffff"
     bordercolor="#000000"
     borderopacity="0.25"
     inkscape:showpageshadow="2"
     inkscape:pageopacity="0.0"
     inkscape:pagecheckerboard="true"
     inkscape:deskcolor="#d1d1d1"
     inkscape:document-units="mm"
     inkscape:zoom="1.4464538"
     inkscape:cx="265.13118"
     inkscape:cy="147.60236"
     inkscape:window-width="1920"
     inkscape:window-height="1009"
     inkscape:window-x="1912"
     inkscape:window-y="-8"
     inkscape:window-maximized="1"
     inkscape:current-layer="layer1" /><defs
     id="defs1" /><g
     inkscape:label="Warstwa 1"
     inkscape:groupmode="layer"
     id="layer1"><path
       style="fill:#a6beb0;fill-opacity:1"
       d="m 54.01,40.129861 c -0.91569,-0.196125 -2.10346,-0.545273 -2.6395,-0.775884 -1.1281,-0.485329 -2.33897,-0.756748 -7.41313,-1.661665 -3.48368,-0.621273 -4.44174,-0.945172 -4.44174,-1.501655 0,-0.467063 2.2417,-1.225654 6.26752,-2.120929 l 1.4687,-0.326616 -1.15279,-1.208585 c -0.63404,-0.664722 -1.64752,-1.57992 -2.25219,-2.033772 -0.60466,-0.453852 -1.18753,-0.905858 -1.29525,-1.004458 -0.55508,-0.508037 2.53506,0.831415 3.95923,1.716169 l 0.82531,0.512722 -0.309,-0.74136 c -0.62133,-1.490726 -1.25335,-2.594139 -2.20927,-3.857083 -0.53758,-0.710242 -0.90996,-1.291349 -0.82751,-1.291349 0.49547,0 2.86119,2.32032 3.77613,3.703666 0.5704,0.862415 1.06112,1.543996 1.09049,1.514625 0.2212,-0.221196 -2.00277,-6.469535 -2.90308,-8.156338 l -0.57499,-1.077285 0.98971,1.070039 c 0.86168,0.931624 2.20426,3.318793 3.08855,5.491601 l 0.19929,0.489675 0.10127,-0.489675 c 0.67604,-3.269047 2.14903,-8.044604 2.40298,-7.790657 0.0389,0.03889 -0.0123,0.860174 -0.11381,1.82508 -0.10149,0.964907 -0.18238,3.208709 -0.17976,4.986228 l 0.005,3.231853 0.64062,-1.588615 c 0.64982,-1.611424 1.99642,-3.689837 2.9682,-4.581286 0.51817,-0.475328 0.51234,-0.446789 -0.19912,0.974071 -0.60702,1.212272 -2.0551,4.706107 -2.0551,4.958397 0,0.03913 0.73117,-0.640645 1.62483,-1.510607 0.89365,-0.869961 2.10559,-1.841264 2.69321,-2.15845 l 1.06838,-0.576703 -1.25884,1.458117 c -1.19943,1.389304 -3.3441,4.474467 -3.3441,4.810576 0,0.08716 0.41867,-0.247774 0.93038,-0.744298 0.51171,-0.496524 1.28345,-1.078968 1.71497,-1.29432 0.85133,-0.424864 2.43712,-0.899608 2.56795,-0.768779 0.0446,0.04462 -0.42702,0.396107 -1.04809,0.781074 -0.62107,0.384966 -1.43297,1.015309 -1.80422,1.400762 l -0.675,0.700825 1.94815,-0.0074 1.94815,-0.0074 -0.78348,-0.680233 -0.78347,-0.680234 0.80252,0.276602 c 0.44139,0.152131 1.16505,0.461547 1.60812,0.687588 0.44308,0.226042 0.9905,0.410985 1.21649,0.410985 0.38849,0 0.37412,-0.06524 -0.26381,-1.197227 -0.37108,-0.658474 -0.97114,-1.605995 -1.33347,-2.105601 -0.95411,-1.315618 -0.93336,-1.391677 0.14091,-0.516635 1.23877,1.009033 1.71087,1.527241 2.55758,2.807384 0.37999,0.574506 0.72899,1.006457 0.77555,0.959891 0.15831,-0.158304 -1.53329,-4.935613 -2.30493,-6.509453 l -0.76826,-1.566959 0.79066,0.881415 c 0.43486,0.484778 1.30977,1.910485 1.94424,3.168238 l 1.15358,2.286824 0.12831,-0.967227 c 0.17808,-1.342445 0.97521,-4.020807 1.57404,-5.288788 0.36088,-0.764134 0.47196,-0.895874 0.39814,-0.472201 -0.0563,0.323185 -0.14622,2.306367 -0.19979,4.407071 -0.0766,3.003574 -0.0485,3.714862 0.13144,3.329788 1.20471,-2.577872 1.66976,-3.385172 2.43165,-4.221212 l 0.88337,-0.969339 -0.56919,1.175219 c -0.53824,1.111339 -1.59747,3.879896 -1.59747,4.175411 0,0.0752 0.64363,-0.480935 1.4303,-1.235861 0.78666,-0.754925 1.81279,-1.583582 2.2803,-1.841458 l 0.85002,-0.468868 -1.4937,1.794664 c -1.5169,1.822536 -2.25121,2.962534 -1.90829,2.962534 0.10414,0 0.24485,-0.08982 0.3127,-0.199595 0.27998,-0.453018 3.34034,-1.713607 3.57951,-1.474434 0.043,0.043 -0.18386,0.213694 -0.50415,0.379318 -0.32028,0.165626 -0.87033,0.543478 -1.22234,0.839672 l -0.64001,0.538536 2.52626,0.42441 c 3.9082,0.656574 4.97852,1.039462 4.72832,1.691473 -0.0627,0.163531 -0.80424,0.582054 -1.64775,0.930049 -0.84351,0.347996 -2.18412,0.93869 -2.97912,1.312655 -1.29926,0.611162 -2.15598,0.79732 -8.46994,1.840453 -3.86347,0.638284 -7.39973,1.1517 -7.85836,1.140924 -0.45863,-0.01077 -1.58308,-0.180058 -2.49877,-0.376182 z"
       id="path26" /><path
       style="fill:#566852;fill-opacity:1"
       d="m 62.0038,35.046216 c -0.4645,-0.69752 -1.48287,-1.821323 -2.26303,-2.497341 -0.78017,-0.676017 -1.32162,-1.229123 -1.20323,-1.229123 0.31992,0 2.76419,1.179804 3.16156,1.52602 0.18918,0.164834 0.38504,0.258631 0.43523,0.208438 0.16651,-0.166514 -1.08897,-2.599303 -1.88838,-3.659175 -0.4328,-0.573816 -0.74494,-1.085276 -0.69363,-1.136578 0.19906,-0.199067 2.52982,2.188021 3.20595,3.283438 0.39206,0.635189 0.75171,1.116017 0.79922,1.068507 0.20806,-0.208064 -1.39356,-4.952225 -2.25417,-6.677071 -0.48177,-0.96558 -0.48246,-0.973842 -0.0489,-0.587609 0.60613,0.539947 2.07904,3.088543 2.58911,4.47998 l 0.42164,1.150194 0.35444,-1.737803 c 0.34672,-1.699996 1.3852,-4.973712 1.76286,-5.557265 0.13795,-0.213147 0.15475,-0.159375 0.0612,0.19587 -0.0709,0.269321 -0.16547,2.296574 -0.21009,4.505006 -0.0632,3.125507 -0.0313,3.906818 0.14379,3.525659 0.12371,-0.269322 0.48137,-1.060617 0.79479,-1.758433 0.53159,-1.18354 2.07874,-3.436427 2.24545,-3.269717 0.0409,0.04094 -0.18151,0.594064 -0.49433,1.229169 -0.52694,1.069819 -1.59413,3.848078 -1.59413,4.150062 0,0.07253 0.40446,-0.330492 0.8988,-0.895596 0.49434,-0.565103 1.44186,-1.409326 2.1056,-1.876051 1.70644,-1.199923 1.89065,-1.26727 1.09231,-0.399359 -1.11201,1.208924 -2.04729,2.44152 -2.71019,3.571751 l -0.61329,1.045631 0.83757,-0.676966 c 0.46067,-0.372332 1.04065,-0.782408 1.28886,-0.911281 0.3914,-0.203221 2.14,-0.788705 2.37344,-0.794701 0.0454,-0.0012 -0.32256,0.266216 -0.8177,0.594184 -1.43592,0.951113 -3.0045,2.737609 -3.44193,3.920109 -0.14894,0.40261 -0.28273,0.42394 -2.82531,0.450446 l -2.66897,0.02782 z m -14.43132,-0.52629 c -0.62932,-1.295337 -1.54503,-2.3382 -3.2355,-3.684805 -0.80795,-0.643597 -1.43856,-1.200613 -1.40136,-1.237813 0.12386,-0.12386 2.14788,0.806226 3.21201,1.475995 0.57734,0.363381 1.09309,0.617319 1.1461,0.564307 0.15028,-0.150285 -1.26488,-2.827277 -2.21801,-4.195672 -0.47256,-0.678464 -0.85921,-1.27942 -0.85921,-1.335459 0,-0.05604 0.27512,0.09402 0.61138,0.333453 1.09196,0.777543 2.54749,2.403666 3.26699,3.649873 0.38689,0.670134 0.74253,1.179348 0.79029,1.131588 0.2379,-0.237909 -1.66747,-5.833754 -2.72549,-8.004418 l -0.58541,-1.201041 0.70843,0.78348 c 0.82732,0.914964 1.84996,2.684493 2.75628,4.769343 0.35395,0.814213 0.68206,1.352249 0.72912,1.195635 0.0471,-0.156614 0.1892,-0.899233 0.31584,-1.650264 0.23482,-1.392601 1.35428,-5.015789 1.87778,-6.077543 0.25556,-0.518318 0.27798,-0.529866 0.19016,-0.09793 -0.22607,1.111867 -0.51271,7.437432 -0.38996,8.605516 l 0.13245,1.260398 0.53319,-1.358332 c 0.29325,-0.747083 0.70316,-1.684506 0.91091,-2.083163 0.37783,-0.72503 2.04667,-2.871315 2.24653,-2.889251 0.0583,-0.0052 -0.22505,0.673585 -0.62964,1.508481 -0.71272,1.47075 -1.72884,4.076782 -1.72884,4.433959 0,0.09652 0.57085,-0.403844 1.26855,-1.111917 1.35141,-1.371505 2.07892,-1.957468 3.3344,-2.685627 l 0.78347,-0.454407 -0.70344,0.765926 c -1.60045,1.742593 -3.8995,4.963514 -3.8995,5.463113 0,0.07751 0.48508,-0.302395 1.07794,-0.844242 0.64442,-0.588964 1.51389,-1.148283 2.16192,-1.390743 1.59652,-0.597336 1.88329,-0.4956 0.75148,0.266602 -1.26534,0.852127 -2.83546,2.607427 -3.54205,3.959776 l -0.54722,1.04735 -2.94799,4.65e-4 -2.94798,4.66e-4 z"
       id="path27" /><path
       style="fill:#a6beb0;fill-opacity:1;stroke-width:0.56597"
       d="m 35.031827,48.410204 c 1.02434,-0.125564 1.2603,-0.258158 1.55393,-0.873139 0.43339,-0.907739 0.8474,-1.080745 3.71553,-1.552673 1.44448,-0.237678 2.18625,-0.472025 2.60102,-0.821743 0.45854,-0.386628 0.45022,-0.684241 -0.023,-0.820847 -2.83844,-0.819436 -4.48114,-1.277371 -5.15613,-1.437364 -0.45187,-0.107105 -0.82158,-0.224262 -0.82158,-0.260351 0,-0.03609 0.11382,-0.187022 0.25294,-0.335412 l 0.25296,-0.269801 -0.60596,0.281313 c -0.49985,0.232058 -0.71778,0.270305 -1.24451,0.218421 -0.35121,-0.03462 -0.65185,-0.07343 -0.6681,-0.08629 -0.0162,-0.01286 0.0511,-0.248527 0.14969,-0.523693 0.0986,-0.275172 0.20803,-0.985752 0.24324,-1.579063 l 0.064,-1.078751 -0.59363,1.159688 c -0.32649,0.63783 -0.67443,1.225464 -0.77318,1.305857 -0.15228,0.123954 -0.16874,0.117184 -0.10831,-0.04453 0.0392,-0.104891 0.10276,-0.896923 0.14126,-1.760063 0.0385,-0.86314 0.0961,-1.697092 0.12796,-1.853226 0.11023,-0.539942 -0.15497,-0.06941 -0.75312,1.336195 -0.32603,0.766136 -0.63101,1.416651 -0.67773,1.44559 -0.0467,0.02895 -0.12003,-0.265762 -0.16291,-0.654889 -0.0868,-0.787375 -0.71515,-3.952605 -0.80198,-4.039621 -0.0305,-0.03054 -0.0565,0.221259 -0.0577,0.559556 -10e-4,0.338291 -0.0771,1.483752 -0.16848,2.545467 -0.0914,1.061715 -0.17086,2.083692 -0.17661,2.271054 -0.0103,0.336133 -0.0117,0.336886 -0.10608,0.05677 -0.0526,-0.156135 -0.30157,-1.02481 -0.55326,-1.930395 -0.57601,-2.07248 -1.26287,-4.157839 -1.19682,-3.63368 0.17603,1.397031 0.65231,4.282925 0.82926,5.0247 0.11546,0.484018 0.1936,0.880034 0.17363,0.880034 -0.0431,0 -0.3196,-0.485395 -1.34614,-2.362778 -0.4203,-0.768669 -0.78259,-1.37914 -0.80508,-1.356597 -0.0608,0.06089 0.6547,1.947567 1.12692,2.97172 0.22651,0.491253 0.41184,0.916129 0.41184,0.944173 0,0.02804 -0.19532,-0.196325 -0.43404,-0.498589 -0.23872,-0.302265 -0.73107,-0.821312 -1.09411,-1.153445 -0.62179,-0.568836 -1.88831,-1.496851 -2.04285,-1.496851 -0.0388,0 0.10521,0.217169 0.31993,0.482596 0.62674,0.774776 1.89121,2.840616 1.89121,3.089783 0,0.217135 -0.59637,-0.03728 -1.55426,-0.663098 -0.60983,-0.398418 -1.41477,-0.895507 -1.78872,-1.104642 l -0.67993,-0.380238 1.16154,1.118562 c 0.63885,0.615214 1.16155,1.163399 1.16155,1.218195 0,0.05478 -0.16651,0.09963 -0.37003,0.09963 -0.20351,0 -1.17093,0.204173 -2.14981,0.453708 -0.97887,0.249542 -2.45694,0.583028 -3.28459,0.741083 -2.05082,0.391643 -2.02858,0.37906 -1.42866,0.807766 0.26975,0.192768 1.05675,0.638634 1.74888,0.990806 l 1.25842,0.640322 h 1.48142 c 2.44434,0 4.05918,0.280951 6.82394,1.187245 2.35509,0.771999 2.97756,0.883598 4.13624,0.741559 z"
       id="path30" /><path
       style="fill:#566852;fill-opacity:1;stroke-width:0.56597"
       d="m 35.400747,44.380679 c 0.32643,-0.437182 0.78118,-0.999265 1.01055,-1.249078 0.72526,-0.789931 1.00575,-1.130658 0.8303,-1.008623 -0.0935,0.06502 -0.44885,0.235371 -0.7897,0.378544 -0.34084,0.143177 -0.94556,0.458682 -1.34382,0.701118 -0.51427,0.313074 -0.69966,0.383099 -0.63975,0.241661 0.47167,-1.113746 0.74129,-2.15472 0.80482,-3.10734 l 0.0711,-1.066151 -0.57926,1.148431 c -0.63149,1.251983 -1.00338,1.721724 -0.88701,1.120391 0.036,-0.186133 0.0955,-1.079356 0.13219,-1.984942 l 0.0667,-1.64651 -0.63697,1.476183 c -0.35034,0.811902 -0.67812,1.519168 -0.7284,1.571709 -0.0502,0.05252 -0.12683,-0.228505 -0.17013,-0.624539 -0.0875,-0.799919 -0.71004,-3.964962 -0.79709,-4.052193 -0.0305,-0.03054 -0.0554,0.247666 -0.0554,0.618233 0,0.69461 -0.32598,4.838453 -0.3853,4.897889 -0.0183,0.01836 -0.29489,-0.89988 -0.61462,-2.040509 -0.62049,-2.21359 -1.13113,-3.772228 -1.14447,-3.493283 -0.0155,0.323685 0.55597,3.775038 0.7851,4.74172 0.12643,0.533461 0.20729,0.992573 0.17967,1.020249 -0.0276,0.0277 -0.13565,-0.120504 -0.24007,-0.329283 -0.46117,-0.921992 -1.79556,-3.270709 -1.83549,-3.2307 -0.0574,0.05749 0.6225,1.807025 1.14994,2.959166 0.22734,0.496618 0.39331,0.879853 0.36881,0.851645 -0.0245,-0.02821 -0.36542,-0.427913 -0.75762,-0.888227 -0.61226,-0.718614 -2.49192,-2.282057 -2.74696,-2.284833 -0.0467,-5.1e-4 0.14302,0.293126 0.42154,0.65252 0.5165,0.666452 2.0135,3.218061 1.93448,3.297253 -0.024,0.02402 -0.1878,-0.05592 -0.3641,-0.17759 -0.97712,-0.674372 -3.61075,-2.296923 -3.72824,-2.296923 -0.0284,0 0.42911,0.447113 1.0168,0.993582 0.96813,0.900203 2.33423,2.408538 2.33423,2.57725 0,0.03711 -0.21331,-0.04158 -0.47403,-0.174865 -0.53603,-0.274021 -1.85261,-0.784259 -2.02364,-0.784259 -0.062,0 0.36911,0.436926 0.95806,0.970954 l 1.07082,0.970953 3.60674,0.02261 3.60674,0.0226 z"
       id="path31" /><path
       style="fill:#a6beb0;fill-opacity:1;stroke-width:1.20059"
       d="m 53.294576,75.946469 c -0.854036,-0.178957 -1.035864,-0.342674 -1.537205,-1.384084 -0.493392,-1.024923 -1.305228,-1.55175 -2.777973,-1.802716 -0.650045,-0.110766 -2.029073,-0.343048 -3.064505,-0.516166 -2.37082,-0.396387 -3.834189,-0.91721 -4.376145,-1.557496 -0.509816,-0.602318 -0.520874,-0.70366 -0.09509,-0.870656 1.443883,-0.566258 7.148343,-2.132496 8.30728,-2.280876 0.361568,-0.0463 0.696603,-0.123388 0.744542,-0.171325 0.156521,-0.156522 -1.344475,-1.418364 -3.07453,-2.584666 l -1.694349,-1.142229 1.258345,0.125801 c 1.469792,0.146939 2.494587,0.480389 3.880903,1.262781 0.9597,0.541621 0.991539,0.547089 0.777403,0.133503 -0.601265,-1.161261 -2.735341,-4.597153 -3.628949,-5.842656 -0.553133,-0.770953 -1.076528,-1.516341 -1.163102,-1.656418 -0.227679,-0.368402 1.896552,0.864096 3.11128,1.805186 1.35408,1.049058 2.262922,2.013818 3.091386,3.281601 0.370609,0.56713 0.67384,0.979388 0.67384,0.916132 0,-0.129123 -1.21073,-3.046189 -1.979452,-4.769194 l -0.503057,-1.127569 0.441143,0.372619 c 0.242626,0.204941 0.97359,0.924141 1.624367,1.598223 l 1.183225,1.225601 -0.09485,-0.753044 c -0.05223,-0.414175 -0.233202,-1.753973 -0.40228,-2.977329 -0.169079,-1.223356 -0.272881,-2.258824 -0.230657,-2.30104 0.113215,-0.113204 1.628041,2.229335 2.56116,3.96054 l 0.811788,1.506089 -0.114416,-1.411959 c -0.06291,-0.776576 -0.31178,-2.550801 -0.553074,-3.942719 -0.490222,-2.827896 -0.461589,-2.836955 0.926168,-0.293158 0.917751,1.682281 1.483983,3.02919 1.978564,4.706531 0.183185,0.621262 0.377079,1.002491 0.430854,0.847175 0.05379,-0.155315 0.423422,-1.256643 0.821416,-2.447395 l 0.723641,-2.165004 0.209862,1.60022 c 0.115376,0.880121 0.222348,1.473144 0.23762,1.317828 0.0832,-0.846086 2.736877,-6.009054 2.969178,-5.776759 0.0485,0.04849 -0.08752,1.018886 -0.302175,2.156443 -0.375447,1.989445 -0.765289,5.149566 -0.65217,5.286652 0.03001,0.03637 0.321661,-0.463013 0.648112,-1.109725 0.658053,-1.303585 2.615823,-4.40428 2.712746,-4.296414 0.03398,0.03779 -0.08656,1.08532 -0.267695,2.327844 -0.181192,1.242524 -0.37469,2.61888 -0.430001,3.05857 l -0.100609,0.799434 1.341726,-1.212491 c 0.737963,-0.66687 1.373913,-1.180313 1.413244,-1.140984 0.03938,0.03933 -0.369432,1.099001 -0.908362,2.354826 -0.538943,1.255826 -0.943048,2.320147 -0.898038,2.365158 0.04502,0.04501 0.346405,-0.32048 0.669758,-0.812203 0.768459,-1.168559 2.017884,-2.462257 3.269746,-3.385593 1.118837,-0.825217 2.794625,-1.817784 2.794625,-1.655248 0,0.05773 -0.423782,0.687599 -0.941738,1.399725 -1.04607,1.438218 -3.953059,6.175311 -3.953059,6.441728 0,0.09353 0.317807,-0.04027 0.70622,-0.297309 0.964094,-0.638006 2.734057,-1.223968 4.094452,-1.355505 l 1.129558,-0.109217 -1.69435,1.165261 c -1.58069,1.0871 -3.370042,2.631361 -3.221313,2.780092 0.16897,0.168968 4.444037,1.209489 6.857609,1.66909 2.60186,0.495458 2.683176,0.524972 2.353267,0.854143 -0.187952,0.187524 -1.400687,0.911387 -2.694989,1.608584 l -2.353267,1.26763 -3.576963,0.127509 c -4.236084,0.151005 -6.051152,0.489523 -10.166109,1.896021 -2.537725,0.867401 -3.014705,0.971063 -4.706522,1.022882 -1.035444,0.03172 -2.20461,-0.0098 -2.598162,-0.09228 z"
       id="path34" /><path
       style="fill:#566852;fill-opacity:1;stroke-width:1.20059"
       d="m 52.368301,69.951339 c -0.281405,-0.595376 -0.976412,-1.633167 -1.544445,-2.3062 -0.96647,-1.145108 -1.623539,-1.692672 -3.967057,-3.305918 -1.049143,-0.722212 -0.914473,-0.78632 0.933972,-0.444617 1.1993,0.221701 2.998533,0.952892 3.531388,1.435117 0.185347,0.167744 0.377572,0.264427 0.427144,0.214852 0.18369,-0.183686 -2.484538,-4.5929 -4.250755,-7.024325 l -0.816338,-1.12379 0.934176,0.54165 c 2.555445,1.481701 4.518017,3.261339 5.514527,5.0005 0.326307,0.56949 0.594085,0.931745 0.595046,0.805011 0.0024,-0.280268 -0.848238,-2.432396 -1.76869,-4.476105 l -0.678307,-1.506089 1.600908,1.639165 c 0.880497,0.901541 1.600908,1.531536 1.600908,1.399989 0,-0.232478 -0.418764,-3.496445 -0.667681,-5.204158 l -0.123492,-0.847176 0.900439,1.315821 c 0.495229,0.723701 1.272812,1.994464 1.727966,2.823918 l 0.827551,1.508097 -0.103491,-1.411959 c -0.05691,-0.776576 -0.278776,-2.418069 -0.492984,-3.64776 -0.21422,-1.229691 -0.363525,-2.313677 -0.331794,-2.408858 0.15897,-0.476917 2.608343,4.665527 3.13103,6.573588 l 0.334663,1.221694 0.834683,-2.516617 c 0.683409,-2.060531 0.843183,-2.397202 0.881637,-1.857704 0.02581,0.362404 0.09845,1.124862 0.161323,1.694352 l 0.114416,1.035436 0.414382,-1.129567 c 0.691333,-1.884539 2.486099,-5.311377 2.680138,-5.11734 0.03974,0.03976 -0.04995,0.656764 -0.199346,1.371118 -0.376815,1.801789 -0.923093,5.915447 -0.801666,6.03687 0.05499,0.05504 0.327976,-0.349723 0.606547,-0.899454 1.022587,-2.017972 3.18328,-5.296775 2.815168,-4.271955 -0.114175,0.317984 -0.843675,5.866841 -0.779672,5.930842 0.02677,0.0268 0.594026,-0.454446 1.260494,-1.069437 0.666457,-0.614991 1.27208,-1.121608 1.345808,-1.125818 0.07372,-0.0042 -0.169787,0.69127 -0.541151,1.545504 -0.84861,1.951994 -1.392955,3.392824 -1.312288,3.473488 0.03422,0.03417 0.371533,-0.439157 0.749693,-1.051831 0.856222,-1.387185 3.047001,-3.445344 4.756286,-4.468348 0.713051,-0.426761 1.327847,-0.748359 1.366218,-0.714662 0.03842,0.0337 -0.183726,0.382866 -0.493537,0.775929 -1.242101,1.57587 -4.799458,7.347797 -4.423135,7.176673 0.0772,-0.03511 0.669002,-0.339338 1.315085,-0.676066 1.19577,-0.623215 3.087616,-1.165736 4.082613,-1.170763 0.480762,-0.0024 0.337184,0.139688 -1.12957,1.118004 -2.671014,1.781556 -4.089961,3.309695 -4.961802,5.343631 l -0.376263,0.87777 h -7.584504 -7.584504 z"
       id="path35" /></g></svg>
