<?xml version="1.0" encoding="UTF-8" standalone="no"?>
<!-- Created with Inkscape (http://www.inkscape.org/) -->

<svg
   width="100mm"
   height="100mm"
   viewBox="0 0 100 100"
   version="1.1"
   id="svg1"
   inkscape:version="1.4 (86a8ad7, 2024-10-11)"
   sodipodi:docname="decor5.svg"
   xml:space="preserve"
   xmlns:inkscape="http://www.inkscape.org/namespaces/inkscape"
   xmlns:sodipodi="http://sodipodi.sourceforge.net/DTD/sodipodi-0.dtd"
   xmlns="http://www.w3.org/2000/svg"
   xmlns:svg="http://www.w3.org/2000/svg"><sodipodi:namedview
     id="namedview1"
     pagecolor="#ffffff"
     bordercolor="#000000"
     borderopacity="0.25"
     inkscape:showpageshadow="2"
     inkscape:pageopacity="0.0"
     inkscape:pagecheckerboard="true"
     inkscape:deskcolor="#d1d1d1"
     inkscape:document-units="mm"
     inkscape:zoom="1.0227973"
     inkscape:cx="117.81416"
     inkscape:cy="78.705722"
     inkscape:window-width="1920"
     inkscape:window-height="1009"
     inkscape:window-x="1912"
     inkscape:window-y="-8"
     inkscape:window-maximized="1"
     inkscape:current-layer="layer1" /><defs
     id="defs1" /><g
     inkscape:label="Warstwa 1"
     inkscape:groupmode="layer"
     id="layer1"><path
       style="fill:#a6beb0;fill-opacity:1"
       d="m 26.840899,65.672928 c -0.91569,-0.196125 -2.10346,-0.545273 -2.6395,-0.775884 -1.1281,-0.485329 -2.33897,-0.756748 -7.41313,-1.661665 -3.48368,-0.621273 -4.44174,-0.945172 -4.44174,-1.501655 0,-0.467063 2.2417,-1.225654 6.26752,-2.120929 l 1.4687,-0.326616 -1.15279,-1.208585 c -0.63404,-0.664722 -1.64752,-1.57992 -2.25219,-2.033772 -0.60466,-0.453852 -1.18753,-0.905858 -1.29525,-1.004458 -0.55508,-0.508037 2.53506,0.831415 3.95923,1.716169 l 0.82531,0.512722 -0.309,-0.74136 c -0.62133,-1.490726 -1.25335,-2.594139 -2.20927,-3.857083 -0.53758,-0.710242 -0.90996,-1.291349 -0.82751,-1.291349 0.49547,0 2.86119,2.32032 3.77613,3.703666 0.5704,0.862415 1.06112,1.543996 1.09049,1.514625 0.2212,-0.221196 -2.00277,-6.469535 -2.90308,-8.156338 l -0.57499,-1.077285 0.98971,1.070039 c 0.86168,0.931624 2.20426,3.318793 3.08855,5.491601 l 0.19929,0.489675 0.10127,-0.489675 c 0.67604,-3.269047 2.14903,-8.044604 2.40298,-7.790657 0.0389,0.03889 -0.0123,0.860174 -0.11381,1.82508 -0.10149,0.964907 -0.18238,3.208709 -0.17976,4.986228 l 0.005,3.231853 0.64062,-1.588615 c 0.64982,-1.611424 1.99642,-3.689837 2.9682,-4.581286 0.51817,-0.475328 0.51234,-0.446789 -0.19912,0.974071 -0.60702,1.212272 -2.0551,4.706107 -2.0551,4.958397 0,0.03913 0.73117,-0.640645 1.62483,-1.510607 0.89365,-0.869961 2.10559,-1.841264 2.69321,-2.15845 l 1.06838,-0.576703 -1.25884,1.458117 c -1.19943,1.389304 -3.3441,4.474467 -3.3441,4.810576 0,0.08716 0.41867,-0.247774 0.93038,-0.744298 0.51171,-0.496524 1.28345,-1.078968 1.71497,-1.29432 0.85133,-0.424864 2.43712,-0.899608 2.56795,-0.768779 0.0446,0.04462 -0.42702,0.396107 -1.04809,0.781074 -0.62107,0.384966 -1.43297,1.015309 -1.80422,1.400762 l -0.675,0.700825 1.94815,-0.0074 1.94815,-0.0074 -0.78348,-0.680233 -0.78347,-0.680234 0.80252,0.276602 c 0.44139,0.152131 1.16505,0.461547 1.60812,0.687588 0.44308,0.226042 0.9905,0.410985 1.21649,0.410985 0.38849,0 0.37412,-0.06524 -0.26381,-1.197227 -0.37108,-0.658474 -0.97114,-1.605995 -1.33347,-2.105601 -0.95411,-1.315618 -0.93336,-1.391677 0.14091,-0.516635 1.23877,1.009033 1.71087,1.527241 2.55758,2.807384 0.37999,0.574506 0.72899,1.006457 0.77555,0.959891 0.15831,-0.158304 -1.53329,-4.935613 -2.30493,-6.509453 l -0.76826,-1.566959 0.79066,0.881415 c 0.43486,0.484778 1.30977,1.910485 1.94424,3.168238 l 1.15358,2.286824 0.12831,-0.967227 c 0.17808,-1.342445 0.97521,-4.020807 1.57404,-5.288788 0.36088,-0.764134 0.47196,-0.895874 0.39814,-0.472201 -0.0563,0.323185 -0.14622,2.306367 -0.19979,4.407071 -0.0766,3.003574 -0.0485,3.714862 0.13144,3.329788 1.20471,-2.577872 1.66976,-3.385172 2.43165,-4.221212 l 0.88337,-0.969339 -0.56919,1.175219 c -0.53824,1.111339 -1.59747,3.879896 -1.59747,4.175411 0,0.0752 0.64363,-0.480935 1.4303,-1.235861 0.78666,-0.754925 1.81279,-1.583582 2.2803,-1.841458 l 0.85002,-0.468868 -1.4937,1.794664 c -1.5169,1.822536 -2.25121,2.962534 -1.90829,2.962534 0.10414,0 0.24485,-0.08982 0.3127,-0.199595 0.27998,-0.453018 3.34034,-1.713607 3.57951,-1.474434 0.043,0.043 -0.18386,0.213694 -0.50415,0.379318 -0.32028,0.165626 -0.87033,0.543478 -1.22234,0.839672 l -0.64001,0.538536 2.52626,0.42441 c 3.9082,0.656574 4.97852,1.039462 4.72832,1.691473 -0.0627,0.163531 -0.80424,0.582054 -1.64775,0.930049 -0.84351,0.347996 -2.18412,0.93869 -2.97912,1.312655 -1.29926,0.611162 -2.15598,0.79732 -8.46994,1.840453 -3.86347,0.638284 -7.39973,1.1517 -7.85836,1.140924 -0.45863,-0.01077 -1.58308,-0.180058 -2.49877,-0.376182 z"
       id="path26" /><path
       style="fill:#566852;fill-opacity:1"
       d="m 34.834699,60.589283 c -0.4645,-0.69752 -1.48287,-1.821323 -2.26303,-2.497341 -0.78017,-0.676017 -1.32162,-1.229123 -1.20323,-1.229123 0.31992,0 2.76419,1.179804 3.16156,1.52602 0.18918,0.164834 0.38504,0.258631 0.43523,0.208438 0.16651,-0.166514 -1.08897,-2.599303 -1.88838,-3.659175 -0.4328,-0.573816 -0.74494,-1.085276 -0.69363,-1.136578 0.19906,-0.199067 2.52982,2.188021 3.20595,3.283438 0.39206,0.635189 0.75171,1.116017 0.79922,1.068507 0.20806,-0.208064 -1.39356,-4.952225 -2.25417,-6.677071 -0.48177,-0.96558 -0.48246,-0.973842 -0.0489,-0.587609 0.60613,0.539947 2.07904,3.088543 2.58911,4.47998 l 0.42164,1.150194 0.35444,-1.737803 c 0.34672,-1.699996 1.3852,-4.973712 1.76286,-5.557265 0.13795,-0.213147 0.15475,-0.159375 0.0612,0.19587 -0.0709,0.269321 -0.16547,2.296574 -0.21009,4.505006 -0.0632,3.125507 -0.0313,3.906818 0.14379,3.525659 0.12371,-0.269322 0.48137,-1.060617 0.79479,-1.758433 0.53159,-1.18354 2.07874,-3.436427 2.24545,-3.269717 0.0409,0.04094 -0.18151,0.594064 -0.49433,1.229169 -0.52694,1.069819 -1.59413,3.848078 -1.59413,4.150062 0,0.07253 0.40446,-0.330492 0.8988,-0.895596 0.49434,-0.565103 1.44186,-1.409326 2.1056,-1.876051 1.70644,-1.199923 1.89065,-1.26727 1.09231,-0.399359 -1.11201,1.208924 -2.04729,2.44152 -2.71019,3.571751 l -0.61329,1.045631 0.83757,-0.676966 c 0.46067,-0.372332 1.04065,-0.782408 1.28886,-0.911281 0.3914,-0.203221 2.14,-0.788705 2.37344,-0.794701 0.0454,-0.0012 -0.32256,0.266216 -0.8177,0.594184 -1.43592,0.951113 -3.0045,2.737609 -3.44193,3.920109 -0.14894,0.40261 -0.28273,0.42394 -2.82531,0.450446 l -2.66897,0.02782 z m -14.43132,-0.52629 c -0.62932,-1.295337 -1.54503,-2.3382 -3.2355,-3.684805 -0.80795,-0.643597 -1.43856,-1.200613 -1.40136,-1.237813 0.12386,-0.12386 2.14788,0.806226 3.21201,1.475995 0.57734,0.363381 1.09309,0.617319 1.1461,0.564307 0.15028,-0.150285 -1.26488,-2.827277 -2.21801,-4.195672 -0.47256,-0.678464 -0.85921,-1.27942 -0.85921,-1.335459 0,-0.05604 0.27512,0.09402 0.61138,0.333453 1.09196,0.777543 2.54749,2.403666 3.26699,3.649873 0.38689,0.670134 0.74253,1.179348 0.79029,1.131588 0.2379,-0.237909 -1.66747,-5.833754 -2.72549,-8.004418 l -0.58541,-1.201041 0.70843,0.78348 c 0.82732,0.914964 1.84996,2.684493 2.75628,4.769343 0.35395,0.814213 0.68206,1.352249 0.72912,1.195635 0.0471,-0.156614 0.1892,-0.899233 0.31584,-1.650264 0.23482,-1.392601 1.35428,-5.015789 1.87778,-6.077543 0.25556,-0.518318 0.27798,-0.529866 0.19016,-0.09793 -0.22607,1.111867 -0.51271,7.437432 -0.38996,8.605516 l 0.13245,1.260398 0.53319,-1.358332 c 0.29325,-0.747083 0.70316,-1.684506 0.91091,-2.083163 0.37783,-0.72503 2.04667,-2.871315 2.24653,-2.889251 0.0583,-0.0052 -0.22505,0.673585 -0.62964,1.508481 -0.71272,1.47075 -1.72884,4.076782 -1.72884,4.433959 0,0.09652 0.57085,-0.403844 1.26855,-1.111917 1.35141,-1.371505 2.07892,-1.957468 3.3344,-2.685627 l 0.78347,-0.454407 -0.70344,0.765926 c -1.60045,1.742593 -3.8995,4.963514 -3.8995,5.463113 0,0.07751 0.48508,-0.302395 1.07794,-0.844242 0.64442,-0.588964 1.51389,-1.148283 2.16192,-1.390743 1.59652,-0.597336 1.88329,-0.4956 0.75148,0.266602 -1.26534,0.852127 -2.83546,2.607427 -3.54205,3.959776 l -0.54722,1.04735 -2.94799,4.65e-4 -2.94798,4.66e-4 z"
       id="path27" /><path
       style="fill:#a6beb0;fill-opacity:1;stroke-width:0.708256"
       d="m 132.25216,67.108862 c -0.15905,-0.03638 -1.00492,-0.28244 -1.8797,-0.546817 -2.61449,-0.790149 -4.67003,-1.336658 -6.50666,-1.729929 -2.25259,-0.48234 -2.82185,-0.640303 -3.21718,-0.892728 -0.81514,-0.520487 -0.0602,-1.228369 1.98815,-1.864113 0.67596,-0.209804 1.91223,-0.613286 2.74725,-0.896628 0.83502,-0.283341 1.87609,-0.591631 2.31348,-0.68509 l 0.79526,-0.169923 -1.0483,-0.768492 c -0.57656,-0.42267 -1.0483,-0.787065 -1.0483,-0.809766 0,-0.0227 0.37414,0.07272 0.83141,0.212057 0.88998,0.271178 2.16628,0.878212 2.82788,1.344991 0.22328,0.157528 0.44138,0.250982 0.48469,0.207676 0.13849,-0.13849 -1.27058,-2.654047 -2.08657,-3.725062 -0.75785,-0.994714 -0.76992,-1.024228 -0.31245,-0.763955 1.12963,0.642678 2.52374,2.165506 3.70414,4.046138 0.27959,0.445454 -0.48154,-2.279517 -1.04283,-3.733461 -0.2852,-0.738801 -0.8391,-1.961407 -1.23088,-2.716902 l -0.71234,-1.373627 0.58529,0.650665 c 1.30373,1.449349 2.20859,2.956844 3.12035,5.198497 0.1248,0.306837 0.16924,0.199617 0.32962,-0.795258 0.10196,-0.632451 0.37123,-1.718859 0.59839,-2.414241 0.46392,-1.420104 1.29578,-3.477004 1.3744,-3.398387 0.0283,0.02833 -0.0451,1.0565 -0.16318,2.284818 -0.21932,2.281603 -0.27188,6.199157 -0.0801,5.973333 0.0585,-0.06887 0.28531,-0.593917 0.50407,-1.166774 0.21876,-0.572856 0.64403,-1.418722 0.94506,-1.879701 0.60401,-0.924962 1.7451,-2.26075 1.84548,-2.160371 0.0352,0.03518 -0.13094,0.412139 -0.36916,0.837688 -0.38626,0.689996 -1.40386,3.117744 -1.67655,3.999822 -0.0683,0.22084 0.31196,-0.07352 1.12064,-0.867555 1.00016,-0.98204 3.01035,-2.430839 3.37276,-2.430839 0.047,0 -0.41153,0.528261 -1.01892,1.173914 -1.0045,1.067787 -1.96214,2.290798 -1.96214,2.50585 0,0.110894 0.59844,-0.03239 1.59051,-0.3808 0.71082,-0.24964 2.16889,-0.566651 2.16889,-0.471558 0,0.02033 -0.30844,0.21772 -0.68542,0.438647 l -0.68542,0.401683 0.86616,0.179418 c 0.47639,0.09868 1.74169,0.319798 2.81179,0.491375 3.3294,0.533827 4.84071,1.170273 4.55388,1.917742 -0.0473,0.123276 -0.74814,0.571645 -1.55739,0.996372 -0.80926,0.424728 -1.8453,1.021402 -2.30234,1.325942 -0.76551,0.510105 -1.07866,0.604144 -3.97654,1.194173 -1.73008,0.352257 -3.89387,0.80132 -4.80842,0.997921 -1.57435,0.33844 -2.45416,0.412944 -3.10873,0.263255 z"
       id="path29" /><path
       style="fill:#566852;fill-opacity:1;stroke-width:0.708256"
       d="m 130.70307,62.766599 c -0.44392,-0.808897 -2.29008,-2.637498 -3.45458,-3.42171 -0.42689,-0.287488 -0.70589,-0.522706 -0.61999,-0.522706 0.54852,0 2.57204,0.911336 3.78981,1.70682 0.33185,0.216777 0.3312,0.210744 -0.0685,-0.635538 -0.49411,-1.046269 -1.82192,-3.162102 -2.34191,-3.731761 l -0.38274,-0.419297 0.48669,0.274705 c 0.90069,0.508383 2.46033,2.087605 3.14226,3.181703 0.37041,0.594299 0.69987,1.054145 0.73213,1.021879 0.2184,-0.218399 -1.19639,-4.211795 -2.20832,-6.233227 -0.58412,-1.166833 -0.61317,-1.268579 -0.27049,-0.947363 0.92922,0.871025 2.46998,3.460215 2.96753,4.986821 l 0.1885,0.578369 0.32079,-1.590516 c 0.32822,-1.627323 0.91418,-3.429526 1.57491,-4.843843 0.26483,-0.56687 0.3503,-0.670684 0.29763,-0.361482 -0.31262,1.834989 -0.51055,8.396411 -0.24405,8.089943 0.0657,-0.07555 0.21128,-0.42913 0.32351,-0.785736 0.31977,-1.016083 1.15841,-2.533606 1.87052,-3.384728 1.0302,-1.231299 1.13357,-1.161521 0.41931,0.283048 -0.36583,0.739871 -0.86109,1.905538 -1.10058,2.590371 l -0.43545,1.24515 1.24518,-1.216694 c 1.13103,-1.105171 2.88525,-2.411286 3.23854,-2.411286 0.0776,0 -0.221,0.374132 -0.66362,0.831405 -1.09783,1.134195 -1.8447,2.11424 -2.39298,3.140071 l -0.46111,0.862739 0.50866,-0.493018 c 0.37747,-0.365859 0.46217,-0.52663 0.32839,-0.623342 -0.12138,-0.08776 -0.0916,-0.101441 0.0911,-0.04189 0.14925,0.04864 0.34461,0.02764 0.43414,-0.04666 0.30959,-0.256943 1.62776,-0.711814 2.33944,-0.807296 l 0.71446,-0.09585 -0.63339,0.37437 c -0.71158,0.420584 -1.94422,1.407372 -2.44541,1.957665 -0.18236,0.200216 -0.5612,0.738162 -0.84188,1.195435 l -0.51032,0.831406 h -1.05128 c -0.5782,0 -1.82602,0.03982 -2.77293,0.08849 l -1.72167,0.08849 z"
       id="path28" /><path
       style="fill:#a6beb0;fill-opacity:1;stroke-width:0.56597"
       d="m 123.1236,46.925317 c 1.02434,-0.125564 1.2603,-0.258158 1.55393,-0.873139 0.43339,-0.907739 0.8474,-1.080745 3.71553,-1.552673 1.44448,-0.237678 2.18625,-0.472025 2.60102,-0.821743 0.45854,-0.386628 0.45022,-0.684241 -0.023,-0.820847 -2.83844,-0.819436 -4.48114,-1.277371 -5.15613,-1.437364 -0.45187,-0.107105 -0.82158,-0.224262 -0.82158,-0.260351 0,-0.03609 0.11382,-0.187022 0.25294,-0.335412 l 0.25296,-0.269801 -0.60596,0.281313 c -0.49985,0.232058 -0.71778,0.270305 -1.24451,0.218421 -0.35121,-0.03462 -0.65185,-0.07343 -0.6681,-0.08629 -0.0162,-0.01286 0.0511,-0.248527 0.14969,-0.523693 0.0986,-0.275172 0.20803,-0.985752 0.24324,-1.579063 l 0.064,-1.078751 -0.59363,1.159688 c -0.32649,0.63783 -0.67443,1.225464 -0.77318,1.305857 -0.15228,0.123954 -0.16874,0.117184 -0.10831,-0.04453 0.0392,-0.104891 0.10276,-0.896923 0.14126,-1.760063 0.0385,-0.86314 0.0961,-1.697092 0.12796,-1.853226 0.11023,-0.539942 -0.15497,-0.06941 -0.75312,1.336195 -0.32603,0.766136 -0.63101,1.416651 -0.67773,1.44559 -0.0467,0.02895 -0.12003,-0.265762 -0.16291,-0.654889 -0.0868,-0.787375 -0.71515,-3.952605 -0.80198,-4.039621 -0.0305,-0.03054 -0.0565,0.221259 -0.0577,0.559556 -0.001,0.338291 -0.0771,1.483752 -0.16848,2.545467 -0.0914,1.061715 -0.17086,2.083692 -0.17661,2.271054 -0.0103,0.336133 -0.0117,0.336886 -0.10608,0.05677 -0.0526,-0.156135 -0.30157,-1.02481 -0.55326,-1.930395 -0.57601,-2.07248 -1.26287,-4.157839 -1.19682,-3.63368 0.17603,1.397031 0.65231,4.282925 0.82926,5.0247 0.11546,0.484018 0.1936,0.880034 0.17363,0.880034 -0.0431,0 -0.3196,-0.485395 -1.34614,-2.362778 -0.4203,-0.768669 -0.78259,-1.37914 -0.80508,-1.356597 -0.0608,0.06089 0.6547,1.947567 1.12692,2.97172 0.22651,0.491253 0.41184,0.916129 0.41184,0.944173 0,0.02804 -0.19532,-0.196325 -0.43404,-0.498589 -0.23872,-0.302265 -0.73107,-0.821312 -1.09411,-1.153445 -0.62179,-0.568836 -1.88831,-1.496851 -2.04285,-1.496851 -0.0388,0 0.10521,0.217169 0.31993,0.482596 0.62674,0.774776 1.89121,2.840616 1.89121,3.089783 0,0.217135 -0.59637,-0.03728 -1.55426,-0.663098 -0.60983,-0.398418 -1.41477,-0.895507 -1.78872,-1.104642 l -0.67993,-0.380238 1.16154,1.118562 c 0.63885,0.615214 1.16155,1.163399 1.16155,1.218195 0,0.05478 -0.16651,0.09963 -0.37003,0.09963 -0.20351,0 -1.17093,0.204173 -2.14981,0.453708 -0.97887,0.249542 -2.45694,0.583028 -3.28459,0.741083 -2.05082,0.391643 -2.02858,0.37906 -1.42866,0.807766 0.26975,0.192768 1.05675,0.638634 1.74888,0.990806 l 1.25842,0.640322 h 1.48142 c 2.44434,0 4.05918,0.280951 6.82394,1.187245 2.35509,0.771999 2.97756,0.883598 4.13624,0.741559 z"
       id="path30" /><path
       style="fill:#566852;fill-opacity:1;stroke-width:0.56597"
       d="m 123.49252,42.895792 c 0.32643,-0.437182 0.78118,-0.999265 1.01055,-1.249078 0.72526,-0.789931 1.00575,-1.130658 0.8303,-1.008623 -0.0935,0.06502 -0.44885,0.235371 -0.7897,0.378544 -0.34084,0.143177 -0.94556,0.458682 -1.34382,0.701118 -0.51427,0.313074 -0.69966,0.383099 -0.63975,0.241661 0.47167,-1.113746 0.74129,-2.15472 0.80482,-3.10734 l 0.0711,-1.066151 -0.57926,1.148431 c -0.63149,1.251983 -1.00338,1.721724 -0.88701,1.120391 0.036,-0.186133 0.0955,-1.079356 0.13219,-1.984942 l 0.0667,-1.64651 -0.63697,1.476183 c -0.35034,0.811902 -0.67812,1.519168 -0.7284,1.571709 -0.0502,0.05252 -0.12683,-0.228505 -0.17013,-0.624539 -0.0875,-0.799919 -0.71004,-3.964962 -0.79709,-4.052193 -0.0305,-0.03054 -0.0554,0.247666 -0.0554,0.618233 0,0.69461 -0.32598,4.838453 -0.3853,4.897889 -0.0183,0.01836 -0.29489,-0.89988 -0.61462,-2.040509 -0.62049,-2.21359 -1.13113,-3.772228 -1.14447,-3.493283 -0.0155,0.323685 0.55597,3.775038 0.7851,4.74172 0.12643,0.533461 0.20729,0.992573 0.17967,1.020249 -0.0276,0.0277 -0.13565,-0.120504 -0.24007,-0.329283 -0.46117,-0.921992 -1.79556,-3.270709 -1.83549,-3.2307 -0.0574,0.05749 0.6225,1.807025 1.14994,2.959166 0.22734,0.496618 0.39331,0.879853 0.36881,0.851645 -0.0245,-0.02821 -0.36542,-0.427913 -0.75762,-0.888227 -0.61226,-0.718614 -2.49192,-2.282057 -2.74696,-2.284833 -0.0467,-5.1e-4 0.14302,0.293126 0.42154,0.65252 0.5165,0.666452 2.0135,3.218061 1.93448,3.297253 -0.024,0.02402 -0.1878,-0.05592 -0.3641,-0.17759 -0.97712,-0.674372 -3.61075,-2.296923 -3.72824,-2.296923 -0.0284,0 0.42911,0.447113 1.0168,0.993582 0.96813,0.900203 2.33423,2.408538 2.33423,2.57725 0,0.03711 -0.21331,-0.04158 -0.47403,-0.174865 -0.53603,-0.274021 -1.85261,-0.784259 -2.02364,-0.784259 -0.062,0 0.36911,0.436926 0.95806,0.970954 l 1.07082,0.970953 3.60674,0.02261 3.60674,0.0226 z"
       id="path31" /><path
       style="fill:#a6beb0;fill-opacity:1;stroke-width:0.918772"
       d="m 60.121789,44.162412 c -0.524691,-0.09443 -2.575722,-0.664167 -4.557865,-1.26608 -1.982142,-0.601912 -5.368732,-1.519797 -7.525772,-2.039744 -7.359566,-1.774002 -7.168692,-1.698922 -6.912658,-2.719044 0.162098,-0.645853 1.997568,-1.578456 4.580732,-2.327477 3.354148,-0.972576 4.137353,-1.305504 4.09655,-1.741367 -0.03253,-0.347512 -0.0055,-0.356873 0.211988,-0.07296 0.474195,0.619474 0.990065,0.253827 1.004857,-0.712239 l 0.0136,-0.885429 0.342893,0.688979 c 0.592579,1.190683 1.183631,0.857713 1.609389,-0.90665 l 0.305564,-1.266283 0.02673,0.953971 c 0.0328,1.172221 0.22428,1.501778 0.786888,1.354653 0.305243,-0.07982 0.565374,-0.500787 0.879317,-1.422986 0.430985,-1.266007 0.441643,-1.277852 0.319925,-0.355654 -0.191886,1.453779 -0.183883,1.593801 0.08802,1.541301 0.138569,-0.02675 0.806349,-0.09943 1.483949,-0.161506 2.472251,-0.22647 3.045571,-0.341529 2.897292,-0.581452 -0.0993,-0.160659 -0.01718,-0.178934 0.260884,-0.05808 0.223169,0.09698 0.776066,0.21981 1.22866,0.272949 0.6102,0.07165 0.781661,0.0299 0.663369,-0.161496 -0.158193,-0.255971 -0.512893,-2.759655 -0.390963,-2.759655 0.03491,0 0.305224,0.476985 0.600645,1.059968 0.295421,0.582982 0.585448,1.059967 0.644516,1.059967 0.05908,0 0.05329,-0.787025 -0.01286,-1.748946 l -0.120212,-1.748947 0.675809,1.377958 0.675801,1.377958 0.38489,-1.987748 c 0.211693,-1.093262 0.424728,-2.027583 0.473414,-2.076269 0.04869,-0.04868 0.160325,1.036595 0.248086,2.411736 0.17508,2.743545 0.182458,2.741073 1.078496,-0.361657 0.319879,-1.107667 0.647457,-2.091164 0.727959,-2.185551 0.08049,-0.09439 -0.03014,0.859586 -0.245871,2.119936 -0.215718,1.260351 -0.36782,2.367415 -0.338006,2.460144 0.02986,0.09273 0.417231,-0.503502 0.860923,-1.324959 0.443692,-0.821457 0.846865,-1.493557 0.895946,-1.493557 0.09711,0 -0.861933,2.622131 -1.109449,3.033369 -0.08361,0.138891 0.400904,-0.250133 1.076686,-0.8645 1.877531,-1.706914 2.096235,-1.689804 0.922802,0.0722 -0.583648,0.876397 -1.002515,1.652114 -0.930804,1.723821 0.07166,0.0717 0.870441,-0.320566 1.774968,-0.871717 l 1.644587,-1.00209 -0.794974,0.818344 c -0.437232,0.450089 -0.794974,0.88587 -0.794974,0.968401 0,0.08253 0.810878,0.150057 1.801945,0.150057 1.723105,0 1.802569,-0.02086 1.816295,-0.476986 l 0.01433,-0.476985 0.22258,0.460262 c 0.219999,0.454935 1.157346,0.848867 1.416686,0.595383 0.07369,-0.07202 0.236317,-0.625202 0.361398,-1.229281 l 0.227404,-1.098325 0.165774,1.336796 c 0.148436,1.197074 0.212493,1.33002 0.612819,1.271962 0.34712,-0.05034 0.557086,-0.39653 0.939339,-1.54879 0.441726,-1.331526 0.480048,-1.385965 0.373048,-0.529984 -0.0656,0.524683 -0.174997,1.264012 -0.243143,1.64295 -0.107211,0.596141 -0.0645,0.688978 0.316902,0.688978 0.259147,0 0.577501,-0.240252 0.772491,-0.582981 l 0.331676,-0.582983 -0.125798,0.670954 c -0.162751,0.868026 0.346054,1.020973 1.383923,0.416012 0.617541,-0.359956 0.692467,-0.370963 0.446778,-0.06563 -0.162364,0.201775 -0.25776,0.398676 -0.211996,0.437557 0.04575,0.03888 0.97462,0.287965 2.064124,0.553521 3.443113,0.839223 4.883439,1.872332 4.035223,2.894367 -0.148611,0.179074 -1.291844,0.837955 -2.540497,1.464179 -1.248652,0.626226 -2.836578,1.504604 -3.528714,1.951952 -1.049684,0.678446 -1.624365,0.876125 -3.464585,1.191742 -1.213391,0.208109 -4.781887,0.887968 -7.929993,1.510796 -6.321827,1.250723 -7.602884,1.416068 -9.009721,1.162867 z"
       id="path33" /><path
       style="fill:#566852;fill-opacity:1;stroke-width:0.918772"
       d="m 49.927279,38.598888 c -0.259424,-0.378939 -0.809959,-1.046718 -1.223423,-1.483955 -0.933901,-0.987606 -0.675865,-1.007597 0.883727,-0.06847 0.663562,0.39958 1.20649,0.696189 1.20649,0.659131 0,-0.03706 -0.188706,-0.483236 -0.419335,-0.991504 -0.23063,-0.508267 -0.420273,-1.35341 -0.42143,-1.878094 l -0.0018,-0.95397 0.545188,0.95397 c 0.299848,0.524684 0.580744,0.989577 0.62422,1.033097 0.04346,0.04352 0.04153,-0.719658 -0.0046,-1.695949 l -0.08324,-1.775074 0.701755,1.37108 0.701756,1.371081 0.111336,-0.841096 c 0.06119,-0.462603 0.25348,-1.365781 0.427209,-2.007062 0.269136,-0.993411 0.319346,-1.065283 0.33932,-0.485644 0.01287,0.374175 0.134719,1.423543 0.270725,2.331929 L 53.832463,35.789967 54.08348,34.73 c 0.138063,-0.582983 0.455535,-1.632351 0.705495,-2.33193 l 0.454468,-1.27196 -0.124961,1.483954 c -0.06872,0.816176 -0.210756,1.817845 -0.315606,2.225932 -0.330472,1.286115 -0.209719,1.210328 0.591089,-0.370988 0.428092,-0.845325 0.854694,-1.536953 0.947995,-1.536953 0.162181,0 -0.432437,1.690362 -0.924409,2.627876 -0.128738,0.245316 0.28332,-0.04003 0.915681,-0.634111 0.632351,-0.594077 1.371023,-1.198571 1.64149,-1.343317 0.419207,-0.224354 0.368169,-0.08065 -0.345953,0.974143 -0.460735,0.680526 -0.995835,1.54504 -1.189107,1.921141 l -0.351402,0.683819 1.327732,-0.920018 c 2.20781,-1.529843 2.511445,-1.581657 1.213767,-0.207127 -0.645665,0.683904 -1.35591,1.462343 -1.578325,1.729865 l -0.404406,0.486405 1.14541,-0.530676 c 0.629973,-0.291871 1.178753,-0.497326 1.219519,-0.456566 0.04079,0.04076 -0.384505,0.511607 -0.945036,1.046326 l -1.019135,0.972217 -3.324463,0.0049 -3.324464,0.0049 z M 72.599604,38.172253 C 72.489636,37.966754 71.97327,37.275125 71.452127,36.6353 c -0.521145,-0.639824 -0.90791,-1.163316 -0.859463,-1.163316 0.04842,0 0.658335,0.322332 1.355322,0.716294 l 1.267257,0.716295 -0.39892,-1.134985 c -0.219402,-0.624243 -0.395934,-1.542807 -0.392287,-2.041255 l 0.0064,-0.906269 0.498561,1.017514 c 0.274216,0.559633 0.569664,1.084317 0.656552,1.165964 0.08692,0.08165 0.101129,-0.662423 0.0317,-1.653494 l -0.126331,-1.801945 0.667826,1.367824 c 0.392305,0.803496 0.710465,1.240812 0.771168,1.059969 0.05687,-0.169322 0.262373,-1.023335 0.456738,-1.89781 l 0.353396,-1.589951 0.155042,1.589951 c 0.158139,1.621786 0.489088,3.340541 0.52831,2.743819 0.01195,-0.18155 0.358145,-1.326315 0.769349,-2.543923 0.411205,-1.217609 0.703428,-1.975341 0.649377,-1.68385 -0.05402,0.291491 -0.207137,1.338166 -0.340201,2.325942 -0.133066,0.987778 -0.287823,1.870201 -0.343896,1.960941 -0.05604,0.09074 -0.05026,0.164982 0.01296,0.164982 0.06321,0 0.347422,-0.453137 0.631579,-1.00697 0.925191,-1.803258 1.240191,-1.996874 0.683077,-0.41986 l -0.506976,1.435084 0.898574,-0.828272 c 0.494214,-0.45555 1.097708,-0.934849 1.341099,-1.065107 0.413096,-0.221083 0.425344,-0.205045 0.184148,0.241163 -0.142115,0.262898 -0.503236,0.859585 -0.802516,1.325971 -1.149168,1.79085 -1.111609,1.823431 0.693302,0.601411 2.286568,-1.548125 2.672827,-1.645951 1.193123,-0.302179 -0.666879,0.605615 -1.406158,1.37309 -1.64286,1.705501 l -0.43036,0.604382 1.059882,-0.402721 c 0.582931,-0.221496 1.050888,-0.331562 1.039908,-0.24459 -0.01103,0.08697 -0.416422,0.505665 -0.900972,0.93043 l -0.880984,0.772299 -3.465825,0.07568 c -3.139121,0.06854 -3.484669,0.04045 -3.665759,-0.297961 z m -10.781869,-3.328 c 0,-0.11206 -0.430388,-0.73214 -0.956411,-1.377959 -0.526022,-0.645818 -0.85518,-1.174213 -0.73145,-1.174213 0.302339,0 1.49819,0.613918 1.927705,0.989635 0.303469,0.26546 0.296974,0.154399 -0.05302,-0.906445 -0.219347,-0.664934 -0.398828,-1.542262 -0.398828,-1.949617 V 29.68501 l 0.550425,1.038543 c 0.302734,0.571199 0.602161,1.086242 0.665409,1.144541 0.06321,0.0583 0.0554,-0.752577 -0.01736,-1.801946 l -0.132358,-1.907941 0.595491,1.322875 c 0.327522,0.727582 0.646555,1.373933 0.708958,1.436336 0.06239,0.0624 0.232255,-0.62294 0.377449,-1.522985 0.381087,-2.362342 0.609244,-2.79534 0.651416,-1.236226 0.01893,0.699579 0.100072,1.796645 0.180336,2.437925 l 0.145928,1.165965 0.586661,-1.907943 c 1.113878,-3.622512 1.213225,-3.658858 0.579477,-0.211993 -0.214376,1.165965 -0.362252,2.150798 -0.328625,2.188517 0.03363,0.03772 0.417157,-0.608886 0.852267,-1.436903 0.435111,-0.828017 0.831202,-1.465398 0.880199,-1.416399 0.04897,0.049 -0.202717,0.732648 -0.559364,1.519224 -0.356657,0.786575 -0.648458,1.446192 -0.648458,1.465811 0,0.01963 0.512406,-0.460633 1.138694,-1.067234 0.626279,-0.6066 1.359199,-1.220921 1.628701,-1.365157 0.421642,-0.225657 0.384909,-0.117807 -0.263282,0.77292 -0.708802,0.974014 -1.444148,2.25066 -1.444148,2.507206 0,0.06333 0.643928,-0.295362 1.430954,-0.797081 2.083869,-1.328438 2.141164,-1.347793 1.305791,-0.441111 -2.074414,2.251494 -2.2103,2.486855 -1.113492,1.928579 1.534619,-0.781122 1.68063,-0.648675 0.504744,0.457855 l -1.157915,1.089609 h -3.452952 c -2.067432,0 -3.452944,-0.08175 -3.452944,-0.203744 z"
       id="path32" /><path
       style="fill:#a6beb0;fill-opacity:1"
       d="m 128.93086,92.870176 c -0.71135,-0.149058 -0.8628,-0.285422 -1.28038,-1.152841 -0.41096,-0.853686 -1.08716,-1.292495 -2.31385,-1.501531 -0.54144,-0.09226 -1.69007,-0.285734 -2.55251,-0.429929 -1.97472,-0.330162 -3.1936,-0.763969 -3.64501,-1.297281 -0.42464,-0.501687 -0.43385,-0.586098 -0.0792,-0.725193 1.20265,-0.471652 5.95405,-1.776214 6.91936,-1.899804 0.30116,-0.03856 0.58022,-0.102773 0.62015,-0.142701 0.13037,-0.130372 -1.11985,-1.181394 -2.56086,-2.152839 l -1.41127,-0.951394 1.04811,0.104783 c 1.22423,0.12239 2.07781,0.400129 3.23251,1.051805 0.79936,0.451131 0.82588,0.455685 0.64752,0.111198 -0.50081,-0.967246 -2.27834,-3.829094 -3.02265,-4.866507 -0.46072,-0.642148 -0.89667,-1.263002 -0.96878,-1.379676 -0.18964,-0.306852 1.57969,0.719729 2.59147,1.503589 1.12785,0.873789 1.88485,1.677364 2.5749,2.733335 0.30869,0.472378 0.56126,0.815759 0.56126,0.763071 0,-0.10755 -1.00845,-2.537254 -1.64874,-3.972392 l -0.41901,-0.939183 0.36744,0.310365 c 0.20209,0.170701 0.81093,0.769742 1.35298,1.331203 l 0.98554,1.020837 -0.079,-0.627231 c -0.0435,-0.344978 -0.19424,-1.460932 -0.33507,-2.479899 -0.14083,-1.018966 -0.22729,-1.881436 -0.19212,-1.916599 0.0943,-0.09429 1.35604,1.856874 2.13326,3.298842 l 0.67616,1.254463 -0.0953,-1.176059 c -0.0524,-0.646832 -0.25969,-2.124632 -0.46067,-3.283999 -0.40832,-2.355431 -0.38447,-2.362977 0.77143,-0.244179 0.76442,1.401218 1.23605,2.523095 1.648,3.920198 0.15258,0.517466 0.31408,0.835002 0.35887,0.705635 0.0448,-0.129366 0.35268,-1.046692 0.68418,-2.038502 l 0.60274,-1.803291 0.1748,1.332867 c 0.0961,0.733077 0.1852,1.227022 0.19792,1.097655 0.0693,-0.704728 2.27962,-5.005105 2.47311,-4.81162 0.0404,0.04039 -0.0729,0.848658 -0.25169,1.79616 -0.31272,1.657063 -0.63743,4.289214 -0.54321,4.403397 0.025,0.03029 0.26792,-0.385656 0.53983,-0.92432 0.54811,-1.085792 2.17879,-3.668445 2.25952,-3.578601 0.0283,0.03148 -0.0721,0.903993 -0.22297,1.938925 -0.15092,1.034932 -0.31209,2.181337 -0.35816,2.547566 l -0.0838,0.665871 1.11756,-1.009917 c 0.61467,-0.555454 1.14437,-0.983115 1.17713,-0.950357 0.0328,0.03276 -0.30771,0.915388 -0.7566,1.961399 -0.4489,1.046012 -0.78549,1.932514 -0.748,1.970005 0.0375,0.03749 0.28853,-0.266937 0.55786,-0.676506 0.64007,-0.973325 1.68075,-2.050881 2.72346,-2.819953 0.93191,-0.687346 2.32772,-1.514082 2.32772,-1.378701 0,0.04808 -0.35298,0.57272 -0.7844,1.165869 -0.8713,1.197931 -3.29261,5.143585 -3.29261,5.365491 0,0.0779 0.26471,-0.03354 0.58823,-0.247637 0.80302,-0.531413 2.27727,-1.019476 3.41038,-1.129037 l 0.94084,-0.09097 -1.41127,0.970578 c -1.3166,0.905475 -2.807,2.191732 -2.68312,2.315614 0.14074,0.140738 3.70156,1.007417 5.71189,1.390231 2.16716,0.41268 2.23489,0.437263 1.9601,0.711439 -0.15655,0.156194 -1.16667,0.759119 -2.24473,1.339833 l -1.9601,1.055844 -2.97935,0.106206 c -3.52835,0.125776 -5.04017,0.407737 -8.46763,1.579247 -2.11374,0.722482 -2.51103,0.808825 -3.92019,0.851987 -0.86245,0.02642 -1.83628,-0.0082 -2.16408,-0.07686 z"
       id="path34" /><path
       style="fill:#566852;fill-opacity:1"
       d="m 128.15934,87.876669 c -0.23439,-0.495905 -0.81328,-1.360309 -1.28641,-1.920897 -0.805,-0.953792 -1.35229,-1.409873 -3.30427,-2.753589 -0.87386,-0.60155 -0.76169,-0.654948 0.77793,-0.370334 0.99893,0.184661 2.49756,0.79369 2.94139,1.195348 0.15438,0.139719 0.31449,0.220249 0.35578,0.178956 0.153,-0.152997 -2.06944,-3.825551 -3.54057,-5.850752 l -0.67995,-0.936035 0.7781,0.451155 c 2.1285,1.234149 3.76318,2.716458 4.5932,4.165053 0.27179,0.474344 0.49483,0.776076 0.49563,0.670516 0.002,-0.233443 -0.70652,-2.026009 -1.47319,-3.72827 l -0.56498,-1.254463 1.33344,1.365305 c 0.73339,0.750918 1.33344,1.275658 1.33344,1.166089 0,-0.193637 -0.3488,-2.912284 -0.55613,-4.334685 l -0.10286,-0.705636 0.75,1.095983 c 0.41249,0.602791 1.06016,1.661244 1.43927,2.352119 l 0.68929,1.256135 -0.0862,-1.176059 c -0.0474,-0.646832 -0.2322,-2.014076 -0.41062,-3.038319 -0.17843,-1.024243 -0.30279,-1.927125 -0.27636,-2.006404 0.13241,-0.397237 2.17256,3.886045 2.60792,5.475321 l 0.27875,1.017582 0.69523,-2.096159 c 0.56923,-1.716272 0.70231,-1.996695 0.73434,-1.547332 0.0215,0.301856 0.082,0.936928 0.13437,1.411272 l 0.0953,0.862443 0.34515,-0.940847 c 0.57583,-1.569684 2.07074,-4.423991 2.23236,-4.262372 0.0331,0.03312 -0.0416,0.547036 -0.16604,1.142041 -0.31386,1.500759 -0.76887,4.927137 -0.66773,5.028274 0.0458,0.04584 0.27318,-0.291294 0.50521,-0.74918 0.85174,-1.680824 2.65144,-4.411828 2.34483,-3.558228 -0.0951,0.264858 -0.70272,4.886652 -0.64941,4.93996 0.0223,0.02232 0.49478,-0.37852 1.0499,-0.890763 0.55511,-0.512243 1.05955,-0.934218 1.12096,-0.937724 0.0614,-0.0035 -0.14142,0.575777 -0.45074,1.287292 -0.70683,1.625869 -1.16023,2.825976 -1.09304,2.893163 0.0285,0.02846 0.30946,-0.365786 0.62444,-0.876099 0.71317,-1.155424 2.53793,-2.869721 3.96164,-3.721809 0.59392,-0.355461 1.106,-0.623328 1.13796,-0.595261 0.032,0.02807 -0.15303,0.318899 -0.41108,0.646292 -1.03458,1.312585 -3.9976,6.120181 -3.68415,5.977647 0.0643,-0.02924 0.55723,-0.282644 1.09537,-0.563114 0.99599,-0.519093 2.57176,-0.970973 3.40052,-0.97516 0.40044,-0.002 0.28085,0.11635 -0.94085,0.931216 -2.22476,1.483906 -3.40664,2.756735 -4.13282,4.450856 l -0.3134,0.731118 h -6.31734 -6.31734 z"
       id="path35" /></g></svg>
