<?xml version="1.0" encoding="UTF-8" standalone="no"?>
<!-- Created with Inkscape (http://www.inkscape.org/) -->

<svg
   width="100mm"
   height="100mm"
   viewBox="0 0 100 100"
   version="1.1"
   id="svg1"
   inkscape:version="1.4 (86a8ad7, 2024-10-11)"
   sodipodi:docname="decor1.svg"
   xml:space="preserve"
   xmlns:inkscape="http://www.inkscape.org/namespaces/inkscape"
   xmlns:sodipodi="http://sodipodi.sourceforge.net/DTD/sodipodi-0.dtd"
   xmlns="http://www.w3.org/2000/svg"
   xmlns:svg="http://www.w3.org/2000/svg"><sodipodi:namedview
     id="namedview1"
     pagecolor="#ffffff"
     bordercolor="#000000"
     borderopacity="0.25"
     inkscape:showpageshadow="2"
     inkscape:pageopacity="0.0"
     inkscape:pagecheckerboard="true"
     inkscape:deskcolor="#d1d1d1"
     inkscape:document-units="mm"
     inkscape:zoom="1.4378367"
     inkscape:cx="204.1261"
     inkscape:cy="190.91181"
     inkscape:window-width="1920"
     inkscape:window-height="1009"
     inkscape:window-x="1912"
     inkscape:window-y="-8"
     inkscape:window-maximized="1"
     inkscape:current-layer="layer1" /><defs
     id="defs1" /><g
     inkscape:label="Warstwa 1"
     inkscape:groupmode="layer"
     id="layer1"><path
       style="fill:#3c7d4f;stroke-width:0.713594;fill-opacity:1"
       d="m 70.095033,82.07935 c -0.402789,-1.370574 -0.535988,-3.804382 -0.394511,-7.208384 0.246818,-5.938494 0.219366,-6.784484 -0.249558,-7.689369 -0.570318,-1.100552 -1.238414,-1.575489 -2.216251,-1.575489 -1.604723,0 -2.461942,1.535366 -1.690319,3.027522 0.482832,0.933691 1.828956,0.979058 2.173343,0.07325 0.33661,-0.885356 -0.313032,-1.471615 -0.93809,-0.846558 -0.196681,0.196676 -0.407156,0.308033 -0.467733,0.247457 -0.230819,-0.230823 -0.09583,-0.945644 0.235137,-1.245171 0.486014,-0.439831 1.164235,-0.386872 1.825987,0.142583 0.505531,0.404468 0.566415,0.564587 0.566415,1.489681 0,1.230817 -0.314039,1.6677 -1.533563,2.13344 -0.769911,0.294031 -0.882473,0.294267 -1.644014,0.0034 -1.057132,-0.403723 -1.738493,-1.138079 -2.0112,-2.16762 -0.785638,-2.966031 2.274838,-5.710551 4.883765,-4.379577 1.039635,0.530383 1.85461,1.556629 2.211735,2.785096 0.267012,0.918484 0.28984,1.55065 0.158489,4.388876 -0.203274,4.392211 -0.123951,6.7334 0.297868,8.791179 0.191586,0.934585 0.405807,1.84793 0.47606,2.029654 0.110151,0.284911 0.0097,0.330409 -0.729364,0.330409 -0.653424,0 -0.880175,-0.07852 -0.954196,-0.330409 z m 2.824761,-0.0944 c -0.04738,-0.233646 -0.126378,-0.899211 -0.175523,-1.479034 -0.07345,-0.866577 -0.195389,-1.160258 -0.685086,-1.649954 -0.674745,-0.674741 -0.61419,-0.977521 0.195497,-0.977521 0.484123,0 0.555276,-0.06869 0.555276,-0.53611 0,-0.385012 -0.129753,-0.595226 -0.460368,-0.745864 -0.632073,-0.287995 -0.981856,-0.949266 -0.583057,-1.1023 0.161979,-0.06215 0.498988,-0.07392 0.74891,-0.02615 0.340156,0.06502 0.479714,-0.0099 0.555041,-0.29793 0.07402,-0.283055 -0.09689,-0.553859 -0.646367,-1.024196 -0.904137,-0.773912 -1.025498,-1.438965 -0.227779,-1.248271 0.285566,0.06826 0.662315,0.197327 0.83721,0.286805 0.464849,0.237818 0.481505,0.225838 0.729207,-0.524721 0.185442,-0.56189 0.179498,-0.716047 -0.03254,-0.844244 -0.142683,-0.08626 -0.347313,-0.222978 -0.454737,-0.303819 -0.30245,-0.22761 -1.031914,-1.217043 -1.031914,-1.399677 0,-0.282003 0.637796,-0.17868 1.391879,0.225486 0.399006,0.213857 0.747333,0.36254 0.77405,0.330409 0.02669,-0.03213 0.15233,-0.257601 0.279136,-0.501045 0.197088,-0.378372 0.174702,-0.502081 -0.154222,-0.8522 -0.211623,-0.225266 -0.517412,-0.727024 -0.679527,-1.115017 -0.364261,-0.871805 -0.114524,-0.935198 0.919587,-0.233429 0.382551,0.259607 0.723948,0.472012 0.758665,0.472012 0.03468,0 0.170064,-0.258212 0.300787,-0.573806 0.210945,-0.509271 0.193862,-0.620754 -0.151903,-0.991227 -0.469252,-0.502781 -0.749873,-1.455847 -0.428663,-1.455847 0.120255,0 0.467397,0.128633 0.771424,0.285852 0.541382,0.279958 0.555133,0.275092 0.667053,-0.236006 0.06287,-0.287023 0.189795,-0.761259 0.282105,-1.053859 0.300366,-0.952112 5.64e-4,-2.182279 -0.703404,-2.886244 -0.838358,-0.838356 -1.460084,-0.987219 -2.108156,-0.504768 -0.732511,0.545313 -0.925688,1.227204 -0.522144,1.843092 0.404815,0.617831 1.122227,0.591717 1.212532,-0.04414 0.04588,-0.323135 -0.03318,-0.424811 -0.330408,-0.424811 -0.440081,0 -0.499973,-0.192858 -0.164177,-0.528654 0.645524,-0.645527 1.472679,0.01369 1.472679,1.173696 0,1.051122 -0.493628,1.526216 -1.585769,1.526216 -1.077898,0 -1.749725,-0.480927 -2.007119,-1.436797 -0.299781,-1.113299 -0.07474,-2.083081 0.690959,-2.977627 1.143192,-1.335567 3.213927,-1.509914 4.501914,-0.379044 1.654104,1.452323 1.850178,3.632073 0.597378,6.641005 -0.379846,0.912303 -0.888774,1.974331 -1.130946,2.360063 -0.573701,0.91378 -1.321826,2.81971 -1.757497,4.477433 -0.267719,1.018649 -0.347348,2.014176 -0.347348,4.342517 0,1.661484 0.06893,3.424451 0.153172,3.917704 l 0.153173,0.896825 h -1.046399 c -0.933752,0 -1.055677,-0.04573 -1.13256,-0.424812 z m 2.811745,0.0944 c 0.385156,-0.979623 0.498774,-2.881806 0.377049,-6.312624 -0.159131,-4.485196 0.0088,-5.294522 1.407279,-6.782825 1.078925,-1.148209 2.17801,-1.507495 3.516462,-1.149514 1.168153,0.312435 1.671123,0.67547 2.344684,1.692362 0.487599,0.736135 0.572438,1.04316 0.572438,2.071501 0,1.274302 -0.141713,1.681178 -0.905051,2.598488 -1.188405,1.428119 -3.427392,1.354958 -4.352702,-0.142227 -0.476973,-0.771756 -0.515521,-1.459145 -0.124265,-2.21575 0.600668,-1.161574 1.912032,-1.518907 2.466823,-0.672186 0.325912,0.497405 0.309307,1.066949 -0.03447,1.181389 -0.11658,0.03881 -0.257307,-0.102831 -0.312732,-0.314763 -0.169807,-0.649342 -0.923205,-0.441949 -1.160825,0.319545 -0.197723,0.63366 0.674546,1.452902 1.36462,1.281665 0.913778,-0.226749 1.359332,-0.818442 1.359332,-1.805185 0,-2.722672 -3.322022,-2.997615 -4.472514,-0.370161 -0.23438,0.535285 -0.283918,1.449839 -0.260761,4.814299 0.0157,2.284414 -0.02719,4.599636 -0.09529,5.144938 l -0.123879,0.991457 h -0.848064 c -0.731305,0 -0.830181,-0.04549 -0.718161,-0.330409 z"
       id="path2" /><path
       style="fill:#3c7d4f;fill-opacity:1"
       d="m 24.602955,50.000181 c -0.500134,-2.435132 -1.410668,-3.731587 -4.644913,-6.61361 -1.003956,-0.894622 -1.818551,-1.81759 -2.078982,-2.355569 -1.109956,-2.292862 0.04025,-4.625664 2.280727,-4.625664 0.792304,0 0.999577,0.09646 1.546987,0.719925 1.240583,1.412946 0.669204,3.557104 -0.947902,3.557104 -0.71593,0 -1.271348,-0.600942 -1.271348,-1.375552 0,-0.585263 0.588995,-0.85349 0.850005,-0.387091 0.432132,0.772177 1.18502,0.07665 0.765519,-0.707199 -0.172019,-0.32142 -0.38838,-0.391024 -1.062041,-0.341665 -1.657614,0.121455 -1.821195,1.80443 -0.339049,3.488238 l 0.815655,0.926632 1.146184,-0.394345 c 1.372751,-0.472296 2.100756,-0.506676 2.100756,-0.09921 0,0.320062 -1.214392,1.334208 -1.597651,1.334208 -0.313957,0 -0.298825,0.304789 0.02862,0.576547 0.190629,0.158209 0.508081,0.13499 1.142423,-0.08356 1.114147,-0.383854 1.745606,-0.235436 1.39396,0.327638 -0.133774,0.214208 -0.49929,0.495533 -0.812257,0.625168 -0.759691,0.314674 -0.394216,0.832194 0.466176,0.660116 0.322161,-0.06443 0.841159,-0.05206 1.153328,0.02748 l 0.56758,0.144635 -0.675042,0.567033 -0.675042,0.567032 0.423844,1.291093 c 0.233114,0.7101 0.480763,1.775391 0.550332,2.367313 0.122166,1.039438 0.109521,1.076221 -0.369974,1.076221 -0.445328,0 -0.523389,-0.131107 -0.757899,-1.272925 z m 2.01449,1.01834 c 8.46e-4,-0.140022 0.09894,-0.850314 0.217988,-1.578428 0.234517,-1.434343 0.02082,-3.616127 -0.558545,-5.702705 -0.171068,-0.616096 -1.041512,-2.606426 -1.93432,-4.422955 -1.59433,-3.243863 -2.411027,-5.709647 -2.411027,-7.279407 0,-2.018205 1.441654,-4.582677 3.032448,-5.394239 3.269181,-1.667812 7.078407,-0.174901 8.08463,3.168525 0.943276,3.134267 -0.612321,5.781354 -3.397492,5.781354 -2.297686,0 -3.735719,-1.848996 -3.051185,-3.923154 0.329221,-0.997551 0.873237,-1.420207 1.861348,-1.446116 0.927914,-0.02433 1.413305,0.399136 1.413305,1.233002 0,0.536503 -0.06287,0.561622 -0.586788,0.234432 -0.559807,-0.349606 -1.042556,-0.07362 -1.042556,0.596021 0,0.758362 0.337281,1.065466 1.170165,1.065466 1.023297,0 1.681188,-0.753302 1.681188,-1.925002 0,-0.772467 -0.118462,-1.056301 -0.717691,-1.719575 -0.39473,-0.436918 -0.948067,-0.852218 -1.229639,-0.922888 -0.884128,-0.221902 -2.048529,0.247595 -3.132045,1.26287 -0.881845,0.826307 -1.059707,1.125921 -1.257673,2.118592 -0.170846,0.85668 -0.171308,1.326191 -0.0018,1.812487 0.125834,0.36097 0.22879,1.05506 0.22879,1.542423 0,0.956827 0.09355,1.033468 0.700848,0.574134 0.44249,-0.334682 1.132164,-0.400847 1.132164,-0.108615 0,0.395663 -0.449105,1.35273 -0.821248,1.750122 -0.373722,0.399079 -0.374429,0.431847 -0.02095,0.970689 l 0.365825,0.557667 0.390459,-0.431453 c 0.443381,-0.48993 1.497659,-1.082578 1.651737,-0.928501 0.240587,0.240587 -0.206781,1.341058 -0.761042,1.872074 -0.665335,0.637432 -0.713989,0.843187 -0.321558,1.359857 0.251177,0.330697 0.312189,0.327752 1.054927,-0.05092 0.433582,-0.221053 1.00862,-0.401914 1.277861,-0.401914 0.482313,0 0.484418,0.0083 0.142789,0.560087 -0.190708,0.308048 -0.616217,0.79801 -0.945577,1.088803 -0.392688,0.346708 -0.554826,0.643399 -0.470995,0.86186 0.102386,0.266816 0.210536,0.288885 0.543204,0.110846 0.228452,-0.122264 0.677543,-0.297489 0.997982,-0.389389 0.491219,-0.14088 0.582615,-0.108018 0.582615,0.20948 0,0.207115 -0.309874,0.668854 -0.688609,1.026087 l -0.68861,0.649514 0.292741,1.047294 c 0.161008,0.576011 0.346386,2.032538 0.41195,3.236725 l 0.119209,2.189432 h -1.658187 c -1.191591,0 -1.657754,-0.07164 -1.656648,-0.254585 z m 4.964046,-0.916506 c 0.0735,-0.644101 0.188313,-1.59691 0.255141,-2.117353 0.107882,-0.840155 0.07318,-0.961601 -0.309477,-1.083051 -0.454403,-0.144222 -0.957293,-0.872359 -0.747436,-1.082216 0.0679,-0.0679 0.44879,-0.0058 0.846422,0.137975 0.397632,0.143785 0.749838,0.230102 0.78268,0.191814 0.03284,-0.03829 0.197778,-0.338539 0.366524,-0.667226 0.298671,-0.581756 0.289965,-0.608964 -0.328136,-1.025503 -1.244331,-0.838554 -0.640884,-1.567266 0.686075,-0.828493 0.457887,0.254925 0.555326,0.240365 0.967424,-0.144553 0.59075,-0.551788 0.583023,-0.605304 -0.203668,-1.410616 l -0.661922,-0.677588 0.546565,-0.06314 c 0.30061,-0.03473 0.834585,0.0858 1.18661,0.26784 0.730456,0.377734 1.038447,0.251034 2.190672,-0.901191 1.237346,-1.237346 1.297275,-2.809768 0.136084,-3.57061 -0.567653,-0.37194 -0.916068,-0.393575 -1.566391,-0.09727 -0.710355,0.323659 -1.02508,0.920288 -0.753318,1.42808 0.305299,0.570457 1.257046,0.459955 1.408579,-0.163542 0.164277,-0.675934 0.686948,-0.243918 0.686948,0.5678 0,1.603329 -2.415297,1.956125 -3.576635,0.52243 -0.830174,-1.024866 -0.10246,-3.349036 1.271466,-4.060802 0.902243,-0.46741 2.554907,-0.378583 3.30695,0.177741 1.495663,1.106418 1.799136,3.329006 0.667995,4.89229 -0.317058,0.438187 -1.125689,1.254957 -1.796958,1.815044 -2.429842,2.027389 -3.874985,4.660819 -4.135529,7.536018 l -0.138392,1.527211 H 32.05881 31.447857 Z"
       id="path3" /></g></svg>
