<?xml version="1.0" encoding="UTF-8" standalone="no"?>
<!-- Created with Inkscape (http://www.inkscape.org/) -->

<svg
   width="100mm"
   height="100mm"
   viewBox="0 0 100 100"
   version="1.1"
   id="svg1"
   inkscape:version="1.4 (86a8ad7, 2024-10-11)"
   sodipodi:docname="decor3.svg"
   xml:space="preserve"
   xmlns:inkscape="http://www.inkscape.org/namespaces/inkscape"
   xmlns:sodipodi="http://sodipodi.sourceforge.net/DTD/sodipodi-0.dtd"
   xmlns="http://www.w3.org/2000/svg"
   xmlns:svg="http://www.w3.org/2000/svg"><sodipodi:namedview
     id="namedview1"
     pagecolor="#ffffff"
     bordercolor="#000000"
     borderopacity="0.25"
     inkscape:showpageshadow="2"
     inkscape:pageopacity="0.0"
     inkscape:pagecheckerboard="true"
     inkscape:deskcolor="#d1d1d1"
     inkscape:document-units="mm"
     inkscape:zoom="1.0167041"
     inkscape:cx="425.39418"
     inkscape:cy="215.89369"
     inkscape:window-width="1920"
     inkscape:window-height="1009"
     inkscape:window-x="1912"
     inkscape:window-y="-8"
     inkscape:window-maximized="1"
     inkscape:current-layer="layer1" /><defs
     id="defs1" /><g
     inkscape:label="Warstwa 1"
     inkscape:groupmode="layer"
     id="layer1"><path
       style="fill:#3c7d4f;fill-opacity:1"
       d="m 22.724516,40.693646 c 0.0631,-0.960626 0.0426,-2.915469 -0.0457,-4.344093 -0.0883,-1.428625 -0.0998,-3.100679 -0.0256,-3.715677 0.44591,-3.696287 3.72024,-5.335534 6.16191,-3.084876 0.84097,0.775173 1.17789,1.61694 1.17789,2.942799 0,2.774626 -3.14292,4.216111 -4.9174,2.255338 -0.25365,-0.280281 -0.35107,-0.655181 -0.35785,-1.37707 -0.008,-0.870537 0.0522,-1.044891 0.49331,-1.424588 0.68692,-0.591299 1.62635,-0.588306 2.01603,0.0064 0.16937,0.25849 0.23978,0.590033 0.1712,0.80612 -0.14818,0.466857 -0.38168,0.470933 -0.50253,0.0088 -0.13434,-0.513711 -0.80451,-0.461335 -1.05218,0.08223 -0.3097,0.679719 0.20064,1.350872 1.0272,1.350872 0.91138,0 1.50998,-0.692118 1.50998,-1.745882 0,-0.668538 -0.0987,-0.896608 -0.60907,-1.406944 -0.52187,-0.521874 -0.731,-0.609069 -1.46084,-0.609069 -0.75913,0 -0.92509,0.07708 -1.52599,0.708755 -0.9932,1.044068 -1.1778,2.071066 -0.91221,5.074771 0.11513,1.301986 0.2092,3.233827 0.20906,4.29298 l -2.6e-4,1.925732 h -0.73587 -0.73588 z"
       id="path79" /><path
       style="fill:#3c7d4f;fill-opacity:1"
       d="m 18.835746,40.770096 c 0.0696,-1.167062 0.0106,-2.154592 -0.19593,-3.278432 -0.3413,-1.857178 -0.62831,-2.669879 -1.85844,-5.262285 -1.91849,-4.043075 -2.41554,-5.95122 -2.03883,-7.826966 0.62557,-3.114944 4.0601,-5.022828 6.74148,-3.744888 2.55695,1.218645 3.65173,4.014204 2.48719,6.351139 -0.52977,1.063117 -1.01618,1.450858 -2.05936,1.641616 -1.14476,0.209334 -1.95262,-0.06202 -2.71184,-0.910891 -0.58091,-0.6495 -0.67177,-0.868732 -0.67177,-1.620911 0,-1.159735 0.70889,-2.021959 1.66237,-2.021959 0.80122,0 1.20384,0.331366 1.20384,0.990797 0,0.45993 -0.0369,0.493935 -0.33455,0.308069 -0.72816,-0.454741 -1.33262,0.269827 -0.84542,1.013395 0.57347,0.875223 1.91487,0.43037 2.2387,-0.742424 0.32631,-1.181828 -0.5289,-2.522419 -1.81508,-2.84523 -0.62909,-0.157892 -1.92346,0.432152 -2.74064,1.249334 -0.88792,0.887916 -1.2612,2.275472 -0.89294,3.319224 0.14206,0.402638 0.21074,0.969841 0.15261,1.260451 -0.0792,0.396093 -0.0299,0.557453 0.19692,0.644496 0.16642,0.06386 0.3939,0.0248 0.50551,-0.08681 0.11161,-0.111608 0.3581,-0.202924 0.54776,-0.202924 0.29245,0 0.32741,0.08714 0.23013,0.573586 -0.0631,0.315472 -0.27813,0.747527 -0.47785,0.960122 -0.31293,0.333099 -0.33334,0.451924 -0.14763,0.859517 0.25678,0.563575 0.36248,0.581563 0.77016,0.131074 0.35691,-0.394382 1.31853,-0.832452 1.47778,-0.673208 0.15296,0.15296 -0.28934,1.155471 -0.75474,1.710681 -0.30161,0.359814 -0.3568,0.566042 -0.23734,0.886893 0.0856,0.229934 0.21659,0.391158 0.29107,0.358275 0.97643,-0.431102 1.86604,-0.715993 1.95572,-0.626307 0.13891,0.138904 -0.82798,1.559669 -1.14393,1.680908 -0.24198,0.09286 -0.32751,0.771157 -0.0959,0.760212 0.0739,-0.0035 0.33588,-0.121552 0.58219,-0.262359 1.14766,-0.656058 1.44418,-0.03237 0.43647,0.918022 -0.70797,0.667701 -0.67702,0.962926 0.10095,0.962926 0.77526,0 0.85804,0.354195 0.20936,0.895744 -0.72407,0.604479 -0.75996,1.207915 -0.0765,1.286797 0.70257,0.08109 0.73388,0.59682 0.0574,0.946612 -0.40688,0.210409 -0.54918,0.409703 -0.551,0.771696 -0.006,1.164912 -0.13147,1.29415 -1.25805,1.29415 h -1.03958 z"
       id="path78" /><path
       style="fill:#3c7d4f;fill-opacity:1"
       d="m 16.283546,42.252241 c -0.0639,-0.103398 -0.18848,-1.274151 -0.27683,-2.601672 -0.15846,-2.380797 -0.35257,-3.120677 -1.01785,-3.879714 -0.58445,-0.666806 -1.91527,-0.55777 -2.50083,0.204895 -0.53921,0.702311 -0.0207,2.165179 0.76742,2.165179 0.52458,0 0.97348,-0.367747 0.97348,-0.797495 0,-0.529476 -0.34778,-0.675982 -0.7576,-0.319142 -0.27701,0.241201 -0.32174,0.238488 -0.4231,-0.02566 -0.30175,-0.786348 1.06122,-1.13377 1.71114,-0.436169 1.02033,1.095203 -0.32807,2.967724 -1.86017,2.583193 -2.17749,-0.546516 -2.44888,-3.858681 -0.39599,-4.832842 1.56242,-0.741417 3.22734,-0.02493 3.94756,1.698796 0.14764,0.353337 0.35652,1.508427 0.46418,2.566867 0.10767,1.05844 0.27287,2.33103 0.36711,2.827978 0.0942,0.496949 0.17135,0.932846 0.17135,0.968661 0,0.157978 -1.06545,0.04607 -1.16987,-0.122878 z"
       id="path77" /><path
       style="fill:#3c7d4f;fill-opacity:1"
       d="m 69.449712,63.081612 c -0.41151,-0.910526 -1.34549,-1.81422 -2.5253,-2.443413 -1.01314,-0.540305 -1.35598,-0.829814 -1.85625,-1.56746 -1.15627,-1.704924 -0.0358,-3.952513 1.7988,-3.608337 1.73701,0.325865 2.03988,3.140706 0.33793,3.140706 -0.32719,0 -0.69119,-0.116043 -0.8089,-0.257874 -0.27548,-0.331933 -0.17372,-1.212449 0.15253,-1.31975 0.17968,-0.0591 0.22314,0.02425 0.15284,0.29309 -0.1168,0.446666 0.23879,0.798578 0.64819,0.641477 0.39593,-0.151933 0.37336,-1.018635 -0.0362,-1.389264 -0.48039,-0.434742 -1.38398,-0.381406 -1.72234,0.101664 -0.54337,0.775781 -0.27388,1.914717 0.61683,2.606833 0.68655,0.533478 1.61224,0.969207 1.61224,0.758895 0,-0.186858 1.03592,-0.89573 1.31082,-0.896987 0.20625,-9.44e-4 -0.0444,0.742972 -0.37834,1.123175 -0.20377,0.231952 -0.22568,0.371163 -0.0812,0.51568 0.14452,0.144517 0.32882,0.09501 0.68273,-0.18337 0.49727,-0.391153 0.97388,-0.501925 0.97388,-0.226348 0,0.08524 -0.16452,0.364131 -0.3656,0.61976 l -0.36559,0.464781 0.45127,0.681921 c 0.2482,0.375056 0.50341,0.94259 0.56713,1.261187 0.10533,0.526664 0.076,0.579267 -0.32245,0.579267 -0.35257,0 -0.51749,-0.175205 -0.84308,-0.895633 z"
       id="path59" /><path
       style="fill:#3c7d4f;fill-opacity:1"
       d="m 72.662892,63.449453 c 0.0714,-0.3202 0.12102,-1.50923 0.1102,-2.64228 -0.0247,-2.58965 -0.24217,-3.29857 -2.36475,-7.70948 -1.69563,-3.52368 -2.18264,-5.83521 -1.62296,-7.70325 0.5953,-1.98692 2.78418,-3.57588 4.92597,-3.57588 2.75441,0 4.78784,2.10935 4.7624,4.94021 -0.021,2.34283 -1.69452,3.81332 -3.87433,3.40438 -1.85699,-0.34837 -2.69694,-2.83745 -1.39637,-4.13801 0.37158,-0.37159 0.60437,-0.45159 1.18894,-0.40859 0.58997,0.0434 0.77108,0.1461 0.96152,0.54526 0.29965,0.62807 0.06,1.22191 -0.31213,0.77349 -0.31736,-0.38239 -0.67511,-0.35146 -0.90509,0.0782 -0.23122,0.43205 0.006,0.96943 0.55778,1.26486 0.77476,0.41465 1.95016,-0.56175 1.95016,-1.61999 0,-1.1969 -1.12422,-2.32996 -2.31306,-2.33126 -1.3401,-10e-4 -2.93496,1.41038 -3.33706,2.95413 -0.23002,0.88309 -0.22877,1.07592 0.0107,1.64896 0.14912,0.35692 0.22409,0.79718 0.16658,0.97836 -0.0575,0.18119 -0.0536,0.49002 0.009,0.68629 0.10568,0.33298 0.14787,0.33897 0.63016,0.0896 0.28429,-0.14701 0.64725,-0.2673 0.80657,-0.2673 0.37355,0 0.21105,0.58415 -0.38325,1.37769 -0.36843,0.49195 -0.39896,0.63542 -0.21916,1.03004 0.25838,0.56709 0.34328,0.56911 0.85867,0.0205 0.2263,-0.24089 0.65334,-0.5223 0.94898,-0.62536 0.53624,-0.18693 0.53725,-0.186 0.42192,0.39065 -0.0636,0.31792 -0.3577,0.8793 -0.6536,1.2475 -0.46862,0.58314 -0.50875,0.71626 -0.31121,1.03257 0.27764,0.44458 0.2827,0.44461 0.94671,0.005 0.49432,-0.32737 1.34354,-0.49159 1.34354,-0.25981 0,0.28392 -0.58732,1.16875 -0.98168,1.47896 -0.77767,0.61171 -0.48805,1.11512 0.38084,0.66195 1.2097,-0.63091 1.50882,-0.11396 0.51127,0.8836 -0.84959,0.84958 -0.82471,1.17633 0.0896,1.17633 0.79811,0 0.89035,0.18448 0.35827,0.71656 -0.19705,0.19705 -0.43888,0.35827 -0.53741,0.35827 -0.0985,0 -0.17914,0.24184 -0.17914,0.53742 0,0.45035 0.0708,0.53741 0.43727,0.53741 0.69912,0 0.74894,0.36817 0.12523,0.92546 -0.42242,0.37743 -0.59804,0.71692 -0.67993,1.31437 l -0.1104,0.80551 h -1.22514 -1.22514 z"
       id="path19" /><path
       style="fill:#3c7d4f;fill-opacity:1"
       d="m 77.214475,63.354878 c 0.348768,-0.29483 1.008493,-1.188432 1.466107,-1.985682 0.67711,-1.179643 0.868087,-1.742609 1.025613,-3.023464 0.390782,-3.177392 0.646401,-4.100369 1.376562,-4.970374 0.573915,-0.68383 0.802787,-0.850977 1.460278,-1.066414 1.66331,-0.545055 3.212866,0.488365 3.042905,2.029353 -0.190446,1.726762 -2.244989,2.690939 -3.078728,1.444809 -0.401439,-0.600001 -0.309493,-1.094844 0.276246,-1.48674 0.604854,-0.404686 0.925708,-0.296965 0.688092,0.231019 -0.226872,0.504119 -0.04113,0.777198 0.434813,0.639093 0.472517,-0.137062 0.683554,-0.888127 0.377911,-1.344949 -0.283339,-0.423486 -1.058433,-0.646106 -1.467444,-0.421482 -0.85875,0.471566 -1.096682,0.793908 -1.35363,1.833533 l -0.27126,1.097521 0.563339,0.377461 c 0.870668,0.583386 1.507233,1.303587 1.386459,1.568624 -0.120677,0.264839 -1.502196,-0.03276 -1.729548,-0.372572 -0.180364,-0.269577 -0.400543,-0.147916 -0.43333,0.239511 -0.01379,0.162692 0.113186,0.379194 0.29507,0.50306 0.175572,0.11963 0.513073,0.496963 0.749953,0.838566 0.522706,0.753738 0.236239,0.912688 -0.771715,0.428133 -0.53357,-0.256486 -0.676111,-0.256397 -0.75232,4.56e-4 -0.06957,0.23451 0.0072,0.388831 0.295313,0.59352 0.478938,0.340348 0.763811,1.073817 0.488516,1.258007 -0.111854,0.07484 -0.442567,0.0042 -0.734912,-0.157005 -0.510392,-0.281403 -0.542271,-0.273645 -0.800654,0.194995 -0.36159,0.655809 -1.660486,2.10037 -2.233001,2.483419 -0.387199,0.25906 -0.500761,0.252021 -0.698469,-0.04348 -0.206716,-0.308964 -0.157201,-0.419554 0.397995,-0.889002 z"
       id="path18" /></g></svg>
