<?xml version="1.0" encoding="UTF-8" standalone="no"?>
<!-- Created with Inkscape (http://www.inkscape.org/) -->

<svg
   width="100mm"
   height="100mm"
   viewBox="0 0 100 100"
   version="1.1"
   id="svg1"
   inkscape:version="1.4 (86a8ad7, 2024-10-11)"
   sodipodi:docname="decor7.svg"
   xml:space="preserve"
   xmlns:inkscape="http://www.inkscape.org/namespaces/inkscape"
   xmlns:sodipodi="http://sodipodi.sourceforge.net/DTD/sodipodi-0.dtd"
   xmlns="http://www.w3.org/2000/svg"
   xmlns:svg="http://www.w3.org/2000/svg"><sodipodi:namedview
     id="namedview1"
     pagecolor="#ffffff"
     bordercolor="#000000"
     borderopacity="0.25"
     inkscape:showpageshadow="2"
     inkscape:pageopacity="0.0"
     inkscape:pagecheckerboard="true"
     inkscape:deskcolor="#d1d1d1"
     inkscape:document-units="mm"
     inkscape:zoom="1.4378367"
     inkscape:cx="288.97579"
     inkscape:cy="190.21632"
     inkscape:window-width="1920"
     inkscape:window-height="1009"
     inkscape:window-x="1912"
     inkscape:window-y="-8"
     inkscape:window-maximized="1"
     inkscape:current-layer="layer1" /><defs
     id="defs1" /><g
     inkscape:label="Warstwa 1"
     inkscape:groupmode="layer"
     id="layer1"><path
       style="fill:#3f3121;fill-opacity:1;stroke-width:1.58212"
       d="m 23.484118,82.810351 c 0,-0.612345 0.67724,-1.686132 1.29239,-2.049071 l 0.69648,-0.410925 -0.39735,-1.176989 c -0.23496,-0.695992 -0.35294,-1.45062 -0.28869,-1.846578 0.0846,-0.521785 0.0209,-0.716584 -0.28907,-0.882455 -0.57564,-0.308077 -0.49997,-0.67928 0.10742,-0.526838 0.38538,0.09672 0.56148,0.02155 0.74268,-0.317035 0.20066,-0.37495 0.13021,-0.644641 -0.45381,-1.738034 -0.58412,-1.093503 -0.78687,-1.305084 -1.30737,-1.364298 l -0.61604,-0.07009 0.53549,-0.230993 c 0.41531,-0.179147 0.56053,-0.417689 0.64706,-1.062788 0.13274,-0.989946 0.88002,-2.28075 1.32031,-2.28075 0.22278,0 0.26673,0.103772 0.1522,0.359354 -0.0886,0.197644 -0.19944,0.793125 -0.24635,1.323293 -0.068,0.768045 0.0296,1.174918 0.47975,2.002109 0.31077,0.570995 0.67426,1.038172 0.80778,1.038172 0.30769,0 1.33474,-1.867323 1.33474,-2.426751 0,-0.253817 -0.18308,-0.480921 -0.46202,-0.573138 l -0.46203,-0.152739 0.51337,-0.127946 c 0.42646,-0.106287 0.50107,-0.230231 0.44081,-0.732248 -0.0399,-0.332369 -0.25322,-0.958433 -0.47404,-1.391254 -0.56838,-1.114139 -0.37805,-1.335217 0.49193,-0.57137 1.06752,0.937307 1.47742,2.145196 1.32894,3.916255 -0.10775,1.285373 -0.0807,1.435842 0.27856,1.549877 0.62749,0.199155 0.46435,0.509056 -0.26943,0.51185 -0.53432,0.0021 -0.75914,0.144211 -1.12758,0.713046 -0.39408,0.608418 -0.42517,0.787408 -0.21633,1.245751 0.18426,0.404383 0.35952,0.51314 0.71688,0.444825 0.53064,-0.101446 0.66781,0.349967 0.165,0.54292 -0.16942,0.06501 -0.30803,0.337644 -0.30803,0.605857 0,0.268212 -0.17637,1.000305 -0.39194,1.626877 -0.42399,1.232347 -0.31121,1.594559 0.49644,1.594559 0.45224,0 0.86161,0.270274 1.31063,0.865279 0.24433,0.323765 0.18538,0.342434 -0.73643,0.233252 l -1.00203,-0.118659 0.0805,0.844806 c 0.0829,0.869614 -0.2393,1.179663 -0.47015,0.452361 -0.0685,-0.215849 -0.4213,-0.6188 -0.784,-0.89545 l -0.65945,-0.502989 -1.05285,0.400056 c -0.63602,0.241669 -1.15782,0.596191 -1.31798,0.89545 -0.2712,0.506754 -0.60641,0.663448 -0.60641,0.283453 z"
       id="path180" /><path
       style="fill:#3f3121;fill-opacity:1;stroke-width:1.58212"
       d="m 150.98224,94.712937 c 0.16598,-0.829897 0.44494,-1.155988 1.29152,-1.509705 0.37604,-0.157121 0.68371,-0.36966 0.68371,-0.472308 0,-0.102649 -0.32342,-0.807116 -0.71871,-1.565485 -0.8085,-1.551125 -0.9512,-2.973241 -0.40445,-4.030541 0.24228,-0.468522 0.26198,-0.705347 0.0861,-1.034113 -0.28891,-0.539845 -0.14223,-0.692699 0.39104,-0.40733 0.53368,0.285616 0.60675,0.142375 0.58558,-1.147995 -0.0163,-0.989025 0.27715,-1.710748 0.69544,-1.710748 0.0957,0 0.16177,0.32383 0.14682,0.719624 -0.0366,0.972243 0.14888,1.088278 0.53778,0.33638 0.44864,-0.867604 0.40192,-1.59689 -0.18277,-2.85277 -0.59633,-1.280877 -0.28879,-1.466979 0.65253,-0.394864 0.45619,0.519567 0.6949,0.645976 0.99666,0.527794 0.68088,-0.266651 0.78245,-0.199722 0.3773,0.248628 -0.30011,0.332113 -0.37467,0.668911 -0.32028,1.446684 0.0546,0.780765 -0.0549,1.270899 -0.47636,2.132346 -0.67513,1.379897 -0.56909,1.94109 0.36797,1.947637 0.65186,0.0046 0.65242,0.0055 0.21444,0.359352 -0.283,0.228669 -0.48815,0.701171 -0.57713,1.329199 -0.0826,0.583247 -0.34471,1.220009 -0.65285,1.586207 l -0.51479,0.611796 0.66427,0.826593 c 0.36535,0.454626 0.73412,0.826593 0.8195,0.826593 0.0854,0 0.43953,0.239227 0.78701,0.531614 0.51738,0.435355 0.63179,0.684933 0.63179,1.378321 v 0.846703 l -0.56471,-0.663525 c -0.34644,-0.407079 -0.91244,-0.761992 -1.46448,-0.918298 -0.83808,-0.237301 -0.98232,-0.215157 -2.10345,0.322931 -0.662,0.317736 -1.29992,0.757562 -1.41756,0.97739 -0.34362,0.642071 -0.6787,0.48578 -0.53193,-0.24811 z"
       id="path149" /><path
       style="fill:#3f3121;fill-opacity:1;stroke-width:1.58212"
       d="m 142.98751,93.700245 c -0.22181,-0.717794 -0.43728,-0.965365 -1.2232,-1.405337 -0.59795,-0.334746 -0.92184,-0.402002 -1.28013,-0.265781 -0.2638,0.100306 -0.70985,0.182371 -0.99121,0.182371 -0.31434,0 -0.74461,0.255149 -1.11603,0.661787 l -0.60445,0.661802 v -0.634099 c 0,-0.794369 0.70387,-1.716225 1.31039,-1.716225 0.97657,0 1.17797,-0.386164 1.03026,-1.97536 -0.12562,-1.350975 -0.18286,-1.487291 -0.77609,-1.846433 l -0.64052,-0.387762 0.71692,-0.06803 c 0.7879,-0.07483 1.02061,-0.30633 1.02537,-1.020216 0.008,-1.182764 -1.31637,-2.502888 -2.51233,-2.504517 -0.65614,-8.86e-4 -0.73931,-0.303546 -0.16751,-0.609577 0.94995,-0.508399 2.57805,-0.05063 3.40555,0.957549 l 0.41455,0.505061 0.57981,-0.537352 c 0.31891,-0.295557 0.53395,-0.649367 0.47787,-0.786252 -0.47353,-1.15601 -0.4842,-1.104939 0.14476,-0.692875 0.56586,0.37077 0.58194,0.369251 1.09466,-0.103155 0.72461,-0.667751 1.08345,-1.617041 1.08345,-2.866206 0,-1.049312 0.006,-1.059675 0.40744,-0.696403 0.24329,0.220152 0.4596,0.761808 0.53687,1.344298 0.10363,0.780826 0.23746,1.029915 0.67061,1.247773 l 0.5412,0.272189 -0.65744,0.0704 c -0.43456,0.04652 -0.70088,0.207274 -0.78563,0.474289 -0.0706,0.222178 -0.46771,0.80152 -0.88265,1.287438 -1.42994,1.674503 -2.39738,2.86002 -2.4575,3.011476 -0.0331,0.08354 0.17476,0.21085 0.46203,0.282963 0.68977,0.173116 0.66626,0.49011 -0.0424,0.571653 -0.45268,0.05205 -0.57825,0.183874 -0.63303,0.664318 -0.0924,0.810854 0.33293,2.254114 0.81768,2.774427 0.23088,0.247824 0.65351,0.425101 1.01341,0.425101 0.38169,0 0.80978,0.192418 1.12139,0.504033 0.59344,0.593423 0.67405,1.051084 0.14461,0.821391 -0.19764,-0.08575 -0.6641,-0.198683 -1.03656,-0.250941 -0.64282,-0.09018 -0.67036,-0.06772 -0.54243,0.441982 0.25781,1.027178 -0.35402,2.161292 -0.64972,1.204344 z"
       id="path147" /><path
       style="fill:#3f3121;fill-opacity:1;stroke-width:1.58212"
       d="m 62.00793,45.194646 c 0,-0.945576 0.5042,-1.806381 1.15351,-1.969346 0.55371,-0.138974 1.32151,-0.852062 2.30613,-2.141795 l 0.52835,-0.692082 -0.44518,-0.360486 c -0.48068,-0.389226 -0.41144,-0.616811 0.18761,-0.616811 0.55615,0 0.4689,-0.679327 -0.18822,-1.465309 -0.6819,-0.81561 -2.12652,-2.138999 -2.29299,-2.100539 -0.066,0.01519 -0.3463,0.09665 -0.6231,0.180944 -0.5013,0.152659 -0.50188,0.151124 -0.14936,-0.387038 0.31355,-0.478521 0.32007,-0.593122 0.0571,-1.002321 -0.29886,-0.465095 -0.4168,-1.208514 -0.35957,-2.266743 0.019,-0.350928 0.32911,-0.888011 0.80101,-1.387146 0.67547,-0.714463 0.92687,-0.835302 2.04697,-0.983899 1.25293,-0.166221 1.28815,-0.157516 1.87478,0.463094 1.2181,1.288626 1.38564,2.367563 0.52623,3.388896 -0.392,0.465867 -0.70616,0.631789 -1.19625,0.631789 -0.89416,0 -1.66063,-0.79377 -1.47617,-1.528717 0.16876,-0.672412 0.45316,-0.671689 0.62214,0.0016 0.1071,0.426923 0.23738,0.514171 0.68963,0.462026 0.45772,-0.05278 0.56874,-0.179521 0.62011,-0.70791 0.0489,-0.501939 -0.0634,-0.742795 -0.51012,-1.09411 -1.10085,-0.865928 -2.52995,-0.07559 -2.52995,1.39913 0,0.653403 0.16913,0.904733 1.37178,2.038449 0.93627,0.8826 1.47413,1.250702 1.69411,1.159436 0.17726,-0.07355 0.5071,-0.183948 0.73298,-0.245336 0.40582,-0.110289 0.40602,-0.106318 0.0166,0.33457 -0.38955,0.441003 -0.38864,0.457142 0.0772,1.389956 0.58123,1.163813 0.48983,2.42106 -0.28756,3.955153 -0.62524,1.23386 -0.65205,1.583114 -0.1424,1.855864 0.55813,0.298705 0.90661,1.26491 0.67598,1.874301 l -0.19006,0.502235 -0.2669,-0.575813 c -0.14682,-0.316697 -0.66468,-0.844267 -1.15085,-1.172378 -0.81352,-0.549033 -0.92911,-0.574244 -1.45073,-0.316429 -0.31173,0.154067 -0.84202,0.359761 -1.17845,0.457082 -0.33642,0.09732 -0.71844,0.391101 -0.84893,0.652847 -0.44619,0.894985 -0.69552,0.990644 -0.69552,0.266855 z"
       id="path126" /></g></svg>
