<?xml version="1.0" encoding="UTF-8" standalone="no"?>
<!-- Created with Inkscape (http://www.inkscape.org/) -->

<svg
   width="100mm"
   height="100mm"
   viewBox="0 0 100 100"
   version="1.1"
   id="svg1"
   inkscape:version="1.4 (86a8ad7, 2024-10-11)"
   sodipodi:docname="decor4.svg"
   xml:space="preserve"
   xmlns:inkscape="http://www.inkscape.org/namespaces/inkscape"
   xmlns:sodipodi="http://sodipodi.sourceforge.net/DTD/sodipodi-0.dtd"
   xmlns="http://www.w3.org/2000/svg"
   xmlns:svg="http://www.w3.org/2000/svg"><sodipodi:namedview
     id="namedview1"
     pagecolor="#ffffff"
     bordercolor="#000000"
     borderopacity="0.25"
     inkscape:showpageshadow="2"
     inkscape:pageopacity="0.0"
     inkscape:pagecheckerboard="true"
     inkscape:deskcolor="#d1d1d1"
     inkscape:document-units="mm"
     inkscape:zoom="0.71891835"
     inkscape:cx="586.29746"
     inkscape:cy="313.66566"
     inkscape:window-width="1920"
     inkscape:window-height="1009"
     inkscape:window-x="1912"
     inkscape:window-y="-8"
     inkscape:window-maximized="1"
     inkscape:current-layer="layer1" /><defs
     id="defs1" /><g
     inkscape:label="Warstwa 1"
     inkscape:groupmode="layer"
     id="layer1"><path
       style="fill:#3c7d4f;fill-opacity:1"
       d="m 65.67951,88.683637 c 0.0692,-0.615786 0.27976,-1.562978 0.46786,-2.10487 l 0.34199,-0.985258 -0.45026,-0.328433 c -0.6484,-0.47296 -0.56064,-0.629995 0.38664,-0.691795 0.46774,-0.03052 0.86942,-0.153373 0.91061,-0.278522 0.0405,-0.123157 -0.0414,-0.223922 -0.18215,-0.223922 -0.25347,0 -0.84881,-0.543885 -0.84881,-0.775442 0,-0.193608 1.06499,-0.138114 1.46578,0.07638 0.28174,0.150787 0.42635,0.13767 0.62029,-0.05627 0.21776,-0.217764 0.16052,-0.313505 -0.4121,-0.689255 -0.36574,-0.24 -0.69719,-0.537128 -0.73656,-0.660286 -0.0932,-0.29153 0.73748,-0.272885 1.57052,0.03525 0.52756,0.195143 0.69929,0.190286 1.08301,-0.03063 1.11939,-0.64446 1.59527,-2.20784 0.8875,-2.915608 -0.43117,-0.431171 -0.68792,-0.447965 -1.2141,-0.07941 -0.46267,0.324065 -0.50818,0.660769 -0.13155,0.973341 0.2159,0.179178 0.28767,0.166318 0.37744,-0.06763 0.18636,-0.485643 0.60994,-0.337928 0.60994,0.212704 0,0.626665 -0.29365,0.931517 -0.89728,0.931517 -0.79347,0 -1.12511,-0.385424 -1.14498,-1.330657 -0.0156,-0.742563 0.055,-0.913307 0.5672,-1.371011 0.75417,-0.673979 1.76672,-0.717018 2.47786,-0.105322 0.39071,0.336079 0.50138,0.61072 0.56753,1.408387 0.118,1.422951 -0.25895,2.078878 -2.05849,3.581928 -2.33889,1.953535 -3.1613,3.265562 -3.37902,5.390694 -0.11536,1.125933 -0.15182,1.203737 -0.56403,1.203737 -0.43458,0 -0.43895,-0.01552 -0.31484,-1.119612 z"
       id="path76" /><path
       style="fill:#3c7d4f;fill-opacity:1"
       d="m 62.72263,86.154388 c 0,-6.134427 -0.6117,-8.54901 -3.21966,-12.709158 -1.42091,-2.266601 -1.4191,-3.929068 0.006,-5.216279 0.59784,-0.540117 0.83627,-0.6388 1.54338,-0.6388 0.75781,0 0.9091,0.07596 1.61173,0.809266 0.71543,0.746668 0.77541,0.882819 0.77541,1.760153 0,1.008617 -0.358,1.553213 -1.18552,1.803432 -0.96589,0.292059 -1.86762,-0.633372 -1.51664,-1.556507 0.24796,-0.652197 0.72055,-0.648646 0.6758,0.0051 -0.028,0.409461 0.0386,0.492629 0.3946,0.492629 0.60506,0 0.87219,-0.48577 0.57376,-1.043378 -0.49476,-0.924484 -1.62257,-0.971081 -2.23797,-0.09247 -0.42301,0.603936 -0.35201,1.289097 0.25063,2.418411 0.29557,0.5539 0.53741,1.119191 0.53741,1.256203 0,0.428882 0.5067,0.467169 1.00415,0.07587 0.53245,-0.418823 1.14551,-0.497267 1.14551,-0.146573 0,0.282302 -0.50409,1.022508 -0.9421,1.383394 -0.2799,0.230609 -0.29724,0.351251 -0.12234,0.850905 0.22968,0.656137 0.29359,0.686377 0.69205,0.327448 0.15555,-0.140113 0.5045,-0.310076 0.77545,-0.377696 0.714,-0.178194 0.65024,0.331517 -0.14036,1.122118 -0.59533,0.595329 -0.62114,0.668858 -0.43395,1.236052 0.10947,0.331687 0.21346,0.603068 0.23111,0.603068 0.0176,0 0.29353,-0.07499 0.61309,-0.166633 0.50522,-0.144898 0.58101,-0.123609 0.58101,0.163214 0,0.181416 -0.23194,0.525008 -0.51541,0.763539 -0.4904,0.412642 -0.50832,0.478623 -0.3691,1.359301 0.0805,0.509084 0.20289,1.696224 0.27202,2.638088 0.0691,0.941864 0.18047,1.64729 0.24739,1.567614 0.0669,-0.07968 0.29721,-1.434659 0.51173,-3.011072 0.40641,-2.986424 1.20735,-6.510281 1.83681,-8.081303 0.84251,-2.102769 3.1069,-3.194616 4.69806,-2.265325 1.25336,0.732001 1.69176,2.111081 1.08055,3.399111 -0.8083,1.703377 -3.37588,1.782246 -4.00669,0.123075 -0.3103,-0.816135 0.38528,-1.863745 1.23747,-1.863745 0.59712,0 0.91872,0.294729 0.91872,0.841948 0,0.463386 -0.26569,0.55339 -0.42306,0.14331 -0.146,-0.380482 -0.60466,-0.333182 -0.82871,0.08546 -0.15055,0.281302 -0.11499,0.428726 0.17284,0.716551 0.19931,0.19931 0.4392,0.362381 0.53309,0.362381 0.45668,0 1.08198,-0.460127 1.2822,-0.94351 0.27952,-0.674825 -0.0429,-1.350548 -0.82344,-1.725703 -0.44742,-0.215044 -0.62449,-0.215044 -1.24046,0 -1.11722,0.390035 -1.62069,1.278916 -2.33844,4.128511 -0.81589,3.239228 -1.18134,6.01377 -1.30018,9.871173 l -0.098,3.179698 H 63.95274 62.7229 Z"
       id="path75" /><path
       style="fill:#3c7d4f;fill-opacity:1"
       d="m 61.07234,88.932867 c -0.046,-0.47871 -0.33391,-1.405206 -0.6398,-2.058881 -0.55959,-1.195813 -1.15023,-1.856179 -4.10943,-4.594528 -1.12181,-1.038097 -1.28039,-1.26838 -1.462,-2.123053 -0.26256,-1.235659 -0.0237,-2.170143 0.71313,-2.790162 1.09962,-0.925269 3.06714,-0.405259 3.30714,0.874068 0.19792,1.055017 -0.0422,1.85053 -0.65418,2.166983 -0.64126,0.331604 -1.14482,0.208833 -1.52532,-0.371875 -0.49094,-0.749266 0.0447,-1.561184 0.5627,-0.852852 0.18963,0.259341 0.26879,0.26979 0.51237,0.06764 0.37629,-0.312288 0.36428,-0.608164 -0.0395,-0.973582 -0.33959,-0.307323 -1.04899,-0.388533 -1.39218,-0.159375 -0.39978,0.266939 -0.64058,0.982025 -0.52971,1.573024 0.0636,0.338798 0.44059,0.960387 0.87065,1.435412 l 0.75855,0.837843 0.85382,-0.289878 c 0.9138,-0.310243 1.91612,-0.384505 1.91612,-0.141966 0,0.198669 -0.70534,0.830083 -1.23008,1.101156 -0.38636,0.199588 -0.39886,0.244106 -0.14097,0.501999 0.23234,0.232341 0.36583,0.245242 0.74588,0.07208 0.52927,-0.24115 1.7,-0.284533 1.7,-0.063 0,0.218906 -0.7956,0.926916 -1.04159,0.926916 -0.11681,0 -0.21238,0.07585 -0.21238,0.168565 0,0.303444 0.41961,0.437161 1.21781,0.388076 0.66072,-0.04063 0.77498,4.98e-4 0.72385,0.260553 -0.0473,0.240603 -0.4925,0.630465 -0.8178,0.716155 -0.0223,0.0059 0.11583,0.42218 0.30693,0.925128 0.19111,0.502948 0.40186,1.445334 0.46834,2.094193 0.12011,1.17242 0.11807,1.179742 -0.32893,1.179742 -0.4071,0 -0.45772,-0.0826 -0.53342,-0.870381 z"
       id="path74" /><path
       style="fill:#3c7d4f;fill-opacity:1"
       d="m 58.342958,27.844241 c 0.12438,-2.211988 -0.60354,-5.069507 -2.04267,-8.018642 -1.11215,-2.27909 -1.41191,-3.226202 -1.41803,-4.480406 -0.007,-1.345318 0.41143,-2.203931 1.33866,-2.749767 1.64982,-0.971208 3.54527,0.381637 3.34077,2.384422 -0.0972,0.952288 -0.59443,1.440172 -1.46768,1.440172 -0.87103,0 -1.28224,-0.505322 -1.16618,-1.433103 0.0456,-0.364365 0.52564,-0.713218 0.82394,-0.598748 0.19182,0.07361 0.19852,0.164203 0.0319,0.43107 -0.25812,0.41331 0.0208,0.773302 0.46662,0.60223 0.49798,-0.191094 0.39233,-1.260604 -0.1603,-1.6227 -0.42474,-0.278301 -0.5042,-0.279138 -1.06601,-0.01123 -0.86171,0.410925 -1.10207,1.352719 -0.72293,2.832661 0.15256,0.595498 0.27738,1.112406 0.27738,1.148684 0,0.03628 0.27955,-0.05085 0.62123,-0.193606 0.34168,-0.142762 0.78788,-0.259567 0.99156,-0.259567 0.32049,0 0.34328,0.05054 0.16936,0.375523 -0.11054,0.206537 -0.43531,0.508832 -0.72172,0.671767 -0.56928,0.323853 -0.58907,0.36252 -0.36578,0.714777 0.12527,0.197631 0.30084,0.188775 1.00639,-0.05077 0.47005,-0.159588 0.89156,-0.253237 0.93669,-0.20811 0.20316,0.203158 -0.20167,0.840802 -0.7483,1.178637 -0.44263,0.27356 -0.57569,0.46384 -0.50728,0.725446 0.10894,0.41657 0.11863,0.418116 0.88464,0.141124 0.32473,-0.117423 0.64366,-0.160244 0.70875,-0.09516 0.17705,0.177055 -0.43551,1.025208 -0.74045,1.025208 -0.34196,0 -0.33501,0.09746 0.0963,1.351176 0.1985,0.576944 0.41138,1.478387 0.47306,2.003207 0.0617,0.52482 0.14954,0.916828 0.19524,0.871128 0.0457,-0.0457 0.22489,-0.793451 0.39821,-1.661671 0.39794,-1.993429 0.691,-3.057674 1.01433,-3.683452 0.1537,-0.297491 0.1807,-0.492629 0.0682,-0.492629 -0.21466,0 -0.89598,-1.05453 -0.89698,-1.388319 -0.001,-0.332567 0.42792,-0.271516 0.9439,0.134353 0.56627,0.445427 0.60882,0.444685 0.85478,-0.0149 0.15652,-0.292462 0.13999,-0.439178 -0.0764,-0.678323 -0.24761,-0.273606 -0.82723,-1.478335 -0.82723,-1.719382 0,-0.269291 0.59848,-0.03076 1.16014,0.462384 0.52231,0.458595 0.68259,0.518368 0.90192,0.336341 0.36114,-0.29972 0.33532,-0.597305 -0.0848,-0.977514 -0.3625,-0.328053 -0.8302,-1.481581 -0.66692,-1.64486 0.1318,-0.131804 0.85058,0.266087 1.39291,0.77107 l 0.46403,0.432071 0.51763,-0.76745 c 0.2847,-0.422098 0.78124,-1.121644 1.10343,-1.554547 0.4761,-0.639707 0.58579,-0.952577 0.58579,-1.670805 0,-0.737881 -0.0864,-0.970118 -0.52363,-1.407343 -0.68436,-0.6843567 -1.62578,-0.7193017 -2.26115,-0.08393 -0.72044,0.720447 -0.45162,1.840985 0.4026,1.678131 0.34956,-0.06664 0.56589,-0.863868 0.23442,-0.863868 -0.1112,0 -0.15235,-0.08061 -0.0915,-0.179137 0.17651,-0.285599 0.72457,-0.207892 1.04706,0.148458 0.42194,0.466236 0.36681,1.182917 -0.13595,1.767284 -0.36343,0.422416 -0.56415,0.499863 -1.25792,0.485348 -3.28229,-0.06867 -2.06607,-5.2672967 1.23228,-5.2672967 1.78988,0 3.14532,1.52233 3.14499,3.5322197 -2.1e-4,1.257165 -0.78269,2.723971 -2.52882,4.740391 -2.56234,2.958967 -3.07397,3.809299 -3.89883,6.479909 -0.4224,1.367565 -0.73608,5.131785 -0.42764,5.131785 0.10164,0 0.27213,-0.342601 0.37887,-0.761336 0.10675,-0.418734 0.3524,-1.069386 0.54589,-1.445893 0.34748,-0.676109 0.34755,-0.68882 0.006,-1.030043 -0.6234,-0.623403 -0.25283,-0.954396 0.57343,-0.512192 0.25801,0.138081 0.42664,0.134566 0.60395,-0.01259 0.20192,-0.167581 0.14371,-0.297241 -0.32494,-0.723731 l -0.57094,-0.519575 0.59397,-0.0053 c 0.32669,-0.0029 0.74406,0.07507 0.9275,0.173244 0.18344,0.09817 0.46567,0.127785 0.62719,0.0658 0.23921,-0.09179 0.17518,-0.210362 -0.3453,-0.639382 -1.20536,-0.993565 -0.61273,-1.287959 0.98412,-0.488862 0.63292,0.316725 0.64225,0.315719 1.21273,-0.130751 1.04875,-0.820771 1.41352,-2.054389 0.77762,-2.629867 -0.59251,-0.53622 -1.46378,-0.27115 -1.46378,0.445336 0,0.460707 0.34849,0.594024 0.61173,0.234022 0.26476,-0.362081 0.64224,-0.20871 0.64224,0.260945 0,0.450268 -0.56938,0.912881 -1.12356,0.912881 -1.00344,0 -1.37685,-1.542769 -0.59376,-2.453157 0.35955,-0.418007 0.57395,-0.502618 1.27359,-0.502618 0.74058,0 0.90324,0.07424 1.35905,0.620216 0.37325,0.447088 0.51778,0.812105 0.51778,1.307645 0,1.265587 -0.73134,2.144267 -2.95197,3.546728 -1.84911,1.167818 -2.8382,2.48502 -3.32108,4.422779 l -0.18972,0.761336 -1.91883,3.26e-4 -1.91883,3.27e-4 z"
       id="path60" /><path
       style="fill:#3c7d4f;fill-opacity:1"
       d="m 33.962211,54.703072 c 0.493605,-0.868765 0.67403,-2.155788 0.487835,-3.47986 -0.159895,-1.137021 -0.127784,-1.584596 0.173826,-2.423299 0.697115,-1.938494 3.173499,-2.356384 3.975631,-0.670917 0.759467,1.595808 -1.337255,3.498127 -2.339453,2.122542 -0.192667,-0.264448 -0.313219,-0.62698 -0.267899,-0.805635 0.106064,-0.418114 0.877654,-0.854362 1.156492,-0.653858 0.153572,0.110423 0.111797,0.19463 -0.146886,0.296118 -0.429792,0.168618 -0.504831,0.663245 -0.136779,0.901629 0.355942,0.230541 1.043155,-0.298061 1.101542,-0.84733 0.0685,-0.64427 -0.506693,-1.343181 -1.096374,-1.3322 -0.946982,0.01765 -1.708826,0.906126 -1.743725,2.033588 -0.0269,0.869038 0.16602,1.873798 0.336003,1.749955 0.151026,-0.110032 1.333969,0.309819 1.496861,0.531264 0.122214,0.166144 -0.626645,0.401616 -1.130582,0.355595 -0.307463,-0.02811 -0.432881,0.03616 -0.464608,0.238031 -0.0317,0.201906 0.116836,0.321712 0.550234,0.443832 0.608965,0.171582 0.979148,0.491569 0.756416,0.653843 -0.06889,0.05019 -0.391183,0.08145 -0.7162,0.06946 l -0.590933,-0.0218 -0.285424,0.766286 c -0.156983,0.421458 -0.465405,0.961923 -0.685386,1.201031 -0.363648,0.395259 -0.423435,0.402529 -0.658063,0.08049 -0.207612,-0.284962 -0.163118,-0.521427 0.227437,-1.208808 z"
       id="path59" /><path
       style="fill:#3c7d4f;fill-opacity:1"
       d="m 27.925207,55.955717 c -0.51531,-2.553182 -1.25427,-3.762615 -3.45844,-5.660326 -2.23916,-1.927833 -2.62861,-2.397893 -2.89024,-3.488484 -0.37437,-1.560559 0.37138,-3.030074 1.70794,-3.36553 1.75794,-0.441216 3.28083,1.998622 2.0986,3.362197 -0.87139,1.005052 -2.63231,0.03531 -2.01851,-1.111597 0.19256,-0.359796 0.22118,-0.363745 0.54067,-0.07461 0.40309,0.36479 0.8881,0.229343 0.8881,-0.248014 0,-0.874249 -1.41073,-0.998534 -2.02054,-0.17801 -0.51239,0.68943 -0.2991,1.54027 0.64848,2.586913 l 0.76532,0.845322 0.8727,-0.297357 c 0.47998,-0.163546 1.14331,-0.297357 1.47407,-0.297357 0.53648,0 0.58161,0.03693 0.4182,0.342265 -0.10075,0.188246 -0.47009,0.519588 -0.82077,0.736316 -0.35067,0.216729 -0.60552,0.485923 -0.56633,0.598209 0.0741,0.212319 0.19329,0.213133 1.60245,0.01095 0.55614,-0.0798 0.8509,-0.0564 0.8509,0.06755 0,0.26719 -0.47221,0.707809 -0.90618,0.845544 -0.64557,0.204895 -0.0666,0.638481 0.70318,0.526607 0.35797,-0.05202 0.77177,-0.0095 0.91956,0.09444 0.23111,0.162578 0.21197,0.236667 -0.13675,0.529533 -0.22301,0.187279 -0.47849,0.367018 -0.56774,0.399421 -0.0893,0.0324 0.0307,0.623198 0.26648,1.312879 0.23582,0.689681 0.43084,1.636872 0.43338,2.10487 0.004,0.730308 -0.0457,0.850905 -0.35024,0.850905 -0.24359,0 -0.38604,-0.154466 -0.45429,-0.492629 z"
       id="path38" /><path
       style="fill:#3c7d4f;fill-opacity:1"
       d="m 30.331184,55.917327 c -0.045,-0.22168 -0.1199,-0.85317 -0.16653,-1.4033 -0.0697,-0.82221 -0.18539,-1.10085 -0.65001,-1.56547 -0.6402,-0.6402 -0.58274,-0.92747 0.18549,-0.92747 0.45933,0 0.52684,-0.0652 0.52684,-0.50866 0,-0.3653 -0.12311,-0.56475 -0.43679,-0.70768 -0.59972,-0.27325 -0.93159,-0.90066 -0.55321,-1.04586 0.15368,-0.059 0.47344,-0.0701 0.71057,-0.0248 0.32273,0.0617 0.45515,-0.009 0.52662,-0.28268 0.0702,-0.26856 -0.0919,-0.5255 -0.61327,-0.97175 -0.85785,-0.73429 -0.97299,-1.36529 -0.21612,-1.18436 0.27094,0.0648 0.6284,0.18722 0.79434,0.27212 0.44105,0.22564 0.45685,0.21427 0.69187,-0.49786 0.17595,-0.53311 0.17031,-0.67938 -0.0309,-0.80101 -0.13538,-0.0819 -0.32953,-0.21156 -0.43145,-0.28826 -0.28697,-0.21596 -0.97909,-1.15473 -0.97909,-1.32802 0,-0.26756 0.60514,-0.16953 1.32062,0.21394 0.37858,0.20291 0.70906,0.34398 0.73442,0.3135 0.0254,-0.0305 0.14453,-0.24442 0.26484,-0.47539 0.18699,-0.359 0.16575,-0.47638 -0.14632,-0.80857 -0.20079,-0.21373 -0.49093,-0.6898 -0.64474,-1.05793 -0.34561,-0.82716 -0.10866,-0.88731 0.8725,-0.22147 0.36297,0.24631 0.68688,0.44784 0.71982,0.44784 0.0329,0 0.16136,-0.24499 0.28539,-0.54443 0.20014,-0.48319 0.18393,-0.58897 -0.14413,-0.94047 -0.44522,-0.477037 -0.71148,-1.381305 -0.40671,-1.381305 0.11409,0 0.44346,0.122048 0.73192,0.271217 0.51366,0.265624 0.52671,0.261006 0.6329,-0.223923 0.0596,-0.272326 0.18008,-0.722281 0.26766,-0.999899 0.28499,-0.903362 5.3e-4,-2.070542 -0.66739,-2.738463 -0.79543,-0.79543 -1.38532,-0.936671 -2.00021,-0.478923 -0.69501,0.517392 -0.87829,1.164369 -0.49541,1.748723 0.38409,0.586196 1.06477,0.561419 1.15045,-0.04188 0.0435,-0.30659 -0.0315,-0.40306 -0.31349,-0.40306 -0.41755,0 -0.47438,-0.182983 -0.15577,-0.501586 0.61247,-0.612475 1.39727,0.013 1.39727,1.1136 0,0.997303 -0.46835,1.448072 -1.50457,1.448072 -1.02271,0 -1.66014,-0.456303 -1.90435,-1.36323 -0.28443,-1.056296 -0.0709,-1.976424 0.65558,-2.825167 1.08466,-1.267184 3.04936,-1.432604 4.2714,-0.359637 1.56942,1.377962 1.75545,3.446104 0.5668,6.300973 -0.3604,0.865598 -0.84327,1.873248 -1.07304,2.239228 -0.54433,0.86699 -1.25415,2.67533 -1.66752,4.24818 -0.254,0.96649 -0.32956,1.91104 -0.32956,4.12017 0,1.57641 0.0654,3.24911 0.14533,3.71711 l 0.14533,0.8509 h -0.99282 c -0.88594,0 -1.00162,-0.0434 -1.07457,-0.40306 z"
       id="path30" /></g></svg>
