<?xml version="1.0" encoding="UTF-8" standalone="no"?>
<!-- Created with Inkscape (http://www.inkscape.org/) -->

<svg
   width="100mm"
   height="100mm"
   viewBox="0 0 100 100"
   version="1.1"
   id="svg1"
   inkscape:version="1.4 (86a8ad7, 2024-10-11)"
   sodipodi:docname="decor6.svg"
   xml:space="preserve"
   xmlns:inkscape="http://www.inkscape.org/namespaces/inkscape"
   xmlns:sodipodi="http://sodipodi.sourceforge.net/DTD/sodipodi-0.dtd"
   xmlns="http://www.w3.org/2000/svg"
   xmlns:svg="http://www.w3.org/2000/svg"><sodipodi:namedview
     id="namedview1"
     pagecolor="#ffffff"
     bordercolor="#000000"
     borderopacity="0.25"
     inkscape:showpageshadow="2"
     inkscape:pageopacity="0.0"
     inkscape:pagecheckerboard="true"
     inkscape:deskcolor="#d1d1d1"
     inkscape:document-units="mm"
     inkscape:zoom="1.4378367"
     inkscape:cx="288.97579"
     inkscape:cy="190.21632"
     inkscape:window-width="1920"
     inkscape:window-height="1009"
     inkscape:window-x="1912"
     inkscape:window-y="-8"
     inkscape:window-maximized="1"
     inkscape:current-layer="layer1" /><defs
     id="defs1" /><g
     inkscape:label="Warstwa 1"
     inkscape:groupmode="layer"
     id="layer1"><path
       style="fill:#3f3121;fill-opacity:1;stroke-width:1.58212"
       d="m 69.511871,76.449046 c -0.15933,-0.609275 0.20344,-1.723723 0.70692,-2.171701 0.51324,-0.456666 1.61228,-2.674295 1.61251,-3.253726 8e-5,-0.2197 -0.25396,-0.666331 -0.56453,-0.992516 l -0.56471,-0.593064 0.76056,0.140872 0.76054,0.140873 -0.12562,-0.791116 c -0.0691,-0.435112 -0.48063,-1.679552 -0.91456,-2.76542 -0.88819,-2.222653 -0.94476,-2.796316 -0.39513,-4.006691 0.65492,-1.442217 1.24217,-1.505812 0.81754,-0.08854 -0.2155,0.719276 -0.2014,1.017965 0.0919,1.948507 0.44521,1.412363 0.81382,1.746099 1.37131,1.241573 0.55575,-0.502949 0.7245,-0.256929 0.28443,0.41469 -0.34518,0.526827 -0.3418,0.602724 0.0862,1.931823 0.55482,1.722683 0.56422,3.083011 0.0332,4.802327 -0.47209,1.528478 -0.42945,1.758386 0.41561,2.240752 0.46954,0.268021 0.61282,0.49606 0.61282,0.975387 0,0.749112 -0.0497,0.761131 -0.65804,0.159249 -0.25924,-0.256486 -0.86414,-0.594711 -1.3442,-0.751614 -1.14187,-0.373208 -1.73872,-0.105432 -2.22583,0.998624 -0.41078,0.931073 -0.59998,1.035422 -0.761,0.419701 z"
       id="path191" /><path
       style="fill:#3f3121;fill-opacity:1;stroke-width:1.58212"
       d="m 161.49527,95.875407 c 0,-0.612345 0.67724,-1.686132 1.29239,-2.049071 l 0.69648,-0.410925 -0.39735,-1.176989 c -0.23496,-0.695992 -0.35294,-1.45062 -0.28869,-1.846578 0.0846,-0.521785 0.0209,-0.716584 -0.28907,-0.882455 -0.57564,-0.308077 -0.49997,-0.67928 0.10742,-0.526838 0.38538,0.09672 0.56148,0.02155 0.74268,-0.317035 0.20066,-0.37495 0.13021,-0.644641 -0.45381,-1.738034 -0.58412,-1.093503 -0.78687,-1.305084 -1.30737,-1.364298 l -0.61604,-0.07009 0.53549,-0.230993 c 0.41531,-0.179147 0.56053,-0.417689 0.64706,-1.062788 0.13274,-0.989946 0.88002,-2.28075 1.32031,-2.28075 0.22278,0 0.26673,0.103772 0.1522,0.359354 -0.0886,0.197644 -0.19944,0.793125 -0.24635,1.323293 -0.068,0.768045 0.0296,1.174918 0.47975,2.002109 0.31077,0.570995 0.67426,1.038172 0.80778,1.038172 0.30769,0 1.33474,-1.867323 1.33474,-2.426751 0,-0.253817 -0.18308,-0.480921 -0.46202,-0.573138 l -0.46203,-0.152739 0.51337,-0.127946 c 0.42646,-0.106287 0.50107,-0.230231 0.44081,-0.732248 -0.0399,-0.332369 -0.25322,-0.958433 -0.47404,-1.391254 -0.56838,-1.114139 -0.37805,-1.335217 0.49193,-0.57137 1.06752,0.937307 1.47742,2.145196 1.32894,3.916255 -0.10775,1.285373 -0.0807,1.435842 0.27856,1.549877 0.62749,0.199155 0.46435,0.509056 -0.26943,0.51185 -0.53432,0.0021 -0.75914,0.144211 -1.12758,0.713046 -0.39408,0.608418 -0.42517,0.787408 -0.21633,1.245751 0.18426,0.404383 0.35952,0.51314 0.71688,0.444825 0.53064,-0.101446 0.66781,0.349967 0.165,0.54292 -0.16942,0.06501 -0.30803,0.337644 -0.30803,0.605857 0,0.268212 -0.17637,1.000305 -0.39194,1.626877 -0.42399,1.232347 -0.31121,1.594559 0.49644,1.594559 0.45224,0 0.86161,0.270274 1.31063,0.865279 0.24433,0.323765 0.18538,0.342434 -0.73643,0.233252 l -1.00203,-0.118659 0.0805,0.844806 c 0.0829,0.869614 -0.2393,1.179663 -0.47015,0.452361 -0.0685,-0.215849 -0.4213,-0.6188 -0.784,-0.89545 l -0.65945,-0.502989 -1.05285,0.400056 c -0.63602,0.241669 -1.15782,0.596191 -1.31798,0.89545 -0.2712,0.506754 -0.60641,0.663448 -0.60641,0.283453 z"
       id="path180" /><path
       style="fill:#3f3121;fill-opacity:1;stroke-width:1.58212"
       d="m 150.98224,94.712937 c 0.16598,-0.829897 0.44494,-1.155988 1.29152,-1.509705 0.37604,-0.157121 0.68371,-0.36966 0.68371,-0.472308 0,-0.102649 -0.32342,-0.807116 -0.71871,-1.565485 -0.8085,-1.551125 -0.9512,-2.973241 -0.40445,-4.030541 0.24228,-0.468522 0.26198,-0.705347 0.0861,-1.034113 -0.28891,-0.539845 -0.14223,-0.692699 0.39104,-0.40733 0.53368,0.285616 0.60675,0.142375 0.58558,-1.147995 -0.0163,-0.989025 0.27715,-1.710748 0.69544,-1.710748 0.0957,0 0.16177,0.32383 0.14682,0.719624 -0.0366,0.972243 0.14888,1.088278 0.53778,0.33638 0.44864,-0.867604 0.40192,-1.59689 -0.18277,-2.85277 -0.59633,-1.280877 -0.28879,-1.466979 0.65253,-0.394864 0.45619,0.519567 0.6949,0.645976 0.99666,0.527794 0.68088,-0.266651 0.78245,-0.199722 0.3773,0.248628 -0.30011,0.332113 -0.37467,0.668911 -0.32028,1.446684 0.0546,0.780765 -0.0549,1.270899 -0.47636,2.132346 -0.67513,1.379897 -0.56909,1.94109 0.36797,1.947637 0.65186,0.0046 0.65242,0.0055 0.21444,0.359352 -0.283,0.228669 -0.48815,0.701171 -0.57713,1.329199 -0.0826,0.583247 -0.34471,1.220009 -0.65285,1.586207 l -0.51479,0.611796 0.66427,0.826593 c 0.36535,0.454626 0.73412,0.826593 0.8195,0.826593 0.0854,0 0.43953,0.239227 0.78701,0.531614 0.51738,0.435355 0.63179,0.684933 0.63179,1.378321 v 0.846703 l -0.56471,-0.663525 c -0.34644,-0.407079 -0.91244,-0.761992 -1.46448,-0.918298 -0.83808,-0.237301 -0.98232,-0.215157 -2.10345,0.322931 -0.662,0.317736 -1.29992,0.757562 -1.41756,0.97739 -0.34362,0.642071 -0.6787,0.48578 -0.53193,-0.24811 z"
       id="path149" /><path
       style="fill:#3f3121;fill-opacity:1;stroke-width:1.58212"
       d="m 142.98751,93.700245 c -0.22181,-0.717794 -0.43728,-0.965365 -1.2232,-1.405337 -0.59795,-0.334746 -0.92184,-0.402002 -1.28013,-0.265781 -0.2638,0.100306 -0.70985,0.182371 -0.99121,0.182371 -0.31434,0 -0.74461,0.255149 -1.11603,0.661787 l -0.60445,0.661802 v -0.634099 c 0,-0.794369 0.70387,-1.716225 1.31039,-1.716225 0.97657,0 1.17797,-0.386164 1.03026,-1.97536 -0.12562,-1.350975 -0.18286,-1.487291 -0.77609,-1.846433 l -0.64052,-0.387762 0.71692,-0.06803 c 0.7879,-0.07483 1.02061,-0.30633 1.02537,-1.020216 0.008,-1.182764 -1.31637,-2.502888 -2.51233,-2.504517 -0.65614,-8.86e-4 -0.73931,-0.303546 -0.16751,-0.609577 0.94995,-0.508399 2.57805,-0.05063 3.40555,0.957549 l 0.41455,0.505061 0.57981,-0.537352 c 0.31891,-0.295557 0.53395,-0.649367 0.47787,-0.786252 -0.47353,-1.15601 -0.4842,-1.104939 0.14476,-0.692875 0.56586,0.37077 0.58194,0.369251 1.09466,-0.103155 0.72461,-0.667751 1.08345,-1.617041 1.08345,-2.866206 0,-1.049312 0.006,-1.059675 0.40744,-0.696403 0.24329,0.220152 0.4596,0.761808 0.53687,1.344298 0.10363,0.780826 0.23746,1.029915 0.67061,1.247773 l 0.5412,0.272189 -0.65744,0.0704 c -0.43456,0.04652 -0.70088,0.207274 -0.78563,0.474289 -0.0706,0.222178 -0.46771,0.80152 -0.88265,1.287438 -1.42994,1.674503 -2.39738,2.86002 -2.4575,3.011476 -0.0331,0.08354 0.17476,0.21085 0.46203,0.282963 0.68977,0.173116 0.66626,0.49011 -0.0424,0.571653 -0.45268,0.05205 -0.57825,0.183874 -0.63303,0.664318 -0.0924,0.810854 0.33293,2.254114 0.81768,2.774427 0.23088,0.247824 0.65351,0.425101 1.01341,0.425101 0.38169,0 0.80978,0.192418 1.12139,0.504033 0.59344,0.593423 0.67405,1.051084 0.14461,0.821391 -0.19764,-0.08575 -0.6641,-0.198683 -1.03656,-0.250941 -0.64282,-0.09018 -0.67036,-0.06772 -0.54243,0.441982 0.25781,1.027178 -0.35402,2.161292 -0.64972,1.204344 z"
       id="path147" /><path
       style="fill:#3f3121;fill-opacity:1;stroke-width:1.58212"
       d="m 161.00793,74.637026 c 0,-0.945576 0.5042,-1.806381 1.15351,-1.969346 0.55371,-0.138974 1.32151,-0.852062 2.30613,-2.141795 l 0.52835,-0.692082 -0.44518,-0.360486 c -0.48068,-0.389226 -0.41144,-0.616811 0.18761,-0.616811 0.55615,0 0.4689,-0.679327 -0.18822,-1.465309 -0.6819,-0.81561 -2.12652,-2.138999 -2.29299,-2.100539 -0.066,0.01519 -0.3463,0.09665 -0.6231,0.180944 -0.5013,0.152659 -0.50188,0.151124 -0.14936,-0.387038 0.31355,-0.478521 0.32007,-0.593122 0.0571,-1.002321 -0.29886,-0.465095 -0.4168,-1.208514 -0.35957,-2.266743 0.019,-0.350928 0.32911,-0.888011 0.80101,-1.387146 0.67547,-0.714463 0.92687,-0.835302 2.04697,-0.983899 1.25293,-0.166221 1.28815,-0.157516 1.87478,0.463094 1.2181,1.288626 1.38564,2.367563 0.52623,3.388896 -0.392,0.465867 -0.70616,0.631789 -1.19625,0.631789 -0.89416,0 -1.66063,-0.79377 -1.47617,-1.528717 0.16876,-0.672412 0.45316,-0.671689 0.62214,0.0016 0.1071,0.426923 0.23738,0.514171 0.68963,0.462026 0.45772,-0.05278 0.56874,-0.179521 0.62011,-0.70791 0.0489,-0.501939 -0.0634,-0.742795 -0.51012,-1.09411 -1.10085,-0.865928 -2.52995,-0.07559 -2.52995,1.39913 0,0.653403 0.16913,0.904733 1.37178,2.038449 0.93627,0.8826 1.47413,1.250702 1.69411,1.159436 0.17726,-0.07355 0.5071,-0.183948 0.73298,-0.245336 0.40582,-0.110289 0.40602,-0.106318 0.0166,0.33457 -0.38955,0.441003 -0.38864,0.457142 0.0772,1.389956 0.58123,1.163813 0.48983,2.42106 -0.28756,3.955153 -0.62524,1.23386 -0.65205,1.583114 -0.1424,1.855864 0.55813,0.298705 0.90661,1.26491 0.67598,1.874301 l -0.19006,0.502235 -0.2669,-0.575813 c -0.14682,-0.316697 -0.66468,-0.844267 -1.15085,-1.172378 -0.81352,-0.549033 -0.92911,-0.574244 -1.45073,-0.316429 -0.31173,0.154067 -0.84202,0.359761 -1.17845,0.457082 -0.33642,0.09732 -0.71844,0.391101 -0.84893,0.652847 -0.44619,0.894985 -0.69552,0.990644 -0.69552,0.266855 z"
       id="path126" /><path
       style="fill:#3f3121;fill-opacity:1;stroke-width:1.58212"
       d="m 81.283862,57.733627 c 0,-0.933976 0.39091,-1.545371 1.20317,-1.881825 0.44047,-0.182443 0.74779,-0.571495 1.13758,-1.440053 0.64787,-1.443647 0.68243,-2.062423 0.12341,-2.208619 -0.52588,-0.137519 -0.53446,-0.470187 -0.0127,-0.470187 0.2192,0 0.45372,-0.08923 0.52112,-0.198303 0.30399,-0.491868 -1.94068,-3.90859 -2.56782,-3.90859 -0.53368,0 -0.69625,-0.355853 -0.23015,-0.503783 0.27473,-0.08719 0.42356,-0.393379 0.5148,-1.058994 0.15584,-1.137254 0.72876,-1.990812 1.57007,-2.339292 0.86188,-0.357001 1.00301,-0.110163 0.33543,0.586642 -1.12788,1.177244 -0.91509,2.486813 0.65033,4.002217 0.697,0.674738 0.87654,0.756801 1.2355,0.564698 0.72907,-0.390188 0.88538,-0.245639 0.41799,0.386535 -0.38585,0.521901 -0.41678,0.688483 -0.21148,1.139057 0.34823,0.76428 0.29497,3.071577 -0.0998,4.323964 l -0.34027,1.079475 0.75096,0.70825 c 0.46978,0.44306 0.75097,0.897795 0.75097,1.214476 0,0.773157 -0.23416,0.841307 -0.63364,0.184419 -0.2178,-0.358149 -0.67346,-0.695913 -1.14725,-0.850398 -0.43225,-0.140951 -0.84684,-0.350266 -0.92128,-0.465149 -0.087,-0.134211 -0.49071,-0.06536 -1.1294,0.192609 -0.71604,0.289208 -1.08018,0.584411 -1.30206,1.055569 -0.40961,0.869831 -0.61603,0.832063 -0.61603,-0.11271 z"
       id="path125" /><path
       style="fill:#3f3121;fill-opacity:1;stroke-width:1.58212"
       d="m 45.989785,35.380279 c 0,-0.469158 -1.07554,-1.777171 -1.46367,-1.780031 -0.58497,-0.0043 -1.6938,0.725355 -1.88927,1.243237 -0.31866,0.844196 -0.54861,0.7522 -0.54861,-0.219473 0,-0.534907 0.12594,-0.926742 0.35935,-1.118378 0.19766,-0.162244 0.57901,-0.467393 0.84747,-0.678108 0.34775,-0.272948 0.44994,-0.503406 0.35534,-0.801431 -0.18949,-0.597039 -2.96936,-2.365608 -3.46904,-2.207017 -0.3463,0.10991 -0.37713,0.05026 -0.25694,-0.49696 0.0824,-0.375577 0.01,-0.996451 -0.18454,-1.567702 -0.17661,-0.520213 -0.32112,-1.450059 -0.32112,-2.066323 0,-0.898089 -0.0815,-1.171385 -0.41069,-1.376958 -0.57548,-0.359397 -0.51126,-0.56838 0.17465,-0.56838 0.48301,0 0.70076,-0.185668 1.24548,-1.061954 0.45591,-0.733392 0.62303,-1.209883 0.54015,-1.540085 -0.13511,-0.538238 -0.0607,-0.577758 0.46679,-0.248281 0.28899,0.180476 0.5513,0.136363 1.2211,-0.205344 0.46918,-0.239358 1.20495,-0.435194 1.63505,-0.435194 0.63131,0 0.84946,-0.108819 1.13212,-0.564698 l 0.35011,-0.564698 0.005,0.523779 c 0.005,0.414029 0.19643,0.616559 0.91685,0.966562 0.50125,0.24353 1.11926,0.723969 1.37335,1.067641 0.31225,0.422343 0.63804,0.62486 1.00517,0.62486 0.72904,0 0.89784,0.212721 0.42926,0.540929 -0.28975,0.202949 -0.40586,0.595502 -0.46888,1.58519 -0.0666,1.045809 -0.2018,1.470196 -0.65963,2.070447 -0.43352,0.568356 -0.54281,0.886785 -0.44209,1.288051 0.12926,0.515203 0.11786,0.522798 -0.34002,0.226973 -0.33821,-0.218482 -0.65009,-0.256677 -1.08984,-0.133468 -0.33882,0.09493 -0.99783,0.117299 -1.46446,0.04971 -0.5228,-0.07572 -0.90181,-0.03652 -0.98752,0.102142 -0.22012,0.356166 -0.55754,0.26165 -0.48995,-0.137249 0.0337,-0.199245 -0.1579,-0.670129 -0.4258,-1.04641 -0.52635,-0.739203 -0.66547,-2.135337 -0.2538,-2.54701 0.12831,-0.128342 0.23335,-0.423443 0.23335,-0.655782 0,-0.377568 0.10362,-0.414486 0.97539,-0.347586 1.06358,0.08162 1.48875,0.314572 1.48875,0.8157 0,0.251955 -0.0547,0.269184 -0.24642,0.07752 -0.39773,-0.397732 -0.95106,-0.284752 -1.31335,0.26816 -0.49891,0.761437 -0.079,1.669324 0.89673,1.938733 0.84367,0.232947 1.07372,0.143134 1.07372,-0.419204 0,-0.334669 0.0682,-0.369293 0.38913,-0.197541 0.54702,0.292756 0.90758,-0.205382 0.92872,-1.283066 0.0142,-0.743217 -0.0465,-0.870522 -0.44513,-0.927131 -0.50677,-0.07197 -0.57955,-0.248078 -0.24203,-0.585596 0.15647,-0.156424 0.0525,-0.352126 -0.35937,-0.677286 -0.47084,-0.37166 -0.77315,-0.441409 -1.61428,-0.372457 -1.24387,0.101968 -2.18406,0.728724 -2.88667,1.924343 -0.56467,0.960872 -0.66667,2.138078 -0.18528,2.138078 0.4054,0 0.39578,0.333074 -0.0142,0.490381 -0.82381,0.316127 0.50669,2.148577 2.11724,2.915989 1.48592,0.708029 2.23441,1.390298 2.71357,2.473541 0.29171,0.659466 0.5451,0.90602 1.12932,1.098826 0.7317,0.241484 1.13843,0.810335 1.13843,1.592228 0,0.270948 -0.085,0.250625 -0.4719,-0.112884 -0.25955,-0.243829 -0.74784,-0.498511 -1.0851,-0.565964 -0.60557,-0.121111 -0.61223,-0.112726 -0.53705,0.675662 0.0525,0.551055 -0.0248,0.882037 -0.24966,1.068672 -0.28311,0.234966 -0.32578,0.201215 -0.32578,-0.257721 z"
       id="path84" /></g></svg>
