<?xml version="1.0" encoding="UTF-8" standalone="no"?>
<!-- Created with Inkscape (http://www.inkscape.org/) -->

<svg
   width="100mm"
   height="100mm"
   viewBox="0 0 100 100"
   version="1.1"
   id="svg1"
   inkscape:version="1.4 (86a8ad7, 2024-10-11)"
   sodipodi:docname="decor5.svg"
   xml:space="preserve"
   xmlns:inkscape="http://www.inkscape.org/namespaces/inkscape"
   xmlns:sodipodi="http://sodipodi.sourceforge.net/DTD/sodipodi-0.dtd"
   xmlns="http://www.w3.org/2000/svg"
   xmlns:svg="http://www.w3.org/2000/svg"><sodipodi:namedview
     id="namedview1"
     pagecolor="#ffffff"
     bordercolor="#000000"
     borderopacity="0.25"
     inkscape:showpageshadow="2"
     inkscape:pageopacity="0.0"
     inkscape:pagecheckerboard="true"
     inkscape:deskcolor="#d1d1d1"
     inkscape:document-units="mm"
     inkscape:zoom="1.4378367"
     inkscape:cx="288.97579"
     inkscape:cy="190.21632"
     inkscape:window-width="1920"
     inkscape:window-height="1009"
     inkscape:window-x="1912"
     inkscape:window-y="-8"
     inkscape:window-maximized="1"
     inkscape:current-layer="layer1" /><defs
     id="defs1" /><g
     inkscape:label="Warstwa 1"
     inkscape:groupmode="layer"
     id="layer1"><path
       style="fill:#3f3121;fill-opacity:1;stroke-width:1.58212"
       d="m 81.30979,77.919153 c -0.40445,-1.364649 -2.22478,-1.54993 -3.42601,-0.348712 -0.3305,0.330513 -0.64001,0.600933 -0.68781,0.600933 -0.0478,0 -0.0869,-0.269002 -0.0869,-0.59778 0,-0.61849 0.96891,-1.661011 1.54373,-1.661011 0.1541,0 0.3362,-0.0907 0.40472,-0.201571 0.19427,-0.314324 -0.57173,-2.277555 -0.97305,-2.493947 -0.4878,-0.263014 -0.45319,-0.523523 0.0669,-0.503629 0.3164,0.01202 0.49746,-0.18814 0.70246,-0.776889 0.15188,-0.436257 0.5228,-1.05059 0.82419,-1.365186 0.47084,-0.491449 0.51416,-0.635245 0.30763,-1.021161 -0.32431,-0.605969 -0.12293,-0.745921 0.49289,-0.342455 0.48584,0.31834 0.52551,0.309593 0.93047,-0.205221 0.51341,-0.652708 0.52922,-1.066982 0.0769,-2.015467 -0.24894,-0.522009 -0.47945,-0.725674 -0.82138,-0.725674 -0.53365,0 -0.63858,-0.304108 -0.16731,-0.484946 0.20784,-0.07975 0.30801,-0.405938 0.30801,-1.003003 0,-0.83252 0.43367,-1.797564 0.8078,-1.797564 0.0927,0 0.12736,0.392721 0.0769,0.872715 -0.0775,0.739231 0.0206,1.044396 0.64127,1.995185 0.40301,0.617359 0.73276,1.194891 0.73276,1.283403 0,0.08852 0.28967,0.160934 0.64371,0.160934 h 0.64374 L 83.81035,67.7137 c -0.29758,0.234076 -0.54105,0.609772 -0.54105,0.834878 0,0.499606 -0.31231,1.114767 -0.96302,1.896849 -0.46455,0.558333 -0.47235,0.611486 -0.14303,0.975387 0.33442,0.369535 0.31867,0.384875 -0.39501,0.384875 -0.8614,0 -1.28337,0.54086 -1.0737,1.376229 0.16652,0.663475 2.00947,2.61681 2.76368,2.929215 0.56264,0.233046 1.04313,0.950044 1.04313,1.55654 0,0.412713 -0.33374,0.373446 -0.65573,-0.07714 -0.21759,-0.304515 -1.35211,-0.856563 -1.76032,-0.856563 -0.0528,0 -0.0451,0.194727 0.0172,0.432726 0.12404,0.474128 -0.16092,1.415376 -0.4284,1.415376 -0.0924,0 -0.25639,-0.29831 -0.36445,-0.66291 z"
       id="path195" /><path
       style="fill:#3f3121;fill-opacity:1;stroke-width:1.58212"
       d="m 50.039593,27.098998 c 0,-0.50476 -0.2656,-0.689418 -1.74543,-1.21349 -1.03273,-0.365735 -1.38108,-0.402646 -2.15308,-0.228139 -0.50656,0.114514 -1.08466,0.356286 -1.28467,0.537287 -0.47755,0.432173 -0.69219,0.189885 -0.44769,-0.505341 0.14176,-0.402946 0.44775,-0.642935 1.11628,-0.875349 l 0.92107,-0.320203 0.0494,-2.457493 c 0.0272,-1.351622 0.071,-2.845218 0.0976,-3.319102 0.0373,-0.668716 -0.0622,-0.979021 -0.44458,-1.386076 -0.86333,-0.918972 -2.16004,-0.526127 -2.03017,0.615053 0.0903,0.793282 0.9056,0.980627 1.16899,0.26861 l 0.17345,-0.468865 0.25056,0.468186 c 0.20541,0.383808 0.19158,0.558231 -0.0767,0.967781 -0.49296,0.75234 -1.55881,0.689728 -2.2504,-0.132203 -0.2924,-0.347483 -0.53163,-0.799622 -0.53163,-1.004754 0,-0.20513 -0.13859,-0.426153 -0.30801,-0.491161 -0.43185,-0.165714 -0.38467,-0.541776 0.068,-0.541776 0.2068,0 0.49418,-0.220842 0.63864,-0.490759 0.14445,-0.269918 0.48348,-0.608949 0.75341,-0.753405 0.34003,-0.181981 0.49076,-0.441193 0.49076,-0.843982 0,-0.667582 0.32089,-0.77706 0.51207,-0.174703 0.071,0.223647 0.51614,0.580717 0.98923,0.793485 0.47308,0.212771 1.07994,0.625911 1.34857,0.918088 l 0.4884,0.531234 1.00035,-0.843501 c 0.76459,-0.644716 1.00034,-0.981107 1.00034,-1.427392 0,-0.718072 0.13242,-0.731954 0.65426,-0.06857 0.22295,0.283425 0.47593,0.4717 0.56219,0.418388 0.34518,-0.213342 1.66156,0.345537 2.13272,0.905468 0.33205,0.394627 0.73424,0.617585 1.19393,0.66187 l 0.69319,0.06678 -0.66737,0.364118 c -0.50941,0.277935 -0.66737,0.501364 -0.66737,0.943979 0,0.318923 -0.27553,0.986487 -0.6123,1.483475 -0.33677,0.496987 -0.61397,1.039681 -0.61603,1.205986 -0.003,0.210201 -0.0954,0.171529 -0.30439,-0.126871 -0.16536,-0.236081 -0.57698,-0.484504 -0.91473,-0.552055 -0.84655,-0.169309 -1.38428,-1.010788 -1.07694,-1.685306 0.2692,-0.590823 0.86748,-0.70008 0.71873,-0.131253 -0.14445,0.552245 0.41371,0.944083 0.94201,0.661348 0.9523,-0.509657 0.58661,-2.267113 -0.47174,-2.267113 -0.73986,0 -2.08014,1.096953 -2.56563,2.099826 -0.57275,1.18314 -0.55259,1.512032 0.1196,1.950997 l 0.5575,0.364086 -0.7115,0.10268 -0.71151,0.102664 0.0729,1.129395 c 0.0734,1.136713 0.31018,1.821009 0.72784,2.103693 0.12436,0.08411 0.72601,0.138657 1.33718,0.121238 0.92966,-0.0265 1.17294,0.04451 1.48876,0.434529 0.20763,0.256413 0.37752,0.548373 0.37752,0.6488 0,0.247526 -0.35609,0.231746 -0.51337,-0.02275 -0.0698,-0.112932 -0.30561,-0.205344 -0.524,-0.205344 -0.329,0 -0.3918,0.13524 -0.3662,0.788599 0.0169,0.433728 -0.0353,0.895754 -0.11629,1.026722 -0.22676,0.366923 -0.53361,0.282151 -0.53361,-0.147422 z"
       id="path194" /><path
       style="fill:#3f3121;fill-opacity:1;stroke-width:1.58212"
       d="m 50.888526,84.457182 c 0,-0.881802 0.37468,-1.525568 1.18598,-2.037715 0.93209,-0.588411 2.42109,-2.783466 2.6168,-3.857688 0.15694,-0.860938 -0.12293,-1.525378 -0.72239,-1.715647 -0.59462,-0.188727 -1.23228,0.07104 -1.23228,0.501987 0,0.386783 0.44368,0.870269 0.74842,0.815572 0.41911,-0.07523 0.51631,0.03834 0.2783,0.325129 -0.68243,0.822277 -2.05345,-0.0016 -2.05345,-1.233937 0,-0.934385 0.93316,-1.988623 1.60478,-1.812992 0.52361,0.136933 0.5916,-0.172344 0.1234,-0.560984 -0.66413,-0.551174 -1.51466,-2.018788 -1.64601,-2.84022 -0.16864,-1.054547 0.34418,-2.510629 1.09114,-3.098185 0.75336,-0.592594 0.94105,-0.510129 0.55185,0.242476 -0.87835,1.698537 -0.74153,2.719641 0.53086,3.962102 0.64116,0.626071 0.87827,0.74958 1.07034,0.557516 0.39952,-0.399527 0.59254,-0.284386 0.4533,0.270403 -0.0902,0.359108 0.0498,0.860925 0.45812,1.642269 0.52858,1.011618 0.65523,1.125195 1.25527,1.125635 0.82302,6.01e-4 0.84868,0.215525 0.0801,0.669612 -0.46068,0.272134 -0.61428,0.543043 -0.71197,1.255881 -0.0685,0.499894 -0.37554,1.51999 -0.68226,2.266879 l -0.55768,1.357981 0.65362,0.674366 c 0.45813,0.472681 0.65362,0.871033 0.65362,1.33196 0,0.801381 -0.2948,0.849619 -0.65617,0.107378 -0.14729,-0.302622 -0.6736,-0.763832 -1.16947,-1.024912 -0.89023,-0.468713 -0.91449,-0.470188 -1.92496,-0.11714 -0.78058,0.272721 -1.0994,0.515862 -1.3439,1.024912 -0.38018,0.791577 -0.65516,0.861825 -0.65516,0.167376 z"
       id="path90" /></g></svg>
