<?xml version="1.0" encoding="UTF-8" standalone="no"?>
<!-- Created with Inkscape (http://www.inkscape.org/) -->

<svg
   width="100mm"
   height="100mm"
   viewBox="0 0 100 100"
   version="1.1"
   id="svg1"
   inkscape:version="1.4 (86a8ad7, 2024-10-11)"
   sodipodi:docname="decor2.svg"
   xml:space="preserve"
   xmlns:inkscape="http://www.inkscape.org/namespaces/inkscape"
   xmlns:sodipodi="http://sodipodi.sourceforge.net/DTD/sodipodi-0.dtd"
   xmlns="http://www.w3.org/2000/svg"
   xmlns:svg="http://www.w3.org/2000/svg"><sodipodi:namedview
     id="namedview1"
     pagecolor="#ffffff"
     bordercolor="#000000"
     borderopacity="0.25"
     inkscape:showpageshadow="2"
     inkscape:pageopacity="0.0"
     inkscape:pagecheckerboard="true"
     inkscape:deskcolor="#d1d1d1"
     inkscape:document-units="mm"
     inkscape:zoom="0.50835205"
     inkscape:cx="380.64172"
     inkscape:cy="451.45879"
     inkscape:window-width="1920"
     inkscape:window-height="1009"
     inkscape:window-x="1912"
     inkscape:window-y="-8"
     inkscape:window-maximized="1"
     inkscape:current-layer="layer1" /><defs
     id="defs1" /><g
     inkscape:label="Warstwa 1"
     inkscape:groupmode="layer"
     id="layer1"><path
       style="fill:#3c7d4f;fill-opacity:1"
       d="m 74.905196,33.602101 c 0.19488,-1.598828 -0.0499,-3.934679 -0.57964,-5.530283 -0.20998,-0.632538 -0.81442,-2.077108 -1.3432,-3.210156 -1.86224,-3.990304 -2.12924,-4.777661 -2.20642,-6.506526 -0.0663,-1.485998 -0.0364,-1.649505 0.50129,-2.741819 1.16458,-2.36559 4.04899,-3.568548 6.20697,-2.588641 1.91639,0.870206 2.96773,2.483295 2.98037,4.572837 0.009,1.48078 -0.27124,2.141434 -1.25061,2.948718 -0.58629,0.48327 -0.80848,0.553451 -1.75033,0.552866 -1.31675,-8.17e-4 -2.05054,-0.395904 -2.5019,-1.347075 -0.63711,-1.342616 -0.0539,-2.923654 1.19016,-3.226448 0.3758,-0.09146 0.58547,-0.01585 0.94048,0.339153 0.25127,0.251272 0.45686,0.621747 0.45686,0.823278 0,0.423332 -0.0622,0.442491 -0.51612,0.159008 -0.46022,-0.287411 -0.91699,-0.06688 -0.91699,0.44273 0,0.832386 1.11581,1.31963 1.8069,0.789026 1.11759,-0.858056 0.8289,-2.734117 -0.53903,-3.502937 -0.37931,-0.213188 -0.82297,-0.387615 -0.9859,-0.387615 -0.48938,0 -1.62042,0.655395 -2.38056,1.379437 -0.58253,0.554872 -0.75487,0.879265 -0.93266,1.755476 -0.18449,0.909219 -0.17587,1.174826 0.0559,1.723841 0.15072,0.356957 0.22926,0.693794 0.17453,0.748526 -0.0547,0.05473 -0.0451,0.347187 0.0214,0.649899 0.11461,0.521846 0.14079,0.536444 0.50475,0.281517 0.98837,-0.692281 1.3339,-0.06384 0.57763,1.050577 -0.35561,0.524032 -0.40952,0.741102 -0.27314,1.099825 0.19619,0.516005 0.39757,0.562165 0.72601,0.166415 0.26184,-0.315493 1.12173,-0.794309 1.42648,-0.794309 0.29428,0 0.053,0.68315 -0.55649,1.575517 -0.42197,0.617814 -0.48857,0.838393 -0.33807,1.119611 0.22796,0.425936 0.13295,0.427835 1.1522,-0.02303 0.46408,-0.205284 0.88475,-0.332277 0.93482,-0.282206 0.18308,0.183083 -0.14346,0.797521 -0.74186,1.395921 -0.7511,0.751099 -0.63987,1.219955 0.18711,0.788701 1.22114,-0.636804 1.52626,-0.12551 0.52351,0.877247 -0.78663,0.786625 -0.78886,0.997201 -0.0106,0.997201 0.85064,0 0.94231,0.276326 0.29292,0.882951 -0.73674,0.688217 -0.74297,1.266704 -0.0136,1.266704 0.73269,0 0.73874,0.603242 0.01,0.980172 -0.45587,0.235737 -0.535,0.38855 -0.5822,1.124212 l -0.0546,0.851391 -1.17769,0.05225 -1.17769,0.05225 z"
       id="path69" /><path
       style="fill:#3c7d4f;fill-opacity:1"
       d="m 71.933878,33.988836 c -0.45613,-1.970934 -1.265,-3.275357 -2.98778,-4.81825 -2.54588,-2.280045 -2.88425,-2.670829 -3.18264,-3.675621 -0.33999,-1.144844 -0.13008,-2.114907 0.61992,-2.864907 0.67823,-0.678227 2.05352,-0.728059 2.78272,-0.100828 0.95048,0.817564 0.84015,2.784349 -0.17789,3.171409 -0.54309,0.206484 -1.25207,-0.01656 -1.41675,-0.445703 -0.34423,-0.897067 0.0803,-1.524029 0.60439,-0.892552 0.26789,0.322788 0.71471,0.05011 0.71471,-0.436161 0,-0.458462 -0.36986,-0.730444 -0.99332,-0.730444 -1.23955,0 -1.57464,1.518432 -0.62454,2.830017 0.73077,1.008795 1.041,1.1459 1.90017,0.839784 0.38662,-0.137751 1.01508,-0.253994 1.39657,-0.258319 0.67894,-0.0077 0.68801,6.65e-4 0.42846,0.395198 -0.14583,0.221683 -0.49827,0.523978 -0.78318,0.671767 -0.28492,0.147788 -0.55354,0.290779 -0.59694,0.317756 -0.0434,0.02698 0.048,0.175918 0.20302,0.330979 0.22036,0.220356 0.36217,0.238987 0.64933,0.0853 0.44695,-0.239199 1.64492,-0.261254 1.64492,-0.03028 0,0.246746 -0.48796,0.689507 -0.90618,0.822246 -0.66291,0.210397 -0.0479,0.623652 0.92811,0.623652 0.48057,0 0.87376,0.06812 0.87376,0.151374 0,0.223142 -0.61911,0.744316 -0.88418,0.744316 -0.14927,0 -0.18273,0.109134 -0.0961,0.313491 0.41179,0.971603 0.61565,1.721152 0.75887,2.790089 0.15497,1.15666 0.14751,1.195729 -0.22842,1.195729 -0.32604,0 -0.42701,-0.165869 -0.62701,-1.030043 z"
       id="path68" /><path
       style="fill:#3c7d4f;fill-opacity:1"
       d="m 79.613803,34.560007 c 10e-4,-0.221684 0.12457,-0.920331 0.27359,-1.55255 l 0.27095,-1.149489 -0.45273,-0.472554 c -0.61045,-0.637172 -0.57027,-0.783579 0.17658,-0.643468 0.9011,0.169046 1.057,-0.31877 0.29299,-0.916703 -0.82084,-0.642398 -0.75214,-0.957047 0.16399,-0.751204 1.23261,0.276947 1.43519,-0.173672 0.43637,-0.970633 -0.34484,-0.275147 -0.62698,-0.577442 -0.62698,-0.671767 0,-0.26073 0.74172,-0.202879 1.32963,0.103705 0.41913,0.218568 0.55252,0.227277 0.66902,0.04368 0.23181,-0.365303 0.1807,-0.536998 -0.31338,-1.052709 -0.25542,-0.266596 -0.4368,-0.610466 -0.40306,-0.764157 0.0537,-0.244567 0.16137,-0.234438 0.86304,0.08118 0.75075,0.337692 0.81589,0.341219 1.02481,0.0555 0.18822,-0.257405 0.13989,-0.39989 -0.30908,-0.91124 -0.82754,-0.942512 -0.63223,-1.235419 0.44813,-0.672079 0.48654,0.253701 0.55132,0.251878 0.75095,-0.02114 0.12016,-0.164333 0.27316,-0.73642 0.33999,-1.271305 0.15291,-1.223865 -0.27722,-2.495023 -0.94762,-2.800475 -0.3898,-0.177605 -0.49375,-0.149607 -0.7864,0.211805 -0.18548,0.229056 -0.33213,0.588911 -0.32588,0.799679 0.0112,0.378306 0.0134,0.378052 0.17336,-0.01985 0.2149,-0.53464 0.60131,-0.509419 1.05625,0.06894 0.46743,0.59425 0.46897,0.967817 0.006,1.464735 -0.51686,0.554785 -1.42007,0.522705 -1.9771,-0.07022 -0.34399,-0.366171 -0.43428,-0.654798 -0.43428,-1.388319 0,-1.843375 1.51816,-2.834319 3.24588,-2.118673 0.93188,0.385998 1.23227,1.135142 1.23243,3.073579 1.3e-4,1.576535 -0.0411,1.774616 -0.56045,2.690847 -0.30832,0.54397 -0.9998,1.601209 -1.53662,2.349421 -1.61528,2.251363 -2.4497,4.128627 -2.68516,6.041043 l -0.20162,1.637479 h -0.59813 c -0.50165,0 -0.59771,-0.06502 -0.59549,-0.40306 z"
       id="path53" /><path
       style="fill:#3c7d4f;fill-opacity:1"
       d="m 44.053423,87.122454 c 0.004,-2.28404 0.8201,-6.1697 1.46492,-6.97439 0.11425,-0.14259 0.0463,-0.33544 -0.20759,-0.58935 -0.40711,-0.40711 -0.79021,-1.2497 -0.63759,-1.40232 0.0981,-0.0981 0.68314,0.16355 1.21002,0.54125 0.5456,0.39112 0.75135,-0.069 0.34631,-0.77446 -0.19215,-0.33469 -0.40339,-0.78991 -0.46941,-1.01159 -0.16936,-0.5687 0.42828,-0.54136 0.97894,0.0448 0.50892,0.54172 0.65743,0.55806 0.80639,0.0887 0.0728,-0.22927 -0.02,-0.52947 -0.25664,-0.83028 -0.48984,-0.62273 -0.50381,-1.31982 -0.0239,-1.19433 0.19067,0.0499 0.48531,0.24384 0.65475,0.43107 0.16944,0.18723 0.37629,0.34042 0.45967,0.34042 0.0834,0 0.39333,-0.51164 0.68879,-1.13696 0.7529,-1.59352 0.72783,-2.44495 -0.10179,-3.45739 -0.63022,-0.7691 -1.07338,-0.93635 -1.77136,-0.66851 -0.42055,0.16138 -0.86046,1.1129 -0.73874,1.59788 0.13355,0.53211 0.76769,0.749 1.13016,0.38653 0.30284,-0.30284 0.16937,-0.66259 -0.24581,-0.66259 -0.45262,0 -0.16092,-0.44367 0.33029,-0.50235 1.03517,-0.12367 1.43076,1.32558 0.58,2.12483 -0.54342,0.51052 -1.61137,0.55874 -2.30525,0.10409 -0.94179,-0.61709 -0.96743,-2.50122 -0.0492,-3.6152 1.00037,-1.21362 2.48028,-1.49083 3.80725,-0.71317 1.00908,0.59135 1.5364,1.51893 1.64942,2.90136 0.0788,0.96433 0.0213,1.25331 -0.45006,2.26061 -0.29725,0.63521 -1.22587,2.07234 -2.06359,3.19363 -1.42975,1.91371 -2.27949,3.30542 -2.27949,3.73337 0,0.10246 0.22168,0.18751 0.49263,0.18902 0.27095,0.002 0.59721,0.0691 0.72503,0.15017 0.34206,0.21698 -0.18026,0.59716 -1.00312,0.73013 -0.50869,0.0822 -0.67567,0.2 -0.71963,0.50769 -0.0512,0.35852 0.0194,0.40065 0.67177,0.40065 0.40096,0 0.72901,0.0707 0.72901,0.1572 0,0.26804 -0.513,0.59959 -1.12072,0.72432 l -0.58109,0.11927 v 1.82863 1.82863 l -0.8509,-2.3e-4 -0.85091,-2.4e-4 z"
       id="path17" /><path
       style="fill:#3c7d4f;fill-opacity:1"
       d="m 41.022863,87.212054 c 0.081,-0.41874 0.15079,-1.51372 0.15508,-2.4333 0.0106,-2.28203 -0.46263,-4.01499 -1.97451,-7.22983 -2.21202,-4.70358 -2.57427,-6.4886 -1.75902,-8.66757 0.91873,-2.45551 3.60219,-3.62501 5.69907,-2.48375 2.03758,1.10899 2.62462,4.043 1.07057,5.35066 -0.67421,0.5673 -1.224,0.71603 -2.06424,0.5584 -1.00331,-0.18822 -1.50148,-0.80298 -1.50148,-1.85288 0,-1.05558 0.36409,-1.46901 1.29369,-1.46901 0.63472,0 0.85597,0.21782 0.85597,0.8427 0,0.22899 -0.0473,0.23674 -0.2777,0.0455 -0.40382,-0.33514 -0.97072,0.22856 -0.68646,0.68258 0.56646,0.90476 1.99955,0.005 1.78472,-1.12014 -0.11946,-0.6258 -1.02409,-1.5255 -1.53386,-1.5255 -0.40253,0 -1.6155,0.54443 -1.6155,0.7251 0,0.0667 -0.24183,0.42564 -0.53741,0.79757 -0.3233,0.40682 -0.54243,0.89839 -0.55001,1.23381 -0.007,0.30667 -0.0772,0.71879 -0.15624,0.91585 -0.0887,0.2213 -0.0497,0.54321 0.10216,0.84201 0.1352,0.26605 0.24581,0.83705 0.24581,1.26889 0,0.97735 0.0963,1.07603 0.73037,0.74816 0.27819,-0.14386 0.59042,-0.26156 0.69384,-0.26156 0.32947,0 0.20277,0.64483 -0.26095,1.32817 -0.37531,0.55304 -0.41542,0.72619 -0.24445,1.05504 0.30356,0.58386 0.29992,0.58351 0.82966,0.0797 0.26991,-0.25674 0.72136,-0.52383 1.0032,-0.59353 0.47723,-0.11803 0.50337,-0.0974 0.38037,0.30071 -0.21629,0.69999 -0.56412,1.3029 -0.95657,1.65806 -0.35187,0.31844 -0.35483,0.35327 -0.0631,0.74481 0.26317,0.35323 0.34456,0.37633 0.58128,0.16497 0.15139,-0.13517 0.57461,-0.37085 0.94047,-0.52372 0.60403,-0.25238 0.66521,-0.25192 0.66521,0.005 0,0.44384 -0.36087,1.02482 -0.94475,1.52097 -0.42213,0.35872 -0.50851,0.5423 -0.40645,0.86386 0.0928,0.29249 0.21396,0.373 0.42691,0.28378 0.99608,-0.41731 1.28063,-0.50041 1.37851,-0.40253 0.19746,0.19746 -0.46117,1.22858 -0.9176,1.43655 -0.30789,0.14028 -0.40852,0.29054 -0.32473,0.48486 0.17227,0.39949 0.31721,4.38107 0.17947,4.92989 -0.10793,0.43 -0.18219,0.45712 -1.25166,0.45712 h -1.13693 z"
       id="path16" /><path
       style="fill:#3c7d4f;fill-opacity:1"
       d="m 39.573503,87.333954 c 0,-0.35169 -0.25733,-1.25858 -0.57185,-2.0153 -0.58973,-1.4189 -1.14729,-2.0741 -4.00759,-4.70938 -1.30371,-1.20115 -1.71597,-1.99382 -1.71597,-3.29933 0,-1.598 0.86923,-2.59276 2.26558,-2.59276 1.31727,0 2.425,1.78574 1.85084,2.98369 -0.32868,0.68577 -1.12389,1.06075 -1.69637,0.79991 -0.54758,-0.24949 -0.85019,-0.99309 -0.59681,-1.46654 0.24012,-0.44866 0.47719,-0.44045 0.62384,0.0216 0.13024,0.41036 0.41381,0.38793 0.69309,-0.0548 0.13808,-0.21889 0.10056,-0.38499 -0.14932,-0.6611 -0.57534,-0.63575 -1.57965,-0.38006 -1.90893,0.486 -0.24573,0.64631 0.19133,1.75769 0.98597,2.50722 0.59933,0.5653 0.62106,0.57067 1.24859,0.30847 0.35125,-0.14676 1.01803,-0.26684 1.48173,-0.26684 h 0.8431 l -0.40719,0.43345 c -0.22396,0.23839 -0.64107,0.53031 -0.92692,0.64871 -0.56203,0.2328 -0.62379,0.35436 -0.32952,0.64863 0.13418,0.13418 0.40805,0.11515 0.92978,-0.0646 0.95743,-0.32986 1.65034,-0.18594 1.39568,0.28989 -0.0986,0.18427 -0.43319,0.42354 -0.74351,0.53172 -0.46793,0.16312 -0.52704,0.24146 -0.34643,0.45908 0.14313,0.17247 0.39435,0.22708 0.73297,0.15936 1.30414,-0.26083 1.76151,0.37933 0.67313,0.94215 -0.37445,0.19364 -0.47725,0.33522 -0.35285,0.486 0.34559,0.41893 0.92465,2.45577 0.92465,3.25246 0,0.74647 -0.036,0.81177 -0.44784,0.81177 -0.39406,0 -0.44785,-0.0768 -0.44785,-0.63943 z"
       id="path15" /></g></svg>
