<?xml version="1.0" encoding="UTF-8" standalone="no"?>
<!-- Created with Inkscape (http://www.inkscape.org/) -->

<svg
   width="100mm"
   height="100mm"
   viewBox="0 0 100 100"
   version="1.1"
   id="svg1"
   inkscape:version="1.4 (86a8ad7, 2024-10-11)"
   sodipodi:docname="decor8.svg"
   xml:space="preserve"
   xmlns:inkscape="http://www.inkscape.org/namespaces/inkscape"
   xmlns:sodipodi="http://sodipodi.sourceforge.net/DTD/sodipodi-0.dtd"
   xmlns="http://www.w3.org/2000/svg"
   xmlns:svg="http://www.w3.org/2000/svg"><sodipodi:namedview
     id="namedview1"
     pagecolor="#ffffff"
     bordercolor="#000000"
     borderopacity="0.25"
     inkscape:showpageshadow="2"
     inkscape:pageopacity="0.0"
     inkscape:pagecheckerboard="true"
     inkscape:deskcolor="#d1d1d1"
     inkscape:document-units="mm"
     inkscape:zoom="1.4378367"
     inkscape:cx="288.97579"
     inkscape:cy="190.21632"
     inkscape:window-width="1920"
     inkscape:window-height="1009"
     inkscape:window-x="1912"
     inkscape:window-y="-8"
     inkscape:window-maximized="1"
     inkscape:current-layer="layer1" /><defs
     id="defs1" /><g
     inkscape:label="Warstwa 1"
     inkscape:groupmode="layer"
     id="layer1"><path
       style="fill:#3f3121;fill-opacity:1;stroke-width:1.58212"
       d="m 44.069601,33.25197 c 0.16598,-0.829897 0.44494,-1.155988 1.29152,-1.509705 0.37604,-0.157121 0.68371,-0.36966 0.68371,-0.472308 0,-0.102649 -0.32342,-0.807116 -0.71871,-1.565485 -0.8085,-1.551125 -0.9512,-2.973241 -0.40445,-4.030541 0.24228,-0.468522 0.26198,-0.705347 0.0861,-1.034113 -0.28891,-0.539845 -0.14223,-0.692699 0.39104,-0.40733 0.53368,0.285616 0.60675,0.142375 0.58558,-1.147995 -0.0163,-0.989025 0.27715,-1.710748 0.69544,-1.710748 0.0957,0 0.16177,0.32383 0.14682,0.719624 -0.0366,0.972243 0.14888,1.088278 0.53778,0.33638 0.44864,-0.867604 0.40192,-1.59689 -0.18277,-2.85277 -0.59633,-1.280877 -0.28879,-1.466979 0.65253,-0.394864 0.45619,0.519567 0.6949,0.645976 0.99666,0.527794 0.68088,-0.266651 0.78245,-0.199722 0.3773,0.248628 -0.30011,0.332113 -0.37467,0.668911 -0.32028,1.446684 0.0546,0.780765 -0.0549,1.270899 -0.47636,2.132346 -0.67513,1.379897 -0.56909,1.94109 0.36797,1.947637 0.65186,0.0046 0.65242,0.0055 0.21444,0.359352 -0.283,0.228669 -0.48815,0.701171 -0.57713,1.329199 -0.0826,0.583247 -0.34471,1.220009 -0.65285,1.586207 l -0.51479,0.611796 0.66427,0.826593 c 0.36535,0.454626 0.73412,0.826593 0.8195,0.826593 0.0854,0 0.43953,0.239227 0.78701,0.531614 0.51738,0.435355 0.63179,0.684933 0.63179,1.378321 v 0.846703 l -0.56471,-0.663525 c -0.34644,-0.407079 -0.91244,-0.761992 -1.46448,-0.918298 -0.83808,-0.237301 -0.98232,-0.215157 -2.10345,0.322931 -0.662,0.317736 -1.29992,0.757562 -1.41756,0.97739 -0.34362,0.642071 -0.6787,0.48578 -0.53193,-0.24811 z"
       id="path149" /><path
       style="fill:#3f3121;fill-opacity:1;stroke-width:1.58212"
       d="m 67.541413,69.594297 c -0.22181,-0.717794 -0.43728,-0.965365 -1.2232,-1.405337 -0.59795,-0.334746 -0.92184,-0.402002 -1.28013,-0.265781 -0.2638,0.100306 -0.70985,0.182371 -0.99121,0.182371 -0.31434,0 -0.74461,0.255149 -1.11603,0.661787 l -0.60445,0.661802 V 68.79504 c 0,-0.794369 0.70387,-1.716225 1.31039,-1.716225 0.97657,0 1.17797,-0.386164 1.03026,-1.97536 -0.12562,-1.350975 -0.18286,-1.487291 -0.77609,-1.846433 l -0.64052,-0.387762 0.71692,-0.06803 c 0.7879,-0.07483 1.02061,-0.30633 1.02537,-1.020216 0.008,-1.182764 -1.31637,-2.502888 -2.51233,-2.504517 -0.65614,-8.86e-4 -0.73931,-0.303546 -0.16751,-0.609577 0.94995,-0.508399 2.57805,-0.05063 3.40555,0.957549 l 0.41455,0.505061 0.57981,-0.537352 c 0.31891,-0.295557 0.53395,-0.649367 0.47787,-0.786252 -0.47353,-1.15601 -0.4842,-1.104939 0.14476,-0.692875 0.56586,0.37077 0.58194,0.369251 1.09466,-0.103155 0.72461,-0.667751 1.08345,-1.617041 1.08345,-2.866206 0,-1.049312 0.006,-1.059675 0.40744,-0.696403 0.24329,0.220152 0.4596,0.761808 0.53687,1.344298 0.10363,0.780826 0.23746,1.029915 0.67061,1.247773 l 0.5412,0.272189 -0.65744,0.0704 c -0.43456,0.04652 -0.70088,0.207274 -0.78563,0.474289 -0.0706,0.222178 -0.46771,0.80152 -0.88265,1.287438 -1.42994,1.674503 -2.39738,2.86002 -2.4575,3.011476 -0.0331,0.08354 0.17476,0.21085 0.46203,0.282963 0.68977,0.173116 0.66626,0.49011 -0.0424,0.571653 -0.45268,0.05205 -0.57825,0.183874 -0.63303,0.664318 -0.0924,0.810854 0.33293,2.254114 0.81768,2.774427 0.23088,0.247824 0.65351,0.425101 1.01341,0.425101 0.38169,0 0.80978,0.192418 1.12139,0.504033 0.59344,0.593423 0.67405,1.051084 0.14461,0.821391 -0.19764,-0.08575 -0.6641,-0.198683 -1.03656,-0.250941 -0.64282,-0.09018 -0.67036,-0.06772 -0.54243,0.441982 0.25781,1.027178 -0.35402,2.161292 -0.64972,1.204344 z"
       id="path147" /></g></svg>
