<?xml version="1.0" encoding="UTF-8" standalone="no"?>
<!-- Created with Inkscape (http://www.inkscape.org/) -->

<svg
   width="100mm"
   height="100mm"
   viewBox="0 0 100 100"
   version="1.1"
   id="svg1"
   inkscape:version="1.4 (86a8ad7, 2024-10-11)"
   sodipodi:docname="bush1.svg"
   xml:space="preserve"
   xmlns:inkscape="http://www.inkscape.org/namespaces/inkscape"
   xmlns:sodipodi="http://sodipodi.sourceforge.net/DTD/sodipodi-0.dtd"
   xmlns="http://www.w3.org/2000/svg"
   xmlns:svg="http://www.w3.org/2000/svg"><sodipodi:namedview
     id="namedview1"
     pagecolor="#ffffff"
     bordercolor="#000000"
     borderopacity="0.25"
     inkscape:showpageshadow="2"
     inkscape:pageopacity="0.0"
     inkscape:pagecheckerboard="true"
     inkscape:deskcolor="#d1d1d1"
     inkscape:document-units="mm"
     inkscape:zoom="2.0334082"
     inkscape:cx="169.66589"
     inkscape:cy="123.68397"
     inkscape:window-width="1920"
     inkscape:window-height="1009"
     inkscape:window-x="1912"
     inkscape:window-y="-8"
     inkscape:window-maximized="1"
     inkscape:current-layer="layer1" /><defs
     id="defs1" /><g
     inkscape:label="Warstwa 1"
     inkscape:groupmode="layer"
     id="layer1"><path
       style="fill:#4e5a32;stroke-width:0.887893"
       d="M 28.252821,72.032108 H 70.760255 C 77.562528,69.21542 79.507403,65.021377 74.836326,57.830315 75.440542,53.260417 76.112773,42.411532 62.847615,41.857792 60.789996,35.736682 45.372809,33.671733 40.029772,41.277517 32.432802,38.424619 23.751453,43.398085 24.756539,51.722474 19.052205,59.420003 18.19355,67.539647 28.252821,72.032108 Z"
       id="path2"
       sodipodi:nodetypes="ccccccc" /><path
       style="fill:none;stroke:#495232;stroke-width:1;stroke-opacity:1"
       d="m 28.289015,57.816864 c 0,-10.120818 -5.520444,-15.733271 -5.520444,-15.733271"
       id="path3" /><path
       style="fill:none;stroke:#495232;stroke-width:1;stroke-opacity:1"
       d="m 35.108389,48.64007 c 0,-10.120818 -4.048325,-15.733271 -4.048325,-15.733271"
       id="path3-4"
       sodipodi:nodetypes="cc" /><path
       style="fill:none;stroke:#495232;stroke-width:0.88377;stroke-opacity:1"
       d="m 47.426054,42.466613 c 0,-7.794217 -2.892719,-13.533595 -2.892719,-13.533595"
       id="path3-7"
       sodipodi:nodetypes="cc" /><path
       style="fill:none;stroke:#495232;stroke-width:1;stroke-opacity:1"
       d="m 71.873538,60.418013 c 0,-10.120818 4.600374,-15.825278 4.600374,-15.825278"
       id="path3-2"
       sodipodi:nodetypes="cc" /><path
       style="fill:none;stroke:#495232;stroke-width:1;stroke-opacity:1"
       d="m 66.587645,50.995023 c 0,-10.120818 4.600374,-15.825278 4.600374,-15.825278"
       id="path3-2-4"
       sodipodi:nodetypes="cc" /><path
       style="fill:none;stroke:#495232;stroke-width:1;stroke-opacity:1"
       d="m 57.028825,44.794721 c 0,-10.120818 4.600374,-15.825278 4.600374,-15.825278"
       id="path3-2-4-2"
       sodipodi:nodetypes="cc" /><path
       style="fill:#85a5c8;fill-opacity:1;stroke:none;stroke-width:0.697778;stroke-opacity:1"
       d="m 23.038139,40.70572 c 2.417345,-1.32058 1.712213,0.215573 1.395952,1.395952 0.981016,2.013188 0.348993,2.343204 -1.452697,1.452697 -2.138944,0.8762 -2.321646,0.158621 -1.441348,-1.441348 -0.439715,-1.268317 -0.842477,-2.505185 1.498093,-1.407301 z"
       id="path4"
       sodipodi:nodetypes="ccccc" /><path
       style="fill:#85a5c8;fill-opacity:1;stroke:none;stroke-width:0.697778;stroke-opacity:1"
       d="m 31.488367,31.434009 c 2.417345,-1.32058 1.712213,0.215573 1.395952,1.395952 0.981016,2.013188 0.348993,2.343204 -1.452697,1.452697 -2.138944,0.8762 -2.321646,0.158621 -1.441348,-1.441348 -0.439715,-1.268317 -0.842477,-2.505185 1.498093,-1.407301 z"
       id="path4-1"
       sodipodi:nodetypes="ccccc" /><path
       style="fill:#85a5c8;fill-opacity:1;stroke:none;stroke-width:0.697778;stroke-opacity:1"
       d="m 44.591763,27.760271 c 2.417345,-1.32058 1.712213,0.215573 1.395952,1.395952 0.981016,2.013188 0.348993,2.343204 -1.452697,1.452697 -2.138944,0.8762 -2.321646,0.158621 -1.441348,-1.441348 -0.439715,-1.268317 -0.842477,-2.505185 1.498093,-1.407301 z"
       id="path4-7"
       sodipodi:nodetypes="ccccc" /><path
       style="fill:none;stroke:#495232;stroke-width:0.88377;stroke-opacity:1"
       d="m 51.671817,47.667266 c 0,-7.794217 1.063601,-14.637684 1.063601,-14.637684"
       id="path3-7-7"
       sodipodi:nodetypes="cc" /><path
       style="fill:#85a5c8;fill-opacity:1;stroke:none;stroke-width:0.697778;stroke-opacity:1"
       d="m 52.701838,31.120775 c 2.417345,-1.32058 1.712213,0.215573 1.395952,1.395952 0.981016,2.013188 0.348993,2.343204 -1.452697,1.452697 -2.138944,0.8762 -2.321646,0.158621 -1.441348,-1.441348 -0.439715,-1.268317 -0.842477,-2.505185 1.498093,-1.407301 z"
       id="path4-7-7"
       sodipodi:nodetypes="ccccc" /><path
       style="fill:none;stroke:#495232;stroke-width:0.88377;stroke-opacity:1"
       d="m 43.756698,51.600708 c 0,-7.794217 -1.512607,-11.877461 -1.512607,-11.877461"
       id="path3-7-7-9"
       sodipodi:nodetypes="cc" /><path
       style="fill:#85a5c8;fill-opacity:1;stroke:none;stroke-width:0.697778;stroke-opacity:1"
       d="m 42.210511,37.81444 c 2.417345,-1.32058 1.712213,0.215573 1.395952,1.395952 0.981016,2.013188 0.348993,2.343204 -1.452697,1.452697 -2.138944,0.8762 -2.321646,0.158621 -1.441348,-1.441348 -0.439715,-1.268317 -0.842477,-2.505185 1.498093,-1.407301 z"
       id="path4-7-7-8"
       sodipodi:nodetypes="ccccc" /><path
       style="fill:#85a5c8;fill-opacity:1;stroke:none;stroke-width:0.697778;stroke-opacity:1"
       d="m 62.054263,28.289438 c 2.417345,-1.32058 1.712213,0.215573 1.395952,1.395952 0.981016,2.013188 0.348993,2.343204 -1.452697,1.452697 -2.138944,0.8762 -2.321646,0.158621 -1.441348,-1.441348 -0.439715,-1.268317 -0.842477,-2.505185 1.498093,-1.407301 z"
       id="path4-3"
       sodipodi:nodetypes="ccccc" /><path
       style="fill:#85a5c8;fill-opacity:1;stroke:none;stroke-width:0.697778;stroke-opacity:1"
       d="m 71.314679,34.374855 c 2.417345,-1.32058 1.712213,0.215573 1.395952,1.395952 0.981016,2.013188 0.348993,2.343204 -1.452697,1.452697 -2.138944,0.8762 -2.321646,0.158621 -1.441348,-1.441348 -0.439715,-1.268317 -0.842477,-2.505185 1.498093,-1.407301 z"
       id="path4-34"
       sodipodi:nodetypes="ccccc" /><path
       style="fill:#85a5c8;fill-opacity:1;stroke:none;stroke-width:0.697778;stroke-opacity:1"
       d="m 76.341763,43.370688 c 2.417345,-1.32058 1.712213,0.215573 1.395952,1.395952 0.981016,2.013188 0.348993,2.343204 -1.452697,1.452697 -2.138944,0.8762 -2.321646,0.158621 -1.441348,-1.441348 -0.439715,-1.268317 -0.842477,-2.505185 1.498093,-1.407301 z"
       id="path4-8"
       sodipodi:nodetypes="ccccc" /><path
       style="fill:none;stroke:#495232;stroke-width:0.88377;stroke-opacity:1"
       d="m 60.030965,53.406926 c 0,-7.794217 2.429842,-10.864257 2.429842,-10.864257"
       id="path3-7-7-2"
       sodipodi:nodetypes="cc" /><path
       style="fill:#85a5c8;fill-opacity:1;stroke:none;stroke-width:0.697778;stroke-opacity:1"
       d="m 62.427227,40.633862 c 2.417345,-1.32058 1.712213,0.215573 1.395952,1.395952 0.981016,2.013188 0.348993,2.343204 -1.452697,1.452697 -2.138944,0.8762 -2.321646,0.158621 -1.441348,-1.441348 -0.439715,-1.268317 -0.842477,-2.505185 1.498093,-1.407301 z"
       id="path4-7-7-86"
       sodipodi:nodetypes="ccccc" /></g></svg>
