<?xml version="1.0" encoding="UTF-8" standalone="no"?>
<!-- Created with Inkscape (http://www.inkscape.org/) -->

<svg
   width="100mm"
   height="100mm"
   viewBox="0 0 100 100"
   version="1.1"
   id="svg1"
   inkscape:version="1.4 (86a8ad7, 2024-10-11)"
   sodipodi:docname="bush2.svg"
   xml:space="preserve"
   xmlns:inkscape="http://www.inkscape.org/namespaces/inkscape"
   xmlns:sodipodi="http://sodipodi.sourceforge.net/DTD/sodipodi-0.dtd"
   xmlns="http://www.w3.org/2000/svg"
   xmlns:svg="http://www.w3.org/2000/svg"><sodipodi:namedview
     id="namedview1"
     pagecolor="#ffffff"
     bordercolor="#000000"
     borderopacity="0.25"
     inkscape:showpageshadow="2"
     inkscape:pageopacity="0.0"
     inkscape:pagecheckerboard="true"
     inkscape:deskcolor="#d1d1d1"
     inkscape:document-units="mm"
     inkscape:zoom="1.4378367"
     inkscape:cx="150.92117"
     inkscape:cy="139.4456"
     inkscape:window-width="1920"
     inkscape:window-height="1009"
     inkscape:window-x="1912"
     inkscape:window-y="-8"
     inkscape:window-maximized="1"
     inkscape:current-layer="layer1" /><defs
     id="defs1" /><g
     inkscape:label="Warstwa 1"
     inkscape:groupmode="layer"
     id="layer1"><path
       style="fill:#4e5a32;stroke-width:0.887893"
       d="m 28.252821,70.744004 h 42.507434 c 6.802273,-2.816688 2.631594,-11.955221 -3.210546,-13.421084 2.418137,-4.179995 -1.220635,-11.655982 -13.680247,-7.644961 0.527808,-5.056522 -5.46176,-10.732785 -14.099926,-4.48382 -6.355517,-3.342036 -12.67488,3.109494 -11.109452,8.88354 -5.133637,2.972163 -8.960278,10.292827 -0.407263,16.666325 z"
       id="path2"
       sodipodi:nodetypes="ccccccc" /><path
       style="fill:none;stroke:#495232;stroke-width:1;stroke-opacity:1"
       d="m 28.549251,61.603368 c 0,-10.120818 -5.520444,-15.733271 -5.520444,-15.733271"
       id="path3" /><path
       style="fill:none;stroke:#495232;stroke-width:1;stroke-opacity:1"
       d="m 33.221676,53.272342 c 0,-10.120818 -4.048325,-15.733271 -4.048325,-15.733271"
       id="path3-4"
       sodipodi:nodetypes="cc" /><path
       style="fill:none;stroke:#495232;stroke-width:0.88377;stroke-opacity:1"
       d="m 39.033433,57.703516 c 0,-7.794217 -2.892719,-13.533595 -2.892719,-13.533595"
       id="path3-7"
       sodipodi:nodetypes="cc" /><path
       style="fill:none;stroke:#495232;stroke-width:1;stroke-opacity:1"
       d="m 56.243251,53.15505 c 0,-10.120818 4.600374,-15.825278 4.600374,-15.825278"
       id="path3-2-4"
       sodipodi:nodetypes="cc" /><path
       style="fill:none;stroke:#495232;stroke-width:1;stroke-opacity:1"
       d="m 65.16121,61.788219 c 0,-10.120818 4.600374,-15.825278 4.600374,-15.825278"
       id="path3-2-4-2"
       sodipodi:nodetypes="cc" /><path
       style="fill:#85a5c8;fill-opacity:1;stroke:none;stroke-width:0.697778;stroke-opacity:1"
       d="m 23.298375,44.492224 c 2.417345,-1.32058 1.712213,0.215573 1.395952,1.395952 0.981016,2.013188 0.348993,2.343204 -1.452697,1.452697 -2.138944,0.8762 -2.321646,0.158621 -1.441348,-1.441348 -0.439715,-1.268317 -0.842477,-2.505185 1.498093,-1.407301 z"
       id="path4"
       sodipodi:nodetypes="ccccc" /><path
       style="fill:#85a5c8;fill-opacity:1;stroke:none;stroke-width:0.697778;stroke-opacity:1"
       d="m 29.601654,36.066281 c 2.417345,-1.32058 1.712213,0.215573 1.395952,1.395952 0.981016,2.013188 0.348993,2.343204 -1.452697,1.452697 -2.138944,0.8762 -2.321646,0.158621 -1.441348,-1.441348 -0.439715,-1.268317 -0.842477,-2.505185 1.498093,-1.407301 z"
       id="path4-1"
       sodipodi:nodetypes="ccccc" /><path
       style="fill:#85a5c8;fill-opacity:1;stroke:none;stroke-width:0.697778;stroke-opacity:1"
       d="m 36.199142,42.997174 c 2.417345,-1.32058 1.712213,0.215573 1.395952,1.395952 0.981016,2.013188 0.348993,2.343204 -1.452697,1.452697 -2.138944,0.8762 -2.321646,0.158621 -1.441348,-1.441348 -0.439715,-1.268317 -0.842477,-2.505185 1.498093,-1.407301 z"
       id="path4-7"
       sodipodi:nodetypes="ccccc" /><path
       style="fill:none;stroke:#495232;stroke-width:0.88377;stroke-opacity:1"
       d="m 40.503744,49.336718 c 0,-7.794217 -1.512607,-11.877461 -1.512607,-11.877461"
       id="path3-7-7-9"
       sodipodi:nodetypes="cc" /><path
       style="fill:#85a5c8;fill-opacity:1;stroke:none;stroke-width:0.697778;stroke-opacity:1"
       d="m 38.957557,35.55045 c 2.417345,-1.32058 1.712213,0.215573 1.395952,1.395952 0.981016,2.013188 0.348993,2.343204 -1.452697,1.452697 -2.138944,0.8762 -2.321646,0.158621 -1.441348,-1.441348 -0.439715,-1.268317 -0.842477,-2.505185 1.498093,-1.407301 z"
       id="path4-7-7-8"
       sodipodi:nodetypes="ccccc" /><path
       style="fill:#85a5c8;fill-opacity:1;stroke:none;stroke-width:0.697778;stroke-opacity:1"
       d="m 69.796294,44.957641 c 2.417345,-1.32058 1.712213,0.215573 1.395952,1.395952 0.981016,2.013188 0.348993,2.343204 -1.452697,1.452697 -2.138944,0.8762 -2.321646,0.158621 -1.441348,-1.441348 -0.439715,-1.268317 -0.842477,-2.505185 1.498093,-1.407301 z"
       id="path4-3"
       sodipodi:nodetypes="ccccc" /><path
       style="fill:#85a5c8;fill-opacity:1;stroke:none;stroke-width:0.697778;stroke-opacity:1"
       d="m 60.970285,36.534882 c 2.417345,-1.32058 1.712213,0.215573 1.395952,1.395952 0.981016,2.013188 0.348993,2.343204 -1.452697,1.452697 -2.138944,0.8762 -2.321646,0.158621 -1.441348,-1.441348 -0.439715,-1.268317 -0.842477,-2.505185 1.498093,-1.407301 z"
       id="path4-34"
       sodipodi:nodetypes="ccccc" /><path
       style="fill:none;stroke:#495232;stroke-width:0.88377;stroke-opacity:1"
       d="m 47.734799,50.10199 c 0,-7.794217 2.429842,-10.864257 2.429842,-10.864257"
       id="path3-7-7-2"
       sodipodi:nodetypes="cc" /><path
       style="fill:#85a5c8;fill-opacity:1;stroke:none;stroke-width:0.697778;stroke-opacity:1"
       d="m 50.131061,37.328926 c 2.417345,-1.32058 1.712213,0.215573 1.395952,1.395952 0.981016,2.013188 0.348993,2.343204 -1.452697,1.452697 -2.138944,0.8762 -2.321646,0.158621 -1.441348,-1.441348 -0.439715,-1.268317 -0.842477,-2.505185 1.498093,-1.407301 z"
       id="path4-7-7-86"
       sodipodi:nodetypes="ccccc" /></g></svg>
