<?xml version="1.0" encoding="UTF-8" standalone="no"?>
<!-- Created with Inkscape (http://www.inkscape.org/) -->

<svg
   width="100mm"
   height="100mm"
   viewBox="0 0 100 100"
   version="1.1"
   id="svg1"
   inkscape:version="1.4 (86a8ad7, 2024-10-11)"
   sodipodi:docname="bush4.svg"
   xml:space="preserve"
   xmlns:inkscape="http://www.inkscape.org/namespaces/inkscape"
   xmlns:sodipodi="http://sodipodi.sourceforge.net/DTD/sodipodi-0.dtd"
   xmlns="http://www.w3.org/2000/svg"
   xmlns:svg="http://www.w3.org/2000/svg"><sodipodi:namedview
     id="namedview1"
     pagecolor="#ffffff"
     bordercolor="#000000"
     borderopacity="0.25"
     inkscape:showpageshadow="2"
     inkscape:pageopacity="0.0"
     inkscape:pagecheckerboard="true"
     inkscape:deskcolor="#d1d1d1"
     inkscape:document-units="mm"
     inkscape:zoom="2.0334082"
     inkscape:cx="150.48627"
     inkscape:cy="130.07718"
     inkscape:window-width="1920"
     inkscape:window-height="1009"
     inkscape:window-x="1912"
     inkscape:window-y="-8"
     inkscape:window-maximized="1"
     inkscape:current-layer="layer1" /><defs
     id="defs1" /><g
     inkscape:label="Warstwa 1"
     inkscape:groupmode="layer"
     id="layer1"><path
       style="fill:#4e5a32;fill-opacity:1;stroke:none;stroke-width:1;stroke-opacity:1"
       d="m 29.536824,69.352979 h 44.50041 c 2.755209,-0.278465 6.742603,-5.696615 3.383071,-8.197445 1.429796,-3.115606 -0.330548,-11.460181 -8.067326,-8.717915 0.04968,-4.374907 -6.940237,-6.593511 -10.669688,-2.992718 0.381785,-3.019146 2.849548,-8.476481 -4.684254,-9.628744 -2.335784,-2.84312 -7.081512,-4.914976 -10.539571,-1.040946 -2.758818,-0.294449 -6.227919,0.120773 -6.245672,6.115555 -3.669392,2.782912 -2.906476,5.993089 0.520472,8.327562 -6.010772,-3.474186 -9.091625,0.30883 -9.628743,3.122835 -7.428995,1.19058 -3.293832,12.348505 1.431301,13.011816 z"
       id="path5"
       sodipodi:nodetypes="ccccccccccc" /><path
       style="fill:none;stroke:#495232;stroke-width:1;stroke-opacity:1"
       d="m 29.861033,61.234489 c 0,-10.120818 -5.520444,-15.733271 -5.520444,-15.733271"
       id="path3" /><path
       style="fill:none;stroke:#495232;stroke-width:1;stroke-opacity:1"
       d="m 40.580123,48.531427 c 0,-10.120818 -4.568798,-11.049017 -4.568798,-11.049017"
       id="path3-4"
       sodipodi:nodetypes="cc" /><path
       style="fill:none;stroke:#495232;stroke-width:1;stroke-opacity:1"
       d="m 52.678311,46.789902 c 0,-10.120818 4.600374,-15.825278 4.600374,-15.825278"
       id="path3-2-4"
       sodipodi:nodetypes="cc" /><path
       style="fill:none;stroke:#495232;stroke-width:1;stroke-opacity:1"
       d="m 72.577945,62.308692 c 0,-10.120818 6.026489,-10.212824 6.026489,-10.212824"
       id="path3-2-4-2"
       sodipodi:nodetypes="cc" /><path
       style="fill:#85a5c8;fill-opacity:1;stroke:none;stroke-width:0.697778;stroke-opacity:1"
       d="m 24.610157,44.123345 c 2.417345,-1.32058 1.712213,0.215573 1.395952,1.395952 0.981016,2.013188 0.348993,2.343204 -1.452697,1.452697 -2.138944,0.8762 -2.321646,0.158621 -1.441348,-1.441348 -0.439715,-1.268317 -0.842477,-2.505185 1.498093,-1.407301 z"
       id="path4"
       sodipodi:nodetypes="ccccc" /><path
       style="fill:#85a5c8;fill-opacity:1;stroke:none;stroke-width:0.697778;stroke-opacity:1"
       d="m 36.049274,35.684324 c 2.417345,-1.32058 1.712213,0.215573 1.395952,1.395952 0.981016,2.013188 0.348993,2.343204 -1.452697,1.452697 -2.138944,0.8762 -2.321646,0.158621 -1.441348,-1.441348 -0.439715,-1.268317 -0.842477,-2.505185 1.498093,-1.407301 z"
       id="path4-1"
       sodipodi:nodetypes="ccccc" /><path
       style="fill:none;stroke:#495232;stroke-width:1;stroke-opacity:1"
       d="m 45.493751,42.506068 c 0,-10.120818 -4.60037,-11.178903 -4.60037,-11.178903"
       id="path3-4-9"
       sodipodi:nodetypes="cc" /><path
       style="fill:#85a5c8;fill-opacity:1;stroke:none;stroke-width:0.697778;stroke-opacity:1"
       d="m 41.045662,29.854375 c 2.417345,-1.32058 1.712213,0.215573 1.395952,1.395952 0.981016,2.013188 0.348993,2.343204 -1.452697,1.452697 -2.138944,0.8762 -2.321646,0.158621 -1.441348,-1.441348 -0.439715,-1.268317 -0.842477,-2.505185 1.498093,-1.407301 z"
       id="path4-1-0"
       sodipodi:nodetypes="ccccc" /><path
       style="fill:none;stroke:#495232;stroke-width:0.88377;stroke-opacity:1"
       d="m 48.853863,41.073598 c 0,-7.794217 -1.512607,-11.877461 -1.512607,-11.877461"
       id="path3-7-7-9"
       sodipodi:nodetypes="cc" /><path
       style="fill:#85a5c8;fill-opacity:1;stroke:none;stroke-width:0.697778;stroke-opacity:1"
       d="m 47.307676,27.28733 c 2.417345,-1.32058 1.712213,0.215573 1.395952,1.395952 0.981016,2.013188 0.348993,2.343204 -1.452697,1.452697 -2.138944,0.8762 -2.321646,0.158621 -1.441348,-1.441348 -0.439715,-1.268317 -0.842477,-2.505185 1.498093,-1.407301 z"
       id="path4-7-7-8"
       sodipodi:nodetypes="ccccc" /><path
       style="fill:#85a5c8;fill-opacity:1;stroke:none;stroke-width:0.697778;stroke-opacity:1"
       d="m 78.96117,50.676534 c 2.417345,-1.32058 1.712213,0.215573 1.395952,1.395952 0.981016,2.013188 0.348993,2.343204 -1.452697,1.452697 -2.138944,0.8762 -2.321646,0.158621 -1.441348,-1.441348 C 77.023362,50.815518 76.6206,49.57865 78.96117,50.676534 Z"
       id="path4-3"
       sodipodi:nodetypes="ccccc" /><path
       style="fill:#85a5c8;fill-opacity:1;stroke:none;stroke-width:0.697778;stroke-opacity:1"
       d="m 57.405345,30.169734 c 2.417345,-1.32058 1.712213,0.215573 1.395952,1.395952 0.981016,2.013188 0.348993,2.343204 -1.452697,1.452697 -2.138944,0.8762 -2.321646,0.158621 -1.441348,-1.441348 -0.439715,-1.268317 -0.842477,-2.505185 1.498093,-1.407301 z"
       id="path4-34"
       sodipodi:nodetypes="ccccc" /><path
       style="fill:none;stroke:#495232;stroke-width:0.88377;stroke-opacity:1"
       d="m 68.065734,54.467198 c 0,-7.794217 4.446673,-12.165438 4.446673,-12.165438"
       id="path3-7-7-2"
       sodipodi:nodetypes="cc" /><path
       style="fill:#85a5c8;fill-opacity:1;stroke:none;stroke-width:0.697778;stroke-opacity:1"
       d="m 73.129418,40.783307 c 2.417345,-1.32058 1.712213,0.215573 1.395952,1.395952 0.981016,2.013188 0.348993,2.343204 -1.452697,1.452697 -2.138944,0.8762 -2.321646,0.158621 -1.441348,-1.441348 -0.439715,-1.268317 -0.842477,-2.505185 1.498093,-1.407301 z"
       id="path4-7-7-86"
       sodipodi:nodetypes="ccccc" /><path
       style="fill:none;stroke:#495232;stroke-width:0.88377;stroke-opacity:1"
       d="m 61.72973,54.807941 c 0,-7.794217 -1.73394,-10.408843 -1.73394,-10.408843"
       id="path3-7-7-2-9"
       sodipodi:nodetypes="cc" /><path
       style="fill:#85a5c8;fill-opacity:1;stroke:none;stroke-width:0.697778;stroke-opacity:1"
       d="m 60.092329,42.945704 c 2.417345,-1.32058 1.712213,0.215573 1.395952,1.395952 0.981016,2.013188 0.348993,2.343204 -1.452697,1.452697 -2.138944,0.8762 -2.321646,0.158621 -1.441348,-1.441348 -0.439715,-1.268317 -0.842477,-2.505185 1.498093,-1.407301 z"
       id="path4-7-7-86-63"
       sodipodi:nodetypes="ccccc" /><path
       style="fill:none;stroke:#495232;stroke-width:0.88377;stroke-opacity:1"
       d="m 34.438816,58.572967 c 0,-7.794217 2.494901,-10.929316 2.494901,-10.929316"
       id="path3-7-7-2-6"
       sodipodi:nodetypes="cc" /><path
       style="fill:#85a5c8;fill-opacity:1;stroke:none;stroke-width:0.697778;stroke-opacity:1"
       d="m 37.030255,45.799903 c 2.417345,-1.32058 1.712213,0.215573 1.395952,1.395952 0.981016,2.013188 0.348993,2.343204 -1.452697,1.452697 -2.138944,0.8762 -2.321646,0.158621 -1.441348,-1.441348 -0.439715,-1.268317 -0.842477,-2.505185 1.498093,-1.407301 z"
       id="path4-7-7-86-6"
       sodipodi:nodetypes="ccccc" /></g></svg>
