<?xml version="1.0" encoding="UTF-8" standalone="no"?>
<!-- Created with Inkscape (http://www.inkscape.org/) -->

<svg
   width="100mm"
   height="100mm"
   viewBox="0 0 100 100"
   version="1.1"
   id="svg1"
   inkscape:version="1.4 (86a8ad7, 2024-10-11)"
   sodipodi:docname="bush3.svg"
   xml:space="preserve"
   xmlns:inkscape="http://www.inkscape.org/namespaces/inkscape"
   xmlns:sodipodi="http://sodipodi.sourceforge.net/DTD/sodipodi-0.dtd"
   xmlns="http://www.w3.org/2000/svg"
   xmlns:svg="http://www.w3.org/2000/svg"><sodipodi:namedview
     id="namedview1"
     pagecolor="#ffffff"
     bordercolor="#000000"
     borderopacity="0.25"
     inkscape:showpageshadow="2"
     inkscape:pageopacity="0.0"
     inkscape:pagecheckerboard="true"
     inkscape:deskcolor="#d1d1d1"
     inkscape:document-units="mm"
     inkscape:zoom="2.0334082"
     inkscape:cx="178.02624"
     inkscape:cy="193.51747"
     inkscape:window-width="1920"
     inkscape:window-height="1009"
     inkscape:window-x="1912"
     inkscape:window-y="-8"
     inkscape:window-maximized="1"
     inkscape:current-layer="layer1" /><defs
     id="defs1" /><g
     inkscape:label="Warstwa 1"
     inkscape:groupmode="layer"
     id="layer1"><path
       style="fill:#4e5a32;stroke-width:0.887893"
       d="m 28.252821,70.744004 h 42.507434 c 6.56943,-2.234581 9.099554,-10.071227 3.360421,-11.794607 2.278447,-4.094031 2.124377,-13.569319 -8.47552,-10.702738 -5.11381,-4.787731 -13.291412,-1.888118 -13.98469,5.567099 -3.220009,-2.736591 -8.233289,-2.309875 -9.613862,2.375366 -4.319861,-3.646073 -10.347809,-0.999018 -11.369688,4.524581 -2.979023,-1.055112 -10.631492,3.944816 -2.424095,10.030299 z"
       id="path2"
       sodipodi:nodetypes="cccccccc" /><path
       style="fill:none;stroke:#495232;stroke-width:1;stroke-opacity:1"
       d="m 31.292333,65.528388 c 0,-10.120818 -5.520444,-15.733271 -5.520444,-15.733271"
       id="path3" /><path
       style="fill:none;stroke:#495232;stroke-width:1;stroke-opacity:1"
       d="m 38.172937,58.485466 c 0,-10.120818 -4.568798,-11.049017 -4.568798,-11.049017"
       id="path3-4"
       sodipodi:nodetypes="cc" /><path
       style="fill:none;stroke:#495232;stroke-width:1;stroke-opacity:1"
       d="m 60.55046,50.823565 c 0,-10.120818 4.600374,-15.825278 4.600374,-15.825278"
       id="path3-2-4"
       sodipodi:nodetypes="cc" /><path
       style="fill:none;stroke:#495232;stroke-width:1;stroke-opacity:1"
       d="m 72.577945,62.308692 c 0,-10.120818 6.026489,-10.212824 6.026489,-10.212824"
       id="path3-2-4-2"
       sodipodi:nodetypes="cc" /><path
       style="fill:#85a5c8;fill-opacity:1;stroke:none;stroke-width:0.697778;stroke-opacity:1"
       d="m 26.041457,48.417244 c 2.417345,-1.32058 1.712213,0.215573 1.395952,1.395952 0.981016,2.013188 0.348993,2.343204 -1.452697,1.452697 -2.138944,0.8762 -2.321646,0.158621 -1.441348,-1.441348 -0.439715,-1.268317 -0.842477,-2.505185 1.498093,-1.407301 z"
       id="path4"
       sodipodi:nodetypes="ccccc" /><path
       style="fill:#85a5c8;fill-opacity:1;stroke:none;stroke-width:0.697778;stroke-opacity:1"
       d="m 33.642088,45.638363 c 2.417345,-1.32058 1.712213,0.215573 1.395952,1.395952 0.981016,2.013188 0.348993,2.343204 -1.452697,1.452697 -2.138944,0.8762 -2.321646,0.158621 -1.441348,-1.441348 -0.439715,-1.268317 -0.842477,-2.505185 1.498093,-1.407301 z"
       id="path4-1"
       sodipodi:nodetypes="ccccc" /><path
       style="fill:none;stroke:#495232;stroke-width:1;stroke-opacity:1"
       d="m 55.44779,52.915521 c 0,-10.120818 -4.60037,-11.178903 -4.60037,-11.178903"
       id="path3-4-9"
       sodipodi:nodetypes="cc" /><path
       style="fill:#85a5c8;fill-opacity:1;stroke:none;stroke-width:0.697778;stroke-opacity:1"
       d="m 50.999701,40.263828 c 2.417345,-1.32058 1.712213,0.215573 1.395952,1.395952 0.981016,2.013188 0.348993,2.343204 -1.452697,1.452697 -2.138944,0.8762 -2.321646,0.158621 -1.441348,-1.441348 -0.439715,-1.268317 -0.842477,-2.505185 1.498093,-1.407301 z"
       id="path4-1-0"
       sodipodi:nodetypes="ccccc" /><path
       style="fill:none;stroke:#495232;stroke-width:0.88377;stroke-opacity:1"
       d="m 45.731027,58.184136 c 0,-7.794217 -1.512607,-11.877461 -1.512607,-11.877461"
       id="path3-7-7-9"
       sodipodi:nodetypes="cc" /><path
       style="fill:#85a5c8;fill-opacity:1;stroke:none;stroke-width:0.697778;stroke-opacity:1"
       d="m 44.18484,44.397868 c 2.417345,-1.32058 1.712213,0.215573 1.395952,1.395952 0.981016,2.013188 0.348993,2.343204 -1.452697,1.452697 -2.138944,0.8762 -2.321646,0.158621 -1.441348,-1.441348 -0.439715,-1.268317 -0.842477,-2.505185 1.498093,-1.407301 z"
       id="path4-7-7-8"
       sodipodi:nodetypes="ccccc" /><path
       style="fill:#85a5c8;fill-opacity:1;stroke:none;stroke-width:0.697778;stroke-opacity:1"
       d="m 78.96117,50.676534 c 2.417345,-1.32058 1.712213,0.215573 1.395952,1.395952 0.981016,2.013188 0.348993,2.343204 -1.452697,1.452697 -2.138944,0.8762 -2.321646,0.158621 -1.441348,-1.441348 C 77.023362,50.815518 76.6206,49.57865 78.96117,50.676534 Z"
       id="path4-3"
       sodipodi:nodetypes="ccccc" /><path
       style="fill:#85a5c8;fill-opacity:1;stroke:none;stroke-width:0.697778;stroke-opacity:1"
       d="m 65.277494,34.203397 c 2.417345,-1.32058 1.712213,0.215573 1.395952,1.395952 0.981016,2.013188 0.348993,2.343204 -1.452697,1.452697 -2.138944,0.8762 -2.321646,0.158621 -1.441348,-1.441348 -0.439715,-1.268317 -0.842477,-2.505185 1.498093,-1.407301 z"
       id="path4-34"
       sodipodi:nodetypes="ccccc" /><path
       style="fill:none;stroke:#495232;stroke-width:0.88377;stroke-opacity:1"
       d="m 67.545261,51.864835 c 0,-7.794217 4.967146,-9.563075 4.967146,-9.563075"
       id="path3-7-7-2"
       sodipodi:nodetypes="cc" /><path
       style="fill:#85a5c8;fill-opacity:1;stroke:none;stroke-width:0.697778;stroke-opacity:1"
       d="m 73.129418,40.783307 c 2.417345,-1.32058 1.712213,0.215573 1.395952,1.395952 0.981016,2.013188 0.348993,2.343204 -1.452697,1.452697 -2.138944,0.8762 -2.321646,0.158621 -1.441348,-1.441348 -0.439715,-1.268317 -0.842477,-2.505185 1.498093,-1.407301 z"
       id="path4-7-7-86"
       sodipodi:nodetypes="ccccc" /></g></svg>
