<?xml version="1.0" encoding="UTF-8" standalone="no"?>
<!-- Created with Inkscape (http://www.inkscape.org/) -->

<svg
   width="100mm"
   height="100mm"
   viewBox="0 0 100 100"
   version="1.1"
   id="svg1"
   inkscape:version="1.4 (86a8ad7, 2024-10-11)"
   sodipodi:docname="tree1.svg"
   xml:space="preserve"
   xmlns:inkscape="http://www.inkscape.org/namespaces/inkscape"
   xmlns:sodipodi="http://sodipodi.sourceforge.net/DTD/sodipodi-0.dtd"
   xmlns="http://www.w3.org/2000/svg"
   xmlns:svg="http://www.w3.org/2000/svg"><sodipodi:namedview
     id="namedview1"
     pagecolor="#ffffff"
     bordercolor="#000000"
     borderopacity="0.25"
     inkscape:showpageshadow="2"
     inkscape:pageopacity="0.0"
     inkscape:pagecheckerboard="true"
     inkscape:deskcolor="#d1d1d1"
     inkscape:document-units="mm"
     inkscape:zoom="1.4378367"
     inkscape:cx="122.40611"
     inkscape:cy="136.66364"
     inkscape:window-width="1920"
     inkscape:window-height="1009"
     inkscape:window-x="1912"
     inkscape:window-y="-8"
     inkscape:window-maximized="1"
     inkscape:current-layer="layer1" /><defs
     id="defs1" /><g
     inkscape:label="Warstwa 1"
     inkscape:groupmode="layer"
     id="layer1"><path
       style="fill:#4e5a32;fill-opacity:1"
       d="m 43.52323,81.527206 c 0,-0.171996 0.08936,-0.36795 0.198587,-0.435454 0.378642,-0.234014 1.309376,-3.059124 1.639673,-4.976996 0.714082,-4.146324 0.300341,-7.477807 -1.212288,-9.76146 -0.860483,-1.299093 -1.344036,-1.61499 -3.257793,-2.128263 -1.902771,-0.510327 -3.268166,-1.198366 -4.519233,-2.277297 l -0.966018,-0.833104 -2.072245,-0.01691 c -1.139735,-0.0093 -2.511708,-0.130531 -3.048829,-0.269394 -0.537122,-0.138864 -1.464877,-0.311708 -2.061679,-0.384099 -0.95468,-0.115801 -1.232195,-0.279044 -2.30903,-1.358247 -0.673164,-0.674645 -1.613444,-1.519603 -2.08951,-1.877684 -1.674681,-1.259639 -2.453288,-2.944834 -2.476004,-5.358991 -0.0077,-0.816134 -0.101223,-1.537809 -0.207875,-1.603724 -0.368046,-0.227464 -1.055765,-1.810984 -1.0487,-2.414702 0.0039,-0.332996 0.208651,-1.142568 0.455011,-1.79905 0.24636,-0.656482 0.444723,-1.43775 0.440807,-1.736151 -0.02338,-1.7814 1.136345,-4.63492 2.137938,-5.260424 0.338969,-0.21169 0.431459,-0.506688 0.431459,-1.376137 0,-1.477586 0.687985,-4.069529 1.435451,-5.407981 0.75387,-1.34992 2.746082,-3.365009 3.827255,-3.871206 0.447601,-0.209563 0.81382,-0.528978 0.81382,-0.70981 0,-0.180831 0.250018,-0.85728 0.555596,-1.503218 0.698981,-1.477525 2.164265,-2.753152 3.888414,-3.385124 0.772969,-0.283325 1.715582,-0.854726 2.307003,-1.398479 1.363546,-1.253645 2.559104,-1.826921 3.820008,-1.831711 0.786595,-0.003 1.267305,-0.158349 1.975923,-0.6386 1.842004,-1.248376 4.807695,-1.413782 7.031525,-0.39217 1.079872,0.496086 1.346661,0.540263 2.061679,0.341387 0.470632,-0.130902 1.74789,-0.179063 2.991485,-0.112798 2.715623,0.144701 4.180897,0.746815 5.969773,2.453114 0.718616,0.685443 1.58241,1.287125 2.02215,1.408544 1.352311,0.373391 2.801214,1.559861 3.974363,3.254508 0.736609,1.06405 1.436694,1.798756 2.061679,2.163631 1.120217,0.653999 2.259588,2.243806 2.460552,3.433302 0.08279,0.490005 0.375844,1.066569 0.692164,1.361766 0.759017,0.708335 1.329601,1.895243 1.430249,2.975156 0.06082,0.652571 0.276432,1.107621 0.763042,1.610405 0.931377,0.962332 1.351322,2.080184 1.351322,3.59709 0,0.705419 0.146487,1.633174 0.325528,2.061679 0.17904,0.428504 0.325528,1.063252 0.325528,1.410552 0,0.3473 0.131968,0.740978 0.293262,0.87484 0.161295,0.133863 0.46369,0.872995 0.67199,1.642516 0.371132,1.371073 0.369429,1.425995 -0.0849,2.738827 -0.266583,0.770316 -0.442131,1.755018 -0.413045,2.316905 0.03676,0.710069 -0.04987,1.050659 -0.316869,1.245896 -0.202099,0.147779 -0.367453,0.432715 -0.367453,0.633192 0,1.261733 -1.832176,3.226608 -3.409115,3.656028 -0.737047,0.200707 -1.046912,0.454776 -1.604921,1.315931 -0.987561,1.524065 -2.759796,2.270312 -3.918712,1.650079 -0.36111,-0.19326 -0.498022,-0.153587 -0.759812,0.22017 -0.553886,0.790783 -1.749739,1.153649 -3.378064,1.025028 -0.888018,-0.07014 -1.513879,-0.02835 -1.597324,0.106668 -0.265958,0.430329 -2.393363,1.648576 -4.601118,2.634805 -2.8536,1.274734 -4.173172,2.359506 -4.825576,3.966925 -0.456624,1.12505 -0.482069,1.426074 -0.362407,4.287476 0.131874,3.153444 0.571277,5.506281 1.439855,7.709881 0.245982,0.624061 0.44724,1.179871 0.44724,1.235132 0,0.05526 -2.099656,0.100476 -4.665903,0.100476 -3.917859,0 -4.665904,-0.05014 -4.665904,-0.312721 z M 46.561493,64.95185 c 0,-0.336417 -0.150271,-1.117684 -0.333936,-1.73615 -0.311238,-1.04805 -0.381305,-1.12513 -1.030839,-1.134009 -0.383297,-0.0052 -1.087538,-0.150256 -1.564979,-0.32226 -0.477441,-0.172005 -0.895926,-0.314206 -0.929965,-0.316003 -0.03404,-0.0018 0.05454,0.216464 0.196847,0.485025 0.313659,0.591939 3.229088,3.635065 3.482529,3.635065 0.09919,0 0.180343,-0.275251 0.180343,-0.611668 z m 6.689945,-0.675284 c 1.154876,-0.62615 3.292919,-2.645274 3.292919,-3.109765 0,-0.06493 -0.312029,-0.315617 -0.693396,-0.557082 -0.625585,-0.396092 -0.751873,-0.408788 -1.291336,-0.129821 -0.328867,0.170063 -0.822521,0.310702 -1.097009,0.312529 -0.274488,0.0018 -0.609815,0.07507 -0.745171,0.162765 -0.413487,0.267883 -1.392396,2.490832 -1.529434,3.473105 -0.149769,1.073525 -0.203768,1.077496 2.063427,-0.151731 z M 41.244532,62.525255 C 40.596505,61.84886 39.448256,61.644358 38.75617,62.08208 c -0.253486,0.160321 -0.187302,0.253467 0.325528,0.458141 0.808805,0.3228 1.819387,0.58498 2.366201,0.613876 0.365716,0.01933 0.33927,-0.06245 -0.203367,-0.628842 z m 8.670305,-0.358819 c 0.423747,-0.436319 0.770013,-1.014744 0.770013,-1.286281 0,-0.483897 -0.02384,-0.479064 -1.235092,0.25031 -0.6793,0.409053 -1.411738,0.743733 -1.62764,0.743733 -0.499153,0 -0.505817,0.408716 -0.01277,0.782994 0.648031,0.491926 1.298323,0.340353 2.105486,-0.490756 z m 8.360441,0.08755 c 0.643045,-0.387921 1.205637,-0.819097 1.250204,-0.958168 0.111286,-0.34727 -0.798233,-0.60622 -1.093206,-0.311248 -0.131217,0.131217 -0.419345,0.238577 -0.640284,0.238577 -0.253256,0 -0.517915,0.278123 -0.716162,0.752595 -0.518964,1.242057 -0.431767,1.262284 1.199448,0.278244 z"
       id="path7" /><path
       style="fill:#495232;fill-opacity:1"
       d="m 43.523108,81.668517 c 6.7e-5,-0.03459 0.205034,-0.464562 0.455482,-0.955481 1.172861,-2.298998 1.714739,-4.965277 1.71479,-8.437531 4e-5,-2.70325 -0.278519,-3.92775 -1.255365,-5.518384 -0.916002,-1.491561 -1.588844,-2.05743 -2.861926,-2.406917 -2.231863,-0.612693 -3.149258,-1.011514 -4.308753,-1.873152 -0.635774,-0.472453 -1.509454,-1.806684 -1.464412,-1.851726 0.05723,-0.05723 0.776235,-0.275398 1.290714,0.05949 0.602609,0.392257 1.02141,1.361794 1.221141,1.511885 0.962287,0.723127 3.4723,1.341458 3.4723,0.855385 0,-0.156862 -0.213839,-0.434983 -0.475199,-0.618046 -0.550521,-0.3856 -0.794918,-1.126418 0.212687,-1.467126 0.583428,-0.197279 1.037243,0.518739 1.103414,0.71725 0.104361,0.313083 2.246908,2.677526 3.160727,3.488073 1.014608,0.899945 1.088652,0.506359 0.444749,-2.364095 -0.142021,-0.633118 -0.338512,-1.634448 0.12978,-1.607259 0.282202,0.01638 1.016856,1.198659 1.354255,1.474285 0.337399,0.275626 0.752166,0.501138 0.921705,0.501138 0.446884,0 2.030777,-1.492812 2.169242,-2.0445 0.09829,-0.391617 0.388531,-1.235917 1.011609,-1.163176 0.411034,0.04798 0.600952,0.899287 0.600952,0.937581 0,0.03829 -0.28475,0.686803 -0.632777,1.441133 -0.706785,1.531917 -1.057645,2.99915 -0.717187,2.99915 0.969361,0 3.935408,-1.944298 4.797649,-3.144947 0.677274,-0.943087 2.046133,-2.41675 1.760985,-1.673666 -0.621303,1.619089 -0.871211,2.775243 0.96117,1.67184 1.196893,-0.720731 3.530015,-1.543285 3.530015,-1.116651 0,0.351254 -3.46347,2.226064 -5.882728,3.310508 -2.723264,1.220715 -4.420868,2.590433 -5.014311,4.045812 -0.887197,2.175794 -0.508738,7.305237 0.844876,11.451014 0.291632,0.893194 0.505073,1.649813 0.474313,1.681374 -0.07706,0.07906 -9.020049,0.174974 -9.019897,0.09673 z"
       id="path6"
       sodipodi:nodetypes="sssssssssssssssssssssssssssssssss" /><path
       style="fill:#85a5c8;fill-opacity:1;stroke:none;stroke-width:0.697778;stroke-opacity:1"
       d="m 44.32718,36.491522 c 2.417345,-1.32058 1.712213,0.215573 1.395952,1.395952 0.981016,2.013188 0.348993,2.343204 -1.452697,1.452697 -2.138944,0.8762 -2.321646,0.158621 -1.441348,-1.441348 -0.439715,-1.268317 -0.842477,-2.505185 1.498093,-1.407301 z"
       id="path4-7-7-86"
       sodipodi:nodetypes="ccccc" /><path
       style="fill:#85a5c8;fill-opacity:1;stroke:none;stroke-width:0.697778;stroke-opacity:1"
       d="m 55.175099,27.231106 c 2.417345,-1.32058 1.712213,0.215573 1.395952,1.395952 0.981016,2.013188 0.348993,2.343204 -1.452697,1.452697 -2.138944,0.8762 -2.321646,0.158621 -1.441348,-1.441348 -0.439715,-1.268317 -0.842477,-2.505185 1.498093,-1.407301 z"
       id="path4-7-7-86-8"
       sodipodi:nodetypes="ccccc" /><path
       style="fill:#85a5c8;fill-opacity:1;stroke:none;stroke-width:0.697778;stroke-opacity:1"
       d="m 42.475097,22.997772 c 2.417345,-1.32058 1.712213,0.215573 1.395952,1.395952 0.981016,2.013188 0.348993,2.343204 -1.452697,1.452697 -2.138944,0.8762 -2.321646,0.158621 -1.441348,-1.441348 -0.439715,-1.268317 -0.842477,-2.505185 1.498093,-1.407301 z"
       id="path4-7-7-86-6"
       sodipodi:nodetypes="ccccc" /><path
       style="fill:#85a5c8;fill-opacity:1;stroke:none;stroke-width:0.697778;stroke-opacity:1"
       d="m 29.510514,33.581106 c 2.417345,-1.32058 1.712213,0.215573 1.395952,1.395952 0.981016,2.013188 0.348993,2.343204 -1.452697,1.452697 -2.138944,0.8762 -2.321646,0.158621 -1.441348,-1.441348 -0.439715,-1.268317 -0.842477,-2.505185 1.498093,-1.407301 z"
       id="path4-7-7-86-5"
       sodipodi:nodetypes="ccccc" /><path
       style="fill:#85a5c8;fill-opacity:1;stroke:none;stroke-width:0.697778;stroke-opacity:1"
       d="m 25.644715,47.362813 c 2.417345,-1.32058 1.712213,0.215573 1.395952,1.395952 0.981016,2.013188 0.348993,2.343204 -1.452697,1.452697 -2.138944,0.8762 -2.321646,0.158621 -1.441348,-1.441348 -0.439715,-1.268317 -0.842477,-2.505185 1.498093,-1.407301 z"
       id="path4-7-7-86-9"
       sodipodi:nodetypes="ccccc" /><path
       style="fill:#85a5c8;fill-opacity:1;stroke:none;stroke-width:0.697778;stroke-opacity:1"
       d="m 62.848009,38.343606 c 2.417345,-1.32058 1.712213,0.215573 1.395952,1.395952 0.981016,2.013188 0.348993,2.343204 -1.452697,1.452697 -2.138944,0.8762 -2.321646,0.158621 -1.441348,-1.441348 -0.439715,-1.268317 -0.842477,-2.505185 1.498093,-1.407301 z"
       id="path4-7-7-86-2"
       sodipodi:nodetypes="ccccc" /><path
       style="fill:#85a5c8;fill-opacity:1;stroke:none;stroke-width:0.697778;stroke-opacity:1"
       d="m 70.256349,48.662356 c 2.417345,-1.32058 1.712213,0.215573 1.395952,1.395952 0.981016,2.013188 0.348993,2.343204 -1.452697,1.452697 -2.138944,0.8762 -2.321646,0.158621 -1.441348,-1.441348 -0.439715,-1.268317 -0.842477,-2.505185 1.498093,-1.407301 z"
       id="path4-7-7-86-65"
       sodipodi:nodetypes="ccccc" /><path
       style="fill:#85a5c8;fill-opacity:1;stroke:none;stroke-width:0.697778;stroke-opacity:1"
       d="m 49.089679,49.456106 c 2.417345,-1.32058 1.712213,0.215573 1.395952,1.395952 0.981016,2.013188 0.348993,2.343204 -1.452697,1.452697 -2.138944,0.8762 -2.321646,0.158621 -1.441348,-1.441348 -0.439715,-1.268317 -0.842477,-2.505185 1.498093,-1.407301 z"
       id="path4-7-7-86-1"
       sodipodi:nodetypes="ccccc" /></g></svg>
