<?xml version="1.0" encoding="UTF-8" standalone="no"?>
<!-- Created with Inkscape (http://www.inkscape.org/) -->

<svg
   width="100mm"
   height="100mm"
   viewBox="0 0 100 100"
   version="1.1"
   id="svg1"
   inkscape:version="1.4 (86a8ad7, 2024-10-11)"
   sodipodi:docname="tree3.svg"
   xml:space="preserve"
   xmlns:inkscape="http://www.inkscape.org/namespaces/inkscape"
   xmlns:sodipodi="http://sodipodi.sourceforge.net/DTD/sodipodi-0.dtd"
   xmlns="http://www.w3.org/2000/svg"
   xmlns:svg="http://www.w3.org/2000/svg"><sodipodi:namedview
     id="namedview1"
     pagecolor="#ffffff"
     bordercolor="#000000"
     borderopacity="0.25"
     inkscape:showpageshadow="2"
     inkscape:pageopacity="0.0"
     inkscape:pagecheckerboard="true"
     inkscape:deskcolor="#d1d1d1"
     inkscape:document-units="mm"
     inkscape:zoom="1.4378367"
     inkscape:cx="174.56781"
     inkscape:cy="205.51708"
     inkscape:window-width="1920"
     inkscape:window-height="1009"
     inkscape:window-x="1912"
     inkscape:window-y="-8"
     inkscape:window-maximized="1"
     inkscape:current-layer="layer1" /><defs
     id="defs1" /><g
     inkscape:label="Warstwa 1"
     inkscape:groupmode="layer"
     id="layer1"><path
       style="fill:#4e5a32;fill-opacity:1"
       d="m 48.1995,82.558793 c 0.70602,-1.378659 0.716911,-1.439329 0.643356,-3.58391 -0.08735,-2.546673 -0.398599,-3.416101 -2.252345,-6.291495 -1.078467,-1.672838 -1.550079,-2.770846 -2.562716,-5.966516 -0.199153,-0.628482 -0.691398,-1.818394 -1.093878,-2.644247 -0.570249,-1.1701 -0.936743,-1.637311 -1.660301,-2.116577 -1.255798,-0.831806 -1.868,-0.930741 -3.939644,-0.636671 -2.917317,0.414113 -3.86663,0.0803 -6.46624,-2.273796 -0.810538,-0.733987 -1.997077,-1.631159 -2.636754,-1.993714 L 27.06793,56.392675 25.369249,56.99379 c -1.002076,0.354607 -2.350822,0.651405 -3.288936,0.723747 -1.406912,0.108493 -1.719365,0.06312 -2.710105,-0.393576 -2.725147,-1.256187 -4.5464,-4.43682 -4.051407,-7.075365 0.320052,-1.706018 2.057606,-3.378327 4.771035,-4.591882 0.668904,-0.299161 1.8563,-0.969473 2.638657,-1.489583 2.000332,-1.329819 2.939205,-1.60693 5.147733,-1.519373 1.754753,0.06957 1.933203,0.12379 4.411941,1.340568 3.283965,1.612053 4.128734,1.83995 6.184749,1.668485 2.106383,-0.175666 3.44777,0.204397 4.482969,1.270187 1.162084,1.196424 1.350337,2.361033 0.610741,3.778284 -0.392748,0.752602 -0.353512,1.011046 0.346212,2.280493 0.70129,1.272288 0.780529,2.213693 0.275849,3.277227 -0.383145,0.807419 -1.639476,1.695295 -2.824391,1.996059 -0.428686,0.108812 -0.779428,0.300843 -0.779428,0.426736 0,0.377634 2.480136,2.618056 3.059007,2.763344 0.295502,0.07417 0.686418,0.04342 0.868704,-0.06833 0.512664,-0.314282 1.746821,-2.967958 2.718435,-5.845161 0.823918,-2.439836 0.874672,-2.721754 0.789834,-4.387182 -0.07064,-1.386712 -0.209232,-2.009228 -0.627506,-2.818611 -0.78132,-1.511892 -1.487654,-2.073363 -3.783452,-3.007492 -1.128383,-0.459124 -2.505813,-1.126234 -3.060955,-1.482468 -1.250272,-0.802297 -2.568043,-2.274002 -2.878527,-3.214779 -0.128814,-0.390312 -0.257329,-0.709658 -0.285587,-0.709658 -0.02826,0 -0.717812,0.226669 -1.532342,0.503708 -1.909403,0.64943 -4.422352,1.026993 -5.630017,0.845893 -2.366963,-0.354949 -4.012539,-1.932447 -4.314582,-4.136087 -0.183355,-1.337726 0.02968,-1.906963 1.162215,-3.105443 0.555145,-0.58747 1.240355,-1.582341 1.522689,-2.210824 1.494461,-3.326707 3.431318,-4.578654 8.044589,-5.199866 3.679337,-0.495451 5.464293,-0.858225 6.506624,-1.322407 1.198435,-0.5337 2.523213,-1.887475 3.672735,-3.753127 1.79297,-2.909955 5.049541,-4.25769 10.36437,-4.289303 3.699822,-0.02201 5.657048,0.375496 8.23143,1.671764 2.357758,1.187192 2.655725,1.410429 3.688473,2.763402 1.736693,2.275192 2.244747,5.311038 1.596557,9.540136 -0.44105,2.877623 -0.406167,3.352616 0.342726,4.666821 0.586134,1.028586 1.63709,1.577301 3.700298,1.931966 3.601305,0.619064 5.319229,2.593939 5.319229,6.114828 0,2.010436 -0.437721,3.381706 -1.493934,4.680122 -1.906161,2.343267 -5.165465,3.674601 -7.967337,3.254435 -0.767826,-0.115143 -1.198093,-0.350576 -1.983751,-1.085467 l -1.003261,-0.938434 -1.0995,0.617252 c -1.571958,0.882486 -3.8393,1.504793 -9.303531,2.553496 -3.121802,0.599141 -4.30944,1.024679 -5.674767,2.033305 -2.704962,1.998273 -4.300454,5.28181 -4.300454,8.850373 0,1.594962 0.315975,3.35211 0.638646,3.551532 0.09461,0.05847 0.514219,-0.428647 0.932473,-1.082481 1.15612,-1.807307 2.843513,-3.306456 4.77264,-4.240207 0.927002,-0.448695 1.834319,-0.815809 2.016259,-0.815809 0.3236,0 0.526821,-0.193328 2.159788,-2.05465 0.888123,-1.012318 1.932397,-1.538877 3.768176,-1.900045 1.112544,-0.21888 1.248295,-0.304364 1.473843,-0.928107 0.136637,-0.377863 0.596215,-0.953078 1.021285,-1.278257 0.651468,-0.498375 0.956869,-0.587739 1.944466,-0.568974 1.627614,0.03093 2.745439,0.634412 4.43529,2.394502 1.808195,1.883354 2.650821,2.265591 5.318451,2.412585 1.756815,0.09681 2.193168,0.197635 3.102265,0.716841 0.677446,0.386906 1.283929,0.955255 1.686412,1.580377 0.59112,0.918107 0.623715,1.075077 0.547846,2.63829 -0.06411,1.320909 -0.213967,1.944137 -0.730025,3.036009 -1.229566,2.601511 -3.776134,4.925801 -6.139487,5.603602 -0.345855,0.09919 -1.328952,0.07923 -2.297529,-0.04664 -2.733267,-0.355204 -3.040664,-0.314448 -4.937509,0.654633 -3.003067,1.534239 -4.691175,1.770166 -7.509114,1.049458 -2.24855,-0.575082 -3.17555,-1.113698 -4.867824,-2.828356 -1.468119,-1.487538 -1.498633,-1.505599 -1.790678,-1.059881 -0.269477,0.411273 -0.412825,0.88088 -0.646367,2.117493 -0.267759,1.417792 1.622648,8.491241 2.695314,10.085216 l 0.687795,1.022059 h -4.017187 -4.017187 z m 2.75146,-11.504319 c 0.157931,-0.356789 0.547226,-0.944922 0.865101,-1.306961 0.487272,-0.554973 0.576333,-0.838596 0.567625,-1.807661 -0.02093,-2.32896 0.642152,-2.843434 4.672784,-3.625555 1.742526,-0.338128 3.681397,-1.271519 3.681397,-1.772261 0,-0.306938 -2.531748,-0.214489 -4.181713,0.152699 -2.080631,0.463028 -3.612249,1.280488 -4.8764,2.602646 -1.945409,2.034677 -2.653412,3.868217 -2.050688,5.310737 0.286866,0.686568 0.624082,1.082633 0.929644,1.091882 0.05781,0.0018 0.23432,-0.288737 0.39225,-0.645526 z M 62.128725,60.847571 c 0.494615,-0.544711 0.757547,-1.475391 0.577282,-2.043357 -0.297208,-0.93642 -3.096325,-0.111542 -3.857531,1.136785 -0.576441,0.945326 -0.501699,1.132863 0.486992,1.221913 2.111825,0.190209 2.3596,0.162236 2.793257,-0.315341 z M 37.112788,59.885754 c 0.889961,-0.212974 1.672831,-0.441946 1.739711,-0.508826 0.255311,-0.255311 -0.144057,-0.755742 -0.699949,-0.877074 -1.217847,-0.265814 -3.152461,-0.906718 -5.225035,-1.730964 -2.082938,-0.828368 -3.977368,-1.136976 -3.977368,-0.647925 0,0.114269 0.07908,0.207763 0.175741,0.207763 0.09666,0 0.821231,0.539839 1.610162,1.199642 1.931563,1.615414 2.70152,2.142977 3.592054,2.461219 0.96826,0.346018 0.893173,0.348818 2.784684,-0.103835 z M 52.19984,51.612912 c 2.181995,-1.908756 2.630769,-4.094843 1.462509,-7.124242 -0.349178,-0.905449 -0.681455,-2.000979 -0.738393,-2.434511 -0.05694,-0.433533 -0.150417,-1.097216 -0.207732,-1.474852 l -0.104208,-0.686612 -0.706854,0.620626 c -1.161475,1.019788 -3.333014,1.117387 -4.800286,0.215745 -0.953199,-0.585742 -1.109343,-0.510542 -0.791166,0.38103 0.152924,0.428511 0.282147,1.162506 0.287162,1.6311 0.01235,1.15377 0.344362,2.04528 1.277392,3.430017 0.952323,1.413369 1.640408,3.367591 1.640408,4.658903 0,2.06146 0.914308,2.328403 2.681168,0.782796 z m 6.957196,-0.438289 c 0.931761,-0.165792 0.944776,-0.185299 1.689994,-2.533122 0.308296,-0.971292 0.732526,-2.067461 0.942734,-2.435932 l 0.382197,-0.669948 -0.872869,-0.225688 c -0.480078,-0.124128 -1.2723,-0.373736 -1.760493,-0.554684 -0.488194,-0.180948 -0.914243,-0.292126 -0.946776,-0.247061 -0.03253,0.04507 -0.471954,1.016869 -0.97649,2.159565 -0.504536,1.142696 -1.220944,2.588077 -1.592017,3.211958 -0.494553,0.831486 -0.607026,1.177315 -0.421278,1.295337 0.309397,0.196586 2.449218,0.19633 3.554998,-4.25e-4 z m 4.831212,-0.894679 c 0.783356,-0.241552 1.868995,-0.66416 2.412531,-0.939129 l 0.988248,-0.499944 -0.528077,-1.042109 c -0.6039,-1.191739 -1.394787,-1.756222 -2.744111,-1.958566 -1.146755,-0.171966 -1.290054,-0.04755 -2.011385,1.746369 -0.57939,1.440917 -0.683586,2.486883 -0.28722,2.883249 0.335641,0.335641 0.517328,0.319744 2.170014,-0.18987 z m -7.081046,-5.320692 c 0.501852,-1.060827 0.534286,-1.256925 0.300681,-1.817925 -0.424839,-1.020246 -0.483448,-1.936134 -0.207197,-3.237889 0.230792,-1.087539 0.219627,-1.285493 -0.100021,-1.773338 -0.314829,-0.480488 -0.462093,-0.535425 -1.177901,-0.439415 -0.449949,0.06035 -1.060962,0.268865 -1.357807,0.463366 -0.5189,0.339996 -0.535351,0.411396 -0.426477,1.850955 0.156918,2.074822 1.555902,6.14334 2.112423,6.14334 0.161572,0 0.546907,-0.535092 0.856299,-1.189094 z M 45.445067,43.949843 c 0.366801,-0.955867 -0.242826,-3.591156 -1.007686,-4.356017 -0.519494,-0.519493 -2.174848,-0.833964 -3.272799,-0.621738 -2.859874,0.552791 -2.94485,0.615792 -2.358899,1.748896 0.50424,0.975092 2.158195,2.146127 4.045732,2.864463 2.030246,0.772646 2.416185,0.826868 2.593652,0.364396 z"
       id="path11" /><path
       style="fill:#495232;fill-opacity:1"
       d="m 47.967709,83.20356 c 1.029013,-1.516336 1.344477,-3.454082 0.929033,-5.7066 -0.275596,-1.494266 -0.710062,-2.4555 -2.015802,-4.459855 -1.303502,-2.000922 -1.940108,-3.390183 -2.515328,-5.489181 -0.54821,-2.000438 -1.479117,-4.067628 -2.236309,-4.965991 -0.327676,-0.388769 -0.999767,-0.885557 -1.493534,-1.103973 -0.796907,-0.35251 -1.195117,-0.380957 -3.544801,-0.253227 -2.610908,0.14193 -2.662478,0.136074 -3.777623,-0.429013 -0.621818,-0.315099 -1.694305,-1.112099 -2.383304,-1.77111 -0.688998,-0.659011 -1.80814,-1.531273 -2.486982,-1.938359 -0.755533,-0.453077 -1.11816,-0.777432 -0.934933,-0.836261 0.164629,-0.05286 0.439565,-0.136927 0.610969,-0.186822 0.171405,-0.04989 0.592124,0.103657 0.934933,0.341228 1.029308,0.713322 3.72103,2.879967 3.999475,3.219294 0.540058,0.658139 2.855268,0.795777 4.622685,0.274817 1.152418,-0.339685 1.343201,-0.463047 1.300967,-0.841223 -0.02722,-0.243741 0.01953,-0.45522 0.103882,-0.469955 0.576116,-0.100634 1.296068,-0.07223 1.296068,0.05113 0,0.286264 2.270005,2.395099 3.003143,2.78992 0.564459,0.303981 0.82935,0.346628 1.10328,0.177627 0.523576,-0.323019 1.591246,-2.566709 2.675199,-5.621884 0.836496,-2.357704 0.948141,-2.878063 0.960078,-4.474769 0.01219,-1.630211 -0.05196,-1.9398 -0.656283,-3.167354 -0.787682,-1.600008 -1.441103,-2.147829 -3.566493,-2.990108 -1.864732,-0.738982 -3.329978,-1.527883 -4.410847,-2.374838 -1.212836,-0.950363 -2.228246,-3.269354 -1.431543,-3.269354 0.100501,0 0.358554,0.38991 0.573451,0.866466 0.564468,1.251767 2.331202,2.478779 4.710387,3.271405 1.057696,0.352372 2.006151,0.640676 2.107677,0.640676 0.303877,0 -3.94e-4,-3.395298 -0.367971,-4.106114 -0.45114,-0.872409 -0.427288,-0.948896 0.173213,-0.555433 0.280649,0.183889 0.587841,0.286401 0.68265,0.227806 0.09481,-0.05859 0.180422,0.05021 0.190253,0.241796 0.03656,0.712558 0.525841,3.488996 0.735089,4.171322 0.119171,0.388602 0.573947,1.259318 1.010614,1.934926 0.915082,1.41581 1.352393,2.669811 1.531763,4.392372 0.14829,1.424087 0.410168,2.004141 0.904327,2.003064 0.513455,-0.0011 1.523824,-0.662801 2.42341,-1.58707 1.676716,-1.722721 2.136576,-3.663919 1.371085,-5.787736 -0.981837,-2.724058 -1.212936,-3.58355 -1.295165,-4.816903 -0.04712,-0.706714 -0.01739,-1.242736 0.06606,-1.191161 0.08345,0.05157 0.295103,-0.110924 0.470339,-0.361109 0.399192,-0.569925 0.476669,-0.365821 0.603794,1.590626 0.09175,1.411937 1.092886,4.532235 1.73662,5.412593 0.259468,0.354845 0.289396,0.355052 0.676541,0.0047 0.222785,-0.201617 0.569967,-0.82516 0.771517,-1.385649 0.371721,-1.033724 0.937685,-1.366391 1.192943,-0.701199 0.209784,0.546688 -1.266074,4.130222 -2.408698,5.848565 -0.952283,1.432097 -0.871644,1.520788 1.382716,1.520788 2.346802,0 2.967683,-0.193374 3.14503,-0.979525 0.205456,-0.910757 1.142901,-3.63648 1.467352,-4.266488 0.169299,-0.328738 0.467079,-0.571348 0.701275,-0.571348 0.381198,0 0.368605,0.07583 -0.198407,1.194637 -1.257618,2.481498 -1.278993,4.002566 -0.05617,3.996755 0.742943,-0.0035 2.961567,-0.706297 4.211086,-1.333895 0.842705,-0.423267 1.01428,-0.452196 1.115621,-0.188105 0.06587,0.171648 0.119759,0.343195 0.119759,0.381214 0,0.188112 -2.121763,1.217779 -3.417051,1.658256 -0.805957,0.274075 -3.343347,0.876835 -5.638644,1.339468 -4.894445,0.986508 -5.49815,1.17938 -7.103165,2.269325 -2.792316,1.896226 -4.46049,5.222335 -4.496539,8.96548 -0.01789,1.857536 0.386152,3.739732 0.802788,3.739732 0.135512,0 0.444103,-0.3506 0.685759,-0.779111 1.202116,-2.131628 3.509282,-4.04222 5.961077,-4.936439 1.386776,-0.505786 1.706059,-0.728908 2.758618,-1.927789 1.299207,-1.479818 2.606332,-2.230745 4.28306,-2.460566 0.876963,-0.120201 0.970025,-0.09293 0.970025,0.284255 0,0.330476 -0.183569,0.446174 -0.882992,0.556525 -1.425752,0.224945 -2.521735,0.862353 -3.026255,1.760026 -0.249575,0.44406 -0.453773,0.854155 -0.453773,0.911325 0,0.05717 0.444093,0.166025 0.986873,0.241902 2.345022,0.327819 2.403355,0.347767 2.050064,0.701058 -0.22412,0.22412 -0.659884,0.310457 -1.420418,0.281423 -1.319256,-0.05036 -4.454675,0.587845 -5.832186,1.187129 -3.139577,1.36587 -5.568966,5.675171 -4.318525,7.66029 0.549581,0.87248 0.865238,0.851967 1.371067,-0.0891 0.563383,-1.048138 1.120418,-1.729145 1.412784,-1.727208 0.134544,8.92e-4 0.350535,0.230049 0.479982,0.509239 0.193353,0.417023 0.171234,0.56565 -0.123938,0.832777 -0.451755,0.408833 -0.83859,1.674886 -0.83859,2.744582 0,0.903428 0.944461,5.18739 1.631254,7.399178 0.240958,0.775993 0.724937,1.827792 1.07551,2.337332 l 0.637405,0.926437 H 51.40478 47.453566 Z"
       id="path10" /><path
       style="fill:#85a5c8;fill-opacity:1;stroke:none;stroke-width:0.697778;stroke-opacity:1"
       d="m 21.043845,49.191522 c 2.417345,-1.32058 1.712213,0.215573 1.395952,1.395952 0.981016,2.013188 0.348993,2.343204 -1.452697,1.452697 -2.138944,0.8762 -2.321646,0.158621 -1.441348,-1.441348 -0.439715,-1.268317 -0.842477,-2.505185 1.498093,-1.407301 z"
       id="path4-7-7-86-2-0-7-0-0"
       sodipodi:nodetypes="ccccc" /><path
       style="fill:#85a5c8;fill-opacity:1;stroke:none;stroke-width:0.697778;stroke-opacity:1"
       d="m 28.716763,44.958189 c 2.417345,-1.32058 1.712213,0.215573 1.395952,1.395952 0.981016,2.013188 0.348993,2.343204 -1.452697,1.452697 -2.138944,0.8762 -2.321646,0.158621 -1.441348,-1.441348 -0.439715,-1.268317 -0.842477,-2.505185 1.498093,-1.407301 z"
       id="path4-7-7-86-2-0-7-0-0-8"
       sodipodi:nodetypes="ccccc" /><path
       style="fill:#85a5c8;fill-opacity:1;stroke:none;stroke-width:0.697778;stroke-opacity:1"
       d="m 35.595929,51.572772 c 2.417345,-1.32058 1.712213,0.215573 1.395952,1.395952 0.981016,2.013188 0.348993,2.343204 -1.452697,1.452697 -2.138944,0.8762 -2.321646,0.158621 -1.441348,-1.441348 -0.439715,-1.268317 -0.842477,-2.505185 1.498093,-1.407301 z"
       id="path4-7-7-86-2-0-7-0-0-7"
       sodipodi:nodetypes="ccccc" /><path
       style="fill:#85a5c8;fill-opacity:1;stroke:none;stroke-width:0.697778;stroke-opacity:1"
       d="m 67.875096,58.187356 c 2.417345,-1.32058 1.712213,0.215573 1.395952,1.395952 0.981016,2.013188 0.348993,2.343204 -1.452697,1.452697 -2.138944,0.8762 -2.321646,0.158621 -1.441348,-1.441348 -0.439715,-1.268317 -0.842477,-2.505185 1.498093,-1.407301 z"
       id="path4-7-7-86-2-0-7-0-0-3"
       sodipodi:nodetypes="ccccc" /><path
       style="fill:#85a5c8;fill-opacity:1;stroke:none;stroke-width:0.697778;stroke-opacity:1"
       d="m 59.143846,67.712356 c 2.417345,-1.32058 1.712213,0.215573 1.395952,1.395952 0.981016,2.013188 0.348993,2.343204 -1.452697,1.452697 -2.138944,0.8762 -2.321646,0.158621 -1.441348,-1.441348 -0.439715,-1.268317 -0.842477,-2.505185 1.498093,-1.407301 z"
       id="path4-7-7-86-2-0-7-0-0-5"
       sodipodi:nodetypes="ccccc" /><path
       style="fill:#85a5c8;fill-opacity:1;stroke:none;stroke-width:0.697778;stroke-opacity:1"
       d="m 72.108429,44.164439 c 2.417345,-1.32058 1.712213,0.215573 1.395952,1.395952 0.981016,2.013188 0.348993,2.343204 -1.452697,1.452697 -2.138944,0.8762 -2.321646,0.158621 -1.441348,-1.441348 -0.439715,-1.268317 -0.842477,-2.505185 1.498093,-1.407301 z"
       id="path4-7-7-86-2-0-7-0-0-9"
       sodipodi:nodetypes="ccccc" /><path
       style="fill:#85a5c8;fill-opacity:1;stroke:none;stroke-width:0.697778;stroke-opacity:1"
       d="m 60.731346,38.608189 c 2.417345,-1.32058 1.712213,0.215573 1.395952,1.395952 0.981016,2.013188 0.348993,2.343204 -1.452697,1.452697 -2.138944,0.8762 -2.321646,0.158621 -1.441348,-1.441348 -0.439715,-1.268317 -0.842477,-2.505185 1.498093,-1.407301 z"
       id="path4-7-7-86-2-0-7-0-0-4"
       sodipodi:nodetypes="ccccc" /><path
       style="fill:#85a5c8;fill-opacity:1;stroke:none;stroke-width:0.697778;stroke-opacity:1"
       d="m 67.081346,23.791522 c 2.417345,-1.32058 1.712213,0.215573 1.395952,1.395952 0.981016,2.013188 0.348993,2.343204 -1.452697,1.452697 -2.138944,0.8762 -2.321646,0.158621 -1.441348,-1.441348 -0.439715,-1.268317 -0.842477,-2.505185 1.498093,-1.407301 z"
       id="path4-7-7-86-2-0-7-0-0-92"
       sodipodi:nodetypes="ccccc" /><path
       style="fill:#85a5c8;fill-opacity:1;stroke:none;stroke-width:0.697778;stroke-opacity:1"
       d="m 54.645929,19.822772 c 2.417345,-1.32058 1.712213,0.215573 1.395952,1.395952 0.981016,2.013188 0.348993,2.343204 -1.452697,1.452697 -2.138944,0.8762 -2.321646,0.158621 -1.441348,-1.441348 -0.439715,-1.268317 -0.842477,-2.505185 1.498093,-1.407301 z"
       id="path4-7-7-86-2-0-7-0-0-33"
       sodipodi:nodetypes="ccccc" /><path
       style="fill:#85a5c8;fill-opacity:1;stroke:none;stroke-width:0.697778;stroke-opacity:1"
       d="m 49.883429,34.904022 c 2.417345,-1.32058 1.712213,0.215573 1.395952,1.395952 0.981016,2.013188 0.348993,2.343204 -1.452697,1.452697 -2.138944,0.8762 -2.321646,0.158621 -1.441348,-1.441348 -0.439715,-1.268317 -0.842477,-2.505185 1.498093,-1.407301 z"
       id="path4-7-7-86-2-0-7-0-0-80"
       sodipodi:nodetypes="ccccc" /><path
       style="fill:#85a5c8;fill-opacity:1;stroke:none;stroke-width:0.697778;stroke-opacity:1"
       d="m 34.802179,29.347772 c 2.417345,-1.32058 1.712213,0.215573 1.395952,1.395952 0.981016,2.013188 0.348993,2.343204 -1.452697,1.452697 -2.138944,0.8762 -2.321646,0.158621 -1.441348,-1.441348 -0.439715,-1.268317 -0.842477,-2.505185 1.498093,-1.407301 z"
       id="path4-7-7-86-2-0-7-0-0-6"
       sodipodi:nodetypes="ccccc" /></g></svg>
