<?xml version="1.0" encoding="UTF-8" standalone="no"?>
<!-- Created with Inkscape (http://www.inkscape.org/) -->

<svg
   width="100mm"
   height="100mm"
   viewBox="0 0 100 100"
   version="1.1"
   id="svg1"
   inkscape:version="1.4 (86a8ad7, 2024-10-11)"
   sodipodi:docname="tree2.svg"
   xml:space="preserve"
   xmlns:inkscape="http://www.inkscape.org/namespaces/inkscape"
   xmlns:sodipodi="http://sodipodi.sourceforge.net/DTD/sodipodi-0.dtd"
   xmlns="http://www.w3.org/2000/svg"
   xmlns:svg="http://www.w3.org/2000/svg"><sodipodi:namedview
     id="namedview1"
     pagecolor="#ffffff"
     bordercolor="#000000"
     borderopacity="0.25"
     inkscape:showpageshadow="2"
     inkscape:pageopacity="0.0"
     inkscape:pagecheckerboard="true"
     inkscape:deskcolor="#d1d1d1"
     inkscape:document-units="mm"
     inkscape:zoom="1.4378367"
     inkscape:cx="90.413605"
     inkscape:cy="222.20882"
     inkscape:window-width="1920"
     inkscape:window-height="1009"
     inkscape:window-x="1912"
     inkscape:window-y="-8"
     inkscape:window-maximized="1"
     inkscape:current-layer="layer1" /><defs
     id="defs1" /><g
     inkscape:label="Warstwa 1"
     inkscape:groupmode="layer"
     id="layer1"><path
       style="fill:#4e5a32;fill-opacity:1"
       d="m 45.728758,79.265388 c 0.84377,-1.68016 1.632622,-5.176362 1.629082,-7.220115 -0.0022,-1.25832 -0.597809,-2.759896 -1.456721,-3.672384 C 45.14795,67.572739 43.08471,66.29223 41.790484,65.821704 41.169614,65.595982 40.28287,65.272057 39.819943,65.101872 39.357015,64.931687 38.655711,64.57356 38.261488,64.306033 37.70613,63.929157 37.28372,63.819621 36.385706,63.819621 c -0.637458,0 -1.600697,-0.13668 -2.140531,-0.303733 -0.818405,-0.253258 -1.187278,-0.264156 -2.219663,-0.06558 -2.194112,0.422032 -4.234836,-0.362316 -4.586321,-1.762742 -0.233225,-0.929242 0.109166,-1.769984 1.177777,-2.892034 0.576222,-0.605038 1.272614,-1.485768 1.547539,-1.957177 0.531529,-0.911405 1.548761,-1.556493 3.199123,-2.028757 0.494864,-0.141609 1.026316,-0.354187 1.181005,-0.472395 0.154688,-0.118209 1.01916,-0.208474 1.92105,-0.20059 1.383354,0.01209 1.777137,0.09459 2.517981,0.527535 0.502122,0.293434 1.473998,0.605486 2.269541,0.728709 1.395366,0.21613 2.308238,0.689389 2.907463,1.507312 0.164955,0.225158 0.730988,0.843271 1.257852,1.373583 1.548927,1.559065 1.780309,2.832707 0.731606,4.027114 -0.737026,0.839426 -1.674323,1.179337 -2.998847,1.087532 -0.607589,-0.04211 -0.990263,0.01328 -0.990187,0.143334 2.11e-4,0.360222 1.237123,1.507419 2.599412,2.410872 0.714804,0.47405 1.673573,1.184698 2.130599,1.579218 l 0.830955,0.717309 0.1353,-1.659906 c 0.39875,-4.891988 0.164575,-12.072217 -0.444273,-13.622223 -0.945713,-2.407596 -3.369174,-4.429832 -6.651485,-5.550271 -2.571809,-0.877905 -4.020841,-1.59585 -5.18046,-2.566738 -0.971991,-0.813797 -0.975778,-0.814947 -2.682121,-0.814947 -0.939815,0 -1.962045,-0.103335 -2.271621,-0.229634 -0.31341,-0.127862 -1.373568,-0.211539 -2.392118,-0.188805 -1.954701,0.04363 -2.891699,-0.203637 -3.651715,-0.963653 -0.833351,-0.833351 -0.370026,-2.217509 1.075092,-3.211776 0.607986,-0.418305 1.025276,-0.914874 1.310103,-1.559001 0.229874,-0.519852 0.660561,-1.203998 0.957082,-1.520324 0.767031,-0.818261 2.360736,-1.520002 3.457331,-1.522333 0.678706,-0.0014 1.018268,-0.111993 1.299644,-0.42312 1.176431,-1.30082 3.342583,-1.552121 5.235266,-0.607357 0.62919,0.314071 1.579271,0.628347 2.11129,0.698391 1.334427,0.175687 2.507785,1.010644 3.183896,2.265648 0.383976,0.712738 0.8586,1.221602 1.558023,1.670421 1.153153,0.739976 1.588773,1.440652 1.588773,2.555471 0,1.4749 -1.054897,2.303901 -3.227208,2.536134 l -1.327729,0.141942 0.200432,0.728847 c 0.341432,1.241575 0.878983,2.102895 1.892984,3.033139 1.033246,0.947899 3.955349,3.250557 4.260932,3.357674 0.438897,0.153849 0.226129,-10.306255 -0.278255,-13.679553 -0.388852,-2.600628 -0.618231,-3.224961 -1.93941,-5.278769 -0.601305,-0.934743 -1.207741,-1.927298 -1.347636,-2.205677 -0.21393,-0.425704 -0.546634,-0.574815 -2.093451,-0.938245 -1.490865,-0.350283 -2.202723,-0.410478 -3.759495,-0.3179 -2.235017,0.132911 -3.595571,-0.203596 -4.41625,-1.092276 -0.693536,-0.751001 -0.810197,-1.187092 -0.541617,-2.024623 0.286184,-0.892426 0.60818,-1.270629 1.896102,-2.227081 0.835259,-0.620289 1.09396,-0.967942 1.452969,-1.952558 0.760347,-2.085322 2.654465,-3.375855 5.340791,-3.638878 1.200904,-0.117582 1.503684,-0.228061 2.026989,-0.739607 1.749073,-1.709773 3.893417,-1.889102 7.358345,-0.615369 1.099698,0.404257 2.234705,0.783453 2.522238,0.842658 0.925819,0.190633 2.45408,1.377839 3.106173,2.412982 0.738488,1.172288 1.431077,1.892986 2.667031,2.775272 1.25809,0.898087 1.801958,1.774643 1.801042,2.902748 -0.001,1.264329 -0.552463,2.086895 -1.841537,2.746985 -0.943306,0.483034 -1.2826,0.542649 -3.156345,0.554584 -1.154684,0.0074 -2.729252,-0.02942 -3.499041,-0.08171 -0.769789,-0.0523 -1.727411,-0.0265 -2.128049,0.05733 -0.648027,0.135587 -0.762494,0.256686 -1.037011,1.097097 -1.036487,3.173114 -1.198964,7.435032 -0.5391,14.141071 0.205596,2.089427 0.380843,3.839102 0.389438,3.888167 0.0086,0.04906 0.308046,-0.186913 0.665448,-0.524396 0.357402,-0.337483 1.344791,-1.121735 2.194198,-1.742782 l 1.544376,-1.129177 0.505062,-1.65584 c 0.277784,-0.910713 0.505062,-1.696503 0.505062,-1.7462 0,-0.0497 -0.787284,-0.09017 -1.74952,-0.08995 -2.018729,4.75e-4 -2.846821,-0.327436 -3.243137,-1.284229 -0.349949,-0.844851 0.231175,-1.933838 1.395281,-2.614662 0.533346,-0.311926 0.94776,-0.734306 1.081373,-1.102159 0.492928,-1.357089 1.363323,-2.12349 2.715949,-2.391448 0.384894,-0.07625 1.278992,-0.365477 1.986885,-0.642729 1.875688,-0.734632 3.09583,-0.603828 5.360528,0.574667 1.259393,0.655358 1.938874,1.155319 2.423388,1.783122 0.370312,0.479829 1.094207,1.112809 1.608655,1.406623 2.969494,1.695948 1.04589,4.799513 -2.634979,4.251303 -2.037545,-0.303461 -2.982832,-0.06737 -4.221234,1.054294 -0.586396,0.531117 -1.596582,1.273726 -2.244859,1.650243 -1.296388,0.752936 -2.970437,1.794096 -4.122982,2.564253 -0.964412,0.644442 -2.503492,2.51192 -2.980017,3.615871 -0.33808,0.783221 -0.37396,1.448739 -0.37396,6.936296 0,3.338473 0.06763,6.111753 0.150301,6.162843 0.315148,0.194772 4.355079,-2.801421 5.097253,-3.78035 0.411833,-0.54321 0.74924,-1.078813 0.749794,-1.190229 5.91e-4,-0.118847 -0.63947,-0.205567 -1.548568,-0.209812 -1.835326,-0.0086 -3.307959,-0.558769 -3.679778,-1.374823 -0.371289,-0.814891 0.07406,-1.939836 1.139092,-2.877313 0.667869,-0.587882 0.97887,-1.056812 1.204267,-1.815808 0.614992,-2.070901 2.508546,-3.41135 4.824122,-3.415002 0.964674,-0.0015 1.296056,-0.08203 1.499589,-0.364321 1.154877,-1.601758 3.668779,-1.807614 5.238934,-0.429 0.502303,0.441028 0.87374,0.591422 1.460673,0.591422 2.007519,0 3.583816,0.965242 4.389717,2.688032 0.247229,0.528505 0.758889,1.056005 1.55153,1.599561 0.65046,0.446056 1.34673,1.035948 1.547266,1.310873 0.985186,1.350635 0.470104,2.700506 -1.348079,3.532898 -1.021096,0.467473 -1.296019,0.502506 -3.543777,0.451579 -1.340242,-0.03037 -3.263911,0.01665 -4.274819,0.104472 -1.727759,0.150105 -1.901673,0.207946 -2.899205,0.964237 -1.312352,0.994974 -2.873067,1.718108 -5.431424,2.516568 -2.394004,0.747167 -3.436441,1.335622 -4.493629,2.536651 -0.983748,1.117596 -1.234039,2.123391 -1.231631,4.949312 0.0025,2.90038 0.84383,9.597993 1.381849,11.000161 0.118786,0.309576 0.215975,0.601996 0.215975,0.649822 0,0.04783 -1.621385,0.08696 -3.603077,0.08696 H 45.352214 Z M 41.561383,64.5095 c 0,-0.398749 -0.669653,-1.305707 -0.89907,-1.217671 -0.149712,0.05745 -0.600228,0.165992 -1.001146,0.241205 -0.877988,0.164711 -0.72831,0.353036 0.600572,0.755636 1.144196,0.346648 1.299644,0.373061 1.299644,0.22083 z m 17.195285,-5.335908 c 1.240429,-0.488274 2.399343,-1.126861 2.399343,-1.32209 0,-0.07162 -0.472371,-0.130209 -1.049713,-0.130209 -0.577341,0 -1.382339,-0.06105 -1.788884,-0.135665 -0.711297,-0.130548 -0.758424,-0.102815 -1.249658,0.735413 -0.280766,0.479092 -0.510485,1.022266 -0.510485,1.207052 0,0.397753 0.488282,0.319052 2.199397,-0.354501 z M 41.558666,46.174457 c -0.0015,-0.137462 -0.165033,-0.789783 -0.36342,-1.449602 l -0.360705,-1.199671 -1.486072,0.0063 c -1.642786,0.007 -3.387534,0.242132 -3.381959,0.455818 0.0068,0.260381 2.050612,1.476249 3.272158,1.946607 1.36039,0.52382 2.324163,0.623744 2.319998,0.240538 z m 16.598606,-3.947688 c 0.715046,-0.417999 1.455449,-0.931674 1.645339,-1.141501 0.337505,-0.372939 0.30179,-0.381254 -1.5909,-0.37041 -2.171271,0.01244 -2.188706,0.02628 -2.234345,1.774087 -0.01831,0.701032 0.01675,0.752446 0.429947,0.630545 0.247432,-0.073 1.034914,-0.474722 1.749959,-0.892721 z m -9.621821,-9.648585 c 0.267804,-0.719882 0.979015,-3.727048 0.900125,-3.805939 -0.03952,-0.03952 -0.545237,-0.0045 -1.123808,0.07793 -0.578571,0.08238 -1.524318,0.156358 -2.10166,0.164386 -0.577342,0.008 -1.049712,0.08369 -1.049712,0.168128 0,0.444993 2.669569,3.845373 3.018925,3.845373 0.103824,0 0.264083,-0.202445 0.35613,-0.449877 z"
       id="path8" /><path
       style="fill:#495232;fill-opacity:1"
       d="m 45.560286,79.968762 c 0,-0.05707 0.225662,-0.614029 0.501472,-1.237683 0.734122,-1.659981 1.298035,-4.448326 1.298035,-6.418317 0,-1.413828 -0.08395,-1.873967 -0.487022,-2.66939 -0.839041,-1.655766 -2.803718,-3.062661 -5.749272,-4.117023 -1.999148,-0.715595 -3.083674,-1.219698 -3.268927,-1.519444 -0.193536,-0.313148 0.778345,-0.210208 2.007277,0.212607 0.639265,0.219939 1.330477,0.39989 1.536025,0.39989 0.349484,0 0.353938,-0.03826 0.06867,-0.589906 -0.391456,-0.756992 -0.385281,-0.80971 0.09484,-0.80971 0.219939,0 0.39989,0.07378 0.39989,0.163955 0,0.409214 1.519007,1.874173 2.555219,2.464303 0.629072,0.35826 1.614535,1.094678 2.189917,1.636484 0.929633,0.875384 1.062956,0.943276 1.197035,0.609564 0.08299,-0.206547 0.15207,-3.299738 0.15352,-6.873758 0.0025,-6.19113 -0.01868,-6.566029 -0.448529,-7.93312 -0.839861,-2.671114 -3.338206,-4.777624 -7.236524,-6.101561 -2.285519,-0.776203 -3.779582,-1.52425 -4.904751,-2.455709 -0.657591,-0.54438 -0.565425,-0.773773 0.395785,-0.985074 0.446155,-0.09808 0.522995,-0.0787 0.299918,0.07563 -0.25562,0.176844 -0.226088,0.266963 0.199945,0.610148 1.156777,0.931825 4.735057,2.380184 5.188327,2.100048 0.100758,-0.06227 0.0104,-0.706229 -0.204558,-1.457915 -0.467,-1.633014 -0.466316,-1.609804 -0.04645,-1.575367 0.224861,0.01844 0.485159,0.442226 0.774972,1.261708 0.603194,1.705604 1.050094,2.26248 3.048566,3.798776 0.954943,0.734099 2.027332,1.605433 2.383087,1.936298 0.355754,0.330865 0.694687,0.553711 0.753185,0.495214 0.274955,-0.274955 0.332476,-4.308142 0.116663,-8.180077 C 47.963626,35.399997 47.744284,34.397751 45.92966,31.628444 45.317158,30.6937 44.754881,29.734038 44.680156,29.49586 c -0.186088,-0.593139 0.237723,-0.804654 0.456946,-0.228052 0.357269,0.939688 2.613694,3.760253 3.008167,3.760253 0.433427,0 0.430848,0.0064 1.015759,-2.529098 0.331491,-1.436971 0.5052,-1.851048 0.809968,-1.930747 0.472965,-0.123683 0.511281,0.308578 0.114019,1.28629 -0.58536,1.440643 -0.986862,4.947599 -0.859608,7.50832 0.137151,2.759871 0.745509,9.920276 0.852975,10.039549 0.03877,0.04303 0.485792,-0.271885 0.993385,-0.699808 0.507593,-0.427923 1.325775,-1.060525 1.818181,-1.405783 1.535566,-1.076685 1.815674,-1.441083 2.183134,-2.840079 0.42721,-1.626479 0.642391,-2.080241 0.908494,-1.91578 0.182156,0.112579 0.151844,0.583201 -0.138121,2.144437 -0.160808,0.865825 0.886912,0.587343 2.949777,-0.784048 1.418551,-0.943051 1.600957,-1.183843 1.013149,-1.337454 -0.192448,-0.05029 0.03759,-0.101876 0.5112,-0.114633 0.804057,-0.02166 0.843693,0.0017 0.598284,0.352036 -0.510939,0.729467 -2.054234,1.864848 -4.441822,3.267788 -2.741391,1.610833 -4.73335,3.442626 -5.50144,5.059089 -0.426089,0.896713 -0.482443,1.343072 -0.569273,4.508969 -0.104565,3.81252 0.100007,8.982841 0.35542,8.982841 0.295091,0 3.287332,-2.093145 4.198448,-2.936916 0.497384,-0.46062 1.128357,-1.200497 1.402163,-1.64417 0.273805,-0.443673 0.651314,-0.809098 0.838907,-0.812056 0.290203,-0.0046 0.24897,0.174591 -0.276422,1.201126 -0.339626,0.663577 -0.561148,1.262859 -0.49227,1.331736 0.228845,0.228845 2.210946,-0.336351 3.514405,-1.002131 1.348289,-0.688679 1.677326,-1.05049 1.073136,-1.180025 -0.198533,-0.04257 0.155847,-0.07261 0.787512,-0.06678 0.631664,0.0058 1.149022,0.03027 1.149684,0.05429 6.63e-4,0.02402 -0.471166,0.388019 -1.048508,0.808879 -1.189758,0.867288 -3.34059,1.823461 -5.548479,2.46663 -2.410821,0.702283 -3.396709,1.336043 -4.63432,2.979085 -0.794713,1.055055 -1.027181,3.026009 -0.766526,6.498911 0.225406,3.003257 0.644829,6.019785 1.122336,8.071951 0.163107,0.700978 0.269907,1.301156 0.237334,1.33373 -0.109113,0.109113 -6.755864,0.349713 -6.755864,0.244549 z"
       id="path9" /><path
       style="fill:#85a5c8;fill-opacity:1;stroke:none;stroke-width:0.697778;stroke-opacity:1"
       d="m 32.420929,57.129023 c 2.417345,-1.32058 1.712213,0.215573 1.395952,1.395952 0.981016,2.013188 0.348993,2.343204 -1.452697,1.452697 -2.138944,0.8762 -2.321646,0.158621 -1.441348,-1.441348 -0.439715,-1.268317 -0.842477,-2.505185 1.498093,-1.407301 z"
       id="path4-7-7-86-2-0-7"
       sodipodi:nodetypes="ccccc" /><path
       style="fill:#85a5c8;fill-opacity:1;stroke:none;stroke-width:0.697778;stroke-opacity:1"
       d="m 41.152179,57.922773 c 2.417345,-1.32058 1.712213,0.215573 1.395952,1.395952 0.981016,2.013188 0.348993,2.343204 -1.452697,1.452697 -2.138944,0.8762 -2.321646,0.158621 -1.441348,-1.441348 -0.439715,-1.268317 -0.842477,-2.505185 1.498093,-1.407301 z"
       id="path4-7-7-86-2-0-7-3"
       sodipodi:nodetypes="ccccc" /><path
       style="fill:#85a5c8;fill-opacity:1;stroke:none;stroke-width:0.697778;stroke-opacity:1"
       d="m 39.864571,36.814293 c 2.417345,-1.32058 1.712213,0.215573 1.395952,1.395952 0.981016,2.013188 0.348993,2.343204 -1.452697,1.452697 -2.138944,0.8762 -2.321646,0.158621 -1.441348,-1.441348 -0.439715,-1.268317 -0.842477,-2.505185 1.498093,-1.407301 z"
       id="path4-7-7-86-2-0-7-8"
       sodipodi:nodetypes="ccccc" /><path
       style="fill:#85a5c8;fill-opacity:1;stroke:none;stroke-width:0.697778;stroke-opacity:1"
       d="m 55.968846,34.63944 c 2.417345,-1.32058 1.712213,0.215573 1.395952,1.395952 0.981016,2.013188 0.348993,2.343204 -1.452697,1.452697 -2.138944,0.8762 -2.321646,0.158621 -1.441348,-1.441348 -0.439715,-1.268317 -0.842477,-2.505185 1.498093,-1.407301 z"
       id="path4-7-7-86-2-0-7-80"
       sodipodi:nodetypes="ccccc" /><path
       style="fill:#85a5c8;fill-opacity:1;stroke:none;stroke-width:0.697778;stroke-opacity:1"
       d="m 67.875096,51.572773 c 2.417345,-1.32058 1.712213,0.215573 1.395952,1.395952 0.981016,2.013188 0.348993,2.343204 -1.452697,1.452697 -2.138944,0.8762 -2.321646,0.158621 -1.441348,-1.441348 -0.439715,-1.268317 -0.842477,-2.505185 1.498093,-1.407301 z"
       id="path4-7-7-86-2-0-7-0"
       sodipodi:nodetypes="ccccc" /><path
       style="fill:#85a5c8;fill-opacity:1;stroke:none;stroke-width:0.697778;stroke-opacity:1"
       d="m 58.879263,49.191523 c 2.417345,-1.32058 1.712213,0.215573 1.395952,1.395952 0.981016,2.013188 0.348993,2.343204 -1.452697,1.452697 -2.138944,0.8762 -2.321646,0.158621 -1.441348,-1.441348 -0.439715,-1.268317 -0.842477,-2.505185 1.498093,-1.407301 z"
       id="path4-7-7-86-2-0-7-83"
       sodipodi:nodetypes="ccccc" /><path
       style="fill:#85a5c8;fill-opacity:1;stroke:none;stroke-width:0.697778;stroke-opacity:1"
       d="m 56.854603,23.101716 c 2.417345,-1.32058 1.712213,0.215573 1.395952,1.395952 0.981016,2.013188 0.348993,2.343204 -1.452697,1.452697 -2.138944,0.8762 -2.321646,0.158621 -1.441348,-1.441348 -0.439715,-1.268317 -0.842477,-2.505185 1.498093,-1.407301 z"
       id="path4-7-7-86-2-0-7-01"
       sodipodi:nodetypes="ccccc" /><path
       style="fill:#85a5c8;fill-opacity:1;stroke:none;stroke-width:0.697778;stroke-opacity:1"
       d="m 46.443846,16.38319 c 2.417345,-1.32058 1.712213,0.215573 1.395952,1.395952 0.981016,2.013188 0.348993,2.343204 -1.452697,1.452697 -2.138944,0.8762 -2.321646,0.158621 -1.441348,-1.441348 -0.439715,-1.268317 -0.842477,-2.505185 1.498093,-1.407301 z"
       id="path4-7-7-86-2-0-7-61"
       sodipodi:nodetypes="ccccc" /><path
       style="fill:#85a5c8;fill-opacity:1;stroke:none;stroke-width:0.697778;stroke-opacity:1"
       d="m 39.300096,22.73319 c 2.417345,-1.32058 1.712213,0.215573 1.395952,1.395952 0.981016,2.013188 0.348993,2.343204 -1.452697,1.452697 -2.138944,0.8762 -2.321646,0.158621 -1.441348,-1.441348 -0.439715,-1.268317 -0.842477,-2.505185 1.498093,-1.407301 z"
       id="path4-7-7-86-2-0-7-4"
       sodipodi:nodetypes="ccccc" /><path
       style="fill:#85a5c8;fill-opacity:1;stroke:none;stroke-width:0.697778;stroke-opacity:1"
       d="m 28.716763,39.931107 c 2.417345,-1.32058 1.712213,0.215573 1.395952,1.395952 0.981016,2.013188 0.348993,2.343204 -1.452697,1.452697 -2.138944,0.8762 -2.321646,0.158621 -1.441348,-1.441348 -0.439715,-1.268317 -0.842477,-2.505185 1.498093,-1.407301 z"
       id="path4-7-7-86-2-0-7-6"
       sodipodi:nodetypes="ccccc" /></g></svg>
