<?xml version="1.0" encoding="UTF-8" standalone="no"?>
<!-- Created with Inkscape (http://www.inkscape.org/) -->

<svg
   width="100mm"
   height="100mm"
   viewBox="0 0 100 100"
   version="1.1"
   id="svg1"
   inkscape:version="1.4 (86a8ad7, 2024-10-11)"
   sodipodi:docname="tree4.svg"
   xml:space="preserve"
   xmlns:inkscape="http://www.inkscape.org/namespaces/inkscape"
   xmlns:sodipodi="http://sodipodi.sourceforge.net/DTD/sodipodi-0.dtd"
   xmlns="http://www.w3.org/2000/svg"
   xmlns:svg="http://www.w3.org/2000/svg"><sodipodi:namedview
     id="namedview1"
     pagecolor="#ffffff"
     bordercolor="#000000"
     borderopacity="0.25"
     inkscape:showpageshadow="2"
     inkscape:pageopacity="0.0"
     inkscape:pagecheckerboard="true"
     inkscape:deskcolor="#d1d1d1"
     inkscape:document-units="mm"
     inkscape:zoom="1.4378367"
     inkscape:cx="158.22381"
     inkscape:cy="204.1261"
     inkscape:window-width="1920"
     inkscape:window-height="1009"
     inkscape:window-x="1912"
     inkscape:window-y="-8"
     inkscape:window-maximized="1"
     inkscape:current-layer="layer1" /><defs
     id="defs1" /><g
     inkscape:label="Warstwa 1"
     inkscape:groupmode="layer"
     id="layer1"><path
       style="fill:#4e5a32;fill-opacity:1"
       d="m 43.813292,80.72567 c 0,-0.06617 0.532782,-0.63361 1.183959,-1.260972 0.712486,-0.686429 1.183958,-1.306436 1.183958,-1.556961 0,-0.496709 0.0608,-0.48987 -1.006684,-0.113239 -0.472437,0.166686 -1.970949,0.38182 -3.330027,0.478077 -1.59014,0.112622 -3.104158,0.355434 -4.246988,0.681116 -2.898039,0.825879 -3.024079,0.644494 -0.542648,-0.780926 1.790949,-1.028782 2.932532,-1.469376 4.788714,-1.848205 1.639217,-0.334548 2.234192,-0.788527 2.910468,-2.220753 0.732004,-1.550245 1.029316,-2.958458 1.05537,-4.998747 0.03074,-2.407535 -0.46612,-4.21659 -1.532459,-5.579597 -0.486011,-0.621226 -1.247111,-1.680817 -1.691333,-2.354648 -0.776878,-1.178429 -2.259561,-2.38772 -3.35305,-2.73478 -0.236205,-0.07497 -0.878318,-0.413412 -1.426916,-0.752097 -0.996828,-0.615405 -0.999305,-0.6158 -3.957349,-0.631067 -1.627943,-0.0084 -3.180528,-0.106868 -3.450189,-0.218813 -0.40166,-0.166741 -0.61935,-0.118129 -1.204204,0.268909 -0.935987,0.619407 -3.425143,1.317211 -4.231746,1.186317 -1.951336,-0.316658 -3.64904,-1.748392 -3.941766,-3.324233 -0.13935,-0.75017 -0.447264,-0.9472 -1.48896,-0.952769 -0.277208,-0.0015 -0.898786,-0.253305 -1.381285,-0.559607 -2.916883,-1.85171 -3.391845,-5.882102 -1.007363,-8.548185 l 0.856538,-0.957694 -0.506351,-0.601765 c -0.527347,-0.626716 -1.108063,-2.265518 -1.108063,-3.126993 0,-0.916768 0.878241,-2.826028 1.748384,-3.800914 0.511698,-0.573294 1.24874,-1.131041 1.818559,-1.37617 l 0.958145,-0.412183 -0.117577,-0.857824 c -0.27192,-1.983867 0.928013,-4.435893 2.753115,-5.625907 1.30658,-0.851925 3.166089,-1.193902 4.31468,-0.793501 0.611755,0.213258 0.672068,0.186454 1.438702,-0.639382 1.747533,-1.882482 3.652882,-2.63289 5.81125,-2.28872 0.694028,0.110669 1.448802,0.301847 1.677275,0.42484 0.228473,0.122993 0.756125,0.203978 1.172561,0.179967 1.387829,-0.08002 2.846475,0.49963 3.998129,1.588816 0.579594,0.548156 1.106898,1.163922 1.171787,1.368369 0.09156,0.288479 0.308805,0.371722 0.970118,0.371722 1.720652,0 4.072391,1.816424 4.386749,3.388214 0.137705,0.688524 0.380953,0.867065 0.75658,0.555322 0.15527,-0.128863 0.795158,-0.442421 1.421973,-0.696797 1.135627,-0.460862 1.140103,-0.465959 1.263509,-1.438644 0.244761,-1.929207 1.339978,-2.970434 3.724021,-3.540438 0.530927,-0.12694 0.798604,-0.359809 1.157488,-1.006971 0.940658,-1.696251 2.866564,-2.983153 4.464422,-2.983153 0.245356,0 0.967734,-0.231465 1.605283,-0.514367 2.202385,-0.977274 4.94462,-0.413312 6.994272,1.438425 0.758291,0.68507 0.818611,0.704059 1.545088,0.486401 3.607359,-1.08079 7.484908,1.837675 7.513142,5.65482 0.0045,0.602916 0.09051,0.689981 1.139451,1.15284 1.73492,0.765558 2.774741,1.721809 3.456507,3.17871 0.523148,1.117944 0.579053,1.410613 0.487444,2.551866 -0.0692,0.862093 -0.237076,1.469801 -0.506804,1.834628 l -0.403328,0.54553 0.89993,0.646281 c 0.667978,0.479706 1.053209,0.97383 1.494623,1.917111 0.550003,1.175328 0.586588,1.389074 0.486845,2.8443 -0.08654,1.262564 -0.213717,1.736662 -0.64364,2.399361 -0.879065,1.355023 -1.512049,1.915323 -2.422887,2.144675 -0.472839,0.119062 -0.885168,0.315027 -0.916288,0.435477 -0.529548,2.04964 -0.753906,2.506292 -1.54573,3.146141 -1.246952,1.007625 -1.567981,1.121714 -3.257427,1.157643 -1.211131,0.02576 -1.794077,-0.06505 -2.651397,-0.413009 -1.047754,-0.425252 -1.128348,-0.430815 -1.730475,-0.119443 -0.959076,0.495958 -2.375062,0.882603 -3.255006,0.888804 -1.025267,0.0072 -3.243097,0.480127 -4.189236,0.893259 -4.535079,1.980246 -6.102687,3.09188 -7.656858,5.429687 -1.431099,2.152681 -1.842428,3.421091 -2.192175,6.759985 -0.334869,3.196854 -0.247951,4.262122 0.513139,6.289051 0.711246,1.894185 1.512444,2.497325 6.273337,4.722552 0.786814,0.367754 1.430591,0.735241 1.430617,0.816638 8.1e-5,0.256133 -1.226653,0.155834 -2.762523,-0.225866 -1.991582,-0.494954 -6.095187,-1.095427 -6.271424,-0.917686 -0.07793,0.07859 0.2801,0.49938 0.795615,0.935083 0.636955,0.538341 0.937301,0.943684 0.937301,1.264968 0,0.587269 -0.06694,0.586696 -1.083904,-0.0093 -0.452422,-0.265137 -1.259396,-0.591783 -1.793274,-0.72588 -0.533878,-0.134097 -1.476289,-0.494346 -2.094247,-0.800554 -0.617958,-0.306208 -1.240243,-0.556741 -1.382855,-0.556741 -0.35731,0 -2.138593,0.950445 -2.642498,1.409967 -0.227193,0.207182 -1.098618,0.640672 -1.936501,0.963312 -1.642929,0.632635 -1.695613,0.647123 -1.695613,0.466304 z m 7.718692,-18.155391 c 0.627994,-1.250081 1.111349,-1.916247 1.825489,-2.515913 2.002897,-1.681837 2.389052,-2.189148 2.762591,-3.629346 0.298663,-1.151507 0.322055,-1.624 0.154444,-3.119531 -0.108641,-0.969365 -0.297819,-2.028872 -0.420394,-2.354461 -0.218243,-0.579704 -1.767297,-3.255886 -1.884604,-3.255886 -0.03271,0 -0.430011,0.345517 -0.882885,0.767815 -0.850668,0.793236 -2.702037,1.543562 -3.270434,1.325447 -0.223911,-0.08592 -0.433767,0.177612 -0.798904,1.003253 -0.272373,0.615882 -0.835147,1.449671 -1.25061,1.852864 -0.745711,0.723688 -2.192329,3.007641 -2.465404,3.892435 -0.07731,0.250492 -0.03382,0.900413 0.09665,1.444269 0.190865,0.795615 0.474278,1.227144 1.450442,2.208467 0.667274,0.6708 1.5811,1.506347 2.030724,1.856771 0.449624,0.350423 0.981104,0.99191 1.181066,1.425526 0.199963,0.433616 0.42074,0.790683 0.490617,0.793483 0.06988,0.0028 0.511421,-0.760037 0.981208,-1.695193 z M 40.670942,54.80833 c -0.11671,-0.75221 -0.212199,-1.701244 -0.212199,-2.108964 0,-0.551949 -0.228876,-1.082442 -0.896005,-2.076782 -0.492803,-0.73451 -0.969123,-1.380662 -1.05849,-1.435893 -0.08937,-0.05523 -0.743693,-0.04615 -1.454058,0.02019 -1.251705,0.116886 -1.301532,0.142689 -1.614131,0.83591 -0.177405,0.393416 -0.334721,0.891908 -0.34959,1.10776 -0.04707,0.68334 0.60424,1.72605 2.072948,3.318659 1.181057,1.280691 1.610341,1.607728 2.51002,1.912186 1.297369,0.439037 1.310494,0.418421 1.001505,-1.573064 z m -7.90793,1.06689 c 0,-0.167728 -0.223261,-0.528221 -0.496136,-0.801095 l -0.496135,-0.496136 -0.490497,0.582922 c -0.60085,0.714069 -0.603945,0.772641 -0.04651,0.880008 1.013939,0.195293 1.52928,0.139455 1.52928,-0.165699 z m 2.76257,-0.371229 c 0,-0.154844 -0.366163,-0.812162 -0.813696,-1.460708 l -0.813696,-1.179174 -0.757427,0.523408 c -0.416584,0.287874 -0.760796,0.578696 -0.764915,0.646271 -0.0041,0.06757 0.390113,0.48936 0.876071,0.937301 0.686712,0.632988 1.038411,0.814437 1.578612,0.814437 0.470411,0 0.695051,-0.09099 0.695051,-0.281535 z m 9.454745,-1.77741 c 0.229011,-0.379583 0.414649,-1.201977 0.498288,-2.207468 0.111351,-1.338649 0.08038,-1.65543 -0.188127,-1.923933 -0.176785,-0.176785 -0.436304,-0.321427 -0.57671,-0.321427 -0.140407,0 -0.493928,-0.187717 -0.785603,-0.417149 -0.291676,-0.229432 -0.554576,-0.384826 -0.584224,-0.345321 -0.02965,0.0395 -0.164332,0.782203 -0.299299,1.650439 -0.258026,1.659869 -0.137383,2.714275 0.479483,4.190643 0.287595,0.688313 0.30057,0.694693 0.692147,0.34032 0.219482,-0.198628 0.563302,-0.633375 0.764045,-0.966104 z m 18.111076,0.465764 c 1.69873,-0.4289 3.408372,-1.207346 3.926275,-1.787739 0.206867,-0.231829 0.98808,-0.911732 1.736027,-1.510896 l 1.359904,-1.08939 -0.698372,-0.358287 C 69.031132,49.248976 68.406426,48.72507 68.027002,48.281798 l -0.689862,-0.805949 -1.056965,0.673616 c -0.581331,0.370489 -1.916722,1.088041 -2.967535,1.59456 -2.556072,1.232094 -2.967177,1.751137 -3.430126,4.330724 l -0.135641,0.755803 0.96223,-0.139832 c 0.529227,-0.07691 1.601262,-0.301177 2.3823,-0.498375 z m 8.495584,-1.678686 c 0.782005,-0.316883 0.785064,-0.445054 0.02497,-1.04613 -0.672733,-0.531988 -0.976233,-0.449743 -2.190159,0.59351 -0.540587,0.464582 -0.598138,0.588077 -0.350718,0.752594 0.340809,0.226613 1.581443,0.07869 2.515912,-0.299974 z M 47.623876,51.197686 c 0.373881,-0.46125 0.734133,-1.016801 0.800559,-1.234556 0.110406,-0.361925 0.0447,-0.389869 -0.765235,-0.325452 l -0.886011,0.07047 v 1.164089 c 0,0.640249 0.03845,1.164089 0.08545,1.164089 0.047,0 0.391355,-0.377386 0.765235,-0.838637 z m 11.179963,-1.578611 c 0.368491,-0.974695 1.047502,-2.212899 1.692145,-3.085696 0.592178,-0.801763 1.076687,-1.524788 1.076687,-1.60672 0,-0.08193 -0.641011,-0.13632 -1.424469,-0.12086 l -1.42447,0.02811 -0.36976,0.986633 c -0.53478,1.426957 -0.72315,5.426477 -0.255577,5.426477 0.04949,0 0.366942,-0.732575 0.705444,-1.627943 z m -17.011452,-0.98156 c -0.0866,-0.259792 -1.333644,-0.592326 -1.333644,-0.355626 0,0.169838 0.779002,0.56497 1.151071,0.583856 0.144706,0.0073 0.226864,-0.09536 0.182573,-0.22823 z m 14.983777,-2.25278 c -0.05527,-0.05527 -0.508208,-0.03934 -1.006538,0.03539 -1.149264,0.172343 -1.187835,0.566978 -0.16608,1.699222 l 0.739974,0.819992 0.266564,-1.227058 c 0.14661,-0.674882 0.221346,-1.272277 0.16608,-1.327543 z m 7.090994,1.587297 c 0.42024,-0.173299 1.232226,-0.666046 1.804414,-1.094993 0.827404,-0.620273 1.003106,-0.846442 0.858419,-1.104983 -0.137158,-0.245087 -0.418485,-0.312523 -1.143299,-0.274052 -0.528757,0.02806 -1.209235,-0.04321 -1.512174,-0.158388 -0.541343,-0.205818 -0.560747,-0.187471 -1.130333,1.068724 -0.318744,0.702975 -0.579535,1.413281 -0.579535,1.578459 0,0.394551 0.72519,0.388261 1.702508,-0.01477 z"
       id="path14" /><path
       style="fill:#495232;fill-opacity:1"
       d="m 44.405271,80.10493 c 1.105533,-0.863356 1.775938,-1.680311 1.775938,-2.164156 0,-0.526941 -0.16662,-0.544175 -1.461978,-0.151215 -0.532764,0.16162 -1.687123,0.295888 -2.565243,0.298374 -1.095814,0.0031 -2.339279,0.188606 -3.964499,0.591436 -1.302355,0.322804 -2.456714,0.584389 -2.565244,0.581301 -0.108529,-0.0031 0.157861,-0.229492 0.59198,-0.503119 1.708676,-1.07699 3.218389,-1.725431 5.096288,-2.188922 1.079111,-0.26634 2.186548,-0.63137 2.460972,-0.811179 1.034513,-0.677839 2.210398,-4.324464 2.210398,-6.85483 0,-1.077533 -0.435256,-3.358602 -0.806296,-4.225592 -0.113336,-0.264827 -0.63311,-1.019601 -1.155053,-1.677275 C 43.50059,62.342079 42.799768,61.370748 42.465152,60.84124 41.76141,59.727615 41.258628,59.356732 38.438758,57.871124 l -2.064539,-1.087673 -2.285306,0.122473 c -2.499592,0.133957 -4.284157,-0.153532 -3.891313,-0.626879 0.14039,-0.16916 0.624499,-0.212947 1.590332,-0.143842 l 1.388503,0.09935 -0.413132,-0.700206 c -0.227222,-0.385113 -0.542235,-0.749748 -0.700027,-0.810298 -0.378072,-0.14508 -0.369141,-0.517132 0.01241,-0.517132 0.164621,0 0.682181,0.399586 1.150134,0.887969 0.837107,0.873653 1.397081,1.070531 2.184957,0.768194 0.470375,-0.1805 0.393105,-0.429777 -0.585213,-1.887935 l -0.897342,-1.337465 0.439117,-0.593938 0.439117,-0.593937 0.452956,0.797442 c 0.548249,0.965209 2.677078,3.39177 3.379228,3.851836 0.278756,0.182649 0.947296,0.448281 1.485643,0.590294 l 0.978813,0.258206 -0.142572,-1.025011 c -0.07841,-0.563757 -0.201621,-1.700035 -0.273791,-2.525062 -0.119037,-1.360799 -0.219448,-1.632735 -1.081654,-2.929373 -0.52274,-0.786128 -0.921901,-1.445693 -0.887025,-1.465699 0.937172,-0.537597 1.4982,-0.654102 1.948614,-0.404655 0.569884,0.315612 1.370683,0.364684 1.370683,0.08399 0,-0.10853 0.275891,-0.197326 0.613091,-0.197326 0.47823,0 0.58672,0.06872 0.493205,0.312419 -0.06594,0.171831 -0.174445,1.0376 -0.241127,1.923933 -0.123655,1.643596 0.197211,3.369208 0.772865,4.156462 0.228655,0.312705 0.277191,0.30415 0.664817,-0.117176 0.934807,-1.016079 1.249025,-1.941672 1.249025,-3.679253 0,-1.425317 0.04283,-1.635543 0.312128,-1.532202 0.171671,0.06588 0.393663,0.119775 0.493317,0.119775 0.09965,0 0.181187,0.532782 0.181187,1.183959 0,0.651177 0.07078,1.183958 0.15728,1.183958 0.272727,0 1.569778,-1.460028 1.709171,-1.923932 0.07805,-0.259738 0.29047,-0.443985 0.511884,-0.443985 0.369987,0 0.369448,0.02291 -0.02404,1.021195 -0.221384,0.561656 -0.863866,1.524053 -1.427737,2.138659 -1.436489,1.565739 -2.385256,3.515116 -2.258434,4.640275 0.148604,1.318413 0.975901,2.506018 2.816844,4.043649 0.919741,0.768206 1.672588,1.458915 1.672994,1.53491 4.05e-4,0.07599 0.18511,0.440603 0.410455,0.810239 l 0.409718,0.672065 0.272448,-0.474739 c 0.149846,-0.261106 0.334211,-0.607934 0.409701,-0.770729 0.744273,-1.605037 1.74321,-2.942536 2.716135,-3.636697 1.298051,-0.926132 1.722524,-1.46881 2.160565,-2.762232 0.744302,-2.19773 0.32227,-5.238845 -1.072247,-7.726506 -0.842017,-1.502062 -0.936,-1.775579 -0.693453,-2.018127 0.242548,-0.242548 0.313197,-0.217281 0.521275,0.186432 0.337308,0.654444 1.204954,1.5523 1.50007,1.5523 0.160736,0 0.293304,-0.468667 0.379231,-1.340684 0.121071,-1.228683 0.183887,-1.372524 0.751922,-1.721816 0.907092,-0.55778 0.973707,-0.572386 0.761137,-0.166885 -0.628202,1.198368 -0.789823,5.945021 -0.195682,5.746974 0.114345,-0.03812 0.461609,-0.759075 0.771698,-1.602132 0.310089,-0.843058 0.852722,-1.931566 1.205852,-2.418907 0.35313,-0.487342 0.848956,-1.169804 1.101837,-1.516582 0.25288,-0.346779 0.524873,-0.745206 0.604429,-0.885394 0.10237,-0.180392 0.386888,-0.216152 0.973479,-0.122352 0.647,0.103459 0.770675,0.181023 0.563733,0.353551 -0.407855,0.340029 -1.366332,2.673767 -1.236783,3.011367 0.213267,0.555763 2.376631,-0.189478 3.750207,-1.291881 0.855978,-0.686988 1.085626,-0.697723 1.320891,-0.06174 0.215482,0.582504 -0.519203,1.124158 -3.529942,2.602485 -1.31345,0.644927 -2.540327,1.388881 -2.768211,1.678589 -0.418735,0.532335 -0.897291,1.847661 -1.106881,3.042297 l -0.117496,0.669717 1.332701,-0.127956 c 2.536425,-0.243526 5.065577,-1.252367 6.536486,-2.607306 0.563383,-0.518964 1.22135,-1.074601 1.462149,-1.23475 0.2408,-0.160148 0.67474,-0.509202 0.964311,-0.775674 l 0.526493,-0.484494 0.299173,0.578537 c 0.288481,0.557861 0.280243,0.589813 -0.230503,0.894028 -0.291322,0.17352 -0.823557,0.604512 -1.182744,0.95776 -0.577495,0.567947 -0.614438,0.663887 -0.319246,0.829085 0.431338,0.241389 2.070557,0.04617 2.806071,-0.334175 0.536368,-0.277366 1.422128,-0.239226 1.422128,0.06124 0,0.395879 -1.994741,1.03427 -4.089913,1.308923 -2.493394,0.326856 -3.78711,0.762652 -6.766565,2.279361 -2.219551,1.129875 -3.722147,2.464749 -4.975066,4.419742 -1.076966,1.680446 -1.614504,3.210892 -1.905938,5.426477 -0.472861,3.594848 -0.39089,5.147209 0.37947,7.186395 0.704431,1.86467 1.622976,2.685913 4.653023,4.160123 1.449665,0.705306 2.720567,1.282374 2.824228,1.282374 0.103661,0 0.240104,0.08354 0.303206,0.185638 0.146897,0.237686 -0.788662,0.100944 -3.544652,-0.518087 -1.193825,-0.268148 -2.949878,-0.53833 -3.90234,-0.600404 -1.98854,-0.129598 -2.085861,0.02074 -0.72263,1.116258 0.427407,0.343474 0.777104,0.797908 0.777104,1.009853 0,0.211945 -0.0222,0.384229 -0.04933,0.382854 -0.02713,-0.0014 -0.572427,-0.267765 -1.211766,-0.591979 -0.639339,-0.324214 -1.335352,-0.58948 -1.546695,-0.58948 -0.211344,0 -0.959799,-0.26639 -1.663235,-0.591979 -0.703436,-0.325589 -1.53222,-0.591979 -1.841743,-0.591979 -0.341502,0 -1.092534,0.356281 -1.910166,0.90616 -1.214479,0.81677 -3.511939,1.859832 -4.084128,1.854222 -0.12274,-0.0012 0.08763,-0.244896 0.467478,-0.541539 z"
       id="path13" /><path
       style="fill:#85a5c8;fill-opacity:1;stroke:none;stroke-width:0.697778;stroke-opacity:1"
       d="m 26.012743,51.778673 c 2.417345,-1.32058 1.712213,0.215573 1.395952,1.395952 0.981016,2.013188 0.348993,2.343204 -1.452697,1.452697 -2.138944,0.8762 -2.321646,0.158621 -1.441348,-1.441348 -0.439715,-1.268317 -0.842477,-2.505185 1.498093,-1.407301 z"
       id="path4-7-7-86-2-0-7-0-0-92-2"
       sodipodi:nodetypes="ccccc" /><path
       style="fill:#85a5c8;fill-opacity:1;stroke:none;stroke-width:0.697778;stroke-opacity:1"
       d="m 20.779263,39.401939 c 2.417345,-1.32058 1.712213,0.215573 1.395952,1.395952 0.981016,2.013188 0.348993,2.343204 -1.452697,1.452697 -2.138944,0.8762 -2.321646,0.158621 -1.441348,-1.441348 -0.439715,-1.268317 -0.842477,-2.505185 1.498093,-1.407301 z"
       id="path4-7-7-86-2-0-7-0-0-92-8"
       sodipodi:nodetypes="ccccc" /><path
       style="fill:#85a5c8;fill-opacity:1;stroke:none;stroke-width:0.697778;stroke-opacity:1"
       d="m 26.335513,29.083189 c 2.417345,-1.32058 1.712213,0.215573 1.395952,1.395952 0.981016,2.013188 0.348993,2.343204 -1.452697,1.452697 -2.138944,0.8762 -2.321646,0.158621 -1.441348,-1.441348 -0.439715,-1.268317 -0.842477,-2.505185 1.498093,-1.407301 z"
       id="path4-7-7-86-2-0-7-0-0-92-81"
       sodipodi:nodetypes="ccccc" /><path
       style="fill:#85a5c8;fill-opacity:1;stroke:none;stroke-width:0.697778;stroke-opacity:1"
       d="m 42.475096,29.083189 c 2.417345,-1.32058 1.712213,0.215573 1.395952,1.395952 0.981016,2.013188 0.348993,2.343204 -1.452697,1.452697 -2.138944,0.8762 -2.321646,0.158621 -1.441348,-1.441348 -0.439715,-1.268317 -0.842477,-2.505185 1.498093,-1.407301 z"
       id="path4-7-7-86-2-0-7-0-0-92-1"
       sodipodi:nodetypes="ccccc" /><path
       style="fill:#85a5c8;fill-opacity:1;stroke:none;stroke-width:0.697778;stroke-opacity:1"
       d="m 34.008429,38.872772 c 2.417345,-1.32058 1.712213,0.215573 1.395952,1.395952 0.981016,2.013188 0.348993,2.343204 -1.452697,1.452697 -2.138944,0.8762 -2.321646,0.158621 -1.441348,-1.441348 -0.439715,-1.268317 -0.842477,-2.505185 1.498093,-1.407301 z"
       id="path4-7-7-86-2-0-7-0-0-92-5"
       sodipodi:nodetypes="ccccc" /><path
       style="fill:#85a5c8;fill-opacity:1;stroke:none;stroke-width:0.697778;stroke-opacity:1"
       d="m 48.560513,44.693606 c 2.417345,-1.32058 1.712213,0.215573 1.395952,1.395952 0.981016,2.013188 0.348993,2.343204 -1.452697,1.452697 -2.138944,0.8762 -2.321646,0.158621 -1.441348,-1.441348 -0.439715,-1.268317 -0.842477,-2.505185 1.498093,-1.407301 z"
       id="path4-7-7-86-2-0-7-0-0-92-6"
       sodipodi:nodetypes="ccccc" /><path
       style="fill:#85a5c8;fill-opacity:1;stroke:none;stroke-width:0.697778;stroke-opacity:1"
       d="m 55.968846,29.347772 c 2.417345,-1.32058 1.712213,0.215573 1.395952,1.395952 0.981016,2.013188 0.348993,2.343204 -1.452697,1.452697 -2.138944,0.8762 -2.321646,0.158621 -1.441348,-1.441348 -0.439715,-1.268317 -0.842477,-2.505185 1.498093,-1.407301 z"
       id="path4-7-7-86-2-0-7-0-0-92-24"
       sodipodi:nodetypes="ccccc" /><path
       style="fill:#85a5c8;fill-opacity:1;stroke:none;stroke-width:0.697778;stroke-opacity:1"
       d="m 69.727179,24.849856 c 2.417345,-1.32058 1.712213,0.215573 1.395952,1.395952 0.981016,2.013188 0.348993,2.343204 -1.452697,1.452697 -2.138944,0.8762 -2.321646,0.158621 -1.441348,-1.441348 -0.439715,-1.268317 -0.842477,-2.505185 1.498093,-1.407301 z"
       id="path4-7-7-86-2-0-7-0-0-92-21"
       sodipodi:nodetypes="ccccc" /><path
       style="fill:#85a5c8;fill-opacity:1;stroke:none;stroke-width:0.697778;stroke-opacity:1"
       d="m 80.575099,34.639439 c 2.417345,-1.32058 1.712213,0.215573 1.395952,1.395952 0.981016,2.013188 0.348993,2.343204 -1.452697,1.452697 -2.138944,0.8762 -2.321646,0.158621 -1.441348,-1.441348 -0.439715,-1.268317 -0.842477,-2.505185 1.498093,-1.407301 z"
       id="path4-7-7-86-2-0-7-0-0-92-62"
       sodipodi:nodetypes="ccccc" /><path
       style="fill:#85a5c8;fill-opacity:1;stroke:none;stroke-width:0.697778;stroke-opacity:1"
       d="m 76.870929,47.604022 c 2.417345,-1.32058 1.712213,0.215573 1.395952,1.395952 0.981016,2.013188 0.348993,2.343204 -1.452697,1.452697 -2.138944,0.8762 -2.321646,0.158621 -1.441348,-1.441348 -0.439715,-1.268317 -0.842477,-2.505185 1.498093,-1.407301 z"
       id="path4-7-7-86-2-0-7-0-0-92-0"
       sodipodi:nodetypes="ccccc" /><path
       style="fill:#85a5c8;fill-opacity:1;stroke:none;stroke-width:0.697778;stroke-opacity:1"
       d="m 67.081346,38.343606 c 2.417345,-1.32058 1.712213,0.215573 1.395952,1.395952 0.981016,2.013188 0.348993,2.343204 -1.452697,1.452697 -2.138944,0.8762 -2.321646,0.158621 -1.441348,-1.441348 -0.439715,-1.268317 -0.842477,-2.505185 1.498093,-1.407301 z"
       id="path4-7-7-86-2-0-7-0-0-92-18"
       sodipodi:nodetypes="ccccc" /></g></svg>
