<?xml version="1.0" encoding="UTF-8" standalone="no"?>
<!-- Created with Inkscape (http://www.inkscape.org/) -->

<svg
   width="100mm"
   height="100mm"
   viewBox="0 0 100 100"
   version="1.1"
   id="svg1"
   inkscape:version="1.4 (86a8ad7, 2024-10-11)"
   sodipodi:docname="decor3.svg"
   xmlns:inkscape="http://www.inkscape.org/namespaces/inkscape"
   xmlns:sodipodi="http://sodipodi.sourceforge.net/DTD/sodipodi-0.dtd"
   xmlns="http://www.w3.org/2000/svg"
   xmlns:svg="http://www.w3.org/2000/svg">
  <sodipodi:namedview
     id="namedview1"
     pagecolor="#ffffff"
     bordercolor="#000000"
     borderopacity="0.25"
     inkscape:showpageshadow="2"
     inkscape:pageopacity="0.0"
     inkscape:pagecheckerboard="true"
     inkscape:deskcolor="#d1d1d1"
     inkscape:document-units="mm"
     inkscape:zoom="1.4378367"
     inkscape:cx="225.68626"
     inkscape:cy="128.31777"
     inkscape:window-width="1920"
     inkscape:window-height="1009"
     inkscape:window-x="1912"
     inkscape:window-y="-8"
     inkscape:window-maximized="1"
     inkscape:current-layer="layer1" />
  <defs
     id="defs1" />
  <g
     inkscape:label="Warstwa 1"
     inkscape:groupmode="layer"
     id="layer1">
    <path
       style="fill:#172938;fill-opacity:1;stroke-width:1"
       d="m 30.654016,34.449289 -4.20533,-9.155227 12.060784,4.166268 11.741576,-8.328794 -1.209051,8.198065 -8.502185,8.049511 z"
       id="path2"
       sodipodi:nodetypes="ccccccc" />
    <path
       style="fill:#172938;fill-opacity:1;stroke-width:1"
       d="m 52.414865,80.201402 -17.777459,0.02336 -6.661281,4.613898 -5.955124,-20.590729 5.341863,-5.82147 8.586511,14.585008 z"
       id="path3"
       sodipodi:nodetypes="ccccccc" />
    <path
       style="fill:none;stroke:#3e4d58;stroke-width:1;stroke-linecap:butt;stroke-linejoin:miter;stroke-opacity:1"
       d="m 39.227366,69.451293 -3.734211,3.329197 -8.18305,-14.276196 -4.11409,-9.269324 4.111505,9.302363 -5.517086,6.009202 -5.689554,-4.682737 5.765287,4.693931 5.769756,20.300196 -2.090029,5.125367 2.330896,-5.04555 6.597526,-4.849101 3.110338,4.360237 -3.232514,-4.725477 17.633029,-0.04943 18.321807,-3.311855 -17.85536,3.270679 -16.405362,-6.718594 z"
       id="path4"
       sodipodi:nodetypes="ccccccccccccccccccc" />
    <path
       style="fill:#172938;fill-opacity:1;stroke-width:1"
       d="m 86.583214,44.666256 0.4284,14.843604 -16.124511,-2.561228 10.91261,-6.807249 -3.493325,-13.912526 z"
       id="path3-5"
       sodipodi:nodetypes="cccccc" />
    <path
       style="fill:none;stroke:#3e4d58;stroke-width:1;stroke-linecap:butt;stroke-linejoin:miter;stroke-opacity:1"
       d="M 89.945136,41.893483 86.315354,44.441971 78.518665,36.459598 69.412891,22.482903 78.51608,36.492637 81.59747,50.02019 71.371629,56.636886 64.80395,58.624545 71.44463,56.564412 86.268628,59.291157 89.044816,70.19917 86.29804,59.203977 86.431418,44.52968 Z"
       id="path4-2"
       sodipodi:nodetypes="cccccccccccccc" />
    <path
       style="fill:none;stroke:#3e4d58;stroke-width:1;stroke-linecap:butt;stroke-linejoin:miter;stroke-opacity:1"
       d="m 24.542997,40.745245 6.062813,-6.359914 10.006657,2.954391 6.44249,5.706311 -6.445075,-5.673274 8.499934,-7.902345 7.28337,-2.257927 -7.207636,2.269122 0.851654,-7.47752 9.03526,-11.681426 -9.035012,11.682309 -11.601427,7.596073 -11.959037,-3.920507 -10.432621,-9.041842 10.462033,8.954662 4.215475,8.879682 z"
       id="path4-1"
       sodipodi:nodetypes="ccccccccccccccccc" />
  </g>
</svg>
