<?xml version="1.0" encoding="UTF-8" standalone="no"?>
<!-- Created with Inkscape (http://www.inkscape.org/) -->

<svg
   width="100mm"
   height="100mm"
   viewBox="0 0 100 100"
   version="1.1"
   id="svg1"
   inkscape:version="1.4 (86a8ad7, 2024-10-11)"
   sodipodi:docname="decor6.svg"
   xml:space="preserve"
   xmlns:inkscape="http://www.inkscape.org/namespaces/inkscape"
   xmlns:sodipodi="http://sodipodi.sourceforge.net/DTD/sodipodi-0.dtd"
   xmlns="http://www.w3.org/2000/svg"
   xmlns:svg="http://www.w3.org/2000/svg"><sodipodi:namedview
     id="namedview1"
     pagecolor="#ffffff"
     bordercolor="#000000"
     borderopacity="0.25"
     inkscape:showpageshadow="2"
     inkscape:pageopacity="0.0"
     inkscape:pagecheckerboard="true"
     inkscape:deskcolor="#d1d1d1"
     inkscape:document-units="mm"
     inkscape:zoom="1.4378367"
     inkscape:cx="165.1787"
     inkscape:cy="176.30653"
     inkscape:window-width="1920"
     inkscape:window-height="1009"
     inkscape:window-x="1912"
     inkscape:window-y="-8"
     inkscape:window-maximized="1"
     inkscape:current-layer="layer1" /><defs
     id="defs1" /><g
     inkscape:label="Warstwa 1"
     inkscape:groupmode="layer"
     id="layer1"><path
       style="fill:#3e4852;fill-opacity:1;stroke:none;stroke-width:1.71468;stroke-opacity:1"
       d="m 34.340178,84.864749 c -0.921296,-1.19959 -1.685349,-1.500674 -2.730247,-2.327683 2.612887,0.699061 2.996582,2.043007 3.176469,1.435237 0.811078,-2.441171 -1.59357,-5.411677 -3.174472,-7.678426 2.803742,2.433488 4.31295,5.353731 4.371992,7.986351 -0.130281,-2.830761 0.67554,-6.093457 2.325859,-8.479068 -0.999706,2.492843 -1.656625,5.461337 -1.34804,8.390276 0.465788,-2.009964 1.055528,-3.654421 2.705276,-5.220399 -1.529435,2.043868 -1.90276,3.727158 -1.995256,5.605013 0.62826,-0.845812 1.612762,-0.30147 2.901485,-1.143143 -1.153554,1.342068 -2.225984,1.106635 -2.217055,1.822285 -1.339635,0.548041 -3.418844,0.243714 -4.016011,-0.390443 z"
       id="path2"
       sodipodi:nodetypes="cccccccccccc" /><path
       style="fill:#3e4852;fill-opacity:1;stroke:none;stroke-width:1.24301;stroke-opacity:1"
       d="m 63.340878,45.03225 c 0.08756,-3.050071 -1.22632,-4.242557 -2.814246,-5.614243 2.802155,1.27263 2.903852,2.489819 3.500445,4.699313 1.440493,-4.535925 -0.761466,-4.626258 -0.440947,-6.831217 0.597006,2.42477 2.083261,2.284505 1.698979,6.259383 0.36803,-4.08701 2.607763,-4.372289 3.449497,-6.972888 0.204313,2.020476 -1.853418,3.352688 -2.191467,6.62979 0.943537,-2.595741 2.789262,-1.452084 4.460291,-3.087895 -1.00254,2.022644 -3.483282,1.32526 -3.316625,3.774094 1.195934,-1.565379 2.372446,-1.233331 3.498069,-0.795423 -1.238712,0.099 -2.502379,-0.634759 -2.926238,1.82472 -1.49316,0.403354 -3.119729,0.473183 -4.917758,0.11437 z"
       id="path3"
       sodipodi:nodetypes="ccccccccccccc" /></g></svg>
