<?xml version="1.0" encoding="UTF-8" standalone="no"?>
<!-- Created with Inkscape (http://www.inkscape.org/) -->

<svg
   width="100mm"
   height="100mm"
   viewBox="0 0 100 100"
   version="1.1"
   id="svg1"
   inkscape:version="1.4 (86a8ad7, 2024-10-11)"
   sodipodi:docname="decor1.svg"
   xml:space="preserve"
   xmlns:inkscape="http://www.inkscape.org/namespaces/inkscape"
   xmlns:sodipodi="http://sodipodi.sourceforge.net/DTD/sodipodi-0.dtd"
   xmlns="http://www.w3.org/2000/svg"
   xmlns:svg="http://www.w3.org/2000/svg"><sodipodi:namedview
     id="namedview1"
     pagecolor="#ffffff"
     bordercolor="#000000"
     borderopacity="0.25"
     inkscape:showpageshadow="2"
     inkscape:pageopacity="0.0"
     inkscape:pagecheckerboard="true"
     inkscape:deskcolor="#d1d1d1"
     inkscape:document-units="mm"
     inkscape:zoom="2.0334082"
     inkscape:cx="207.28745"
     inkscape:cy="177.28855"
     inkscape:window-width="1920"
     inkscape:window-height="1009"
     inkscape:window-x="1912"
     inkscape:window-y="-8"
     inkscape:window-maximized="1"
     inkscape:current-layer="layer1" /><defs
     id="defs1" /><g
     inkscape:label="Warstwa 1"
     inkscape:groupmode="layer"
     id="layer1"><path
       style="fill:#3e4852;fill-opacity:1;stroke:none;stroke-width:1.84792;stroke-opacity:1"
       d="m 64.32794,77.525657 c -0.348365,-2.135635 -1.518837,-2.955898 -2.644928,-3.847169 2.865498,0.852537 2.931958,3.540373 3.125824,2.885377 0.874102,-2.630861 -0.700738,-4.289669 -2.404482,-6.732554 3.021605,2.62258 3.631424,4.227221 3.695055,7.064405 -0.140405,-3.050722 1.078604,-5.09454 2.857159,-7.665523 -1.077387,2.686548 -2.135923,4.413302 -1.80336,7.569832 0.501981,-2.166146 1.34789,-3.23724 3.12583,-4.924901 -1.648278,2.202685 -2.260955,3.315629 -2.360638,5.339401 0.677078,-0.911534 1.212222,-1.797298 2.601084,-2.213572 -2.795441,2.042326 -1.863471,2.945487 -1.863471,2.945487 -1.44373,0.590626 -3.684503,0.262651 -4.328073,-0.420783 z"
       id="path2"
       sodipodi:nodetypes="cccccccccccc" /><path
       style="fill:#3e4852;fill-opacity:1;stroke:none;stroke-width:1;stroke-opacity:1"
       d="m 27.878251,32.846653 c -0.558725,-1.454507 -1.430689,-2.302828 -2.967239,-3.036246 2.217315,0.20961 2.669228,1.040795 3.519284,2.300188 -0.06245,-1.502566 -0.05745,-3.018622 -1.909154,-4.163337 2.182742,0.06322 2.675242,1.763856 2.921236,3.703298 0.777207,-3.769113 2.579065,-4.738817 3.404276,-4.46236 -2.13024,0.77424 -1.935186,2.623207 -2.392195,4.186339 0.759073,-2.088265 2.169933,-1.834374 3.58829,-2.484201 -1.102619,1.183092 -2.802289,1.066167 -2.668214,3.036246 0.962125,-1.259342 2.019654,-0.992211 3.036244,-1.380112 -0.885511,0.6718 -2.235215,0.229535 -2.576208,2.208178 -1.201242,0.324497 -2.509812,0.380674 -3.95632,0.09201 z"
       id="path3"
       sodipodi:nodetypes="ccccccccccccc" /></g></svg>
