<?xml version="1.0" encoding="UTF-8" standalone="no"?>
<!-- Created with Inkscape (http://www.inkscape.org/) -->

<svg
   width="100mm"
   height="100mm"
   viewBox="0 0 100 100"
   version="1.1"
   id="svg1"
   inkscape:version="1.4 (86a8ad7, 2024-10-11)"
   sodipodi:docname="decor4.svg"
   xmlns:inkscape="http://www.inkscape.org/namespaces/inkscape"
   xmlns:sodipodi="http://sodipodi.sourceforge.net/DTD/sodipodi-0.dtd"
   xmlns="http://www.w3.org/2000/svg"
   xmlns:svg="http://www.w3.org/2000/svg">
  <sodipodi:namedview
     id="namedview1"
     pagecolor="#ffffff"
     bordercolor="#000000"
     borderopacity="0.25"
     inkscape:showpageshadow="2"
     inkscape:pageopacity="0.0"
     inkscape:pagecheckerboard="true"
     inkscape:deskcolor="#d1d1d1"
     inkscape:document-units="mm"
     inkscape:zoom="1.4378367"
     inkscape:cx="131.09973"
     inkscape:cy="202.73512"
     inkscape:window-width="1920"
     inkscape:window-height="1009"
     inkscape:window-x="1912"
     inkscape:window-y="-8"
     inkscape:window-maximized="1"
     inkscape:current-layer="layer1" />
  <defs
     id="defs1" />
  <g
     inkscape:label="Warstwa 1"
     inkscape:groupmode="layer"
     id="layer1">
    <path
       style="fill:#dbeff5;fill-opacity:1;stroke-width:1"
       d="M 65.10806,80.018702 36.010321,71.714499 20.501005,44.709685 l 7.316929,-22.282266 16.271788,-1.657688 11.537216,5.138157 -15.572166,8.275787 0.385316,20.352243 20.916927,13.73775 z"
       id="path3"
       sodipodi:nodetypes="cccccccccc" />
    <path
       style="fill:none;stroke:#b0dde9;stroke-width:1;stroke-linecap:butt;stroke-linejoin:miter;stroke-opacity:1"
       d="m 40.497123,33.652105 15.066924,-7.667446 21.279962,-3.380849 -21.282547,3.413888 -10.945524,-5.39972 5.443345,-3.026603 -5.367612,3.037797 -17.140095,1.898709 -10.002668,-9.595822 10.243535,9.675639 -7.295597,22.201085 -8.758621,0.403917 8.636445,-0.769157 15.468628,26.779248 -3.52738,11.484483 3.667618,-11.354983 29.086677,8.557104 19.999025,8.187164 L 65.154963,79.779225 61.410713,68.504541 73.06454,64.764096 61.465572,68.459906 40.422088,54.53419 40.497118,33.652105 Z"
       id="path4"
       sodipodi:nodetypes="ccccccccccccccccccccccccc" />
  </g>
</svg>
