<?xml version="1.0" encoding="UTF-8" standalone="no"?>
<!-- Created with Inkscape (http://www.inkscape.org/) -->

<svg
   width="100mm"
   height="100mm"
   viewBox="0 0 100 100"
   version="1.1"
   id="svg1"
   inkscape:version="1.4 (86a8ad7, 2024-10-11)"
   sodipodi:docname="decor2.svg"
   xmlns:inkscape="http://www.inkscape.org/namespaces/inkscape"
   xmlns:sodipodi="http://sodipodi.sourceforge.net/DTD/sodipodi-0.dtd"
   xmlns="http://www.w3.org/2000/svg"
   xmlns:svg="http://www.w3.org/2000/svg">
  <sodipodi:namedview
     id="namedview1"
     pagecolor="#ffffff"
     bordercolor="#000000"
     borderopacity="0.25"
     inkscape:showpageshadow="2"
     inkscape:pageopacity="0.0"
     inkscape:pagecheckerboard="true"
     inkscape:deskcolor="#d1d1d1"
     inkscape:document-units="mm"
     inkscape:zoom="1.4378367"
     inkscape:cx="214.55844"
     inkscape:cy="133.18619"
     inkscape:window-width="1920"
     inkscape:window-height="1009"
     inkscape:window-x="1912"
     inkscape:window-y="-8"
     inkscape:window-maximized="1"
     inkscape:current-layer="layer1" />
  <defs
     id="defs1" />
  <g
     inkscape:label="Warstwa 1"
     inkscape:groupmode="layer"
     id="layer1">
    <path
       style="fill:#dbeff5;fill-opacity:1;stroke-width:1"
       d="m 71.743718,56.490052 -13.715091,-17.922927 9.169851,-0.08608 7.07063,-10.360068 5.35967,7.475221 -5.728781,12.599415 z"
       id="path2"
       sodipodi:nodetypes="ccccccc" />
    <path
       style="fill:#dbeff5;fill-opacity:1;stroke-width:1"
       d="M 46.688399,78.984481 27.043355,79.693822 22.644849,72.712499 31.33652,61.035899 30.051824,50.262101 43.497873,61.661069 Z"
       id="path3"
       sodipodi:nodetypes="ccccccc" />
    <path
       style="fill:none;stroke:#b0dde9;stroke-width:1;stroke-linecap:butt;stroke-linejoin:miter;stroke-opacity:1"
       d="M 59.600604,86.699919 46.19014,78.877187 43.348195,61.59752 46.916471,49.383345 43.3251,61.621287 29.955166,50.2969 21.972085,33.69172 l 8.034196,16.662173 1.016957,10.742712 -8.631882,11.239383 -9.297484,0.48424 9.399946,-0.493363 4.448815,7.477417 -5.737536,4.630437 5.815857,-4.67872 19.20245,-0.737189 z"
       id="path4"
       sodipodi:nodetypes="ccccccccccccccccc" />
    <path
       style="fill:none;stroke:#b0dde9;stroke-width:1;stroke-linecap:butt;stroke-linejoin:miter;stroke-opacity:1"
       d="m 76.426287,71.250235 -4.628347,-14.84812 2.803918,-10.321558 3.651591,3.599453 -3.674685,-3.575687 4.593158,-10.496669 10.199531,-6.493679 -10.148417,6.550673 -5.433567,-7.533861 0.445683,-14.173358 -0.446056,14.174196 -6.406211,10.29435 -8.984384,0.102039 -13.783282,-1.971927 13.861603,1.923644 13.354382,18.064008 z"
       id="path4-1"
       sodipodi:nodetypes="ccccccccccccccccc" />
  </g>
</svg>
