<?xml version="1.0" encoding="UTF-8" standalone="no"?>
<!-- Created with Inkscape (http://www.inkscape.org/) -->

<svg
   width="100mm"
   height="100mm"
   viewBox="0 0 100 100"
   version="1.1"
   id="svg1"
   inkscape:version="1.4 (86a8ad7, 2024-10-11)"
   sodipodi:docname="decor8.svg"
   xml:space="preserve"
   xmlns:inkscape="http://www.inkscape.org/namespaces/inkscape"
   xmlns:sodipodi="http://sodipodi.sourceforge.net/DTD/sodipodi-0.dtd"
   xmlns="http://www.w3.org/2000/svg"
   xmlns:svg="http://www.w3.org/2000/svg"><sodipodi:namedview
     id="namedview1"
     pagecolor="#ffffff"
     bordercolor="#000000"
     borderopacity="0.25"
     inkscape:showpageshadow="2"
     inkscape:pageopacity="0.0"
     inkscape:pagecheckerboard="true"
     inkscape:deskcolor="#d1d1d1"
     inkscape:document-units="mm"
     inkscape:zoom="1.0167041"
     inkscape:cx="76.226702"
     inkscape:cy="148.02734"
     inkscape:window-width="1920"
     inkscape:window-height="1009"
     inkscape:window-x="1912"
     inkscape:window-y="-8"
     inkscape:window-maximized="1"
     inkscape:current-layer="layer1" /><defs
     id="defs1" /><g
     inkscape:label="Warstwa 1"
     inkscape:groupmode="layer"
     id="layer1"><path
       style="fill:#3e4852;fill-opacity:1;stroke:none;stroke-width:0.918911;stroke-opacity:1"
       d="m 63.438693,28.906559 c -2.139399,-2.353126 -1.256326,-4.410446 -3.256983,-5.756592 2.644965,0.05049 1.587332,3.779727 4.480082,4.213702 -1.240408,-2.43518 -0.921821,-3.458544 -0.64452,-5.490981 0.313825,3.247529 1.153381,3.291088 1.765694,4.719537 -0.894229,-2.798294 1.413892,-4.658439 -2.012998,-8.732298 3.311762,1.528295 2.957526,5.263473 3.898611,8.80243 2.140526,-4.166621 -1.299066,-5.364719 1.985204,-8.88881 -1.939831,3.467289 0.373165,5.333935 -0.303444,9.029073 1.117959,-2.910713 1.956161,-3.340421 2.773802,-3.587777 -0.802679,1.007406 -1.74673,1.985477 -1.193965,4.709877 0.952305,0.131545 1.530988,-1.205923 2.272326,-1.903859 -0.435418,1.300251 -0.676369,2.762981 -2.017514,3.306487 -2.831986,0.662121 -5.344318,0.29784 -7.746295,-0.420789 z"
       id="path4"
       sodipodi:nodetypes="cccccccccccccc" /><path
       style="fill:#3e4852;fill-opacity:1;stroke:none;stroke-width:0.76266;stroke-opacity:1"
       d="m 25.220687,70.399679 c 1.531243,-2.238027 1.040136,-4.060977 2.243524,-5.756592 -1.872924,1.681849 -1.096797,3.888096 -3.086037,4.213702 0.854436,-2.43518 1.946088,-4.792652 1.755074,-6.825089 -0.216174,3.247529 -2.105595,4.625196 -2.527378,6.053645 -0.09708,-2.154242 -0.966416,-3.751192 2.398705,-7.490198 -2.754693,1.490421 -4.06555,3.940075 -3.697581,7.56033 -1.083438,-3.568573 -0.02523,-5.180704 -3.48365,-5.990576 2.854347,1.949167 1.859122,2.435701 2.325195,6.130839 -0.77009,-2.910713 -1.347473,-3.340421 -1.910693,-3.587777 0.552914,1.007406 1.203209,1.985477 0.822445,4.709877 -0.456446,-0.410049 -0.825198,-1.828579 -1.565257,-1.903859 0.838815,0.614398 0.529522,2.682015 1.389734,3.306487 1.950771,0.662121 3.681353,0.29784 5.335919,-0.420789 z"
       id="path4-5"
       sodipodi:nodetypes="cccccccccccccc" /></g></svg>
