<?xml version="1.0" encoding="UTF-8" standalone="no"?>
<!-- Created with Inkscape (http://www.inkscape.org/) -->

<svg
   width="100mm"
   height="100mm"
   viewBox="0 0 100 100"
   version="1.1"
   id="svg1"
   inkscape:version="1.4 (86a8ad7, 2024-10-11)"
   sodipodi:docname="decor7.svg"
   xml:space="preserve"
   xmlns:inkscape="http://www.inkscape.org/namespaces/inkscape"
   xmlns:sodipodi="http://sodipodi.sourceforge.net/DTD/sodipodi-0.dtd"
   xmlns="http://www.w3.org/2000/svg"
   xmlns:svg="http://www.w3.org/2000/svg"><sodipodi:namedview
     id="namedview1"
     pagecolor="#ffffff"
     bordercolor="#000000"
     borderopacity="0.25"
     inkscape:showpageshadow="2"
     inkscape:pageopacity="0.0"
     inkscape:pagecheckerboard="true"
     inkscape:deskcolor="#d1d1d1"
     inkscape:document-units="mm"
     inkscape:zoom="1.4378367"
     inkscape:cx="274.37051"
     inkscape:cy="110.93054"
     inkscape:window-width="1920"
     inkscape:window-height="1009"
     inkscape:window-x="1912"
     inkscape:window-y="-8"
     inkscape:window-maximized="1"
     inkscape:current-layer="layer1" /><defs
     id="defs1" /><g
     inkscape:label="Warstwa 1"
     inkscape:groupmode="layer"
     id="layer1"><path
       style="fill:#3e4852;fill-opacity:1;stroke:none;stroke-width:1.37326;stroke-opacity:1"
       d="m 63.765884,71.942317 c 0.09673,-3.369669 -1.722849,-4.917128 -4.029208,-4.270369 3.233787,-1.998294 4.128203,0.818556 4.787309,3.259569 1.591434,-5.011217 -1.163281,-4.650978 -0.809177,-7.086981 0.659563,2.678846 2.623579,2.063847 2.199031,6.455228 3.484086,-6.310467 1.400666,-5.128492 0.86671,-7.151489 1.480177,1.394777 2.554568,2.403079 0.523141,6.77244 1.042404,-2.867733 3.173539,-3.35238 5.019664,-5.159598 -1.10759,2.234585 -3.94028,3.212267 -3.75616,5.9177 1.321248,-1.729406 2.62104,-1.362565 3.86461,-0.878771 -1.368509,0.109374 -2.764588,-0.701271 -3.232861,2.015921 -1.649619,0.445619 -3.446626,0.522765 -5.433059,0.126354 z"
       id="path3"
       sodipodi:nodetypes="ccccccccccccc" /><path
       style="fill:#3e4852;fill-opacity:1;stroke:none;stroke-width:0.783326;stroke-opacity:1"
       d="m 22.451473,26.253949 c -2.139399,-1.709951 -1.256326,-3.204948 -3.256983,-4.183154 2.644965,0.03669 1.587332,2.746621 4.480082,3.061979 -1.240408,-1.769577 -0.921821,-2.513227 -0.64452,-3.990142 0.313825,2.359888 1.153381,2.391541 1.765694,3.429555 -0.894229,-2.033442 1.413892,-3.385157 -2.012998,-6.345516 3.311762,1.110569 2.957526,3.824818 3.898611,6.396479 2.140526,-3.027767 -1.299066,-3.898391 1.985204,-6.459249 -1.939831,2.519582 0.373165,3.876021 -0.303444,6.561174 1.117959,-2.115133 1.956161,-2.42739 2.773802,-2.607137 -0.802679,0.732054 -1.74673,1.442791 -1.193965,3.422536 0.952305,0.09559 1.530988,-0.876311 2.272326,-1.383481 -0.435418,0.944856 -0.676369,2.007781 -2.017514,2.402731 -2.831986,0.481145 -5.344318,0.216432 -7.746295,-0.305775 z"
       id="path4"
       sodipodi:nodetypes="cccccccccccccc" /></g></svg>
