<?xml version="1.0" encoding="UTF-8" standalone="no"?>
<!-- Created with Inkscape (http://www.inkscape.org/) -->

<svg
   width="100mm"
   height="100mm"
   viewBox="0 0 100 100"
   version="1.1"
   id="svg1"
   inkscape:version="1.4 (86a8ad7, 2024-10-11)"
   sodipodi:docname="boulder1.svg"
   xml:space="preserve"
   xmlns:inkscape="http://www.inkscape.org/namespaces/inkscape"
   xmlns:sodipodi="http://sodipodi.sourceforge.net/DTD/sodipodi-0.dtd"
   xmlns="http://www.w3.org/2000/svg"
   xmlns:svg="http://www.w3.org/2000/svg"><sodipodi:namedview
     id="namedview1"
     pagecolor="#ffffff"
     bordercolor="#000000"
     borderopacity="0.25"
     inkscape:showpageshadow="2"
     inkscape:pageopacity="0.0"
     inkscape:pagecheckerboard="true"
     inkscape:deskcolor="#d1d1d1"
     inkscape:document-units="mm"
     inkscape:zoom="0.87925266"
     inkscape:cx="497.013"
     inkscape:cy="49.473834"
     inkscape:window-width="1920"
     inkscape:window-height="1009"
     inkscape:window-x="1912"
     inkscape:window-y="-8"
     inkscape:window-maximized="1"
     inkscape:current-layer="layer1" /><defs
     id="defs1" /><g
     inkscape:label="Warstwa 1"
     inkscape:groupmode="layer"
     id="layer1"><path
       style="fill:#918977;fill-opacity:1;stroke-width:1.25718"
       d="m 58.007573,82.678469 c -0.501188,-0.05865 -5.656234,-0.49817 -11.455662,-0.976713 l -10.544419,-0.87008 -3.775151,-1.731235 c -2.076348,-0.952179 -6.013475,-2.730435 -8.74919,-3.95168 l -4.974025,-2.220446 -1.212915,-3.816952 c -0.667111,-2.099324 -1.211357,-4.051435 -1.209434,-4.338024 0.0025,-0.28659 0.597551,-2.219734 1.323623,-4.295874 l 1.320129,-3.7748 -0.162214,-5.597653 C 18.479055,48.026303 18.350634,44.581683 18.282859,43.4503 18.142067,41.099817 18.142306,41.099216 21.367127,35.613832 27.34657,25.44285 27.61274,25.033796 28.697675,24.347967 c 2.556818,-1.616263 6.450169,-3.964957 6.572594,-3.964957 0.07355,0 0.61407,0.411141 1.201136,0.913648 0.587066,0.502505 1.155664,0.824695 1.263542,0.715978 0.107867,-0.108721 0.46688,-0.95921 0.797757,-1.889982 l 0.601612,-1.692314 3.383351,-0.179101 c 1.860842,-0.0985 5.97361,-0.299796 9.139469,-0.447314 l 5.756117,-0.268213 2.445104,1.055196 c 1.344795,0.580358 3.733854,1.616686 5.309014,2.302953 1.575147,0.686266 3.290797,1.408581 3.81254,1.605143 0.812944,0.306271 1.140704,0.711153 2.291515,2.830769 2.353858,4.335417 9.828114,19.604749 11.178315,22.83641 l 1.302213,3.116843 -2.327772,9.474431 c -1.280275,5.210937 -2.327771,9.544356 -2.327771,9.629821 0,0.186038 -8.281166,7.887516 -8.613401,8.01045 -0.127114,0.04703 -0.573099,-0.157993 -0.991074,-0.455622 -1.563946,-1.113625 -3.152973,-0.55924 -3.152973,1.100022 0,0.52718 -0.274103,0.755456 -1.62722,1.355139 -2.978224,1.31991 -5.703429,2.471682 -5.748448,2.429503 -0.02452,-0.02292 -0.454534,-0.08965 -0.955722,-0.148301 z"
       id="path39" /><path
       style="fill:#b38255;fill-opacity:1;stroke-width:1.25718"
       d="m 66.184028,77.062588 c -0.08775,-0.276615 -0.0792,-1.254146 0.01911,-2.172292 0.152245,-1.421677 0.09919,-1.804241 -0.357617,-2.578475 -0.295023,-0.500015 -0.729216,-1.572378 -0.964874,-2.383029 -1.109589,-3.816847 -3.339652,-8.584357 -4.134329,-8.838529 -0.283633,-0.09072 -0.82764,-0.395574 -1.208918,-0.677465 -0.381278,-0.281893 -1.255383,-0.617553 -1.942471,-0.745913 -1.467972,-0.274247 -2.337452,-0.991733 -3.007793,-2.481989 -0.516035,-1.147217 -2.070829,-2.695257 -2.707026,-2.695257 -0.43912,0 -0.541631,1.432418 -0.121066,1.692314 0.143193,0.08851 0.260362,0.505475 0.260362,0.926611 0,0.589155 -0.118678,0.765702 -0.514715,0.765702 -0.839483,0 -1.417623,-1.18196 -1.379279,-2.819831 0.02879,-1.227938 -0.07883,-1.590979 -0.706661,-2.383614 -0.407314,-0.514277 -0.84338,-1.331798 -0.969036,-1.816714 -0.125592,-0.484915 -0.546785,-1.11933 -0.935858,-1.409813 -0.625397,-0.466923 -0.834982,-0.494096 -1.807952,-0.234395 -0.742592,0.198207 -1.203387,0.208412 -1.416705,0.03137 -0.220296,-0.182829 -1.602642,0.144764 -4.559281,1.08047 -8.148697,2.578879 -9.818409,3.164118 -10.454204,3.664235 -0.352161,0.277014 -0.85614,0.506236 -1.119947,0.509381 -0.263807,0.0031 -0.99037,0.237465 -1.614585,0.520711 -0.624228,0.283247 -1.379467,0.514995 -1.678325,0.514995 -0.298857,0 -0.959732,0.273582 -1.468614,0.607961 -0.508881,0.334379 -1.672993,1.066629 -2.586926,1.627225 -0.913921,0.560595 -2.011591,1.346378 -2.439259,1.746186 -0.76292,0.713211 -0.774688,0.71538 -0.624002,0.114982 0.440278,-1.754186 1.059603,-2.620205 3.12495,-4.369731 1.487648,-1.260151 2.43369,-2.30799 3.01188,-3.335929 1.112781,-1.978363 1.503903,-2.20967 2.845378,-1.682725 1.176961,0.462326 0.867971,0.603147 3.669775,-1.672494 1.66398,-1.351497 2.533999,-1.447236 2.957431,-0.325446 0.242887,0.643481 0.441434,0.781068 1.127113,0.781068 0.659957,0 1.003067,-0.215628 1.657103,-1.041424 0.453654,-0.572783 1.040318,-1.041423 1.303684,-1.041423 0.263367,0 0.861773,-0.322191 1.329771,-0.715979 0.741825,-0.624182 1.042518,-0.707484 2.345272,-0.649719 1.298065,0.05755 1.516072,-0.0023 1.659793,-0.455018 0.09102,-0.286702 0.479829,-0.591019 0.864074,-0.67626 1.405805,-0.31186 1.586072,-0.402537 1.73535,-0.872858 0.0836,-0.263606 0.357881,-0.533093 0.609381,-0.598861 0.538237,-0.140753 0.555033,-1.615923 0.06449,-5.664475 -0.164842,-1.36036 -0.385565,-3.435119 -0.490514,-4.610574 -0.160354,-1.795983 -0.299411,-2.253216 -0.870988,-2.863916 -0.3741,-0.399698 -0.858253,-1.080317 -1.075883,-1.512487 -0.217643,-0.432169 -1.100486,-1.398747 -1.961857,-2.147949 -2.129966,-1.852591 -3.950428,-3.693788 -3.950428,-3.995434 0,-0.385799 0.707253,0.0902 2.938913,1.977979 1.115208,0.943367 2.147014,1.641442 2.29291,1.551277 0.589857,-0.36455 1.540726,0.170055 1.920922,1.079987 0.212665,0.508982 0.50628,0.851495 0.652478,0.761141 0.445859,-0.275558 0.29819,-1.095487 -0.336963,-1.870977 -0.671473,-0.819838 -1.740429,-2.530016 -1.740429,-2.784444 0,-0.09049 0.393573,-0.164536 0.874609,-0.164536 0.607168,0 1.224167,0.277869 2.017763,0.908718 0.628729,0.499796 1.300403,0.909856 1.492613,0.911246 0.192211,0.0014 0.647361,0.236847 1.011453,0.523239 0.36408,0.286391 0.813937,0.520712 0.999673,0.520712 0.185723,0 0.593754,0.359616 0.906729,0.799146 0.751505,1.055389 1.563204,1.341917 2.928956,1.033921 0.720566,-0.162499 1.749946,-0.149337 3.017323,0.03858 1.850306,0.27435 1.940321,0.263097 2.361439,-0.295192 0.2408,-0.319228 0.781086,-0.624164 1.200645,-0.677635 2.673698,-0.340758 4.000879,-0.734991 6.573072,-1.952507 1.783714,-0.844304 2.827539,-1.478868 2.722212,-1.654899 -0.09391,-0.157029 0.02741,-0.124712 0.269665,0.07181 0.242284,0.196528 0.440517,0.43529 0.440517,0.530582 0,0.302985 -3.189054,2.277614 -5.001633,3.096966 -1.342255,0.606748 -1.786102,0.944843 -1.915102,1.458831 -0.186075,0.74137 -1.646467,2.139845 -2.621851,2.510687 -0.34575,0.131453 -0.695397,0.445796 -0.777001,0.698538 -0.08159,0.252741 -0.356813,0.986751 -0.611606,1.631132 -0.261544,0.66147 -0.465396,1.861001 -0.468174,2.754924 -0.0038,1.10228 -0.176245,1.919137 -0.568812,2.688637 -0.310134,0.607922 -0.527626,1.358732 -0.483311,1.668466 0.117295,0.819578 0.924795,0.870259 1.284575,0.08062 0.164176,-0.360308 0.454974,-0.715152 0.646229,-0.788543 0.493092,-0.189217 1.143872,0.547541 1.143872,1.294991 0,0.522999 0.129502,0.632293 0.749192,0.632293 0.412053,0 0.895037,-0.17574 1.073293,-0.390534 0.468866,-0.564942 1.377217,-0.479834 2.172535,0.203556 0.780823,0.670938 0.858026,1.026342 0.319978,1.472886 -0.284978,0.236505 -0.310838,0.482003 -0.111135,1.054849 0.180167,0.516823 0.171467,0.912548 -0.02829,1.285772 -0.215807,0.403258 -0.206529,0.68683 0.03684,1.124968 0.469984,0.846142 0.441082,1.93558 -0.09781,3.68479 -0.260387,0.845271 -0.547565,2.334587 -0.638183,3.309591 -0.182291,1.961345 -0.06286,2.260372 1.666545,4.174682 0.881585,0.975801 0.919024,1.087654 0.630841,1.884615 -0.412834,1.141674 -0.371573,3.007154 0.08411,3.80437 0.204644,0.357989 0.376224,1.144425 0.381303,1.747635 0.005,0.603211 0.228971,1.716232 0.497542,2.473382 0.83248,2.346847 1.081453,4.127973 1.011277,7.234645 l -0.06764,2.994092 -1.104169,0.14737 c -0.936072,0.124938 -1.128471,0.0708 -1.263794,-0.355566 z m -23.2771,-4.064187 c 0,-0.121292 0.672089,-0.732701 1.493544,-1.358697 0.821442,-0.625996 2.622027,-2.038754 4.001293,-3.139464 2.661265,-2.123797 6.760606,-4.898143 7.237442,-4.898143 0.592924,0 0.208566,0.501482 -2.513306,3.279126 -2.679142,2.734036 -2.937995,2.924169 -6.053278,4.44606 -3.636572,1.776562 -4.165695,1.988823 -4.165695,1.671118 z m 0,-9.135948 c -0.628666,-0.628667 -0.668255,-1.377393 -0.102712,-1.94291 0.716757,-0.716759 2.185585,0.08319 2.185585,1.19031 0,1.324736 -1.109727,1.725717 -2.082848,0.7526 z m 2.78614,-2.76813 c -0.340495,-0.340493 -0.184781,-1.41306 0.228141,-1.571516 0.628766,-0.241277 1.342958,0.592983 0.988924,1.155171 -0.310398,0.492891 -0.928932,0.704485 -1.217065,0.416345 z m 9.245562,-0.404958 c -0.641891,-0.641886 -0.232239,-1.404417 0.585834,-1.090493 0.247841,0.09511 0.394629,0.388065 0.348943,0.696431 -0.0958,0.646992 -0.508077,0.820767 -0.934777,0.394062 z M 42.509345,59.164641 c -0.235232,-0.380618 0.363828,-1.030019 0.950177,-1.030019 0.34785,0 0.48883,0.18772 0.48883,0.650891 0,0.516515 -0.1312,0.650889 -0.635518,0.650889 -0.349546,0 -0.711112,-0.122299 -0.803489,-0.271761 z m 29.210316,-4.067505 c -0.319475,-0.319471 -0.178054,-1.581443 0.213645,-1.906525 0.581774,-0.482832 1.174912,-0.120325 1.174912,0.718074 0,1.034464 -0.83116,1.745848 -1.388557,1.188451 z M 44.45096,52.254789 c -0.248092,-0.298927 -0.267088,-0.531686 -0.06902,-0.846156 0.443634,-0.704518 1.090391,-0.676689 1.27399,0.05481 0.283897,1.131167 -0.497165,1.644139 -1.20492,0.79134 z m 22.157518,-6.860492 c -0.617729,-1.154248 -0.04438,-2.7646 0.919301,-2.581766 0.343625,0.0652 0.528217,0.347515 0.58132,0.889116 0.166388,1.696685 -0.871754,2.867681 -1.500621,1.69265 z M 36.216222,44.945969 c -0.389827,-1.015852 2.6172,-2.555635 3.187809,-1.632362 0.20482,0.331396 -0.862338,1.542862 -1.359063,1.542862 -0.189834,0 -0.345159,0.117157 -0.345159,0.260356 0,0.441394 -1.306375,0.290946 -1.483587,-0.170856 z m 2.605584,-2.858625 c -0.198258,-0.51665 0.178796,-1.17373 0.877248,-1.528784 0.283897,-0.144316 0.475843,-0.383374 0.426562,-0.531241 -0.04928,-0.147866 0.07505,-0.494007 0.276253,-0.769204 0.299775,-0.40997 0.436644,-0.441614 0.757703,-0.175165 0.397495,0.329892 0.317828,1.347468 -0.105478,1.347468 -0.126485,0 -0.229988,0.328049 -0.229988,0.728996 0,0.400948 -0.140591,0.869589 -0.312422,1.041424 -0.453252,0.453252 -1.499327,0.382994 -1.689853,-0.113498 z m 24.71529,-3.261156 c -0.731705,-0.731712 -0.07618,-2.442287 0.866412,-2.260766 0.408533,0.07867 0.503501,0.317271 0.503501,1.265002 0,0.971849 -0.088,1.180644 -0.523755,1.243102 -0.288058,0.04129 -0.668833,-0.07001 -0.846158,-0.247338 z m -2.613529,-1.572113 c -0.466075,-0.466064 -0.377695,-1.196462 0.180946,-1.495433 0.736746,-0.394296 1.245691,0.301209 0.852268,1.16468 -0.3261,0.715711 -0.570144,0.793832 -1.033214,0.330753 z m -19.23784,-1.415274 c -0.251838,-0.656277 0.285745,-1.266393 1.115837,-1.266393 0.83605,0 1.150107,0.670372 0.615704,1.314288 -0.423532,0.510315 -1.529072,0.479735 -1.731541,-0.0479 z M 64.52954,34.588153 c -0.171077,-0.206135 -0.273286,-0.704065 -0.227148,-1.106513 0.06588,-0.574002 0.234452,-0.749116 0.782369,-0.812415 0.83448,-0.0964 1.382787,0.704558 1.141207,1.667077 -0.180758,0.72017 -1.184127,0.869131 -1.696428,0.251851 z M 34.395761,25.424562 c -0.236727,-0.616904 0.268773,-1.266391 0.985655,-1.266391 0.779968,0 1.001634,0.868988 0.344279,1.34966 -0.632676,0.462623 -1.132469,0.43133 -1.329934,-0.08326 z M 50.327076,23.000796 C 50.04069,22.883576 49.591989,22.54927 49.329993,22.25789 48.947256,21.832242 48.910672,21.621496 49.14388,21.185735 c 0.408357,-0.763026 1.603987,-0.702367 2.595174,0.131665 0.914159,0.769211 0.961077,0.951231 0.391913,1.520395 -0.445205,0.445212 -0.993361,0.494743 -1.803891,0.163001 z m 1.943514,-1.977931 c -0.220032,-0.265117 -0.245653,-0.489187 -0.07543,-0.659424 0.379116,-0.379113 1.125994,-0.0023 1.125994,0.568136 0,0.594751 -0.590183,0.646034 -1.050576,0.09128 z"
       id="path38" /></g></svg>
