<?xml version="1.0" encoding="UTF-8" standalone="no"?>
<!-- Created with Inkscape (http://www.inkscape.org/) -->

<svg
   width="100mm"
   height="100mm"
   viewBox="0 0 100 100"
   version="1.1"
   id="svg1"
   inkscape:version="1.4 (86a8ad7, 2024-10-11)"
   sodipodi:docname="boulder3.svg"
   xml:space="preserve"
   xmlns:inkscape="http://www.inkscape.org/namespaces/inkscape"
   xmlns:sodipodi="http://sodipodi.sourceforge.net/DTD/sodipodi-0.dtd"
   xmlns="http://www.w3.org/2000/svg"
   xmlns:svg="http://www.w3.org/2000/svg"><sodipodi:namedview
     id="namedview1"
     pagecolor="#ffffff"
     bordercolor="#000000"
     borderopacity="0.25"
     inkscape:showpageshadow="2"
     inkscape:pageopacity="0.0"
     inkscape:pagecheckerboard="true"
     inkscape:deskcolor="#d1d1d1"
     inkscape:document-units="mm"
     inkscape:zoom="0.87925266"
     inkscape:cx="497.013"
     inkscape:cy="162.06946"
     inkscape:window-width="1920"
     inkscape:window-height="1009"
     inkscape:window-x="1912"
     inkscape:window-y="-8"
     inkscape:window-maximized="1"
     inkscape:current-layer="layer1" /><defs
     id="defs1" /><g
     inkscape:label="Warstwa 1"
     inkscape:groupmode="layer"
     id="layer1"><path
       style="fill:#918977;fill-opacity:1;stroke-width:1.12063"
       d="m 43.152496,77.352754 c -1.671119,-0.524757 -5.266551,-1.632792 -7.989853,-2.462306 -5.680458,-1.730255 -5.291487,-1.531701 -14.741825,-7.525061 -2.16626,-1.373827 -4.571649,-2.87638 -5.345322,-3.339011 -0.773662,-0.462619 -1.406661,-0.949555 -1.406661,-1.08207 0,-0.132503 -0.658316,-2.662025 -1.462929,-5.621164 -0.804613,-2.959128 -1.462692,-5.488258 -1.46239,-5.620291 2.92e-4,-0.132033 0.734574,-1.162688 1.631729,-2.290343 2.583413,-3.24716 5.199762,-6.647691 5.597945,-7.275772 0.201143,-0.317265 0.707533,-0.964435 1.125338,-1.438156 0.648083,-0.734837 0.988318,-0.90901 2.317096,-1.186158 1.037659,-0.216431 1.661929,-0.473987 1.870457,-0.771704 0.816425,-1.165607 1.956174,-1.405806 10.077231,-2.12373 10.40487,-0.919824 12.502154,-1.220061 16.440724,-2.353573 5.239321,-1.507867 8.988191,-1.696884 13.829463,-0.697282 2.88836,0.596374 4.191206,1.184414 4.759983,2.148431 0.279877,0.474346 0.664197,0.774604 1.104079,0.862579 0.371119,0.07422 3.330683,1.084981 6.576794,2.246126 3.246121,1.161146 6.436401,2.29818 7.089528,2.526744 1.143122,0.400045 1.234509,0.495822 2.445878,2.563385 0.692113,1.181298 1.62087,2.752332 2.063888,3.491187 0.443021,0.738856 0.793138,1.498455 0.778044,1.687996 -0.01513,0.189543 -0.577955,1.9651 -1.250792,3.945681 -0.672839,1.980582 -1.410618,4.397728 -1.639506,5.371444 l -0.416169,1.770396 -1.584416,1.1969 c -2.10533,1.590411 -3.991823,3.069342 -8.448932,6.623615 -7.570995,6.03739 -8.16753,6.465706 -9.240153,6.634517 -0.95852,0.15085 -10.517684,1.994466 -16.417382,3.16631 -1.547334,0.307345 -2.914605,0.546789 -3.03839,0.53211 -0.123785,-0.01468 -1.592349,-0.456041 -3.263457,-0.9808 z"
       id="path35" /><path
       style="fill:#b38255;fill-opacity:1;stroke-width:1.12063"
       d="m 31.714191,62.592596 c -1.085433,-1.011235 -0.0418,-2.059787 1.224401,-1.230162 0.412606,0.270353 0.54456,0.530821 0.493381,0.973896 -0.09223,0.798249 -0.99195,0.932477 -1.717782,0.256266 z m 3.105191,-2.250272 c -0.192738,-0.360137 -0.195092,-0.553883 -0.0089,-0.739987 0.342969,-0.342968 1.027451,0.09638 1.027451,0.659482 0,0.604401 -0.708128,0.660376 -1.018464,0.08047 z M 22.770759,59.132725 c -0.369719,-0.270733 -0.436924,-0.598338 -0.43717,-2.131271 -2.8e-4,-1.757308 -0.02174,-1.830025 -0.720645,-2.437138 -0.396199,-0.344191 -0.750553,-0.87899 -0.787445,-1.188452 -0.06444,-0.540883 -0.136392,-0.565247 -1.856941,-0.629223 -2.778964,-0.103324 -3.056691,-0.686846 -1.192263,-2.50497 0.649877,-0.633732 1.79719,-1.459128 2.549581,-1.834209 1.50511,-0.750326 2.543767,-0.892562 9.660246,-1.322906 l 3.826125,-0.231369 0.930606,-1.013262 c 1.013903,-1.103951 2.951194,-2.135492 4.020848,-2.140964 1.020255,-0.0052 2.372319,-0.438035 2.512914,-0.804425 0.0687,-0.178929 -0.03238,-0.565219 -0.224462,-0.858427 -0.326227,-0.497892 -0.538721,-0.544031 -3.216919,-0.698503 -4.357875,-0.251354 -5.381326,-0.197315 -8.160682,0.430888 -4.941591,1.116918 -8.284881,0.554493 -7.815719,-1.314794 0.156643,-0.624121 2.095614,-2.283092 3.215159,-2.750867 0.526337,-0.219916 3.050077,-0.547333 6.812743,-0.883849 11.736897,-1.049693 13.146696,-1.247577 18.355333,-2.576387 6.165758,-1.572986 8.409217,-1.669123 13.453974,-0.576537 2.81005,0.608599 3.69481,0.957805 4.432252,1.749356 0.811832,0.871393 0.602743,1.053459 -1.175071,1.023234 -0.953331,-0.01621 -1.852302,0.09217 -2.16228,0.260673 -0.87314,0.474632 -0.208348,0.807099 1.62997,0.815161 1.691469,0.0073 2.706447,0.399086 2.997116,1.156545 0.07351,0.191601 -0.08841,0.805612 -0.35998,1.364466 -0.475629,0.978998 -0.478935,1.032365 -0.09044,1.461661 0.367545,0.40613 0.585283,0.431914 2.460291,0.291339 2.368487,-0.177572 3.208961,0.09815 3.803468,1.247804 0.1937,0.374581 0.607124,0.777985 0.918714,0.896454 0.311604,0.118469 1.918219,0.215398 3.570276,0.215398 h 3.003728 l 0.582673,0.692466 c 0.468446,0.556717 0.582672,0.929246 0.582672,1.9003 0,1.385567 -0.470138,1.908555 -1.715709,1.908555 -0.641191,0 -0.735885,0.08744 -0.914044,0.843998 -0.156944,0.666463 -0.433862,0.997812 -1.316482,1.575216 -1.547906,1.012626 -1.68041,1.256104 -1.68041,3.087844 0,1.782464 -0.31372,2.455795 -1.254143,2.691834 -0.711533,0.178584 -1.282125,-0.226412 -1.105043,-0.784341 0.242795,-0.764976 -0.118709,-1.532374 -0.756639,-1.60619 -0.584701,-0.06768 -0.599225,-0.108367 -0.664389,-1.862825 -0.0716,-1.928954 -0.19545,-2.13599 -1.280546,-2.141559 -0.369583,-0.0022 -1.214337,-0.277861 -1.877235,-0.613255 l -1.20526,-0.60981 -1.048631,0.402236 c -1.600956,0.614105 -2.673512,0.796869 -4.739306,0.807583 l -1.890146,0.01011 -1.150562,-1.246138 -1.150564,-1.246143 -1.937022,-0.199849 c -1.94201,-0.200363 -3.036597,-0.08621 -3.971607,0.414194 -0.435938,0.233306 -0.501114,0.450892 -0.501114,1.67312 0,1.62942 -0.316342,2.213673 -1.534065,2.833202 -2.038069,1.03691 -7.469085,2.186396 -9.311425,1.970798 -1.312987,-0.15366 -3.001847,-0.868668 -4.400405,-1.863015 -1.276792,-0.907756 -1.64427,-0.926414 -4.119508,-0.209189 -1.046838,0.303333 -2.662933,0.670945 -3.591332,0.816918 -2.342208,0.368273 -2.60196,0.568642 -2.787883,2.150514 -0.192021,1.633835 -0.596691,2.106999 -1.804586,2.109991 -0.861037,0.0022 -0.946451,0.06129 -1.298801,0.900271 -0.316018,0.752403 -0.482343,0.897973 -1.02605,0.897973 -0.356887,0 -0.845494,-0.143957 -1.08578,-0.319918 z m 42.588255,-0.05525 c -0.284215,-0.284215 -0.149066,-0.906401 0.281525,-1.296089 0.917741,-0.830545 2.307043,0.08383 1.493408,0.982827 -0.400826,0.442918 -1.45859,0.629605 -1.774933,0.313262 z m -46.693711,-0.79523 c -0.404043,-0.404045 -0.327359,-0.808761 0.207474,-1.094992 0.394149,-0.210949 0.557973,-0.175166 0.938001,0.204872 0.384176,0.384176 0.41236,0.518417 0.17009,0.81033 -0.346477,0.41748 -0.941767,0.453586 -1.315565,0.07979 z M 68.106162,56.37967 c -0.213704,-0.257509 -0.195538,-0.400391 0.08686,-0.682745 0.439892,-0.439904 1.067176,-0.236319 1.067176,0.346354 0,0.541309 -0.792252,0.772249 -1.153992,0.336391 z m -51.38948,-0.605926 c -0.257779,-0.188501 -0.365292,-0.450325 -0.278151,-0.677398 0.178942,-0.466306 0.688011,-0.47646 1.065798,-0.02129 0.237686,0.286389 0.230715,0.407742 -0.039,0.6774 -0.279193,0.279194 -0.391582,0.282377 -0.748705,0.02129 z m 64.150007,-0.72647 c -0.418051,-0.418041 -0.411709,-0.363018 -0.127797,-1.109762 0.335664,-0.882855 1.212871,-0.70342 1.306904,0.267338 0.08786,0.907363 -0.613233,1.408297 -1.179107,0.842424 z M 19.001515,54.807333 c -0.179805,-0.179806 0.02343,-0.531269 0.307255,-0.531269 0.116478,0 0.211788,0.151924 0.211788,0.337601 0,0.348045 -0.265578,0.447144 -0.519043,0.193668 z m 36.810942,-1.355527 c -0.480079,-0.193713 -0.310358,-0.724791 0.337602,-1.056408 1.488411,-0.761761 3.432257,-0.641651 3.432257,0.212079 0,0.683137 -2.681154,1.283638 -3.769859,0.844329 z M 54.750368,51.58656 c -0.196873,-0.31854 0.77606,-0.781215 1.055389,-0.501886 0.124467,0.124468 0.158255,0.336413 0.07509,0.47099 -0.186272,0.301383 -0.950397,0.322272 -1.130481,0.03093 z M 82.92195,50.757808 c -0.08686,-0.08686 -0.157831,-0.350544 -0.157831,-0.586101 0,-0.315401 0.133469,-0.409322 0.506403,-0.356349 0.331046,0.04696 0.50639,0.226714 0.50639,0.518963 0,0.446449 -0.556403,0.722046 -0.854962,0.423487 z M 59.638583,50.168617 c 0.05155,-0.154736 0.228811,-0.281333 0.393869,-0.281333 0.165047,0 0.342285,0.126597 0.393856,0.281333 0.05581,0.167356 -0.103765,0.281323 -0.393856,0.281323 -0.290087,0 -0.449653,-0.113967 -0.393869,-0.281323 z M 17.303859,47.902613 c -0.181531,-0.218732 -0.156171,-0.42522 0.09649,-0.785989 0.76148,-1.087175 2.120178,-1.185094 2.120178,-0.152798 0,0.955405 -1.629992,1.64572 -2.216699,0.938787 z m 9.666017,-2.390436 c -0.531224,-0.328315 -0.104777,-0.953307 0.595514,-0.872758 0.341109,0.03924 0.620202,0.160267 0.620202,0.268955 0,0.364049 -0.88912,0.805647 -1.215716,0.603803 z m -1.107868,-1.96616 c 0.05122,-0.266245 0.275933,-0.41072 0.638682,-0.41072 0.800847,0 0.731559,0.655509 -0.07912,0.748319 -0.51642,0.05912 -0.623541,-0.0056 -0.559575,-0.337599 z"
       id="path34" /></g></svg>
