<?xml version="1.0" encoding="UTF-8" standalone="no"?>
<!-- Created with Inkscape (http://www.inkscape.org/) -->

<svg
   width="100mm"
   height="100mm"
   viewBox="0 0 100 100"
   version="1.1"
   id="svg1"
   inkscape:version="1.4 (86a8ad7, 2024-10-11)"
   sodipodi:docname="boulder4.svg"
   xml:space="preserve"
   xmlns:inkscape="http://www.inkscape.org/namespaces/inkscape"
   xmlns:sodipodi="http://sodipodi.sourceforge.net/DTD/sodipodi-0.dtd"
   xmlns="http://www.w3.org/2000/svg"
   xmlns:svg="http://www.w3.org/2000/svg"><sodipodi:namedview
     id="namedview1"
     pagecolor="#ffffff"
     bordercolor="#000000"
     borderopacity="0.25"
     inkscape:showpageshadow="2"
     inkscape:pageopacity="0.0"
     inkscape:pagecheckerboard="true"
     inkscape:deskcolor="#d1d1d1"
     inkscape:document-units="mm"
     inkscape:zoom="0.87925266"
     inkscape:cx="497.013"
     inkscape:cy="162.06946"
     inkscape:window-width="1920"
     inkscape:window-height="1009"
     inkscape:window-x="1912"
     inkscape:window-y="-8"
     inkscape:window-maximized="1"
     inkscape:current-layer="layer1" /><defs
     id="defs1" /><g
     inkscape:label="Warstwa 1"
     inkscape:groupmode="layer"
     id="layer1"><path
       style="fill:#918977;fill-opacity:1;stroke-width:1.16352"
       d="m 50.554092,81.791805 c -2.741879,-0.65455 -5.44222,-1.474295 -6.802508,-2.065042 -0.762131,-0.330979 -4.446814,-1.227734 -8.188195,-1.992789 -3.74138,-0.765054 -8.063779,-1.715172 -9.605343,-2.11137 l -2.802824,-0.720362 -3.368507,-3.074195 c -1.852679,-1.690808 -3.44495,-3.210791 -3.538381,-3.377741 -0.09343,-0.16695 -0.705072,-2.60455 -1.359217,-5.416889 -1.044681,-4.491436 -1.154623,-5.226352 -0.90393,-6.042503 0.156983,-0.511037 1.314363,-2.387965 2.571958,-4.170951 1.601847,-2.271069 2.431253,-3.710336 2.769827,-4.80652 0.303459,-0.982486 1.037037,-2.33152 1.971428,-3.625423 0.81847,-1.133383 2.29903,-3.359717 3.29012,-4.947409 0.991101,-1.587691 2.113018,-3.108184 2.493164,-3.378871 0.380147,-0.270687 1.380835,-0.670867 2.22375,-0.88929 0.842915,-0.218421 2.822535,-0.841631 4.399156,-1.38491 10.052626,-3.463988 12.23656,-4.029136 22.896184,-5.924981 2.92176,-0.519644 5.023875,0.09217 8.566119,2.493135 0.900695,0.610505 2.14783,1.438145 2.771386,1.839199 1.437813,0.924746 2.495258,2.416889 2.630122,3.711287 0.149932,1.43905 4.991925,11.348902 6.95522,14.234876 0.235672,0.346424 0.859589,1.636877 1.386479,2.867672 1.127862,2.634638 2.235013,4.107309 4.364867,5.805891 0.855981,0.682656 1.60465,1.476283 1.663711,1.763613 0.05911,0.28733 0.973509,4.017294 2.032106,8.288808 1.058586,4.271515 1.886061,7.795605 1.838821,7.831314 -0.04724,0.03571 -1.616448,0.377852 -3.487139,0.760319 -1.87069,0.382467 -5.113338,1.080031 -7.205878,1.550143 -9.178074,2.061941 -24.220565,3.580785 -27.562496,2.782989 z"
       id="path37" /><path
       style="fill:#b38255;fill-opacity:1;stroke-width:1.16352"
       d="m 25.387582,66.262653 c 0.2844,-2.170684 0.604474,-3.596358 0.947411,-4.220074 0.284842,-0.51806 1.551105,-2.982681 2.813901,-5.476933 2.026509,-4.002717 2.499622,-4.740646 4.0309,-6.287034 0.954195,-0.963616 1.820438,-1.666493 1.924993,-1.561948 0.104484,0.104543 -1.244994,3.047084 -2.998972,6.538978 -1.753977,3.491894 -3.59914,7.312587 -4.100351,8.490428 -1.166898,2.742131 -2.689997,5.794728 -2.89131,5.794728 -0.08587,0 0.03723,-1.475165 0.273428,-3.278145 z m 21.891236,1.783955 c 0,-1.212729 0.697917,-2.247259 1.93401,-2.866799 2.049082,-1.027013 3.139885,-1.284161 5.49836,-1.296197 l 2.267499,-0.01152 3.527222,-1.690061 c 3.708337,-1.776837 10.013787,-4.23064 10.871339,-4.23064 0.565671,0 1.281133,-0.689159 2.447543,-2.357564 0.434518,-0.621516 1.324195,-1.790854 1.977071,-2.598528 0.652877,-0.807674 1.352981,-1.695248 1.555794,-1.972387 0.348871,-0.476731 0.411143,-0.409555 1.15517,1.246359 0.432529,0.962637 0.976464,2.153076 1.20875,2.645419 0.419765,0.889724 2.230371,2.835622 4.278185,4.597842 0.588917,0.50679 1.070756,1.075558 1.070756,1.263927 0,0.907551 -5.184058,3.467679 -8.364643,4.130851 -2.22809,0.464569 -3.189103,0.276652 -4.808705,-0.94029 -1.036141,-0.778548 -1.51798,-0.976735 -2.374648,-0.976735 -1.4839,0 -4.660227,0.906244 -6.623138,1.889658 -3.302709,1.654658 -8.854499,3.077443 -13.793972,3.535046 -1.749637,0.162091 -1.826593,0.146572 -1.826593,-0.368332 z m 20.961791,-1.32759 c -0.500653,-0.500656 -0.346393,-0.937933 0.516488,-1.464041 0.90699,-0.553 1.161802,-0.595369 1.664607,-0.276779 0.512463,0.324708 0.118028,1.231972 -0.725154,1.667999 -0.877774,0.453913 -1.065451,0.463301 -1.455941,0.07282 z M 33.352368,64.971911 c -0.632608,-0.354024 -0.575711,-1.650924 0.08156,-1.85954 0.660521,-0.209638 1.247635,0.276761 1.247635,1.033601 0,0.722452 -0.717487,1.168279 -1.329209,0.825939 z M 20.808347,63.575585 c -0.0093,-0.114084 -0.07132,-0.802652 -0.138692,-1.530141 -0.09936,-1.073134 -0.04957,-1.322711 0.263422,-1.322711 0.412283,0 0.673064,0.730476 0.735068,2.059044 0.02792,0.597879 -0.08121,0.844612 -0.402626,0.910654 -0.24249,0.04982 -0.448224,-0.0028 -0.457172,-0.116846 z m 14.293135,-1.257202 c -0.298246,-0.298248 -0.178415,-1.033835 0.191539,-1.175801 0.460733,-0.176801 1.001213,0.46525 0.810348,0.962639 -0.150583,0.392399 -0.704735,0.510304 -1.001887,0.213162 z M 17.213408,61.05866 c -0.353432,-0.353442 -0.155633,-1.313661 0.300433,-1.458413 0.672668,-0.213495 1.295223,0.09253 1.295223,0.636688 0,0.655774 -1.162791,1.254585 -1.595656,0.821725 z m 14.192885,-0.587871 c 0,-0.414787 0.130594,-0.52039 0.566881,-0.458427 0.311777,0.04428 0.56688,0.250572 0.56688,0.458427 0,0.207854 -0.255103,0.414145 -0.56688,0.458426 -0.436287,0.06197 -0.566881,-0.04363 -0.566881,-0.458426 z M 19.732856,58.791157 c -0.284738,-0.284736 -0.186025,-1.015065 0.178019,-1.317202 0.448922,-0.372568 1.165688,-0.09343 1.165688,0.453953 0,0.748147 -0.888188,1.318759 -1.343707,0.863249 z m 16.271428,-1.776616 c -0.427549,-0.153369 -0.399822,-0.992268 0.0384,-1.160415 0.439521,-0.168659 0.654494,0.03258 0.654494,0.61267 0,0.516227 -0.243677,0.708868 -0.692856,0.547745 z m 29.47754,-4.6e-5 c -0.173214,-0.06211 -0.314931,-0.386913 -0.314931,-0.721789 0,-0.474235 0.133305,-0.608866 0.602903,-0.608866 0.49487,0 0.908759,0.406964 0.908759,0.893547 0,0.21322 -0.902162,0.542733 -1.196731,0.437108 z M 22.696316,54.316218 c -0.389292,-0.284657 -0.389757,-0.363531 -0.007,-1.104728 0.832653,-1.610166 2.59389,-2.101262 2.491535,-0.69473 -0.09622,1.32226 -1.624372,2.428811 -2.485066,1.799458 z m 41.872118,-0.778497 c -0.434855,-0.434854 -0.504655,-0.83952 -0.256394,-1.486474 0.373177,-0.972485 1.977049,0.04573 1.819891,1.155355 -0.102506,0.723676 -0.984213,0.910406 -1.563497,0.331119 z M 27.099707,51.498397 c -0.291346,-0.351052 -0.224304,-0.507128 0.493323,-1.14832 0.930435,-0.831347 1.633296,-0.850064 1.748439,-0.04656 0.04898,0.341801 -0.168164,0.727838 -0.600856,1.068192 -0.812163,0.63885 -1.191541,0.668141 -1.640906,0.12669 z m 47.193577,-0.142011 c -0.34331,-0.343306 0.03607,-0.963385 0.589452,-0.963385 0.504504,0 0.694566,0.481019 0.352781,0.892843 -0.368767,0.444337 -0.554536,0.458244 -0.942233,0.07054 z m -1.895265,-1.122639 c -0.09715,-0.09717 -0.176681,-0.449099 -0.176681,-0.782066 0,-0.483708 0.113909,-0.589212 0.566881,-0.524885 0.414284,0.05884 0.566869,0.249126 0.566869,0.706921 0,0.6081 -0.58331,0.973799 -0.957069,0.60003 z m -50.19655,-0.358955 c -0.494625,-0.800308 0.99066,-2.501465 2.186413,-2.504186 0.972729,-0.0022 0.569056,1.925 -0.525971,2.511037 -0.626883,0.335498 -1.450961,0.332098 -1.660442,-0.0069 z m -2.77391,-1.914301 c 0.188421,-1.015888 5.351895,-9.11433 7.082509,-11.108252 0.766681,-0.883331 1.240724,-1.16132 2.723286,-1.596997 0.987262,-0.290124 4.977881,-1.587549 8.86803,-2.883169 4.04306,-1.346548 8.090366,-2.531392 9.447919,-2.765869 1.306218,-0.225608 4.013866,-0.742754 6.017001,-1.149211 2.003134,-0.406459 4.123331,-0.739016 4.711562,-0.739016 1.822811,0 3.571087,0.510822 4.814522,1.406732 0.655983,0.472644 2.097275,1.398204 3.202879,2.0568 2.515376,1.498381 3.765594,2.757556 4.118537,4.148043 0.14857,0.585342 0.230517,1.103875 0.182103,1.152298 -0.0484,0.04843 -0.751229,-0.414744 -1.561798,-1.029258 -1.894473,-1.436263 -3.622981,-2.301407 -5.644859,-2.825329 -2.044091,-0.529675 -2.743648,-0.344336 -6.158614,1.631637 -1.385699,0.801793 -2.764707,1.533298 -3.064466,1.625569 -0.313965,0.09664 -1.191774,-0.05011 -2.070595,-0.346165 -0.839076,-0.282662 -1.648551,-0.51393 -1.798843,-0.51393 -0.469377,0 -2.064429,1.199637 -1.739189,1.308048 0.438008,0.146002 0.09552,1.753668 -0.547799,2.571536 -0.916217,1.164781 -2.153485,0.619392 -1.937244,-0.85394 0.0612,-0.416978 0.03514,-0.758141 -0.05794,-0.758141 -0.489355,0 -1.021993,1.093825 -1.21309,2.491216 -0.283039,2.06959 -0.904838,2.709531 -3.01383,3.101738 -1.441152,0.26801 -1.563229,0.341887 -1.563229,0.946018 0,1.42028 -1.311385,2.24256 -2.328863,1.460272 -0.225281,-0.173213 -0.57919,-0.977846 -0.786461,-1.788075 -0.207258,-0.810228 -0.413074,-1.500304 -0.457358,-1.533503 -0.04433,-0.0332 -0.717882,-0.419004 -1.496885,-0.857345 -2.188565,-1.231506 -2.541764,-1.135416 -3.934456,1.070429 -1.252335,1.98354 -2.823849,3.286867 -3.719181,3.08449 -0.277139,-0.06264 -0.844276,-0.253014 -1.260305,-0.423049 -0.71957,-0.294095 -0.879089,-0.228375 -3.275274,1.349306 -1.385384,0.912152 -2.788606,1.900874 -3.118279,2.19716 l -0.599412,0.538701 z m 28.355147,-1.336465 c 0,-0.727786 1.260201,-1.803446 2.013396,-1.71857 0.858064,0.09669 0.928551,0.804886 0.156925,1.576514 -0.803937,0.803936 -2.170321,0.89337 -2.170321,0.142056 z M 30.526553,46.365214 c -0.226131,-0.365873 0.574978,-1.574597 0.95879,-1.446658 0.164383,0.05479 0.298874,0.430302 0.298874,0.834463 0,0.560626 -0.128755,0.753187 -0.543109,0.812233 -0.2987,0.04256 -0.620252,-0.04745 -0.714555,-0.200038 z m 38.674114,-2.645539 c -0.408024,-0.491636 -0.145533,-1.13696 0.462466,-1.13696 0.611234,0 1.147363,0.633583 0.956661,1.130543 -0.187374,0.488303 -1.016082,0.492049 -1.419127,0.0064 z M 57.122754,42.593899 c -0.537385,-0.332124 -0.215659,-1.386752 0.451866,-1.481197 0.808207,-0.114351 1.159522,0.275228 0.820099,0.909434 -0.322471,0.602541 -0.843334,0.836674 -1.271965,0.571763 z m -3.791342,-1.516923 c -1.381045,-1.381054 0.742979,-3.587239 2.879489,-2.990864 1.079191,0.301239 1.457139,0.770604 1.258327,1.56271 -0.216357,0.862061 -1.275629,1.612462 -2.56785,1.819095 -0.842275,0.134685 -1.111329,0.06768 -1.569966,-0.390941 z m 13.229662,-0.500435 c -0.482083,-0.532697 -0.368058,-1.269107 0.196496,-1.269107 0.52056,0 1.262772,0.934427 1.0932,1.376312 -0.203872,0.531274 -0.753207,0.48561 -1.289696,-0.107207 z m 1.889795,-0.93735 c -0.622113,-0.790896 -0.580098,-1.421347 0.103554,-1.552998 0.608884,-0.117262 1.147502,0.596826 1.147502,1.521339 0,0.909722 -0.549393,0.923625 -1.251021,0.03166 z m -4.903625,-2.743228 c -0.579574,-0.579574 -0.484037,-1.298341 0.235207,-1.769612 0.728854,-0.477559 1.263505,-0.200908 1.668039,0.863107 0.430865,1.133241 -0.996616,1.813138 -1.903246,0.906505 z m -5.893236,-1.934575 c 0.09669,-0.680757 0.98946,-0.88938 1.446958,-0.338126 0.44101,0.531388 0.123555,0.905001 -0.768973,0.905001 -0.642475,0 -0.74618,-0.08671 -0.677985,-0.566875 z"
       id="path36" /></g></svg>
