<?xml version="1.0" encoding="UTF-8" standalone="no"?>
<!-- Created with Inkscape (http://www.inkscape.org/) -->

<svg
   width="100mm"
   height="100mm"
   viewBox="0 0 100 100"
   version="1.1"
   id="svg1"
   inkscape:version="1.4 (86a8ad7, 2024-10-11)"
   sodipodi:docname="boulder2.svg"
   xml:space="preserve"
   xmlns:inkscape="http://www.inkscape.org/namespaces/inkscape"
   xmlns:sodipodi="http://sodipodi.sourceforge.net/DTD/sodipodi-0.dtd"
   xmlns="http://www.w3.org/2000/svg"
   xmlns:svg="http://www.w3.org/2000/svg"><sodipodi:namedview
     id="namedview1"
     pagecolor="#ffffff"
     bordercolor="#000000"
     borderopacity="0.25"
     inkscape:showpageshadow="2"
     inkscape:pageopacity="0.0"
     inkscape:pagecheckerboard="true"
     inkscape:deskcolor="#d1d1d1"
     inkscape:document-units="mm"
     inkscape:zoom="0.87925266"
     inkscape:cx="497.013"
     inkscape:cy="162.06946"
     inkscape:window-width="1920"
     inkscape:window-height="1009"
     inkscape:window-x="1912"
     inkscape:window-y="-8"
     inkscape:window-maximized="1"
     inkscape:current-layer="layer1" /><defs
     id="defs1" /><g
     inkscape:label="Warstwa 1"
     inkscape:groupmode="layer"
     id="layer1"><path
       style="fill:#918977;fill-opacity:1;stroke-width:1.17399"
       d="M 54.789963,82.752052 C 54.419688,82.700068 49.393393,82.39972 43.620431,82.08462 L 33.124121,81.511713 28.136275,78.538281 C 20.584241,74.036246 21.227492,74.544027 20.632856,72.61509 19.848281,70.069983 18.811651,65.098369 17.76928,58.881445 l -0.936161,-5.583436 2.310089,-3.976348 c 3.833642,-6.598868 3.717523,-6.318059 3.870188,-9.359635 l 0.135032,-2.69039 1.216414,-0.810376 c 2.043629,-1.361475 2.595826,-1.993351 3.374261,-3.861197 0.411764,-0.988015 0.859006,-1.940837 0.993862,-2.11738 0.134856,-0.176543 2.417309,-1.691298 5.072116,-3.366121 2.654794,-1.674824 7.020898,-4.478973 9.702448,-6.231445 3.613096,-2.361262 5.026811,-3.148345 5.459742,-3.039687 0.321308,0.08064 3.732045,0.628891 7.579411,1.218327 3.847354,0.589437 7.630232,1.20971 8.406378,1.378388 l 1.411191,0.306684 1.784413,3.680973 c 4.07054,8.396918 5.98678,12.944817 6.617399,15.705428 0.622917,2.726911 0.628939,2.738342 2.294052,4.354253 0.918222,0.89109 1.919397,2.17527 2.224834,2.853735 0.305424,0.678464 0.939025,1.688485 1.407974,2.24449 0.745493,0.883872 0.87361,1.273066 1.019443,3.096831 0.147898,1.84977 0.294612,2.28407 1.295917,3.836295 l 1.12914,1.750384 0.0023,6.096246 0.0023,6.096246 -2.168541,2.117089 c -1.192689,1.164399 -2.59167,2.359449 -3.108834,2.655668 -0.89108,0.510384 -0.958854,0.513908 -1.294603,0.06732 -0.458324,-0.60964 -0.69885,-0.597819 -0.69885,0.03435 0,0.278083 -0.153722,0.633185 -0.341607,0.789116 -0.187885,0.155931 -3.792998,1.710484 -8.011367,3.454565 l -7.669761,3.171054 -2.69289,0.04685 c -1.481102,0.02577 -2.99585,0.0043 -3.366125,-0.04768 z"
       id="path33" /><path
       style="fill:#b38255;fill-opacity:1;stroke-width:1.17399"
       d="m 59.56985,75.616631 c -0.670253,-0.387258 -0.584082,-1.040798 0.252348,-1.913845 0.763444,-0.796852 1.645531,-0.971329 2.184731,-0.432133 0.492393,0.492395 0.388073,1.139286 -0.282755,1.753277 -0.785362,0.718826 -1.564854,0.933281 -2.154324,0.592701 z m -9.261675,-2.936149 c -0.819689,-0.330783 -1.442583,-1.327973 -1.442583,-2.309411 0,-0.996912 -0.785925,-1.812941 -1.788334,-1.856821 -0.987816,-0.04324 -1.799334,-1.123921 -1.598406,-2.12855 0.228058,-1.140317 1.401517,-2.860549 2.642069,-3.87317 0.937416,-0.765174 1.269971,-0.875192 2.645438,-0.875192 1.191185,0 1.634506,0.109486 1.825537,0.45084 0.138765,0.247963 0.814266,0.593529 1.501107,0.767925 1.198511,0.304314 1.269044,0.28931 1.751142,-0.372503 0.42564,-0.58431 0.741783,-0.700432 2.070783,-0.760618 1.772403,-0.08027 2.638159,0.452189 2.935342,1.805279 0.09016,0.41037 0.413525,0.970759 0.718656,1.245307 0.659288,0.593232 1.838311,3.14755 1.838311,3.982677 0,0.323916 -0.247089,0.85415 -0.549074,1.178296 -0.638637,0.685499 -2.698115,0.813292 -4.22263,0.26202 -0.851094,-0.307759 -0.941655,-0.281652 -1.514314,0.436524 -0.577601,0.72439 -0.683342,0.753647 -2.0462,0.566205 -1.407563,-0.193589 -1.455474,-0.177634 -2.328462,0.77528 -0.902432,0.985061 -1.394003,1.127371 -2.438382,0.705912 z M 23.041677,68.494855 c -0.630454,-0.71805 -0.835761,-1.210903 -0.835761,-2.006292 0,-2.097276 1.875526,-1.8448 2.961581,0.398677 0.556622,1.149839 0.566226,1.266308 0.156011,1.892374 -0.603887,0.921645 -1.298723,0.834932 -2.281831,-0.284759 z m 1.367519,-4.860783 c -0.763197,-0.534569 -0.829622,-1.996734 -0.09075,-1.996734 0.586782,0 1.388181,0.809386 1.388181,1.402002 0,0.754117 -0.646702,1.050551 -1.297478,0.594732 z m 44.617797,0.110566 c -0.537803,-0.143352 -1.314689,-0.612248 -1.726406,-1.041992 -0.635678,-0.6635 -0.773269,-1.083118 -0.912234,-2.782078 -0.201562,-2.464248 -0.42118,-2.704001 -3.750888,-4.0948 -1.445846,-0.603918 -1.86908,-1.222984 -2.191821,-3.205957 -0.46889,-2.880986 0.715463,-4.2871 3.659856,-4.345136 0.915816,-0.01806 1.792021,-0.111258 1.94714,-0.207115 0.155107,-0.09587 0.577237,-0.819146 0.938062,-1.607295 1.031911,-2.253984 2.967909,-3.384408 6.114968,-3.570506 l 2.103455,-0.124386 1.774047,1.739456 c 1.069138,1.048294 1.991104,2.245814 2.320302,3.013813 0.300435,0.700895 0.90026,1.677543 1.332921,2.170328 0.928318,1.057297 1.183801,2.166867 0.993651,4.315509 -0.30411,3.436417 -0.482028,3.909881 -1.796141,4.779805 -0.666496,0.441208 -1.308714,0.960687 -1.427157,1.154399 -0.353722,0.578516 -1.189366,0.40281 -2.167109,-0.455666 -1.550426,-1.361282 -2.429495,-1.022732 -2.763201,1.064166 -0.103076,0.644649 -0.39912,1.365719 -0.657855,1.602377 -2.293864,2.098156 -2.142737,2.034579 -3.79159,1.595078 z m -49.018087,-1.68952 c -0.237744,-0.521785 -0.241654,-0.779732 -0.01526,-1.006112 0.42638,-0.42638 1.185903,0.239546 1.080796,0.947606 -0.121332,0.817341 -0.705167,0.849398 -1.065523,0.0585 z m 10.191859,-7.209383 c -0.357631,-0.357626 -0.715674,-1.126719 -0.815674,-1.752078 -0.134057,-0.838332 -0.328364,-1.159753 -0.783847,-1.296612 -0.333084,-0.100082 -1.039695,-0.59766 -1.570243,-1.10573 -0.858689,-0.822296 -1.045482,-0.893029 -1.70059,-0.643955 -1.82569,0.694127 -3.882515,0.08467 -4.465681,-1.323231 -0.403734,-0.974686 -0.174078,-1.700644 1.318117,-4.166677 0.945787,-1.563018 0.965581,-1.653863 0.965581,-4.431957 v -2.83623 l 0.942512,-0.598118 c 0.518385,-0.328966 1.310251,-0.898799 1.759688,-1.266298 0.625465,-0.511418 0.92887,-0.605676 1.293229,-0.401769 0.328587,0.183886 0.596385,0.166544 0.864512,-0.05599 0.306492,-0.254368 0.687064,-0.206286 1.803607,0.227865 0.77833,0.302643 1.851753,0.684027 2.385377,0.847517 0.533635,0.163492 1.260709,0.607315 1.615734,0.986275 0.611671,0.652902 0.646292,0.87479 0.660473,4.233496 0.01491,3.54087 0.112938,4.059982 1.232815,6.533382 0.839694,1.854496 0.915945,2.74298 0.306188,3.567715 -0.297136,0.401901 -0.805766,1.251195 -1.130303,1.88732 -0.598545,1.173267 -1.350542,1.657987 -3.176373,2.047429 -0.702537,0.149846 -0.989025,0.06375 -1.505122,-0.45236 z M 47.31121,45.743722 c -0.336535,-0.137954 -0.674725,-0.41461 -0.751539,-0.614791 -0.233835,-0.609371 0.370193,-1.791739 1.080737,-2.115482 1.035057,-0.471606 1.539789,0.101445 1.440118,1.635053 -0.08723,1.341427 -0.518069,1.608148 -1.769316,1.09522 z M 42.712,43.939091 c -0.254649,-0.475806 0.257819,-3.641308 0.753242,-4.652796 0.291324,-0.594805 2.124188,-1.396925 2.743113,-1.200484 0.747208,0.237153 1.42873,1.771055 1.197044,2.694172 -0.102489,0.408458 -0.567611,1.098761 -1.033542,1.534008 -0.465932,0.435245 -0.976793,1.052987 -1.135246,1.372759 -0.392686,0.792462 -2.141973,0.967307 -2.524611,0.252341 z m 6.087426,-3.91225 c -0.3421,-0.93026 0.847196,-1.806068 1.528026,-1.125246 0.31855,0.318552 0.35384,0.54964 0.143872,0.94198 -0.310285,0.579756 -1.478977,0.707865 -1.671898,0.183266 z m 19.634552,-3.882258 c -0.337733,-0.337732 -0.180008,-1.183644 0.251585,-1.34926 0.472847,-0.181449 0.904756,0.319813 0.911213,1.057529 0.0035,0.463014 -0.791842,0.662692 -1.162798,0.291731 z m -4.605362,-3.826069 c -0.485655,-0.939157 -0.309487,-1.649489 0.409087,-1.649489 0.606259,0 1.404804,1.129214 1.276065,1.804465 -0.161893,0.8492 -1.216004,0.752258 -1.685152,-0.154976 z m 2.703022,-0.370362 c -0.371626,-0.333247 -0.978048,-1.187821 -1.347596,-1.899056 -0.787663,-1.51592 -0.633624,-2.347781 0.490398,-2.648393 0.606082,-0.16209 0.912199,-0.0348 1.761496,0.732494 1.266403,1.144116 1.71786,3.037285 0.9315,3.906198 -0.605718,0.669318 -1.010051,0.649222 -1.835798,-0.09124 z M 50.764903,26.51225 c -0.730102,-0.879726 1.374421,-2.514743 2.274916,-1.767395 0.555366,0.460913 0.509663,0.726182 -0.257291,1.493131 -0.743063,0.743064 -1.538791,0.851229 -2.017625,0.274264 z m -5.217209,-1.892488 c -0.538789,-0.538785 -0.571355,-0.971314 -0.11552,-1.534625 1.457645,-1.801453 4.602274,-1.700393 4.142095,0.133116 -0.3475,1.384558 -3.089205,2.338854 -4.026551,1.401509 z m 6.437521,-2.800409 c -0.252395,-0.408382 0.651727,-1.1521 1.289894,-1.061054 0.365592,0.05216 0.572342,0.276204 0.572342,0.620233 0,0.407389 -0.207032,0.558674 -0.849919,0.621078 -0.467458,0.04537 -0.923,-0.03574 -1.012317,-0.180257 z"
       id="path32" /></g></svg>
