<?xml version="1.0" encoding="UTF-8" standalone="no"?>
<!-- Created with Inkscape (http://www.inkscape.org/) -->

<svg
   width="100mm"
   height="100mm"
   viewBox="0 0 100 100"
   version="1.1"
   id="svg1"
   inkscape:version="1.4 (86a8ad7, 2024-10-11)"
   sodipodi:docname="smooth3.svg"
   xml:space="preserve"
   xmlns:inkscape="http://www.inkscape.org/namespaces/inkscape"
   xmlns:sodipodi="http://sodipodi.sourceforge.net/DTD/sodipodi-0.dtd"
   xmlns="http://www.w3.org/2000/svg"
   xmlns:svg="http://www.w3.org/2000/svg"><sodipodi:namedview
     id="namedview1"
     pagecolor="#ffffff"
     bordercolor="#000000"
     borderopacity="0.25"
     inkscape:showpageshadow="2"
     inkscape:pageopacity="0.0"
     inkscape:pagecheckerboard="true"
     inkscape:deskcolor="#d1d1d1"
     inkscape:document-units="mm"
     showgrid="false"
     showguides="true"
     inkscape:zoom="1.6244299"
     inkscape:cx="214.84461"
     inkscape:cy="148.66754"
     inkscape:window-width="1920"
     inkscape:window-height="1009"
     inkscape:window-x="1912"
     inkscape:window-y="-8"
     inkscape:window-maximized="1"
     inkscape:current-layer="layer1"><inkscape:grid
       id="grid1"
       units="mm"
       originx="0"
       originy="0"
       spacingx="0.99999998"
       spacingy="1"
       empcolor="#0099e5"
       empopacity="0.30196078"
       color="#0099e5"
       opacity="0.14901961"
       empspacing="5"
       enabled="true"
       visible="false" /></sodipodi:namedview><defs
     id="defs1" /><g
     inkscape:label="Warstwa 1"
     inkscape:groupmode="layer"
     id="layer1"><rect
       style="fill:#222222;stroke-width:0.100069"
       id="rect1"
       width="100"
       height="100"
       x="0"
       y="0" /><path
       style="fill:#aaaaaa"
       d="m 58.841967,96.16522 c -1.938935,-0.171846 -5.546692,-1.052632 -8.613785,-2.102941 -4.80476,-1.645363 -9.403556,-2.585485 -12.647427,-2.585485 -2.088471,0 -5.402169,0.483276 -8.761708,1.277824 -8.750928,2.069639 -11.673134,2.489887 -15.060976,2.165946 C 9.6885754,94.531443 7.3701508,93.219185 6.2025155,90.644021 5.4781627,89.046495 5.3425789,88.312045 5.3413706,85.97925 5.3404023,84.109838 5.3857231,83.584483 5.7263547,81.516546 6.0855761,79.335751 6.1084521,79.04093 6.055168,77.278856 5.9907107,75.147285 5.7691539,73.927678 4.8783958,70.801056 4.0384236,67.852696 3.4858461,65.624444 3.2601202,64.27541 2.977302,62.585168 2.979126,58.836869 3.2635758,57.174418 3.691189,54.675255 4.5130013,51.25884 5.6066996,47.433648 7.5297595,40.707777 7.9770316,38.210094 7.8822974,34.726119 7.8133825,32.191684 7.5854787,30.562163 6.8330929,27.224264 6.1587383,24.232545 5.6736623,21.869724 5.4608504,20.540027 4.4289771,14.09265 5.5599222,9.3629512 8.6323694,7.2764921 10.614648,5.8665309 12.943582,5.544887 15.304255,5.6071844 c 1.666934,0.048656 2.284828,0.1236304 4.294955,0.5211465 5.27983,1.044122 6.316578,0.969392 12.827599,-0.9246279 3.644711,-1.0602262 4.631107,-1.2515533 6.789054,-1.3168455 2.006631,-0.060714 3.346623,0.080005 5.323922,0.5018238 4.740034,1.0111958 10.98426,4.1637123 17.956464,4.1662239 2.692922,9.701e-4 5.295764,-0.4122704 10.14887,-1.6112867 6.61072,-1.6332553 10.014065,-2.100685 13.382726,-1.8380401 2.323517,0.1811579 2.53552,0.1767851 4.18775,0.8663128 0.742119,0.3097095 2.016313,1.2929521 2.44935,1.8018702 0.595391,0.6997221 1.414883,2.4643566 1.651978,3.4223656 0.497298,2.009382 0.481531,4.037042 -0.05828,7.495492 -0.333916,2.13931 -0.404574,4.827727 -0.168897,6.426261 0.205244,1.392124 0.744629,3.683382 1.437082,6.104591 0.554449,1.938671 0.97795,3.929611 1.206104,5.670069 0.496409,3.786825 -0.08448,7.78955 -2.137246,14.727068 -2.072793,7.005205 -2.714973,10.517997 -2.575354,14.087453 0.109871,2.808919 0.248212,3.689422 1.394606,8.87624 0.765457,3.463284 0.929009,4.344458 1.207192,6.504017 0.514421,3.993503 0.135818,7.143011 -1.118126,9.301418 -1.092081,1.879792 -2.518619,2.948883 -4.914803,3.683304 -0.96257,0.295023 -1.139795,0.311512 -3.420346,0.318233 -2.448774,0.0072 -2.579637,-0.0068 -5.32915,-0.569987 -2.678935,-0.548748 -4.950534,-0.622276 -7.169882,-0.232076 -1.206709,0.21216 -1.938786,0.405032 -4.852586,1.278456 -4.240956,1.271245 -6.156455,1.548381 -8.975272,1.298551 z"
       id="path1"
       sodipodi:nodetypes="ssssssssssssssssssssssssssssssssssssssssssss" /></g></svg>
