<?xml version="1.0" encoding="UTF-8" standalone="no"?>
<!-- Created with Inkscape (http://www.inkscape.org/) -->

<svg
   width="100mm"
   height="100mm"
   viewBox="0 0 100 100"
   version="1.1"
   id="svg1"
   inkscape:version="1.4 (86a8ad7, 2024-10-11)"
   sodipodi:docname="bush3.svg"
   xml:space="preserve"
   xmlns:inkscape="http://www.inkscape.org/namespaces/inkscape"
   xmlns:sodipodi="http://sodipodi.sourceforge.net/DTD/sodipodi-0.dtd"
   xmlns="http://www.w3.org/2000/svg"
   xmlns:svg="http://www.w3.org/2000/svg"><sodipodi:namedview
     id="namedview1"
     pagecolor="#ffffff"
     bordercolor="#000000"
     borderopacity="0.25"
     inkscape:showpageshadow="2"
     inkscape:pageopacity="0.0"
     inkscape:pagecheckerboard="true"
     inkscape:deskcolor="#d1d1d1"
     inkscape:document-units="mm"
     inkscape:zoom="1.2449332"
     inkscape:cx="185.15049"
     inkscape:cy="190.77328"
     inkscape:window-width="1920"
     inkscape:window-height="1009"
     inkscape:window-x="1912"
     inkscape:window-y="-8"
     inkscape:window-maximized="1"
     inkscape:current-layer="layer1"
     showguides="false" /><defs
     id="defs1" /><g
     inkscape:label="Warstwa 1"
     inkscape:groupmode="layer"
     id="layer1"
     style="display:inline"><path
       style="fill:#d9d9d9;fill-opacity:1;stroke-width:1"
       d="m 20.738651,67.776318 c -5.576096,-0.685725 -8.546157,-5.960652 -4.723925,-7.504802 -3.706047,-3.117463 -1.509977,-8.713984 3.521684,-8.424889 -4.72056,-7.052585 2.753997,-10.8647 6.612325,-7.814563 1.653671,-11.075621 14.216571,-13.227203 18.183889,-7.063164 3.372904,-8.18762 13.846675,-7.498808 16.831368,0.150281 8.192496,-5.323567 11.724314,0.158811 11.721848,6.161483 4.078047,-1.155567 9.312608,2.869006 5.917398,7.100044 4.689273,-0.300175 6.788992,6.02339 4.602206,8.078243 5.12611,3.35614 0.857951,8.928428 -3.738769,9.36451 z"
       id="path5"
       sodipodi:nodetypes="ccccccccccc" /><circle
       style="fill:#ff9000;fill-opacity:1;stroke-width:1"
       id="path6"
       cx="76.720825"
       cy="58.381153"
       r="2.7628655" /><circle
       style="fill:#ff9000;fill-opacity:1;stroke-width:1"
       id="circle6"
       cx="66.927055"
       cy="42.438953"
       r="2.7628655" /><circle
       style="fill:#ff9000;fill-opacity:1;stroke-width:1"
       id="circle7"
       cx="38.848099"
       cy="39.919361"
       r="2.7628655" /><circle
       style="fill:#ff9000;fill-opacity:1;stroke-width:1"
       id="circle8"
       cx="59.262772"
       cy="54.311081"
       r="2.7628655" /><circle
       style="fill:#ff9000;fill-opacity:1;stroke-width:1"
       id="circle9"
       cx="26.374853"
       cy="49.837845"
       r="2.7628655" /></g></svg>
