<?xml version="1.0" encoding="UTF-8" standalone="no"?>
<!-- Created with Inkscape (http://www.inkscape.org/) -->

<svg
   width="100mm"
   height="100mm"
   viewBox="0 0 100 100"
   version="1.1"
   id="svg1"
   inkscape:version="1.4 (86a8ad7, 2024-10-11)"
   sodipodi:docname="bush4.svg"
   xml:space="preserve"
   xmlns:inkscape="http://www.inkscape.org/namespaces/inkscape"
   xmlns:sodipodi="http://sodipodi.sourceforge.net/DTD/sodipodi-0.dtd"
   xmlns="http://www.w3.org/2000/svg"
   xmlns:svg="http://www.w3.org/2000/svg"><sodipodi:namedview
     id="namedview1"
     pagecolor="#ffffff"
     bordercolor="#000000"
     borderopacity="0.25"
     inkscape:showpageshadow="2"
     inkscape:pageopacity="0.0"
     inkscape:pagecheckerboard="true"
     inkscape:deskcolor="#d1d1d1"
     inkscape:document-units="mm"
     inkscape:zoom="1.2449332"
     inkscape:cx="214.0677"
     inkscape:cy="136.95513"
     inkscape:window-width="1920"
     inkscape:window-height="1009"
     inkscape:window-x="1912"
     inkscape:window-y="-8"
     inkscape:window-maximized="1"
     inkscape:current-layer="layer1"
     showguides="false" /><defs
     id="defs1" /><g
     inkscape:label="Warstwa 1"
     inkscape:groupmode="layer"
     id="layer1"
     style="display:inline"><path
       style="fill:#d9d9d9;fill-opacity:1;stroke-width:1"
       d="M 34.854612,61.633157 C 26.454159,60.140387 24.074035,41.044592 33.791972,48.881469 28.289284,39.292803 30.328041,28.372411 35.492196,35.385933 33.550911,24.359761 38.412172,22.02899 41.761777,25.503376 c 0.40075,-6.752183 5.766235,-6.999942 7.651014,-3.931771 2.95045,-3.782306 7.962591,-1.842196 6.588369,3.40045 7.485688,-4.953221 8.568587,4.710741 6.694638,9.032446 8.410927,-5.575846 8.060502,5.867907 2.550337,10.201349 8.187835,-2.963117 2.981365,7.048423 0,9.138711 8.700492,0.69373 -0.837194,6.392653 -3.612978,8.076067 z"
       id="path9"
       sodipodi:nodetypes="ccccccccccc" /><circle
       style="display:inline;fill:#ff9000;fill-opacity:1;stroke-width:1"
       id="path6"
       cx="58.980549"
       cy="54.287331"
       r="2.7628655" /><circle
       style="display:inline;fill:#ff9000;fill-opacity:1;stroke-width:1"
       id="path6-7"
       cx="36.894115"
       cy="44.037865"
       r="2.7628655" /><circle
       style="display:inline;fill:#ff9000;fill-opacity:1;stroke-width:1"
       id="path6-3"
       cx="57.362526"
       cy="36.044003"
       r="2.7628655" /><circle
       style="display:inline;fill:#ff9000;fill-opacity:1;stroke-width:1"
       id="path6-34"
       cx="47.477448"
       cy="26.575365"
       r="2.7628655" /></g></svg>
