<?xml version="1.0" encoding="UTF-8" standalone="no"?>
<!-- Created with Inkscape (http://www.inkscape.org/) -->

<svg
   width="100mm"
   height="100mm"
   viewBox="0 0 100 100"
   version="1.1"
   id="svg1"
   inkscape:version="1.4 (86a8ad7, 2024-10-11)"
   sodipodi:docname="bush2.svg"
   xml:space="preserve"
   xmlns:inkscape="http://www.inkscape.org/namespaces/inkscape"
   xmlns:sodipodi="http://sodipodi.sourceforge.net/DTD/sodipodi-0.dtd"
   xmlns="http://www.w3.org/2000/svg"
   xmlns:svg="http://www.w3.org/2000/svg"><sodipodi:namedview
     id="namedview1"
     pagecolor="#ffffff"
     bordercolor="#000000"
     borderopacity="0.25"
     inkscape:showpageshadow="2"
     inkscape:pageopacity="0.0"
     inkscape:pagecheckerboard="true"
     inkscape:deskcolor="#d1d1d1"
     inkscape:document-units="mm"
     inkscape:zoom="1.2449332"
     inkscape:cx="185.15049"
     inkscape:cy="190.77328"
     inkscape:window-width="1920"
     inkscape:window-height="1009"
     inkscape:window-x="1912"
     inkscape:window-y="-8"
     inkscape:window-maximized="1"
     inkscape:current-layer="layer1"
     showguides="false" /><defs
     id="defs1" /><g
     inkscape:label="Warstwa 1"
     inkscape:groupmode="layer"
     id="layer1"
     style="display:inline"><path
       style="fill:#d9d9d9;fill-opacity:1;stroke-width:1"
       d="m 15.478848,60.562872 c -4.488657,-0.09281 -7.4956563,-5.395806 -2.554761,-9.467645 -5.1946653,-4.733204 0.399047,-9.195082 2.855321,-7.964845 -1.499989,-6.20513 3.15077,-10.030918 7.814565,-6.161482 3.007878,-7.323391 10.966304,-2.647423 10.669886,0.300559 6.265332,-2.520572 7.071747,2.497741 7.213444,4.808964 4.76275,-3.258055 9.624972,-0.883903 9.617924,4.358121 3.641629,-5.681631 9.765797,-6.75764 13.525209,-2.705042 4.530761,-6.866062 10.712973,-3.461704 10.820164,1.202243 7.1168,-5.779264 10.152855,1.85932 8.565965,4.508402 5.488849,1.106569 3.682189,5.442336 1.20224,6.161482 3.266431,1.736434 0.531678,5.153423 -1.803361,5.259803 z"
       id="path9"
       sodipodi:nodetypes="ccccccccccccc" /><circle
       style="display:inline;fill:#ff9000;fill-opacity:1;stroke-width:1"
       id="path6"
       cx="80.365303"
       cy="56.019394"
       r="2.7628655" /><circle
       style="display:inline;fill:#ff9000;fill-opacity:1;stroke-width:1"
       id="path6-4"
       cx="68.309875"
       cy="46.653179"
       r="2.7628655" /><circle
       style="display:inline;fill:#ff9000;fill-opacity:1;stroke-width:1"
       id="path6-2"
       cx="42.899479"
       cy="48.978436"
       r="2.7628655" /><circle
       style="display:inline;fill:#ff9000;fill-opacity:1;stroke-width:1"
       id="path6-5"
       cx="21.756504"
       cy="42.183628"
       r="2.7628655" /></g></svg>
