<?xml version="1.0" encoding="UTF-8" standalone="no"?>
<!-- Created with Inkscape (http://www.inkscape.org/) -->

<svg
   width="100mm"
   height="100mm"
   viewBox="0 0 100 100"
   version="1.1"
   id="svg1"
   inkscape:version="1.4 (86a8ad7, 2024-10-11)"
   sodipodi:docname="boilder4.svg"
   xml:space="preserve"
   xmlns:inkscape="http://www.inkscape.org/namespaces/inkscape"
   xmlns:sodipodi="http://sodipodi.sourceforge.net/DTD/sodipodi-0.dtd"
   xmlns="http://www.w3.org/2000/svg"
   xmlns:svg="http://www.w3.org/2000/svg"><sodipodi:namedview
     id="namedview1"
     pagecolor="#ffffff"
     bordercolor="#000000"
     borderopacity="0.25"
     inkscape:showpageshadow="2"
     inkscape:pageopacity="0.0"
     inkscape:pagecheckerboard="true"
     inkscape:deskcolor="#d1d1d1"
     inkscape:document-units="mm"
     inkscape:zoom="1.4378367"
     inkscape:cx="298.71264"
     inkscape:cy="185.34789"
     inkscape:window-width="1920"
     inkscape:window-height="1009"
     inkscape:window-x="1912"
     inkscape:window-y="-8"
     inkscape:window-maximized="1"
     inkscape:current-layer="layer1" /><defs
     id="defs1" /><g
     inkscape:label="Warstwa 1"
     inkscape:groupmode="layer"
     id="layer1"><g
       inkscape:label="Warstwa 1"
       id="layer1-5"
       transform="translate(0.35937148,-0.06040081)"><rect
         style="fill:#14664e;fill-opacity:1;stroke-width:0.100069"
         id="rect1"
         width="100"
         height="100"
         x="2.220446e-16"
         y="0" /><path
         style="fill:#49b380;fill-opacity:1"
         d="m 61.870681,94.92045 c -2.792457,-0.21168 -4.956416,-0.74728 -11.013031,-2.72586 -2.478273,-0.8096 -5.701805,-1.66167 -7.358264,-1.94501 -3.166896,-0.54169 -7.211985,-0.51891 -10.62319,0.0598 -2.92353,0.49599 -4.173089,0.71762 -4.856875,0.86146 -1.483838,0.31214 -5.380859,0.92834 -6.545997,1.03507 -1.516175,0.13888 -4.254677,-0.17405 -5.292566,-0.14407 C 7.3182429,92.31789 8.3551437,87.23162 8.2165531,80.74598 8.1705081,78.59118 7.5330211,77.035648 6.9027334,74.640555 6.1225274,71.675772 5.2204303,67.817241 5.0604099,66.760403 4.6874565,64.297271 4.617152,61.950044 4.8553405,59.913832 5.1073074,57.759833 5.5468177,55.999085 6.7103304,52.482449 8.783794,46.215549 9.0689515,44.952434 9.2846129,41.079577 9.4249503,38.559391 9.2969813,37.420861 8.2110819,31.528454 7.182706,25.948186 6.9519914,24.050757 6.9518345,21.172233 6.9516171,17.180682 7.5241136,14.337514 9.2312066,12.304266 11.170387,9.9945882 11.477308,6.4238492 15.153442,5.7843782 c 5.175747,-0.900332 6.564882,2.237674 10.510681,0.971885 4.265868,-1.368465 5.590977,-1.713096 7.991757,-2.078476 2.73477,-0.416211 5.020838,-0.432488 7.163343,-0.051 2.458744,0.437791 3.808366,0.840382 9.161283,2.732797 4.748533,1.678748 7.801343,2.288167 11.451603,2.286036 3.124107,0.03613 6.179317,-0.627708 9.210012,-1.303337 3.552223,-0.852105 7.013699,-2.891788 10.662491,-3.21722 5.872825,-0.523792 9.344776,1.232612 10.720666,3.288012 1.183922,1.7686268 0.79697,5.5741108 0.692772,8.6912368 -0.116743,3.49241 1.274055,6.854996 2.135615,10.233347 1.165525,4.569026 1.594482,8.432631 1.269136,11.431078 -0.284972,2.626352 -0.796166,4.739381 -2.133898,8.820498 -1.263446,3.854487 -1.393384,4.280284 -1.746041,5.721631 -0.788647,3.223283 1.143634,6.427405 1.422507,9.043298 0.211592,1.984772 -1.418027,5.24975 -0.895625,8.548312 0.670439,4.2333 2.792068,8.690674 2.851521,11.402354 0.101977,4.65122 0.07133,7.42344 -6.444047,9.4907 -3.925033,1.24537 -4.322513,-2.55604 -14.685409,1.22686 -2.967622,1.08331 -4.790689,1.26401 -5.847627,1.4671 -2.224946,0.42752 -4.722562,0.58643 -6.773501,0.43096 z"
         id="path1"
         sodipodi:nodetypes="sssssssssssssssssssssssssssssssssssss" /></g><path
       style="fill:#202a20;fill-opacity:1;stroke-width:1.56322"
       d="m 57.680512,71.018363 c -5.486506,-1.582468 -8.580913,-3.660487 -9.472135,-6.360914 -0.574561,-1.74094 -0.277925,-5.874271 0.878419,-12.240242 0.451208,-2.483958 0.820377,-5.664946 0.820377,-7.068862 0,-6.875322 1.8428,-13.296589 5.391697,-18.787429 2.036639,-3.151067 3.198298,-3.926768 5.43195,-3.627174 2.749138,0.36874 9.256676,5.192162 11.401036,8.450522 0.932585,1.417055 1.326501,3.610815 1.579898,8.798368 0.314989,6.448826 0.789801,8.581338 2.673839,12.008852 1.746896,3.178044 3.714488,7.834843 3.714488,8.791286 0,0.856619 -1.480477,5.375097 -2.246501,6.856437 -0.819486,1.5847 -2.934708,3.187604 -4.700692,3.562164 -0.749954,0.159065 -3.854349,0.335158 -6.898639,0.391319 -4.615934,0.08515 -6.039682,-0.04343 -8.573737,-0.774327 z"
       id="path208" /><path
       style="fill:#181e18;fill-opacity:1;stroke-width:1.56322"
       d="m 68.932839,70.51945 c -1.743442,-0.574375 -2.496335,-1.232387 -3.080447,-2.692236 -2.154302,-5.384111 1.56053,-13.591189 7.262072,-16.043925 1.943706,-0.836161 2.187631,-0.859045 2.785358,-0.261313 0.597728,0.597733 0.591569,0.6551 -0.07034,0.6551 -2.356615,0 -6.248356,3.462787 -7.90221,7.031227 -1.492264,3.219781 -1.514618,7.443785 -0.04721,8.911233 1.493186,1.493173 3.893164,1.401248 5.739465,-0.219834 2.564914,-2.252019 2.917795,-6.545596 0.608202,-7.39997 -1.232145,-0.455805 -2.294758,-0.133405 -3.032706,0.920154 -1.263566,1.804001 -0.329871,4.204181 1.123735,2.888686 0.700134,-0.633613 0.750126,-0.624967 0.750126,0.129731 0,1.772004 -2.001404,2.419836 -3.013182,0.975331 -0.898507,-1.282805 -0.267701,-4.468686 1.121406,-5.663537 0.61089,-0.525465 1.555246,-0.955391 2.098574,-0.955391 2.292491,0 4.208669,3.362894 3.638469,6.385482 -0.649533,3.443029 -4.968018,6.331985 -7.981277,5.339266 z M 50.734366,62.930717 c -0.944762,-0.944766 -1.081857,-2.802451 -0.287022,-3.889443 0.652174,-0.89191 2.290677,-0.751228 2.918575,0.250591 0.631134,1.007012 -0.04127,1.461692 -0.749329,0.506646 -0.558084,-0.7528 -0.630743,-0.757709 -1.309883,-0.08848 -0.969664,0.955489 -0.213332,2.67382 1.349542,3.066077 4.125631,1.035465 5.272267,-5.737245 1.3187,-7.788964 -1.392937,-0.722869 -1.628952,-0.735281 -3.009868,-0.158295 -0.964021,0.402794 -1.722698,1.111004 -2.127258,1.985769 L 48.208987,58.174305 48.43767,56.7784 c 0.125839,-0.767749 0.228699,-1.553982 0.228699,-1.747186 0,-0.589401 2.362492,-1.613328 3.722414,-1.613328 3.048791,0 5.077786,2.341106 5.137017,5.927204 0.02892,1.754077 -0.131936,2.145389 -1.317731,3.205412 -1.672503,1.495058 -4.184376,1.669541 -5.473703,0.38022 z M 61.194361,47.228458 c -4.391034,-2.677356 -5.077396,-9.85223 -1.250528,-13.072336 2.292601,-1.929085 5.292198,-0.647796 6.519387,2.78477 1.084279,3.032839 -1.438583,6.525273 -3.9027,5.402549 -0.848077,-0.386409 -1.072509,-0.782854 -1.072509,-1.894497 0,-0.773206 0.279066,-1.637434 0.620145,-1.920508 0.533589,-0.442833 0.586347,-0.345634 0.377955,0.696328 -0.171251,0.856231 -0.03611,1.38203 0.461227,1.794798 0.621849,0.516092 0.817845,0.450776 1.690058,-0.563234 2.507168,-2.91476 -0.577953,-7.49705 -3.679378,-5.464921 -2.133778,1.39811 -2.906383,5.296153 -1.6242,8.194729 0.955111,2.1592 2.069576,3.01006 4.429005,3.381426 4.200446,0.661135 7.686798,-3.513285 8.287433,-9.923042 0.349427,-3.728757 1.16896,-3.648464 1.123095,0.110035 -0.05549,4.548389 -2.673588,9.433209 -5.743234,10.715792 -1.954742,0.81674 -4.672428,0.711319 -6.235756,-0.241889 z"
       id="path207" /><path
       style="fill:#202a20;fill-opacity:1;stroke-width:1.23173"
       d="m 31.504825,70.159026 c -1.344319,-0.158698 -4.096071,-0.421283 -6.115001,-0.583523 -2.01893,-0.162237 -3.858777,-0.451005 -4.088558,-0.641706 -0.733549,-0.608796 -3.484131,-5.164905 -3.484131,-5.771182 0,-1.482828 3.421559,-7.41231 5.998196,-10.394734 1.930453,-2.234473 3.395446,-3.012362 8.50424,-4.515616 5.429132,-1.597512 5.92067,-1.677132 6.799356,-1.101395 2.370824,1.553424 7.377187,10.445134 7.377187,13.102491 0,1.069747 -2.840426,7.224508 -4.021206,8.713341 -0.818417,1.031941 -6.81118,1.683287 -10.970083,1.192324 z"
       id="path209"
       sodipodi:nodetypes="ssssssssss" /><path
       style="fill:#181e18;fill-opacity:1;stroke-width:1.23173"
       d="m 33.641644,69.461449 c -0.600964,-0.857993 -0.65218,-3.384326 -0.08843,-4.361096 1.652919,-2.863804 4.6641,-5.017413 7.015365,-5.017413 3.149531,0 3.247527,3.568787 0.182174,6.634136 -0.929137,0.929142 -2.616434,1.16861 -3.31462,0.470428 -0.954855,-0.954859 0.117015,-3.519692 1.470868,-3.519692 0.442749,0 0.413026,0.127664 -0.175646,0.754273 -0.779061,0.829266 -0.939989,2.041907 -0.301234,2.269878 1.278754,0.456393 3.494565,-1.935302 3.566535,-3.849639 0.06799,-1.808123 -1.306283,-2.304898 -3.498457,-1.264646 -3.284035,1.558377 -5.357531,5.772717 -3.878891,7.883771 0.445199,0.635618 0.447466,0.724311 0.01848,0.724311 -0.268863,0 -0.717142,-0.325941 -0.996168,-0.724311 z m -8.250132,-2.024097 c 1.746272,-1.038903 3.764991,-2.739403 6.557564,-5.523882 5.277801,-5.262513 8.22928,-6.741669 11.613961,-5.820445 1.108368,0.301669 1.089928,0.311587 -0.651798,0.350556 -0.985835,0.02205 -2.252825,0.175099 -2.81552,0.340093 -1.900301,0.557212 -4.720057,2.659068 -7.618042,5.678493 -2.784517,2.901218 -6.712456,5.695691 -8.794389,6.256632 -0.448107,0.120736 0.320596,-0.455915 1.708224,-1.281447 z m -3.632186,-5.47174 c -1.331042,-0.707099 -2.107591,-2.020668 -1.81871,-3.076417 l 0.252997,-0.924588 0.244513,1.095213 c 0.369054,1.653043 1.030201,2.126678 2.995033,2.145578 3.251949,0.0313 7.569979,-2.773519 9.020462,-5.859284 0.89641,-1.90703 0.858928,-2.936113 -0.143473,-3.93851 -2.208124,-2.208117 -7.623276,0.763247 -7.643798,4.194247 -0.0049,0.804202 0.109133,0.896217 1.110278,0.896217 1.813425,0 3.82834,-2.117128 2.899191,-3.046271 -0.122066,-0.122003 -0.635293,0.174298 -1.140639,0.658451 -0.67578,0.647448 -0.918815,0.745408 -0.918815,0.370365 0,-1.245265 2.674424,-1.916963 3.367978,-0.845891 0.283633,0.438016 0.218634,0.7502 -0.301161,1.446403 -2.136092,2.861067 -5.673988,3.018979 -5.673988,0.253254 0,-1.710318 1.974882,-4.293607 3.447634,-4.509762 0.258358,-0.03791 0.644224,-0.243441 0.857511,-0.456718 0.213276,-0.213277 1.145259,-0.387777 2.071083,-0.387777 4.429959,0 4.943914,4.339575 0.985317,8.31968 -2.8042,2.819444 -7.693992,4.68442 -9.611413,3.66581 z"
       id="path206" /></g></svg>
