<?xml version="1.0" encoding="UTF-8" standalone="no"?>
<!-- Created with Inkscape (http://www.inkscape.org/) -->

<svg
   width="100mm"
   height="100mm"
   viewBox="0 0 100 100"
   version="1.1"
   id="svg1"
   inkscape:version="1.4 (86a8ad7, 2024-10-11)"
   sodipodi:docname="boilder2.svg"
   xml:space="preserve"
   xmlns:inkscape="http://www.inkscape.org/namespaces/inkscape"
   xmlns:sodipodi="http://sodipodi.sourceforge.net/DTD/sodipodi-0.dtd"
   xmlns="http://www.w3.org/2000/svg"
   xmlns:svg="http://www.w3.org/2000/svg"><sodipodi:namedview
     id="namedview1"
     pagecolor="#ffffff"
     bordercolor="#000000"
     borderopacity="0.25"
     inkscape:showpageshadow="2"
     inkscape:pageopacity="0.0"
     inkscape:pagecheckerboard="true"
     inkscape:deskcolor="#d1d1d1"
     inkscape:document-units="mm"
     inkscape:zoom="1.4378367"
     inkscape:cx="301.4946"
     inkscape:cy="146.40049"
     inkscape:window-width="1920"
     inkscape:window-height="1009"
     inkscape:window-x="1912"
     inkscape:window-y="-8"
     inkscape:window-maximized="1"
     inkscape:current-layer="layer1" /><defs
     id="defs1" /><g
     inkscape:label="Warstwa 1"
     inkscape:groupmode="layer"
     id="layer1"><g
       inkscape:label="Warstwa 1"
       id="layer1-5"
       transform="translate(0.35937148,-0.06040081)"><rect
         style="fill:#14664e;fill-opacity:1;stroke-width:0.100069"
         id="rect1"
         width="100"
         height="100"
         x="2.220446e-16"
         y="0" /><path
         style="fill:#49b380;fill-opacity:1"
         d="m 61.870681,94.92045 c -2.792457,-0.21168 -4.956416,-0.74728 -11.013031,-2.72586 -2.478273,-0.8096 -5.701805,-1.66167 -7.358264,-1.94501 -3.166896,-0.54169 -7.211985,-0.51891 -10.62319,0.0598 -2.92353,0.49599 -4.173089,0.71762 -4.856875,0.86146 -1.483838,0.31214 -5.380859,0.92834 -6.545997,1.03507 -1.516175,0.13888 -4.254677,-0.17405 -5.292566,-0.14407 C 7.3182429,92.31789 8.3551437,87.23162 8.2165531,80.74598 8.1705081,78.59118 7.5330211,77.035648 6.9027334,74.640555 6.1225274,71.675772 5.2204303,67.817241 5.0604099,66.760403 4.6874565,64.297271 4.617152,61.950044 4.8553405,59.913832 5.1073074,57.759833 5.5468177,55.999085 6.7103304,52.482449 8.783794,46.215549 9.0689515,44.952434 9.2846129,41.079577 9.4249503,38.559391 9.2969813,37.420861 8.2110819,31.528454 7.182706,25.948186 6.9519914,24.050757 6.9518345,21.172233 6.9516171,17.180682 7.5241136,14.337514 9.2312066,12.304266 11.170387,9.9945882 11.477308,6.4238492 15.153442,5.7843782 c 5.175747,-0.900332 6.564882,2.237674 10.510681,0.971885 4.265868,-1.368465 5.590977,-1.713096 7.991757,-2.078476 2.73477,-0.416211 5.020838,-0.432488 7.163343,-0.051 2.458744,0.437791 3.808366,0.840382 9.161283,2.732797 4.748533,1.678748 7.801343,2.288167 11.451603,2.286036 3.124107,0.03613 6.179317,-0.627708 9.210012,-1.303337 3.552223,-0.852105 7.013699,-2.891788 10.662491,-3.21722 5.872825,-0.523792 9.344776,1.232612 10.720666,3.288012 1.183922,1.7686268 0.79697,5.5741108 0.692772,8.6912368 -0.116743,3.49241 1.274055,6.854996 2.135615,10.233347 1.165525,4.569026 1.594482,8.432631 1.269136,11.431078 -0.284972,2.626352 -0.796166,4.739381 -2.133898,8.820498 -1.263446,3.854487 -1.393384,4.280284 -1.746041,5.721631 -0.788647,3.223283 1.143634,6.427405 1.422507,9.043298 0.211592,1.984772 -1.418027,5.24975 -0.895625,8.548312 0.670439,4.2333 2.792068,8.690674 2.851521,11.402354 0.101977,4.65122 0.07133,7.42344 -6.444047,9.4907 -3.925033,1.24537 -4.322513,-2.55604 -14.685409,1.22686 -2.967622,1.08331 -4.790689,1.26401 -5.847627,1.4671 -2.224946,0.42752 -4.722562,0.58643 -6.773501,0.43096 z"
         id="path1"
         sodipodi:nodetypes="sssssssssssssssssssssssssssssssssssss" /></g><path
       style="fill:#202a20;fill-opacity:1;stroke-width:1.36777"
       d="m 43.734477,75.850618 c -1.29375,-0.257532 -4.32873,-0.814975 -6.744396,-1.238759 -2.415665,-0.423786 -5.092042,-1.017464 -5.947489,-1.319285 -3.371384,-1.189492 -6.820864,-4.780611 -8.681689,-9.038169 -1.011322,-2.313902 -1.07946,-6.165567 -0.150447,-8.504416 0.727404,-1.831283 2.860399,-5.015581 3.815061,-5.695425 0.346033,-0.246411 0.887261,-1.205588 1.202752,-2.131505 2.168591,-6.364432 9.787294,-13.400227 17.992389,-16.61578 2.397461,-0.939558 7.213938,-1.940617 9.185242,-1.975263 3.43147,-0.0603 4.827337,0.09619 4.827337,0.09619 3.379604,0.238286 6.308472,1.294484 8.817502,3.17973 2.394055,1.798863 3.6233,3.637646 4.806123,7.189354 0.816164,2.450741 2.849264,5.650762 3.886282,6.116881 0.581427,0.261339 3.471614,4.690021 3.939119,6.035983 0.830526,2.391054 0.610602,8.582122 -0.397885,11.201177 -1.548415,4.021267 -4.06189,6.949487 -7.912542,9.218192 -2.978805,1.755038 -5.385881,2.248674 -9.638056,1.976549 -3.325017,-0.21279 -3.868707,-0.15006 -6.694964,0.772453 -3.623752,1.182819 -8.563493,1.476733 -12.304271,0.732103 z"
       id="path202"
       sodipodi:nodetypes="ssssssssssssssssssss" /><path
       style="fill:#181e18;fill-opacity:1;stroke-width:1.36777"
       d="m 58.644452,73.120753 c -0.05964,-0.497599 -0.134316,-2.044679 -0.166075,-3.437956 -0.05047,-2.219326 0.101899,-2.869556 1.229806,-5.247405 2.332518,-4.917601 6.654737,-9.105916 9.920255,-9.612942 4.172297,-0.647817 6.865895,3.409434 5.457813,8.220881 -1.185025,4.049274 -4.24907,6.122404 -7.034021,4.759207 -1.797843,-0.880023 -2.216764,-2.141565 -1.349692,-4.064404 0.361653,-0.801989 1.041546,-1.709773 1.510898,-2.017301 0.971324,-0.636433 1.053992,-0.395463 0.310512,0.905108 -0.637397,1.115006 -0.688182,2.605009 -0.108602,3.184632 0.716508,0.71651 2.423818,0.504194 3.343851,-0.415828 0.499415,-0.49942 1.042407,-1.709468 1.316304,-2.93335 0.391894,-1.751197 0.383565,-2.318098 -0.05225,-3.556625 -1.498793,-4.258921 -7.380916,-1.339122 -10.657253,5.290107 -2.087209,4.223169 -2.16628,9.154461 -0.155119,9.674127 0.49988,0.129173 -0.05977,0.212919 -1.286624,0.192541 -2.034576,-0.0338 -2.178165,-0.09305 -2.279803,-0.940792 z M 29.536564,69.518221 c -0.742961,-0.144258 -2.178726,-0.776932 -3.190591,-1.405944 -1.011865,-0.62901 -1.986056,-1.143655 -2.164868,-1.143655 -0.178811,0 -0.495659,-0.318672 -0.704108,-0.708161 -0.315173,-0.588908 0.0026,-0.504898 1.887191,0.498885 2.919537,1.555038 5.492455,2.13884 9.349385,2.121397 6.736325,-0.03046 13.624555,-3.517748 19.210392,-9.725575 8.075813,-8.97509 11.392144,-11.327616 16.42358,-11.650514 2.250986,-0.14446 2.789164,-0.04605 4.527276,0.827815 2.371855,1.192494 5.638098,3.890929 5.968074,4.930568 0.527714,1.662694 -0.481607,1.420047 -2.383865,-0.573096 -3.937601,-4.12573 -7.746741,-4.922028 -12.430011,-2.598492 -2.7803,1.379402 -5.251661,3.589144 -10.340052,9.245441 -1.685165,1.873254 -3.97263,4.074853 -5.083248,4.892443 -2.481483,1.826762 -8.316829,4.740649 -10.501997,5.244185 -1.814393,0.418097 -8.498496,0.446373 -10.567158,0.0447 z m 0.01382,-10.810646 c -0.934359,-0.332893 -2.200096,-1.087049 -2.812722,-1.675903 -1.983237,-1.906237 -2.438874,-5.557981 -0.826327,-6.622592 0.813908,-0.537338 0.814263,-0.536618 0.814263,1.650142 0,1.832114 0.154066,2.370811 0.947826,3.31415 1.341239,1.593966 2.723401,2.202267 5.540577,2.43845 3.393049,0.28446 7.295471,-0.644929 11.297932,-2.690677 3.717621,-1.900165 6.084403,-3.84823 7.397411,-6.088693 1.31246,-2.239566 1.905308,-8.29156 1.035363,-10.569487 -0.769454,-2.014767 -2.136599,-2.752925 -4.704361,-2.539987 -4.637709,0.384596 -10.63597,5.40556 -10.737842,8.988326 -0.04103,1.44312 0.668198,2.153365 2.150277,2.153365 2.425076,0 5.891096,-2.476411 5.891096,-4.209079 0,-1.220568 -0.590413,-1.360895 -2.256854,-0.536403 -1.608351,0.795746 -1.858681,0.796112 -1.536133,0.0022 0.327268,-0.805448 1.760147,-1.696069 3.147466,-1.956332 1.052433,-0.197437 1.418614,-0.09313 2.049143,0.583654 1.353795,1.453125 0.783707,3.226967 -1.782044,5.544978 -1.88114,1.699494 -3.472736,2.380396 -5.564116,2.380396 -3.821559,0 -5.02204,-2.130075 -3.583895,-6.359081 0.780903,-2.296321 3.813954,-5.340398 6.993207,-7.018623 2.026466,-1.069707 2.778358,-1.261483 5.428351,-1.384548 2.763859,-0.128351 3.202627,-0.05665 4.323107,0.706438 1.958296,1.333669 2.622296,2.792901 2.59505,5.702945 -0.0372,3.97624 -1.746141,7.738198 -5.054484,11.126807 -5.854563,5.996597 -15.001794,9.108301 -20.752296,7.059519 z"
       id="path203"
       sodipodi:nodetypes="sccssssssssscssssssssssssssssssssscsssssssssssssssssssssssscc" /></g></svg>
