<?xml version="1.0" encoding="UTF-8" standalone="no"?>
<!-- Created with Inkscape (http://www.inkscape.org/) -->

<svg
   width="100mm"
   height="100mm"
   viewBox="0 0 100 100"
   version="1.1"
   id="svg1"
   inkscape:version="1.4 (86a8ad7, 2024-10-11)"
   sodipodi:docname="boilder1.svg"
   xml:space="preserve"
   xmlns:inkscape="http://www.inkscape.org/namespaces/inkscape"
   xmlns:sodipodi="http://sodipodi.sourceforge.net/DTD/sodipodi-0.dtd"
   xmlns="http://www.w3.org/2000/svg"
   xmlns:svg="http://www.w3.org/2000/svg"><sodipodi:namedview
     id="namedview1"
     pagecolor="#ffffff"
     bordercolor="#000000"
     borderopacity="0.25"
     inkscape:showpageshadow="2"
     inkscape:pageopacity="0.0"
     inkscape:pagecheckerboard="true"
     inkscape:deskcolor="#d1d1d1"
     inkscape:document-units="mm"
     inkscape:zoom="1.4378367"
     inkscape:cx="196.47572"
     inkscape:cy="192.30278"
     inkscape:window-width="1920"
     inkscape:window-height="1009"
     inkscape:window-x="1912"
     inkscape:window-y="-8"
     inkscape:window-maximized="1"
     inkscape:current-layer="layer1" /><defs
     id="defs1" /><g
     inkscape:label="Warstwa 1"
     inkscape:groupmode="layer"
     id="layer1"><g
       inkscape:label="Warstwa 1"
       id="layer1-5"
       transform="translate(0.35937148,-0.06040081)"><rect
         style="fill:#14664e;fill-opacity:1;stroke-width:0.100069"
         id="rect1"
         width="100"
         height="100"
         x="2.220446e-16"
         y="0" /><path
         style="fill:#49b380;fill-opacity:1"
         d="m 61.870681,94.92045 c -2.792457,-0.21168 -4.956416,-0.74728 -11.013031,-2.72586 -2.478273,-0.8096 -5.701805,-1.66167 -7.358264,-1.94501 -3.166896,-0.54169 -7.211985,-0.51891 -10.62319,0.0598 -2.92353,0.49599 -4.173089,0.71762 -4.856875,0.86146 -1.483838,0.31214 -5.380859,0.92834 -6.545997,1.03507 -1.516175,0.13888 -4.254677,-0.17405 -5.292566,-0.14407 C 7.3182429,92.31789 8.3551437,87.23162 8.2165531,80.74598 8.1705081,78.59118 7.5330211,77.035648 6.9027334,74.640555 6.1225274,71.675772 5.2204303,67.817241 5.0604099,66.760403 4.6874565,64.297271 4.617152,61.950044 4.8553405,59.913832 5.1073074,57.759833 5.5468177,55.999085 6.7103304,52.482449 8.783794,46.215549 9.0689515,44.952434 9.2846129,41.079577 9.4249503,38.559391 9.2969813,37.420861 8.2110819,31.528454 7.182706,25.948186 6.9519914,24.050757 6.9518345,21.172233 6.9516171,17.180682 7.5241136,14.337514 9.2312066,12.304266 11.170387,9.9945882 11.477308,6.4238492 15.153442,5.7843782 c 5.175747,-0.900332 6.564882,2.237674 10.510681,0.971885 4.265868,-1.368465 5.590977,-1.713096 7.991757,-2.078476 2.73477,-0.416211 5.020838,-0.432488 7.163343,-0.051 2.458744,0.437791 3.808366,0.840382 9.161283,2.732797 4.748533,1.678748 7.801343,2.288167 11.451603,2.286036 3.124107,0.03613 6.179317,-0.627708 9.210012,-1.303337 3.552223,-0.852105 7.013699,-2.891788 10.662491,-3.21722 5.872825,-0.523792 9.344776,1.232612 10.720666,3.288012 1.183922,1.7686268 0.79697,5.5741108 0.692772,8.6912368 -0.116743,3.49241 1.274055,6.854996 2.135615,10.233347 1.165525,4.569026 1.594482,8.432631 1.269136,11.431078 -0.284972,2.626352 -0.796166,4.739381 -2.133898,8.820498 -1.263446,3.854487 -1.393384,4.280284 -1.746041,5.721631 -0.788647,3.223283 1.143634,6.427405 1.422507,9.043298 0.211592,1.984772 -1.418027,5.24975 -0.895625,8.548312 0.670439,4.2333 2.792068,8.690674 2.851521,11.402354 0.101977,4.65122 0.07133,7.42344 -6.444047,9.4907 -3.925033,1.24537 -4.322513,-2.55604 -14.685409,1.22686 -2.967622,1.08331 -4.790689,1.26401 -5.847627,1.4671 -2.224946,0.42752 -4.722562,0.58643 -6.773501,0.43096 z"
         id="path1"
         sodipodi:nodetypes="sssssssssssssssssssssssssssssssssssss" /></g><path
       style="fill:#202a20;fill-opacity:1;stroke-width:1.23325"
       d="m 50.318282,70.27447 c -2.28085,-0.406203 -4.266691,-1.45109 -4.644018,-2.443536 -0.361735,-0.951431 -0.189857,-0.939643 -3.991917,-0.273806 -3.223929,0.564591 -9.846288,0.474787 -13.786175,-0.186948 -6.290109,-1.056476 -9.482045,-4.072542 -9.415821,-8.897029 0.06959,-5.069655 4.011399,-9.824371 10.26416,-12.380902 2.55309,-1.043866 2.623986,-1.102402 2.441327,-2.015696 -0.427714,-2.138571 2.172688,-5.507798 5.671516,-7.348336 2.481604,-1.305432 6.279035,-2.558928 9.058806,-2.990224 3.819094,-0.592553 7.625887,0.437869 9.729514,2.633583 0.835763,0.872347 0.953719,1.235661 0.953719,2.937497 0,1.728797 0.07226,1.942381 0.658032,1.945219 1.013174,0.0049 3.962869,1.485226 5.548531,2.784558 1.421199,1.164566 1.429547,1.166671 2.477617,0.624694 1.808749,-0.935341 4.949327,-0.549508 7.905447,0.971218 4.321135,2.222936 9.19107,7.119871 10.891891,10.952281 0.296433,0.667946 0.523253,2.171006 0.546384,3.620718 0.03596,2.254021 -0.04895,2.606497 -0.936875,3.888897 -2.21089,3.193114 -7.640449,4.101104 -14.821431,2.478604 -2.051396,-0.463501 -3.739981,-0.808089 -3.75241,-0.765749 -0.226345,0.771042 -1.331659,2.196298 -2.134912,2.752878 -2.325777,1.611553 -8.523128,2.44943 -12.663385,1.712079 z"
       id="path200" /><path
       style="fill:#181e18;fill-opacity:1;stroke-width:1.23325"
       d="M 51.320294,70.256654 C 48.149742,69.83302 46.764378,69.203531 45.944523,67.81398 45.504345,67.067932 45.09898,66.729906 44.787726,66.849346 c -0.802693,0.308023 -8.844136,1.217986 -9.461519,1.070657 -0.670757,-0.160064 -0.783243,-0.110326 2.847821,-1.259293 3.217658,-1.018156 4.674299,-2.183422 6.898952,-5.518941 1.997173,-2.994448 4.116671,-4.872322 6.267038,-5.552589 0.745081,-0.235706 1.407338,-0.46616 1.471683,-0.512122 0.156025,-0.111449 -2.342165,-3.166788 -4.152512,-5.078612 l -1.449737,-1.530999 -0.905999,1.140051 c -1.572331,1.978521 -5.238384,4.672582 -8.618384,6.333366 -8.460648,4.157191 -15.335939,3.802007 -15.335939,-0.792269 0,-2.636505 2.463683,-4.726393 5.917602,-5.019769 1.387686,-0.117873 1.79434,-0.02374 2.36565,0.547567 1.278406,1.278406 0.549708,3.038028 -1.491516,3.601637 -1.827793,0.504678 -2.383257,-0.05668 -0.774097,-0.782305 1.002423,-0.452031 1.324034,-0.783165 1.324034,-1.363242 0,-0.639218 -0.167561,-0.766186 -1.01115,-0.766186 -2.195726,0 -4.531439,1.954227 -4.534672,3.794032 -0.0036,2.032089 3.941094,2.21134 9.51039,0.432167 3.242568,-1.035874 7.048068,-3.247215 9.377641,-5.449264 l 2.156878,-2.038806 -2.468922,0.202182 c -4.014927,0.328786 -8.665441,-0.666197 -10.302635,-2.204262 -0.801455,-0.752928 -1.21989,-2.449572 -0.90931,-3.687019 l 0.208976,-0.83263 0.881436,0.94358 c 1.097975,1.175385 2.779625,1.657332 5.791098,1.659676 6.36707,0.0049 12.381219,-2.494966 14.804856,-6.153988 0.532211,-0.803492 0.967657,-1.763274 0.967657,-2.132846 0,-0.603635 0.104098,-0.567855 1.023875,0.351924 1.273024,1.273024 1.713463,3.942895 0.776652,4.707947 -1.78725,1.459571 -2.126824,1.93835 -2.126824,2.998687 0,1.563832 1.770911,4.91374 3.280886,6.206222 1.421274,1.216557 4.456889,2.771754 7.100169,3.637537 0.953808,0.312411 1.65927,0.642943 1.567697,0.734516 -0.334907,0.334907 -4.618876,-0.622926 -6.261372,-1.399952 -4.592996,-2.172834 -7.886516,-7.689967 -6.328492,-10.601161 0.406877,-0.760258 0.248335,-0.782256 -0.996902,-0.13832 -2.983621,1.542891 -1.799846,5.864744 2.819174,10.292546 3.614734,3.465091 4.421524,3.973276 6.307927,3.973276 3.106432,0 5.03754,-1.24754 5.879327,-3.798182 0.481318,-1.458407 0.02172,-3.289006 -1.456391,-5.800865 l -1.092039,-1.855779 0.778163,-0.509871 c 1.188548,-0.778765 1.57875,-0.608611 0.819067,0.35717 -0.620354,0.788652 -0.637474,0.928776 -0.189366,1.549908 1.818552,2.520731 2.282171,3.653785 2.408284,5.885685 0.109377,1.935613 0.275601,2.461321 1.104361,3.492602 1.120816,1.394706 3.464007,3.007713 6.283662,4.325552 2.143119,1.001643 6.264639,2.15182 7.710787,2.15182 0.619854,0 0.863554,0.137854 0.753001,0.425951 -0.125468,0.326965 -0.690223,0.369666 -2.430218,0.183748 -5.278918,-0.56405 -9.324459,-2.227612 -12.451151,-5.120018 l -1.877479,-1.736798 -1.154348,0.921057 c -0.634891,0.506581 -1.154353,1.01823 -1.154358,1.136999 -2.3e-5,0.531394 6.772943,6.53583 8.122376,7.200729 1.182601,0.582694 2.026814,0.734926 3.956693,0.713482 1.349331,-0.015 2.891082,-0.125585 3.426114,-0.245762 l 0.972785,-0.218503 -0.85151,0.476906 c -2.397489,1.342764 -7.66157,1.365514 -12.985114,0.05611 l -2.931111,-0.720942 -0.177134,0.705755 c -0.09743,0.388164 -0.74955,1.222897 -1.449169,1.854964 -2.044226,1.846834 -7.30315,2.792937 -12.020774,2.16259 z m 9.597155,-2.954289 c 2.266647,-0.848062 3.687087,-2.158464 3.687087,-3.401457 0,-1.179698 -1.314878,-3.375375 -2.578112,-4.305116 -1.15755,-0.851958 -6.503901,-2.682453 -7.834677,-2.682453 -1.574062,0 -3.839312,0.982707 -5.045385,2.18878 -1.109884,1.109884 -2.282199,3.558703 -2.536019,5.297428 -0.153242,1.049748 1.01641,1.722961 4.792594,2.758453 3.813548,1.045737 6.977083,1.093738 9.514512,0.144365 z M 60.162728,49.816388 c -2.270002,-1.289106 -4.041903,-3.401435 -4.041903,-4.818454 0,-1.747065 2.582334,-1.910637 4.29279,-0.271918 0.996246,0.954464 1.26025,2.398426 0.43851,2.398426 -0.269194,0 -0.489445,-0.28301 -0.489445,-0.62891 0,-0.741229 -1.457187,-1.981463 -2.32808,-1.981463 -1.303329,0 -0.307266,2.296627 1.547164,3.567301 0.632807,0.433607 1.642353,0.779896 2.334674,0.800826 1.214934,0.03673 1.219681,0.03171 1.199001,-1.268309 -0.01147,-0.717852 -0.137254,-1.562145 -0.279633,-1.876205 -0.397291,-0.876352 0.221688,-0.658306 0.945573,0.333095 0.854409,1.170162 0.864715,3.240662 0.01921,3.858912 -0.853474,0.624075 -2.42563,0.575111 -3.63786,-0.113298 z"
       id="path201" /></g></svg>
