<?xml version="1.0" encoding="UTF-8" standalone="no"?>
<!-- Created with Inkscape (http://www.inkscape.org/) -->

<svg
   width="100mm"
   height="100mm"
   viewBox="0 0 100 100"
   version="1.1"
   id="svg1"
   inkscape:version="1.4 (86a8ad7, 2024-10-11)"
   sodipodi:docname="boilder3.svg"
   xml:space="preserve"
   xmlns:inkscape="http://www.inkscape.org/namespaces/inkscape"
   xmlns:sodipodi="http://sodipodi.sourceforge.net/DTD/sodipodi-0.dtd"
   xmlns="http://www.w3.org/2000/svg"
   xmlns:svg="http://www.w3.org/2000/svg"><sodipodi:namedview
     id="namedview1"
     pagecolor="#ffffff"
     bordercolor="#000000"
     borderopacity="0.25"
     inkscape:showpageshadow="2"
     inkscape:pageopacity="0.0"
     inkscape:pagecheckerboard="true"
     inkscape:deskcolor="#d1d1d1"
     inkscape:document-units="mm"
     inkscape:zoom="2.0334082"
     inkscape:cx="167.94464"
     inkscape:cy="143.84717"
     inkscape:window-width="1920"
     inkscape:window-height="1009"
     inkscape:window-x="1912"
     inkscape:window-y="-8"
     inkscape:window-maximized="1"
     inkscape:current-layer="layer1" /><defs
     id="defs1" /><g
     inkscape:label="Warstwa 1"
     inkscape:groupmode="layer"
     id="layer1"><g
       inkscape:label="Warstwa 1"
       id="layer1-5"
       transform="translate(0.35937148,-0.06040081)"><rect
         style="fill:#14664e;fill-opacity:1;stroke-width:0.100069"
         id="rect1"
         width="100"
         height="100"
         x="2.220446e-16"
         y="0" /><path
         style="fill:#49b380;fill-opacity:1"
         d="m 61.870681,94.92045 c -2.792457,-0.21168 -4.956416,-0.74728 -11.013031,-2.72586 -2.478273,-0.8096 -5.701805,-1.66167 -7.358264,-1.94501 -3.166896,-0.54169 -7.211985,-0.51891 -10.62319,0.0598 -2.92353,0.49599 -4.173089,0.71762 -4.856875,0.86146 -1.483838,0.31214 -5.380859,0.92834 -6.545997,1.03507 -1.516175,0.13888 -4.254677,-0.17405 -5.292566,-0.14407 C 7.3182429,92.31789 8.3551437,87.23162 8.2165531,80.74598 8.1705081,78.59118 7.5330211,77.035648 6.9027334,74.640555 6.1225274,71.675772 5.2204303,67.817241 5.0604099,66.760403 4.6874565,64.297271 4.617152,61.950044 4.8553405,59.913832 5.1073074,57.759833 5.5468177,55.999085 6.7103304,52.482449 8.783794,46.215549 9.0689515,44.952434 9.2846129,41.079577 9.4249503,38.559391 9.2969813,37.420861 8.2110819,31.528454 7.182706,25.948186 6.9519914,24.050757 6.9518345,21.172233 6.9516171,17.180682 7.5241136,14.337514 9.2312066,12.304266 11.170387,9.9945882 11.477308,6.4238492 15.153442,5.7843782 c 5.175747,-0.900332 6.564882,2.237674 10.510681,0.971885 4.265868,-1.368465 5.590977,-1.713096 7.991757,-2.078476 2.73477,-0.416211 5.020838,-0.432488 7.163343,-0.051 2.458744,0.437791 3.808366,0.840382 9.161283,2.732797 4.748533,1.678748 7.801343,2.288167 11.451603,2.286036 3.124107,0.03613 6.179317,-0.627708 9.210012,-1.303337 3.552223,-0.852105 7.013699,-2.891788 10.662491,-3.21722 5.872825,-0.523792 9.344776,1.232612 10.720666,3.288012 1.183922,1.7686268 0.79697,5.5741108 0.692772,8.6912368 -0.116743,3.49241 1.274055,6.854996 2.135615,10.233347 1.165525,4.569026 1.594482,8.432631 1.269136,11.431078 -0.284972,2.626352 -0.796166,4.739381 -2.133898,8.820498 -1.263446,3.854487 -1.393384,4.280284 -1.746041,5.721631 -0.788647,3.223283 1.143634,6.427405 1.422507,9.043298 0.211592,1.984772 -1.418027,5.24975 -0.895625,8.548312 0.670439,4.2333 2.792068,8.690674 2.851521,11.402354 0.101977,4.65122 0.07133,7.42344 -6.444047,9.4907 -3.925033,1.24537 -4.322513,-2.55604 -14.685409,1.22686 -2.967622,1.08331 -4.790689,1.26401 -5.847627,1.4671 -2.224946,0.42752 -4.722562,0.58643 -6.773501,0.43096 z"
         id="path1"
         sodipodi:nodetypes="sssssssssssssssssssssssssssssssssssss" /></g><path
       style="fill:#202a20;fill-opacity:1"
       d="m 53.199622,75.620439 c -2.27566,-0.683087 -2.99465,-1.533141 -2.99465,-3.540511 0,-1.656292 -0.11847,-1.806871 -1.185,-1.506215 -5.98927,1.68838 -22.07949,-0.005 -27.93391,-2.939906 -3.8963,-1.953248 -5.25668,-7.082814 -3.03389,-11.439851 1.12859,-2.212215 5.62147,-6.504588 8.15654,-7.792523 0.88714,-0.450713 1.67648,-0.872577 1.75408,-0.937474 0.0776,-0.0649 -0.2172,-0.805004 -0.65509,-1.644682 -1.92581,-3.692803 -0.0435,-6.768888 4.92048,-8.041119 l 2.7034,-0.692863 -1.05328,-1.33903 c -1.30974,-1.665064 -1.3201,-2.59629 -0.052,-4.675839 1.14408,-1.876198 4.03477,-2.841122 8.51137,-2.841122 2.18684,0 3.32688,0.364885 5.76226,1.844301 3.29156,1.999521 4.10562,3.49203 2.9045,5.325171 -0.85732,1.308435 -0.57531,1.783835 1.05817,1.783835 1.15168,0 4.90431,2.234867 5.6393,3.358468 0.63386,0.969006 0.45611,3.437902 -0.36132,5.018638 -0.7642,1.477794 -0.76385,1.478311 1.44833,2.138865 1.48877,0.444547 3.00193,1.517705 4.62496,3.280108 l 2.41224,2.619395 1.99706,-0.834426 c 3.85813,-1.612029 6.86534,-0.766608 11.72626,3.296612 2.65473,2.219079 6.20561,7.469354 6.71763,9.932568 0.43627,2.098809 -0.86361,5.054105 -2.56376,5.828747 -2.74161,1.249158 -6.90147,1.312973 -11.29808,0.173317 -5.3203,-1.379086 -5.54099,-1.377958 -5.17373,0.02644 0.21364,0.816963 -0.15133,1.550091 -1.31094,2.633325 -1.53388,1.432863 -1.82612,1.499105 -6.42296,1.455896 -2.64877,-0.0249 -5.48285,-0.245452 -6.29795,-0.490122 z"
       id="path205" /><path
       style="fill:#181e18;fill-opacity:1"
       d="m 55.998282,75.797708 c -4.31996,-0.444224 -5.79331,-1.382675 -5.79331,-3.690058 0,-1.314145 0.0255,-1.322919 1.3402,-0.461477 3.52462,2.309415 11.6364,3.302079 14.59142,1.785595 0.58303,-0.29921 0.92166,-0.276614 0.92166,0.0615 0,0.29397 -0.93856,1.013307 -2.08568,1.598525 -2.01395,1.027439 -4.18601,1.198292 -8.97429,0.705913 z m 18.95995,-3.309036 c -5.10903,-0.789914 -6.80248,-1.550456 -8.12812,-3.650412 -2.56902,-4.069581 -9.31636,-5.80111 -12.83263,-3.293159 -1.95507,1.394438 -1.95089,2.101871 0.019,3.212629 1.1321,0.638357 1.60443,0.652508 2.84917,0.08536 1.45863,-0.664596 1.46859,-0.69746 0.44403,-1.464984 -1.01766,-0.762361 -1.01002,-0.780116 0.26322,-0.612029 1.92627,0.254297 1.95781,1.796795 0.0568,2.779826 -1.38616,0.716813 -1.86623,0.730532 -3.68128,0.105196 -1.70286,-0.58668 -2.21551,-0.594212 -2.7837,-0.0409 -0.72239,0.703474 -7.67973,1.849355 -10.60953,1.7474 -1.442,-0.05018 -1.3092,-0.148236 0.95977,-0.708702 3.05581,-0.754823 5.41077,-1.851119 10.55,-4.911295 4.56668,-2.719251 7.22099,-5.468257 8.15259,-8.443443 0.80759,-2.579161 3.49343,-5.236184 4.38834,-4.341268 0.39067,0.390666 0.36814,0.74453 -0.0757,1.188331 -0.97094,0.970933 -0.75203,4.054145 0.46657,6.571426 1.20589,2.491055 8.57443,9.677304 11.54139,11.255885 1.98959,1.058565 1.96175,1.067728 -1.57999,0.520133 z m 7.89997,-3.168625 c -6.31511,-0.823418 -13.56772,-6.313631 -15.04718,-11.390698 -0.57046,-1.957639 -0.63978,-3.068728 -0.25467,-4.081655 0.6262,-1.647027 1.31072,-1.889112 0.80105,-0.283297 -1.60616,5.060565 7.3521,13.791836 15.38654,14.996675 1.25084,0.187575 2.27425,0.551134 2.27425,0.807911 0,0.256776 -0.0593,0.43579 -0.13166,0.39781 -0.0724,-0.03798 -1.43517,-0.239016 -3.02833,-0.446746 z m -4.62961,-5.94024 c -0.95312,-0.305357 -2.67137,-1.465895 -3.81832,-2.578975 -1.64694,-1.598295 -2.08537,-2.411451 -2.08537,-3.867694 0,-1.62833 0.15799,-1.843913 1.35129,-1.843913 1.9334,0 3.25454,0.846205 4.21208,2.697881 1.20509,2.330396 0.55636,2.450524 -1.37214,0.254084 -1.62289,-1.848376 -3.1379,-2.486439 -3.1379,-1.321564 0,1.118995 1.69953,3.434457 3.35191,4.566686 3.43523,2.353854 5.94207,1.282265 4.69976,-2.008986 -0.50863,-1.34752 -0.4939,-1.530667 0.0845,-1.050643 1.09268,0.90684 1.35384,3.310652 0.50313,4.630852 -0.83513,1.296005 -1.21178,1.347923 -3.78893,0.522272 z m -55.47943,-3.29245 c -3.89041,-2.113839 -1.12717,-6.786515 4.70282,-7.952512 1.75981,-0.351964 3.79304,0.515363 3.79304,1.618022 0,0.864237 -2.45882,2.916353 -3.49435,2.916353 -1.29452,0 -0.75443,-0.809014 0.97617,-1.462244 1.56857,-0.592069 1.63088,-0.704098 0.83457,-1.50041 -1.62697,-1.626975 -6.21636,0.792537 -6.21636,3.277248 0,3.72947 10.09522,2.544134 18.46422,-2.167988 3.2383,-1.823311 6.28904,-4.25856 6.28904,-5.020226 0,-0.196113 -3.49574,-0.476515 -7.76831,-0.623116 -9.29127,-0.318801 -11.6786,-1.042613 -13.0633,-3.96066 -1.08405,-2.284457 -0.63481,-4.004603 1.45148,-5.557788 l 1.42315,-1.059495 2.02262,1.827312 c 3.02503,2.732936 7.38699,3.842873 15.14436,3.853609 5.43428,0.0075 6.63367,-0.150037 8.55831,-1.124265 1.84524,-0.934037 2.23832,-0.993524 2.23832,-0.338736 0,1.97051 -1.70036,4.270012 -3.84638,5.201691 -1.21564,0.527766 -3.64185,2.307574 -5.39157,3.955129 -6.97386,6.56668 -20.96777,10.916336 -26.11783,8.118076 z m 18.76583,-17.845044 c -5.23086,-0.970412 -8.68997,-2.59767 -8.68997,-4.087999 0,-0.764143 0.93559,-0.493195 2.89988,0.83981 2.36746,1.606599 6.2487,2.432168 11.56483,2.459924 3.02358,0.01579 4.32959,-0.193427 4.92513,-0.788963 0.72948,-0.729483 0.71687,-0.846351 -0.12621,-1.169874 -0.56494,-0.216787 -1.12458,-0.06771 -1.41017,0.375647 -0.40274,0.625213 -0.54703,0.620763 -0.96543,-0.02978 -0.74608,-1.160036 -0.17854,-1.605141 2.04665,-1.605141 1.35037,0 2.12449,0.27432 2.33702,0.82815 0.40434,1.053685 -0.42748,2.629049 -1.63231,3.091382 -1.85504,0.711846 -7.34568,0.755392 -10.94942,0.08684 z m -3.34772,-7.49066 c -2.81558,-1.403063 -4.65287,-3.400724 -4.0399,-4.392528 0.49863,-0.806803 1.33097,-0.669937 1.33097,0.218858 0,1.267122 2.64331,3.322105 5.054,3.929124 3.13433,0.789232 6.75438,0.710382 8.91954,-0.19428 1.56525,-0.654 1.82642,-0.65665 1.82642,-0.01853 0,1.276398 -1.88185,1.834984 -6.18195,1.834984 -3.41406,0 -4.6318,-0.24281 -6.90908,-1.377627 z m 2.95272,-2.877879 c -1.94581,-1.133332 -0.24181,-3.407575 1.9558,-2.610297 0.92307,0.334884 0.87833,0.41428 -0.41654,0.739272 -2.39329,0.600678 -1.04229,1.536064 1.82118,1.260921 2.11416,-0.203143 2.46124,-0.121158 1.97375,0.466234 -0.69051,0.832011 -3.99949,0.921259 -5.33419,0.14387 z"
       id="path204" /></g></svg>
