<?xml version="1.0" encoding="UTF-8" standalone="no"?>
<!-- Created with Inkscape (http://www.inkscape.org/) -->

<svg
   width="100mm"
   height="100mm"
   viewBox="0 0 100 100"
   version="1.1"
   id="svg1"
   inkscape:version="1.4 (86a8ad7, 2024-10-11)"
   sodipodi:docname="boulder1.svg"
   xml:space="preserve"
   xmlns:inkscape="http://www.inkscape.org/namespaces/inkscape"
   xmlns:sodipodi="http://sodipodi.sourceforge.net/DTD/sodipodi-0.dtd"
   xmlns="http://www.w3.org/2000/svg"
   xmlns:svg="http://www.w3.org/2000/svg"><sodipodi:namedview
     id="namedview1"
     pagecolor="#ffffff"
     bordercolor="#000000"
     borderopacity="0.25"
     inkscape:showpageshadow="2"
     inkscape:pageopacity="0.0"
     inkscape:pagecheckerboard="true"
     inkscape:deskcolor="#d1d1d1"
     inkscape:document-units="mm"
     inkscape:zoom="1.0167041"
     inkscape:cx="248.35151"
     inkscape:cy="102.7831"
     inkscape:window-width="1920"
     inkscape:window-height="1009"
     inkscape:window-x="1912"
     inkscape:window-y="-8"
     inkscape:window-maximized="1"
     inkscape:current-layer="layer1" /><defs
     id="defs1" /><g
     inkscape:label="Warstwa 1"
     inkscape:groupmode="layer"
     id="layer1"><path
       style="fill:#53535f;fill-opacity:1;stroke-width:1.43108"
       d="m 28.585795,72.856402 c 0.0029,-0.156188 0.236887,-1.306307 0.519583,-2.555819 0.282695,-1.249512 0.732627,-3.606207 0.999838,-5.237101 0.441989,-2.697592 0.605834,-3.056471 1.815154,-3.97572 2.95448,-2.245809 2.888164,-2.099802 3.601343,-7.928592 0.363637,-2.971965 0.749542,-5.633889 0.85756,-5.915387 0.108047,-0.281498 1.016482,-0.958157 2.018797,-1.503688 1.002314,-0.545529 1.985209,-1.206172 2.184201,-1.468094 0.198991,-0.261922 0.572847,-2.094907 0.830785,-4.073301 0.483219,-3.706204 1.799154,-12.305078 2.149654,-14.046762 0.176224,-0.875608 0.592382,-1.100156 3.788013,-2.043855 l 3.590052,-1.060174 1.29434,1.512143 c 1.119592,1.307984 1.777832,1.657395 4.875391,2.58798 l 3.58105,1.075836 0.246432,2.484995 c 0.135523,1.366748 0.395121,3.42213 0.57684,4.567515 0.181704,1.145387 0.437252,3.192229 0.567881,4.548539 0.26372,2.738284 0.08787,2.556909 4.834791,4.987286 1.857943,0.951247 2.177188,1.268436 2.177188,2.163168 0,0.576658 0.162557,1.971423 0.361248,3.09948 0.198691,1.128055 0.640466,4.351249 0.981707,7.16265 0.341241,2.811402 0.945429,7.46266 1.342625,10.336129 0.397197,2.873468 0.722181,5.301498 0.722181,5.39562 0,0.09412 -9.882512,0.171133 -21.961132,0.171133 -12.078605,0 -21.958599,-0.127795 -21.955522,-0.283981 z"
       id="path3" /><path
       style="fill:#3e3e48;fill-opacity:1;stroke-width:1.43108"
       d="m 28.58923,72.856402 c 0.0043,-0.156188 0.175965,-0.965531 0.37998,-1.798539 0.204029,-0.833009 0.70641,-3.199524 1.1164,-5.258924 0.410005,-2.059401 0.80454,-3.80344 0.876752,-3.875644 0.07213,-0.0722 1.021663,0.430126 2.109913,1.116289 2.05778,1.297463 2.791952,2.321252 3.469769,4.838481 0.706568,2.624005 1.834316,4.883678 2.437302,4.883678 0.743962,0 0.748012,-1.299278 0.01946,-6.24756 -0.553957,-3.762501 -0.568511,-3.796558 -2.306043,-5.395447 -0.961715,-0.884974 -1.915144,-1.5061 -2.118729,-1.380278 -0.221617,0.136968 -0.212802,-0.05304 0.0219,-0.473475 0.215664,-0.386233 0.665725,-3.00248 1.000125,-5.813883 0.894039,-7.516139 0.47406,-6.945659 3.855245,-5.236813 1.57841,0.797728 3.104887,1.450413 3.39219,1.450413 0.717358,0 1.119807,1.227664 1.434573,4.376108 0.146943,1.469726 0.580002,4.451516 0.962358,6.6262 l 0.695191,3.953974 0.03105,-8.003476 0.03091,-8.003476 -2.052427,-1.651845 c -3.148978,-2.534379 -3.126538,-2.43857 -2.137061,-9.124835 0.470396,-3.178676 0.930789,-5.902055 1.023094,-6.051952 0.09231,-0.149897 0.326573,-1.664424 0.520599,-3.365615 0.194025,-1.701193 0.430268,-3.170572 0.524991,-3.265289 0.09474,-0.09472 0.738438,0.398626 1.430494,1.096319 0.692056,0.697693 2.084698,1.985457 3.094783,2.861699 l 1.836491,1.593166 0.707426,4.083891 c 0.389083,2.24614 0.712764,5.745173 0.719319,7.775631 0.0072,2.030457 0.151551,3.69174 0.32225,3.69174 0.1707,0 0.704593,-1.669975 1.186423,-3.711056 0.840474,-3.560338 0.851937,-3.810231 0.282009,-6.152902 -0.32673,-1.343013 -0.647635,-3.205432 -0.713122,-4.138706 l -0.119066,-1.696865 2.839808,-0.614067 c 3.183453,-0.688378 4.165031,-1.040763 4.165031,-1.495233 0,-0.170701 -0.29818,-0.388288 -0.662619,-0.483526 -0.590063,-0.154201 -0.593026,-0.177971 -0.02705,-0.217084 1.066442,-0.0737 1.824141,1.044828 1.848169,2.728264 0.01288,0.870195 0.186556,2.434113 0.386993,3.475374 0.200437,1.04126 0.517794,3.313022 0.705251,5.048358 0.385733,3.570855 0.367258,3.546839 4.280805,5.568218 1.405693,0.726058 2.55581,1.43395 2.55581,1.573094 0,0.139144 0.420966,2.991003 0.935483,6.337461 0.912943,5.937957 1.352585,9.197076 2.121576,15.72731 0.207636,1.763277 0.475162,3.594948 0.594485,4.07038 l 0.216952,0.864423 C 59.360784,74.57255 45.033932,75.209199 28.589168,72.856402 Z m 31.954495,-0.378639 c 0.156188,-0.156188 0.481172,-0.28398 0.722181,-0.28398 0.546086,0 1.490384,-1.893328 2.571436,-5.15575 l 0.830156,-2.50527 -0.78678,-1.659771 c -0.43273,-0.912874 -1.040567,-2.284278 -1.350753,-3.047566 -0.37885,-0.93227 -1.225549,-1.833326 -2.579509,-2.74514 -2.246452,-1.512848 -2.802527,-1.673383 -2.406476,-0.694725 0.147487,0.364441 0.658397,2.059684 1.135348,3.767204 l 0.867177,3.104584 -1.513138,3.900256 c -2.280799,5.878953 -2.288785,5.604138 0.162828,5.604138 1.134961,0 2.191342,-0.127795 2.34753,-0.28398 z m -0.08543,-18.196098 c 1.185177,-0.370065 2.520705,-1.003903 2.967803,-1.408531 1.031895,-0.933853 4.911268,-6.073443 4.911268,-6.506701 0,-0.351663 -4.668557,-2.759973 -5.350266,-2.759973 -0.264364,0 -0.330093,0.478216 -0.182148,1.325239 0.715926,4.099146 0.903813,3.528006 -2.209045,6.71487 -1.573258,1.610658 -2.860458,3.016359 -2.860458,3.12378 0,0.306347 0.415414,0.231789 2.722846,-0.488684 z"
       id="path2"
       sodipodi:nodetypes="csscsssssscssssscccssssssscscsssscsssscssssssscccssscssssscssssssscsss" /></g></svg>
