<?xml version="1.0" encoding="UTF-8" standalone="no"?>
<!-- Created with Inkscape (http://www.inkscape.org/) -->

<svg
   width="100mm"
   height="100mm"
   viewBox="0 0 100 100"
   version="1.1"
   id="svg1"
   inkscape:version="1.4 (86a8ad7, 2024-10-11)"
   sodipodi:docname="boulder2.svg"
   xml:space="preserve"
   xmlns:inkscape="http://www.inkscape.org/namespaces/inkscape"
   xmlns:sodipodi="http://sodipodi.sourceforge.net/DTD/sodipodi-0.dtd"
   xmlns="http://www.w3.org/2000/svg"
   xmlns:svg="http://www.w3.org/2000/svg"><sodipodi:namedview
     id="namedview1"
     pagecolor="#ffffff"
     bordercolor="#000000"
     borderopacity="0.25"
     inkscape:showpageshadow="2"
     inkscape:pageopacity="0.0"
     inkscape:pagecheckerboard="true"
     inkscape:deskcolor="#d1d1d1"
     inkscape:document-units="mm"
     inkscape:zoom="1.0167041"
     inkscape:cx="138.19163"
     inkscape:cy="195.23871"
     inkscape:window-width="1920"
     inkscape:window-height="1009"
     inkscape:window-x="1912"
     inkscape:window-y="-8"
     inkscape:window-maximized="1"
     inkscape:current-layer="layer1" /><defs
     id="defs1" /><g
     inkscape:label="Warstwa 1"
     inkscape:groupmode="layer"
     id="layer1"><path
       style="fill:#53535f;fill-opacity:1;stroke-width:1.19218"
       d="m 27.383476,72.597147 c 0.178983,-1.158245 1.31347,-7.825427 2.521084,-14.815958 1.207615,-6.990533 2.195663,-12.841477 2.195663,-13.002098 0,-0.160623 1.426268,-0.938741 3.169489,-1.729153 3.549363,-1.609361 3.293974,-1.087598 4.334296,-8.854796 0.337673,-2.521048 0.738509,-4.764444 0.89075,-4.985326 0.750312,-1.08854 6.541561,-4.013494 8.946156,-4.518383 1.808515,-0.379731 3.223254,-1.055743 4.211799,-2.012539 1.418517,-1.372971 1.622547,-1.422508 4.337288,-1.053102 1.566813,0.213201 2.967018,0.505901 3.111558,0.650443 0.14454,0.144542 0.695638,3.47081 1.224645,7.391705 1.717099,12.726663 2.487952,17.893967 2.727128,18.280958 0.129041,0.208785 1.683944,0.891269 3.455359,1.516629 2.871418,1.013698 3.249661,1.301959 3.487335,2.657768 0.277873,1.585071 1.370746,9.250143 2.230285,15.642669 0.274846,2.043963 0.61854,4.440973 0.763772,5.32669 l 0.264068,1.610394 H 51.156105 27.058055 Z"
       id="path5" /><path
       style="fill:#3e3e48;fill-opacity:1;stroke-width:1.19218"
       d="m 50.892085,74.326667 -23.573891,-0.128628 0.197044,-1.605643 c 0.108381,-0.883103 0.739192,-4.43122 1.401815,-7.884703 1.775054,-9.251285 3.18317,-17.684239 3.18317,-19.063437 0,-1.130636 0.124711,-1.18915 1.858147,-0.871862 1.021988,0.187064 2.829216,0.628348 4.016092,0.980633 1.861544,0.55254 2.388989,0.530332 3.840172,-0.161684 0.925229,-0.441211 1.682228,-0.963406 1.682228,-1.160434 0,-0.197028 -1.023833,-0.991896 -2.275183,-1.766373 l -2.275171,-1.408141 0.293765,-3.314015 c 0.161565,-1.822708 0.516465,-3.899768 0.788652,-4.615687 0.272199,-0.71592 0.494899,-1.966194 0.494899,-2.778386 0,-1.397101 0.08679,-1.460576 1.610399,-1.177377 8.311902,1.545003 9.031277,1.609118 10.164207,0.905885 1.24856,-0.774995 1.310744,-0.687341 2.625256,3.700116 0.342203,1.142159 0.809873,2.076652 1.03926,2.076652 0.229388,0 0.417073,-2.070926 0.417073,-4.602057 v -4.602058 l 2.400696,-2.364593 2.400685,-2.364594 0.603935,5.356256 c 0.332166,2.945942 1.128209,8.700922 1.768995,12.788846 l 1.165048,7.432589 -3.302546,3.055451 -3.302546,3.05545 1.982026,0.79722 c 1.090119,0.438471 2.36921,1.014574 2.842435,1.280228 0.473225,0.265653 1.065977,0.483006 1.317218,0.483006 0.490988,0 6.019015,-4.334133 6.590666,-5.167264 0.637758,-0.929486 0.921903,0.05304 1.654093,5.719595 0.400919,3.102821 1.079914,7.915188 1.508885,10.694148 0.42897,2.77896 0.707142,5.454692 0.618158,5.946071 -0.153601,0.848241 -1.353818,0.886913 -23.735682,0.76479 z"
       id="path4" /></g></svg>
