<?xml version="1.0" encoding="UTF-8" standalone="no"?>
<!-- Created with Inkscape (http://www.inkscape.org/) -->

<svg
   width="100mm"
   height="100mm"
   viewBox="0 0 100 100"
   version="1.1"
   id="svg1"
   inkscape:version="1.4 (86a8ad7, 2024-10-11)"
   sodipodi:docname="boulder3.svg"
   xml:space="preserve"
   xmlns:inkscape="http://www.inkscape.org/namespaces/inkscape"
   xmlns:sodipodi="http://sodipodi.sourceforge.net/DTD/sodipodi-0.dtd"
   xmlns="http://www.w3.org/2000/svg"
   xmlns:svg="http://www.w3.org/2000/svg"><sodipodi:namedview
     id="namedview1"
     pagecolor="#ffffff"
     bordercolor="#000000"
     borderopacity="0.25"
     inkscape:showpageshadow="2"
     inkscape:pageopacity="0.0"
     inkscape:pagecheckerboard="true"
     inkscape:deskcolor="#d1d1d1"
     inkscape:document-units="mm"
     inkscape:zoom="1.4378367"
     inkscape:cx="143.61853"
     inkscape:cy="146.40049"
     inkscape:window-width="1920"
     inkscape:window-height="1009"
     inkscape:window-x="1912"
     inkscape:window-y="-8"
     inkscape:window-maximized="1"
     inkscape:current-layer="layer1" /><defs
     id="defs1" /><g
     inkscape:label="Warstwa 1"
     inkscape:groupmode="layer"
     id="layer1"><path
       style="fill:#53535f;fill-opacity:1"
       d="m 23.513987,73.150108 c 0.73457,-3.201588 4.68368,-19.288673 5.12991,-20.897171 0.36578,-1.318526 1.21885,-2.289997 3.39566,-3.866982 2.83046,-2.050521 2.91578,-2.179939 3.23438,-4.905925 0.35252,-3.016157 2.76537,-18.040063 2.91735,-18.165197 0.77844,-0.640965 8.45476,-4.143405 9.09362,-4.149112 0.48135,-0.0043 3.56196,0.925517 6.8458,2.06626 l 5.97063,2.074078 1.33857,7.440143 c 0.73621,4.092079 1.71619,9.214662 2.17772,11.383518 l 0.83915,3.943375 2.26956,1.077515 c 2.16372,1.027264 2.29696,1.211851 2.85683,3.958052 0.32299,1.584295 1.43013,6.937426 2.46031,11.895846 1.03018,4.958421 1.76318,9.125189 1.62889,9.259484 -0.1343,0.134296 -11.54498,0.244174 -25.35708,0.244174 h -25.11289 z"
       id="path7" /><path
       style="fill:#3e3e48;fill-opacity:1"
       d="m 23.844537,72.903189 c 0.13455,-0.611126 0.81371,-3.333414 1.50925,-6.04953 0.69554,-2.716115 1.73154,-7.049553 2.30224,-9.629863 0.57069,-2.580309 1.12442,-4.947625 1.2305,-5.260702 0.1217,-0.3592 1.79975,0.251723 4.5479,1.655748 2.39527,1.223737 4.52288,2.381082 4.72802,2.571876 0.20513,0.190795 0.9342,3.55692 1.62013,7.480277 0.68594,3.923358 1.44465,7.855617 1.68603,8.738355 l 0.43888,1.604977 h -9.15379 -9.15379 z m 22.37656,0 c -0.12615,-0.611126 -0.35948,-2.222276 -0.51852,-3.580334 -0.15903,-1.358058 -0.75884,-5.404492 -1.33291,-8.992076 l -1.04376,-6.522881 -4.10653,-4.094661 -4.10653,-4.094661 0.89754,-4.691472 c 0.49364,-2.580309 1.18282,-6.802634 1.5315,-9.382943 0.34868,-2.58031 0.76926,-4.940765 0.93461,-5.245456 0.19718,-0.363323 2.16989,0.361013 5.73192,2.104632 4.31327,2.111352 5.50018,2.916278 5.76604,3.910342 0.18412,0.68845 0.49243,4.019247 0.68513,7.401772 0.19271,3.382524 0.53827,6.150045 0.76792,6.150045 0.48624,0 0.52999,-0.189297 1.9975,-8.642185 1.09847,-6.327224 1.14613,-6.453775 3.30117,-8.765645 1.20263,-1.290155 2.44336,-2.345736 2.75717,-2.345736 0.34514,0 1.02338,2.585139 1.71672,6.543369 0.63038,3.598852 1.47296,8.390246 1.87238,10.64754 0.39942,2.257294 0.59848,4.437058 0.44235,4.843919 -0.15612,0.406861 -1.73031,1.395598 -3.4982,2.197194 -4.36905,1.981024 -4.24426,2.561957 0.69099,3.216641 2.23469,0.296442 2.65318,0.177213 5.06787,-1.443866 1.44762,-0.971845 2.69912,-1.574677 2.7811,-1.339627 0.082,0.23505 0.67381,2.837295 1.31515,5.782766 0.64134,2.945471 1.52158,6.910995 1.95608,8.812276 0.4345,1.901281 0.97574,4.623569 1.20275,6.049529 l 0.41274,2.592656 h -7.86029 -7.86029 l 0.95797,-1.358058 c 2.27469,-3.224689 3.51644,-6.391127 3.2208,-8.212962 -0.15952,-0.983004 -0.38356,-1.78728 -0.49788,-1.78728 -0.11431,0 -1.69639,0.774739 -3.51572,1.721643 -3.26072,1.697103 -3.33232,1.778051 -5.02347,5.67915 l -1.71561,3.957507 h -2.34916 c -2.03898,0 -2.37944,-0.146714 -2.57853,-1.111138 z"
       id="path6" /></g></svg>
