<?xml version="1.0" encoding="UTF-8" standalone="no"?>
<!-- Created with Inkscape (http://www.inkscape.org/) -->

<svg
   width="100mm"
   height="100mm"
   viewBox="0 0 100 100"
   version="1.1"
   id="svg1"
   inkscape:version="1.4 (86a8ad7, 2024-10-11)"
   sodipodi:docname="boulder4.svg"
   xml:space="preserve"
   xmlns:inkscape="http://www.inkscape.org/namespaces/inkscape"
   xmlns:sodipodi="http://sodipodi.sourceforge.net/DTD/sodipodi-0.dtd"
   xmlns="http://www.w3.org/2000/svg"
   xmlns:svg="http://www.w3.org/2000/svg"><sodipodi:namedview
     id="namedview1"
     pagecolor="#ffffff"
     bordercolor="#000000"
     borderopacity="0.25"
     inkscape:showpageshadow="2"
     inkscape:pageopacity="0.0"
     inkscape:pagecheckerboard="true"
     inkscape:deskcolor="#d1d1d1"
     inkscape:document-units="mm"
     inkscape:zoom="1.4378367"
     inkscape:cx="282.71638"
     inkscape:cy="158.22381"
     inkscape:window-width="1920"
     inkscape:window-height="1009"
     inkscape:window-x="1912"
     inkscape:window-y="-8"
     inkscape:window-maximized="1"
     inkscape:current-layer="layer1" /><defs
     id="defs1" /><g
     inkscape:label="Warstwa 1"
     inkscape:groupmode="layer"
     id="layer1"><path
       style="fill:#53535f;fill-opacity:1"
       d="m 28.63668,72.643135 c -2.665532,-0.850044 -5.273969,-1.900367 -5.796528,-2.334052 -0.696951,-0.578418 -0.950106,-2.38419 -0.950106,-6.777165 0,-5.552222 0.147949,-6.219206 2.030166,-9.152387 1.724459,-2.687336 2.592129,-3.351061 5.762081,-4.407712 l 3.731915,-1.243972 1.486607,-7.243341 c 0.817634,-3.983838 1.503877,-7.587519 1.524983,-8.00818 0.02111,-0.420661 1.752491,-1.730954 3.847522,-2.911762 2.095033,-1.180809 4.405363,-2.521372 5.134063,-2.979031 1.09623,-0.688477 2.29348,-0.580405 6.93622,0.626111 l 5.6113,1.458216 1.70464,5.266724 c 4.52754,13.98842 4.65625,14.204147 8.48443,14.220083 1.3403,0.0056 2.75586,0.229159 3.14568,0.496845 0.38983,0.267686 2.53918,3.327523 4.77634,6.799638 l 4.06756,6.312936 -1.17547,3.799125 c -0.64651,2.089519 -1.45438,4.052926 -1.79526,4.363128 -0.34089,0.310201 -4.25809,1.067194 -8.70489,1.682205 -6.73135,0.930976 -8.55004,0.978899 -10.86202,0.286213 -1.5812,-0.473738 -2.90531,-1.322894 -3.07507,-1.972045 -0.27167,-1.03888 -0.56612,-1.059403 -3.31782,-0.231262 -2.59017,0.779525 -3.34626,0.772348 -5.31549,-0.05045 -2.21779,-0.92665 -2.42546,-0.880476 -6.11185,1.358886 -2.09883,1.274971 -4.373272,2.288577 -5.054317,2.252456 -0.681045,-0.03612 -3.419154,-0.761164 -6.084686,-1.611207 z"
       id="path9" /><path
       style="fill:#3e3e48;fill-opacity:1"
       d="m 29.649861,72.676215 c -7.380937,-2.156064 -7.584485,-2.422032 -7.230512,-9.447827 0.160749,-3.190611 0.388043,-5.907841 0.505097,-6.038289 0.117055,-0.130448 1.975942,0.833858 4.13086,2.142902 l 3.918033,2.380079 4.380299,-2.805361 c 2.409164,-1.542949 4.389869,-2.959536 4.401568,-3.147971 0.0117,-0.188434 -1.320564,-1.876525 -2.960582,-3.751312 l -2.981851,-3.408703 1.451976,-7.510515 c 0.798586,-4.130783 1.72976,-7.883148 2.069275,-8.338589 0.675962,-0.906768 2.066253,-1.16474 1.520807,-0.28219 -0.185556,0.300237 2.053638,1.711638 4.975992,3.136446 l 5.31336,2.590561 3.99187,-4.130137 c 3.95146,-4.088318 5.18931,-4.882249 5.18931,-3.328314 0,0.441003 1.24113,4.632477 2.75806,9.314386 l 2.75805,8.512562 -4.48123,4.515841 -4.48124,4.51584 4.53864,0.3395 4.53863,0.3395 2.17493,-2.411055 c 1.19621,-1.326079 2.6765,-3.230849 3.28952,-4.23282 0.61302,-1.001971 1.34667,-1.821766 1.63031,-1.821766 0.50574,0 7.62101,10.659401 8.30489,12.441553 0.19137,0.498704 -0.17971,2.649455 -0.82462,4.779448 l -1.17256,3.872714 -4.05139,0.700179 c -10.93469,1.88978 -18.95675,1.456953 -18.95675,-1.022802 0,-0.628469 -0.37406,-0.895493 -0.94665,-0.67577 -2.51946,0.966809 -5.81591,1.160631 -7.9214,0.465757 -2.1669,-0.715143 -2.58769,-0.603935 -6.018184,1.590525 -2.02861,1.297687 -3.906174,2.328596 -4.172364,2.290911 -0.266191,-0.03769 -2.805155,-0.746563 -5.642144,-1.575283 z M 66.152503,61.989438 c -1.0053,-1.005309 -1.31199,-0.92235 -4.16527,1.126719 -2.384,1.712059 -2.99813,2.516854 -2.71755,3.561209 0.19938,0.742103 0.36658,1.942251 0.37156,2.666997 0.007,1.031011 0.83448,0.492283 3.80276,-2.475997 3.51439,-3.514389 3.71381,-3.87362 2.7085,-4.878928 z"
       id="path8" /></g></svg>
