<?xml version="1.0" encoding="UTF-8" standalone="no"?>
<!-- Created with Inkscape (http://www.inkscape.org/) -->

<svg
   width="100mm"
   height="100mm"
   viewBox="0 0 100 100"
   version="1.1"
   id="svg1"
   inkscape:version="1.4 (86a8ad7, 2024-10-11)"
   sodipodi:docname="decor1.svg"
   xml:space="preserve"
   xmlns:inkscape="http://www.inkscape.org/namespaces/inkscape"
   xmlns:sodipodi="http://sodipodi.sourceforge.net/DTD/sodipodi-0.dtd"
   xmlns="http://www.w3.org/2000/svg"
   xmlns:svg="http://www.w3.org/2000/svg"><sodipodi:namedview
     id="namedview1"
     pagecolor="#ffffff"
     bordercolor="#000000"
     borderopacity="0.25"
     inkscape:showpageshadow="2"
     inkscape:pageopacity="0.0"
     inkscape:pagecheckerboard="true"
     inkscape:deskcolor="#d1d1d1"
     inkscape:document-units="mm"
     inkscape:zoom="1.0167041"
     inkscape:cx="178.02624"
     inkscape:cy="230.64725"
     inkscape:window-width="1920"
     inkscape:window-height="1009"
     inkscape:window-x="1912"
     inkscape:window-y="-8"
     inkscape:window-maximized="1"
     inkscape:current-layer="layer1" /><defs
     id="defs1" /><g
     inkscape:label="Warstwa 1"
     inkscape:groupmode="layer"
     id="layer1"><path
       style="fill:#b38255;fill-opacity:1;stroke-width:0.703124"
       d="m 74.430427,37.51146 c 0.02777,-0.04521 -0.0701,-0.0866 -0.217561,-0.09199 -0.357982,-0.01308 -0.887638,-0.43045 -1.117145,-0.880318 -0.240412,-0.471256 -0.238232,-1.079521 0.0076,-2.122215 0.255797,-1.084845 0.55435,-2.641525 0.55435,-2.890406 0,-0.174576 -0.0705,-0.205981 -0.584486,-0.26037 -0.321468,-0.03402 -0.921149,-0.12619 -1.332631,-0.204829 -2.196574,-0.419794 -2.86978,-0.979532 -2.668025,-2.218326 0.354923,-2.1793 2.420251,-4.037088 4.959211,-4.460878 0.796239,-0.132903 2.116868,-0.073 2.867375,0.130064 2.025623,0.548067 3.636389,2.044623 4.182787,3.886204 0.335742,1.131601 0.118849,1.703932 -0.814485,2.149237 -0.580218,0.276831 -1.933823,0.595992 -3.043269,0.717564 l -0.595068,0.06521 0.06413,0.57121 c 0.05941,0.529663 0.148233,0.983095 0.478174,2.441564 0.06982,0.308609 0.128419,0.881026 0.130226,1.272039 0.0035,0.828766 -0.162514,1.158318 -0.816742,1.618131 -0.353637,0.248543 -0.488672,0.283034 -1.250703,0.319467 -0.478631,0.02288 -0.832042,0.0047 -0.803727,-0.04136 z"
       id="path4-3" /><path
       style="fill:#8a512b;fill-opacity:1;stroke-width:0.703124"
       d="m 73.236859,31.282985 c -2.268897,-0.298837 -3.633759,-0.751284 -3.980181,-1.319416 -0.247057,-0.405176 -0.234365,-1.123669 0.03284,-1.859855 0.600545,-1.65448 2.049382,-2.946824 3.946143,-3.519911 0.599427,-0.18111 0.964461,-0.22726 1.824783,-0.230699 1.984335,-0.0079 3.272121,0.498247 4.592708,1.805227 0.887244,0.878104 1.286021,1.566671 1.493259,2.578425 0.134417,0.656237 0.08195,0.950374 -0.237177,1.329632 -0.787113,0.935436 -4.879815,1.584408 -7.672392,1.216597 z"
       id="path5-2" /><path
       style="fill:#b38255;fill-opacity:1;stroke-width:0.444987"
       d="m 70.195458,40.401266 c 0.01758,-0.02861 -0.04436,-0.05481 -0.137688,-0.05822 -0.226557,-0.0083 -0.561761,-0.27242 -0.707009,-0.557128 -0.15215,-0.298245 -0.150771,-0.683198 0.0048,-1.343089 0.161887,-0.686569 0.350833,-1.671746 0.350833,-1.829256 0,-0.110484 -0.04462,-0.130359 -0.369905,-0.164781 -0.203447,-0.02153 -0.582968,-0.07986 -0.843383,-0.12963 -1.390149,-0.265676 -1.816202,-0.619919 -1.688517,-1.403915 0.22462,-1.379217 1.531707,-2.554958 3.138543,-2.823163 0.503917,-0.08411 1.339705,-0.0462 1.81468,0.08232 1.281959,0.346855 2.301366,1.293983 2.647166,2.459466 0.212481,0.716159 0.07521,1.07837 -0.515465,1.360191 -0.367203,0.175199 -1.22386,0.377187 -1.925997,0.454125 l -0.376602,0.04127 0.04058,0.361503 c 0.0376,0.335209 0.09381,0.622173 0.302623,1.545196 0.04419,0.19531 0.08127,0.557577 0.08241,0.805038 0.0022,0.524502 -0.10285,0.733066 -0.516893,1.024069 -0.223806,0.157295 -0.309266,0.179124 -0.791534,0.202182 -0.302912,0.01448 -0.526576,0.003 -0.508656,-0.02618 z"
       id="path4-8" /><path
       style="fill:#8a512b;fill-opacity:1;stroke-width:0.444987"
       d="m 69.440083,36.459442 c -1.435919,-0.189125 -2.299702,-0.475466 -2.518943,-0.835021 -0.156355,-0.256424 -0.148323,-0.711138 0.02079,-1.17705 0.380069,-1.047072 1.296996,-1.86496 2.497403,-2.22765 0.379359,-0.11462 0.610379,-0.143826 1.154852,-0.146003 1.25583,-0.005 2.070832,0.315326 2.906594,1.142477 0.561511,0.555727 0.813886,0.9915 0.945041,1.631811 0.08506,0.415314 0.05186,0.601465 -0.150103,0.841486 -0.49814,0.592011 -3.088295,1.002727 -4.855637,0.76995 z"
       id="path5-5" /><path
       style="fill:#b38255;fill-opacity:1;stroke-width:0.772165"
       d="m 24.424153,60.50403 c 0.0305,-0.04965 -0.07699,-0.09511 -0.238923,-0.101023 -0.393132,-0.01436 -0.974797,-0.472716 -1.226839,-0.966758 -0.264019,-0.517529 -0.261625,-1.185521 0.0083,-2.330598 0.280914,-1.191368 0.608783,-2.900901 0.608783,-3.174221 0,-0.191717 -0.07742,-0.226205 -0.641878,-0.285935 -0.353033,-0.03736 -1.011597,-0.138581 -1.463484,-0.224941 -2.412259,-0.461015 -3.151568,-1.075715 -2.930003,-2.436148 0.389773,-2.393289 2.6579,-4.433497 5.446165,-4.898898 0.874422,-0.145954 2.324726,-0.08017 3.148927,0.142835 2.224522,0.601881 3.993452,2.245388 4.593501,4.267796 0.368709,1.242715 0.130519,1.871244 -0.89446,2.360274 -0.637191,0.304014 -2.123709,0.654514 -3.342092,0.788023 l -0.653499,0.07161 0.07042,0.627298 c 0.06525,0.581671 0.162788,1.079626 0.525127,2.681305 0.07668,0.338912 0.141028,0.967536 0.143012,1.396943 0.0039,0.910144 -0.17847,1.272055 -0.896939,1.777018 -0.38836,0.272947 -0.536654,0.310825 -1.373511,0.350836 -0.525629,0.02513 -0.913742,0.0052 -0.882647,-0.04542 z"
       id="path4-89" /><path
       style="fill:#8a512b;fill-opacity:1;stroke-width:0.772165"
       d="m 23.113388,53.663971 c -2.491684,-0.32818 -3.990564,-0.825054 -4.371002,-1.448972 -0.271316,-0.444961 -0.257378,-1.234004 0.03606,-2.042478 0.659514,-1.816935 2.250614,-3.236176 4.333621,-3.865536 0.658286,-0.198894 1.059164,-0.249575 2.003962,-0.253352 2.17918,-0.0087 3.593416,0.54717 5.043673,1.982485 0.974364,0.964327 1.412298,1.720505 1.639885,2.831606 0.147615,0.720674 0.09,1.043692 -0.260466,1.46019 -0.8644,1.027288 -5.358972,1.739983 -8.425756,1.336057 z"
       id="path5-27" /></g></svg>
