<?xml version="1.0" encoding="UTF-8" standalone="no"?>
<!-- Created with Inkscape (http://www.inkscape.org/) -->

<svg
   width="100mm"
   height="100mm"
   viewBox="0 0 100 100"
   version="1.1"
   id="svg1"
   inkscape:version="1.4 (86a8ad7, 2024-10-11)"
   sodipodi:docname="decor7.svg"
   xml:space="preserve"
   xmlns:inkscape="http://www.inkscape.org/namespaces/inkscape"
   xmlns:sodipodi="http://sodipodi.sourceforge.net/DTD/sodipodi-0.dtd"
   xmlns="http://www.w3.org/2000/svg"
   xmlns:svg="http://www.w3.org/2000/svg"><sodipodi:namedview
     id="namedview1"
     pagecolor="#ffffff"
     bordercolor="#000000"
     borderopacity="0.25"
     inkscape:showpageshadow="2"
     inkscape:pageopacity="0.0"
     inkscape:pagecheckerboard="true"
     inkscape:deskcolor="#d1d1d1"
     inkscape:document-units="mm"
     inkscape:zoom="1.243451"
     inkscape:cx="340.98649"
     inkscape:cy="203.8681"
     inkscape:window-width="1920"
     inkscape:window-height="1009"
     inkscape:window-x="1912"
     inkscape:window-y="-8"
     inkscape:window-maximized="1"
     inkscape:current-layer="layer1" /><defs
     id="defs1" /><g
     inkscape:label="Warstwa 1"
     inkscape:groupmode="layer"
     id="layer1"><path
       style="fill:#6c6f6d;fill-opacity:1;stroke-width:1.28742"
       d="m 58.59716,73.031482 c -1.340484,-0.35672 -2.970483,-0.838378 -3.622212,-1.07035 -1.536816,-0.547001 -1.837338,-0.531806 -2.0029,0.101269 -0.295359,1.12947 -3.574128,1.337192 -4.846315,0.307032 -0.471826,-0.382054 -0.516512,-0.556862 -0.263315,-1.029967 0.292836,-0.547163 0.232366,-0.576196 -1.521071,-0.730325 -5.636107,-0.495416 -8.259645,-1.078314 -9.116923,-2.025597 -0.620934,-0.68612 -0.293737,-1.277783 1.161804,-2.100881 2.838459,-1.605128 4.574323,-2.844066 4.858417,-3.467582 0.345517,-0.758319 2.143022,-1.766302 3.149795,-1.766302 0.46862,0 1.141167,-0.466484 2.149008,-1.490554 0.988261,-1.004176 1.763324,-1.546021 2.37526,-1.66054 0.499582,-0.09349 1.955458,-0.753617 3.235292,-1.466941 3.872809,-2.158555 5.537774,-2.76488 7.963629,-2.900088 1.734215,-0.09666 2.517609,-0.0032 3.926661,0.468525 1.99381,0.667469 6.545783,3.00289 8.89738,4.564866 0.865427,0.574835 2.050855,1.121105 2.634274,1.21393 0.953577,0.151717 2.242694,1.148302 2.584182,1.997769 0.05575,0.138764 1.198186,0.910804 2.538671,1.715641 3.090998,1.855862 5.009881,3.713503 5.009881,4.849984 0,1.11824 -0.820188,1.599145 -3.633104,2.130193 -1.94646,0.367472 -2.31506,0.522138 -2.441098,1.024273 -0.267397,1.065421 -1.879668,1.603757 -4.803097,1.603757 -2.252594,0 -2.727419,-0.08108 -3.403867,-0.581263 L 72.641415,72.137067 69.68136,72.9102 c -3.931966,1.026985 -7.532679,1.066383 -11.0842,0.121274 z"
       id="path24" /><path
       style="fill:#5a321f;fill-opacity:1;stroke-width:1.28742"
       d="m 61.305204,73.530063 c -0.446824,-0.07166 -2.38543,-0.553185 -4.308007,-1.07005 -2.706731,-0.727677 -3.707852,-1.126128 -4.436183,-1.765614 -0.878546,-0.771373 -1.040992,-0.814964 -2.462121,-0.660708 -3.819715,0.414608 -4.955887,0.4244 -7.656811,0.06598 -1.751029,-0.232365 -3.380604,-0.62254 -4.144505,-0.992336 -1.895362,-0.917528 -1.655323,-1.408653 1.67229,-3.421663 2.54337,-1.538582 2.780075,-1.630034 2.937256,-1.134812 0.214239,0.674997 1.6765,1.302923 3.02122,1.297369 1.572169,-0.0064 3.97279,-0.653336 4.915205,-1.324389 1.140703,-0.812254 1.186368,-2.149166 0.10338,-3.026936 -0.501063,-0.406116 -0.574278,-0.542324 -0.223792,-0.41632 0.795881,0.286126 2.876979,-0.115455 3.421826,-0.660297 0.712019,-0.712028 0.363773,-1.586413 -0.847905,-2.128899 -1.222468,-0.54731 -1.354479,-0.431851 2.977242,-2.603921 3.587195,-1.798738 5.5722,-2.247256 8.059838,-1.821141 1.970868,0.337595 6.189554,2.251986 9.515507,4.318021 l 1.983047,1.231844 -0.895978,0.74799 c -0.805884,0.672784 -0.868762,0.825335 -0.62544,1.517227 0.409939,1.165653 1.84774,2.004613 3.435486,2.004613 1.485512,0 2.379392,-0.359649 2.379392,-0.957346 0,-0.218173 0.04841,-0.396679 0.107628,-0.396679 0.524558,0 5.2518,3.287068 6.227752,4.330429 1.877402,2.007104 1.599835,2.848985 -1.190127,3.609617 -2.794005,0.761733 -3.159258,0.768613 -3.618222,0.06816 -0.544565,-0.831113 -2.532582,-1.779692 -3.729867,-1.779692 -2.422404,0 -5.379743,1.604872 -5.379743,2.919453 0,1.108097 -8.005908,2.568527 -11.238407,2.050099 z m -4.799337,-7.015944 c 1.26566,-0.886502 0.224191,-2.01568 -1.859108,-2.01568 -1.885564,0 -3.250046,1.221585 -2.359347,2.112277 0.481894,0.481904 3.49091,0.413001 4.218455,-0.0966 z M 72.40045,63.048172 c 0.624358,-0.456538 0.399176,-1.152747 -0.506277,-1.565299 -0.87032,-0.396543 -1.963595,-0.105208 -2.355884,0.627783 -0.258655,0.48329 -0.227551,0.647091 0.179337,0.944619 0.636397,0.465342 2.041806,0.461622 2.682824,-0.0071 z M 47.806943,60.640926 c 0.06797,-0.110911 0.336556,-0.315621 0.596834,-0.45492 0.3484,-0.186454 0.551349,-0.128201 0.769309,0.220797 0.260135,0.416549 0.187718,0.471746 -0.596834,0.454919 -0.491085,-0.01056 -0.837272,-0.109894 -0.769309,-0.220796 z"
       id="path16"
       sodipodi:nodetypes="cssssssscsssssssscssssssssssccssssssssssssssss" /></g></svg>
