<?xml version="1.0" encoding="UTF-8" standalone="no"?>
<!-- Created with Inkscape (http://www.inkscape.org/) -->

<svg
   width="100mm"
   height="100mm"
   viewBox="0 0 100 100"
   version="1.1"
   id="svg1"
   inkscape:version="1.4 (86a8ad7, 2024-10-11)"
   sodipodi:docname="decor6.svg"
   xml:space="preserve"
   xmlns:inkscape="http://www.inkscape.org/namespaces/inkscape"
   xmlns:sodipodi="http://sodipodi.sourceforge.net/DTD/sodipodi-0.dtd"
   xmlns="http://www.w3.org/2000/svg"
   xmlns:svg="http://www.w3.org/2000/svg"><sodipodi:namedview
     id="namedview1"
     pagecolor="#ffffff"
     bordercolor="#000000"
     borderopacity="0.25"
     inkscape:showpageshadow="2"
     inkscape:pageopacity="0.0"
     inkscape:pagecheckerboard="true"
     inkscape:deskcolor="#d1d1d1"
     inkscape:document-units="mm"
     inkscape:zoom="1.243451"
     inkscape:cx="340.98649"
     inkscape:cy="203.8681"
     inkscape:window-width="1920"
     inkscape:window-height="1009"
     inkscape:window-x="1912"
     inkscape:window-y="-8"
     inkscape:window-maximized="1"
     inkscape:current-layer="layer1" /><defs
     id="defs1" /><g
     inkscape:label="Warstwa 1"
     inkscape:groupmode="layer"
     id="layer1"><path
       style="fill:#6c6f6d;fill-opacity:1;stroke-width:1.07366"
       d="m 64.15498,40.477323 c -0.621072,-0.0995 -1.993063,-0.441795 -3.048872,-0.760654 -2.886533,-0.871746 -4.264344,-1.08308 -8.46909,-1.299013 -3.844767,-0.197447 -6.264665,-0.632264 -6.871779,-1.234751 -0.480561,-0.476892 -0.0086,-1.319461 1.160244,-2.069067 2.005056,-1.286464 2.766262,-2.025849 3.908468,-3.79641 1.33714,-2.072742 2.031575,-2.737949 4.800704,-4.59869 4.8712,-3.273245 7.283228,-4.141533 11.456268,-4.12406 3.754387,0.01572 6.922811,1.110315 10.841275,3.745326 0.869034,0.584387 1.858157,1.207511 2.198068,1.384719 1.119981,0.583888 2.177615,1.680136 4.134238,4.285145 1.351173,1.798928 2.233853,2.748727 2.937973,3.161368 0.553581,0.324422 1.212917,0.852259 1.465185,1.17297 0.414735,0.527245 0.425064,0.616725 0.107839,0.933956 -0.28101,0.281009 -1.215366,0.381332 -4.694132,0.504015 -4.987049,0.175875 -5.860012,0.306596 -11.173863,1.673198 -4.081886,1.04977 -6.683094,1.353488 -8.752526,1.021948 z"
       id="path17" /><path
       style="fill:#6c6f6d;fill-opacity:1;stroke-width:0.992677"
       d="m 46.180623,86.809366 c 1.218641,-0.215038 3.919885,-1.120742 5.677967,-1.903776 2.423122,-1.079242 4.367631,-1.530377 7.960099,-1.846781 3.347342,-0.294816 5.61067,-1.074311 6.163599,-2.122749 0.438374,-0.831249 -0.01264,-1.432581 -1.872987,-2.497358 -0.957906,-0.548249 -2.604111,-1.924466 -3.980064,-3.327298 -3.031449,-3.090673 -3.670771,-3.522897 -6.654124,-4.498587 -1.727243,-0.564887 -3.234431,-1.307286 -4.953717,-2.44006 -3.610695,-2.378957 -4.95334,-2.946484 -7.009764,-2.962985 -1.949842,-0.01565 -3.602012,0.627185 -6.194871,2.410321 -1.77174,1.21844 -3.565287,2.178433 -4.069943,2.178433 -0.194785,0 -0.98649,0.190566 -1.759354,0.423479 -1.237344,0.372895 -1.826932,0.842249 -4.935858,3.929319 -1.94186,1.928211 -4.270463,4.008767 -5.17467,4.623458 -0.904209,0.61469 -1.77993,1.420331 -1.946049,1.790313 -0.730856,1.627825 2.365979,2.644774 9.065221,2.97686 3.865274,0.191604 4.372551,0.278371 6.909133,1.181782 4.705736,1.675958 7.357651,2.276871 9.8708,2.236675 1.23902,-0.01982 2.546082,-0.08779 2.904582,-0.151046 z"
       id="path20"
       sodipodi:nodetypes="sssssssssssssssssss" /><path
       style="fill:#5a321f;fill-opacity:1;stroke-width:0.992677"
       d="m 45.659176,86.805806 c 1.369419,-0.159 3.745547,-0.945492 6.614359,-2.189336 2.142576,-0.928967 3.007379,-1.154423 5.212249,-1.358845 4.313456,-0.399917 6.617817,-0.909146 7.618256,-1.683519 1.424722,-1.102778 1.232629,-1.749667 -0.868431,-2.924563 -1.166671,-0.652398 -2.770497,-1.985411 -4.758166,-3.954735 l -2.998306,-2.970626 -2.607228,-0.869371 c -1.732823,-0.577809 -3.481603,-1.422023 -5.214429,-2.517254 -3.771749,-2.383917 -4.743083,-2.826935 -6.510379,-2.969316 -2.104463,-0.169545 -3.278386,0.195983 -5.891495,1.834461 -3.133679,1.964887 -4.909666,2.860408 -5.672735,2.860408 -1.410036,0 -3.0499,1.159784 -6.212895,4.394047 -1.742956,1.782234 -3.678815,3.560819 -4.301906,3.952411 -1.408579,0.885243 -2.827593,2.229963 -2.827593,2.679553 0,1.132796 3.790176,2.099328 9.192298,2.344128 3.892945,0.17641 4.061567,0.209268 8.250784,1.607801 5.548042,1.852158 7.50826,2.167341 10.975617,1.764756 z m -0.748258,-7.404911 c -3.493608,-0.782127 -4.034044,-1.142804 -3.76693,-2.513979 0.266394,-1.367497 1.607591,-2.482407 4.1241,-3.428287 3.089277,-1.161165 4.208067,-1.138757 6.74803,0.135152 2.28542,1.146244 4.071932,2.977275 4.071932,4.173397 0,1.021587 -0.903455,1.574012 -3.504193,2.142645 -2.429211,0.531132 -3.278946,0.474771 -7.672939,-0.508928 z"
       id="path19"
       sodipodi:nodetypes="sssssscssssssssssssssssss" /><path
       style="fill:#5a321f;fill-opacity:1;stroke-width:1.07366"
       d="M 62.574075,40.005467 C 61.70459,39.773871 60.482063,39.437216 59.857362,39.257343 58.40549,38.839298 55.559638,38.49407 51.281969,38.217069 c -2.015825,-0.130534 -3.827127,-0.371363 -4.472925,-0.594716 -0.962808,-0.332987 -1.077507,-0.442309 -1.016298,-0.968628 0.04832,-0.415404 0.406951,-0.830953 1.196201,-1.386012 1.648009,-1.159007 3.511363,-3.111528 4.344697,-4.552619 0.522842,-0.904169 1.225856,-1.638391 2.484265,-2.594577 6.286149,-4.776456 10.633209,-6.16646 16.208969,-5.182949 2.698137,0.475927 5.19564,1.614554 8.694924,3.964084 0.683172,0.458703 1.692985,1.130805 2.244032,1.493559 0.551036,0.362755 1.313251,1.109915 1.693811,1.660356 1.37765,1.992647 3.901747,4.878438 4.547878,5.199572 0.977721,0.485945 1.67718,1.164161 1.67718,1.62625 0,0.539465 -0.347459,0.594339 -4.629765,0.731165 -3.911421,0.124976 -6.413121,0.478893 -9.937057,1.405799 -5.939828,1.562359 -8.709955,1.795199 -11.743806,0.987114 z m -0.45168,-5.978394 c 0.869496,-0.307371 1.855591,-0.561001 2.191337,-0.56362 0.928203,-0.0072 1.75763,-0.472556 2.131673,-1.195879 0.32357,-0.625706 0.300239,-0.712174 -0.589324,-2.184447 l -0.926217,-1.532952 -1.968336,-0.538153 c -2.195267,-0.600196 -2.62397,-0.592942 -4.166191,0.0705 -1.458153,0.627281 -4.012817,3.316255 -4.012817,4.223789 0,0.71395 0.01911,0.72483 2.935954,1.675155 2.18439,0.711679 2.510193,0.715053 4.403921,0.04561 z"
       id="path32"
       sodipodi:nodetypes="sssssssssssssssssscsscsssss" /></g></svg>
