<?xml version="1.0" encoding="UTF-8" standalone="no"?>
<!-- Created with Inkscape (http://www.inkscape.org/) -->

<svg
   width="100mm"
   height="100mm"
   viewBox="0 0 100 100"
   version="1.1"
   id="svg1"
   inkscape:version="1.4 (86a8ad7, 2024-10-11)"
   sodipodi:docname="decor4.svg"
   xml:space="preserve"
   xmlns:inkscape="http://www.inkscape.org/namespaces/inkscape"
   xmlns:sodipodi="http://sodipodi.sourceforge.net/DTD/sodipodi-0.dtd"
   xmlns="http://www.w3.org/2000/svg"
   xmlns:svg="http://www.w3.org/2000/svg"><sodipodi:namedview
     id="namedview1"
     pagecolor="#ffffff"
     bordercolor="#000000"
     borderopacity="0.25"
     inkscape:showpageshadow="2"
     inkscape:pageopacity="0.0"
     inkscape:pagecheckerboard="true"
     inkscape:deskcolor="#d1d1d1"
     inkscape:document-units="mm"
     inkscape:zoom="1.4378367"
     inkscape:cx="176.65428"
     inkscape:cy="185.34789"
     inkscape:window-width="1920"
     inkscape:window-height="1009"
     inkscape:window-x="1912"
     inkscape:window-y="-8"
     inkscape:window-maximized="1"
     inkscape:current-layer="layer1" /><defs
     id="defs1" /><g
     inkscape:label="Warstwa 1"
     inkscape:groupmode="layer"
     id="layer1"><path
       style="fill:#b38255;fill-opacity:1;stroke-width:0.671263"
       d="m 82.546321,42.557877 c -0.208394,-0.07042 -0.337517,-0.171872 -0.337517,-0.265213 0,-0.08314 0.245349,-0.40939 0.545226,-0.724991 0.717488,-0.755121 1.3747,-1.573301 1.687984,-2.101415 l 0.253146,-0.42674 -0.230618,-0.06672 c -0.126839,-0.0367 -0.413195,-0.117135 -0.636336,-0.178746 -0.223149,-0.06162 -0.537979,-0.207887 -0.699627,-0.325058 -0.266042,-0.192837 -0.283226,-0.236863 -0.181214,-0.464336 0.136965,-0.305438 0.810523,-0.779293 1.561335,-1.098419 0.464714,-0.197524 0.675446,-0.236379 1.283011,-0.23656 1.085923,-3.23e-4 1.453681,0.189536 2.079388,1.073501 0.281498,0.397692 0.51504,0.843078 0.544207,1.037853 0.04743,0.316573 0.02954,0.347727 -0.247725,0.431655 -0.182083,0.05512 -0.713742,0.07684 -1.360919,0.05561 l -1.062093,-0.03485 -0.120011,0.289413 c -0.143931,0.347084 -0.964428,1.633786 -1.471557,2.307702 -0.651745,0.866082 -0.88435,0.971379 -1.60668,0.727321 z"
       id="path15" /><path
       style="fill:#b38255;fill-opacity:1;stroke-width:0.671263"
       d="m 78.012828,37.697591 c -0.343509,-0.07608 -0.477612,-0.314501 -0.690193,-1.227121 -0.237508,-1.019622 -0.236564,-3.630002 0.0015,-4.872288 0.09305,-0.485055 0.169185,-0.925962 0.169185,-0.979795 0,-0.05565 -0.212848,-0.120318 -0.493303,-0.149886 -1.891741,-0.199445 -2.429833,-0.471854 -2.201561,-1.114542 0.118686,-0.334138 1.68385,-1.870694 2.381108,-2.337588 0.90024,-0.602807 1.754906,-0.763381 2.546578,-0.478448 0.550038,0.197962 0.836607,0.450218 1.654934,1.456768 0.839667,1.032794 0.990466,1.366468 0.747728,1.654464 -0.307316,0.364599 -1.53063,0.741924 -2.672953,0.824455 l -0.698857,0.05049 -0.136973,0.695438 c -0.07568,0.384254 -0.13759,1.363742 -0.138343,2.188972 -0.0015,1.409542 0.01865,1.562949 0.354944,2.727872 0.351998,1.219411 0.353879,1.236189 0.15558,1.387529 -0.240964,0.183898 -0.625578,0.252086 -0.979624,0.173677 z"
       id="path14" /><path
       style="fill:#b38255;fill-opacity:1;stroke-width:0.671263"
       d="m 74.763374,41.337656 c -0.335889,-0.102469 -0.519258,-0.301724 -0.519258,-0.564252 0,-0.898217 -0.368801,-2.109594 -1.132791,-3.720791 -0.173699,-0.36632 -0.290306,-0.666035 -0.259137,-0.666035 0.03114,0 -0.01424,-0.05512 -0.100885,-0.122488 -0.127144,-0.09884 -0.243873,-0.107012 -0.604566,-0.04234 -0.72376,0.129771 -1.869319,0.10442 -2.148411,-0.04755 -0.219883,-0.119722 -0.238239,-0.180244 -0.202738,-0.668599 0.04865,-0.669469 0.456508,-1.342431 1.137907,-1.877589 0.394063,-0.309487 0.570694,-0.387571 0.986599,-0.436152 1.045793,-0.122156 2.066819,0.218369 3.255112,1.085626 0.611706,0.446439 0.667208,0.680138 0.237249,0.998914 -0.284232,0.210734 -1.161623,0.54505 -1.430453,0.54505 -0.277394,0 -0.267619,0.172485 0.03784,0.667809 0.668975,1.084694 0.903924,1.617308 1.423699,3.227454 0.399224,1.236706 0.419187,1.373986 0.218619,1.503387 -0.175017,0.112911 -0.692272,0.180559 -0.898816,0.11755 z"
       id="path3-6" /><path
       style="fill:#8a512b;fill-opacity:1;stroke-width:0.671263"
       d="m 76.680733,30.41542 c -0.744713,-0.07512 -1.31166,-0.201333 -1.653654,-0.368126 -0.263371,-0.128447 -0.320479,-0.5571 -0.114887,-0.862313 0.210549,-0.312569 1.396322,-1.454099 2.019715,-1.944355 0.98739,-0.776511 1.996738,-0.991718 2.924903,-0.623625 0.486261,0.192844 0.681141,0.37647 1.575709,1.484727 0.660029,0.817689 0.804463,1.122966 0.693665,1.466132 -0.120422,0.372989 -1.326682,0.775862 -2.693852,0.899705 l -0.605616,0.05485 0.03441,-0.348361 c 0.03,-0.303206 8e-6,-0.36361 -0.231135,-0.466013 -0.228844,-0.101381 -0.307399,-0.102055 -0.567968,-0.0049 -0.234044,0.08729 -0.322108,0.190332 -0.389616,0.455889 -0.04797,0.18871 -0.142896,0.338503 -0.21093,0.332872 -0.06806,-0.0056 -0.419384,-0.04006 -0.780762,-0.07652 z"
       id="path13" /><path
       style="fill:#8a512b;fill-opacity:1;stroke-width:0.671263"
       d="m 70.040808,36.131617 c -0.263058,-0.160852 -0.281635,-0.209717 -0.241923,-0.63645 0.08549,-0.918794 1.101599,-2.078949 1.982272,-2.263296 0.758371,-0.158744 1.706826,0.03236 2.49808,0.503353 1.666087,0.991724 1.760311,1.378266 0.449564,1.844315 -1.047566,0.372476 -1.077655,0.373545 -1.254468,0.04459 -0.180804,-0.336386 -0.511416,-0.383796 -0.869238,-0.124649 -0.18614,0.134807 -0.206628,0.198455 -0.120528,0.374488 0.05702,0.116643 0.08717,0.224947 0.06692,0.240677 -0.0857,0.06662 -1.182103,0.191203 -1.682753,0.191203 -0.399019,0 -0.618567,-0.0462 -0.827935,-0.174229 z"
       id="path12" /><path
       style="fill:#8a512b;fill-opacity:1;stroke-width:0.671263"
       d="m 86.077145,39.23052 c -0.186787,-0.02796 -0.22152,-0.07314 -0.172626,-0.224566 0.04545,-0.140867 0.0038,-0.213287 -0.160757,-0.281906 -0.406282,-0.169029 -0.874979,-0.02815 -0.997676,0.299875 -0.02307,0.06167 -1.403204,-0.416635 -1.58767,-0.55023 -0.331099,-0.239793 -0.274212,-0.441951 0.246035,-0.874314 0.698911,-0.580842 1.525613,-0.895277 2.353829,-0.895277 1.079673,0 1.479072,0.205342 2.099755,1.079544 0.601428,0.847085 0.676436,1.234808 0.270352,1.397481 -0.245966,0.09853 -1.518319,0.12917 -2.051242,0.0494 z"
       id="path2-0" /><path
       style="fill:#b38255;fill-opacity:1;stroke-width:0.817681"
       d="m 26.900074,86.608883 c -0.208606,-0.104385 -0.33786,-0.254769 -0.33786,-0.393131 0,-0.12324 0.245599,-0.606846 0.545781,-1.074667 0.718217,-1.11933 1.376097,-2.332134 1.689699,-3.114967 l 0.253403,-0.632565 -0.230852,-0.0989 c -0.126973,-0.0544 -0.413616,-0.173631 -0.636983,-0.264959 -0.223376,-0.09134 -0.538526,-0.308154 -0.700338,-0.481839 -0.266312,-0.285846 -0.283514,-0.351107 -0.181399,-0.688294 0.137097,-0.452757 0.811347,-1.155161 1.562923,-1.628207 0.465187,-0.292794 0.676133,-0.350389 1.284315,-0.350657 1.087027,-4.79e-4 1.455159,0.280952 2.081501,1.59127 0.281785,0.589507 0.515565,1.249711 0.544762,1.538429 0.04748,0.469262 0.02956,0.515442 -0.247977,0.63985 -0.182269,0.08171 -0.714469,0.113902 -1.362302,0.08243 l -1.063174,-0.05166 -0.120131,0.429003 c -0.144083,0.514489 -0.965409,2.421791 -1.473053,3.42075 -0.652407,1.283809 -0.885249,1.439893 -1.608314,1.078121 z"
       id="path11" /><path
       style="fill:#b38255;fill-opacity:1;stroke-width:0.827793"
       d="m 23.429928,84.439548 c 0.352415,-0.112774 0.489996,-0.46619 0.708088,-1.818984 0.243667,-1.511405 0.242698,-5.38082 -0.0015,-7.222284 -0.09546,-0.719006 -0.173572,-1.37257 -0.173572,-1.452368 0,-0.08249 0.218368,-0.17835 0.506093,-0.222179 1.940791,-0.295641 2.492835,-0.699438 2.258645,-1.652106 -0.121758,-0.495299 -1.727509,-2.772965 -2.442847,-3.465051 -0.92358,-0.893552 -1.800408,-1.131574 -2.612606,-0.709212 -0.564299,0.293443 -0.858299,0.667366 -1.697843,2.159394 -0.861438,1.53093 -1.016147,2.025541 -0.767116,2.452443 0.315285,0.540452 1.570316,1.099768 2.742258,1.222105 l 0.716977,0.07484 0.140524,1.03086 c 0.07764,0.569587 0.141161,2.021501 0.141932,3.244754 0.0015,2.089391 -0.01914,2.316789 -0.364146,4.043576 -0.361126,1.807556 -0.363054,1.832426 -0.159615,2.05676 0.247212,0.272596 0.641798,0.373672 1.005024,0.257445 z"
       id="path10" /><path
       style="fill:#b38255;fill-opacity:1;stroke-width:0.827793"
       d="m 19.550687,86.944848 c 0.262992,-0.269546 0.327263,-0.61378 0.181999,-0.974801 -0.497008,-1.235203 -0.816283,-3.042291 -0.980658,-5.550545 -0.03737,-0.570273 -0.09223,-1.027088 -0.121897,-1.015152 -0.02963,0.01192 -0.01688,-0.08128 0.02824,-0.207076 0.06633,-0.184614 0.172899,-0.240553 0.55198,-0.28975 0.760661,-0.09872 1.836942,-0.572285 2.018486,-0.888149 0.143033,-0.248845 0.127015,-0.339103 -0.176994,-0.99708 -0.416738,-0.902004 -1.177295,-1.671247 -2.121949,-2.14623 -0.546305,-0.274686 -0.757624,-0.314422 -1.18035,-0.221953 -1.062947,0.232515 -1.846309,1.091812 -2.497414,2.739512 -0.335177,0.848192 -0.258689,1.190823 0.326921,1.464536 0.387129,0.180945 1.407189,0.304679 1.663053,0.201727 0.264015,-0.106232 0.350153,0.134708 0.333503,0.932843 -0.03652,1.747834 0.03457,2.570247 0.430804,4.983528 0.304335,1.853572 0.361295,2.05 0.62379,2.151139 0.229053,0.08825 0.758793,-0.01682 0.920511,-0.182563 z"
       id="path3-6-6" /><path
       style="fill:#8a512b;fill-opacity:1;stroke-width:0.827793"
       d="m 24.796562,73.64505 c 0.764022,-0.111352 1.345669,-0.29844 1.69653,-0.54568 0.2702,-0.190399 0.328788,-0.8258 0.117874,-1.278223 -0.216008,-0.463327 -1.432526,-2.155438 -2.072083,-2.882153 -1.012992,-1.151037 -2.04851,-1.470043 -3.000741,-0.924411 -0.498868,0.285856 -0.698802,0.558048 -1.616563,2.200838 -0.677143,1.212076 -0.825323,1.664594 -0.711651,2.173275 0.123551,0.552889 1.36108,1.150075 2.763699,1.33365 l 0.621318,0.08131 -0.03531,-0.516382 c -0.03077,-0.449448 -7e-6,-0.538986 0.237128,-0.69078 0.234779,-0.150279 0.315369,-0.151278 0.582695,-0.0073 0.240112,0.129391 0.330459,0.282132 0.399718,0.675772 0.04921,0.279729 0.146601,0.50177 0.216399,0.493423 0.06982,-0.0083 0.430258,-0.05938 0.801007,-0.113427 z"
       id="path9" /><path
       style="fill:#8a512b;fill-opacity:1;stroke-width:0.827793"
       d="m 21.164843,77.977078 c 0.161368,-0.321941 0.15201,-0.396253 -0.12191,-0.967876 -0.589764,-1.230758 -2.198809,-2.43704 -3.139012,-2.353283 -0.809633,0.07213 -1.6066,0.698155 -2.09908,1.648872 -1.036986,2.001842 -0.91278,2.569488 0.592629,2.708416 1.203143,0.111039 1.232372,0.100986 1.218639,-0.419093 -0.01405,-0.53183 0.274385,-0.723639 0.758344,-0.5043 0.251754,0.114098 0.306472,0.193778 0.321932,0.468826 0.01028,0.182237 0.0415,0.342723 0.06948,0.356602 0.118427,0.05879 1.230889,-0.189766 1.707392,-0.381496 0.379775,-0.15281 0.563172,-0.300419 0.6916,-0.556664 z"
       id="path8" /><path
       style="fill:#8a512b;fill-opacity:1;stroke-width:0.817681"
       d="m 30.434487,81.676679 c -0.186976,-0.04145 -0.221745,-0.108417 -0.172801,-0.332878 0.0455,-0.20881 0.0038,-0.31616 -0.160921,-0.417875 -0.406695,-0.250555 -0.875868,-0.04173 -0.998691,0.444511 -0.02309,0.09141 -1.40463,-0.617586 -1.589283,-0.815617 -0.331436,-0.355449 -0.27449,-0.655112 0.246286,-1.296012 0.699621,-0.860993 1.527164,-1.327086 2.356221,-1.327086 1.080771,0 1.480577,0.304383 2.101891,1.600229 0.602038,1.25565 0.677123,1.830379 0.270626,2.071512 -0.246216,0.146053 -1.519862,0.191471 -2.053328,0.07323 z"
       id="path2-0-5" /></g></svg>
