<?xml version="1.0" encoding="UTF-8" standalone="no"?>
<!-- Created with Inkscape (http://www.inkscape.org/) -->

<svg
   width="100mm"
   height="100mm"
   viewBox="0 0 100 100"
   version="1.1"
   id="svg1"
   inkscape:version="1.4 (86a8ad7, 2024-10-11)"
   sodipodi:docname="decor5.svg"
   xml:space="preserve"
   xmlns:inkscape="http://www.inkscape.org/namespaces/inkscape"
   xmlns:sodipodi="http://sodipodi.sourceforge.net/DTD/sodipodi-0.dtd"
   xmlns="http://www.w3.org/2000/svg"
   xmlns:svg="http://www.w3.org/2000/svg"><sodipodi:namedview
     id="namedview1"
     pagecolor="#ffffff"
     bordercolor="#000000"
     borderopacity="0.25"
     inkscape:showpageshadow="2"
     inkscape:pageopacity="0.0"
     inkscape:pagecheckerboard="true"
     inkscape:deskcolor="#d1d1d1"
     inkscape:document-units="mm"
     inkscape:zoom="1.243451"
     inkscape:cx="326.51065"
     inkscape:cy="203.8681"
     inkscape:window-width="1920"
     inkscape:window-height="1009"
     inkscape:window-x="1912"
     inkscape:window-y="-8"
     inkscape:window-maximized="1"
     inkscape:current-layer="layer1" /><defs
     id="defs1" /><g
     inkscape:label="Warstwa 1"
     inkscape:groupmode="layer"
     id="layer1"><path
       style="fill:#5a321f;fill-opacity:1"
       d="m 39.76457,32.471304 c -0.76815,-0.265412 -1.89992,-0.957724 -2.55934,-1.565556 -1.55959,-1.437574 -3.0937,-1.844591 -7.7052,-2.044281 -5.87759,-0.254513 -7.54063,-0.839042 -7.54063,-2.650399 0,-1.198758 1.1612,-2.303294 4.00857,-3.812967 2.9198,-1.548078 3.49181,-1.989369 4.76575,-3.676693 1.22511,-1.62264 2.73365,-2.448598 5.55067,-3.039093 0.99775,-0.209148 2.41589,-0.767893 3.3029,-1.301345 3.33066,-2.003084 3.76298,-2.152741 6.18461,-2.140981 1.96389,0.0095 2.56757,0.137127 4.7625,1.006581 2.10651,0.834425 2.96343,1.025391 5.29167,1.179255 3.36858,0.222616 3.98858,0.514141 5.78061,2.718069 1.76601,2.171915 2.88142,3.032482 5.17159,3.990005 2.52249,1.05466 3.10171,1.502231 4.39386,3.395235 1.2862,1.884281 1.26451,2.456979 -0.13341,3.52323 -1.97301,1.504883 -3.00522,1.764474 -7.89088,1.98447 l -4.54365,0.204595 -2.11666,1.227428 c -2.53665,1.470972 -3.33811,1.654462 -4.86191,1.11311 -1.42361,-0.505758 -3.07055,-0.510222 -5.32455,-0.01443 -2.3444,0.515674 -4.87331,0.478443 -6.5365,-0.09623 z"
       id="path25" /><path
       style="fill:#5a321f;fill-opacity:1"
       d="m 68.663474,80.874411 c -0.29104,-0.13393 -0.97161,-0.25188 -1.51237,-0.26211 -0.54077,-0.0102 -1.39357,-0.21428 -1.89511,-0.45345 -0.84598,-0.40341 -0.99047,-0.40341 -1.99871,0 -2.25256,0.9013 -4.91357,0.44945 -6.75892,-1.14769 -1.29344,-1.11947 -1.60847,-1.1967 -5.89462,-1.44504 -2.3872,-0.13832 -4.04495,-0.58296 -4.41684,-1.1847 -0.10113,-0.16363 0.0189,-0.91992 0.26667,-1.68064 0.36688,-1.12629 0.87849,-1.80158 2.75519,-3.63669 2.18464,-2.13623 2.34298,-2.36865 3.04058,-4.46337 0.97241,-2.91987 1.89127,-3.81792 5.3272,-5.20652 2.16201,-0.87375 2.87958,-1.04112 4.46376,-1.04112 1.81154,0 2.03331,0.074 5.50317,1.83537 l 3.61555,1.83537 2.98556,0.18918 c 4.13959,0.26231 5.11891,0.71637 6.67416,3.0945 0.53403,0.81658 1.27188,1.49411 2.13555,1.96094 1.62728,0.87959 2.35781,1.75918 3.07217,3.699 0.30419,0.82603 0.83798,1.76952 1.18619,2.09664 0.34821,0.32713 0.63312,0.80051 0.63312,1.05195 0,0.58022 -1.27402,1.03809 -2.88848,1.03809 -0.9013,0 -1.49854,0.19096 -2.27563,0.72761 -0.97152,0.67092 -1.22562,0.72211 -3.26172,0.65713 -2.15035,-0.0686 -2.27334,-0.0385 -4.7003,1.14993 -2.58306,1.2649 -4.89875,1.71824 -6.05617,1.18562 z"
       id="path26" /></g></svg>
