<?xml version="1.0" encoding="UTF-8" standalone="no"?>
<!-- Created with Inkscape (http://www.inkscape.org/) -->

<svg
   width="100mm"
   height="100mm"
   viewBox="0 0 100 100"
   version="1.1"
   id="svg1"
   inkscape:version="1.4 (86a8ad7, 2024-10-11)"
   sodipodi:docname="decor3.svg"
   xml:space="preserve"
   xmlns:inkscape="http://www.inkscape.org/namespaces/inkscape"
   xmlns:sodipodi="http://sodipodi.sourceforge.net/DTD/sodipodi-0.dtd"
   xmlns="http://www.w3.org/2000/svg"
   xmlns:svg="http://www.w3.org/2000/svg"><sodipodi:namedview
     id="namedview1"
     pagecolor="#ffffff"
     bordercolor="#000000"
     borderopacity="0.25"
     inkscape:showpageshadow="2"
     inkscape:pageopacity="0.0"
     inkscape:pagecheckerboard="true"
     inkscape:deskcolor="#d1d1d1"
     inkscape:document-units="mm"
     inkscape:zoom="1.4378367"
     inkscape:cx="274.02277"
     inkscape:cy="144.31402"
     inkscape:window-width="1920"
     inkscape:window-height="1009"
     inkscape:window-x="1912"
     inkscape:window-y="-8"
     inkscape:window-maximized="1"
     inkscape:current-layer="layer1" /><defs
     id="defs1" /><g
     inkscape:label="Warstwa 1"
     inkscape:groupmode="layer"
     id="layer1"><path
       style="fill:#b38255;fill-opacity:1;stroke-width:0.6617"
       d="m 75.769817,33.666861 c 0.02614,-0.04255 -0.06597,-0.0815 -0.204743,-0.08657 -0.336891,-0.01231 -0.835343,-0.40509 -1.051328,-0.828454 -0.226248,-0.443492 -0.224197,-1.015921 0.0071,-1.997184 0.240727,-1.020932 0.521691,-2.4859 0.521691,-2.720118 0,-0.164291 -0.06634,-0.193845 -0.550051,-0.24503 -0.302529,-0.03201 -0.866879,-0.118756 -1.254119,-0.192761 -2.067163,-0.395063 -2.700707,-0.921824 -2.510839,-2.087634 0.334013,-2.050906 2.277663,-3.799244 4.66704,-4.198065 0.749328,-0.125074 1.992152,-0.0687 2.698443,0.122401 1.906284,0.515777 3.422151,1.924164 3.936358,3.657248 0.315962,1.064933 0.111847,1.603545 -0.766499,2.022615 -0.546035,0.260521 -1.819892,0.560879 -2.863975,0.675289 l -0.560009,0.06137 0.06035,0.537557 c 0.05591,0.498458 0.139499,0.925176 0.450002,2.297719 0.06571,0.290427 0.120852,0.829121 0.122553,1.197097 0.0033,0.779939 -0.152939,1.090076 -0.768623,1.522799 -0.332802,0.2339 -0.459882,0.266359 -1.177018,0.300646 -0.450432,0.02153 -0.783022,0.0044 -0.756376,-0.03892 z"
       id="path4-7" /><path
       style="fill:#8a512b;fill-opacity:1;stroke-width:0.6617"
       d="m 74.646569,27.805337 c -2.135225,-0.281231 -3.419676,-0.707023 -3.745689,-1.241683 -0.232501,-0.381305 -0.220558,-1.057468 0.0309,-1.750282 0.565164,-1.557006 1.928643,-2.773211 3.713656,-3.312535 0.564113,-0.17044 0.90764,-0.213871 1.717276,-0.217108 1.867429,-0.0075 3.079345,0.468893 4.322129,1.698872 0.834972,0.826371 1.210255,1.474371 1.405284,2.426518 0.126497,0.617575 0.07712,0.894382 -0.223204,1.251296 -0.74074,0.880325 -4.592321,1.491063 -7.220373,1.144922 z"
       id="path5-4" /><path
       style="fill:#b38255;fill-opacity:1;stroke-width:0.509809"
       d="m 16.279359,41.294333 c 0.02014,-0.03278 -0.05083,-0.06279 -0.157746,-0.0667 -0.259559,-0.0095 -0.643593,-0.312103 -0.81,-0.638286 -0.174314,-0.341691 -0.172734,-0.782721 0.0055,-1.53874 0.185468,-0.786582 0.401939,-1.915273 0.401939,-2.095728 0,-0.126579 -0.05111,-0.149349 -0.42379,-0.188785 -0.233085,-0.02466 -0.667891,-0.0915 -0.966242,-0.148513 -1.592655,-0.304378 -2.080772,-0.710223 -1.934487,-1.608428 0.257342,-1.58013 1.754836,-2.927144 3.595742,-3.234418 0.577324,-0.09636 1.534863,-0.05293 2.079029,0.0943 1.468705,0.397383 2.636612,1.482481 3.032785,2.817744 0.243434,0.820483 0.08617,1.235459 -0.590553,1.558333 -0.420695,0.20072 -1.402144,0.432132 -2.206562,0.52028 l -0.431462,0.04728 0.04649,0.414164 c 0.04308,0.384039 0.107478,0.712806 0.346706,1.770288 0.05063,0.223761 0.09311,0.6388 0.09442,0.92231 0.0025,0.600907 -0.117832,0.839854 -0.592189,1.173247 -0.256409,0.180209 -0.354318,0.205217 -0.906839,0.231634 -0.347038,0.01659 -0.603283,0.0034 -0.582753,-0.02999 z"
       id="path4-9" /><path
       style="fill:#8a512b;fill-opacity:1;stroke-width:0.509809"
       d="m 15.413947,36.778294 c -1.645094,-0.216675 -2.634706,-0.544729 -2.885884,-0.95666 -0.179132,-0.293779 -0.16993,-0.814732 0.02381,-1.348513 0.435434,-1.199602 1.485932,-2.136634 2.861204,-2.552158 0.434623,-0.131317 0.699296,-0.164778 1.323083,-0.167272 1.438769,-0.0058 2.372496,0.36126 3.330004,1.308904 0.643309,0.636681 0.932447,1.135936 1.082708,1.869522 0.09746,0.475813 0.05942,0.689081 -0.171969,0.964067 -0.570706,0.67825 -3.538174,1.148796 -5.562969,0.88211 z"
       id="path5-3" /><path
       style="fill:#b38255;fill-opacity:1;stroke-width:0.340825"
       d="m 22.194855,42.446055 c 0.0152,-0.01942 -0.03835,-0.0372 -0.119024,-0.03951 -0.195847,-0.0056 -0.485615,-0.184869 -0.611174,-0.378079 -0.131527,-0.202395 -0.130334,-0.463633 0.0042,-0.911449 0.139943,-0.465919 0.303277,-1.134482 0.303277,-1.241372 0,-0.07498 -0.03857,-0.08846 -0.319764,-0.111823 -0.17587,-0.01461 -0.503947,-0.0542 -0.729063,-0.08797 -1.201714,-0.180293 -1.570016,-0.420689 -1.459639,-0.952727 0.194174,-0.935966 1.324085,-1.733849 2.713114,-1.915857 0.435611,-0.05708 1.158108,-0.03135 1.568701,0.05586 1.108189,0.235383 1.989416,0.878124 2.288342,1.669046 0.18368,0.486 0.06502,0.731805 -0.445593,0.923055 -0.317429,0.118893 -1.057967,0.255967 -1.664928,0.308179 l -0.325554,0.028 0.03508,0.245323 c 0.03251,0.22748 0.0811,0.42222 0.261603,1.048603 0.0382,0.132541 0.07026,0.378383 0.07124,0.546315 0.0019,0.355939 -0.08891,0.497475 -0.446828,0.694955 -0.193469,0.106745 -0.267345,0.121558 -0.684242,0.137205 -0.261852,0.0098 -0.455198,0.002 -0.439707,-0.01776 z"
       id="path4-6" /><path
       style="fill:#8a512b;fill-opacity:1;stroke-width:0.340825"
       d="m 21.541871,39.771049 c -1.241281,-0.128344 -1.987978,-0.322661 -2.1775,-0.566662 -0.135161,-0.174015 -0.128218,-0.482594 0.01796,-0.798771 0.32855,-0.710566 1.121187,-1.265602 2.158878,-1.511731 0.327939,-0.07778 0.527643,-0.0976 0.998313,-0.09908 1.085602,-0.0034 1.790131,0.213987 2.512605,0.775309 0.485399,0.377128 0.703564,0.672854 0.816942,1.107382 0.07354,0.281841 0.04483,0.408167 -0.129757,0.571051 -0.430618,0.40175 -2.669677,0.680471 -4.197456,0.522503 z"
       id="path5-5" /><path
       style="fill:#b38255;fill-opacity:1;stroke-width:1.05295"
       d="m 46.392668,77.911283 c -0.514982,-0.420811 -1.307393,-1.387342 -1.760927,-2.147848 l -0.824602,-1.382739 -1.050416,0.09764 c -0.873664,0.08121 -1.129961,0.03402 -1.523163,-0.28046 -0.896718,-0.717172 -0.137817,-2.276506 1.407083,-2.891186 1.041408,-0.414349 2.069099,-0.268664 3.155071,0.447258 1.031471,0.679987 1.020404,1.301786 -0.03261,1.829785 -0.393121,0.197125 -0.718614,0.482903 -0.723334,0.635062 -0.01382,0.447123 1.167342,1.803114 2.450988,2.813676 0.975733,0.768157 1.149281,0.992656 0.957013,1.238013 -0.434307,0.554245 -1.074153,0.442412 -2.055148,-0.359201 z m 12.240517,0.586284 c -0.42882,-0.217203 -0.141387,-1.030987 0.413951,-1.171953 0.585153,-0.148535 2.599551,-1.971973 2.873943,-2.601499 0.198651,-0.455732 0.151778,-0.533311 -0.524001,-0.867341 -0.965961,-0.477464 -1.129465,-0.855463 -0.613717,-1.418837 1.812167,-1.979527 5.567664,-0.947466 5.348045,1.46971 l -0.06782,0.746501 -1.502301,-0.01414 c -1.224363,-0.01153 -1.504041,0.03788 -1.511647,0.267003 -0.0272,0.820825 -2.929555,3.754775 -3.709015,3.749451 -0.219503,-0.0015 -0.537847,-0.073 -0.707428,-0.158895 z M 50.189267,78.180875 C 49.396938,77.927678 47.646478,73.761927 47.155303,70.96061 l -0.148258,-0.845508 h -1.199992 c -2.172627,0 -2.821656,-0.521321 -2.352523,-1.889616 0.892564,-2.603258 4.186237,-3.508575 6.599467,-1.81397 2.120611,1.489117 1.859569,2.778298 -0.677605,3.34643 -0.76121,0.170452 -0.991192,0.30012 -0.913425,0.514988 0.05723,0.157944 0.172266,0.687676 0.255767,1.177181 0.16971,0.994965 1.269929,3.27704 1.973435,4.093296 0.682433,0.79181 1.238576,1.658653 1.238576,1.930532 0,0.547152 -0.987295,0.947935 -1.741478,0.706932 z m 5.347021,-0.447296 c -0.400809,-0.320553 -0.325938,-0.702496 0.276748,-1.411845 0.627811,-0.738919 1.353313,-2.400209 1.520621,-3.48198 0.111381,-0.720339 0.09101,-0.750452 -0.585015,-0.862981 -1.967937,-0.327582 -2.221442,-1.137069 -0.72975,-2.330097 0.814606,-0.651497 1.112347,-0.777479 1.836163,-0.776921 1.062507,8.18e-4 2.169944,0.518292 2.756899,1.28822 0.789021,1.034985 0.417177,1.650968 -1.114889,1.846904 l -0.859546,0.109923 -0.142022,1.180672 c -0.180106,1.497257 -0.948864,3.661036 -1.499697,4.221092 -0.460292,0.468008 -1.038243,0.553941 -1.459514,0.217011 z m -2.541082,-0.08598 c -0.232149,-0.04876 -0.44289,-0.337663 -0.536787,-0.735859 -0.187148,-0.793695 0.281198,-7.064332 0.62064,-8.309655 C 53.52288,66.97387 53.49261,66.88733 52.37587,66.59156 49.6848,65.878828 49.426773,64.894305 51.464107,63.112638 c 1.122036,-0.981236 2.918568,-1.467597 4.318482,-1.169109 1.078072,0.229865 2.553904,1.288946 3.077552,2.208511 0.419906,0.737402 0.535598,1.797956 0.237091,2.173618 -0.308925,0.38878 -1.787559,0.763412 -3.013112,0.763412 h -1.202463 l -0.253495,1.468512 c -0.269906,1.563652 -0.328905,5.908992 -0.104917,7.72467 0.121259,0.982892 0.08831,1.114067 -0.32389,1.290514 -0.47549,0.203526 -0.56502,0.20909 -1.204183,0.07483 z"
       id="path7-3" /><path
       style="fill:#8a512b;fill-opacity:1;stroke-width:1.05295"
       d="m 63.199827,74.545718 c -0.473372,-0.08892 -1.249559,-0.408005 -1.724876,-0.709084 -1.320969,-0.836749 -1.138871,-1.471864 0.627059,-2.187052 0.922938,-0.373782 1.566022,-0.364323 2.50118,0.03679 1.260028,0.540459 2.044939,2.251062 1.304591,2.843176 -0.305969,0.24471 -1.454767,0.25157 -2.707954,0.01617 z M 41.192008,74.285741 c -0.287601,-0.2342 -0.182154,-1.494743 0.170688,-2.040443 0.670659,-1.037229 2.670515,-1.38473 4.062574,-0.705926 0.78436,0.382474 1.296551,1.068589 1.101386,1.475363 -0.265304,0.55294 -2.208538,1.249099 -3.710274,1.329199 -0.801596,0.04275 -1.532572,0.01657 -1.624374,-0.05819 z m 15.102747,-2.437744 c -1.24034,-0.315739 -1.466353,-0.688235 -0.914271,-1.506849 0.550138,-0.815725 1.731727,-1.472276 2.64805,-1.471393 1.824728,0.0018 3.696697,1.951713 2.621062,2.730247 -0.56004,0.405349 -3.155966,0.553179 -4.354841,0.247995 z m -12.083581,-1.91214 c -1.29449,-0.41713 -1.067629,-2.026249 0.465084,-3.298871 1.134811,-0.942237 2.238385,-1.22398 3.667216,-0.936234 1.930108,0.388697 3.804972,2.536499 2.868186,3.285723 -0.181907,0.145481 -1.000469,0.458938 -1.819031,0.69657 -1.554883,0.451385 -4.169352,0.578951 -5.181455,0.252812 z m 8.588937,-3.265748 c -2.829581,-0.736618 -3.217615,-1.287396 -1.994087,-2.830399 0.945157,-1.191956 2.187923,-1.793506 3.877076,-1.876669 1.151753,-0.05671 1.486818,-0.0014 2.144052,0.353625 1.52626,0.82455 2.698277,2.705322 2.359186,3.785862 -0.29926,0.953608 -3.731584,1.25866 -6.386227,0.567581 z"
       id="path6-1" /></g></svg>
