<?xml version="1.0" encoding="UTF-8" standalone="no"?>
<!-- Created with Inkscape (http://www.inkscape.org/) -->

<svg
   width="100mm"
   height="100mm"
   viewBox="0 0 100 100"
   version="1.1"
   id="svg1"
   inkscape:version="1.4 (86a8ad7, 2024-10-11)"
   sodipodi:docname="decor2.svg"
   xml:space="preserve"
   xmlns:inkscape="http://www.inkscape.org/namespaces/inkscape"
   xmlns:sodipodi="http://sodipodi.sourceforge.net/DTD/sodipodi-0.dtd"
   xmlns="http://www.w3.org/2000/svg"
   xmlns:svg="http://www.w3.org/2000/svg"><sodipodi:namedview
     id="namedview1"
     pagecolor="#ffffff"
     bordercolor="#000000"
     borderopacity="0.25"
     inkscape:showpageshadow="2"
     inkscape:pageopacity="0.0"
     inkscape:pagecheckerboard="true"
     inkscape:deskcolor="#d1d1d1"
     inkscape:document-units="mm"
     inkscape:zoom="2.0334082"
     inkscape:cx="274.90792"
     inkscape:cy="168.92821"
     inkscape:window-width="1920"
     inkscape:window-height="1009"
     inkscape:window-x="1912"
     inkscape:window-y="-8"
     inkscape:window-maximized="1"
     inkscape:current-layer="layer1" /><defs
     id="defs1" /><g
     inkscape:label="Warstwa 1"
     inkscape:groupmode="layer"
     id="layer1"><path
       style="fill:#b38255;fill-opacity:1;stroke-width:0.941655"
       d="m 64.410239,35.752998 c -0.41187,-0.420811 -1.045622,-1.387342 -1.408348,-2.147848 l -0.659497,-1.382739 -0.840098,0.09764 c -0.698736,0.08121 -0.903716,0.03402 -1.21819,-0.28046 -0.717174,-0.717172 -0.110223,-2.276506 1.125352,-2.891186 0.832894,-0.414349 1.654817,-0.268664 2.523352,0.447258 0.824946,0.679987 0.816095,1.301786 -0.02608,1.829785 -0.314409,0.197125 -0.574731,0.482903 -0.578506,0.635062 -0.01105,0.447123 0.933613,1.803114 1.960243,2.813676 0.780368,0.768157 0.919168,0.992656 0.765396,1.238013 -0.347348,0.554245 -0.859082,0.442412 -1.643659,-0.359201 z m 9.789678,0.586284 c -0.34296,-0.217203 -0.113078,-1.030987 0.331068,-1.171953 0.467992,-0.148535 2.07906,-1.971973 2.298512,-2.601499 0.158877,-0.455732 0.121389,-0.533311 -0.419083,-0.867341 -0.772553,-0.477464 -0.90332,-0.855463 -0.490837,-1.418837 1.449329,-1.979527 4.452887,-0.947466 4.277241,1.46971 l -0.05424,0.746501 -1.201505,-0.01414 c -0.979217,-0.01153 -1.202897,0.03788 -1.20898,0.267003 -0.02175,0.820825 -2.342989,3.754775 -2.966383,3.749451 -0.175553,-0.0015 -0.430157,-0.073 -0.565784,-0.158895 z M 67.44667,36.02259 c -0.633686,-0.253197 -2.033663,-4.418948 -2.426493,-7.220265 l -0.118573,-0.845508 h -0.959726 c -1.737616,0 -2.256694,-0.521321 -1.881492,-1.889616 0.713851,-2.603258 3.348054,-3.508575 5.278098,-1.81397 1.696015,1.489117 1.48724,2.778298 -0.541932,3.34643 -0.608798,0.170452 -0.792732,0.30012 -0.730536,0.514988 0.04577,0.157944 0.137774,0.687676 0.204556,1.177181 0.13573,0.994965 1.01566,3.27704 1.578307,4.093296 0.545794,0.79181 0.990584,1.658653 0.990584,1.930532 0,0.547152 -0.789615,0.947935 -1.392793,0.706932 z m 4.276422,-0.447296 c -0.320558,-0.320553 -0.260678,-0.702496 0.221336,-1.411845 0.502109,-0.738919 1.082348,-2.400209 1.216157,-3.48198 0.08908,-0.720339 0.07279,-0.750452 -0.467881,-0.862981 -1.57391,-0.327582 -1.776657,-1.137069 -0.583637,-2.330097 0.651503,-0.651497 0.889629,-0.777479 1.46852,-0.776921 0.849768,8.18e-4 1.73547,0.518292 2.204903,1.28822 0.63104,1.034985 0.333648,1.650968 -0.891662,1.846904 l -0.687445,0.109923 -0.113586,1.180672 c -0.144044,1.497257 -0.758879,3.661036 -1.199422,4.221092 -0.368131,0.468008 -0.830362,0.553941 -1.167285,0.217011 z m -2.032298,-0.08598 c -0.185667,-0.04876 -0.354213,-0.337663 -0.42931,-0.735859 -0.149676,-0.793695 0.224896,-7.064332 0.496374,-8.309655 0.354957,-1.628215 0.330748,-1.714755 -0.562394,-2.010525 -2.152255,-0.712732 -2.358619,-1.697255 -0.729207,-3.478922 0.897378,-0.981236 2.334202,-1.467597 3.45382,-1.169109 0.862217,0.229865 2.042553,1.288946 2.461354,2.208511 0.335831,0.737402 0.428359,1.797956 0.18962,2.173618 -0.247071,0.38878 -1.429648,0.763412 -2.409816,0.763412 h -0.961702 l -0.202739,1.468512 c -0.215865,1.563652 -0.263051,5.908992 -0.08391,7.72467 0.09698,0.982892 0.07063,1.114067 -0.25904,1.290514 -0.380286,0.203526 -0.45189,0.20909 -0.963077,0.07483 z"
       id="path7-3" /><path
       style="fill:#8a512b;fill-opacity:1;stroke-width:0.941655"
       d="m 77.85221,32.387433 c -0.378592,-0.08892 -0.999368,-0.408005 -1.379515,-0.709084 -1.05648,-0.836749 -0.910843,-1.471864 0.501507,-2.187052 0.738144,-0.373782 1.252467,-0.364323 2.000385,0.03679 1.00774,0.540459 1.635494,2.251062 1.043381,2.843176 -0.244707,0.24471 -1.163489,0.25157 -2.165758,0.01617 z M 60.250874,32.127456 c -0.230017,-0.2342 -0.145683,-1.494743 0.136512,-2.040443 0.536377,-1.037229 2.135815,-1.38473 3.249151,-0.705926 0.627313,0.382474 1.036951,1.068589 0.880863,1.475363 -0.212184,0.55294 -1.766337,1.249099 -2.96739,1.329199 -0.641098,0.04275 -1.225715,0.01657 -1.299136,-0.05819 z m 12.078822,-2.437744 c -0.991995,-0.315739 -1.172755,-0.688235 -0.731213,-1.506849 0.439988,-0.815725 1.384995,-1.472276 2.117848,-1.471393 1.459375,0.0018 2.956532,1.951713 2.096264,2.730247 -0.447907,0.405349 -2.524067,0.553179 -3.482899,0.247995 z m -9.664164,-1.91214 c -1.035303,-0.41713 -0.853865,-2.026249 0.371963,-3.298871 0.907595,-0.942237 1.790208,-1.22398 2.932953,-0.936234 1.543655,0.388697 3.043127,2.536499 2.293908,3.285723 -0.145485,0.145481 -0.800152,0.458938 -1.454818,0.69657 -1.243559,0.451385 -3.33455,0.578951 -4.144006,0.252812 z m 6.86923,-3.265748 c -2.263033,-0.736618 -2.573373,-1.287396 -1.594824,-2.830399 0.755914,-1.191956 1.749849,-1.793506 3.100794,-1.876669 0.921145,-0.05671 1.189122,-0.0014 1.714762,0.353625 1.220667,0.82455 2.158019,2.705322 1.886822,3.785862 -0.239341,0.953608 -2.984433,1.25866 -5.107554,0.567581 z"
       id="path6-1" /><path
       style="fill:#b38255;fill-opacity:1;stroke-width:1.09915"
       d="m 23.57063,85.990202 c -0.484923,-0.190304 -0.749654,-0.560352 -0.749654,-1.047911 0,-1.668139 -0.532439,-3.917872 -1.635415,-6.910136 -0.250771,-0.680317 -0.419117,-1.23694 -0.374118,-1.23694 0.04496,0 -0.02055,-0.102364 -0.145648,-0.227479 -0.183558,-0.183559 -0.35208,-0.198741 -0.872814,-0.07863 -1.044896,0.241006 -2.698744,0.193925 -3.101671,-0.0883 -0.317445,-0.222345 -0.343946,-0.334745 -0.292693,-1.241703 0.07024,-1.243316 0.659062,-2.49312 1.642802,-3.486997 0.568909,-0.574771 0.823912,-0.719785 1.424356,-0.810008 1.509815,-0.226865 2.983875,0.405547 4.699419,2.01619 0.883123,0.829112 0.963251,1.26313 0.342517,1.855151 -0.410346,0.39137 -1.67704,1.01225 -2.06515,1.01225 -0.400476,0 -0.386363,0.320333 0.05463,1.240233 0.965801,2.01446 1.304999,3.003615 2.0554,5.993926 0.576362,2.296773 0.605181,2.551725 0.315621,2.792043 -0.252672,0.209695 -0.999435,0.335329 -1.297624,0.21831 z m 2.698777,-0.779649 c -0.495925,-0.14129 -0.68953,-0.584081 -0.996435,-2.278969 -0.342891,-1.89361 -0.341528,-6.741525 0.0022,-9.048661 0.134338,-0.900827 0.244253,-1.719667 0.244253,-1.819644 0,-0.103342 -0.30729,-0.22345 -0.712184,-0.278363 -2.731114,-0.370404 -3.507961,-0.876314 -3.178402,-2.069893 0.171346,-0.620551 2.43098,-3.474194 3.437615,-4.341294 1.29968,-1.119515 2.533564,-1.417727 3.676505,-0.88856 0.794092,0.367649 1.207813,0.836133 2.389235,2.705465 1.212231,1.918072 1.42994,2.537761 1.079497,3.072619 -0.443672,0.677121 -2.209776,1.377877 -3.858953,1.531151 l -1.008943,0.09377 -0.197748,1.291545 c -0.109256,0.713626 -0.198639,2.5327 -0.199727,4.065291 -0.0022,2.617757 0.02693,2.90266 0.512435,5.066117 0.508182,2.264653 0.510897,2.295813 0.224612,2.576875 -0.347881,0.341531 -0.90315,0.468168 -1.414288,0.322549 z M 30.95479,84.66802 c -0.30086,-0.130769 -0.487276,-0.319197 -0.487276,-0.492545 0,-0.154414 0.354212,-0.760308 0.787146,-1.346431 1.035839,-1.402388 1.984659,-2.921886 2.436949,-3.902682 l 0.365467,-0.792528 -0.332943,-0.12392 c -0.183119,-0.06816 -0.596531,-0.21754 -0.918682,-0.331962 -0.322161,-0.114424 -0.776681,-0.386083 -1.010053,-0.603687 -0.384087,-0.358131 -0.408895,-0.439894 -0.26162,-0.862352 0.197737,-0.567248 1.170156,-1.447278 2.254105,-2.039947 0.670911,-0.366835 0.975145,-0.438996 1.852289,-0.439332 1.567751,-6.01e-4 2.098685,0.351999 3.002022,1.993671 0.4064,0.738581 0.743564,1.565738 0.785673,1.92747 0.06848,0.587928 0.04265,0.645785 -0.357642,0.801653 -0.262873,0.102364 -1.030432,0.142709 -1.964764,0.103276 l -1.533349,-0.06472 -0.173259,0.537489 c -0.207794,0.644593 -1.392349,3.034214 -2.124493,4.285791 -0.940928,1.60846 -1.27674,1.804016 -2.31957,1.350758 z"
       id="path3-4" /><path
       style="fill:#8a512b;fill-opacity:1;stroke-width:1.09915"
       d="m 36.052254,78.488558 c -0.269665,-0.05192 -0.319808,-0.135841 -0.249221,-0.417059 0.06562,-0.261613 0.0055,-0.39611 -0.232086,-0.523547 -0.58655,-0.313914 -1.263209,-0.05228 -1.440349,0.55692 -0.0333,0.114533 -2.025811,-0.773763 -2.292124,-1.021871 -0.47801,-0.445335 -0.395881,-0.820777 0.355201,-1.623748 1.00902,-1.078722 2.202533,-1.66268 3.398233,-1.66268 1.558728,0 2.135342,0.381354 3.031425,2.004894 0.868285,1.573181 0.976573,2.293246 0.390308,2.595359 -0.355103,0.18299 -2.192003,0.239889 -2.961387,0.09173 z M 16.752643,76.321711 c -0.379779,-0.29873 -0.406598,-0.38948 -0.349266,-1.181995 0.123423,-1.706355 1.590383,-3.860959 2.861814,-4.203321 1.094864,-0.294816 2.464153,0.0601 3.606489,0.93481 2.405337,1.841799 2.541368,2.559672 0.649038,3.425204 -1.512377,0.69175 -1.555815,0.693736 -1.811082,0.08281 -0.261026,-0.624724 -0.738332,-0.712773 -1.254922,-0.231494 -0.268731,0.250359 -0.29831,0.368564 -0.174007,0.695487 0.08233,0.216625 0.125842,0.417765 0.09662,0.446977 -0.123732,0.123734 -1.706607,0.355096 -2.429398,0.355096 -0.576065,0 -0.893027,-0.0858 -1.195293,-0.323572 z m 7.593614,-4.635374 c -1.075146,-0.139518 -1.89365,-0.373911 -2.387388,-0.683674 -0.38023,-0.238548 -0.462677,-1.034627 -0.165862,-1.60146 0.30397,-0.580494 2.015875,-2.700506 2.91587,-3.610995 1.4255,-1.442113 2.882699,-1.841788 4.222695,-1.158177 0.702017,0.358145 0.983366,0.699167 2.274857,2.757389 0.952887,1.518586 1.161407,2.085538 1.001447,2.722853 -0.173852,0.692703 -1.915336,1.440907 -3.889124,1.670905 l -0.874331,0.101881 0.04968,-0.646964 c 0.04331,-0.563107 1.1e-5,-0.675285 -0.333691,-0.865465 -0.330383,-0.188282 -0.443793,-0.189534 -0.819977,-0.009 -0.33789,0.162109 -0.465029,0.353479 -0.562491,0.846662 -0.06925,0.350466 -0.206299,0.628656 -0.304519,0.6182 -0.09826,-0.01044 -0.605468,-0.0744 -1.12719,-0.142107 z"
       id="path2-1" /></g></svg>
