<?xml version="1.0" encoding="UTF-8" standalone="no"?>
<!-- Created with Inkscape (http://www.inkscape.org/) -->

<svg
   width="100mm"
   height="100mm"
   viewBox="0 0 100 100"
   version="1.1"
   id="svg1"
   inkscape:version="1.4 (86a8ad7, 2024-10-11)"
   sodipodi:docname="decor8.svg"
   xml:space="preserve"
   xmlns:inkscape="http://www.inkscape.org/namespaces/inkscape"
   xmlns:sodipodi="http://sodipodi.sourceforge.net/DTD/sodipodi-0.dtd"
   xmlns="http://www.w3.org/2000/svg"
   xmlns:svg="http://www.w3.org/2000/svg"><sodipodi:namedview
     id="namedview1"
     pagecolor="#ffffff"
     bordercolor="#000000"
     borderopacity="0.25"
     inkscape:showpageshadow="2"
     inkscape:pageopacity="0.0"
     inkscape:pagecheckerboard="true"
     inkscape:deskcolor="#d1d1d1"
     inkscape:document-units="mm"
     inkscape:zoom="1.243451"
     inkscape:cx="340.98649"
     inkscape:cy="203.8681"
     inkscape:window-width="1920"
     inkscape:window-height="1009"
     inkscape:window-x="1912"
     inkscape:window-y="-8"
     inkscape:window-maximized="1"
     inkscape:current-layer="layer1" /><defs
     id="defs1" /><g
     inkscape:label="Warstwa 1"
     inkscape:groupmode="layer"
     id="layer1"><path
       style="fill:#6c6f6d;fill-opacity:1;stroke-width:1.23224"
       d="m 51.867333,44.138372 c -2.863997,-0.808474 -6.086724,-1.438049 -9.942354,-1.94229 -5.357694,-0.700681 -8.62642,-1.480707 -9.556121,-2.280406 l -0.816877,-0.702647 0.621296,-1.060796 c 0.341712,-0.583437 1.991559,-2.219511 3.666321,-3.635719 2.147831,-1.816229 3.274752,-3.0359 3.824664,-4.139424 0.639853,-1.284016 1.103508,-1.723348 2.586213,-2.450533 0.993617,-0.487317 2.23696,-0.886032 2.762966,-0.886032 0.526019,0 1.51308,-0.380908 2.193486,-0.84646 3.590464,-2.456717 7.959877,-4.110511 11.996092,-4.540442 2.39322,-0.254923 6.398777,0.506169 8.965829,1.703587 1.497073,0.698322 2.206239,0.825692 4.294763,0.771369 1.707134,-0.0444 2.804838,0.09174 3.456434,0.428694 1.256047,0.649528 3.0078,2.666246 3.0078,3.462751 0,0.420896 0.812847,1.179285 2.442903,2.279239 2.986532,2.015286 7.776064,5.975634 9.216023,7.620502 1.311954,1.498636 1.058741,2.230597 -1.090335,3.151797 -3.016241,1.292912 -6.685581,1.715287 -13.176837,1.516773 -6.442078,-0.197009 -9.5975,0.05633 -14.019295,1.125563 -3.723078,0.900274 -8.114523,1.078944 -10.432971,0.424474 z"
       id="path28" /><path
       style="fill:#5a321f;fill-opacity:1;stroke-width:1.23224"
       d="m 52.193372,44.132656 c -3.783298,-0.966403 -6.475706,-1.481071 -11.062535,-2.11466 -4.811972,-0.664689 -8.001872,-1.396878 -8.743803,-2.007001 -1.127562,-0.927235 -0.255222,-2.32288 3.34181,-5.346525 3.481818,-2.926798 3.39773,-2.869817 3.21903,-2.181573 -0.532216,2.049818 2.637845,2.577615 7.680073,1.278687 5.806229,-1.495741 7.015562,-2.590496 4.994861,-4.521646 -0.972842,-0.929739 -3.484505,-2.180746 -4.401402,-2.192254 -1.106971,-0.01389 -0.541718,-0.558737 2.143186,-2.065794 4.044114,-2.269989 6.029166,-2.87914 10.005519,-3.070383 3.682599,-0.177117 5.986161,0.223578 9.177232,1.596342 l 1.655995,0.712388 -0.854238,0.622261 c -1.13551,0.827161 -1.077262,1.342666 0.267618,2.368453 2.432405,1.855286 7.666234,3.058041 8.720317,2.003963 0.467364,-0.467374 0.767106,-0.340519 3.333801,1.410942 5.294431,3.612801 9.646148,7.550357 9.646148,8.72809 0,0.605469 -0.354922,0.92497 -1.711655,1.540819 -3.143913,1.427088 -6.556245,1.825904 -14.786734,1.7282 -7.735499,-0.09183 -7.365161,-0.129382 -14.963524,1.517283 -2.781511,0.602791 -5.281862,0.600313 -7.661699,-0.0076 z m 3.555062,-7.737165 c 2.572597,-0.902012 1.881606,-2.834363 -1.013542,-2.834363 -2.295886,0 -3.845649,0.934696 -3.845649,2.319383 0,0.860048 2.975613,1.175406 4.859191,0.51498 z"
       id="path22"
       sodipodi:nodetypes="csssssssssscssssssssccssss" /></g></svg>
