<?xml version="1.0" encoding="UTF-8" standalone="no"?>
<!-- Created with Inkscape (http://www.inkscape.org/) -->

<svg
   width="100mm"
   height="100mm"
   viewBox="0 0 100 100"
   version="1.1"
   id="svg1"
   inkscape:version="1.4 (86a8ad7, 2024-10-11)"
   sodipodi:docname="tree3.svg"
   xml:space="preserve"
   xmlns:inkscape="http://www.inkscape.org/namespaces/inkscape"
   xmlns:sodipodi="http://sodipodi.sourceforge.net/DTD/sodipodi-0.dtd"
   xmlns="http://www.w3.org/2000/svg"
   xmlns:svg="http://www.w3.org/2000/svg"><sodipodi:namedview
     id="namedview1"
     pagecolor="#ffffff"
     bordercolor="#000000"
     borderopacity="0.25"
     inkscape:showpageshadow="2"
     inkscape:pageopacity="0.0"
     inkscape:pagecheckerboard="true"
     inkscape:deskcolor="#d1d1d1"
     inkscape:document-units="mm"
     inkscape:zoom="0.7232269"
     inkscape:cx="170.76245"
     inkscape:cy="212.24321"
     inkscape:window-width="1920"
     inkscape:window-height="1009"
     inkscape:window-x="1912"
     inkscape:window-y="-8"
     inkscape:window-maximized="1"
     inkscape:current-layer="layer1" /><defs
     id="defs1" /><g
     inkscape:label="Warstwa 1"
     inkscape:groupmode="layer"
     id="layer1"><path
       style="fill:#475744;fill-opacity:1;stroke-width:0.799657"
       d="m 49.160867,88.227366 c -1.79486,-0.6358 -2.38861,-1.21089 -3.54106,-3.42982 -0.75201,-1.44793 -1.46905,-3.40526 -2.39582,-6.53995 -1.28915,-4.36041 -1.38138,-4.57735 -3.64554,-8.57504 -1.2776,-2.2558 -2.29398,-4.12633 -2.2586,-4.15672 0.0354,-0.0304 1.13527,1.17206 2.44426,2.67212 1.30897,1.50007 2.42083,2.69226 2.47079,2.64933 0.23081,-0.19837 -1.784,-4.6626 -3.70312,-8.20502 -0.573,-1.05768 -0.9486,-1.87353 -0.83464,-1.813 0.11392,0.0605 1.03748,1.04731 2.0523,2.19286 1.01482,1.14556 1.84512,1.95964 1.84512,1.80907 0,-0.50045 -0.87682,-2.98512 -1.78963,-5.07136 -0.49562,-1.13272 -0.97329,-2.23602 -1.0615,-2.45178 -0.0882,-0.21576 0.73205,0.93168 1.82278,2.54985 1.09073,1.61817 1.91692,2.67734 1.83598,2.35371 -0.30369,-1.21418 -2.04733,-4.79182 -3.48919,-7.1592 -0.82129,-1.34847 -1.3891,-2.36351 -1.26179,-2.25563 0.12731,0.10787 1.07565,1.12291 2.10743,2.25563 1.03178,1.13272 1.96057,2.08632 2.06399,2.1191 0.20091,0.0637 -0.79661,-2.75725 -1.7221,-4.86996 -0.4615,-1.05354 -0.88132,-1.5538 -2.37465,-2.82968 -0.99771,-0.85244 -1.76224,-1.6219 -1.69894,-1.70992 0.1365,-0.18982 1.72188,0.47651 2.77809,1.16763 0.41137,0.26917 0.79226,0.45131 0.84644,0.40475 0.0542,-0.0466 -0.16198,-0.56639 -0.48037,-1.15517 -0.31837,-0.58878 -1.03692,-2.17381 -1.59677,-3.52229 -0.95738,-2.30599 -1.09543,-2.51414 -2.32159,-3.50055 l -1.30369,-1.04877 1.59757,0.13286 c 0.87867,0.0731 1.75162,0.16924 1.93991,0.21371 0.18829,0.0445 1.07785,0.85381 1.97681,1.79855 2.83222,2.97642 2.66218,2.84572 1.97957,1.52156 -1.92257,-3.72954 -3.13122,-4.93432 -6.88692,-6.86489 -1.58905,-0.81682 -3.14593,-1.65656 -3.45973,-1.86608 l -0.57057,-0.38094 0.68468,0.17667 c 0.37656,0.0972 1.58921,0.40774 2.69476,0.69016 1.97227,0.50382 4.39396,1.42012 5.74952,2.17545 l 0.68468,0.3815 -0.37291,-0.49775 c -0.50718,-0.67697 -4.00081,-3.72668 -4.99925,-4.36402 -0.96041,-0.61305 -3.06607,-1.12057 -4.64918,-1.12057 -0.82627,0 -1.07011,-0.059 -0.88849,-0.21514 0.13769,-0.11833 1.49704,-0.30352 3.02079,-0.41152 2.24058,-0.15881 2.85081,-0.1458 3.1906,0.068 0.2311,0.14542 1.46847,0.94875 2.74974,1.78517 1.28127,0.83642 2.29523,1.44189 2.25325,1.34548 -0.42434,-0.97441 -4.78997,-6.68799 -6.16479,-8.06824 -0.9731,-0.97697 -1.83315,-1.865096 -1.9112,-1.973621 -0.0781,-0.108525 0.74062,0.3452 1.81925,1.008281 1.46673,0.90166 2.63205,1.88046 4.62245,3.88261 1.46372,1.47236 3.1773,3.35887 3.80796,4.19225 0.63065,0.83338 1.17913,1.48732 1.21883,1.4532 0.0397,-0.0341 -0.19562,-0.93664 -0.52295,-2.0056 -0.32734,-1.06895 -0.69001,-2.41236 -0.80592,-2.98534 -0.39233,-1.93914 -1.89047,-5.611093 -4.17639,-10.236392 -0.91096,-1.843207 -0.74154,-1.729656 1.35933,0.911117 0.69905,0.878688 1.53576,2.202649 1.85937,2.942135 0.70732,1.61628 1.92924,4.53254 2.73384,6.52468 0.75681,1.87377 1.19908,2.74143 1.20875,2.37132 0.0126,-0.48215 -2.44214,-12.92506 -2.85258,-14.459543 -0.31795,-1.188676 -0.64676,-1.739881 -2.04762,-3.43249 -0.91786,-1.109028 -1.63655,-2.044409 -1.59708,-2.078625 0.0894,-0.07744 2.68923,1.61258 3.02001,1.963118 0.36912,0.391133 1.77947,3.419939 2.31151,4.964075 0.26019,0.755147 0.84672,2.917617 1.30341,4.805486 0.45668,1.887869 0.92739,3.564889 1.04603,3.726709 0.15336,0.20917 0.18245,0.12414 0.10065,-0.29422 -0.0633,-0.32363 -0.22249,-1.95652 -0.3538,-3.628631 -0.13131,-1.672113 -0.28798,-3.616163 -0.34816,-4.32011 -0.14352,-1.679119 -1.31097,-6.60611 -2.07884,-8.773434 -0.33424,-0.943361 -0.65386,-1.847597 -0.71028,-2.009415 -0.19936,-0.571794 0.62544,0.47462 1.8487,2.345397 1.19481,1.827318 1.24872,1.978548 2.27508,6.382936 0.5782,2.481201 1.11908,5.148707 1.20195,5.927791 0.0828,0.779084 0.22118,1.379076 0.30734,1.333306 0.0862,-0.0458 0.293,-2.650315 0.45964,-5.787891 0.16664,-3.137576 0.37078,-5.740694 0.45365,-5.784708 0.14501,-0.07703 0.51249,5.179211 0.84995,12.157199 0.14626,3.02432 0.17904,3.21585 0.35244,2.05949 1.03045,-6.871395 1.32236,-7.901726 3.52966,-12.458073 0.62634,-1.292869 1.20826,-2.517766 1.29318,-2.721994 0.327,-0.786461 0.35541,-0.134559 0.034,0.780304 -1.04505,2.974638 -2.71309,11.160552 -2.60831,12.800243 0.0116,0.17853 0.31181,-0.79064 0.66756,-2.153711 0.35575,-1.363069 0.92219,-2.945353 1.25876,-3.516187 0.75317,-1.277364 3.79345,-5.319058 3.91961,-5.210638 0.0505,0.04337 -0.17511,0.640456 -0.50129,1.326861 -1.13657,2.391814 -3.79697,12.330045 -3.30067,12.330045 0.0997,0 0.24906,-0.26532 0.33194,-0.58959 0.28633,-1.12041 1.75733,-4.030982 3.59347,-7.110166 1.01356,-1.699728 1.87511,-3.062684 1.91454,-3.02879 0.0394,0.03389 -0.38979,1.38045 -0.95388,2.992345 -0.56406,1.611895 -1.086,3.283775 -1.15985,3.715288 -0.12379,0.723263 -0.10833,0.753913 0.1979,0.392283 0.47356,-0.559237 2.68723,-4.091119 3.4715,-5.538736 0.36461,-0.672984 0.693,-1.197752 0.72977,-1.16615 0.1245,0.106999 -1.29621,5.859044 -1.54637,6.260739 -0.13658,0.219337 -0.69299,0.989547 -1.23647,1.711577 -0.91699,1.21826 -3.00127,5.82093 -2.73831,6.04694 0.0611,0.0525 0.2216,-0.15468 0.35681,-0.4603 0.80813,-1.82678 1.81768,-3.52673 2.96384,-4.99072 1.23938,-1.58307 2.96515,-3.48698 2.96515,-3.271227 0,0.05517 -0.71513,1.233017 -1.58918,2.617447 -1.37129,2.17204 -3.32633,6.1056 -3.1219,6.2813 0.0374,0.0321 0.55808,-0.55829 1.15724,-1.31192 1.05329,-1.32486 2.82355,-2.68014 6.29228,-4.8173 l 1.255,-0.77322 -1.11517,1.22335 c -0.61334,0.67284 -1.78058,1.90854 -2.59386,2.74599 -2.80277,2.88605 -5.00054,6.09278 -5.38554,7.85798 -0.17455,0.8004 0.12321,0.67282 0.648,-0.27762 0.21729,-0.39354 0.46086,-0.62478 0.54126,-0.51386 0.0804,0.11092 1.01913,-0.88215 2.08608,-2.20682 1.06694,-1.32467 1.96914,-2.38634 2.00488,-2.35926 0.0357,0.0271 -0.0304,0.41394 -0.14691,0.85969 l -0.21189,0.81046 1.51626,0.003 c 2.27373,0.004 2.35939,0.17038 0.67735,1.31165 -0.79384,0.53861 -1.73039,1.1379 -2.08123,1.33174 -0.66321,0.36642 -2.38478,2.50872 -2.83842,3.53209 -0.14347,0.32363 -0.32345,0.89735 -0.39995,1.27492 -0.13765,0.67931 -0.12406,0.67216 1.29802,-0.68321 0.79041,-0.75334 1.82811,-1.72425 2.30597,-2.15757 l 0.86885,-0.78785 -0.61566,1.07767 c -0.33863,0.59272 -1.11818,1.77398 -1.73234,2.62501 -0.61416,0.85104 -1.06532,1.59146 -1.00257,1.64539 0.0627,0.0539 0.48077,-0.17866 0.92896,-0.51685 0.72058,-0.54373 2.83187,-1.59487 3.20343,-1.59487 0.0761,0 -0.49684,0.55165 -1.27314,1.22589 -2.29474,1.99299 -2.96524,2.79472 -3.42228,4.09202 l -0.43008,1.22078 0.96066,-0.78897 c 0.76385,-0.62734 3.80363,-2.44133 5.84567,-3.48841 0.47651,-0.24434 0.26397,0.003 -2.37037,2.75906 -1.30714,1.36752 -2.73283,3.07017 -3.16822,3.78367 -0.43537,0.71351 -1.32464,2.79777 -1.97617,4.63171 -0.65152,1.83392 -1.32394,3.72748 -1.49425,4.2079 -0.40378,1.13905 -0.26261,1.23826 0.23391,0.1644 0.71421,-1.54468 3.87728,-7.39083 3.96022,-7.31954 0.045,0.0386 -0.48201,1.77677 -1.17111,3.86247 -1.52794,4.62468 -1.77532,5.63298 -0.99202,4.04352 0.84519,-1.71507 1.79326,-2.85781 3.70721,-4.4684 0.96148,-0.80909 1.70843,-1.3828 1.65988,-1.27493 -0.0485,0.10788 -0.78581,1.41898 -1.63837,2.91355 -0.85255,1.49458 -1.51227,2.74993 -1.46604,2.78966 0.0462,0.0397 0.51207,-0.47699 1.03519,-1.14827 2.17427,-2.79009 2.25579,-2.64397 0.33038,0.59219 -1.53672,2.58285 -4.83966,9.66162 -4.50809,9.66162 0.0549,0 0.61514,-0.86057 1.24478,-1.91239 0.82248,-1.37394 1.62541,-2.35419 2.85172,-3.48153 0.9388,-0.86302 1.71191,-1.46686 1.71802,-1.34187 0.006,0.125 -0.81605,1.72704 -1.82702,3.5601 -1.55535,2.82008 -3.8189,8.18638 -3.5504,8.41712 0.0425,0.0365 1.09248,-0.73022 2.33344,-1.70375 1.24096,-0.97352 2.33825,-1.77057 2.43842,-1.77122 0.10019,-6.5e-4 -0.6446,1.02957 -1.65503,2.28938 -1.98356,2.47313 -1.94459,2.38808 -5.27635,11.51783 l -0.99494,2.72635 -1.83764,0.75781 c -2.28754,0.94335 -4.81391,1.171 -6.47302,0.5833 z m -4.96076,-31.00104 c -0.20925,-0.44945 -0.41783,-0.78505 -0.46354,-0.74578 -0.0457,0.0393 0.0859,0.44107 0.29237,0.89289 0.20651,0.45181 0.4151,0.78741 0.46355,0.74578 0.0485,-0.0417 -0.0832,-0.44343 -0.29238,-0.89289 z m -1.09509,-2.30367 c -0.19309,-0.30621 -0.35517,-0.49469 -0.3602,-0.41886 -0.0155,0.23315 0.5155,1.14382 0.61635,1.05714 0.0521,-0.0448 -0.0631,-0.33208 -0.25615,-0.63828 z m -4.7056,-10.46192 c -0.26814,-0.32364 -0.53769,-0.58843 -0.599,-0.58843 -0.0613,0 0.0705,0.26479 0.29298,0.58843 0.22243,0.32363 0.49199,0.58842 0.599,0.58842 0.10705,0 -0.0249,-0.26479 -0.29298,-0.58842 z"
       id="path58" /><path
       style="fill:#5d6d58;fill-opacity:1;stroke-width:0.799657"
       d="m 49.224537,88.156246 c -2.31406,-0.89256 -2.31646,-0.89518 -4.00662,-4.35455 -0.58868,-1.20487 -1.6137,-4.35784 -2.65096,-8.15433 -0.19158,-0.70121 -0.63205,-1.80451 -0.97881,-2.45179 -0.63915,-1.19303 -2.36984,-4.32969 -3.32788,-6.03137 -0.28848,-0.51242 -0.48251,-0.93167 -0.43117,-0.93167 0.11508,0 2.45869,2.63763 3.73614,4.20489 1.04429,1.28122 1.16962,1.13198 0.48518,-0.57774 -0.25138,-0.62792 -0.41231,-1.18011 -0.35763,-1.2271 0.0547,-0.047 0.46657,0.91633 0.91535,2.14071 0.87802,2.39556 2.18663,5.32737 2.32482,5.20861 0.0467,-0.0401 -0.47613,-1.7678 -1.16175,-3.83933 -0.6856,-2.07152 -1.56023,-5.08905 -1.94361,-6.7056 -0.38337,-1.61656 -0.965,-3.53317 -1.2925,-4.25913 -1.24562,-2.76116 -1.42325,-3.18329 -1.33951,-3.18329 0.0475,0 0.43352,0.55165 0.85803,1.22588 1.89556,3.01074 2.52036,3.97849 2.6276,4.06996 0.28243,0.24084 -0.27063,-1.57236 -0.88505,-2.90163 -0.37197,-0.80476 -0.63583,-1.49799 -0.58637,-1.5405 0.27614,-0.23731 2.51029,4.84869 3.10462,7.06757 0.23446,0.87539 0.65753,2.386 0.94015,3.3569 0.28262,0.97091 0.92488,3.17751 1.42725,4.90356 0.50239,1.72605 1.15493,3.88852 1.4501,4.80548 l 0.53669,1.66721 -0.11636,-1.17685 c -0.35305,-3.57301 -0.59711,-5.64891 -0.8186,-6.96305 -0.70122,-4.16027 -3.47296,-12.24354 -4.81641,-14.04618 -0.39297,-0.52729 -1.04606,-1.84135 -1.45129,-2.92014 -0.40523,-1.07877 -0.99509,-2.5572 -1.3108,-3.28538 -0.3157,-0.72817 -0.54064,-1.32395 -0.49986,-1.32395 0.0889,0 1.35858,1.9396 2.47555,3.78169 0.44352,0.73146 0.88941,1.33195 0.99087,1.33442 0.30873,0.008 0.65616,0.75468 1.56462,3.36463 0.47831,1.37413 0.90443,2.46853 0.94693,2.43199 0.30864,-0.26526 -1.16554,-4.49199 -2.43077,-6.9695 -0.65488,-1.28231 -3.4122,-4.71968 -3.92359,-4.89126 -0.29044,-0.0974 -0.23539,0.24191 0.0904,0.55727 0.15691,0.15188 -0.48497,-0.33212 -1.4264,-1.07554 -0.94143,-0.74342 -1.74517,-1.44581 -1.78611,-1.56087 -0.041,-0.11505 0.0126,-0.10424 0.11897,0.024 0.10635,0.12827 0.49034,0.27949 0.85326,0.33604 0.36291,0.0566 1.06077,0.37973 1.55078,0.71816 0.49,0.33843 0.95056,0.56408 1.02343,0.50144 0.0728,-0.0626 -0.20376,-0.79968 -0.61478,-1.63787 -0.41101,-0.83818 -0.92907,-1.96529 -1.15121,-2.50468 -0.22215,-0.53939 -0.48089,-1.15724 -0.57499,-1.373 -0.0941,-0.21575 0.15969,-0.009 0.56394,0.45957 0.40426,0.46851 0.78636,0.80771 0.84913,0.75376 0.18034,-0.15499 -0.51236,-1.15394 -1.27599,-1.84015 -0.38365,-0.34476 -0.69755,-0.71311 -0.69755,-0.81856 0,-0.10545 -0.25956,-0.45685 -0.57682,-0.78088 l -0.57683,-0.58915 0.86211,0.20319 c 0.89668,0.21134 3.67566,2.14733 3.86767,2.69442 0.67566,1.92513 2.72407,6.12235 4.89493,10.02978 2.02269,3.64076 2.22143,4.29602 2.93932,9.69135 0.24454,1.83781 0.60235,4.3565 0.79514,5.5971 0.1928,1.2406 0.46626,3.13828 0.60772,4.21706 0.14144,1.07879 0.34287,2.09382 0.44764,2.25564 0.18153,0.28041 0.3537,-5.3069 0.2357,-7.64955 -0.11251,-2.23378 -1.00341,-7.31962 -2.07985,-11.873 -1.81978,-7.69774 -2.49187,-9.4627 -4.82101,-12.66062 -0.78055,-1.07171 -1.45147,-1.92082 -1.49093,-1.8869 -0.0395,0.0339 0.39281,1.07168 0.96058,2.30615 1.72947,3.76024 2.40205,5.49961 2.83926,7.34254 0.2301,0.97 0.39484,1.78385 0.3661,1.80856 -0.15485,0.13307 -2.98441,-4.44844 -4.04352,-6.54712 -0.93402,-1.85078 -0.96556,-1.99516 -0.27143,-1.24212 1.08164,1.17343 2.10654,2.06916 2.11299,1.8467 0.003,-0.11704 -0.49789,-0.92605 -1.11397,-1.7978 -0.61609,-0.87176 -1.56607,-2.35035 -2.11108,-3.28577 -0.545,-0.93542 -1.44112,-2.15648 -1.99138,-2.71347 -0.89842,-0.90942 -3.27334,-2.48156 -3.75112,-2.48316 -0.10286,-3.4e-4 -0.63491,-0.26541 -1.18225,-0.58905 -0.54732,-0.32363 -1.07932,-0.5916 -1.18223,-0.59548 -0.10297,-0.004 -0.49521,-0.23152 -0.87179,-0.50588 -0.83469,-0.60814 6.61573,2.60072 7.8241,3.36979 0.46663,0.29699 1.13379,0.8128 1.48257,1.14624 0.67947,0.64957 3.0767,3.87294 4.09073,5.50047 0.72231,1.1593 0.76537,1.07553 0.27801,-0.54086 -0.35111,-1.16455 -0.5669,-1.47091 -4.30934,-6.11864 -1.25637,-1.56028 -4.50575,-4.49705 -6.09815,-5.51148 -0.84106,-0.53579 -1.46721,-0.74086 -2.94307,-0.96386 -3.46489,-0.52356 -2.19732,-0.68562 1.5645,-0.20003 1.81503,0.23429 2.55776,0.44139 4.00178,1.11582 0.97521,0.45548 2.13453,1.1298 2.57625,1.49849 0.44174,0.3687 0.83936,0.63889 0.88362,0.60043 0.0805,-0.0699 -2.43067,-3.73288 -4.08181,-5.9542 -0.48113,-0.64727 -1.34374,-1.66231 -1.91691,-2.25564 -1.24702,-1.29087 -0.40962,-0.67623 2.00418,1.47107 3.99588,3.5547 4.27557,3.91687 6.62537,8.57931 0.42083,0.835 0.79362,1.49372 0.82843,1.46381 0.0348,-0.0299 -0.28225,-1.00029 -0.70456,-2.1564 -0.76319,-2.0893 -0.73274,-2.53676 0.0785,-1.15554 0.54474,0.92735 0.96634,2.22483 1.82802,5.62578 0.71008,2.80265 1.69686,5.91678 1.94148,6.127 0.35734,0.30711 -0.20397,-6.56754 -0.89774,-10.99503 -0.5638,-3.59807 -0.31436,-3.44946 0.8055,0.4799 l 1.02701,3.60357 0.0648,-1.99842 c 0.0446,-1.36992 -0.11701,-3.07682 -0.5135,-5.42747 -0.36042,-2.13676 -0.57839,-4.29954 -0.57839,-5.73884 0,-1.63642 -0.16127,-3.027556 -0.55318,-4.771926 -1.28905,-5.737621 -1.5551,-7.090245 -1.41776,-7.208268 0.0798,-0.06861 0.14515,0.02182 0.14515,0.200969 0,0.179146 0.61169,1.735814 1.3593,3.459261 1.14582,2.641429 1.4001,3.46561 1.61911,5.247991 0.36094,2.937353 0.63022,3.339633 0.69328,1.035668 0.041,-1.497583 0.0888,-1.170316 0.24369,1.667205 0.23971,4.39211 0.66196,8.58652 0.84828,8.42639 0.0773,-0.0665 0.20734,-0.62149 0.28894,-1.2334 0.0816,-0.61192 0.099,0.12312 0.0389,1.63342 -0.0612,1.53378 0.0498,4.82408 0.25129,7.45341 0.19842,2.58908 0.37273,5.06047 0.38735,5.49198 l 0.0265,0.78457 0.18419,-0.88264 c 0.10134,-0.48545 0.29187,-2.7245 0.42344,-4.97567 0.27197,-4.65279 0.71755,-7.45206 2.36131,-14.8347 0.63652,-2.85878 1.23493,-5.594963 1.3298,-6.080415 0.0948,-0.485452 0.70308,-1.765281 1.35159,-2.844064 0.64851,-1.078782 1.11369,-1.785239 1.03372,-1.569902 -0.44152,1.188935 -1.97994,6.776271 -2.37646,8.631021 -1.49886,7.01095 -2.17272,10.73715 -2.01477,11.14082 0.0507,0.12949 0.22749,-0.25001 0.39293,-0.84334 0.16543,-0.59333 0.83993,-2.44688 1.49885,-4.11899 0.65895,-1.67212 1.52584,-4.01111 1.92644,-5.19777 0.80327,-2.37943 2.74164,-7.025856 2.88103,-6.906063 0.0486,0.04177 -0.27303,1.091305 -0.71474,2.332295 -0.44172,1.24099 -0.83996,2.777768 -0.88499,3.415058 -0.045,0.63729 -0.3004,1.81891 -0.5675,2.62583 -0.26709,0.80692 -0.48198,1.51303 -0.47755,1.56914 0.0209,0.26412 0.7529,-1.0714 1.61033,-2.93819 0.52026,-1.13272 1.40772,-2.853873 1.97213,-3.824777 0.5644,-0.970905 1.16807,-2.074206 1.34149,-2.45178 l 0.3153,-0.686498 -0.13545,1.034913 c -0.22349,1.707795 -0.70525,2.978571 -1.53768,4.056062 -1.15575,1.49599 -1.81293,2.69791 -2.76475,5.05647 -0.81619,2.02246 -1.01803,3.33746 -0.29399,1.91531 1.68454,-3.30875 2.25172,-4.2459 3.50194,-5.7862 2.00641,-2.471948 2.8431,-3.295687 1.79635,-1.76856 -1.61991,2.36337 -3.65818,6.23707 -4.12998,7.84897 l -0.11485,0.39229 0.36611,-0.39229 c 0.20134,-0.21576 0.84967,-0.96237 1.44071,-1.65915 0.99659,-1.17488 2.92798,-2.70561 4.84031,-3.83618 0.43932,-0.25974 1.10688,-0.67234 1.48345,-0.91691 0.50612,-0.32871 0.38372,-0.13883 -0.46944,0.72815 -0.63476,0.64505 -1.65124,1.72447 -2.25885,2.39871 -1.12299,1.24614 -1.65312,1.66826 -0.86214,0.6865 0.79953,-0.99239 0.7784,-1.13517 -0.0508,-0.34325 -1.4865,1.41966 -2.55342,2.96714 -3.6096,5.23542 -1.05743,2.27097 -1.63,4.17369 -1.02934,3.42062 0.16078,-0.20158 0.47326,-0.55463 0.6944,-0.78457 0.35669,-0.37089 0.35124,-0.30739 -0.0483,0.56265 -0.40405,0.87983 -0.85631,2.05514 -2.86811,7.4534 l -0.58477,1.56915 0.12737,-1.17686 c 0.0701,-0.64727 0.19076,-1.61817 0.2682,-2.15757 0.36197,-2.52096 -0.65572,0.62135 -2.00105,6.17849 -1.72911,7.14255 -2.34642,11.41697 -2.0253,14.02417 0.11958,0.97091 0.22668,1.85355 0.23799,1.96143 0.0406,0.38704 1.29202,-4.59176 1.69439,-6.74116 0.22592,-1.20673 0.45117,-2.15931 0.50058,-2.11685 0.0494,0.0425 -0.0154,1.03127 -0.14391,2.19734 -0.12855,1.16608 -0.1937,2.15454 -0.14476,2.19661 0.0489,0.042 0.2123,-0.56921 0.36302,-1.35837 0.15071,-0.78916 0.53322,-2.53814 0.85002,-3.88662 0.31678,-1.34848 0.69762,-3.02554 0.8463,-3.72681 0.14867,-0.70127 0.53721,-1.93697 0.8634,-2.746 0.51539,-1.27826 1.87135,-5.00999 2.35187,-6.47258 0.12005,-0.36544 0.0944,-0.43609 -0.101,-0.27733 -0.37595,0.30556 -2.92137,6.10004 -3.69754,8.41723 l -0.657,1.96142 0.0905,-1.76528 c 0.078,-1.52116 0.28509,-2.26707 1.49751,-5.39391 2.37356,-6.12139 2.90614,-7.20804 4.49107,-9.16352 1.31333,-1.62037 1.56566,-1.83034 2.42933,-2.02149 0.53007,-0.11732 1.30443,-0.3054 1.72079,-0.41797 0.41636,-0.11256 0.79739,-0.16995 0.84675,-0.12754 0.0493,0.0424 -0.58243,0.5146 -1.40396,1.0493 -1.83517,1.19444 -1.97832,1.31927 -2.91451,2.54132 -0.64517,0.84216 -2.06018,4.00355 -1.86648,4.17002 0.0365,0.0314 0.43244,-0.32036 0.87992,-0.78159 0.44749,-0.46122 1.44382,-1.4123 2.21408,-2.11351 1.34356,-1.2231 1.38231,-1.24294 0.95348,-0.48815 -0.24585,0.43273 -0.97456,1.52555 -1.61936,2.42848 -1.19347,1.67123 -1.33484,2.16927 -0.41356,1.45698 0.6686,-0.51693 2.45064,-1.5296 2.98887,-1.69846 0.23224,-0.0729 -0.26896,0.50806 -1.11376,1.29094 -2.2055,2.04383 -2.5043,2.43497 -3.08525,4.03881 -0.2866,0.7912 -0.87285,1.93863 -1.30279,2.54985 -0.42995,0.61122 -0.92958,1.35488 -1.11028,1.65257 -0.51731,0.85225 -3.70898,10.58897 -3.95326,12.06004 -0.21161,1.2743 -0.43863,3.82081 -0.93998,10.54349 -0.20841,2.79471 -0.9231,9.0458 -1.24459,10.8859 -0.0797,0.45611 -0.0508,0.58776 0.0859,0.39228 0.29904,-0.42744 0.89349,-3.09086 1.66351,-7.4534 0.37131,-2.10363 0.87735,-4.97221 1.12455,-6.37463 0.67174,-3.81089 1.58286,-7.77133 1.91662,-8.33102 0.16247,-0.27246 0.60172,-1.24562 0.97609,-2.16259 0.80709,-1.97684 3.99917,-7.97811 4.10222,-7.7124 0.0394,0.10166 -0.22272,1.01796 -0.58258,2.03623 -1.04054,2.94439 -2.94145,9.38696 -3.35311,11.3643 l -0.14292,0.6865 0.46666,-0.63331 c 1.05513,-1.43198 1.66524,-2.72788 2.44707,-5.19769 0.96868,-3.06013 0.91713,-2.96548 2.55176,-4.68512 1.22969,-1.29363 1.8111,-1.67548 1.11158,-0.73005 -0.59117,0.79898 -2.48586,4.50181 -2.35922,4.61066 0.0668,0.0574 0.43431,-0.36792 0.81667,-0.94518 0.65292,-0.98573 1.95994,-2.45997 1.79998,-2.03029 -0.0402,0.10788 -0.52299,0.94639 -1.07297,1.86335 -1.09909,1.8325 -2.0549,3.73049 -2.86447,5.68813 -0.56956,1.37725 -1.07245,2.39343 -1.26185,2.54985 -0.0653,0.054 -0.11896,0.18633 -0.11921,0.29421 -2.3e-4,0.10788 -0.47838,1.47597 -1.06252,3.04021 -1.58338,4.24 -3.46184,10.00466 -3.30422,10.14012 0.0507,0.0436 0.19884,-0.16793 0.32908,-0.4701 1.26192,-2.92773 1.8555,-4.35242 3.02173,-7.25259 1.67717,-4.17076 2.62244,-5.97009 4.14358,-7.88729 0.65159,-0.82125 1.42128,-1.79237 1.7104,-2.15802 0.28911,-0.36566 0.52566,-0.6183 0.52566,-0.56142 0,0.11284 -0.84362,1.7059 -2.51903,4.7568 -0.59241,1.07879 -1.15234,2.27036 -1.24427,2.64793 -0.0919,0.37757 -0.46404,1.42924 -0.82689,2.33703 -0.36285,0.90779 -0.6121,1.69146 -0.55389,1.7415 0.0582,0.05 0.85008,-0.50122 1.7597,-1.22501 3.0276,-2.40905 3.23182,-2.40999 1.32249,-0.006 -1.78271,2.24452 -1.83999,2.36285 -3.98652,8.23459 -2.00924,5.49619 -2.08527,5.65389 -2.95644,6.13231 -1.34182,0.73689 -3.01646,1.21538 -4.6373,1.32499 -1.27581,0.0863 -1.72988,0.0285 -2.69138,-0.34234 z m 2.96183,-24.81682 c -0.12608,-7.01032 -0.5038,-9.76552 -2.00114,-14.5974 -0.44553,-1.43774 -1.04146,-3.36433 -1.32429,-4.28129 -0.72992,-2.36661 -0.77441,-1.50657 -0.0755,1.45999 0.83636,3.54995 2.25737,12.16812 2.8721,17.4187 0.28735,2.45424 0.54193,4.46224 0.56576,4.46224 0.0239,0 0.007,-2.008 -0.0369,-4.46224 z m -4.04012,-16.37559 c -0.0546,-0.24399 -0.10135,-0.0906 -0.10391,0.34096 -0.002,0.43152 0.0421,0.63114 0.0992,0.44361 0.0571,-0.18753 0.0591,-0.54059 0.005,-0.78457 z m -0.005,-4.69745 c -0.0728,-0.15646 -0.12693,-0.10999 -0.13788,0.11851 -0.009,0.20676 0.0441,0.32261 0.11987,0.25743 0.0759,-0.0652 0.0839,-0.23435 0.018,-0.37594 z m 7.83278,-4.77293 c 0.35764,-1.79686 0.17652,-2.16035 -0.22022,-0.44195 -0.15628,0.67691 -0.33183,1.38521 -0.3901,1.57399 -0.0582,0.18879 -0.0105,0.34325 0.10542,0.34325 0.11624,0 0.34345,-0.66388 0.50494,-1.47529 z m 0.38329,-2.28819 c -0.0728,-0.15647 -0.12693,-0.10999 -0.13789,0.1185 -0.009,0.20677 0.0441,0.32262 0.11987,0.25744 0.0759,-0.0652 0.0839,-0.23435 0.018,-0.37594 z m -7.28289,-4.55228 -0.0621,-3.55085 -0.30005,2.41175 c -0.18401,1.47896 -0.23714,3.03156 -0.13739,4.01427 0.2776,2.73507 0.56834,1.06163 0.49951,-2.87517 z m 5.56545,38.71782 c 0,-0.26969 0.0518,-0.38002 0.11508,-0.24518 0.0633,0.13485 0.0633,0.35551 0,0.49036 -0.0633,0.13485 -0.11508,0.0245 -0.11508,-0.24518 z m 0.22823,-0.98071 c 0,-0.2697 0.0518,-0.38003 0.11507,-0.24518 0.0633,0.13485 0.0633,0.35551 0,0.49036 -0.0633,0.13484 -0.11507,0.0245 -0.11507,-0.24518 z m 0.22822,-0.98071 c 0,-0.2697 0.0519,-0.38002 0.11507,-0.24518 0.0633,0.13485 0.0633,0.35551 0,0.49036 -0.0633,0.13485 -0.11507,0.0245 -0.11507,-0.24518 z m 0.32299,-1.27493 c 0.20963,-1.37867 1.89415,-6.89122 3.31934,-10.8624 1.95694,-5.45287 2.88644,-6.79435 6.81994,-9.84274 2.1562,-1.67101 2.43821,-1.84267 1.5803,-0.9619 -4.11767,4.2273 -5.03204,5.50848 -6.15469,8.62358 -1.07178,2.974 -2.0326,5.4247 -2.03784,5.19777 -0.002,-0.10788 0.14481,-0.98688 0.32735,-1.95333 0.18253,-0.96645 0.28771,-1.79513 0.23373,-1.84151 -0.21098,-0.18133 -0.76272,1.40379 -2.61806,7.52154 -0.52346,1.72606 -1.0952,3.53547 -1.27055,4.02092 l -0.31881,0.88264 z m -10.14395,-30.55452 c -1.10205,-2.2726 -2.1425,-4.81194 -3.43342,-8.37973 -0.4879,-1.34848 -1.1026,-2.878349 -1.36597,-3.399714 -0.61224,-1.211949 -0.59976,-1.439271 0.0233,-0.425059 0.70868,1.153557 1.68266,3.211563 2.83121,5.982343 1.06532,2.56997 3.07434,8.09223 2.97503,8.17758 -0.0319,0.0273 -0.49537,-0.85262 -1.03015,-1.95542 z m 7.12408,-0.43596 c 8.3e-4,-0.86303 0.041,-1.19169 0.0891,-0.73035 0.0482,0.46133 0.0476,1.16744 -10e-4,1.56914 -0.049,0.40169 -0.0885,0.0242 -0.0876,-0.83879 z m 0.28306,-5.59006 c 0.25709,-7.3315 0.43843,-8.555186 1.86602,-12.591471 0.71332,-2.016847 1.3331,-3.635942 1.37725,-3.597989 0.0442,0.03795 -0.0335,0.408272 -0.17275,0.822931 -0.71945,2.14363 -1.86772,7.540148 -2.17947,10.242981 -0.19437,1.685228 -0.49991,4.255618 -0.67898,5.711978 l -0.32556,2.64792 z m 6.25719,-2.93056 c 0,-0.10151 0.10158,-0.23849 0.22563,-0.3044 0.12937,-0.0687 0.16762,0.01 0.0897,0.18457 -0.15173,0.3398 -0.31531,0.40197 -0.31531,0.11983 z m -9.28044,-6.680414 c 0,-0.809087 0.0403,-1.140077 0.0895,-0.735534 0.0492,0.404544 0.0492,1.066524 0,1.471068 -0.0492,0.404543 -0.0895,0.07355 -0.0895,-0.735534 z m -4.39498,-5.606401 c 0.0105,-0.228495 0.0651,-0.274972 0.13789,-0.118503 0.0659,0.14159 0.0578,0.310764 -0.018,0.375939 -0.0759,0.06518 -0.12978,-0.05067 -0.11987,-0.257436 z"
       id="path57" /></g></svg>
