<?xml version="1.0" encoding="UTF-8" standalone="no"?>
<!-- Created with Inkscape (http://www.inkscape.org/) -->

<svg
   width="100mm"
   height="100mm"
   viewBox="0 0 100 100"
   version="1.1"
   id="svg1"
   inkscape:version="1.4 (86a8ad7, 2024-10-11)"
   sodipodi:docname="tree4.svg"
   xml:space="preserve"
   xmlns:inkscape="http://www.inkscape.org/namespaces/inkscape"
   xmlns:sodipodi="http://sodipodi.sourceforge.net/DTD/sodipodi-0.dtd"
   xmlns="http://www.w3.org/2000/svg"
   xmlns:svg="http://www.w3.org/2000/svg"><sodipodi:namedview
     id="namedview1"
     pagecolor="#ffffff"
     bordercolor="#000000"
     borderopacity="0.25"
     inkscape:showpageshadow="2"
     inkscape:pageopacity="0.0"
     inkscape:pagecheckerboard="true"
     inkscape:deskcolor="#d1d1d1"
     inkscape:document-units="mm"
     inkscape:zoom="0.7232269"
     inkscape:cx="170.76245"
     inkscape:cy="228.83551"
     inkscape:window-width="1920"
     inkscape:window-height="1009"
     inkscape:window-x="1912"
     inkscape:window-y="-8"
     inkscape:window-maximized="1"
     inkscape:current-layer="layer1" /><defs
     id="defs1" /><g
     inkscape:label="Warstwa 1"
     inkscape:groupmode="layer"
     id="layer1"><path
       style="fill:#475744;fill-opacity:1;stroke-width:0.728014"
       d="m 48.505142,87.499491 c -0.74366,-0.11824 -3.34341,-1.05307 -3.59762,-1.29365 -0.12472,-0.11803 -0.59078,-1.21141 -1.03568,-2.42973 -0.4449,-1.21833 -1.45675,-3.55867 -2.24855,-5.20075 -0.7918,-1.64209 -1.43689,-3.20232 -1.43353,-3.46717 0.004,-0.26486 0.19104,-1.37174 0.41705,-2.45976 l 0.41094,-1.9782 -0.40899,-1.10372 c -0.22495,-0.60705 -0.79637,-1.79113 -1.26984,-2.63128 -0.93316,-1.65586 -0.87346,-1.64625 1.028,0.16557 0.5562,0.52997 1.01015,0.87986 1.00881,0.77754 -10e-4,-0.10232 -0.22074,-0.86956 -0.48753,-1.70498 -0.26678,-0.83542 -0.44486,-1.55914 -0.39573,-1.60827 0.0491,-0.0491 0.32857,0.37435 0.62097,0.94108 l 0.53164,1.03041 0.14438,-0.77048 c 0.32427,-1.73043 0.0162,-3.09599 -0.94513,-4.1895 -0.44485,-0.50602 -0.15626,-0.40826 0.81423,0.2758 0.47823,0.33709 0.91972,0.56267 0.9811,0.50129 0.0614,-0.0614 -0.19683,-0.72403 -0.57379,-1.47257 l -0.68537,-1.36098 0.28777,-1.36804 c 0.36988,-1.75834 0.35875,-2.44375 -0.089,-5.48419 -0.64545,-4.38271 -0.64564,-4.38815 -0.0885,-2.60038 0.28062,0.9005 0.61592,2.02733 0.74512,2.50407 l 0.23489,0.86679 0.41611,-0.67417 c 0.22885,-0.3708 0.41642,-0.77354 0.41682,-0.89499 3.9e-4,-0.12145 -0.26642,-0.85822 -0.59294,-1.63727 -0.32651,-0.77906 -1.02672,-3.1488 -1.55603,-5.26609 -0.76031,-3.04139 -0.93637,-4.03221 -0.83852,-4.7192 0.0681,-0.47827 0.33981,-2.20741 0.60375,-3.84255 l 0.47988,-2.97297 -0.61454,-1.70431 c -0.338,-0.93736 -0.57452,-1.74433 -0.5256,-1.79325 0.10651,-0.1065 1.75758,2.28599 2.09716,3.03888 0.3895,0.86357 0.56655,0.60326 0.26203,-0.38524 -0.15503,-0.50322 -0.42177,-1.39168 -0.59276,-1.97436 -0.40303,-1.37338 -0.73937,-2.03101 -1.55159,-3.03377 l -0.66308,-0.81864 h 0.6507 c 0.60697,0 0.69026,0.0809 1.2395,1.20388 1.06505,2.17758 2.05509,3.99399 2.13396,3.91512 0.0427,-0.0426 -0.19098,-1.18139 -0.51914,-2.53055 -0.56911,-2.33978 -0.58659,-2.52869 -0.37859,-4.09167 0.24494,-1.84071 0.162,-2.78916 -0.38583,-4.411659 -0.64006,-1.895675 -0.63641,-1.924106 0.0744,-0.578643 0.37993,0.719182 0.76575,1.261269 0.85738,1.204639 0.0916,-0.05663 0.22808,-0.715195 0.30323,-1.463477 0.0752,-0.748282 0.16973,-1.32742 0.21018,-1.286973 0.0404,0.04045 0.16518,1.367439 0.27718,2.94887 0.13907,1.963573 0.38541,3.608283 0.77684,5.186773 0.82744,3.33671 0.9646,3.80557 1.07965,3.69053 0.12415,-0.12415 -0.758,-7.69924 -1.3046,-11.202725 l -0.39069,-2.504065 -1.20681,-1.829894 c -1.62395,-2.462391 -1.63165,-2.476464 -1.16522,-2.129508 1.24516,0.926219 2.10611,1.959985 2.6926,3.233061 0.66089,1.43457 1.7002,5.579893 1.93383,7.713141 0.0728,0.6645 0.1939,1.24625 0.26916,1.29276 0.19545,0.12079 0.0472,-4.959018 -0.18209,-6.242171 -0.10561,-0.590858 -0.32582,-2.071098 -0.48935,-3.289422 -0.16354,-1.218324 -0.45875,-2.77855 -0.65603,-3.467168 -0.19728,-0.688618 -0.41568,-1.512071 -0.48533,-1.829894 -0.0697,-0.3178242 -0.16802,-0.7512192 -0.21858,-0.9631022 -0.12877,-0.539552 1.64002,2.9055182 1.96572,3.8286582 0.14682,0.416146 0.5308,2.322714 0.85327,4.236819 0.32248,1.914104 0.623,3.516867 0.66783,3.561694 0.0991,0.09913 0.14805,-0.06748 0.55202,-1.880146 0.22227,-0.997361 0.61133,-1.911314 1.29655,-3.045725 0.53845,-0.891422 1.01986,-1.579893 1.06982,-1.529936 0.0499,0.04996 -0.16775,0.857119 -0.48379,1.793693 -1.18281,3.505178 -1.24339,3.841602 -0.99868,5.54552 0.286,1.99137 0.58741,3.20668 0.76765,3.09528 0.0782,-0.0484 0.2001,-0.85395 0.27077,-1.7902 0.0707,-0.93624 0.41887,-2.780874 0.77375,-4.099173 1.1233,-4.172762 1.91187,-6.92644 1.96757,-6.870744 0.0296,0.02964 -0.1973,1.600538 -0.50431,3.490894 -0.61975,3.81612 -1.20919,8.600073 -1.07604,8.733223 0.0474,0.0474 0.14496,-0.33352 0.21686,-0.84645 0.43054,-3.072063 0.89701,-4.79634 2.04081,-7.543725 0.66604,-1.599807 1.23593,-2.883789 1.26642,-2.853293 0.0305,0.0305 -0.11026,0.568902 -0.3128,1.196456 -1.29757,4.020427 -1.52325,5.137614 -1.64098,8.123502 -0.0637,1.6156 -0.0766,2.93746 -0.0287,2.93746 0.0479,0 0.18566,-0.49841 0.3061,-1.10757 0.22091,-1.11735 2.71524,-8.762675 2.82353,-8.654383 0.0658,0.06584 -0.0216,0.595981 -0.98966,6.005854 -0.69807,3.900659 -1.02187,6.419719 -0.70565,5.489679 0.09,-0.26485 0.3825,-0.91494 0.64989,-1.44465 0.51699,-1.0242 1.66734,-4.628343 2.0903,-6.549095 0.36959,-1.678384 0.45135,-0.7179 0.19027,2.235029 -0.16908,1.912176 -0.36342,2.871736 -0.8866,4.377466 -0.59894,1.72375 -1.58807,6.49569 -1.38792,6.69584 0.0432,0.0432 0.31449,-0.95006 0.60292,-2.20721 0.47828,-2.0847 0.80036,-3.00995 2.1545,-6.1893 0.50678,-1.18989 0.62165,-1.06321 0.17746,0.19574 -0.54515,1.54513 -1.66077,5.98714 -1.58602,6.315 0.0415,0.18203 0.21562,-0.12933 0.39231,-0.70155 0.26993,-0.87414 2.60285,-5.80919 2.74615,-5.80919 0.0506,0 -0.37679,1.52192 -1.16305,4.14134 -1.44307,4.80754 -2.18023,8.56244 -1.9001,9.67856 0.18098,0.72111 0.36165,0.49888 0.70417,-0.86618 0.38474,-1.53331 1.42544,-5.06412 1.52073,-5.15941 0.0365,-0.0365 0.0414,1.21742 0.011,2.78642 -0.0458,2.36256 -0.13648,3.12397 -0.5278,4.43137 -0.25988,0.86826 -0.6522,2.56735 -0.87181,3.77576 -0.3676,2.02269 -0.37536,2.24341 -0.0977,2.7803 0.16586,0.32075 0.32951,0.58318 0.36364,0.58318 0.0341,0 0.39091,-0.66534 0.79281,-1.47854 0.64676,-1.30862 2.04427,-3.14435 2.39375,-3.14435 0.0701,0 -0.231,0.73228 -0.66919,1.62729 -0.95145,1.94331 -1.5071,3.61435 -1.50849,4.53657 -5.6e-4,0.37079 0.14603,1.57761 0.32577,2.68181 l 0.32678,2.00764 -0.48146,1.20345 c -0.2648,0.6619 -0.48145,1.54615 -0.48145,1.96502 0,0.41886 -0.13002,1.13007 -0.28893,1.58048 -0.51169,1.45027 -0.32528,1.50396 0.83601,0.24077 0.60872,-0.66213 1.16365,-1.20387 1.23317,-1.20387 0.12364,0 -1.00747,2.08398 -1.9059,3.51149 -0.24872,0.39518 -0.45221,0.86471 -0.45221,1.04342 0,0.1787 -0.29216,0.85644 -0.64925,1.50608 -0.62743,1.14147 -1.38748,3.33109 -1.21585,3.50272 0.0462,0.0461 0.31857,-0.50492 0.60538,-1.22458 0.80886,-2.02964 1.51663,-3.12836 2.88667,-4.48116 0.6943,-0.68556 1.26236,-1.18944 1.26236,-1.11974 0,0.0697 -0.37761,0.67828 -0.83915,1.35242 -0.46152,0.67413 -0.94792,1.56807 -1.08087,1.98653 -0.13296,0.41846 -0.34871,0.9342 -0.47945,1.14608 -0.32154,0.52109 -1.08825,2.60038 -0.95886,2.60038 0.0569,0 0.23457,-0.32505 0.39485,-0.72233 0.5554,-1.37666 1.8721,-4.09304 1.94747,-4.01768 0.0416,0.0417 -0.0523,0.56595 -0.20875,1.1651 -0.28011,1.07267 -0.27483,1.11804 0.34387,2.95816 0.34559,1.02783 0.73794,2.45188 0.8719,3.16455 l 0.24356,1.29578 -1.25362,2.07508 c -1.0027,1.65971 -2.96488,5.83118 -2.7429,5.83118 0.028,0 0.27197,-0.33396 0.5421,-0.74214 0.60159,-0.90908 2.62257,-2.38022 3.9766,-2.89471 l 1.00301,-0.38111 -1.29109,1.18305 c -0.7101,0.65068 -1.48305,1.33404 -1.71766,1.51859 -0.23871,0.18777 -1.2983,2.22687 -2.40601,4.63018 -1.08868,2.36206 -2.05343,4.38806 -2.14387,4.50223 -0.25748,0.32504 -2.26926,1.26291 -3.54322,1.65181 -1.07959,0.32956 -2.2352,0.40728 -3.37086,0.22672 z m -4.42044,-17.19991 c -1.19568,-3.12683 -1.42282,-3.52835 -1.27611,-2.25573 0.059,0.51118 0.54131,1.95474 1.07196,3.20791 0.53064,1.25317 0.97867,2.39516 0.99563,2.53775 0.017,0.1426 0.0649,-0.0112 0.10665,-0.34183 0.0505,-0.40032 -0.24949,-1.45185 -0.89813,-3.1481 z m 14.53415,-0.009 0.89249,-1.34249 -0.1357,-1.55559 c -0.0746,-0.85557 -0.1973,-1.48493 -0.27259,-1.39857 -0.10961,0.12572 -0.80125,2.38462 -1.69392,5.53236 -0.18078,0.6375 0.27168,0.17532 1.20972,-1.23571 z m -12.31744,-8.17577 c -0.0722,-0.48163 -0.21269,-0.87569 -0.31214,-0.87569 -0.24676,0 -0.22702,0.51904 0.0488,1.28167 0.30714,0.84938 0.42451,0.66847 0.26339,-0.40598 z m -1.82668,-3.11599 c -0.20758,-0.26389 -0.47528,-0.95127 -0.59491,-1.52751 -0.2198,-1.05878 -0.57543,-1.42769 -0.57543,-0.59692 0,0.59848 1.1377,2.85763 1.36756,2.71558 0.0991,-0.0613 0.0103,-0.32727 -0.19722,-0.59115 z m 0.94459,-2.87545 c -0.3336,-0.96963 -0.76659,-1.76026 -0.76659,-1.39978 0,0.11421 0.37454,1.18399 0.75628,2.16013 0.39818,1.01815 0.40667,0.39168 0.0103,-0.76035 z m 12.11978,-7.83798 c -0.0106,-0.45025 -0.0819,-1.03533 -0.15864,-1.30018 l -0.13943,-0.48155 -0.14248,0.43087 c -0.17152,0.51874 0.0483,2.1695 0.289,2.1695 0.0939,0 0.16211,-0.36839 0.15155,-0.81864 z m -14.33513,-5.38136 c -0.40266,-1.19822 -0.83109,-2.61198 -0.95206,-3.14169 l -0.21995,-0.9631 -0.13599,1.24863 c -0.13104,1.20311 -0.10269,1.32404 0.77729,3.31646 1.19479,2.70518 1.50427,2.43676 0.53071,-0.4603 z m 0.35934,-3.47878 c -0.0642,-0.3443 -0.4135,-1.40612 -0.77625,-2.3596 -1.03126,-2.71054 -1.36866,-2.63171 -0.41224,0.0963 0.20429,0.58268 0.51355,1.47114 0.68726,1.97436 0.36022,1.04351 0.67579,1.22542 0.50123,0.28893 z"
       id="path60" /><path
       style="fill:#5d6d58;fill-opacity:1;stroke-width:0.728014"
       d="m 48.794072,87.416231 c -0.63565,-0.0909 -1.78471,-0.40397 -2.55348,-0.69567 -1.32968,-0.50454 -1.41322,-0.57273 -1.71562,-1.40033 -1.0289,-2.81587 -1.67156,-4.3851 -2.60453,-6.35963 -0.57565,-1.21833 -1.16875,-2.47518 -1.31798,-2.793 -0.14923,-0.31782 -0.29913,-0.63126 -0.33311,-0.69652 -0.034,-0.0653 0.29979,-0.17647 0.74171,-0.24714 0.67829,-0.10846 0.84675,-0.0667 1.0811,0.26787 0.15269,0.21799 0.59625,0.7646 0.98569,1.2147 0.38945,0.45009 0.90433,1.06794 1.14418,1.373 0.7671,0.97566 0.62635,0.43743 -0.27431,-1.04891 -1.6661,-2.74953 -1.79155,-3.07925 -1.57844,-4.14876 0.35586,-1.78598 0.16451,-1.93386 2.13309,1.64849 0.3202,0.58267 0.70506,1.23277 0.85524,1.44465 0.24706,0.34854 0.26128,0.30267 0.14934,-0.48155 -0.30704,-2.15084 -0.6888,-3.54525 -1.55755,-5.68907 -0.9153,-2.25867 -0.93288,-2.34091 -0.88079,-4.11958 l 0.0531,-1.81489 1.03035,-1.36334 c 0.56669,-0.74984 1.4251,-2.25313 1.90757,-3.34064 0.90076,-2.03036 0.91008,-2.41798 0.0217,-0.90205 -0.27617,0.47126 -0.58642,0.85683 -0.68944,0.85683 -0.10301,0 -0.13846,0.15386 -0.0788,0.34191 0.10648,0.3355 -0.38303,1.0648 -2.34462,3.49318 l -0.81742,1.01193 -0.19384,-0.50985 c -0.10661,-0.28041 -0.19384,-0.55582 -0.19384,-0.61203 0,-0.0562 -0.17926,-0.35394 -0.39836,-0.66163 -0.49206,-0.69104 -0.34933,-0.70858 0.4992,-0.0614 1.00559,0.76701 1.11346,0.4184 0.341,-1.10212 -0.6865,-1.3513 -0.69108,-1.37627 -0.47123,-2.56944 0.30095,-1.63329 0.27797,-3.70026 -0.0643,-5.78335 -0.15666,-0.95348 -0.28024,-1.90695 -0.27462,-2.11883 0.014,-0.5314 0.46555,0.73156 0.74819,2.09305 0.1239,0.59685 0.30582,1.08519 0.40425,1.08519 0.0984,0 0.17896,-0.12654 0.17896,-0.2812 0,-0.16127 0.32927,-0.37985 0.77206,-0.51251 0.63626,-0.19063 1.12048,-0.64094 2.75275,-2.55996 3.47304,-4.08316 3.52021,-4.16109 4.01313,-6.63 0.0671,-0.3357 0.32981,1.94888 0.36183,3.14564 0.0618,2.31073 0.34122,0.66214 0.37541,-2.21513 l 0.0309,-2.60038 0.47595,1.73359 c 0.98866,3.60104 0.98432,3.52288 0.2625,4.7192 -1.25048,2.0725 -1.7659,2.8893 -1.82319,2.8893 -0.032,0 -0.32779,-0.57635 -0.65743,-1.28079 -0.32965,-0.70444 -0.64016,-1.23999 -0.69004,-1.19012 -0.0499,0.0499 0.12273,0.73458 0.38356,1.52157 0.5951,1.79553 0.5943,1.8722 -0.0328,3.15094 l -0.51713,1.05441 -0.5144,-1.19461 c -0.28293,-0.65703 -0.73417,-1.57224 -1.00277,-2.03379 -0.43487,-0.74728 -0.51009,-0.80035 -0.68678,-0.48462 -0.1603,0.28645 -0.0382,0.57903 0.63528,1.5229 0.93015,1.3035 1.37926,2.59796 1.08423,3.12514 -0.13572,0.24251 -0.0757,0.53069 0.21997,1.05682 0.22361,0.39786 0.45644,0.72339 0.51739,0.72339 0.16876,0 0.4892,-0.56448 1.77322,-3.12371 0.64808,-1.29171 1.29679,-2.46703 1.44157,-2.61181 0.14478,-0.14478 0.26323,-0.45821 0.26323,-0.69652 0,-0.49784 1.16625,-3.86097 2.19098,-6.31816 0.70231,-1.68407 0.92145,-2.59207 0.4094,-1.69634 -0.1514,0.26486 -0.27835,0.58556 -0.2821,0.71268 -0.004,0.12713 -0.30505,0.72619 -0.66953,1.33126 -0.66099,1.09726 -0.66303,1.09866 -0.78513,0.53935 -0.0673,-0.30842 -0.49962,-1.38422 -0.96062,-2.39066 -0.46102,-1.00645 -1.01825,-2.30663 -1.23828,-2.88931 -0.69387,-1.83742 -0.8205,-1.81843 -0.72754,0.1091 0.0738,1.53071 0.0308,1.85116 -0.34865,2.59487 l -0.43287,0.8485 -0.11807,-3.46167 c -0.0649,-1.90391 -0.20627,-4.50181 -0.31409,-5.7731 -0.15567,-1.83581 -0.13632,-2.78709 0.094,-4.62289 0.15954,-1.2713 0.29076,-2.42944 0.29161,-2.57366 0.002,-0.19697 0.17532,-0.22961 0.69992,-0.1312 0.65821,0.12348 0.69221,0.10533 0.59102,-0.31564 -0.059,-0.24567 -0.16814,-0.79339 -0.2424,-1.21715 -0.25139,-1.43461 0.0665,-0.58919 0.57952,1.54096 0.28063,1.16535 0.68859,2.68224 0.90658,3.37086 0.59317,1.8738 2.17124,4.61104 3.51501,6.09694 0.98465,1.08881 2.04194,2.56558 2.04194,2.85207 0,0.11582 -1.19821,0.48939 -1.5697,0.48939 -0.23614,0 -0.36237,-0.14632 -0.37387,-0.4334 -0.0134,-0.33385 -0.0589,-0.28947 -0.19828,0.19321 -0.12681,0.43923 -0.10303,0.89369 0.0795,1.51982 l 0.26046,0.89323 0.50458,-0.86101 c 0.63842,-1.08938 1.10465,-1.51481 1.10465,-1.00798 0,0.58662 0.32878,0.054 0.54427,-0.88173 0.1098,-0.47674 0.51494,-1.73359 0.90034,-2.793 l 0.70071,-1.9262 -0.0787,1.46244 c -0.0435,0.80976 -0.34989,2.44312 -0.68639,3.65979 -0.33425,1.20854 -0.70416,2.83447 -0.82202,3.61318 l -0.21432,1.41583 -0.56108,-0.98244 c -0.30861,-0.54034 -0.59869,-0.98244 -0.64465,-0.98244 -0.0867,0 0.0743,0.34706 1.87613,4.04503 0.77002,1.5803 1.16287,2.67133 1.37077,3.80691 0.28872,1.577 0.28707,1.60114 -0.17815,2.60038 -0.27951,0.60036 -0.47034,1.36379 -0.47146,1.88615 -7.3e-4,0.48265 -0.18484,1.4193 -0.40844,2.08144 -0.22361,0.66215 -0.35951,1.25096 -0.30201,1.30847 0.0575,0.0575 0.63193,-0.44575 1.27649,-1.11835 l 1.17192,-1.22291 -0.9815,1.73359 c -0.53983,0.95347 -1.06132,1.81593 -1.15886,1.91657 -0.0975,0.10065 -0.17734,0.33435 -0.17734,0.51934 0,0.185 -0.3284,0.97097 -0.72978,1.74661 -0.73473,1.41984 -1.53466,3.92244 -1.3218,4.1353 0.063,0.063 0.2062,-0.13579 0.31816,-0.44183 1.15371,-3.15363 2.29246,-4.93675 4.04487,-6.33365 l 0.48155,-0.38386 -0.41087,0.48017 c -0.22598,0.2641 -0.54367,0.74021 -0.70598,1.05803 -0.16232,0.31783 -0.4629,0.75539 -0.66797,0.97236 -0.20507,0.21698 -0.43655,0.73406 -0.51441,1.14907 -0.0778,0.41501 -0.26289,0.98919 -0.41118,1.27595 -0.36962,0.71477 -0.89882,2.30339 -0.80016,2.40204 0.0443,0.0443 0.58929,-1.01304 1.21105,-2.3497 0.62176,-1.33666 1.15765,-2.34874 1.19087,-2.24908 0.0332,0.0997 -0.34097,1.56054 -0.83155,3.24638 -0.49057,1.68585 -1.04876,3.62859 -1.24042,4.31721 -0.53588,1.92536 -1.35763,4.20553 -2.85934,7.93399 -2.02136,5.01863 -2.19238,5.4719 -1.98492,5.26051 0.10397,-0.10594 0.94025,-1.7095 1.85839,-3.56348 2.70884,-5.46985 2.99939,-6.00734 3.95664,-7.31957 1.39571,-1.91325 1.72667,-2.64524 1.7405,-3.84956 0.0102,-0.88658 0.0431,-0.98488 0.19918,-0.59435 0.10284,0.25735 0.23811,0.95715 0.30061,1.55511 0.0996,0.95269 0.0511,1.18625 -0.3918,1.88786 -0.27799,0.44036 -0.50544,0.85178 -0.50544,0.91425 0,0.0625 -0.24597,0.47592 -0.54661,0.91877 -0.30064,0.44286 -0.81399,1.41195 -1.14077,2.15353 -0.32679,0.74159 -0.81759,1.85723 -1.09066,2.47919 -0.27308,0.62197 -0.49458,1.22872 -0.49222,1.34834 0.005,0.26849 0.75596,-0.66647 0.76191,-0.94895 0.0157,-0.74533 2.24143,-2.62801 3.98809,-3.37341 l 0.92802,-0.39604 -1.78174,1.66536 c -0.97996,0.91595 -1.78174,1.74958 -1.78174,1.8525 0,0.20839 -0.38266,1.07741 -1.72706,3.92211 -0.50067,1.05941 -1.1516,2.45314 -1.4465,3.09718 -0.50459,1.10198 -0.61701,1.2118 -1.90771,1.86366 -1.21022,0.61121 -3.44394,1.34131 -3.90339,1.27583 -0.0906,-0.0129 -0.68488,-0.0979 -1.32053,-0.18879 z m 0.40916,-3.83274 1.11847,-2.21514 0.17151,1.04698 0.17151,1.04699 0.37381,-0.46912 c 0.47493,-0.59603 2.43865,-3.47323 3.14669,-4.61047 0.38373,-0.61631 0.43418,-0.77878 0.17464,-0.56223 -2.78099,2.3202 -3.70414,3.0663 -3.79398,3.0663 -0.12205,0 0.34865,-1.64027 1.16078,-4.04503 0.35583,-1.05362 0.87486,-2.07267 1.45599,-2.85866 0.49668,-0.67176 0.98699,-1.53855 1.08958,-1.9262 0.10258,-0.38765 0.71382,-2.8718 1.35832,-5.52033 0.64449,-2.64853 1.21755,-4.98887 1.27346,-5.20075 0.18906,-0.7164 -0.27098,0.11225 -0.90895,1.63727 -0.33239,0.79456 -0.72536,1.61801 -0.87326,1.8299 -0.25088,0.35941 -0.26126,0.3465 -0.15475,-0.19262 0.0642,-0.32523 -0.0993,-1.60607 -0.37406,-2.92967 -0.44149,-2.12677 -0.63031,-2.61888 -1.9734,-5.14313 -0.81685,-1.53523 -1.55003,-2.75125 -1.62928,-2.70227 -0.0792,0.049 -0.19947,0.3412 -0.26716,0.64939 -0.1215,0.55316 0.008,0.96291 1.17123,3.6933 0.25293,0.5939 0.85568,2.19746 1.33945,3.56348 0.48378,1.36601 1.05226,2.77764 1.26329,3.13695 0.35401,0.60275 0.36606,0.76667 0.15578,2.11882 -0.30976,1.99185 -1.07974,3.93341 -2.97593,7.50406 -1.13405,2.13551 -1.74627,3.54826 -2.09937,4.84453 -1.47333,5.4087 -1.79817,6.74324 -1.59409,6.54909 0.0557,-0.053 0.60455,-1.09312 1.21972,-2.31144 z m 1.11804,-9.53471 c 0.44488,-0.63565 1.0482,-1.76248 1.34072,-2.50407 0.29253,-0.74159 1.08328,-2.30181 1.75723,-3.46717 0.67396,-1.16535 1.14435,-2.14766 1.04531,-2.18291 -0.099,-0.0352 -0.48188,0.12244 -0.85076,0.35043 -0.49658,0.3069 -0.72446,0.62358 -0.87777,1.21981 -0.57806,2.24797 -0.82725,2.73604 -2.03229,3.9805 -0.66518,0.68695 -1.25988,1.19854 -1.32156,1.13687 -0.0617,-0.0617 0.23584,-1.16428 0.66115,-2.45023 0.42531,-1.28594 0.77329,-2.4802 0.77329,-2.6539 0,-0.43941 -1.00362,-4.76255 -1.14524,-4.93315 -0.0636,-0.0766 -0.12101,0.18347 -0.12768,0.57786 -0.007,0.39439 -0.11811,2.00742 -0.24767,3.58452 -0.12955,1.5771 -0.21804,3.59605 -0.19662,4.48656 0.0342,1.42265 -0.0123,1.67806 -0.38342,2.10488 -0.5855,0.67338 -0.74016,1.15742 -0.89344,2.79618 l -0.13292,1.42098 0.91141,-1.15572 c 0.50128,-0.63565 1.2754,-1.6758 1.72026,-2.31144 z m -4.77049,-5.73046 c -0.0534,-0.13243 -0.0971,-0.0241 -0.0971,0.24077 0,0.26486 0.0438,0.37321 0.0971,0.24078 0.0534,-0.13243 0.0534,-0.34913 0,-0.48155 z m -0.18861,-0.75844 c -0.0615,-0.15366 -0.10713,-0.10802 -0.11637,0.11637 -0.008,0.20305 0.0371,0.31682 0.10116,0.25281 0.064,-0.064 0.0708,-0.23014 0.0152,-0.36918 z m -0.94294,-1.9864 c -0.23162,-0.47674 -0.49053,-0.8668 -0.57537,-0.8668 -0.23938,0 -0.19088,0.14222 0.32973,0.96693 0.64509,1.02189 0.76667,0.97232 0.24564,-0.10013 z m 2.60901,-2.56169 c -0.22019,-0.57658 -0.36587,-0.75356 -0.47658,-0.57901 -0.10737,0.16928 -0.16041,0.0835 -0.1624,-0.26256 -0.006,-0.96868 -0.40454,-1.47526 -0.65266,-0.82867 -0.11321,0.29503 0.39836,1.83206 0.67256,2.02071 0.22482,0.15469 0.55263,1.11861 0.57612,1.69405 0.0143,0.35158 0.0754,0.24 0.1906,-0.34847 0.12936,-0.66068 0.0944,-1.06227 -0.14764,-1.69605 z m 5.90717,-0.33899 c 0,-0.15266 -0.0867,-0.27756 -0.19262,-0.27756 -0.10594,0 -0.19262,0.17847 -0.19262,0.39661 0,0.21813 0.0867,0.34304 0.19262,0.27756 0.10594,-0.0655 0.19262,-0.24395 0.19262,-0.39661 z m -7.70482,-3.01547 c 0,-0.0958 -0.0867,-0.12056 -0.19262,-0.0551 -0.10594,0.0655 -0.19262,0.0151 -0.19262,-0.11186 0,-0.127 -0.11682,-0.32714 -0.2596,-0.44476 -0.14278,-0.11762 -0.41244,-0.79894 -0.59925,-1.51405 -0.35148,-1.34543 -0.56435,-1.58944 -0.7837,-0.89832 -0.12287,0.38713 0.89855,2.81667 1.29517,3.0807 0.0923,0.0614 0.10683,0.27814 0.0323,0.48155 -0.13332,0.36388 -0.12876,0.36393 0.2824,0.003 0.22985,-0.20181 0.4179,-0.4453 0.4179,-0.54107 z m 11.15308,-3.19931 c 0.67795,-1.10684 0.98201,-1.80762 0.98201,-2.26329 0,-0.36301 -0.065,-0.65578 -0.14447,-0.65058 -0.15988,0.0105 -2.22772,3.19754 -2.32362,3.58132 -0.0608,0.24318 0.32722,1.12084 0.44227,1.00046 0.034,-0.0356 0.5037,-0.78612 1.04381,-1.66791 z m -10.3826,1.25176 c 0,-0.14709 -0.93851,-2.77657 -1.16361,-3.26013 -0.31897,-0.68525 -0.48401,-0.66818 -0.74375,0.0769 -0.32103,0.92091 -0.28166,1.04225 0.70349,2.1684 0.7885,0.90135 1.20387,1.2515 1.20387,1.01483 z m 12.2394,-2.7267 c 0.38165,-0.65124 0.47444,-1.00582 0.37806,-1.44466 -0.16538,-0.75298 -0.48237,-0.75136 -0.48237,0.003 0,0.32123 -0.13002,0.89523 -0.28893,1.27556 -0.54424,1.30255 -0.32651,1.3948 0.39324,0.16663 z m -1.84176,-3.16992 c 0.33804,-1.05279 0.58265,-2.07127 0.54358,-2.26329 -0.0676,-0.33198 -0.9901,2.3362 -1.24026,3.587 -0.23548,1.17739 0.0956,0.54837 0.69668,-1.32371 z m -1.57299,-0.87884 c 1.15213,-4.67179 1.33552,-5.51802 1.15723,-5.33972 -0.23995,0.23995 -1.02179,3.12219 -1.57453,5.80448 -0.57475,2.78907 -0.31334,2.49794 0.4173,-0.46476 z m 2.82889,-2.02251 c 0.16822,-0.76591 -0.16042,-2.50407 -0.47345,-2.50407 -0.2658,0 -0.36216,1.39486 -0.15637,2.26329 0.22779,0.96123 0.4527,1.04721 0.62982,0.24078 z m -5.87364,-15.17329 c 0.14211,-0.85795 0.13939,-1.32183 -0.009,-1.59982 -0.11524,-0.21533 -0.41642,-1.30709 -0.66927,-2.42612 -0.25285,-1.11903 -0.49378,-2.06865 -0.53539,-2.11026 -0.086,-0.086 -0.3282,4.59539 -0.3282,6.34294 0,0.63396 0.18644,1.76876 0.4143,2.52177 l 0.4143,1.36911 0.25675,-1.44466 c 0.14121,-0.79456 0.34682,-1.98839 0.4569,-2.65296 z m 0.84208,0.29336 c 0.0754,-0.31446 0.0473,-0.5297 -0.0692,-0.5297 -0.10796,0 -0.19629,0.27448 -0.19629,0.60996 0,0.70139 0.0841,0.67597 0.2655,-0.0803 z m -12.32791,40.64375 c 0.35455,-1.11205 0.70984,-3.74165 0.59633,-4.41352 -0.1185,-0.7014 -1.54336,-3.70696 -2.08338,-4.39463 -0.12259,-0.15612 0.26472,0.13281 0.86071,0.64207 0.59598,0.50926 1.19572,1.1354 1.33273,1.39143 0.13702,0.25602 0.3072,0.46549 0.37816,0.46549 0.10801,0 0.36478,-1.46697 0.64062,-3.65979 0.0889,-0.70644 0.24001,-0.16915 0.49049,1.74359 0.42586,3.25191 0.3703,3.57961 -1.05356,6.21358 -0.69812,1.29141 -1.22106,2.19672 -1.1621,2.01178 z m 2.90423,-23.50053 c -0.072,-0.23837 -0.38125,-0.98119 -0.68715,-1.65071 -0.30589,-0.66953 -0.55618,-1.3318 -0.55618,-1.47172 0,-0.13993 -0.22548,-1.10902 -0.50107,-2.15354 -0.56527,-2.14245 -1.0477,-4.30726 -1.02418,-4.59575 0.009,-0.10599 0.14028,0.0923 0.29251,0.44074 0.15224,0.34839 0.42688,0.6894 0.61031,0.7578 0.18342,0.0684 0.44778,0.2832 0.58746,0.47735 0.13967,0.19415 0.32525,0.30893 0.4124,0.25507 0.0872,-0.0539 0.39577,0.46046 0.68583,1.14294 0.50879,1.19713 0.5196,1.29316 0.30678,2.72405 -0.12132,0.81574 -0.18752,1.51624 -0.14709,1.55667 0.0404,0.0404 0.51857,-0.91121 1.06255,-2.11473 l 0.98905,-2.18824 v -2.45304 c 0,-2.27036 0.60484,-7.33993 0.7149,-5.99206 0.10815,1.32446 0.91209,6.31425 1.33374,8.27807 0.45365,2.11286 0.45369,2.11447 0.0694,2.49872 -0.32214,0.32213 -0.3845,0.33428 -0.3845,0.0749 0,-0.17029 -0.1284,-0.7313 -0.28534,-1.24668 -0.15694,-0.51539 -0.37768,-1.30807 -0.49054,-1.76152 -0.11286,-0.45345 -0.27531,-0.78112 -0.36099,-0.72817 -0.19802,0.12239 0.0536,1.68186 0.44862,2.78072 0.42935,1.19427 0.37352,1.56324 -0.36257,2.39642 -0.5467,0.61878 -0.66389,0.67979 -0.74012,0.38524 -0.0706,-0.27273 -0.0955,-0.25187 -0.11292,0.0945 -0.029,0.57587 -1.31141,2.92637 -1.59666,2.92637 -0.0733,0 -0.19224,-0.19503 -0.26428,-0.43339 z m 15.51034,-4.32054 c -0.1978,-0.6602 -0.19311,-0.91819 0.0262,-1.44455 0.4702,-1.12841 1.54787,-2.74359 2.16172,-3.23991 l 0.59557,-0.48156 -0.60449,1.05942 c -0.60421,1.05889 -0.93532,1.86098 -1.59003,3.85167 l -0.34818,1.05867 z m -10.65957,-1.80686 c -0.0676,-0.33787 -0.12403,-1.05855 -0.12546,-1.60149 -10e-4,-0.54295 -0.17246,-2.67743 -0.38007,-4.74328 -0.20761,-2.06586 -0.42083,-4.27618 -0.4738,-4.91182 l -0.0963,-1.15573 0.27471,1.05942 c 0.40323,1.55511 1.42881,7.77718 1.55667,9.44407 0.0937,1.22176 0.0542,1.52081 -0.26125,1.98107 l -0.37161,0.54208 z m -4.05462,-2.92801 c -0.0692,-0.46127 -0.16846,-1.22372 -0.22062,-1.69432 -0.12248,-1.10486 -0.78688,-3.33636 -1.28277,-4.3084 -0.35377,-0.69345 -1.38397,-3.51104 -1.62511,-4.44469 -0.11235,-0.43496 0.37195,0.46302 2.50441,4.64373 l 1.48439,2.91014 -0.2892,1.78804 c -0.15906,0.98342 -0.32432,1.82317 -0.36727,1.86611 -0.0429,0.0429 -0.13467,-0.29933 -0.20383,-0.76061 z m -0.86855,0.32328 c 0.009,-0.22439 0.0549,-0.27003 0.11638,-0.11637 0.0556,0.13905 0.0488,0.30518 -0.0152,0.36919 -0.064,0.064 -0.10954,-0.0498 -0.10118,-0.25282 z m -2.31144,-5.20075 c 0.009,-0.22439 0.0549,-0.27003 0.11637,-0.11637 0.0556,0.13905 0.0488,0.30518 -0.0152,0.36919 -0.064,0.064 -0.10954,-0.0498 -0.10117,-0.25282 z m 15.99087,-0.27288 c -0.013,-0.15891 -0.45588,-0.93451 -0.98421,-1.72356 -0.80474,-1.20188 -0.96058,-1.57817 -0.96058,-2.31944 0,-1.13686 0.52431,-5.12404 0.77281,-5.87695 l 0.19072,-0.57786 -0.0863,0.59901 c -0.35721,2.47919 -0.22819,2.41859 0.45516,-0.21377 0.41253,-1.58912 0.97559,-3.71276 1.25124,-4.7192 l 0.50119,-1.829893 -0.12258,1.733583 c -0.0826,1.16843 -0.29728,2.20937 -0.65846,3.19302 -0.61624,1.67827 -1.45043,5.32412 -1.60527,7.01586 l -0.10578,1.15573 0.37624,-1.15573 c 0.20693,-0.63564 0.51197,-1.80581 0.67788,-2.60037 0.26284,-1.25881 1.78815,-5.49188 1.92748,-5.34921 0.028,0.0287 -0.24577,1.0923 -0.6084,2.36359 -0.6672,2.33903 -1.32696,5.45927 -1.18447,5.60176 0.0427,0.0427 0.31776,-0.68015 0.61126,-1.60634 0.51756,-1.63331 2.21215,-5.32969 2.37069,-5.17115 0.0432,0.0432 -0.20056,1.01878 -0.54158,2.16806 -1.08605,3.66006 -1.74493,6.28025 -2.00277,7.96452 -0.13785,0.9005 -0.26127,1.50726 -0.27426,1.34834 z m -15.79825,-0.88284 c 0.009,-0.22439 0.0549,-0.27003 0.11638,-0.11637 0.0556,0.13904 0.0488,0.30518 -0.0152,0.36918 -0.064,0.064 -0.10953,-0.0498 -0.10117,-0.25281 z m 5.38756,-1.09027 c -0.13472,-0.45094 -0.39864,-1.12326 -0.58649,-1.49405 -0.18785,-0.3708 -0.53332,-1.36761 -0.76771,-2.21514 -0.23439,-0.84753 -0.49209,-1.61097 -0.57267,-1.69653 -0.18687,-0.19843 0.0963,1.64552 0.54789,3.56823 0.19204,0.81756 0.29704,1.45362 0.23335,1.41349 -0.56167,-0.35396 -1.54759,-3.48095 -2.41744,-7.6673 -0.0555,-0.26682 0.0618,-0.33709 0.5625,-0.33709 0.67741,0 0.93416,0.2093 1.16056,0.94605 0.0785,0.25548 0.52071,1.27341 0.98266,2.26207 0.73708,1.57747 0.8638,2.04951 1.03487,3.85509 0.10723,1.13164 0.16627,2.08622 0.13119,2.12129 -0.0351,0.0351 -0.17399,-0.30518 -0.30871,-0.75611 z m 7.46786,-2.50007 c -0.26065,-0.34719 -0.52734,-0.72254 -0.59266,-0.83411 -0.0653,-0.11158 0.0516,-0.84835 0.25988,-1.63728 0.20824,-0.78893 0.5046,-2.17119 0.65858,-3.07169 0.37013,-2.16465 1.68533,-7.91165 1.78727,-7.809719 0.086,0.08603 -0.079,1.152196 -0.92551,5.979829 -0.37525,2.14006 -0.54851,3.8157 -0.5669,5.48295 -0.0146,1.32056 -0.0536,2.42808 -0.0866,2.46115 -0.0331,0.0331 -0.27339,-0.22394 -0.53404,-0.57113 z m -7.0616,-0.34233 c 0,-0.26485 0.0437,-0.3732 0.0972,-0.24077 0.0534,0.13242 0.0534,0.34912 0,0.48155 -0.0534,0.13243 -0.0972,0.0241 -0.0972,-0.24078 z m 4.67945,-6.16385 c 0.0687,-0.68862 0.19613,-2.24884 0.2831,-3.46717 0.14246,-1.995749 0.93519,-6.463753 1.11494,-6.28401 0.0398,0.03981 -0.0628,0.884912 -0.22811,1.878008 -0.16527,0.993096 -0.46557,3.395196 -0.66734,5.338002 -0.20176,1.94281 -0.4255,3.58971 -0.4972,3.65979 -0.0717,0.0701 -0.0741,-0.436 -0.005,-1.12462 z m -7.27814,-1.09152 c -0.0706,-0.0706 -0.11296,-0.95908 -0.0941,-1.97435 l 0.0344,-1.845951 0.11319,1.926201 c 0.12514,2.12968 0.12671,2.07424 -0.0534,1.8941 z m 5.85803,-0.36918 c 0.009,-0.2244 0.0549,-0.27004 0.11637,-0.11638 0.0556,0.13905 0.0488,0.30518 -0.0152,0.36919 -0.064,0.064 -0.10954,-0.0498 -0.10117,-0.25281 z m 6.16385,-6.74172 c 0.009,-0.224392 0.0549,-0.270034 0.11638,-0.116375 0.0556,0.139048 0.0488,0.305183 -0.0152,0.369189 -0.064,0.06401 -0.10953,-0.04976 -0.10117,-0.252814 z m -3.25934,-2.391704 c 0,-0.264853 0.0437,-0.373202 0.0971,-0.240775 0.0534,0.132426 0.0534,0.349124 0,0.481551 -0.0534,0.132427 -0.0971,0.02408 -0.0971,-0.240776 z m 0.19262,-1.155722 c 0,-0.264853 0.0437,-0.373202 0.0972,-0.240776 0.0534,0.132427 0.0534,0.349124 0,0.481552 -0.0534,0.132426 -0.0972,0.02407 -0.0972,-0.240776 z"
       id="path59" /></g></svg>
