<?xml version="1.0" encoding="UTF-8" standalone="no"?>
<!-- Created with Inkscape (http://www.inkscape.org/) -->

<svg
   width="100mm"
   height="100mm"
   viewBox="0 0 100 100"
   version="1.1"
   id="svg1"
   inkscape:version="1.4 (86a8ad7, 2024-10-11)"
   sodipodi:docname="tree1.svg"
   xml:space="preserve"
   xmlns:inkscape="http://www.inkscape.org/namespaces/inkscape"
   xmlns:sodipodi="http://sodipodi.sourceforge.net/DTD/sodipodi-0.dtd"
   xmlns="http://www.w3.org/2000/svg"
   xmlns:svg="http://www.w3.org/2000/svg"><sodipodi:namedview
     id="namedview1"
     pagecolor="#ffffff"
     bordercolor="#000000"
     borderopacity="0.25"
     inkscape:showpageshadow="2"
     inkscape:pageopacity="0.0"
     inkscape:pagecheckerboard="true"
     inkscape:deskcolor="#d1d1d1"
     inkscape:document-units="mm"
     inkscape:zoom="0.7232269"
     inkscape:cx="170.76245"
     inkscape:cy="163.84899"
     inkscape:window-width="1920"
     inkscape:window-height="1009"
     inkscape:window-x="1912"
     inkscape:window-y="-8"
     inkscape:window-maximized="1"
     inkscape:current-layer="layer1" /><defs
     id="defs1" /><g
     inkscape:label="Warstwa 1"
     inkscape:groupmode="layer"
     id="layer1"><path
       style="fill:#475744;fill-opacity:1;stroke-width:0.727376"
       d="m 51.369358,86.956434 -1.429145,-0.71589 -0.993681,-2.22627 c -0.733667,-1.643717 -1.279229,-3.355934 -2.084894,-6.543356 -1.02217,-4.043996 -1.190071,-4.517956 -2.654202,-7.492537 -1.71243,-3.479011 -2.506516,-5.196193 -2.402927,-5.196193 0.08704,0 1.918973,2.424723 3.088591,4.087955 0.501804,0.713574 0.983437,1.341335 1.070308,1.395025 0.432341,0.267195 -1.829453,-5.733563 -3.099152,-8.22238 -0.207041,-0.405813 -0.463184,-0.97305 -0.569217,-1.260528 -0.160149,-0.434178 -0.06282,-0.376039 0.575182,0.343346 0.422392,0.476319 1.140292,1.405241 1.595326,2.064275 0.455046,0.659033 0.884614,1.200304 0.95462,1.202823 0.298237,0.01075 -1.602876,-5.988742 -2.467432,-7.786611 -0.05173,-0.10755 0.0206,-0.05602 0.160804,0.114534 0.14016,0.170547 0.900166,1.488225 1.688898,2.928175 0.788733,1.439948 1.459457,2.5927 1.490481,2.561668 0.06893,-0.06898 -0.903991,-2.937636 -1.444968,-4.260316 -0.21647,-0.529241 -0.811132,-1.742855 -1.32147,-2.69692 -0.510349,-0.954064 -1.042328,-1.993304 -1.18216,-2.30942 -0.346239,-0.782727 -0.08523,-0.504209 1.772543,1.891229 0.805587,1.038747 1.464709,1.742917 1.464709,1.564823 0,-0.178094 -0.401905,-1.484783 -0.893114,-2.903753 -0.844477,-2.439477 -0.944206,-2.622727 -1.831672,-3.365755 -1.086177,-0.909398 -0.960766,-0.957569 -2.585702,0.993152 -0.611436,0.734043 -1.140223,1.306118 -1.175062,1.271278 -0.03486,-0.03484 0.142615,-0.5312 0.394343,-1.103022 0.25174,-0.571823 0.694075,-1.7089 0.982985,-2.526841 l 0.525267,-1.487163 0.5113,0.274683 c 0.281213,0.151077 0.897211,0.53542 1.368895,0.8541 0.471673,0.318678 0.883742,0.553259 0.915706,0.521289 0.03192,-0.03196 -0.234682,-0.699724 -0.592568,-1.483902 -0.357886,-0.784178 -0.888949,-2.161906 -1.180134,-3.061617 -0.643989,-1.989787 -1.145917,-2.563753 -2.691871,-3.078211 l -1.186302,-0.394777 -1.685717,0.400357 c -0.927138,0.220195 -1.809816,0.373743 -1.961509,0.341218 -0.226748,-0.04861 1.399829,-1.390813 2.380878,-1.964602 0.134602,-0.07872 1.130535,-2.91e-4 2.213192,0.174296 1.082657,0.174589 2.243763,0.356829 2.580223,0.404981 0.634255,0.09076 1.732509,1.21154 3.138236,3.202592 0.712648,1.009366 1.077993,1.207616 0.709332,0.384903 -1.55373,-3.467346 -2.963113,-5.229092 -5.289073,-6.611416 -2.368756,-1.407755 -4.099782,-2.524059 -4.026946,-2.596897 0.0343,-0.03426 0.859576,0.194103 1.834038,0.50747 0.974461,0.31337 1.856177,0.569762 1.959369,0.569762 0.329261,0 2.773807,1.173166 3.372703,1.618602 1.756493,1.306398 1.365149,0.659131 -1.144118,-1.892387 -2.564139,-2.607303 -3.456585,-3.121774 -5.818697,-3.354334 l -1.505059,-0.148178 0.769819,-0.215008 c 0.423387,-0.118255 1.611738,-0.274641 2.640755,-0.347524 l 1.870971,-0.132514 0.919588,0.750658 c 0.505765,0.412863 1.244345,0.985899 1.64128,1.273413 0.396936,0.287516 1.028169,0.752107 1.40275,1.032426 l 0.681047,0.509671 -0.873918,-1.478181 c -1.771196,-2.995831 -3.455691,-5.454868 -4.888107,-7.13565 -1.587539,-1.862802 -1.569021,-1.878016 0.454661,-0.373482 2.057526,1.529698 4.820512,4.59027 6.932639,7.679294 0.723741,1.058485 1.249857,1.75131 1.169154,1.539613 -0.215972,-0.566535 -1.111055,-4.146342 -1.19367,-4.773993 -0.20986,-1.594312 -2.487603,-8.082863 -3.617809,-10.306015 -0.725801,-1.427657 -0.400399,-1.27507 0.762292,0.357459 1.395517,1.959442 2.225518,3.783242 3.63473,7.986743 1.033194,3.081874 1.452349,4.13771 1.642616,4.13771 0.0807,0 -0.05931,-1.147493 -0.311276,-2.549985 -0.251886,-1.40249 -0.629557,-3.642852 -0.83927,-4.978581 -0.469251,-2.988887 -1.275347,-7.075707 -1.525298,-7.733125 -0.102207,-0.268699 -0.71361,-1.200485 -1.358787,-2.070634 -1.704507,-2.298867 -1.727722,-2.44185 -0.212373,-1.307844 1.494454,1.118371 1.810562,1.630875 2.905726,4.711095 0.559461,1.573504 1.454148,5.26014 1.955873,8.059299 0.294218,1.641456 0.58426,2.007288 0.457751,0.577354 -0.05614,-0.63509 -0.195769,-2.540361 -0.310167,-4.233935 -0.307563,-4.553321 -1.417136,-10.526445 -2.386255,-12.84588 -0.585833,-1.402102 -0.277296,-1.1508992 0.780052,0.635084 0.592092,1.000124 1.205838,2.066807 1.36387,2.370405 0.325492,0.625314 1.640205,6.936573 2.170124,10.417746 0.203465,1.336569 0.361587,1.985136 0.375362,1.539613 0.01313,-0.423394 0.103679,-2.025553 0.201416,-3.560355 0.09768,-1.534802 0.241836,-4.219502 0.320308,-5.966001 0.07844,-1.746499 0.168094,-3.045547 0.19913,-2.886775 0.125785,0.643611 0.644148,11.728293 0.644148,13.774683 0,1.209342 0.0678,2.198803 0.150708,2.198803 0.08285,0 0.25423,-0.974286 0.38075,-2.165081 0.368786,-3.470624 0.774517,-5.496859 1.512587,-7.553727 0.807748,-2.251074 2.411506,-6.097222 2.503878,-6.004845 0.03509,0.03511 -0.155021,0.967552 -0.422504,2.072085 -1.172675,4.8422 -1.840841,8.796055 -1.796426,10.630312 0.01471,0.606851 0.130799,0.266935 0.466274,-1.365103 0.283409,-1.378723 0.688868,-2.658595 1.109109,-3.501038 0.641238,-1.285465 3.240602,-5.431658 3.341813,-5.330449 0.0275,0.02748 -0.25106,0.869305 -0.618974,1.870726 -1.000415,2.723073 -3.026192,11.548162 -2.720904,11.853438 0.04584,0.04592 0.363681,-0.720387 0.706152,-1.702912 0.594028,-1.704257 4.224344,-9.275918 4.375143,-9.125123 0.03962,0.03964 -0.181054,0.88434 -0.490439,1.877106 -1.26911,4.072422 -1.588218,5.217767 -1.483056,5.322934 0.225593,0.225588 1.64188,-2.197913 2.899365,-4.961291 0.981988,-2.157939 1.068475,-2.223232 0.753203,-0.568642 -0.146271,0.767654 -0.408469,2.140623 -0.582664,3.051043 -0.25861,1.351623 -0.486885,1.920114 -1.244243,3.098696 -0.510145,0.793862 -1.099929,1.848632 -1.310626,2.34393 -0.466682,1.097046 -1.405772,4.036045 -1.317735,4.124069 0.03498,0.03496 0.395204,-0.719614 0.800526,-1.676845 0.405335,-0.957229 1.146031,-2.361882 1.646012,-3.121447 0.953974,-1.449298 2.696704,-3.742245 2.696704,-3.548111 0,0.06237 -0.694255,1.452193 -1.542796,3.088508 -1.29984,2.50661 -2.651724,5.718154 -2.407013,5.718154 0.0378,0 0.550157,-0.687047 1.138571,-1.526773 0.872208,-1.244741 1.517069,-1.870811 3.490915,-3.389216 1.331589,-1.024344 2.456861,-1.826653 2.500607,-1.782907 0.08274,0.08273 -0.946832,1.406227 -3.264914,4.197026 -1.703556,2.050947 -3.449964,4.947738 -3.866413,6.413287 -0.175168,0.616476 -0.278078,1.161293 -0.228672,1.210701 0.04935,0.04941 0.323081,-0.281774 0.608165,-0.735963 0.285073,-0.45419 0.471877,-0.674244 0.415125,-0.489009 -0.05671,0.185234 -0.07097,0.336789 -0.03169,0.336789 0.03939,0 0.701273,-0.930984 1.470968,-2.068854 1.591579,-2.352894 2.213701,-3.175846 2.047157,-2.707989 -0.06327,0.177717 -0.172486,0.629379 -0.242707,1.003692 l -0.127675,0.680567 0.939328,-0.111251 0.939328,-0.111252 1.505897,2.921141 c 0.828246,1.606627 1.47236,2.954673 1.431375,2.995657 -0.06542,0.06543 -2.732052,-3.074909 -3.080159,-3.627349 -0.08964,-0.142248 -0.496744,-0.03691 -1.251521,0.323847 -0.998185,0.477091 -1.205861,0.684213 -1.928175,1.923103 -0.668573,1.146702 -1.710426,3.782427 -1.495133,3.782427 0.03271,0 0.90038,-0.956348 1.928164,-2.125218 1.027772,-1.168871 1.902131,-2.091774 1.943003,-2.050895 0.06972,0.06975 -0.556835,1.254855 -2.029874,3.839323 -0.346884,0.608628 -0.568924,1.106597 -0.493405,1.106597 0.0755,0 0.433393,-0.25997 0.795286,-0.577714 0.572421,-0.502593 2.568282,-1.655444 2.568282,-1.483492 0,0.03424 -0.40015,0.49036 -0.88922,1.013613 -1.957547,2.094342 -2.590263,2.956487 -2.961403,4.035222 -0.210823,0.612762 -0.383308,1.150518 -0.383308,1.195013 0,0.04449 0.255146,-0.174246 0.566988,-0.486092 0.673429,-0.673428 5.004825,-3.577527 5.137673,-3.444685 0.05071,0.05071 -0.584226,0.889831 -1.410967,1.864729 -0.82673,0.974899 -1.748876,2.088281 -2.049206,2.474184 -1.105306,1.420251 -2.409436,4.45465 -3.196471,7.43745 -0.111715,0.423393 -0.412838,1.440981 -0.669161,2.261306 -0.256313,0.820326 -0.428312,1.4915 -0.38221,1.4915 0.0893,0 0.25527,-0.350065 2.37274,-5.003742 0.746514,-1.640651 1.358505,-2.904009 1.359987,-2.807463 0.0011,0.09655 -0.51954,2.001819 -1.157824,4.233938 -0.638284,2.232118 -1.207061,4.231603 -1.26396,4.4433 -0.05693,0.211697 0.241372,-0.307923 0.662835,-1.15471 0.586275,-1.177927 1.200756,-1.991722 2.615741,-3.464129 l 1.849465,-1.924517 -1.455755,2.983001 c -1.446338,2.963664 -1.391567,3.123058 0.273188,0.795005 0.878751,-1.22889 1.318913,-1.486951 0.634686,-0.372111 -1.290242,2.102254 -5.04074,10.805173 -4.772193,11.073724 0.04969,0.04967 0.450734,-0.626526 0.891235,-1.502657 1.015322,-2.019379 1.319953,-2.424398 2.820282,-3.74981 l 1.22448,-1.081713 -0.462279,1.027249 c -0.254263,0.564986 -0.909684,1.939796 -1.456491,3.05513 -0.871517,1.777646 -3.015676,7.883377 -2.768419,7.883377 0.05059,0 0.967161,-0.820387 2.036903,-1.823082 1.069731,-1.002696 1.980343,-1.787712 2.02358,-1.744481 0.04324,0.04323 -0.625765,1.109596 -1.486655,2.369701 -1.408647,2.061881 -1.643046,2.539664 -2.342813,4.775594 -0.427655,1.366472 -1.249687,3.974651 -1.826726,5.795954 l -1.049165,3.311459 -1.390865,0.682145 c -1.374396,0.674075 -2.898879,1.072058 -4.063325,1.06078 -0.329566,-0.0032 -1.242318,-0.327955 -2.028345,-0.721694 z M 48.407366,59.165005 c -0.06146,-0.153524 -0.107075,-0.107924 -0.116289,0.116273 -0.0079,0.202876 0.03713,0.316543 0.101076,0.252593 0.06395,-0.06395 0.07074,-0.22994 0.01517,-0.368866 z M 47.995704,57.63405 c -0.166634,-0.567081 -0.396437,-1.160962 -0.510677,-1.319734 -0.184619,-0.256603 -0.197749,-0.256603 -0.118077,0 0.593836,1.91275 0.796769,2.485739 0.858513,2.423996 0.04018,-0.04026 -0.06316,-0.537182 -0.229759,-1.104262 z m -0.947986,-2.409317 c -0.162809,-0.300441 -0.299493,-0.485379 -0.303738,-0.410973 -0.01302,0.228762 0.434706,1.122298 0.519744,1.037254 0.04403,-0.04402 -0.0532,-0.325841 -0.216006,-0.626281 z"
       id="path62" /><path
       style="fill:#5d6d58;fill-opacity:1;stroke-width:0.727376"
       d="m 51.859786,87.115457 c -1.639254,-0.707231 -1.94512,-0.979649 -2.359316,-2.101304 -0.180873,-0.489817 -0.523513,-1.236989 -0.761421,-1.660384 -0.42195,-0.750945 -1.242986,-3.449108 -1.873981,-6.158452 -0.755762,-3.245048 -1.307413,-4.790695 -2.713094,-7.601839 -1.541585,-3.082891 -2.175681,-4.471378 -1.889624,-4.13771 0.523671,0.610809 1.745446,2.274632 2.796818,3.808715 0.830714,1.212119 1.470096,1.843681 1.209834,1.195028 -0.211105,-0.526148 -0.486987,-1.707989 -0.415397,-1.779578 0.03203,-0.03208 0.33886,0.831527 0.681726,1.919115 0.737187,2.338303 1.76316,5.001986 1.881169,4.883977 0.04595,-0.0459 -0.256459,-1.238265 -0.671901,-2.649708 -1.263767,-4.293572 -1.741677,-6.140233 -2.083593,-8.051129 -0.3126,-1.746975 -0.779757,-3.296484 -1.885481,-6.253845 -0.637469,-1.704986 -0.625064,-1.805409 0.05954,-0.481963 0.301145,0.582166 0.864952,1.621406 1.252878,2.30942 0.387938,0.688014 0.806594,1.489094 0.930353,1.780177 0.123747,0.291084 0.292622,0.529243 0.37526,0.529243 0.08263,0 0.148965,-0.02165 0.147381,-0.04812 -0.0034,-0.05783 -0.861614,-2.774012 -1.048848,-3.319791 l -0.132044,-0.384903 0.243726,0.384903 c 0.752829,1.188939 1.676821,4.086212 2.884685,9.045227 0.747657,3.069604 1.564222,6.317225 1.814592,7.216936 0.25037,0.899711 0.558329,2.19876 0.68434,2.886775 0.279074,1.523584 0.627826,2.224653 0.478691,0.962258 -0.05625,-0.476318 -0.195101,-1.991875 -0.308514,-3.367903 -0.342142,-4.151237 -1.290276,-8.79816 -2.729042,-13.375389 -0.718636,-2.286224 -1.543713,-4.322845 -1.998815,-4.933873 -0.247302,-0.33204 -0.833872,-1.760993 -1.303496,-3.175451 -0.469613,-1.414458 -0.97531,-2.852007 -1.123766,-3.194553 -0.443467,-1.023281 -2.432107,-2.496964 -2.470738,-1.830948 -0.0045,0.07939 -0.524373,0.707261 -1.155028,1.395275 l -1.146653,1.250936 0.465572,-1.15471 c 0.256063,-0.63509 0.656474,-1.69598 0.889809,-2.357532 0.233335,-0.661552 0.478634,-1.202452 0.54512,-1.201999 0.06644,4.53e-4 0.510587,0.257688 0.9869,0.571634 0.777086,0.512181 1.048158,0.922282 2.639081,3.992549 0.975186,1.881954 1.858735,3.401461 1.963456,3.376681 0.104698,-0.02478 0.544679,1.05776 0.977676,2.405646 1.0087,3.140033 0.958117,3.001008 1.05625,2.902877 0.143125,-0.143129 -0.779644,-3.686493 -1.140824,-4.38066 -0.187958,-0.361243 -0.505561,-1.13299 -0.7058,-1.714993 -0.200239,-0.582003 -0.732004,-1.540614 -1.181684,-2.130246 -1.20199,-1.576073 -2.137198,-3.173138 -1.903682,-3.250972 0.123023,-0.04101 0.0068,-0.50006 -0.29372,-1.161145 -0.273438,-0.601328 -0.737256,-1.78615 -1.030693,-2.632937 -0.293449,-0.846787 -0.598748,-1.712819 -0.678443,-1.924516 -0.07968,-0.211697 0.179831,0.03239 0.576744,0.542431 0.396925,0.510033 0.768552,0.880453 0.825847,0.823157 0.13553,-0.135533 -0.768008,-1.321643 -1.869001,-2.453496 -0.673248,-0.692112 -1.129448,-0.968541 -2.008991,-1.21731 -1.05865,-0.29943 -1.253094,-0.299898 -2.790547,-0.0067 -0.908926,0.173332 -1.760851,0.35034 -1.893167,0.393353 -0.564962,0.183658 -0.147019,-0.0843 1.189833,-0.762852 l 1.430413,-0.726036 0.927127,0.303903 c 0.509919,0.167147 1.523022,0.440375 2.251335,0.607173 1.089346,0.249481 1.536752,0.480695 2.522543,1.303603 1.184718,0.988963 1.209574,1.030251 2.186627,3.632926 0.543558,1.447928 1.891695,4.522895 2.995869,6.833261 1.104162,2.310366 2.100537,4.589828 2.214154,5.06547 0.113639,0.475643 0.327427,2.033949 0.475114,3.462902 0.147686,1.428953 0.602551,5.239496 1.010805,8.467871 0.672048,5.314299 0.753826,5.751395 0.864138,4.618839 0.381316,-3.914907 0.04075,-9.392895 -0.909435,-14.626324 -1.750404,-9.641195 -2.892642,-13.518382 -4.830914,-16.397814 -1.373321,-2.040164 -1.519049,-2.188807 -1.035435,-1.056181 1.488613,3.486402 3.293143,9.100442 3.281836,10.210016 -0.0045,0.421888 -2.126785,-3.18404 -2.782896,-4.727925 -0.193097,-0.454371 -0.553587,-1.302447 -0.801082,-1.884612 l -0.449997,-1.058484 1.008723,1.109214 c 0.554786,0.610068 1.075424,1.108035 1.156964,1.106595 0.191829,-0.0034 -0.552964,-1.465119 -1.138289,-2.233975 -0.249339,-0.327536 -0.453359,-0.649213 -0.453359,-0.714839 0,-0.06563 -0.480038,-0.998333 -1.066743,-2.072683 -1.572598,-2.879648 -2.277108,-3.60697 -5.144249,-5.310883 -1.351997,-0.803483 -2.506403,-1.538899 -2.565339,-1.634256 -0.05897,-0.09536 1.366937,0.570046 3.168603,1.478676 2.558129,1.290132 3.501453,1.874172 4.305986,2.665948 1.025701,1.009442 3.898796,5.344099 4.116138,6.210021 0.06282,0.250066 0.197161,0.454666 0.298667,0.454666 0.104132,0 0.124222,-0.188787 0.04618,-0.433017 -0.07606,-0.238158 -0.245537,-0.837654 -0.376517,-1.332211 -0.153346,-0.579072 -0.846322,-1.743826 -1.946489,-3.271678 -0.939599,-1.304864 -1.936981,-2.718896 -2.216406,-3.142289 -0.856996,-1.298581 -4.03788,-4.390601 -5.104487,-4.961882 -0.662744,-0.354973 -1.42507,-0.575208 -2.261296,-0.653298 -0.693837,-0.0648 -1.261526,-0.199494 -1.261526,-0.29934 0,-0.100182 0.323443,-0.13439 0.721703,-0.07633 0.396924,0.05786 1.371205,0.162202 2.165076,0.231866 1.732984,0.152074 3.708087,1.012716 5.300266,2.309567 0.577854,0.470665 1.050637,0.797336 1.050637,0.725933 0,-0.125376 -1.120971,-1.993872 -3.081461,-5.136352 -0.517763,-0.829915 -1.615078,-2.30217 -2.438502,-3.271678 -2.14185,-2.521863 -1.249721,-1.70595 2.378365,2.175187 2.673501,2.859986 3.253109,3.591002 3.891032,4.907516 1.007681,2.079575 1.631184,3.47812 2.042901,4.58235 0.649264,1.741274 0.463207,0.790039 -0.307959,-1.574522 -0.425176,-1.303678 -0.733973,-2.409405 -0.686208,-2.45717 0.339607,-0.339603 2.24133,5.675703 2.24279,7.094099 2.83e-4,0.284192 0.09078,0.754158 0.201134,1.04437 0.110357,0.29021 0.37552,1.183531 0.589297,1.985157 0.213765,0.801626 0.513201,1.649312 0.665415,1.883747 0.152214,0.234434 0.276742,0.554086 0.276742,0.710335 0,0.15625 0.07833,0.332523 0.17415,0.391718 0.195101,0.120586 0.07708,-1.258209 -0.172101,-2.009427 -0.08772,-0.264622 -0.261496,-1.910082 -0.386092,-3.656581 -0.124596,-1.746499 -0.392273,-4.486891 -0.594832,-6.089759 -0.20256,-1.602869 -0.361633,-2.988521 -0.353506,-3.079227 0.0292,-0.325415 1.124446,3.911103 1.437589,5.560518 0.175825,0.926173 0.397286,1.683952 0.492148,1.683952 0.409047,0 -0.05082,-6.391072 -0.595386,-8.274151 -0.106962,-0.36977 -0.194421,-1.932296 -0.194421,-3.472277 0,-2.213196 -0.102322,-3.322562 -0.487995,-5.29369 -0.656327,-3.35398 -1.268963,-7.055597 -1.182092,-7.142464 0.03882,-0.03885 0.208547,0.341713 0.377128,0.845673 0.168581,0.503961 0.697866,2.042135 1.176183,3.418163 0.664974,1.913013 0.921694,3.000137 1.090694,4.61884 0.121562,1.164333 0.25527,2.153053 0.297138,2.197155 0.04188,0.0441 0.07606,-0.468297 0.07606,-1.138671 0,-2.329423 0.227755,-0.97237 0.393166,2.342616 0.2108,4.224925 0.612376,7.723974 0.758195,6.606385 0.05523,-0.423393 0.109339,0.74575 0.120171,2.598097 0.01132,1.852348 0.117103,4.363841 0.236119,5.581098 0.119017,1.217256 0.228185,3.014273 0.242583,3.993371 0.01438,0.979098 0.08953,1.780177 0.167053,1.780177 0.147629,0 0.32951,-2.306761 0.576586,-7.313161 0.15278,-3.095555 0.469273,-5.256538 1.747506,-11.932002 0.415498,-2.169892 0.886402,-4.69756 1.046448,-5.61704 0.203194,-1.167377 0.573281,-2.270628 1.226597,-3.656581 0.514582,-1.09164 0.999317,-2.186183 1.07719,-2.432319 0.07787,-0.246135 0.180499,-0.408617 0.228049,-0.361069 0.04754,0.04755 -0.133844,0.725249 -0.403093,1.506004 -0.269249,0.780753 -0.612908,1.982473 -0.763684,2.670488 -0.150777,0.688015 -0.496122,2.203572 -0.767443,3.367904 -0.27132,1.164331 -0.494095,2.303452 -0.495057,2.531378 -7.24e-4,0.227925 -0.179696,1.267164 -0.397207,2.309419 -0.635274,3.044225 -1.353865,8.375525 -1.108464,8.223856 0.08625,-0.05329 0.156776,-0.27376 0.156776,-0.489943 0,-0.216183 0.463704,-1.79158 1.030466,-3.500884 1.445738,-4.360256 1.77518,-5.407997 2.217753,-7.053084 0.405685,-1.508005 2.697247,-7.757479 2.710286,-7.391403 0.0045,0.115739 -0.169825,0.721963 -0.386545,1.347161 -0.363636,1.049029 -0.750928,2.394183 -1.458856,5.066831 -0.178745,0.674832 -0.208593,1.08521 -0.08455,1.161904 0.119175,0.07365 -0.01698,0.790248 -0.359301,1.891555 -0.303137,0.975141 -0.517853,1.772984 -0.477163,1.772984 0.156719,0 1.199942,-2.272582 1.596379,-3.477563 0.228785,-0.695403 0.771064,-1.95115 1.205069,-2.790549 0.434004,-0.839399 1.04166,-2.175703 1.350344,-2.969566 0.308695,-0.793863 0.506637,-1.183577 0.439879,-0.866033 -0.06678,0.317546 -0.289623,1.443387 -0.495239,2.501872 -0.328967,1.693435 -0.487779,2.090342 -1.322658,3.305568 -0.903109,1.314547 -1.407096,2.436192 -2.060152,4.584949 -0.160839,0.529242 -0.411684,1.302386 -0.557423,1.718097 -0.350314,0.99928 -0.168355,1.147197 0.231082,0.187855 0.945859,-2.271625 2.302214,-4.792068 3.355906,-6.236114 1.557725,-2.134821 1.739458,-2.28891 0.907873,-0.769807 -1.911729,3.492291 -3.353076,6.830822 -3.177047,7.358877 0.03599,0.108026 0.488209,-0.428 1.004897,-1.191167 0.516699,-0.763167 1.249098,-1.675807 1.627562,-2.028088 0.644894,-0.600266 3.639733,-2.914118 4.225069,-3.26434 0.145887,-0.08729 -0.492658,0.784252 -1.418981,1.936762 -1.807122,2.248375 -2.507999,3.025111 -1.890801,2.095473 1.043958,-1.57244 0.745586,-1.411891 -0.625913,0.33679 -0.601872,0.767402 -1.396921,2.044799 -1.766771,2.838663 -0.696621,1.495255 -1.83097,5.007665 -1.614307,4.998565 0.0678,-0.0028 0.334366,-0.347436 0.592398,-0.765753 0.258021,-0.418318 0.494243,-0.735475 0.524928,-0.704795 0.03067,0.03069 -0.337535,1.080302 -0.818241,2.33249 -0.480717,1.252188 -1.18225,3.368692 -1.558959,4.703342 -0.376709,1.334649 -0.728121,2.469937 -0.780911,2.522861 -0.100963,0.101235 0.09145,-2.571559 0.256244,-3.560354 0.06746,-0.40478 0.0429,-0.491068 -0.08229,-0.288678 -0.181349,0.293288 -1.284605,5.1348 -2.324296,10.199936 -0.787035,3.834212 -1.238855,8.661741 -1.005316,10.74124 0.09881,0.879884 0.217579,1.637704 0.263918,1.684045 0.04629,0.04634 0.283069,-1.019976 0.526071,-2.369595 0.243001,-1.349618 0.601747,-3.189979 0.797221,-4.08969 l 0.355408,-1.635838 -0.08093,1.635838 c -0.114862,2.320823 0.06191,1.636661 1.267865,-4.907516 0.214568,-1.164332 1.038661,-4.182851 1.831321,-6.707818 0.792649,-2.524969 1.39494,-4.637109 1.338403,-4.693644 -0.05648,-0.05654 -0.18153,0.104075 -0.277761,0.356916 -0.09621,0.252838 -0.321553,0.806119 -0.500729,1.229513 -0.82425,1.947794 -2.249717,5.991876 -2.591157,7.351192 -0.207438,0.825871 -0.423014,1.67479 -0.479053,1.886487 -0.05603,0.211696 -0.06304,-0.394526 -0.01551,-1.347162 0.104358,-2.093 0.342809,-3.052576 1.840806,-7.409388 1.92066,-5.586073 2.324398,-6.419231 4.359286,-8.995974 0.338475,-0.428603 2.850695,-1.281357 3.178326,-1.078862 0.238667,0.1475 2.530569,4.686191 2.366391,4.686191 -0.03848,0 -0.700854,-0.779429 -1.471953,-1.732065 -0.771098,-0.952636 -1.506825,-1.732065 -1.634941,-1.732065 -0.128117,0 -0.678783,0.231305 -1.223677,0.514011 -0.818467,0.424636 -1.124094,0.74235 -1.757693,1.827219 -0.642189,1.09957 -1.783443,3.998231 -1.634511,4.151498 0.02434,0.02508 0.89137,-0.905905 1.926681,-2.068855 1.035311,-1.162949 1.920558,-2.114454 1.967225,-2.114454 0.091,0 -0.462222,0.993283 -1.793562,3.220289 -0.457683,0.7656 -0.832151,1.481537 -0.832151,1.590974 0,0.10944 0.548708,-0.232247 1.219364,-0.759294 0.670656,-0.527048 1.471737,-1.053101 1.780183,-1.169005 0.507282,-0.190624 0.467598,-0.113256 -0.415815,0.810683 -2.100831,2.197192 -2.550116,2.843654 -3.078043,4.428902 -0.283873,0.852383 -0.853645,2.135201 -1.266167,2.850707 -0.809231,1.403602 -1.965663,4.862962 -3.333256,9.971152 -0.913918,3.413684 -0.855344,2.909911 -1.458517,12.542176 -0.115995,1.852348 -0.420287,5.229873 -0.676191,7.505613 -0.82802,7.363416 -0.399437,6.178107 0.974223,-2.694323 1.973575,-12.747322 2.177097,-13.687346 3.833363,-17.705549 0.689207,-1.672073 3.070266,-6.920931 3.117058,-6.871338 0.06067,0.06434 -0.610633,2.662313 -1.03273,3.996483 -0.672976,2.127195 -2.375038,9.277467 -2.356453,9.89934 0.0034,0.105852 0.385289,-0.500375 0.849164,-1.347163 0.591504,-1.079755 1.055175,-2.341429 1.552371,-4.224115 0.700334,-2.651827 0.726582,-2.708047 2.157108,-4.618839 0.796474,-1.063885 1.508274,-1.999611 1.581755,-2.079391 0.07346,-0.07979 -0.502754,1.121148 -1.28053,2.668733 -0.777788,1.547584 -1.383293,2.906346 -1.345591,3.019469 0.03769,0.11312 0.488391,-0.420065 1.001525,-1.184867 0.513122,-0.7648 1.003799,-1.434333 1.090387,-1.487851 0.08659,-0.05352 -0.352204,0.924204 -0.975129,2.172715 -2.187113,4.383655 -4.031859,9.571607 -6.483479,18.233412 -1.438381,5.081919 -0.355271,2.735442 2.216191,-4.801201 1.457204,-4.270914 2.221828,-5.922221 3.893261,-8.408001 0.621646,-0.924519 1.130264,-1.760265 1.130264,-1.857213 0,-0.09694 0.12978,-0.283982 0.288411,-0.41563 0.329997,-0.273869 -0.192406,0.971091 -1.559819,3.717314 -0.48401,0.972036 -1.092187,2.416861 -1.351521,3.210724 -0.789921,2.418093 -1.435586,4.665964 -1.361493,4.740052 0.0386,0.0386 0.626116,-0.457457 1.305601,-1.102332 1.630244,-1.547201 2.878018,-2.535611 2.486369,-1.969551 -1.897638,2.742707 -2.885082,4.317939 -3.056028,4.875187 -0.31449,1.025139 -1.250355,3.980806 -2.376543,7.505613 l -1.014552,3.175452 -1.154712,0.617914 c -1.059216,0.566809 -1.939256,0.826721 -3.752807,1.108357 -0.491096,0.07627 -1.032176,-0.05011 -1.997208,-0.466454 z m 2.093541,-32.454872 c -0.269068,-2.090904 -0.695715,-4.501106 -0.948088,-5.356005 -0.252385,-0.854899 -0.819452,-2.926898 -1.260168,-4.604441 -0.78304,-2.980599 -1.123235,-4.073478 -1.14731,-3.685729 -0.0068,0.105853 0.197478,1.058485 0.453439,2.116968 0.784839,3.245547 2.337992,13.403803 2.795358,18.282906 0.424316,4.526416 0.4889,4.613972 0.543773,0.737165 0.04313,-3.04584 -0.03305,-4.352208 -0.437004,-7.490864 z m 3.437219,-16.292384 c 0.413201,-1.443637 0.672637,-3.025542 0.512443,-3.12455 -0.07538,-0.04657 -0.28359,0.736103 -0.462776,1.73926 -0.179175,1.003157 -0.375147,1.952563 -0.435487,2.109791 -0.06033,0.157229 -0.06327,0.28587 -0.0068,0.28587 0.05671,0 0.233302,-0.454668 0.392352,-1.010371 z m -5.479622,-8.88485 c 0.01188,-1.26136 -0.01868,-2.253182 -0.0678,-2.20405 -0.04912,0.04913 -0.21114,1.081154 -0.360037,2.293381 -0.214637,1.747578 -0.226035,2.582702 -0.05501,4.032341 l 0.215689,1.82829 0.122808,-1.82829 c 0.06746,-1.005559 0.132486,-2.860313 0.144336,-4.121672 z m 4.848027,38.073347 c 0.0091,-0.224194 0.0549,-0.269797 0.116277,-0.116273 0.05557,0.138926 0.04878,0.304916 -0.01517,0.368867 -0.06395,0.06395 -0.109452,-0.04971 -0.101076,-0.252594 z m 0.284145,-1.427349 c 0.125581,-1.042557 1.271362,-5.810395 1.942437,-8.082969 2.387783,-8.086101 2.988183,-9.274512 6.231094,-12.333574 1.2807,-1.208088 2.383131,-2.239826 2.449832,-2.29275 0.227359,-0.180371 -1.086154,1.471865 -2.528712,3.180838 -1.821734,2.158172 -2.702227,3.958065 -3.857301,7.885131 -1.079318,3.669465 -1.104491,3.734074 -0.974631,2.501872 0.0558,-0.529243 0.144619,-1.438576 0.197409,-2.020742 l 0.09598,-1.058485 -0.300059,0.769807 c -0.165027,0.423394 -0.695455,2.285363 -1.178741,4.13771 -1.610709,6.173672 -2.182609,8.187034 -2.077334,7.313162 z m -11.918879,-7.60928 c -0.185717,-0.483956 -0.130924,-0.608831 0.09598,-0.21869 0.112395,0.193174 0.163703,0.391766 0.11415,0.441316 -0.04958,0.04955 -0.144088,-0.05063 -0.210087,-0.222626 z m 4.220734,-21.20139 C 49.272398,37.022668 48.751567,35.741236 48.187477,34.471056 47.62341,33.200874 46.882623,31.209 46.541296,30.044668 46.199958,28.880335 45.6207,27.018366 45.25402,25.906958 c -0.915367,-2.77458 -0.916283,-2.782695 -0.129667,-1.15471 0.721443,1.493154 2.546323,6.466431 3.177783,8.660323 0.19802,0.688014 0.585188,1.927604 0.860346,2.754642 0.275169,0.827039 0.458464,1.545548 0.407326,1.596688 -0.05116,0.05114 -0.152327,-0.14921 -0.224857,-0.445222 z M 54.763237,30.9107 c 0.04958,-1.958194 0.208955,-5.119212 0.354242,-7.024484 0.230245,-3.01933 0.354253,-3.748307 0.965791,-5.677323 0.3859,-1.217257 0.837675,-2.729946 1.003935,-3.361531 0.60185,-2.286153 0.431956,-0.640556 -0.221281,2.14354 -0.907929,3.8695 -1.483882,7.983627 -1.760115,12.572637 -0.256674,4.264126 -0.434049,4.961609 -0.342572,1.347161 z m -1.446089,2.020742 c 0.0034,-0.317545 0.04709,-0.42415 0.09587,-0.236901 0.04878,0.187248 0.04561,0.447058 -0.0068,0.577354 -0.05275,0.130296 -0.09259,-0.02291 -0.08874,-0.340453 z M 52.182595,22.635281 c 0,-0.582167 0.03611,-0.820326 0.08014,-0.529243 0.04403,0.291083 0.04403,0.767402 0,1.058485 -0.04403,0.291082 -0.08014,0.05293 -0.08014,-0.529242 z m -8.405542,-0.48857 c -0.185706,-0.483956 -0.130935,-0.608831 0.09598,-0.21869 0.112281,0.193174 0.163691,0.391765 0.114149,0.441316 -0.04958,0.04955 -0.144098,-0.05063 -0.210098,-0.222626 z m 4.898939,-7.129308 c 0.0091,-0.224194 0.0549,-0.269797 0.116266,-0.116273 0.05558,0.138926 0.04878,0.304916 -0.01517,0.368867 -0.06395,0.06395 -0.109452,-0.04971 -0.101076,-0.252594 z"
       id="path61" /></g></svg>
