<?xml version="1.0" encoding="UTF-8" standalone="no"?>
<!-- Created with Inkscape (http://www.inkscape.org/) -->

<svg
   width="100mm"
   height="100mm"
   viewBox="0 0 100 100"
   version="1.1"
   id="svg1"
   inkscape:version="1.4 (86a8ad7, 2024-10-11)"
   sodipodi:docname="tree2.svg"
   xml:space="preserve"
   xmlns:inkscape="http://www.inkscape.org/namespaces/inkscape"
   xmlns:sodipodi="http://sodipodi.sourceforge.net/DTD/sodipodi-0.dtd"
   xmlns="http://www.w3.org/2000/svg"
   xmlns:svg="http://www.w3.org/2000/svg"><sodipodi:namedview
     id="namedview1"
     pagecolor="#ffffff"
     bordercolor="#000000"
     borderopacity="0.25"
     inkscape:showpageshadow="2"
     inkscape:pageopacity="0.0"
     inkscape:pagecheckerboard="true"
     inkscape:deskcolor="#d1d1d1"
     inkscape:document-units="mm"
     inkscape:zoom="0.7232269"
     inkscape:cx="170.76245"
     inkscape:cy="212.24321"
     inkscape:window-width="1920"
     inkscape:window-height="1009"
     inkscape:window-x="1912"
     inkscape:window-y="-8"
     inkscape:window-maximized="1"
     inkscape:current-layer="layer1" /><defs
     id="defs1" /><g
     inkscape:label="Warstwa 1"
     inkscape:groupmode="layer"
     id="layer1"><path
       style="fill:#475744;fill-opacity:1;stroke-width:0.761638"
       d="m 47.771282,85.94928 c -0.56202,-0.23971 -1.27151,-0.60103 -1.57665,-0.80291 -1.02258,-0.67654 -2.32594,-4.12956 -3.85477,-10.21257 -0.87975,-3.50037 -1.06426,-3.98957 -3.02114,-8.01027 -1.14629,-2.35523 -2.05307,-4.28224 -2.01508,-4.28224 0.11101,0 1.97156,2.38331 3.20217,4.1019 0.66541,0.92927 1.13288,1.42855 1.13204,1.20909 -0.002,-0.63585 -2.52333,-6.97589 -3.66189,-9.20971 -0.21732,-0.42636 -0.36613,-0.80183 -0.33068,-0.83435 0.0526,-0.0483 1.57638,1.82888 3.10582,3.82625 0.28883,0.3772 0.30052,0.35136 0.18228,-0.40303 -0.1324,-0.8447 -1.50279,-4.99648 -2.16039,-6.54516 -0.59026,-1.39011 -0.23862,-0.87004 1.59753,2.36266 0.92887,1.63537 1.62732,2.70135 1.55211,2.36885 -0.28528,-1.26126 -1.77906,-4.93592 -3.03098,-7.45611 -1.4039,-2.82617 -1.36213,-2.80165 1.2868,0.7554 0.96971,1.30215 1.78901,2.28995 1.82068,2.19511 0.1264,-0.37857 -1.87858,-5.34228 -3.30814,-8.18995 -0.8346,-1.66251 -1.43157,-2.93206 -1.3266,-2.82123 0.10497,0.11083 1.01909,1.37032 2.03136,2.79886 1.01228,1.42853 1.8405,2.55528 1.8405,2.50387 0,-0.49621 -1.83916,-5.04033 -3.00431,-7.42294 -1.12928,-2.30922 0.15455,-0.48652 1.58169,2.2456 0.69482,1.33018 1.30215,2.3797 1.3496,2.33225 0.0982,-0.0982 -1.92916,-5.09594 -3.02026,-7.44518 -0.39895,-0.85896 -0.68743,-1.56175 -0.64109,-1.56175 0.0851,0 1.93418,3.24484 2.69866,4.73564 0.22734,0.44334 0.41735,0.70411 0.42226,0.57951 0.009,-0.23599 -0.19499,-0.83239 -1.09568,-3.19923 -0.59009,-1.55062 -0.45059,-1.55062 0.39546,0 0.30236,0.55417 0.61824,1.09827 0.70193,1.2091 0.0837,0.11084 0.72241,1.54079 1.41935,3.17767 0.69695,1.63688 1.29905,2.94426 1.33802,2.9053 0.039,-0.039 -0.47942,-1.74096 -1.15197,-3.78222 -1.31763,-3.99907 -2.56886,-6.85747 -3.72702,-8.51421 l -0.72782,-1.04113 0.83573,0.90682 c 0.45964,0.49875 1.11765,1.29208 1.46223,1.76294 0.34458,0.47086 0.65702,0.82561 0.69429,0.78833 0.0372,-0.0373 -0.51321,-1.49731 -1.22332,-3.24453 -0.7101,-1.74722 -1.21834,-3.09947 -1.12941,-3.00502 0.37949,0.4031 3.43387,6.62028 4.0354,8.21405 0.36144,0.95764 0.70081,1.69752 0.75417,1.64416 0.23637,-0.23637 -2.71288,-8.15395 -4.65905,-12.5077 -0.39635,-0.88668 -0.62928,-1.47611 -0.51764,-1.30986 0.69628,1.03682 2.37679,4.05926 3.33336,5.99512 0.61612,1.24688 1.15525,2.26706 1.19806,2.26706 0.17563,0 -1.16263,-3.31661 -2.12466,-5.26553 -1.14603,-2.32168 -0.77426,-2.01581 0.82821,0.68141 0.5763,0.97 1.07446,1.737 1.10702,1.70444 0.0807,-0.0807 -1.31459,-3.88481 -2.19604,-5.98705 -0.39501,-0.942089 -0.86997,-2.07562 -1.05548,-2.518957 -0.1855,-0.443336 -0.24552,-0.715384 -0.13338,-0.60455 0.32638,0.32256 1.93468,3.452297 2.89954,5.642467 0.48827,1.10834 0.99587,2.24187 1.12799,2.51896 0.73582,1.54307 -0.75865,-3.56922 -2.40673,-8.23297 -1.10163,-3.117379 -1.10992,-3.161237 -0.27235,-1.439831 2.54462,5.229781 3.94838,9.261611 4.93444,14.172521 0.12972,0.64609 0.2755,1.13507 0.32395,1.08662 0.19335,-0.19336 -0.63817,-4.20016 -2.15864,-10.40164 -0.88031,-3.590508 -1.57032,-6.558442 -1.53335,-6.595412 0.0369,-0.03697 0.68097,1.812527 1.43113,4.109991 1.98333,6.074321 2.10595,6.250201 1.12586,1.614915 -0.63944,-3.024186 -1.71677,-7.098911 -2.40849,-9.109421 -0.70315,-2.043744 -0.30991,-1.445731 0.74815,1.137732 0.93626,2.286054 1.24661,3.21291 1.86401,5.566789 0.12648,0.482233 0.27647,0.830289 0.3333,0.773458 0.11925,-0.119256 -0.68811,-4.295468 -1.56095,-8.074273 -0.32971,-1.427367 -0.55661,-2.638063 -0.50424,-2.690436 0.0524,-0.05237 0.20146,0.29933 0.33129,0.781563 0.12984,0.482232 0.41124,1.420881 0.62532,2.085886 1.59193,4.944811 2.57866,8.668929 3.08892,11.658178 0.0729,0.42695 0.1732,0.73559 0.22293,0.68586 0.10625,-0.10625 -0.96401,-7.036391 -1.42084,-9.200189 -0.17314,-0.820069 -0.28224,-1.523581 -0.24247,-1.56336 0.12456,-0.124561 1.36206,4.739081 1.95645,7.689275 0.66127,3.282134 0.7095,3.177924 0.2942,-0.635708 -0.34366,-3.155793 -1.29623,-8.619165 -2.04452,-11.726185 -0.27613,-1.1465 -0.46299,-2.1236 -0.41526,-2.171332 0.11256,-0.11256 1.15957,3.215724 1.94105,6.170286 0.33712,1.274592 0.79789,3.581186 1.02392,5.125762 0.22603,1.544577 0.45455,2.851916 0.50784,2.905197 0.16011,0.160108 0.11009,-2.362216 -0.12117,-6.110584 -0.11992,-1.943772 -0.18035,-3.647119 -0.13429,-3.785215 0.0461,-0.138096 0.25399,1.197377 0.46205,2.967718 0.42852,3.646089 0.5482,3.52917 0.81945,-0.800603 l 0.16412,-2.619716 0.13866,1.712891 c 0.0763,0.942091 0.15692,2.574375 0.17924,3.627299 0.0503,2.374986 0.21471,1.899435 0.80102,-2.317441 0.23116,-1.662511 0.64199,-3.974915 0.91296,-5.138673 0.27096,-1.163759 0.45311,-1.798535 0.40475,-1.410616 -0.0484,0.38792 -0.36676,2.872216 -0.70759,5.520659 -0.34082,2.648444 -0.59343,4.894084 -0.56136,4.990311 0.0321,0.09623 0.41595,-1.654 0.85305,-3.889394 0.4371,-2.235393 0.83005,-3.958377 0.87323,-3.828853 0.0432,0.129524 -0.10474,1.617174 -0.32869,3.30589 -0.58038,4.376464 -0.6828,5.589349 -0.47195,5.589349 0.10113,0 0.29689,-0.702789 0.43502,-1.561753 0.13812,-0.858965 0.46985,-2.332555 0.73715,-3.274645 0.5923,-2.087441 2.7171,-8.1050415 2.82409,-7.9980425 0.0424,0.04239 -0.32445,1.6099155 -0.81521,3.4833875 -0.49076,1.873473 -1.12217,4.449162 -1.40315,5.723755 -0.49667,2.253094 -1.40361,8.26294 -1.2675,8.39906 0.0372,0.0373 0.40176,-1.13449 0.80999,-2.603901 0.40823,-1.469409 1.10097,-3.714501 1.53942,-4.989093 0.95029,-2.762495 0.91676,-2.018621 -0.11352,2.518957 -1.20523,5.308067 -1.30818,5.800227 -1.22968,5.878727 0.0423,0.0423 0.22565,-0.45283 0.40735,-1.10039 0.96948,-3.455228 1.9302,-5.956885 3.59456,-9.360037 1.01558,-2.076599 1.87625,-3.745897 1.9126,-3.709551 0.0363,0.03635 -0.21257,0.737875 -0.55316,1.558952 -1.70175,4.102656 -4.08435,11.671346 -3.77231,11.983386 0.0439,0.044 0.24672,-0.39407 0.45057,-0.97344 0.3813,-1.083755 2.57425,-6.380124 2.93927,-7.098878 0.20081,-0.39541 0.20244,-0.39547 0.0859,-0.0032 -0.0653,0.219923 -0.44493,1.489477 -0.84357,2.821232 -0.8261,2.759811 -1.4644,5.148026 -1.45506,5.444116 0.004,0.11084 0.2633,-0.4786 0.57736,-1.30985 0.31406,-0.83126 1.04499,-2.362176 1.62429,-3.40204 1.86582,-3.349166 3.46446,-5.673508 2.12744,-3.093165 -1.91777,3.701106 -5.29064,12.868675 -4.88413,13.275175 0.0618,0.0618 0.21531,-0.27041 0.34126,-0.73813 0.21735,-0.80717 0.48696,-1.49599 2.37546,-6.069 1.43439,-3.473385 1.5965,-3.497135 0.43794,-0.0642 -0.80812,2.39459 -1.22942,3.92013 -1.08261,3.92013 0.0423,0 0.40467,-0.65745 0.8054,-1.46099 1.05638,-2.1183 2.76114,-5.197349 2.83607,-5.122408 0.0354,0.03539 -0.44102,1.281751 -1.05867,2.769698 -2.01756,4.86028 -4.9353,13.53749 -4.64848,13.82432 0.032,0.032 0.49812,-1.08235 1.03592,-2.47625 1.1307,-2.93059 2.78018,-6.25381 4.38985,-8.84423 1.71133,-2.75404 1.88715,-2.84763 0.65529,-0.34881 -1.70395,3.45646 -2.20567,4.81821 -3.94366,10.70366 -0.20897,0.70762 -0.33397,1.24062 -0.27777,1.18442 0.0562,-0.0562 0.48573,-0.86186 0.95454,-1.79038 0.85197,-1.68741 3.74155,-6.62538 3.87701,-6.62538 0.0394,0 -0.38383,0.97484 -0.9406,2.1663 -1.64952,3.52991 -3.60324,8.05977 -3.60019,8.34733 10e-4,0.14713 0.37206,-0.41261 0.82334,-1.24387 1.38914,-2.55881 4.82263,-7.65763 5.15656,-7.65763 0.10494,0 0.14187,-0.0674 -1.03779,1.89595 -0.96776,1.6107 -4.13888,7.82055 -4.13888,8.10495 0,0.0847 0.29472,-0.12419 0.65492,-0.46419 0.64356,-0.60745 4.85496,-3.49121 5.09852,-3.49121 0.14923,0 -0.70916,1.11006 -2.6491,3.42578 -2.34947,2.8046 -2.70335,3.59431 -5.09941,11.37977 -0.44243,1.43759 -0.78009,2.63812 -0.75036,2.66786 0.0298,0.0297 0.56222,-1.10113 1.18329,-2.51304 2.52352,-5.73685 2.87387,-6.49105 2.93293,-6.31388 0.0718,0.21558 -0.20651,1.28092 -1.34701,5.15505 -0.88342,3.00087 -1.04238,3.97046 -0.4221,2.57465 0.60889,-1.37019 1.87318,-3.07824 3.32101,-4.48671 l 1.34647,-1.30986 -1.43989,2.89013 c -0.79194,1.58957 -1.41198,2.97387 -1.37786,3.07622 0.0341,0.10236 0.54871,-0.54224 1.14354,-1.43243 0.59483,-0.89019 1.16596,-1.67072 1.26917,-1.7345 0.10321,-0.0638 -0.39092,1.04855 -1.09808,2.47188 -1.69215,3.40586 -4.31773,9.8693 -4.09827,10.08877 0.0372,0.0372 0.51086,-0.81542 1.05259,-1.8947 0.7803,-1.55461 1.33094,-2.31994 2.65023,-3.68351 1.90444,-1.96838 1.90492,-1.97415 -0.19943,2.4099 -1.23733,2.57778 -2.10902,4.91428 -3.11759,8.35649 -0.0703,0.24003 0.55089,-0.19802 1.57384,-1.10979 0.92951,-0.8285 1.91318,-1.68708 2.18591,-1.90795 l 0.49589,-0.4016 -0.3149,0.50379 c -0.1732,0.27709 -0.88711,1.39704 -1.58648,2.48878 -1.20115,1.87506 -1.37602,2.31518 -3.15752,7.94728 -1.03727,3.27926 -1.90674,5.97472 -1.93216,5.9899 -1.41278,0.84389 -2.66322,1.37607 -3.7904,1.61318 -1.81769,0.38236 -2.27738,0.35992 -3.52467,-0.17209 z M 43.430552,54.4015 c -0.12415,-0.35613 -0.26099,-0.61225 -0.3041,-0.56914 -0.0431,0.0431 0.0232,0.36975 0.14736,0.72588 0.12415,0.35614 0.26099,0.61225 0.30409,0.56915 0.0431,-0.0431 -0.0232,-0.36975 -0.14735,-0.72589 z m -0.55757,-1.36751 c -0.23755,-0.40852 -0.29492,-0.27776 -0.10046,0.229 0.0691,0.18009 0.1681,0.28499 0.21999,0.2331 0.0519,-0.0519 -10e-4,-0.25982 -0.11953,-0.4621 z m 13.44869,-24.65052 c 0,-0.19053 -0.0641,-0.15328 -0.17319,0.10076 -0.0953,0.22167 -0.17319,0.53906 -0.17319,0.70531 0,0.19053 0.0641,0.15328 0.17319,-0.10076 0.0952,-0.22167 0.17319,-0.53906 0.17319,-0.70531 z m -7.98152,-14.408434 c 0.002,-0.443336 0.0435,-0.600974 0.0917,-0.350304 0.0482,0.250669 0.0464,0.613399 -0.004,0.806066 -0.0504,0.192668 -0.0899,-0.01242 -0.0876,-0.455762 z m 4.19694,-4.2486405 c 0.01,-0.234755 0.0574,-0.282506 0.12175,-0.12175 0.0582,0.14547 0.051,0.319278 -0.0159,0.38624 -0.067,0.06696 -0.11458,-0.05206 -0.10584,-0.26449 z"
       id="path55" /><path
       style="fill:#5d6d58;fill-opacity:1;stroke-width:0.761638"
       d="m 48.490852,86.16931 c -2.7754,-1.23214 -2.61694,-1.10327 -3.35919,-2.73203 -0.91236,-2.00203 -1.57247,-3.91598 -2.20212,-6.38484 -0.28304,-1.10983 -0.72224,-2.83402 -0.97599,-3.83152 -0.38033,-1.49503 -2.5681,-6.72077 -3.12154,-7.45612 -0.25156,-0.33424 -1.46279,-3.03851 -1.26362,-2.82123 0.37571,0.40987 2.21375,2.86687 3.2271,4.31383 1.1677,1.66737 1.29066,1.52901 0.52572,-0.59155 -0.28577,-0.79223 -0.47805,-1.48194 -0.4273,-1.5327 0.0931,-0.0931 1.75296,4.42722 1.75296,4.77366 0,0.33422 1.05469,2.83038 1.15396,2.73111 0.0531,-0.0531 -0.0891,-0.66912 -0.31601,-1.36892 -0.60493,-1.86559 -1.96344,-7.24163 -2.35842,-9.33301 -0.31417,-1.6635 -0.6605,-2.75494 -1.99828,-6.2974 -0.2616,-0.69271 -0.44385,-1.25948 -0.405,-1.25948 0.0388,0 0.4267,0.65746 0.86186,1.461 0.43517,0.80355 1.17158,2.14111 1.63647,2.97237 0.78165,1.39762 0.8356,1.45197 0.71687,0.72207 -0.0706,-0.43412 -0.39718,-1.46592 -0.72569,-2.2929 -0.95127,-2.3947 -0.55805,-2.13865 0.49169,0.32016 0.63818,1.49481 1.35407,3.81706 2.16749,7.03114 0.66802,2.63953 1.60997,6.29541 2.09321,8.12418 0.48326,1.82876 0.9405,3.62622 1.0161,3.99436 0.28282,1.37712 0.2799,0.42243 -0.008,-2.59472 -0.41056,-4.30345 -0.7882,-6.36448 -1.93646,-10.56865 -1.2255,-4.48694 -1.70544,-5.97568 -2.32616,-7.21544 -0.26667,-0.53263 -0.65417,-1.4848 -0.8611,-2.11592 -0.78124,-2.38273 -1.83971,-4.95055 -2.93119,-7.11101 -0.62099,-1.22917 -1.03157,-2.1746 -0.9124,-2.10095 0.11917,0.0737 0.48953,0.67446 0.82304,1.33512 0.33351,0.66067 0.94954,1.76492 1.36898,2.4539 2.3186,3.80857 3.34595,6.2895 4.34633,10.49585 0.0756,0.31787 0.18141,0.53399 0.23514,0.48027 0.35402,-0.35404 -1.80946,-7.27907 -3.19513,-10.22723 -0.39071,-0.83125 -1.00854,-2.28217 -1.37297,-3.22426 -0.57828,-1.49493 -1.86737,-4.45025 -2.13156,-4.88678 -0.0503,-0.0831 -0.0472,-0.15113 0.007,-0.15113 0.0542,0 0.48118,0.70278 0.94887,1.56175 1.90366,3.49632 2.25012,4.0984 2.31886,4.02966 0.0664,-0.0664 -0.49821,-1.61001 -1.49229,-4.08004 -0.22303,-0.55417 -0.78108,-1.82135 -1.24012,-2.81595 -0.45904,-0.9946 -0.76142,-1.73536 -0.67196,-1.64614 0.24746,0.24683 1.39833,2.28848 2.11433,3.75083 0.35113,0.71714 0.67201,1.2031 0.71308,1.0799 0.0724,-0.21706 -0.26877,-1.25054 -1.13605,-3.44177 -0.23031,-0.58188 -0.3756,-1.05796 -0.32289,-1.05796 0.21513,0 0.93572,1.69602 1.72108,4.05086 0.80629,2.4176 2.10172,5.4709 4.19365,9.88432 1.15161,2.42959 1.31208,3.25329 2.15346,11.05288 0.57016,5.28543 1.07493,9.30777 1.18141,9.41425 0.24672,0.24673 0.24208,-7.81297 -0.006,-10.0188 -0.63719,-5.67096 -2.47529,-14.8061 -3.62398,-18.01075 -0.28301,-0.78958 -1.13801,-3.25603 -1.89997,-5.48099 -1.73979,-5.08024 -3.42279,-9.43188 -4.31524,-11.15769 -0.18585,-0.35939 -0.29945,-0.69188 -0.25246,-0.73888 0.12878,-0.12878 2.57586,5.28361 3.83666,8.48584 0.61094,1.55168 1.54922,4.22102 2.08508,5.93187 0.53586,1.71086 1.00162,2.96874 1.03502,2.7953 0.23947,-1.24348 -3.12751,-11.51496 -4.93915,-15.06761 -1.1202,-2.19673 -0.81362,-1.87589 0.8427,0.8819 0.7237,1.20497 1.31581,2.13452 1.31581,2.06567 0,-0.0688 -0.22991,-0.81008 -0.51092,-1.64717 -0.47474,-1.41424 -0.91008,-2.52446 -2.46855,-6.295266 -0.33211,-0.803548 -0.56684,-1.460996 -0.52163,-1.460996 0.13065,0 2.66142,5.186972 3.34294,6.851562 0.59804,1.4607 1.13938,2.37416 0.89569,1.51138 -0.0626,-0.22167 -0.1733,-0.67508 -0.24599,-1.00759 -0.17073,-0.78114 -1.47725,-4.87553 -2.37852,-7.453869 -0.387,-1.107109 -0.6784,-2.038158 -0.64756,-2.068999 0.11401,-0.114007 1.61309,3.688622 1.55757,3.951009 -0.0358,0.16907 0.0356,0.214513 0.18856,0.120001 0.14542,-0.08987 0.19431,-0.06827 0.11948,0.05281 -0.0697,0.112708 0.13814,0.965528 0.46176,1.895168 1.1427,3.28246 3.59952,12.07709 3.65282,13.07592 0.0196,0.36639 0.0527,0.40403 0.12157,0.13801 0.0521,-0.20119 -0.0424,-1.01733 -0.20999,-1.81365 -0.16757,-0.79633 -0.36052,-2.0373 -0.42877,-2.75772 -0.1303,-1.37556 -0.66494,-3.74146 -2.45188,-10.850153 -0.59462,-2.365475 -1.07867,-4.40583 -1.07566,-4.534123 0.008,-0.317702 2.33544,6.580576 2.62476,7.777646 0.12732,0.5268 0.31307,1.00824 0.41277,1.06985 0.25934,0.16028 0.25397,0.12358 -0.53193,-3.645357 -0.73927,-3.545265 -0.96103,-4.400072 -1.93308,-7.451064 -0.7029,-2.206219 -0.72986,-2.550806 -0.0924,-1.181859 0.56254,1.208165 1.75544,4.801891 2.26543,6.824822 0.19559,0.775839 0.38818,1.254862 0.42798,1.064496 0.0773,-0.369669 -0.64563,-4.236828 -1.49194,-7.981106 -0.28366,-1.25495 -0.48418,-2.313301 -0.44558,-2.35189 0.22433,-0.224336 2.46109,9.297693 3.0766,13.097318 0.16159,0.9975 0.70068,4.21673 1.19797,7.15384 0.49729,2.9371 0.94231,5.61223 0.98892,5.94474 0.0466,0.3325 0.0983,-0.12638 0.11494,-1.01974 0.0302,-1.62157 -0.40106,-5.47079 -1.17812,-10.51656 -0.2261,-1.46826 -0.58454,-3.826008 -0.7965,-5.239434 -0.21197,-1.413425 -0.48016,-2.977935 -0.59598,-3.476688 -0.11583,-0.498754 -0.20634,-1.042849 -0.20114,-1.2091 0.0191,-0.610816 0.95619,3.078649 1.60606,6.323227 0.36786,1.836575 0.69541,3.312645 0.72791,3.280155 0.1187,-0.11869 -0.5631,-6.143788 -0.96129,-8.49504 -0.5807,-3.428911 -0.63983,-4.094604 -0.18795,-2.115925 0.21515,0.94209 0.67598,3.390517 1.02408,5.440948 0.61774,3.638757 0.88583,7.668257 1.00555,15.113747 0.0318,1.98067 0.31353,1.90857 0.39364,-0.10076 0.0317,-0.79542 0.0718,-0.9015 0.19022,-0.50379 0.11071,0.37171 0.18244,0.10754 0.27362,-1.00758 0.21771,-2.66262 0.7862,-9.90288 0.95728,-12.191759 0.15909,-2.128509 0.88572,-6.530623 1.49684,-9.068247 0.23095,-0.959005 0.27781,-1.04237 0.22656,-0.403033 -0.23711,2.958006 -0.79421,7.579639 -1.12953,9.370522 -0.54311,2.900637 -0.7912,6.572367 -0.98038,14.509197 -0.0885,3.71294 -0.14432,6.77505 -0.12405,6.80468 0.1564,0.22869 1.13707,-7.37971 1.29556,-10.05157 0.12754,-2.14983 0.38325,-4.20173 0.71467,-5.7346 0.28384,-1.31281 0.46928,-2.50888 0.41208,-2.65793 -0.0639,-0.16655 -0.0151,-0.21605 0.12667,-0.12844 0.16401,0.10137 0.19334,-0.0441 0.10149,-0.50334 -0.0885,-0.44272 -0.0599,-0.60312 0.0909,-0.50989 0.14488,0.0895 0.17586,-0.003 0.0907,-0.2716 -0.0724,-0.22798 0.0513,-0.882985 0.28058,-1.486235 0.22548,-0.593238 0.41,-1.287153 0.41007,-1.542033 5e-5,-0.25488 0.12151,-0.708293 0.26991,-1.007583 0.14839,-0.29929 0.48302,-1.308587 0.74361,-2.242883 0.2606,-0.934295 0.50366,-1.609181 0.54013,-1.499746 0.0665,0.199473 -0.31229,2.082003 -1.25176,6.221214 -0.27672,1.219176 -0.59007,2.861896 -0.69635,3.650496 -0.10626,0.7886 -0.51873,2.91184 -0.9166,4.71831 -0.39786,1.80647 -0.69635,3.467 -0.66331,3.69006 0.0331,0.22307 0.54524,-1.62812 1.13826,-4.11376 1.21114,-5.07658 3.13185,-11.243835 4.56403,-14.654761 1.05236,-2.506316 1.47792,-2.996595 0.53019,-0.610804 -1.09739,2.762521 -2.61274,7.566602 -3.05,9.669345 -0.2384,1.14647 -0.73761,3.30869 -1.10937,4.80495 -1.29707,5.22052 -2.3426,11.60185 -2.59183,15.81906 -0.13037,2.20609 0.0232,1.52394 0.77039,-3.42245 0.64104,-4.24351 2.17743,-11.20946 3.62309,-16.42694 0.56162,-2.02695 2.0047,-6.43952 2.08101,-6.363211 0.0449,0.04497 -0.23444,1.155027 -0.62089,2.466799 -0.38646,1.311772 -0.93792,3.250192 -1.22547,4.307592 -0.76675,2.81961 -0.69603,3.29609 0.14619,0.98492 0.56733,-1.55683 3.60833,-8.067827 3.71726,-7.958903 0.0423,0.04225 -0.0689,0.358704 -0.24711,0.70323 -0.82961,1.604298 -2.9461,7.246093 -3.52797,9.404353 -0.35588,1.31998 -0.82035,2.96863 -1.03215,3.66367 -0.21181,0.69504 -0.38094,1.37516 -0.37585,1.51138 0.025,0.66975 1.97502,-4.24504 3.56055,-8.97397 0.17693,-0.5277 0.36423,-0.91692 0.41622,-0.86493 0.052,0.052 -0.14365,0.80113 -0.43476,1.66476 -0.52724,1.56421 -2.15717,7.19378 -3.07873,10.63356 -0.26651,0.99481 -0.4567,1.94697 -0.42264,2.11593 0.034,0.16896 0.45093,-1.09839 0.92635,-2.81631 0.47543,-1.71793 1.04093,-3.60627 1.25667,-4.19631 0.21574,-0.59004 0.34512,-1.14906 0.28751,-1.24227 -0.0576,-0.0932 -0.005,-0.20267 0.1166,-0.24325 0.12174,-0.0406 0.23566,-0.31167 0.25316,-0.60242 0.0175,-0.29075 0.11523,-0.47713 0.21719,-0.41417 0.10196,0.063 0.13002,-0.0298 0.0624,-0.20612 -0.0676,-0.17633 0.008,-0.42901 0.16727,-0.56152 0.15967,-0.13251 0.2903,-0.34575 0.2903,-0.47388 0,-0.51229 2.80793,-6.445587 2.81881,-5.956284 0.001,0.06006 -0.37129,1.012217 -0.82805,2.115924 -1.88102,4.54525 -3.66077,9.84033 -4.62782,13.7686 -0.5557,2.25733 -0.97361,4.14099 -0.9287,4.1859 0.0449,0.0449 0.41948,-1.12187 0.83237,-2.59286 0.81286,-2.89601 1.7394,-5.48471 2.3637,-6.60409 0.21635,-0.38792 0.33732,-0.52395 0.26884,-0.30228 -0.0796,0.2575 -0.0556,0.33026 0.0663,0.20152 0.10494,-0.11084 0.25227,-0.42823 0.32741,-0.70531 0.10445,-0.38521 0.0868,-0.43264 -0.075,-0.20152 -0.32016,0.45729 -0.25935,0.10079 0.11768,-0.68984 0.18451,-0.38693 0.41018,-0.65734 0.50148,-0.60092 0.0913,0.0564 0.11229,-0.0374 0.0466,-0.20845 -0.0702,-0.18298 0.0132,-0.36192 0.20267,-0.43461 0.17711,-0.068 0.27185,-0.20476 0.21053,-0.30398 -0.0613,-0.0992 -0.0183,-0.1804 0.0956,-0.1804 0.1139,0 0.14917,-0.1509 0.0784,-0.33533 -0.0934,-0.24348 -0.0556,-0.29015 0.13822,-0.17038 0.18251,0.1128 0.21896,0.0874 0.11526,-0.0804 -0.0834,-0.13494 -0.0214,-0.39833 0.13777,-0.58531 0.15916,-0.18697 0.72507,-1.08808 1.25757,-2.00246 0.5325,-0.91439 1.00594,-1.66252 1.0521,-1.66252 0.0462,0 0.0458,0.068 -7.6e-4,0.15114 -0.49229,0.87841 -2.38297,5.05807 -2.7119,5.99512 -0.7145,2.0354 -2.2653,7.10063 -2.26175,7.38731 10e-4,0.14868 0.5537,-0.77253 1.22634,-2.04712 1.21976,-2.31134 3.3869,-6.0455 3.50853,-6.0455 0.0353,0 -0.63953,1.51893 -1.49955,3.37541 -0.86003,1.85647 -1.90137,4.19154 -2.31409,5.18905 -0.41274,0.99751 -0.88417,2.11959 -1.04765,2.49353 -0.58818,1.34538 -0.10323,0.82456 0.60682,-0.65171 0.86775,-1.80413 3.01581,-5.34857 4.20367,-6.93634 1.09828,-1.46804 1.48785,-1.90414 1.06659,-1.19399 -0.1837,0.30969 -0.59982,1.01389 -0.9247,1.56489 -0.32489,0.55101 -1.86509,3.5622 -3.42268,6.69154 -2.62945,5.28283 -2.91105,5.96104 -3.93771,9.48396 -1.88909,6.48223 -2.09961,7.45318 -2.31658,10.68487 -0.11106,1.65417 -0.15396,3.05553 -0.0953,3.11416 0.0587,0.0587 0.1066,-0.13618 0.1066,-0.43292 0,-1.03002 1.68703,-8.06654 2.85809,-11.92093 2.20936,-7.27178 2.86221,-8.53365 5.97708,-11.55272 2.68286,-2.60035 3.31556,-2.97262 1.62888,-0.95841 -3.68373,4.39907 -4.06085,5.14529 -6.14529,12.15987 -0.30489,1.02598 -0.58905,1.8307 -0.63149,1.78827 -0.0424,-0.0424 0.0725,-0.95523 0.25544,-2.02842 0.18293,-1.07319 0.28778,-1.99608 0.23299,-2.05086 -0.14441,-0.14441 -0.76537,1.99128 -2.2529,7.74847 -1.60603,6.21578 -2.30619,9.95726 -2.53824,13.56374 -0.0973,1.51257 -0.36954,4.26267 -0.60495,6.11133 -0.23541,1.84866 -0.38518,3.40403 -0.33283,3.45638 0.12483,0.12483 0.82607,-3.70261 1.35226,-7.38068 0.22991,-1.6071 0.81689,-5.32508 1.3044,-8.26218 1.06758,-6.4318 1.58581,-8.02877 4.95685,-15.27498 1.64197,-3.52948 1.59793,-3.20857 -0.53523,3.90068 -0.26794,0.89293 -0.48715,1.77986 -0.48715,1.97095 0,0.19109 -0.32352,1.62319 -0.71895,3.18245 -0.39542,1.55925 -0.67319,2.88076 -0.61728,2.93667 0.27283,0.27284 1.78522,-3.35841 2.36802,-5.68558 0.62639,-2.50127 0.66469,-2.58269 2.02004,-4.29476 0.75984,-0.95984 1.38154,-1.84519 1.38154,-1.96745 0,-0.12226 0.18646,-0.39104 0.41435,-0.59728 0.24724,-0.22375 -0.20549,0.86398 -1.12254,2.69705 -1.60468,3.20755 -1.92355,4.34917 -0.64901,2.3236 1.69144,-2.68814 1.85646,-2.58555 0.41677,0.25909 -0.93711,1.85158 -2.06893,4.46361 -2.65022,6.11619 -0.21442,0.60959 -0.80707,2.28721 -1.31699,3.72806 -0.93272,2.63548 -3.60655,11.8054 -3.47939,11.93256 0.0375,0.0376 0.72711,-1.77048 1.53244,-4.01776 2.29,-6.39033 3.17554,-8.73603 3.65056,-9.67001 0.38059,-0.74829 2.94058,-4.52269 3.45661,-5.09636 0.19278,-0.2143 -0.23226,0.86828 -0.47471,1.2091 -0.0789,0.11084 -0.73924,1.49939 -1.46755,3.08566 -1.10929,2.41609 -1.64868,3.92931 -2.68919,7.54434 -0.16356,0.56825 0.21189,0.40922 1.00171,-0.42427 0.40492,-0.42732 1.29943,-1.26486 1.98778,-1.86119 l 1.25156,-1.08424 -1.16767,1.8108 c -0.64222,0.99594 -1.38201,2.12657 -1.64398,2.51251 -0.26198,0.38594 -0.47593,0.79401 -0.47546,0.90682 4.7e-4,0.11282 -0.54645,1.88275 -1.21539,3.93317 -0.66893,2.05044 -1.50258,4.61736 -1.85256,5.70427 l -0.63633,1.97622 -1.27038,0.71043 c -0.83142,0.46496 -1.8105,0.80673 -2.83355,0.98913 -1.84476,0.3289 -1.82414,0.32855 -2.46999,0.0418 z m 3.00813,-23.47763 c 0.46031,-1.71836 1.25501,-6.85111 1.63021,-10.52925 0.22047,-2.16126 0.57786,-5.19912 0.79419,-6.7508 0.53597,-3.84438 0.69448,-5.46717 0.5179,-5.30238 -0.0817,0.0762 -0.2711,0.75633 -0.42096,1.51137 -0.14987,0.75504 -0.59971,2.86907 -0.99965,4.69783 -1.3663,6.24752 -2.24031,13.09612 -1.99954,15.66791 0.0752,0.80355 0.16798,1.461 0.2061,1.461 0.0382,0 0.16041,-0.34006 0.27175,-0.75568 z m -1.16271,-4.0097 c 0.008,-5.53636 -0.38336,-8.30919 -2.14979,-15.24189 -0.75483,-2.96249 -1.40318,-5.35558 -1.44076,-5.31799 -0.0376,0.0376 0.24729,1.63193 0.63306,3.543 0.99038,4.90621 2.71726,17.94544 2.72244,20.55637 7.6e-4,0.48951 0.0529,0.83886 0.11547,0.77632 0.0625,-0.0625 0.11635,-2.00465 0.11958,-4.31581 z m 3.36711,-4.10135 c 0.32449,-1.6071 0.65603,-3.41891 0.73676,-4.02626 0.0807,-0.60736 0.27615,-1.46884 0.43428,-1.91441 0.15813,-0.44557 0.79145,-2.66913 1.40737,-4.94122 0.61592,-2.2721 1.23784,-4.56217 1.38205,-5.08904 0.55414,-2.02453 -0.0908,-0.62962 -1.06866,2.3115 -2.72906,8.20793 -3.13078,9.96792 -3.55472,15.57384 -0.14067,1.86009 -0.0412,1.57292 0.66292,-1.91441 z m 0.56759,-7.69541 c -0.0644,-0.16076 -0.11207,-0.11301 -0.12175,0.12174 -0.009,0.21244 0.0389,0.33146 0.10584,0.2645 0.0669,-0.067 0.0741,-0.24077 0.0159,-0.38624 z m 0.43264,-1.67511 0.006,-0.40303 -0.17319,0.40303 c -0.0953,0.22167 -0.17052,0.62974 -0.16726,0.90682 l 0.006,0.5038 0.16134,-0.5038 c 0.0887,-0.27708 0.16401,-0.68515 0.16727,-0.90682 z m 4.4287,-11.6933 c -0.0621,-0.062 -0.17472,0.0498 -0.2504,0.24854 -0.10936,0.2872 -0.0862,0.31035 0.11281,0.11281 0.13772,-0.1367 0.19964,-0.2993 0.13759,-0.36135 z M 38.213502,50.5503 c -0.23676,-0.3325 -0.38513,-0.60455 -0.32972,-0.60455 0.0554,0 0.29448,0.27205 0.53124,0.60455 0.23676,0.3325 0.38514,0.60455 0.32972,0.60455 -0.0554,0 -0.29447,-0.27205 -0.53124,-0.60455 z m 6.34292,-1.45681 c -0.57385,-1.27793 -1.53782,-4.14125 -1.79926,-5.34438 -0.0783,-0.36021 -0.2173,-0.65492 -0.30895,-0.65492 -0.0917,0 -0.1155,-0.19555 -0.053,-0.43455 0.0852,-0.32595 0.0468,-0.39323 -0.15388,-0.26922 -0.19908,0.12304 -0.2315,0.0715 -0.12675,-0.20146 0.16481,-0.42948 -0.42907,-2.37139 -0.67815,-2.21745 -0.0932,0.0576 -0.35716,-0.39704 -0.58661,-1.0103 -0.55607,-1.48623 -1.35556,-3.06358 -1.99078,-3.92769 -0.46333,-0.63029 -0.47027,-0.66323 -0.0653,-0.30967 0.24928,0.2176 0.86006,0.96573 1.35727,1.66251 0.49722,0.69678 0.93964,1.26688 0.98317,1.26688 0.0435,0 -0.19454,-0.65745 -0.52906,-1.461 -0.92605,-2.22447 -1.57776,-3.97995 -1.47755,-3.97995 0.13559,0 3.03741,6.04085 3.29125,6.85156 l 0.22085,0.70531 -0.49923,-0.60455 c -0.68695,-0.83188 -0.62909,-0.50041 0.2814,1.61213 0.42991,0.99751 1.02589,2.58445 1.32439,3.52654 0.55936,1.76534 1.54828,5.88317 1.4391,5.99234 -0.0338,0.0338 -0.31688,-0.50711 -0.62897,-1.20213 z m -1.81708,-2.78845 c -0.073,-0.1182 -0.0896,-0.25814 -0.0368,-0.31096 0.0529,-0.0528 0.14974,0.0439 0.21537,0.21492 0.13626,0.35509 0.0201,0.41756 -0.17859,0.096 z m 6.87972,-18.52612 c -0.19101,-6.088832 -0.20093,-5.359288 0.12742,-9.370518 l 0.26394,-3.224266 0.21586,4.030332 c 0.11873,2.216683 0.14745,4.846474 0.0638,5.843982 -0.0836,0.99751 -0.17066,2.90184 -0.19343,4.23185 -0.076,4.43981 -0.31462,3.68469 -0.47763,-1.51138 z m 2.31823,1.87371 c -0.0257,-1.05103 0.64689,-5.783042 1.29333,-9.099948 0.50551,-2.59382 2.31388,-9.56623 2.44668,-9.433444 0.0843,0.08431 -0.50958,2.64004 -1.01481,4.367173 -0.30354,1.037649 -0.91419,3.724851 -1.33654,5.881653 -0.10174,0.519473 -0.32602,2.061075 -0.49841,3.425782 -0.17239,1.364704 -0.43858,3.206744 -0.59151,4.093414 -0.22287,1.29204 -0.28218,1.44401 -0.29874,0.76537 z m 6.84682,-3.40187 c 0.01,-0.23476 0.0574,-0.28251 0.12175,-0.12175 0.0582,0.14547 0.051,0.31927 -0.0159,0.38624 -0.0669,0.067 -0.11459,-0.0521 -0.10584,-0.26449 z m 0.19178,-0.587761 c 0,-0.110834 0.0879,-0.33754 0.19534,-0.503792 0.10744,-0.166251 0.19535,-0.211592 0.19535,-0.100757 0,0.110834 -0.0879,0.33754 -0.19535,0.503791 -0.10744,0.166251 -0.19534,0.211589 -0.19534,0.100758 z m -13.29036,-7.069874 c 0.01,-0.234755 0.0574,-0.282506 0.12174,-0.121749 0.0582,0.145469 0.051,0.319277 -0.0159,0.38624 -0.0669,0.06696 -0.11458,-0.05206 -0.10583,-0.264491 z m 0.80606,-2.418199 c 0.01,-0.234755 0.0574,-0.282506 0.12176,-0.12175 0.0582,0.14547 0.051,0.319278 -0.0159,0.386241 -0.067,0.06696 -0.11459,-0.05206 -0.10585,-0.264491 z m 6.26293,-1.897615 c 0,-0.277085 0.0458,-0.390438 0.10164,-0.251895 0.0559,0.138542 0.0559,0.365248 0,0.503791 -0.0559,0.138542 -0.10164,0.02519 -0.10164,-0.251896 z m -9.68871,-0.319068 c 0.01,-0.234755 0.0574,-0.282506 0.12175,-0.121749 0.0582,0.145469 0.051,0.319277 -0.0159,0.38624 -0.067,0.06696 -0.11459,-0.05206 -0.10584,-0.264491 z m 2.61972,-1.410616 c 0.01,-0.234755 0.0574,-0.282506 0.12174,-0.121749 0.0582,0.145469 0.051,0.319277 -0.0159,0.38624 -0.0669,0.06696 -0.11458,-0.05206 -0.10583,-0.264491 z"
       id="path56" /></g></svg>
