<?xml version="1.0" encoding="UTF-8" standalone="no"?>
<!-- Created with Inkscape (http://www.inkscape.org/) -->

<svg
   width="100mm"
   height="100mm"
   viewBox="0 0 100 100"
   version="1.1"
   id="svg1"
   inkscape:version="1.4 (86a8ad7, 2024-10-11)"
   sodipodi:docname="bush1.svg"
   xml:space="preserve"
   xmlns:inkscape="http://www.inkscape.org/namespaces/inkscape"
   xmlns:sodipodi="http://sodipodi.sourceforge.net/DTD/sodipodi-0.dtd"
   xmlns="http://www.w3.org/2000/svg"
   xmlns:svg="http://www.w3.org/2000/svg"><sodipodi:namedview
     id="namedview1"
     pagecolor="#ffffff"
     bordercolor="#000000"
     borderopacity="0.25"
     inkscape:showpageshadow="2"
     inkscape:pageopacity="0.0"
     inkscape:pagecheckerboard="true"
     inkscape:deskcolor="#d1d1d1"
     inkscape:document-units="mm"
     inkscape:zoom="1.4378367"
     inkscape:cx="165.87419"
     inkscape:cy="136.66364"
     inkscape:window-width="1920"
     inkscape:window-height="1009"
     inkscape:window-x="1912"
     inkscape:window-y="-8"
     inkscape:window-maximized="1"
     inkscape:current-layer="layer1" /><defs
     id="defs1" /><g
     inkscape:label="Warstwa 1"
     inkscape:groupmode="layer"
     id="layer1"><path
       style="fill:#b7a26c;fill-opacity:1"
       d="m 41.939249,65.516841 c -0.77449,-1.003263 -1.488281,-1.87363 -1.586202,-1.934149 -0.09792,-0.06052 -0.463959,-0.03109 -0.813418,0.0654 -0.892058,0.246309 -1.571486,0.06283 -2.295339,-0.61985 -0.3434,-0.323868 -0.808328,-0.587984 -1.03504,-0.587984 -0.226378,0 -0.505352,-0.150125 -0.619942,-0.333613 -0.164782,-0.263858 -0.295559,-0.300454 -0.625464,-0.175024 -0.634109,0.241087 -1.294317,0.190341 -1.644299,-0.126388 -0.294143,-0.266197 -0.398784,-0.232479 -1.587846,0.511647 -0.700123,0.438143 -1.301915,0.76766 -1.337315,0.73226 -0.0354,-0.0354 0.456336,-0.859071 1.092747,-1.830381 0.63641,-0.971309 1.15711,-1.800727 1.15711,-1.84315 0,-0.04242 -0.215774,0.0049 -0.479497,0.105172 -0.653646,0.248515 -1.573989,0.04851 -1.810521,-0.393452 -0.106686,-0.199344 -0.163702,-0.621742 -0.126704,-0.938662 0.06425,-0.550317 0.03648,-0.58114 -0.617685,-0.685746 -0.975303,-0.155957 -1.33637,-0.394091 -1.617418,-1.066734 -0.282527,-0.676181 -0.123524,-1.304749 0.497835,-1.968035 0.365351,-0.390004 0.36657,-0.409986 0.05701,-0.934035 -0.199207,-0.33723 -0.280353,-0.715398 -0.21916,-1.021363 l 0.09717,-0.485857 -1.609791,-0.226091 c -2.429221,-0.341179 -2.474891,-0.38921 -0.889659,-0.935659 1.950829,-0.672474 2.26406,-0.818131 2.053582,-0.954942 -0.297207,-0.193185 -0.585905,-0.849711 -0.585905,-1.332406 0,-0.267221 0.248859,-0.724021 0.615571,-1.129927 0.556305,-0.615763 0.597314,-0.729379 0.42595,-1.1801 -0.381691,-1.003923 0.324635,-2.34014 1.237001,-2.34014 0.188833,0 0.338627,-0.170454 0.391122,-0.445068 0.07276,-0.380619 -0.260104,-0.801596 -2.298674,-2.907157 -1.311065,-1.354149 -2.40962,-2.531023 -2.441233,-2.615275 -0.05741,-0.153016 1.809673,0.49185 4.783148,1.652033 l 1.575223,0.614617 0.05405,-0.595313 c 0.0593,-0.653199 0.709748,-1.30463 1.302656,-1.30463 0.280408,0 0.322687,-0.07545 0.220684,-0.393806 -0.492913,-1.538434 -0.178878,-2.231566 1.011049,-2.231566 0.383033,0 1.004309,0.09224 1.380613,0.204989 0.571972,0.171367 0.728099,0.16108 0.951896,-0.06272 0.240257,-0.240256 0.239484,-0.335248 -0.0075,-0.926462 -0.433362,-1.03718 -0.331934,-1.094575 0.496871,-0.281164 l 0.772118,0.757776 -0.01266,-0.837422 c -0.01073,-0.710097 0.06249,-0.902066 0.481611,-1.262577 0.604781,-0.52021 1.395793,-0.434662 1.924871,0.208177 0.314683,0.382346 0.384374,0.399996 0.689795,0.174697 0.18686,-0.13784 0.532903,-0.250619 0.768985,-0.250619 h 0.429239 l -0.09117,-2.712884 c -0.05015,-1.492086 -0.06432,-2.712884 -0.03149,-2.712884 0.03283,0 0.580326,1.023895 1.216666,2.275322 1.112807,2.188446 1.332415,2.48249 1.568623,2.100297 0.153508,-0.248381 0.724372,-0.216716 1.280844,0.07105 0.408826,0.211412 0.523249,0.211412 0.812373,0 0.392741,-0.287179 1.171623,-0.324205 1.427948,-0.06788 0.120906,0.120906 0.360167,-0.04825 0.744238,-0.526176 0.561659,-0.69891 1.673674,-1.402263 2.217004,-1.402263 0.50672,0 1.306196,0.970003 1.306196,1.584805 0,0.558297 0.0043,0.561008 0.732574,0.463324 1.146836,-0.153823 1.892797,0.353906 1.892797,1.288308 0,0.294845 0.0939,0.320318 0.831368,0.225534 0.457252,-0.05877 0.878863,-0.155713 0.936914,-0.215432 0.05805,-0.05972 0.998798,-1.283465 2.090551,-2.719435 1.091752,-1.435971 2.01197,-2.529959 2.044928,-2.431086 0.04687,0.140606 -1.08069,5.088535 -1.448756,6.357401 -0.04501,0.155165 0.08603,0.336823 0.315633,0.437562 0.215926,0.09474 0.471354,0.352882 0.567618,0.573654 0.128067,0.293711 0.275114,0.376389 0.548084,0.308166 0.475099,-0.118741 1.40738,0.201288 1.531936,0.525875 0.07492,0.195229 0.198126,0.209256 0.576032,0.06558 1.035305,-0.393622 1.80708,0.177325 1.80708,1.336852 0,0.426311 0.03065,0.77511 0.0681,0.77511 0.03746,0 0.603871,-0.313085 1.258699,-0.695744 0.654827,-0.382659 1.219574,-0.666765 1.254993,-0.631346 0.03542,0.03542 -0.418563,0.73959 -1.008847,1.564826 l -1.073246,1.500428 0.424169,0.457446 0.424168,0.457447 2.31392,-0.643082 c 1.272655,-0.353695 2.342363,-0.614637 2.377128,-0.579873 0.03476,0.03477 -0.670492,0.718372 -1.567237,1.519127 -1.358332,1.212932 -1.647882,1.562994 -1.734922,2.097497 -0.06517,0.400203 -0.03173,0.666272 0.08889,0.707214 0.516149,0.175199 0.870241,0.755115 0.761994,1.247959 -0.09583,0.436332 -0.03822,0.540564 0.433679,0.784593 0.734652,0.379903 0.959366,1.015954 0.693904,1.964091 -0.114305,0.408258 -0.164723,0.907118 -0.11204,1.108579 0.12974,0.496125 -0.192167,1.361223 -0.584685,1.571292 -0.176073,0.09423 -0.522214,0.17133 -0.769201,0.17133 -0.527892,0 -0.534339,0.02752 -0.171042,0.730053 0.181251,0.3505 0.239989,0.740407 0.168748,1.120153 -0.107504,0.573047 -0.07789,0.605852 1.823157,2.019807 1.062839,0.790515 1.90531,1.464425 1.872157,1.497578 -0.03315,0.03315 -1.035226,-0.105309 -2.226828,-0.307694 -1.773903,-0.301283 -2.180334,-0.325264 -2.242608,-0.132319 -0.04183,0.129609 -0.327091,0.474429 -0.633907,0.766266 -0.42325,0.402586 -0.525357,0.613738 -0.423186,0.875124 0.421069,1.077227 -0.159561,2.182271 -1.146644,2.182271 -0.52336,0 -0.591559,0.05946 -0.693904,0.605003 -0.145252,0.77426 -0.876684,1.379941 -1.493105,1.236403 -0.244826,-0.05701 -0.653668,-0.329343 -0.908538,-0.605187 l -0.4634,-0.501535 -1.226145,1.11908 c -1.20708,1.101679 -2.279829,1.749818 -3.586691,2.167026 -0.528867,0.168838 -0.77095,0.401602 -1.190094,1.144285 -0.289397,0.512783 -0.620723,1.009343 -0.736281,1.103466 -0.115557,0.09412 -0.879574,0.198978 -1.697814,0.233011 -1.722896,0.07166 -1.650135,0.231361 -0.888839,-1.950908 0.625064,-1.791759 0.67592,-2.622041 0.187666,-3.063904 -0.193117,-0.174769 -0.379302,-0.285428 -0.413744,-0.245908 -0.03444,0.03952 -0.280251,0.741324 -0.546242,1.559565 -0.265991,0.81824 -0.74631,2.063402 -1.067376,2.767025 l -0.583756,1.279316 -0.750445,-0.05414 c -0.83722,-0.0604 -0.905225,-0.253581 -0.467079,-1.326794 0.196717,-0.481843 0.195112,-0.634353 -0.01012,-0.962636 -0.134131,-0.214546 -0.514359,-0.922296 -0.844951,-1.572778 l -0.601076,-1.182694 -0.376085,0.478114 c -0.450177,0.572308 -0.452207,0.560879 0.420126,2.364754 0.92671,1.916317 0.914954,2.06038 -0.168122,2.06038 h -0.859304 l -0.743974,-1.356442 c -1.34849,-2.458616 -2.089911,-3.719277 -2.187384,-3.719277 -0.03561,0 -0.01696,0.64978 0.04144,1.443955 l 0.106182,1.443954 1.037982,1.091233 c 0.57089,0.600178 0.988561,1.171196 0.928158,1.268929 -0.0604,0.09773 -0.571742,0.177697 -1.136311,0.177697 h -1.026489 z m 13.887317,-3.319847 c 0.82755,-1.237754 1.124004,-1.826003 1.045263,-2.074095 -0.0919,-0.289559 -0.19503,-0.19728 -0.629299,0.563097 -0.285661,0.500174 -0.745879,1.039397 -1.022705,1.198274 -0.276826,0.158876 -0.545932,0.447421 -0.598014,0.64121 -0.112372,0.418124 -0.132055,1.580929 -0.02495,1.473822 0.04099,-0.04099 0.594355,-0.852027 1.229703,-1.802308 z m -13.449724,1.016565 c -0.05843,-0.152268 -0.106238,-0.412879 -0.106238,-0.579134 0,-0.166255 -0.107774,-0.449672 -0.239498,-0.629815 -0.231233,-0.316231 -0.246642,-0.314184 -0.446528,0.05931 -0.175067,0.327116 -0.144847,0.465602 0.195741,0.896983 0.438597,0.555518 0.765945,0.694167 0.596523,0.252659 z M 50.1233,62.921581 c 0.708675,-2.255159 0.631418,-2.819124 -0.217449,-1.587336 -0.519492,0.753834 -0.552506,0.880042 -0.38973,1.489884 0.217685,0.815558 0.37365,0.840591 0.607179,0.09745 z m 8.164663,-0.321725 c 0.990582,-0.519047 1.208097,-0.838947 0.843999,-1.241271 -0.470004,-0.519348 -0.86062,-0.376169 -1.440932,0.52817 -0.298826,0.46568 -0.54332,0.898866 -0.54332,0.962636 0,0.214341 0.437816,0.118529 1.140253,-0.249535 z"
       id="path20" /><path
       style="fill:#735e40;fill-opacity:1"
       d="m 43.089543,66.921919 c -0.0995,-0.259303 -1.33124,-1.897677 -2.17174,-2.888705 l -0.504504,-0.594859 0.422292,-0.422292 0.422292,-0.422293 0.586804,0.659585 c 0.322742,0.362772 0.625013,0.621376 0.671713,0.574676 0.0467,-0.0467 0.01238,-0.397744 -0.07627,-0.780096 -0.230795,-0.995457 -0.214036,-1.074599 0.224277,-1.059132 0.467292,0.01649 0.605698,0.432912 0.635635,1.912433 0.02019,0.99784 0.0427,1.043181 0.900694,1.814595 0.483992,0.43515 0.95933,0.939439 1.056307,1.120641 0.164148,0.306714 0.09865,0.32946 -0.948773,0.32946 -0.800662,0 -1.152094,-0.07036 -1.218729,-0.244013 z m 5.685616,0.09039 c -0.193129,-0.122419 -0.184668,-0.293262 0.04854,-0.980168 0.277759,-0.818119 0.275057,-0.844507 -0.162973,-1.591949 -0.244978,-0.418023 -0.596937,-1.113531 -0.782132,-1.545573 l -0.336719,-0.785532 0.383541,0.143245 c 0.210947,0.07878 0.558509,0.07734 0.77236,-0.0032 0.350253,-0.131928 0.419431,-0.06027 0.697425,0.722441 0.169733,0.477893 0.35373,0.868897 0.408884,0.868897 0.05515,0 0.30603,-0.610399 0.557502,-1.356442 0.44651,-1.324662 0.471683,-1.357702 1.074432,-1.410205 l 0.61721,-0.05376 -0.104299,0.666349 c -0.05736,0.366492 -0.39941,1.41458 -0.760101,2.329084 -1.194825,3.029381 -1.259949,3.146978 -1.742211,3.145986 -0.24066,-4.95e-4 -0.542817,-0.06762 -0.671461,-0.149161 z m -2.175025,-0.142502 c -0.169744,-0.04427 -0.45184,-0.369869 -0.62688,-0.723552 -0.34296,-0.692981 -1.11099,-2.091906 -1.842462,-3.355944 -0.500323,-0.864595 -0.549908,-1.050149 -0.280633,-1.050149 0.09865,0 0.248985,0.183139 0.334088,0.406974 0.223261,0.587221 1.000839,1.041899 1.62513,0.950272 0.509087,-0.07472 0.545583,-0.03012 1.292947,1.580126 0.918148,1.978206 0.961225,2.321477 0.287754,2.293069 -0.264725,-0.01117 -0.620199,-0.05652 -0.789944,-0.100796 z m 5.296832,-0.235923 c 0,-0.100099 0.162634,-0.500787 0.361409,-0.890417 0.263246,-0.516004 0.853557,-2.812421 0.86432,-3.362358 3.05e-4,-0.0156 0.317476,-0.03227 0.704823,-0.03705 l 0.704268,-0.0087 -0.114843,1.015086 c -0.06316,0.558297 -0.0456,1.012967 0.03903,1.010377 0.08463,-0.0026 0.350778,-0.330863 0.591437,-0.729497 0.325195,-0.538661 1.6491,-2.56339 2.007075,-3.06954 0.01584,-0.02239 0.271752,0.05099 0.568701,0.16308 l 0.539908,0.203792 -0.703626,1.114113 c -0.386994,0.612762 -0.65814,1.159598 -0.602545,1.215193 0.154282,0.154282 2.396085,-0.977139 2.506565,-1.265045 0.0597,-0.155583 0.339322,-0.25276 0.727296,-0.25276 h 0.630302 l -0.733427,0.747308 c -0.648222,0.660491 -1.711827,1.244481 -3.384116,1.858106 -0.266497,0.09779 -0.659245,0.519463 -0.943172,1.012641 -0.830054,1.441793 -0.85608,1.457664 -2.390335,1.457664 -0.833768,0 -1.373072,-0.07148 -1.373072,-0.181997 z M 31.482112,61.43387 c 0.508163,-0.746043 0.975055,-1.494274 1.037538,-1.662735 0.206539,-0.556857 0.427854,-0.319026 0.548343,0.589262 0.06534,0.492556 0.09518,0.909328 0.0663,0.92616 -0.02887,0.01683 -0.40692,0.261992 -0.840107,0.544798 -0.793557,0.518076 -1.563927,0.958957 -1.675624,0.958957 -0.03321,0 0.355381,-0.610399 0.863545,-1.356442 z m 3.437451,-3.279726 c 0,-0.06764 0.146635,-0.332037 0.325855,-0.587557 0.179221,-0.255519 0.855266,-1.390024 1.502323,-2.521121 0.647057,-1.131098 1.202296,-2.056542 1.233866,-2.056542 0.109226,0 2.581627,3.165876 2.516559,3.22242 -0.03593,0.03122 -1.197627,0.467278 -2.581555,0.969017 -1.383928,0.501738 -2.624416,0.953766 -2.75664,1.004505 -0.132225,0.05074 -0.240408,0.03691 -0.240408,-0.03072 z m 24.503946,-2.499147 -3.062457,-1.480063 0.61211,-0.520391 c 1.563073,-1.328862 2.112853,-1.760037 2.163463,-1.696737 0.346998,0.434007 3.442234,5.106363 3.402722,5.136516 -0.02936,0.02241 -1.431487,-0.625291 -3.115838,-1.439325 z m 11.726183,1.089873 c -0.144395,-0.0297 -1.16829,-0.183334 -2.275322,-0.341418 -2.947886,-0.420956 -2.839931,-0.38742 -2.699955,-0.838743 0.250481,-0.807619 0.845917,-2.05071 0.982282,-2.05071 0.0781,0 1.136913,0.748231 2.352913,1.662735 1.215999,0.914505 2.141542,1.653599 2.056763,1.642432 -0.08478,-0.01117 -0.272286,-0.0446 -0.416681,-0.0743 z M 29.295463,52.032152 c -0.04491,-0.04491 -0.747193,-0.16603 -1.560637,-0.269162 -0.813444,-0.103133 -1.828003,-0.243604 -2.254576,-0.312158 l -0.775585,-0.124643 1.30066,-0.41673 c 0.715363,-0.229202 1.717161,-0.600312 2.226218,-0.82469 0.509057,-0.224378 1.198217,-0.45911 1.531467,-0.521628 0.551968,-0.10355 0.606044,-0.07688 0.60743,0.299615 8.37e-4,0.227306 0.05119,0.82678 0.111892,1.332164 l 0.11037,0.91888 h -0.607795 c -0.334288,0 -0.644537,-0.03674 -0.689444,-0.08165 z m 20.851256,-2.678593 c -0.625714,-0.235401 -1.318216,-0.498093 -1.538894,-0.58376 -0.389303,-0.151126 -0.351575,-0.229383 1.26893,-2.63204 0.918589,-1.361956 1.670162,-2.543539 1.670162,-2.62574 0,-0.0822 0.07679,-0.149458 0.170649,-0.149458 0.09386,0 0.133853,0.216594 0.08888,0.481319 -0.04497,0.264725 -0.165328,1.699734 -0.267455,3.18891 -0.102126,1.489175 -0.201193,2.716857 -0.220147,2.728181 -0.01895,0.01132 -0.546411,-0.172011 -1.172124,-0.407412 z m 11.130297,-5.68951 c -0.44211,-0.811061 -0.803835,-1.548609 -0.803835,-1.638995 0,-0.131637 3.436284,-2.257166 4.988206,-3.085478 0.192527,-0.102758 0.737722,-0.415752 1.211545,-0.695543 0.697734,-0.412009 0.81418,-0.442697 0.612586,-0.16144 -0.136899,0.190999 -0.721475,0.99433 -1.299057,1.785181 -0.577582,0.790851 -1.16829,1.605353 -1.312686,1.810006 -0.292092,0.413985 -2.456567,3.314965 -2.539951,3.40422 -0.02913,0.03119 -0.414699,-0.606891 -0.856808,-1.417951 z M 30.444183,43.126262 c -0.378318,-0.418756 -1.632985,-1.728229 -2.788148,-2.909939 -2.304139,-2.35709 -2.325711,-2.314926 0.612586,-1.197359 1.010768,0.384441 2.546611,0.936033 3.412984,1.22576 0.866372,0.289727 1.600467,0.550864 1.631321,0.580305 0.08329,0.07947 -1.926808,3.062607 -2.063648,3.062607 -0.06448,0 -0.426777,-0.342619 -0.805095,-0.761374 z m 36.973456,-0.0086 c -0.05169,-0.134706 -0.365903,-0.334661 -0.698248,-0.444344 -0.395409,-0.130497 -0.596251,-0.302946 -0.581084,-0.498936 0.02818,-0.364126 0.283123,-0.475139 2.298501,-1.000859 0.866373,-0.225997 1.771515,-0.470177 2.011427,-0.542622 0.329317,-0.09944 0.203347,0.07972 -0.514079,0.731151 -0.522657,0.474578 -1.227615,1.118842 -1.566574,1.431699 -0.687845,0.634876 -0.814096,0.677925 -0.949943,0.323911 z M 39.362135,41.831095 c -0.0534,-0.168462 -0.336632,-0.897002 -0.629412,-1.61898 -0.292779,-0.721977 -0.674549,-1.706491 -0.848377,-2.187809 -0.173827,-0.481318 -0.555361,-1.500878 -0.847853,-2.265689 -0.292492,-0.76481 -0.514341,-1.406536 -0.492999,-1.426057 0.02134,-0.01952 0.642188,0.527471 1.379657,1.215539 0.737469,0.688068 2.102173,1.958177 3.032677,2.822465 1.622807,1.507326 1.677739,1.582296 1.346566,1.83776 -0.997714,0.769627 -2.642008,1.929064 -2.735767,1.929064 -0.05907,0 -0.151095,-0.137832 -0.204492,-0.306293 z M 56.79766,37.19658 c -0.914504,-0.290722 -1.691926,-0.554524 -1.727604,-0.586227 -0.07039,-0.06255 1.533494,-2.377256 1.752641,-2.529394 0.117432,-0.08152 1.472055,-1.817676 3.440408,-4.409398 0.345314,-0.454673 0.647966,-0.806557 0.672559,-0.781963 0.05148,0.05148 -0.100756,0.749452 -0.828045,3.796452 -0.287215,1.203295 -0.60174,2.542235 -0.698945,2.975421 -0.367964,1.639796 -0.530612,2.099745 -0.736244,2.081996 -0.116619,-0.01007 -0.960265,-0.256166 -1.87477,-0.546887 z M 42.970703,33.823711 c -0.119838,-0.144395 -0.326385,-0.262537 -0.458993,-0.262537 -0.17406,0 -0.241358,-0.255519 -0.242012,-0.91888 -4.98e-4,-0.505384 -0.04985,-1.706492 -0.109678,-2.669128 l -0.108772,-1.750248 1.128806,2.183062 1.128806,2.183061 -0.450297,0.743071 c -0.501313,0.827254 -0.575295,0.868217 -0.88786,0.491599 z"
       id="path21" /></g></svg>
