<?xml version="1.0" encoding="UTF-8" standalone="no"?>
<!-- Created with Inkscape (http://www.inkscape.org/) -->

<svg
   width="100mm"
   height="100mm"
   viewBox="0 0 100 100"
   version="1.1"
   id="svg1"
   inkscape:version="1.4 (86a8ad7, 2024-10-11)"
   sodipodi:docname="bush2.svg"
   xml:space="preserve"
   xmlns:inkscape="http://www.inkscape.org/namespaces/inkscape"
   xmlns:sodipodi="http://sodipodi.sourceforge.net/DTD/sodipodi-0.dtd"
   xmlns="http://www.w3.org/2000/svg"
   xmlns:svg="http://www.w3.org/2000/svg"><sodipodi:namedview
     id="namedview1"
     pagecolor="#ffffff"
     bordercolor="#000000"
     borderopacity="0.25"
     inkscape:showpageshadow="2"
     inkscape:pageopacity="0.0"
     inkscape:pagecheckerboard="true"
     inkscape:deskcolor="#d1d1d1"
     inkscape:document-units="mm"
     inkscape:zoom="1.4378367"
     inkscape:cx="165.87419"
     inkscape:cy="136.66364"
     inkscape:window-width="1920"
     inkscape:window-height="1009"
     inkscape:window-x="1912"
     inkscape:window-y="-8"
     inkscape:window-maximized="1"
     inkscape:current-layer="layer1" /><defs
     id="defs1" /><g
     inkscape:label="Warstwa 1"
     inkscape:groupmode="layer"
     id="layer1"><path
       style="fill:#b7a26c;fill-opacity:1"
       d="m -50.804246,64.780781 c -0.77449,-1.003263 -1.488281,-1.87363 -1.586202,-1.934149 -0.09792,-0.06052 -0.463959,-0.03109 -0.813418,0.0654 -0.892058,0.246309 -1.571486,0.06283 -2.295339,-0.61985 -0.3434,-0.323868 -0.808328,-0.587984 -1.03504,-0.587984 -0.226378,0 -0.505352,-0.150125 -0.619942,-0.333613 -0.164782,-0.263858 -0.295559,-0.300454 -0.625464,-0.175024 -0.634109,0.241087 -1.294317,0.190341 -1.644299,-0.126388 -0.294143,-0.266197 -0.398784,-0.232479 -1.587846,0.511647 -0.700123,0.438143 -1.301915,0.76766 -1.337315,0.73226 -0.0354,-0.0354 0.456336,-0.859071 1.092747,-1.830381 0.63641,-0.971309 1.15711,-1.800727 1.15711,-1.84315 0,-0.04242 -0.215774,0.0049 -0.479497,0.105172 -0.653646,0.248515 -1.573989,0.04851 -1.810521,-0.393452 -0.106686,-0.199344 -0.163702,-0.621742 -0.126704,-0.938662 0.06425,-0.550317 0.03648,-0.58114 -0.617685,-0.685746 -0.975303,-0.155957 -1.33637,-0.394091 -1.617418,-1.066734 -0.282527,-0.676181 -0.123524,-1.304749 0.497835,-1.968035 0.365351,-0.390004 0.36657,-0.409986 0.05701,-0.934035 -0.199207,-0.33723 -0.280353,-0.715398 -0.21916,-1.021363 l 0.09717,-0.485857 -1.609791,-0.226091 c -2.429221,-0.341179 -2.474891,-0.38921 -0.889659,-0.935659 1.950829,-0.672474 2.26406,-0.818131 2.053582,-0.954942 -0.297207,-0.193185 -0.585905,-0.849711 -0.585905,-1.332406 0,-0.267221 0.248859,-0.724021 0.615571,-1.129927 0.556305,-0.615763 0.597314,-0.729379 0.42595,-1.1801 -0.381691,-1.003923 0.324635,-2.34014 1.237001,-2.34014 0.188833,0 0.338627,-0.170454 0.391122,-0.445068 0.07276,-0.380619 -0.260104,-0.801596 -2.298674,-2.907157 -1.311065,-1.354149 -2.40962,-2.531023 -2.441233,-2.615275 -0.05741,-0.153016 1.809673,0.49185 4.783148,1.652033 l 1.575223,0.614617 0.05405,-0.595313 c 0.0593,-0.653199 0.709748,-1.30463 1.302656,-1.30463 0.280408,0 0.322687,-0.07545 0.220684,-0.393806 -0.492913,-1.538434 -0.178878,-2.231566 1.011049,-2.231566 0.383033,0 1.004309,0.09224 1.380613,0.204989 0.571972,0.171367 0.728099,0.16108 0.951896,-0.06272 0.240257,-0.240256 0.239484,-0.335248 -0.0075,-0.926462 -0.433362,-1.03718 -0.331934,-1.094575 0.496871,-0.281164 l 0.772118,0.757776 -0.01266,-0.837422 c -0.01073,-0.710097 0.06249,-0.902066 0.481611,-1.262577 0.604781,-0.52021 1.395793,-0.434662 1.924871,0.208177 0.314683,0.382346 0.384374,0.399996 0.689795,0.174697 0.18686,-0.13784 0.532903,-0.250619 0.768985,-0.250619 h 0.429239 l -0.09117,-2.712884 c -0.05015,-1.492086 -0.06432,-2.712884 -0.03149,-2.712884 0.03283,0 0.580326,1.023895 1.216666,2.275322 1.112807,2.188446 1.332415,2.48249 1.568623,2.100297 0.153508,-0.248381 0.724372,-0.216716 1.280844,0.07105 0.408826,0.211412 0.523249,0.211412 0.812373,0 0.392741,-0.287179 1.171623,-0.324205 1.427948,-0.06788 0.120906,0.120906 0.360167,-0.04825 0.744238,-0.526176 0.561659,-0.69891 1.673674,-1.402263 2.217004,-1.402263 0.50672,0 1.306196,0.970003 1.306196,1.584805 0,0.558297 0.0043,0.561008 0.732574,0.463324 1.146837,-0.153823 1.892798,0.353906 1.892798,1.288308 0,0.294845 0.0939,0.320318 0.831368,0.225534 0.457252,-0.05877 0.878863,-0.155713 0.936914,-0.215432 0.05805,-0.05972 0.998798,-1.283465 2.090551,-2.719435 1.091752,-1.435971 2.01197,-2.529959 2.044928,-2.431086 0.04687,0.140606 -1.08069,5.088535 -1.448756,6.357401 -0.04501,0.155165 0.08603,0.336823 0.315633,0.437562 0.215926,0.09474 0.471354,0.352882 0.567618,0.573654 0.128067,0.293711 0.275114,0.376389 0.548084,0.308166 0.475099,-0.118741 1.40738,0.201288 1.531936,0.525875 0.07492,0.195229 0.198126,0.209256 0.576032,0.06558 1.035305,-0.393622 1.80708,0.177325 1.80708,1.336852 0,0.426311 0.03065,0.77511 0.0681,0.77511 0.03746,0 0.603871,-0.313085 1.258699,-0.695744 0.654827,-0.382659 1.219574,-0.666765 1.254993,-0.631346 0.03542,0.03542 -0.418563,0.73959 -1.008847,1.564826 l -1.073246,1.500428 0.424169,0.457446 0.424168,0.457447 2.31392,-0.643082 c 1.272655,-0.353695 2.342363,-0.614637 2.377128,-0.579873 0.03476,0.03477 -0.670492,0.718372 -1.567237,1.519127 -1.358332,1.212932 -1.647882,1.562994 -1.734922,2.097497 -0.06517,0.400203 -0.03173,0.666272 0.08889,0.707214 0.516149,0.175199 0.870241,0.755115 0.761994,1.247959 -0.09583,0.436332 -0.03822,0.540564 0.433679,0.784593 0.734652,0.379903 0.959366,1.015954 0.693904,1.964091 -0.114305,0.408258 -0.164723,0.907118 -0.11204,1.108579 0.12974,0.496125 -0.192167,1.361223 -0.584685,1.571292 -0.176073,0.09423 -0.522214,0.17133 -0.769201,0.17133 -0.527892,0 -0.534339,0.02752 -0.171042,0.730053 0.181251,0.3505 0.239989,0.740407 0.168748,1.120153 -0.107504,0.573047 -0.07789,0.605852 1.823157,2.019807 1.062839,0.790515 1.90531,1.464425 1.872157,1.497578 -0.03315,0.03315 -1.035226,-0.105309 -2.226828,-0.307694 -1.773903,-0.301283 -2.180334,-0.325264 -2.242608,-0.132319 -0.04183,0.129609 -0.327091,0.474429 -0.633907,0.766266 -0.42325,0.402586 -0.525357,0.613738 -0.423186,0.875124 0.421069,1.077227 -0.159561,2.182271 -1.146644,2.182271 -0.52336,0 -0.591559,0.05946 -0.693904,0.605003 -0.145252,0.77426 -0.876684,1.379941 -1.493105,1.236403 -0.244826,-0.05701 -0.653668,-0.329343 -0.908538,-0.605187 l -0.4634,-0.501535 -1.226145,1.11908 c -1.20708,1.101679 -2.279829,1.749818 -3.586691,2.167026 -0.528867,0.168838 -0.77095,0.401602 -1.190094,1.144285 -0.289397,0.512783 -0.620723,1.009343 -0.736281,1.103466 -0.115557,0.09412 -0.879575,0.198978 -1.697815,0.233011 -1.722896,0.07166 -1.650135,0.231361 -0.888839,-1.950908 0.625064,-1.791759 0.67592,-2.622041 0.187666,-3.063904 -0.193117,-0.174769 -0.379302,-0.285428 -0.413744,-0.245908 -0.03444,0.03952 -0.280251,0.741324 -0.546242,1.559565 -0.265991,0.81824 -0.74631,2.063402 -1.067376,2.767025 l -0.583756,1.279316 -0.750445,-0.05414 c -0.83722,-0.0604 -0.905225,-0.253581 -0.467079,-1.326794 0.196717,-0.481843 0.195112,-0.634353 -0.01012,-0.962636 -0.134131,-0.214546 -0.514359,-0.922296 -0.844951,-1.572778 l -0.601076,-1.182694 -0.376085,0.478114 c -0.450177,0.572308 -0.452207,0.560879 0.420126,2.364754 0.92671,1.916317 0.914954,2.06038 -0.168122,2.06038 h -0.859304 L -47.1596,64.898407 c -1.34849,-2.458616 -2.089911,-3.719277 -2.187384,-3.719277 -0.03561,0 -0.01696,0.64978 0.04144,1.443955 l 0.106182,1.443954 1.037982,1.091233 c 0.57089,0.600178 0.988561,1.171196 0.928158,1.268929 -0.0604,0.09773 -0.571742,0.177697 -1.136311,0.177697 h -1.026489 z m 13.887318,-3.319847 c 0.82755,-1.237754 1.124004,-1.826003 1.045263,-2.074095 -0.0919,-0.289559 -0.19503,-0.19728 -0.629299,0.563097 -0.285661,0.500174 -0.745879,1.039397 -1.022705,1.198274 -0.276826,0.158876 -0.545932,0.447421 -0.598014,0.64121 -0.112372,0.418124 -0.132055,1.580929 -0.02495,1.473822 0.04099,-0.04099 0.594355,-0.852027 1.229703,-1.802308 z m -13.449725,1.016565 c -0.05843,-0.152268 -0.106238,-0.412879 -0.106238,-0.579134 0,-0.166255 -0.107774,-0.449672 -0.239498,-0.629815 -0.231233,-0.316231 -0.246642,-0.314184 -0.446528,0.05931 -0.175067,0.327116 -0.144847,0.465602 0.195741,0.896983 0.438597,0.555518 0.765945,0.694167 0.596523,0.252659 z m 7.746458,-0.291978 c 0.708675,-2.255159 0.631418,-2.819124 -0.217449,-1.587336 -0.519492,0.753834 -0.552506,0.880042 -0.38973,1.489884 0.217685,0.815558 0.37365,0.840591 0.607179,0.09745 z m 8.164664,-0.321725 c 0.990582,-0.519047 1.208097,-0.838947 0.843999,-1.241271 -0.470004,-0.519348 -0.86062,-0.376169 -1.440932,0.52817 -0.298826,0.46568 -0.54332,0.898866 -0.54332,0.962636 0,0.214341 0.437816,0.118529 1.140253,-0.249535 z"
       id="path20" /><path
       style="fill:#735e40;fill-opacity:1"
       d="m -48.365847,65.265785 c -0.0995,-0.259303 -1.33124,-1.897677 -2.17174,-2.888705 l -0.504504,-0.594859 0.422292,-0.422292 0.422292,-0.422293 0.586804,0.659585 c 0.322742,0.362772 0.625013,0.621376 0.671713,0.574676 0.0467,-0.0467 0.01238,-0.397744 -0.07627,-0.780096 -0.230795,-0.995457 -0.214036,-1.074599 0.224277,-1.059132 0.467292,0.01649 0.605698,0.432912 0.635635,1.912433 0.02019,0.99784 0.0427,1.043181 0.900694,1.814595 0.483992,0.43515 0.95933,0.939439 1.056307,1.120641 0.164148,0.306714 0.09865,0.32946 -0.948773,0.32946 -0.800662,0 -1.152094,-0.07036 -1.218729,-0.244013 z m 5.685616,0.09039 c -0.193129,-0.122419 -0.184668,-0.293262 0.04854,-0.980168 0.277759,-0.818119 0.275057,-0.844507 -0.162973,-1.591949 -0.244978,-0.418023 -0.596937,-1.113531 -0.782132,-1.545573 l -0.336719,-0.785532 0.383541,0.143245 c 0.210947,0.07878 0.558509,0.07734 0.77236,-0.0032 0.350253,-0.131928 0.419431,-0.06027 0.697425,0.722441 0.169733,0.477893 0.35373,0.868897 0.408884,0.868897 0.05515,0 0.30603,-0.610399 0.557502,-1.356442 0.44651,-1.324662 0.471683,-1.357702 1.074432,-1.410205 l 0.61721,-0.05376 -0.104299,0.666349 c -0.05736,0.366492 -0.39941,1.41458 -0.760101,2.329084 -1.194825,3.029381 -1.259949,3.146978 -1.742211,3.145986 -0.24066,-4.95e-4 -0.542817,-0.06762 -0.671461,-0.149161 z m -2.175025,-0.142502 c -0.169744,-0.04427 -0.45184,-0.369869 -0.62688,-0.723552 -0.34296,-0.692981 -1.11099,-2.091906 -1.842462,-3.355944 -0.500323,-0.864595 -0.549908,-1.050149 -0.280633,-1.050149 0.09865,0 0.248985,0.183139 0.334088,0.406974 0.223261,0.587221 1.000839,1.041899 1.62513,0.950272 0.509087,-0.07472 0.545583,-0.03012 1.292947,1.580126 0.918148,1.978206 0.961225,2.321477 0.287754,2.293069 -0.264725,-0.01117 -0.620199,-0.05652 -0.789944,-0.100796 z m 5.296832,-0.235923 c 0,-0.100099 0.162634,-0.500787 0.361409,-0.890417 0.263246,-0.516004 0.853557,-2.812421 0.86432,-3.362358 3.05e-4,-0.0156 0.317476,-0.03227 0.704823,-0.03705 l 0.704268,-0.0087 -0.114843,1.015086 c -0.06316,0.558297 -0.0456,1.012967 0.03903,1.010377 0.08463,-0.0026 0.350778,-0.330863 0.591437,-0.729497 0.325195,-0.538661 1.6491,-2.56339 2.007075,-3.06954 0.01584,-0.02239 0.271752,0.05099 0.568701,0.16308 l 0.539908,0.203792 -0.703626,1.114113 c -0.386994,0.612762 -0.65814,1.159598 -0.602545,1.215193 0.154282,0.154282 2.396085,-0.977139 2.506565,-1.265045 0.0597,-0.155583 0.339322,-0.25276 0.727296,-0.25276 h 0.630302 l -0.733427,0.747308 c -0.648222,0.660491 -1.711827,1.244481 -3.384116,1.858106 -0.266497,0.09779 -0.659245,0.519463 -0.943172,1.012641 -0.830054,1.441793 -0.85608,1.457664 -2.390335,1.457664 -0.833768,0 -1.373072,-0.07148 -1.373072,-0.181997 z m -20.414854,-5.200014 c 0.508163,-0.746043 0.975055,-1.494274 1.037538,-1.662735 0.206539,-0.556857 0.427854,-0.319026 0.548343,0.589262 0.06534,0.492556 0.09518,0.909328 0.0663,0.92616 -0.02887,0.01683 -0.40692,0.261992 -0.840107,0.544798 -0.793557,0.518076 -1.563927,0.958957 -1.675624,0.958957 -0.03321,0 0.355381,-0.610399 0.863545,-1.356442 z m 3.437451,-3.279726 c 0,-0.06764 0.146635,-0.332037 0.325855,-0.587557 0.179221,-0.255519 0.855266,-1.390024 1.502323,-2.521121 0.647057,-1.131098 1.202296,-2.056542 1.233866,-2.056542 0.109226,0 2.581627,3.165876 2.516559,3.22242 -0.03593,0.03122 -1.197627,0.467278 -2.581555,0.969017 -1.383928,0.501738 -2.624416,0.953766 -2.75664,1.004505 -0.132225,0.05074 -0.240408,0.03691 -0.240408,-0.03072 z m 24.503946,-2.499147 -3.062457,-1.480063 0.61211,-0.520391 c 1.563073,-1.328862 2.112853,-1.760037 2.163463,-1.696737 0.346998,0.434007 3.442234,5.106363 3.402722,5.136516 -0.02936,0.02241 -1.431487,-0.625291 -3.115838,-1.439325 z m 11.726183,1.089873 c -0.144395,-0.0297 -1.16829,-0.183334 -2.275322,-0.341418 -2.947886,-0.420956 -2.839931,-0.38742 -2.699955,-0.838743 0.250481,-0.807619 0.845917,-2.05071 0.982282,-2.05071 0.0781,0 1.136913,0.748231 2.352913,1.662735 1.215999,0.914505 2.141542,1.653599 2.056763,1.642432 -0.08478,-0.01117 -0.272286,-0.0446 -0.416681,-0.0743 z m -41.854229,-4.712718 c -0.04491,-0.04491 -0.747193,-0.16603 -1.560637,-0.269162 -0.813444,-0.103133 -1.828003,-0.243604 -2.254576,-0.312158 l -0.775585,-0.124643 1.30066,-0.41673 c 0.715363,-0.229202 1.717161,-0.600312 2.226218,-0.82469 0.509057,-0.224378 1.198217,-0.45911 1.531467,-0.521628 0.551968,-0.10355 0.606044,-0.07688 0.60743,0.299615 8.37e-4,0.227306 0.05119,0.82678 0.111892,1.332164 l 0.11037,0.91888 h -0.607795 c -0.334288,0 -0.644537,-0.03674 -0.689444,-0.08165 z m 20.851256,-2.678593 c -0.625714,-0.235401 -1.318216,-0.498093 -1.538894,-0.58376 -0.389303,-0.151126 -0.351575,-0.229383 1.26893,-2.63204 0.918589,-1.361956 1.670162,-2.543539 1.670162,-2.62574 0,-0.0822 0.07679,-0.149458 0.170649,-0.149458 0.09386,0 0.133853,0.216594 0.08888,0.481319 -0.04497,0.264725 -0.165328,1.699734 -0.267455,3.18891 -0.102126,1.489175 -0.201193,2.716857 -0.220147,2.728181 -0.01895,0.01132 -0.546411,-0.172011 -1.172124,-0.407412 z m 11.130297,-5.68951 c -0.44211,-0.811061 -0.803835,-1.548609 -0.803835,-1.638995 0,-0.131637 3.436284,-2.257166 4.988206,-3.085478 0.192527,-0.102758 0.737722,-0.415752 1.211545,-0.695543 0.697734,-0.412009 0.81418,-0.442697 0.612586,-0.16144 -0.136899,0.190999 -0.721475,0.99433 -1.299057,1.785181 -0.577582,0.790851 -1.16829,1.605353 -1.312686,1.810006 -0.292092,0.413985 -2.456567,3.314965 -2.539951,3.40422 -0.02913,0.03119 -0.414699,-0.606891 -0.856808,-1.417951 z m -30.832833,-0.537787 c -0.378318,-0.418756 -1.632985,-1.728229 -2.788148,-2.909939 -2.304139,-2.35709 -2.325711,-2.314926 0.612586,-1.197359 1.010768,0.384441 2.546611,0.936033 3.412984,1.22576 0.866372,0.289727 1.600467,0.550864 1.631321,0.580305 0.08329,0.07947 -1.926808,3.062607 -2.063648,3.062607 -0.06448,0 -0.426777,-0.342619 -0.805095,-0.761374 z m 36.973456,-0.0086 c -0.05169,-0.134706 -0.365903,-0.334661 -0.698248,-0.444344 -0.395409,-0.130497 -0.596251,-0.302946 -0.581084,-0.498936 0.02818,-0.364126 0.283123,-0.475139 2.298501,-1.000859 0.866373,-0.225997 1.771515,-0.470177 2.011427,-0.542622 0.329317,-0.09944 0.203347,0.07972 -0.514079,0.731151 -0.522657,0.474578 -1.227615,1.118842 -1.566574,1.431699 -0.687845,0.634876 -0.814096,0.677925 -0.949943,0.323911 z m -28.055504,-1.286567 c -0.0534,-0.168462 -0.336632,-0.897002 -0.629412,-1.61898 -0.292779,-0.721977 -0.674549,-1.706491 -0.848377,-2.187809 -0.173827,-0.481318 -0.555361,-1.500878 -0.847853,-2.265689 -0.292492,-0.76481 -0.514341,-1.406536 -0.492999,-1.426057 0.02134,-0.01952 0.642188,0.527471 1.379657,1.215539 0.737469,0.688068 2.102173,1.958177 3.032677,2.822465 1.622807,1.507326 1.677739,1.582296 1.346566,1.83776 -0.997714,0.769627 -2.642008,1.929064 -2.735767,1.929064 -0.05907,0 -0.151095,-0.137832 -0.204492,-0.306293 z m 17.435525,-4.634515 c -0.914504,-0.290722 -1.691926,-0.554524 -1.727604,-0.586227 -0.07039,-0.06255 1.533494,-2.377256 1.752641,-2.529394 0.117432,-0.08152 1.472055,-1.817676 3.440408,-4.409398 0.345314,-0.454673 0.647966,-0.806557 0.672559,-0.781963 0.05148,0.05148 -0.100756,0.749452 -0.828045,3.796452 -0.287215,1.203295 -0.60174,2.542235 -0.698945,2.975421 -0.367964,1.639796 -0.530612,2.099745 -0.736244,2.081996 -0.116619,-0.01007 -0.960265,-0.256166 -1.87477,-0.546887 z m -13.826957,-3.372869 c -0.119838,-0.144395 -0.326385,-0.262537 -0.458993,-0.262537 -0.17406,0 -0.241358,-0.255519 -0.242012,-0.91888 -4.98e-4,-0.505384 -0.04985,-1.706492 -0.109678,-2.669128 l -0.108772,-1.750248 1.128806,2.183062 1.128806,2.183061 -0.450297,0.743071 c -0.501313,0.827254 -0.575295,0.868217 -0.88786,0.491599 z"
       id="path21" /><path
       style="fill:#b7a26c;fill-opacity:1"
       d="m 49.300701,71.343865 c -0.756334,-0.235841 -1.693827,-0.285207 -4.572446,-0.240771 -0.853291,0.01317 -1.463715,-0.123569 -2.601436,-0.582746 -0.817594,-0.329976 -1.62777,-0.726869 -1.800392,-0.881983 -0.172623,-0.155115 -0.59071,-0.308894 -0.929085,-0.341731 -1.542467,-0.149685 -3.288124,-0.425453 -3.492408,-0.551707 -0.137277,-0.08484 -0.560031,0.180469 -1.089205,0.683559 -1.625461,1.54534 -1.587953,1.542802 -1.472311,0.09961 0.09202,-1.148397 0.06615,-1.277563 -0.29455,-1.470603 -0.578602,-0.309659 -1.351876,-1.127548 -1.496321,-1.582654 -0.11019,-0.347179 -0.198605,-0.374799 -0.720576,-0.2251 -1.048849,0.300806 -1.613903,0.204741 -2.191164,-0.37252 -0.703738,-0.703738 -0.731434,-1.5627 -0.07256,-2.250416 l 0.470597,-0.491197 -0.644995,-0.70417 c -0.502717,-0.54884 -0.74793,-0.684493 -1.111642,-0.614965 -0.367281,0.07021 -0.478523,0.0064 -0.522415,-0.299594 -0.03067,-0.21384 -0.291078,-0.501237 -0.578678,-0.63866 -0.287601,-0.137424 -0.572068,-0.38906 -0.632149,-0.559191 -0.255643,-0.723901 -0.655777,-0.959689 -1.628602,-0.959689 -2.222482,0 -2.390404,-2.08342 -0.255699,-3.172465 0.871037,-0.44437 1.057268,-0.808096 0.646277,-1.262236 -0.165694,-0.18309 -0.301261,-0.472637 -0.301261,-0.643438 0,-0.170802 -0.167235,-0.477783 -0.371634,-0.682182 -0.204398,-0.204398 -0.371633,-0.580677 -0.371633,-0.836176 l 0,-0.464542 h -2.159646 c -2.674592,0 -2.630432,-0.204872 0.263508,-1.222492 1.093975,-0.384684 2.019483,-0.722487 2.056684,-0.750673 0.0372,-0.02819 -0.104369,-0.26992 -0.314601,-0.537186 -0.210231,-0.267266 -0.48317,-0.794279 -0.60653,-1.171141 -0.212662,-0.649672 -2.105932,-3.363723 -3.450222,-4.945982 -0.567746,-0.668248 -0.795415,-1.220816 -0.503001,-1.220816 0.198536,0 1.38832,0.756489 3.001224,1.90824 l 1.53921,1.099127 0.392411,-0.498869 c 0.318501,-0.404908 0.511422,-0.484974 1.024286,-0.4251 0.562745,0.0657 0.663756,0.0066 0.923258,-0.540273 0.230942,-0.486674 0.403142,-0.614041 0.830181,-0.614041 0.29634,0 0.683996,0.08914 0.861458,0.198079 0.248746,0.152705 0.514202,0.09519 1.158834,-0.251078 0.686245,-0.368622 0.82434,-0.52908 0.77017,-0.894893 -0.0363,-0.245154 -0.06857,-0.785199 -0.07171,-1.200101 -0.0048,-0.632306 -0.09182,-0.803789 -0.5379,-1.059805 -0.292706,-0.16799 -0.532193,-0.44645 -0.532193,-0.618801 0,-0.268742 0.145526,-0.298344 1.021992,-0.207884 l 1.021993,0.105478 V 38.81909 c 0,-0.492235 0.107226,-0.68718 0.48759,-0.886473 0.37014,-0.193936 0.502683,-0.423674 0.550248,-0.953755 0.108345,-1.207431 0.743056,-1.527135 1.867537,-0.940678 0.792372,0.413251 1.277407,0.342288 1.897275,-0.27758 0.34416,-0.34416 0.74945,-0.557451 1.059255,-0.557451 h 0.501805 l -0.06942,-2.166349 c -0.04635,-1.446413 -0.0026,-2.189129 0.131678,-2.234896 0.110606,-0.0377 0.523064,0.728112 0.916573,1.701807 0.393509,0.973695 0.77475,1.770354 0.847201,1.770354 0.07245,0 0.184197,-0.209043 0.248323,-0.464542 0.181868,-0.724617 1.044688,-0.631879 1.878469,0.201902 0.473095,0.473095 0.757916,0.627086 0.981732,0.530785 0.496583,-0.213665 2.61428,-0.271035 2.73598,-0.07412 0.216012,0.349515 0.447632,0.165056 0.803809,-0.640142 0.205652,-0.46491 0.530107,-0.871191 0.751963,-0.941606 0.214628,-0.06812 0.390232,-0.232369 0.390232,-0.364999 0,-0.132629 0.173304,-0.461465 0.38512,-0.730745 0.306971,-0.39025 0.543683,-0.489601 1.166514,-0.489601 0.551447,0 0.875032,-0.109363 1.099595,-0.371634 0.404953,-0.472951 0.500905,-0.467121 1.306185,0.07936 l 0.664571,0.45099 0.434677,-0.590353 c 0.239072,-0.324694 0.834972,-1.19658 1.324222,-1.937525 0.489251,-0.740944 1.011262,-1.347171 1.160025,-1.347171 0.287437,0 0.275621,0.11185 -0.206126,1.951076 -0.133844,0.510996 -0.297908,1.253947 -0.364587,1.651003 -0.115662,0.688743 -0.101417,0.716163 0.309985,0.596672 1.560345,-0.453198 1.603609,-0.437578 2.74521,0.991113 0.360078,0.450631 0.599322,0.570456 1.138972,0.570456 0.582396,0 0.782361,0.12108 1.355888,0.820994 0.495082,0.604182 0.672743,0.996753 0.672743,1.486535 0,0.828564 0.270723,0.852792 1.20781,0.10809 0.385803,-0.306598 0.878163,-0.557451 1.094135,-0.557451 0.341399,0 0.504093,-0.345761 1.245934,-2.647889 1.098588,-3.409213 1.399529,-3.529132 1.320258,-0.526094 -0.06186,2.343491 0.125378,3.103585 0.830578,3.371701 0.240794,0.09155 0.530809,0.398082 0.644477,0.681181 0.113668,0.2831 0.288412,0.692415 0.388319,0.909588 0.19258,0.418623 -0.07917,1.184582 -0.420277,1.184582 -0.309007,0 -0.203011,1.523957 0.131723,1.893833 0.300908,0.332501 0.327685,0.327669 0.825083,-0.148868 0.570681,-0.546747 1.06626,-0.496471 1.228687,0.124651 0.124713,0.476903 0.258355,0.426335 2.162758,-0.81834 2.64378,-1.727916 2.875049,-1.568948 1.05754,0.726922 -1.078657,1.362556 -1.272705,1.712942 -1.186725,2.142839 0.0786,0.393014 -0.01365,0.630366 -0.392087,1.008805 -0.453531,0.453531 -0.47241,0.529157 -0.225979,0.905258 0.147891,0.225711 0.601919,0.520292 1.008949,0.654624 0.682277,0.225172 0.783603,0.212044 1.297828,-0.168139 0.459144,-0.33946 0.627429,-0.3751 0.951695,-0.201558 0.216657,0.115951 0.393922,0.288949 0.393922,0.384441 0,0.09549 0.296873,0.16246 0.659717,0.148819 0.77005,-0.02895 1.173309,0.304746 1.291953,1.069085 0.178039,1.146977 0.544898,1.949237 0.835275,1.826611 0.759181,-0.320599 3.641249,-1.133829 3.763098,-1.061827 0.323906,0.191398 0.04705,0.47678 -1.625545,1.675597 -1.497587,1.073381 -1.750412,1.328069 -1.669204,1.681504 0.05264,0.229088 -0.03114,0.7201 -0.186169,1.091139 -0.15503,0.371039 -0.281873,1.02396 -0.281873,1.450936 0,0.426976 -0.09548,0.871796 -0.212169,0.988488 -0.159014,0.159014 0.192845,0.404591 1.404452,0.980225 0.914571,0.434512 1.585234,0.862854 1.544345,0.986349 -0.04603,0.13903 -0.657205,0.237789 -1.683177,0.271983 l -1.610901,0.05369 v 0.60761 c 0,0.334185 -0.122767,0.769922 -0.272816,0.968304 -0.150049,0.198382 -0.275475,0.422709 -0.278725,0.498504 -0.0033,0.0758 0.913883,0.599104 2.038075,1.162908 1.124192,0.563803 2.043985,1.108016 2.043985,1.209361 0,0.265815 -1.034693,0.226941 -2.782018,-0.104521 -1.603587,-0.304195 -2.047087,-0.206696 -2.051034,0.450901 -0.0032,0.537765 -0.873425,2.192834 -1.54208,2.932955 -0.509669,0.564142 -0.629813,0.830931 -0.553641,1.229398 0.133949,0.700708 -0.229473,1.064219 -1.063958,1.064219 -0.586978,0 -0.718745,0.07321 -0.813855,0.452157 -0.06242,0.248687 -0.2672,0.500945 -0.455075,0.560574 -0.330724,0.104968 -0.330904,0.139351 -0.0056,1.080832 0.37817,1.094598 0.433198,1.622773 0.169071,1.622773 -0.09846,0 -0.70679,-0.493704 -1.351844,-1.09712 -1.364725,-1.276633 -1.62987,-1.297664 -3.254851,-0.258177 -1.541006,0.98577 -2.610449,1.368784 -4.373143,1.566213 -1.751137,0.196135 -2.558222,0.413695 -4.312863,1.162585 -1.258225,0.537018 -2.349987,0.620867 -2.693572,0.206872 -0.301265,-0.363002 0.01593,-0.858959 1.18995,-1.860592 1.740068,-1.484562 3.296976,-4.003314 2.701892,-4.371096 -0.136919,-0.08462 -0.424488,-0.02586 -0.674226,0.137779 -0.276729,0.18132 -0.637898,0.244851 -0.990757,0.17428 -0.48737,-0.09747 -0.55528,-0.05894 -0.55528,0.315114 0,0.528522 -0.475457,2.168612 -0.951116,3.280875 -0.278774,0.651873 -0.609186,1 -1.499071,1.579443 -0.981207,0.638906 -2.062615,1.175394 -2.38105,1.181242 -0.0511,9.38e-4 -0.460217,-0.112828 -0.90915,-0.252815 z m -0.01768,-4.171837 c -0.2169,-0.805505 -0.381481,-0.911573 -0.741444,-0.477843 -0.124983,0.150594 -0.5115,0.327135 -0.858928,0.392313 -0.347429,0.06518 -0.631688,0.179438 -0.631688,0.253912 0,0.07447 0.52261,0.658742 1.161355,1.298376 l 1.161355,1.162969 0.05587,-0.939037 c 0.03073,-0.516471 -0.03521,-1.277281 -0.146524,-1.69069 z m -4.647679,2.116541 c 0,-0.05768 -0.355374,-0.517538 -0.789721,-1.021902 -0.757482,-0.879588 -0.829099,-0.917028 -1.754293,-0.917115 -0.530515,-5e-5 -1.011334,0.07557 -1.068487,0.168045 -0.121089,0.195927 1.123537,0.958894 2.426675,1.487574 0.977686,0.396645 1.185826,0.446388 1.185826,0.283398 z m 17.55969,-1.623567 c 0.489814,-0.251683 1.951076,-1.474769 1.951076,-1.633065 0,-0.06816 -0.251814,-0.228229 -0.559587,-0.355713 -0.534475,-0.221387 -0.599307,-0.194636 -1.444666,0.596099 -0.486793,0.455337 -1.112963,0.977203 -1.391489,1.1597 -0.278526,0.182497 -0.506411,0.406802 -0.506411,0.498455 0,0.199149 1.4239,0.0054 1.951077,-0.265476 z M 52.167104,66.670627 c 0.345596,-0.683058 0.534948,-1.349213 0.541381,-1.904622 0.0092,-0.792339 -0.02635,-0.85834 -0.490947,-0.911972 -0.404669,-0.04671 -0.590638,0.07817 -0.968482,0.650359 -0.466293,0.706135 -0.466814,0.711789 -0.180804,1.962439 0.15776,0.689845 0.349955,1.254263 0.4271,1.254263 0.07715,0 0.379434,-0.47271 0.671752,-1.050467 z"
       id="path23" /><path
       style="fill:#735e40;fill-opacity:1"
       d="m 49.09495,71.270696 c -0.438767,-0.244681 -2.900573,-0.385566 -3.538817,-0.20252 -0.784565,0.225011 -2.318398,-0.08047 -3.846479,-0.766076 -1.756777,-0.788212 -1.805936,-0.845463 -1.271412,-1.480708 0.244872,-0.291014 0.477495,-0.625938 0.516941,-0.744275 0.04581,-0.137427 0.706758,0.09079 1.829487,0.631711 0.966773,0.465778 1.785511,0.768943 1.819419,0.673699 0.03391,-0.09524 -0.275436,-0.567527 -0.687431,-1.049519 l -0.749081,-0.87635 0.590997,-0.248496 c 0.366102,-0.153934 0.862564,-0.202614 1.304645,-0.127925 0.392507,0.06631 1.000321,0.12057 1.350698,0.12057 0.350376,0 0.637048,0.05919 0.637048,0.131537 0,0.232289 2.154617,2.432735 2.382069,2.432735 0.35589,0 0.245498,-1.448128 -0.221231,-2.902107 -0.102349,-0.318843 -0.01818,-0.43838 0.443255,-0.629513 0.313277,-0.129763 0.68708,-0.403668 0.830673,-0.608676 0.252734,-0.360829 0.264971,-0.355556 0.382867,0.164971 0.327395,1.445499 0.482888,1.93134 0.618123,1.93134 0.205141,0 1.324565,-2.207755 1.324565,-2.612338 0,-0.84687 0.160117,-0.897438 1.219313,-0.385083 l 1.010697,0.488894 -0.116833,0.836176 c -0.127965,0.915847 -0.882523,3.074242 -1.214623,3.474398 -0.247602,0.298342 -1.622965,1.241455 -2.385463,1.635758 -0.58334,0.301657 -1.781248,0.361727 -2.229427,0.111797 z m 4.319647,-0.04755 c -0.316229,-0.316229 -0.04537,-0.709348 1.683954,-2.444001 1.291187,-1.295169 2.073037,-2.445574 2.447717,-3.60154 0.0062,-0.01923 0.40471,0.09454 0.885505,0.252828 0.768027,0.252844 0.851359,0.330419 0.686284,0.638866 -0.223448,0.417516 0.05077,0.47222 0.379801,0.07577 0.20184,-0.243203 0.274327,-0.243203 0.621548,0 0.413107,0.289351 1.593603,0.373574 1.905497,0.135948 0.348257,-0.26533 -0.607281,0.606489 -1.331937,1.21524 l -0.727732,0.611336 0.929084,-0.118679 c 1.083478,-0.138401 1.393561,-0.284107 2.466792,-1.159131 0.436942,-0.356247 0.817624,-0.615004 0.84596,-0.575017 0.02834,0.03999 0.198323,0.307151 0.377748,0.593696 0.179425,0.286546 0.50463,0.586987 0.722679,0.667649 0.340753,0.126053 0.176069,0.266065 -1.172188,0.996579 -1.752912,0.949765 -2.454366,1.163637 -4.387668,1.337788 -0.913887,0.08232 -1.896628,0.35045 -3.128232,0.853493 -1.823745,0.744901 -2.818018,0.905973 -3.204812,0.519179 z M 33.303058,70.026149 c 0.0048,-1.367723 0.09174,-1.476598 1.121718,-1.404491 0.505851,0.03541 0.91973,0.123532 0.91973,0.19582 0,0.126005 -0.742187,0.850005 -1.625898,1.586055 l -0.418087,0.348229 z m 34.613668,-1.70115 c -1.045474,-0.990564 -1.114488,-1.105771 -0.94678,-1.580478 l 0.180895,-0.512031 0.473771,0.372668 c 0.260574,0.204968 0.6318,0.372669 0.824945,0.372669 0.36939,0 0.604194,0.450442 0.884031,1.695906 0.226492,1.008042 -0.05905,0.937761 -1.416862,-0.348734 z M 43.278585,64.468132 c -0.17088,-0.35834 -0.315931,-0.70723 -0.322335,-0.775312 -0.01261,-0.134028 3.568957,-1.204843 3.675038,-1.098762 0.06543,0.06543 -2.822067,2.525601 -2.964295,2.525601 -0.04274,0 -0.217527,-0.293187 -0.388408,-0.651527 z m 33.131437,-4.177368 c -0.357697,-0.08038 -0.94302,-0.197542 -1.300717,-0.260361 -0.636038,-0.111701 -0.650364,-0.133674 -0.650581,-0.997839 l -2.22e-4,-0.883623 1.997752,0.97875 c 1.098764,0.538313 1.997753,1.061505 1.997753,1.162649 0,0.212743 -1.098127,0.21297 -2.043985,4.24e-4 z m -44.72088,-1.837621 c -0.73296,-0.165888 -1.380355,-0.34975 -1.438656,-0.408583 -0.08613,-0.08692 0.847538,-0.525163 2.619086,-1.229334 0.21534,-0.0856 0.613586,0.989033 0.615729,1.661482 0.0012,0.376514 -0.03027,0.376101 -1.796159,-0.02357 z m 43.472026,-3.645681 c 0.02258,-0.459546 0.05732,-0.835825 0.0772,-0.836175 0.207336,-0.0036 2.827299,1.308545 2.923514,1.464225 0.09059,0.146581 -0.33704,0.20749 -1.456764,0.20749 H 75.120124 Z M 64.34031,54.556984 c 0.0046,-0.169184 0.109132,-0.52867 0.232271,-0.798857 l 0.22389,-0.491249 1.54912,0.567744 c 0.95292,0.349239 1.453519,0.618415 1.300717,0.699406 -0.136621,0.07241 -0.938246,0.176416 -1.78139,0.231114 -1.344943,0.08725 -1.531961,0.06172 -1.524608,-0.208158 z M 19.224598,52.066028 c 0.04242,-0.127749 0.959487,-0.538823 2.037929,-0.913497 l 1.960804,-0.681227 0.180621,0.913498 0.180621,0.913497 h -2.21855 c -1.692096,0 -2.200248,-0.05512 -2.141425,-0.232271 z m 56.215611,-3.38252 -0.309628,-0.835419 1.821672,-0.562147 c 2.992135,-0.923338 3.153043,-0.743212 0.824176,0.922609 -0.883664,0.632078 -1.701147,1.18549 -1.816628,1.229805 -0.11548,0.04431 -0.349297,-0.295368 -0.519592,-0.754848 z M 20.757885,45.868222 c -2.098248,-2.784404 -2.393468,-3.223577 -2.258007,-3.359038 0.116207,-0.116207 3.179493,1.874141 4.301992,2.795188 l 0.557451,0.457407 -0.439074,0.468868 c -0.24149,0.257878 -0.492343,0.725674 -0.55745,1.039547 -0.117078,0.564418 -0.134687,0.549036 -1.604912,-1.401972 z m 47.547696,-4.489505 c -0.113974,-0.07509 -0.261437,-0.31047 -0.327695,-0.523078 -0.103495,-0.332095 0.139051,-0.54809 1.721433,-1.532989 2.136681,-1.329903 2.691766,-1.477289 2.043249,-0.542523 -0.230436,0.332148 -0.829726,1.084706 -1.331756,1.672351 -0.902246,1.056113 -1.505322,1.321449 -2.105231,0.926239 z M 28.515738,40.222244 c -0.332148,-0.202514 -0.603905,-0.505636 -0.603905,-0.673603 0,-0.260652 0.142927,-0.286801 0.975538,-0.178482 0.568332,0.07394 1.125153,0.274481 1.333968,0.480439 0.35366,0.34882 0.351644,0.356104 -0.151459,0.547383 -0.698985,0.265754 -0.859885,0.24756 -1.554142,-0.175737 z m 8.712804,-4.475857 c -0.24127,-0.196579 -0.554836,-0.357417 -0.696813,-0.357417 -0.207119,0 -0.256971,-0.468251 -0.25223,-2.369164 0.0068,-2.731769 0.125543,-2.753409 1.109393,-0.202201 0.547444,1.41957 0.639006,2.080731 0.399164,2.882328 -0.119955,0.400914 -0.124052,0.401255 -0.559514,0.04645 z m 24.97657,-0.346283 c -0.311712,-0.344437 -0.250104,-0.663427 0.648132,-3.355836 0.671819,-2.013738 0.778133,-2.246539 0.993133,-2.174721 0.28725,0.09595 0.157361,4.653581 -0.135659,4.760076 -0.116265,0.04225 -0.438396,0.303833 -0.715847,0.581283 -0.470677,0.470678 -0.523559,0.483347 -0.789759,0.189198 z m -11.280276,-3.25575 -0.293559,-0.647664 1.285578,-1.909559 c 0.707068,-1.050257 1.414688,-1.938149 1.57249,-1.973093 0.203123,-0.04498 0.256856,0.03642 0.183996,0.278726 -0.466673,1.551983 -0.862055,3.204207 -0.862055,3.602357 0,0.368087 -0.162814,0.563204 -0.696813,0.835063 -0.383247,0.195111 -0.741647,0.378842 -0.796445,0.408291 -0.0548,0.02945 -0.231735,-0.237906 -0.393192,-0.594121 z m 0.630154,12.286193 c -0.01261,-0.134028 1.866819,-4.425103 1.9729,-4.319022 0.06543,0.06543 -0.429873,4.641772 -0.572101,4.641772 -0.103808,0 -1.386312,-0.168732 -1.400799,-0.32275 z m -10.583333,2.645834 c -0.01261,-0.134028 -1.261434,-5.138161 -1.155353,-5.03208 0.06543,0.06543 3.089412,4.36575 2.947184,4.36575 -0.103808,0 -1.777344,0.820348 -1.791831,0.66633 z m -9.996724,3.991503 c -0.01261,-0.134028 -0.755393,-2.009907 -0.649312,-1.903826 0.06543,0.06543 1.870313,1.145489 1.728085,1.145489 -0.103808,0 -1.064286,0.912355 -1.078773,0.758337 z M 60.941484,48.51493 c -0.01261,-0.134028 -0.111341,-1.894899 -0.0053,-1.788818 0.06543,0.06543 5.182581,1.076484 5.13236,1.375508 -0.01719,0.102374 -5.112613,0.567328 -5.1271,0.41331 z"
       id="path22"
       sodipodi:nodetypes="sssssssscsssssssssssscsssssscsssssscsssssssssssssscssscsssssssssssscsssssssssscsscssscsssssscccssscssssssscssssssssssssssssscssssssssssscsssssssssssssssssssssss" /></g></svg>
