<?xml version="1.0" encoding="UTF-8" standalone="no"?>
<!-- Created with Inkscape (http://www.inkscape.org/) -->

<svg
   width="100mm"
   height="100mm"
   viewBox="0 0 100 100"
   version="1.1"
   id="svg1"
   inkscape:version="1.4 (86a8ad7, 2024-10-11)"
   sodipodi:docname="bush3.svg"
   xml:space="preserve"
   xmlns:inkscape="http://www.inkscape.org/namespaces/inkscape"
   xmlns:sodipodi="http://sodipodi.sourceforge.net/DTD/sodipodi-0.dtd"
   xmlns="http://www.w3.org/2000/svg"
   xmlns:svg="http://www.w3.org/2000/svg"><sodipodi:namedview
     id="namedview1"
     pagecolor="#ffffff"
     bordercolor="#000000"
     borderopacity="0.25"
     inkscape:showpageshadow="2"
     inkscape:pageopacity="0.0"
     inkscape:pagecheckerboard="true"
     inkscape:deskcolor="#d1d1d1"
     inkscape:document-units="mm"
     inkscape:zoom="1.4378367"
     inkscape:cx="191.60729"
     inkscape:cy="183.95691"
     inkscape:window-width="1920"
     inkscape:window-height="1009"
     inkscape:window-x="1912"
     inkscape:window-y="-8"
     inkscape:window-maximized="1"
     inkscape:current-layer="layer1" /><defs
     id="defs1" /><g
     inkscape:label="Warstwa 1"
     inkscape:groupmode="layer"
     id="layer1"><path
       style="fill:#b7a26c;fill-opacity:1"
       d="m 50.691247,70.915837 c -0.807432,-0.427459 -3.193625,-0.531309 -3.947522,-0.171801 -0.596166,0.284292 -0.754682,0.282097 -2.05507,-0.02846 -0.774992,-0.185082 -2.102115,-0.68752 -2.949162,-1.116529 -1.020615,-0.516916 -2.059559,-0.870126 -3.080174,-1.047167 -0.847048,-0.146933 -2.095096,-0.525769 -2.77344,-0.841857 -1.394655,-0.649868 -2.343611,-0.68938 -3.116717,-0.129771 -0.274919,0.198999 -0.847146,0.408398 -1.271615,0.465332 -0.658749,0.08836 -0.840679,0.02919 -1.242394,-0.404041 -0.5053,-0.544943 -1.266058,-0.591873 -1.548478,-0.09552 -0.08483,0.149095 -0.55068,1.007436 -1.035212,1.907424 -0.847392,1.573975 -0.876579,1.604693 -0.765781,0.805955 0.06335,-0.456713 0.168941,-1.344669 0.234639,-1.973236 l 0.119452,-1.142849 H 26.33159 c -0.510501,0 -1.205516,-0.100285 -1.544479,-0.222855 -0.59244,-0.214229 -0.692259,-0.169308 -2.57876,1.160516 l -1.962464,1.383371 0.593195,-0.823622 c 1.935388,-2.687191 1.795637,-2.394497 1.42561,-2.985788 -0.183448,-0.293142 -0.349355,-0.558676 -0.368683,-0.590076 -0.01933,-0.0314 -0.390767,0.128272 -0.825419,0.354825 -1.203536,0.627318 -2.201272,0.703435 -2.698815,0.205893 -0.233767,-0.233768 -0.407371,-0.653491 -0.407371,-0.984905 v -0.577532 h -1.925109 c -1.484274,0 -1.925108,-0.05929 -1.925108,-0.25893 0,-0.339191 0.520867,-0.772214 1.299448,-1.080296 0.752096,-0.297602 0.76955,-0.424492 0.144383,-1.049659 -0.264702,-0.264702 -0.481277,-0.619461 -0.481277,-0.788354 0,-0.692771 0.584134,-1.407569 1.436854,-1.758259 0.742392,-0.305316 0.87194,-0.43903 0.872554,-0.900611 7.71e-4,-0.578502 0.307581,-1.29237 0.655202,-1.524483 0.1165,-0.07779 0.758744,-0.142762 1.427209,-0.144383 l 1.21539,-0.0029 -0.06032,-0.62566 c -0.05636,-0.584583 -0.199355,-0.698378 -2.177944,-1.733245 -2.177464,-1.138886 -2.163122,-1.170109 0.278741,-0.606838 1.209033,0.278892 1.447856,0.288592 1.523427,0.06188 0.04929,-0.147874 0.313692,-0.492497 0.587558,-0.765829 0.44559,-0.444723 0.471939,-0.546107 0.250639,-0.964405 -0.325982,-0.616166 -0.149581,-1.730807 0.332207,-2.099147 0.376885,-0.288139 0.366713,-0.327921 -0.56723,-2.218508 -0.523048,-1.05881 -1.000897,-2.055054 -1.061885,-2.213875 -0.06099,-0.158821 0.655271,0.47145 1.591688,1.400603 l 1.702575,1.689369 0.633876,-0.316219 c 0.456296,-0.227631 0.888299,-0.282468 1.54205,-0.195745 0.848658,0.112578 0.936237,0.08252 1.336394,-0.458724 0.595869,-0.805956 1.742758,-0.822835 2.528382,-0.03721 0.470674,0.470673 0.587551,0.508668 0.888285,0.288766 0.190464,-0.139271 0.567973,-0.251905 0.838909,-0.250297 0.723663,0.0043 2.084544,0.447697 2.427913,0.791065 0.269656,0.269657 0.363533,0.238929 0.971592,-0.318032 l 0.673094,-0.61653 -0.333691,-0.699756 c -0.187602,-0.393405 -0.474881,-0.699756 -0.656193,-0.699756 -0.177376,0 -0.62809,-0.207378 -1.001587,-0.460841 -0.597771,-0.405657 -0.830819,-0.44866 -1.946241,-0.359125 -0.983133,0.07892 -1.376313,0.03019 -1.754164,-0.217385 -0.559693,-0.366726 -0.65295,-1.172309 -0.204365,-1.76539 0.385181,-0.509255 0.36587,-0.6029 -0.151078,-0.732646 -0.245282,-0.06156 -0.560798,-0.326494 -0.701147,-0.588738 -0.346897,-0.648183 0.02987,-1.550725 0.786795,-1.88474 0.527148,-0.23262 0.553935,-0.297687 0.438952,-1.066259 -0.146836,-0.981485 0.188016,-1.604892 1.054912,-1.963973 l 0.585839,-0.242662 -0.403554,-0.797552 c -0.221955,-0.438654 -0.548068,-1.014127 -0.724695,-1.278829 -0.176628,-0.264703 -0.432843,-0.741167 -0.569367,-1.05881 l -0.248225,-0.577532 0.450122,0.393894 c 2.155671,1.88639 2.057737,1.824815 2.547471,1.601677 0.366131,-0.16682 0.601867,-0.144872 1.09701,0.102138 0.346866,0.173039 0.699826,0.245457 0.784354,0.160929 0.08453,-0.08453 0.06904,-0.670617 -0.03442,-1.302419 -0.292746,-1.787755 -0.240498,-1.816378 0.691229,-0.378687 l 0.873325,1.347576 0.895729,-0.02355 c 1.026645,-0.02699 1.069046,-0.102336 1.306743,-2.321918 0.147678,-1.378997 0.339535,-1.308762 0.55818,0.204336 0.186829,1.292927 0.252341,1.41455 0.840564,1.5605 0.283511,0.07035 0.695274,0.295635 0.915027,0.500644 0.396573,0.369967 0.40148,0.369143 0.658191,-0.110526 0.204588,-0.382276 0.40742,-0.483271 0.97057,-0.483271 0.623346,0 0.778735,0.100948 1.248817,0.811291 0.295288,0.446209 0.826579,1.084505 1.180647,1.418434 0.395839,0.373324 0.643761,0.792162 0.643761,1.087567 0,0.4337 0.07636,0.480422 0.785227,0.480422 1.333318,0 2.159758,0.875586 2.454154,2.600097 0.102428,0.6 0.240916,0.836583 0.519624,0.887683 0.208988,0.03832 0.53158,0.204095 0.716872,0.368396 0.311027,0.275792 0.336894,0.260447 0.336894,-0.199853 0,-0.809414 0.343997,-1.480564 0.931762,-1.817894 l 0.550221,-0.315784 -0.627833,-1.071965 c -0.846419,-1.445181 -1.018938,-2.54352 -0.483604,-3.078853 0.3171,-0.317101 0.641978,-0.399498 1.575159,-0.399498 0.938595,0 1.154428,-0.05533 1.070362,-0.274405 -0.17416,-0.453852 0.242834,-1.619217 0.691955,-1.933793 0.479314,-0.335725 2.280453,-0.399972 2.838612,-0.101254 0.280428,0.15008 0.419066,0.110252 0.621312,-0.178495 0.143185,-0.204426 0.489725,-0.476199 0.770088,-0.603941 0.431238,-0.196486 0.633664,-0.170951 1.314265,0.165783 l 0.804513,0.398042 0.492696,-0.585536 c 0.431324,-0.512599 0.584752,-0.573188 1.231717,-0.486412 l 0.739021,0.09912 0.653507,-1.377857 0.653506,-1.377857 0.01676,1.306222 c 0.01578,1.229508 0.03863,1.294517 0.389126,1.106937 0.204801,-0.109606 0.731244,-0.199284 1.169874,-0.199284 0.631961,0 0.919123,0.121615 1.383379,0.585871 0.540282,0.540283 0.579092,0.667611 0.498758,1.636342 -0.04791,0.577759 -0.05624,1.050471 -0.01851,1.050471 0.03773,0 0.509389,-0.303204 1.048123,-0.673788 0.538733,-0.370583 1.064995,-0.673788 1.169472,-0.673788 0.104476,0 -0.265156,0.525343 -0.821405,1.16743 l -1.011361,1.167429 0.325069,0.681678 c 0.178789,0.374923 0.272973,0.845824 0.209298,1.046446 -0.09197,0.289775 -0.0195,0.364767 0.352515,0.364767 0.691392,0 1.482535,0.700213 1.483983,1.31342 8.75e-4,0.370394 0.163388,0.607712 0.577533,0.843373 0.468987,0.266867 0.576315,0.454261 0.576315,1.006244 0,0.795417 -0.395043,1.122178 -1.771339,1.465168 l -0.90504,0.225547 0.395585,0.535058 c 0.495118,0.669682 0.361344,1.123713 -0.493873,1.676214 -0.650601,0.420311 -3.726364,1.405453 -4.388039,1.405453 -0.189869,0 -0.345217,0.08663 -0.345217,0.192511 0,0.105881 0.324863,0.192834 0.721916,0.19323 0.397054,3.96e-4 1.005557,0.173656 1.352229,0.385022 0.770857,0.469991 1.006029,0.483324 1.006029,0.05703 0,-0.64121 0.428853,0.08458 0.662214,1.120728 0.194523,0.863705 0.308239,1.035548 0.766341,1.158063 0.295858,0.07912 0.693673,0.284815 0.884034,0.457089 0.324854,0.293989 0.353958,0.277493 0.473902,-0.26861 0.195985,-0.892314 0.81386,-1.562469 1.440579,-1.562469 0.355643,0 0.642984,-0.155006 0.837414,-0.451744 0.429967,-0.656213 1.37378,-1.006433 1.97456,-0.7327 0.462272,0.210625 0.498501,0.170239 1.227871,-1.368755 l 0.751545,-1.585784 -0.03335,1.726308 c -0.04705,2.435192 0.187397,2.405647 2.1648,-0.272803 0.863777,-1.170011 1.615624,-2.127293 1.670772,-2.127293 0.05515,0 0.05606,0.07153 0.002,0.158947 -0.147828,0.23919 -1.272065,4.605342 -1.272065,4.940264 0,0.196109 0.191449,0.291093 0.586725,0.291093 0.378557,0 0.744975,0.170755 1.032757,0.481277 0.245318,0.264702 0.525712,0.481277 0.623098,0.481277 0.09739,0 0.78049,-0.415785 1.518011,-0.923968 0.737521,-0.508182 1.466271,-1.000289 1.619446,-1.09357 0.323357,-0.19692 -0.290029,0.711293 -1.47203,2.179568 -0.455308,0.565581 -0.827833,1.091917 -0.827833,1.169636 0,0.07772 0.216575,0.344767 0.481277,0.593442 0.264702,0.248675 0.481277,0.666051 0.481277,0.927501 0,0.472915 0.0072,0.47474 1.395704,0.354129 l 1.395703,-0.121235 -1.378475,0.703959 c -1.266669,0.646861 -1.385806,0.759849 -1.468866,1.393038 -0.131043,0.998979 0.646311,2.325153 1.363497,2.326143 0.776293,0.0011 1.716852,0.653156 1.853074,1.284726 0.06446,0.298874 0.03796,0.816243 -0.05889,1.149709 -0.158409,0.545392 -0.110318,0.670061 0.478697,1.240957 0.995018,0.96441 0.832246,1.738087 -0.437095,2.077562 -0.431803,0.115481 -0.587932,0.317477 -0.785177,1.015838 -0.288309,1.020784 -0.695117,1.268751 -2.368399,1.443644 -0.931503,0.09736 -1.134957,0.184156 -1.183031,0.504685 -0.05719,0.381277 -0.309514,0.586649 -0.972486,0.791514 -0.214879,0.0664 -0.337154,0.298029 -0.337613,0.63955 -3.96e-4,0.294496 -0.169524,0.812293 -0.37584,1.150661 -0.514523,0.843842 -1.468445,1.020208 -2.701151,0.499405 L 75.392545,67.971857 74.54738,68.42391 c -1.285623,0.68764 -2.014074,0.607614 -2.894581,-0.31799 -0.656417,-0.690038 -0.82869,-0.770044 -1.658102,-0.770044 -0.668576,0 -1.121052,0.13283 -1.629576,0.47838 -1.232109,0.83724 -2.62298,1.261041 -4.850524,1.477963 -1.802862,0.175567 -2.468937,0.342304 -4.238201,1.060941 -2.549358,1.035493 -3.450432,1.076 -3.540175,0.159145 -0.04971,-0.507825 0.145567,-0.762443 1.617843,-2.109525 1.468251,-1.343399 2.770181,-2.948251 2.770181,-3.414724 0,-0.08515 -0.291522,-0.154821 -0.647826,-0.154821 -0.367973,0 -0.871328,-0.175806 -1.165203,-0.406969 -0.284558,-0.223832 -0.550866,-0.373479 -0.591798,-0.332548 -0.04093,0.04093 -0.202849,0.690371 -0.359818,1.443199 -0.34656,1.662107 -0.971501,3.165577 -1.53428,3.691139 -0.229675,0.214486 -1.022625,0.742789 -1.762111,1.174006 -1.447897,0.844313 -2.457218,0.998113 -3.371995,0.513825 z m 0.525295,-2.954351 c -0.141617,-1.769939 -0.715394,-3.347156 -1.556256,-4.27789 -0.3859,-0.427146 -0.701637,-0.949639 -0.701637,-1.161096 0,-0.211456 -0.08272,-0.384467 -0.183821,-0.384467 -0.103477,0 -0.166583,0.610029 -0.144383,1.395704 0.02169,0.767637 -0.03049,1.748122 -0.11595,2.178855 -0.153826,0.775278 -0.142213,0.79705 1.155142,2.165747 0.720791,0.760428 1.387108,1.382596 1.480703,1.382596 0.0936,0 0.123386,-0.584752 0.0662,-1.299449 z m -5.723088,0.766256 c 0,-0.08149 -0.385825,-0.664001 -0.85739,-1.294461 l -0.85739,-1.146291 -1.115846,-0.02176 c -0.987666,-0.01927 -1.392033,0.129256 -1.401665,0.514818 -0.0027,0.107079 1.753286,1.004582 3.462248,1.769617 0.825045,0.36934 0.770043,0.35662 0.770043,0.178081 z m 20.59866,-2.074961 c 0.370583,-0.245231 1.041965,-0.591108 1.491959,-0.768616 0.68844,-0.271567 0.818171,-0.407442 0.818171,-0.856919 0,-0.740793 -0.73125,-0.947334 -1.19493,-0.337507 -1.122129,1.475813 -1.140606,1.491022 -1.811425,1.491022 -0.628679,0 -1.806416,0.648763 -1.806416,0.995075 0,0.299561 1.840981,-0.08521 2.502641,-0.523055 z M 54.304517,65.819444 c 0.680019,-1.236956 0.726478,-1.555785 0.4099,-2.813028 -0.29015,-1.152291 -0.675279,-1.244943 -1.487875,-0.357946 -0.601681,0.65677 -0.641875,0.772529 -0.454257,1.308237 0.113208,0.323242 0.259372,0.934231 0.324809,1.357755 0.20145,1.303831 0.291073,1.636342 0.441047,1.636342 0.07942,0 0.424293,-0.509112 0.766376,-1.13136 z M 47.30171,65.106206 c 0.06427,-0.167481 0.116852,-0.811367 0.116852,-1.430858 0,-0.93824 -0.0612,-1.145771 -0.366444,-1.242652 -0.201545,-0.06397 -0.508814,-0.416325 -0.682821,-0.783017 -0.174006,-0.366691 -0.342316,-0.666711 -0.374021,-0.666711 -0.0317,0 -0.325833,0.13379 -0.653617,0.29731 l -0.595971,0.297309 0.999543,1.912618 c 0.978639,1.872618 1.321434,2.228521 1.556479,1.616001 z"
       id="path23"
       sodipodi:nodetypes="csssssssssssscssscsssssscssssssssccsssssssssscsssssssscssssssssssscssscsssssscsssssssssssssssscssssssssscsscccssssssssscssssssscssssssssssssssscssscssssssssssscsscssssssssssscsssssssssssssssccsssssssssssscscssssssssssssssssssssssscss" /><path
       style="fill:#735e40;fill-opacity:1"
       d="m 50.691247,70.91558 c -0.810884,-0.429719 -2.970725,-0.552007 -3.939622,-0.223058 -0.783349,0.265954 -0.96572,0.25777 -2.352972,-0.105585 -0.827094,-0.216637 -2.153596,-0.727418 -2.947783,-1.135071 -0.965193,-0.49543 -1.922709,-0.816064 -2.887806,-0.967013 -0.794108,-0.124204 -1.956578,-0.457316 -2.583267,-0.740248 l -1.139435,-0.514421 0.540064,-0.353864 0.540064,-0.353863 0.465314,0.594561 c 0.874139,1.116943 2.936716,1.27469 4.310387,0.329663 0.344002,-0.236659 0.476056,-0.397124 0.548925,-0.608966 0.20975,0.168162 0.434561,0.31987 0.645054,0.431558 1.356009,0.719499 2.13865,0.972359 3.458903,1.506933 0.443763,0.185596 0.427984,-0.06692 -0.0351,-0.561673 -0.204595,-0.218587 -0.6183,-0.737799 -0.919344,-1.153805 l -0.547353,-0.756375 0.438067,-0.438067 c 0.504534,-0.504535 0.570316,-1.336151 0.152838,-1.932184 -0.251964,-0.359729 -0.251964,-0.434828 0,-0.64394 0.156876,-0.130195 0.285229,-0.40659 0.285229,-0.614211 0,-0.700295 0.464982,-0.231355 1.24599,1.256595 0.426456,0.812467 0.880322,1.477429 1.008592,1.477693 0.312032,6.41e-4 0.694493,-1.473182 0.558608,-2.152608 -0.08631,-0.431539 -0.03874,-0.542065 0.233294,-0.542065 0.187938,0 0.433167,-0.09146 0.544953,-0.203246 0.293411,-0.293412 0.484014,1.644093 0.256724,2.609631 -0.279598,1.187746 -0.252011,1.336546 0.573269,2.257261 0.865724,0.965836 0.915353,0.997009 1.548165,1.595072 0.399447,0.377512 0.561267,0.35292 0.561267,-0.106491 0,-0.731426 -0.402366,-3.349085 -0.731362,-4.030889 l -0.326924,-0.677511 0.506215,-0.01897 c 0.278419,-0.01044 0.795469,-0.163271 1.149001,-0.339636 0.506472,-0.252661 0.675091,-0.26905 0.79512,-0.07728 0.150776,0.24089 0.478815,1.72036 0.587526,2.649765 0.09097,0.777728 0.543924,0.55648 1.138371,-0.556044 0.577299,-1.080428 0.675277,-1.815962 0.379349,-2.847804 -0.215287,-0.750662 -0.02846,-1.000374 0.302473,-0.404279 l 0.243822,0.439187 0.0068,-0.422233 c 0.0092,-0.567073 0.723375,-1.063772 1.178994,-0.819932 0.188432,0.100846 0.564873,0.183356 0.836536,0.183356 0.605983,0 0.608717,0.06395 0.122227,2.859251 -0.271437,1.559637 -0.544072,2.456567 -1.010682,3.325 -0.567157,1.055566 -0.812077,1.293718 -2.179063,2.118855 -1.650682,0.99638 -2.60321,1.17476 -3.56145,0.666951 z m 5.074733,-0.01873 c -0.221624,-0.577543 0.138522,-1.216463 1.159468,-2.056962 1.012783,-0.833778 2.427905,-2.347736 2.77619,-2.970086 0.149581,-0.267287 0.237193,-0.242005 0.673564,0.194367 0.570044,0.570043 1.23728,0.637886 2.064824,0.209946 0.385765,-0.199486 0.811674,-0.252072 1.34757,-0.166378 l 0.783539,0.125292 -0.635214,0.558908 -0.635214,0.558907 1.05881,-0.126334 c 0.582345,-0.06948 1.308221,-0.267779 1.613057,-0.440656 0.304836,-0.172878 0.911246,-0.500453 1.347576,-0.727946 l 0.793328,-0.413623 0.195023,0.444316 c 0.107263,0.244373 0.347376,0.612664 0.533586,0.818423 0.327174,0.361523 0.314138,0.38999 -0.387534,0.846233 -1.443569,0.938641 -2.639084,1.30608 -4.895296,1.504558 -1.921598,0.169041 -2.430942,0.296392 -4.244183,1.061163 -2.133458,0.89983 -3.350038,1.098603 -3.549094,0.579872 z M 26.904029,70.271617 c 0.06309,-0.291173 0.184437,-1.114157 0.269648,-1.828853 l 0.154931,-1.299449 -0.687502,-0.03081 c -0.684711,-0.03068 -0.685036,-0.03112 -0.07999,-0.107099 0.652461,-0.08193 0.701432,-0.177487 0.940617,-1.835328 0.07256,-0.502934 0.168288,-0.914426 0.212726,-0.914426 0.165465,0 1.993106,0.972556 1.993106,1.060606 0,0.176676 -2.735172,5.484762 -2.82621,5.484762 -0.05063,0 -0.04042,-0.238232 0.02267,-0.529404 z m -5.862918,-1.821381 c 1.474897,-1.969285 1.613287,-2.240834 1.327605,-2.605021 -0.241724,-0.30815 -0.234822,-0.314292 0.07758,-0.06904 0.374618,0.294096 0.371037,0.297002 1.338137,-1.08606 0.240114,-0.343389 0.479886,-0.617603 0.532826,-0.609364 0.157535,0.02452 1.408038,1.527381 1.326407,1.594087 -0.0413,0.03375 -1.232899,0.857786 -2.648005,1.831199 -2.501155,1.720478 -2.555671,1.746813 -1.954552,0.944197 z m 14.63429,-3.460218 c 0,-0.0339 0.465161,-1.014322 1.033692,-2.178723 0.56853,-1.164401 1.094147,-2.31201 1.168038,-2.550242 0.07389,-0.238233 0.197557,-0.43315 0.274814,-0.43315 0.189113,0 1.659831,1.51498 1.553675,1.600433 -0.04606,0.03708 -0.971703,0.867491 -2.056983,1.845363 -1.08528,0.977873 -1.973236,1.750216 -1.973236,1.716319 z m 39.944847,-1.663987 c -0.42289,-0.389033 -0.985465,-0.849363 -1.250168,-1.022957 l -0.481277,-0.315626 0.461133,-0.496306 c 0.253623,-0.272969 0.533783,-0.451407 0.622578,-0.396528 0.1868,0.115448 1.557661,2.797712 1.473089,2.882284 -0.03106,0.03106 -0.402465,-0.261835 -0.825355,-0.650867 z M 70.949299,62.547418 C 69.418458,60.449297 69.429706,60.492612 70.275286,59.95172 l 0.725855,-0.464307 0.21499,0.795905 c 0.346017,1.28097 0.818506,3.484286 0.759779,3.543012 -0.02973,0.02973 -0.491702,-0.545783 -1.026611,-1.278912 z m -50.000977,0.563264 c 1.589359,-0.593897 3.445037,-1.302022 3.776519,-1.441115 0.245578,-0.103047 0.35738,0.05226 0.529405,0.73544 0.119944,0.476342 0.21808,0.901761 0.21808,0.945377 0,0.04362 -1.234475,0.08845 -2.743279,0.09964 l -2.74328,0.02034 z m 42.783211,-0.10635 c -0.06033,-0.211762 -0.163573,-0.818171 -0.229424,-1.347576 -0.06585,-0.529405 -0.166646,-1.200786 -0.223989,-1.491959 -0.100056,-0.508055 -0.07259,-0.529405 0.681079,-0.529405 0.431936,0 0.782015,0.06497 0.777952,0.144384 -0.0041,0.07941 -0.207308,0.924052 -0.451656,1.87698 -0.292112,1.139211 -0.481836,1.600734 -0.553962,1.347576 z m 14.014039,-3.22164 c 0.07407,-0.345717 0.162908,-0.659706 0.19741,-0.697752 0.07652,-0.08439 2.814472,0.932055 3.030125,1.12491 0.08465,0.0757 -0.637215,0.151992 -1.604151,0.169531 l -1.758065,0.03189 z M 56.755338,59.07661 c -0.317643,-0.1755 -1.17261,-0.654579 -1.899928,-1.06462 l -1.322396,-0.745531 0.744863,-0.450889 c 0.409675,-0.247989 0.831494,-0.450575 0.937375,-0.450192 0.10588,3.84e-4 0.520616,0.498062 0.921634,1.105951 0.401018,0.60789 0.866391,1.300171 1.034163,1.538403 0.348215,0.494459 0.355936,0.493217 -0.415711,0.06688 z M 26.194242,57.560663 c -0.714696,-0.161273 -1.299448,-0.353059 -1.299448,-0.426189 0,-0.07313 0.498122,-0.240825 1.106937,-0.372654 0.608816,-0.131828 1.301855,-0.28495 1.540087,-0.34027 0.395227,-0.09178 0.433149,-0.03134 0.433149,0.690332 0,0.889583 0.08159,0.869019 -1.780725,0.448781 z m 16.953154,-0.934775 c 1.686286,-2.059117 1.510721,-1.92203 1.951101,-1.523492 0.697552,0.631276 0.644527,0.685449 -1.901075,1.94225 l -0.659689,0.325698 z m 20.730843,-0.365747 c -1.16469,-0.252035 -2.350738,-0.462007 -2.635662,-0.466605 -0.736908,-0.01189 -0.783948,-0.229436 -0.22688,-1.049235 0.348162,-0.512368 0.581787,-0.684896 0.809657,-0.59792 0.459953,0.17556 4.459271,2.44448 4.459271,2.529863 0,0.101926 -0.06221,0.09117 -2.406386,-0.416103 z m -43.53921,-1.078922 c -4.235516,-2.236551 -4.183869,-2.136709 -0.733998,-1.418934 1.268215,0.263863 2.551296,0.480438 2.851292,0.481277 0.299996,8.4e-4 0.514311,0.0665 0.476255,0.14591 -0.475007,0.991191 -0.830141,1.588214 -0.944734,1.588214 -0.07727,0 -0.819235,-0.35841 -1.648815,-0.796467 z m 12.122617,-1.365243 c -0.549935,-1.081734 -0.981543,-1.985128 -0.95913,-2.007541 0.03566,-0.03566 1.060923,0.739151 2.91286,2.201283 l 0.555299,0.438417 -0.647956,0.66852 c -0.356375,0.367686 -0.695933,0.667978 -0.754574,0.667316 -0.05864,-6.63e-4 -0.556565,-0.886261 -1.106499,-1.967995 z m 45.850764,0.416641 c -0.178118,-0.536264 -0.275893,-1.022983 -0.217278,-1.081598 0.05861,-0.05861 1.215287,-0.265238 2.570382,-0.459162 1.355095,-0.193924 2.808161,-0.404384 3.229035,-0.467689 0.60067,-0.09035 0.186691,0.181751 -1.925108,1.265332 -1.479684,0.759237 -2.772633,1.456416 -2.87322,1.549287 -0.332263,0.306775 -0.456639,0.178852 -0.783811,-0.80617 z M 68.301662,53.778341 c -0.103501,-0.145002 -0.387033,-0.529689 -0.63007,-0.85486 l -0.441887,-0.591221 1.951887,-0.979503 c 1.073538,-0.538727 1.884736,-0.866352 1.802661,-0.728055 -0.166092,0.279868 -2.176243,3.059448 -2.370741,3.278194 -0.06802,0.0765 -0.208349,0.02045 -0.31185,-0.124555 z m -8.177673,-0.881444 c -0.247512,-0.52845 -0.413675,-0.987724 -0.36925,-1.020608 0.07244,-0.05362 4.541957,-1.839615 5.455417,-2.179954 0.426715,-0.158987 -3.308926,3.322404 -4.105055,3.825662 l -0.531089,0.335718 z M 37.951968,51.976446 c -0.681412,-0.816925 -1.300542,-1.587604 -1.375845,-1.712619 -0.122388,-0.203185 2.106487,0.679075 3.364788,1.331889 l 0.488108,0.253233 -0.619061,0.806408 -0.61906,0.806408 z M 26.476681,51.634428 c -0.53751,-0.787637 -0.949408,-1.432067 -0.91533,-1.432067 0.111438,0 3.18366,1.753848 3.18366,1.817465 0,0.03407 -0.290484,0.283508 -0.64552,0.554307 l -0.645519,0.492362 z m 52.142653,-0.224609 c -0.325351,-0.394708 -0.591548,-0.778055 -0.591548,-0.851884 0,-0.07383 0.498122,-0.454319 1.106938,-0.845533 0.608815,-0.391215 1.81844,-1.16629 2.688056,-1.722389 l 1.581118,-1.011089 -1.329354,1.756102 c -2.161421,2.855278 -2.594074,3.392444 -2.7324,3.392444 -0.07219,0 -0.397458,-0.322943 -0.72281,-0.717651 z M 21.862086,49.672956 c -0.323067,-0.714696 -0.947624,-2.035802 -1.387903,-2.93579 l -0.800508,-1.636342 1.72396,1.708377 c 1.139423,1.129124 1.806203,1.657549 1.966516,1.55847 0.163553,-0.101081 0.194468,-0.0721 0.09491,0.08898 -0.09135,0.147805 0.08967,0.483729 0.47475,0.881035 l 0.622392,0.642146 -0.979372,0.496285 c -0.538654,0.272957 -1.012668,0.496285 -1.053363,0.496285 -0.0407,0 -0.338319,-0.584751 -0.661386,-1.299448 z m 52.031368,-0.547944 c -0.420965,-0.154097 -0.836093,-0.350877 -0.922506,-0.437289 -0.08641,-0.08641 0.355348,-1.188705 0.98169,-2.449539 0.626342,-1.260834 1.191959,-2.42237 1.256928,-2.581192 0.06497,-0.158821 0.07932,0.144384 0.03189,0.673788 -0.04743,0.529405 -0.141283,1.893826 -0.208564,3.032046 -0.06728,1.138221 -0.178965,2.063388 -0.248187,2.055927 -0.06922,-0.0075 -0.470284,-0.139644 -0.89125,-0.293741 z m -17.497229,-0.628206 -0.5133,-0.53577 1.013739,-0.647985 c 2.106675,-1.346594 1.978312,-1.277539 1.786177,-0.960907 -0.09637,0.158822 -0.534796,0.826891 -0.974271,1.484599 l -0.799046,1.195832 z m 9.462699,0.332198 c -0.04002,-0.120061 0.05243,-0.730757 0.205445,-1.357102 0.309507,-1.26692 0.529749,-1.253041 0.822941,0.05186 0.170242,0.757695 0.147075,0.863998 -0.255874,1.174051 -0.521361,0.401167 -0.673886,0.427069 -0.772512,0.131191 z M 76.68021,48.138158 c -0.158821,-0.05978 -0.483241,-0.180577 -0.720934,-0.26843 l -0.432168,-0.159732 0.528424,-0.8321 c 0.743473,-1.170737 2.794929,-4.002486 2.855623,-3.941791 0.06956,0.06956 -0.262575,1.442272 -0.861313,3.559864 -0.50482,1.785427 -0.620533,1.924167 -1.369632,1.642189 z M 47.992675,45.918995 c -0.0019,-0.661756 -0.08503,-1.979123 -0.184777,-2.927482 -0.09975,-0.948359 -0.15542,-1.750226 -0.123719,-1.781926 0.119766,-0.119766 2.622046,5.340202 2.622046,5.721297 0,0.105475 -0.518223,0.191304 -1.155065,0.191304 h -1.155065 z m 15.254058,-1.989767 c -0.235017,-0.358521 -0.427303,-0.722755 -0.427303,-0.809406 0,-0.153334 3.464986,-1.647499 3.568376,-1.538749 0.02853,0.03001 -0.570402,0.717284 -1.330952,1.527284 l -1.382818,1.472729 z m -31.64573,-1.380569 c -0.493882,-0.608048 -0.872644,-1.131053 -0.841691,-1.162234 0.03095,-0.03118 0.632125,0.207052 1.335939,0.529405 0.703814,0.322354 1.38033,0.586097 1.503369,0.586097 0.123039,0 -0.02528,0.25989 -0.329604,0.577533 -0.304322,0.317643 -0.602076,0.576904 -0.661678,0.576136 -0.0596,-7.68e-4 -0.512452,-0.49889 -1.006335,-1.106937 z m 24.047398,0.389714 c -0.397054,-0.162899 -0.721916,-0.358966 -0.721916,-0.435704 0,-0.07674 0.219383,-0.462803 0.487518,-0.857921 0.268135,-0.395119 0.751514,-1.165219 1.074176,-1.711335 l 0.586658,-0.992936 -0.119019,1.25132 c -0.20929,2.200403 -0.343255,3.080656 -0.46592,3.061466 -0.06577,-0.01029 -0.444443,-0.15199 -0.841497,-0.31489 z M 41.643237,40.646417 c 0,-0.156734 1.161825,-4.183256 1.225391,-4.246822 0.02613,-0.02613 0.156133,0.822869 0.288895,1.886665 0.132761,1.063796 0.288777,2.057676 0.3467,2.208622 0.0827,0.215511 -0.105812,0.274448 -0.877835,0.274448 -0.540733,0 -0.983151,-0.05531 -0.983151,-0.122913 z m 22.517122,-1.905309 c -0.352453,-0.363639 -0.60343,-0.692593 -0.557727,-0.731009 0.125388,-0.105396 3.700531,-1.099824 3.751832,-1.043574 0.0245,0.02686 -0.539964,0.585896 -1.254367,1.242295 l -1.298914,1.193451 z m -31.888417,0.13043 C 32.149077,38.6748 31.595985,37.656899 31.042848,36.609536 30.489712,35.562172 29.968,34.615769 29.88349,34.506419 29.798979,34.397068 29.632598,34.051848 29.513754,33.739263 l -0.216081,-0.568335 0.445584,0.401473 c 0.245072,0.22081 1.259771,1.085809 2.254886,1.92222 0.995116,0.836411 2.067668,1.740868 2.383449,2.009904 l 0.574148,0.489156 -1.159076,0.617781 c -0.637491,0.33978 -1.191083,0.617781 -1.230203,0.617781 -0.03912,0 -0.171654,-0.160967 -0.294519,-0.357705 z m 22.882139,-3.039071 c 0.09198,-0.725857 0.186692,-1.442397 0.210463,-1.592313 0.02377,-0.149915 0.288466,0.355629 0.588214,1.123432 0.299748,0.767803 0.505399,1.435602 0.457002,1.483998 -0.0484,0.0484 -0.388353,0.136736 -0.755458,0.196309 l -0.667464,0.108314 z m -18.126574,0.798704 c 0.0025,-0.106334 0.205488,-1.276209 0.451103,-2.599721 0.439822,-2.370019 0.525836,-2.463617 0.796105,-0.866299 0.07166,0.423524 0.19848,0.856674 0.281821,0.962555 0.129277,0.16424 0.444857,2.137826 0.405671,2.537006 -0.02099,0.213853 -1.939717,0.180589 -1.9347,-0.03354 z m 28.041815,-0.251997 c -0.284512,-0.296966 -0.517295,-0.587858 -0.517295,-0.646425 0,-0.05857 0.541437,-0.434452 1.203193,-0.8353 0.661756,-0.400847 1.651023,-1.01957 2.198371,-1.374939 0.547349,-0.355368 1.05605,-0.646125 1.130447,-0.646125 0.0744,0 -0.333445,0.541437 -0.906318,1.203193 -0.572873,0.661756 -1.327085,1.57137 -1.676028,2.021364 -0.348943,0.449994 -0.697585,0.818171 -0.774759,0.818171 -0.07717,0 -0.3731,-0.242973 -0.657611,-0.539939 z M 34.041404,34.357353 c -0.06822,-0.443949 -0.170774,-1.110384 -0.227896,-1.480968 -0.09855,-0.639339 -0.06264,-0.611444 0.702402,0.545595 0.443443,0.67066 0.77745,1.237871 0.742237,1.260468 -0.03521,0.0226 -0.295476,0.140311 -0.578363,0.261586 -0.503044,0.215656 -0.517065,0.20277 -0.63838,-0.586681 z M 62.017015,34.155648 C 61.628627,34.034399 61.25634,33.88055 61.18971,33.813763 c -0.108802,-0.109059 0.815463,-2.264472 1.846596,-4.306318 l 0.388872,-0.770043 -0.08868,1.30554 c -0.07767,1.143504 -0.04193,1.275452 -0.132044,3.03687 -0.07437,1.453695 0.0074,1.448859 -1.187436,1.075836 z"
       id="path24"
       sodipodi:nodetypes="cssssscccsscsssscsssssssssssssscsssssssccsssssccsssssscccssscsssssssscsssssssssssssssssssssssssscsssssscsssssssscssssscsssssscssscssssssssssssssscsssssssssssssssscsssssssssssscsssssssscsssscccssssscssssscssssscsssscsssssssssscssccsssccssssssscsssscssssccsssscsssssssssssscssssssssssssscssssscssscsssssssscssssssssssssssssssssssssscssss" /></g></svg>
