<?xml version="1.0" encoding="UTF-8" standalone="no"?>
<!-- Created with Inkscape (http://www.inkscape.org/) -->

<svg
   width="100mm"
   height="100mm"
   viewBox="0 0 100 100"
   version="1.1"
   id="svg1"
   inkscape:version="1.4 (86a8ad7, 2024-10-11)"
   sodipodi:docname="bush4.svg"
   xml:space="preserve"
   xmlns:inkscape="http://www.inkscape.org/namespaces/inkscape"
   xmlns:sodipodi="http://sodipodi.sourceforge.net/DTD/sodipodi-0.dtd"
   xmlns="http://www.w3.org/2000/svg"
   xmlns:svg="http://www.w3.org/2000/svg"><sodipodi:namedview
     id="namedview1"
     pagecolor="#ffffff"
     bordercolor="#000000"
     borderopacity="0.25"
     inkscape:showpageshadow="2"
     inkscape:pageopacity="0.0"
     inkscape:pagecheckerboard="true"
     inkscape:deskcolor="#d1d1d1"
     inkscape:document-units="mm"
     inkscape:zoom="2.0334082"
     inkscape:cx="167.45285"
     inkscape:cy="229.41779"
     inkscape:window-width="1920"
     inkscape:window-height="1009"
     inkscape:window-x="1912"
     inkscape:window-y="-8"
     inkscape:window-maximized="1"
     inkscape:current-layer="layer1" /><defs
     id="defs1" /><g
     inkscape:label="Warstwa 1"
     inkscape:groupmode="layer"
     id="layer1"><path
       style="fill:#b7a26c;fill-opacity:1"
       d="M 45.932876,74.439416 C 45.884992,74.289375 45.789583,73.828729 45.720855,73.415759 45.40295,71.505531 44.201713,69.687566 42.566053,68.641247 40.667537,67.426781 39.625939,65.807962 38.588152,62.458915 38.464813,62.060886 35.862644,61.220058 35.353384,61.413679 34.415978,61.77008 33.597198,61.621861 33.074972,61.00123 32.80334,60.678414 32.5336,60.299575 32.47555,60.159366 c -0.142662,-0.344575 -0.538255,0.165336 -1.531086,1.973539 -0.784463,1.428709 -1.117446,1.840755 -0.800386,0.990428 0.0914,-0.245131 0.226583,-0.857223 0.300404,-1.360203 0.131974,-0.899201 0.124137,-0.916528 -0.468102,-1.034976 -0.897861,-0.179572 -1.393236,-1.123313 -1.394152,-2.656007 -8.46e-4,-1.414763 -0.08684,-1.465833 -1.431563,-0.850182 -1.724232,0.789399 -4.389054,1.782554 -4.108399,1.531162 0.159472,-0.142844 0.929964,-0.814985 1.712205,-1.493645 l 1.422256,-1.233928 -0.332784,-0.584898 c -0.183032,-0.321694 -0.476756,-0.585462 -0.652721,-0.58615 -0.175965,-6.89e-4 -0.554804,-0.186 -0.841865,-0.411801 -0.847121,-0.666346 -0.682928,-1.812415 0.430722,-3.006431 0.507375,-0.54399 0.507465,-0.544736 0.06583,-0.544736 -0.716469,0 -1.415136,-0.853397 -1.411623,-1.724246 0.0017,-0.413504 0.08195,-0.876459 0.178397,-1.028788 0.12372,-0.195398 0.0062,-0.419342 -0.399204,-0.76043 -0.753658,-0.634161 -0.777426,-1.563373 -0.06175,-2.41391 0.282052,-0.335201 0.633346,-0.609455 0.780652,-0.609455 0.710629,0 0.360403,-0.439716 -0.945082,-1.186568 l -1.437865,-0.822586 0.990429,0.122303 c 2.688243,0.331958 2.756486,0.330235 3.234003,-0.08165 0.427796,-0.368994 0.438914,-0.428713 0.155215,-0.833749 -0.228483,-0.326206 -0.276031,-0.719056 -0.188448,-1.557004 0.138021,-1.320512 0.08664,-1.43533 -1.647848,-3.682372 -0.706687,-0.91552 -1.236722,-1.664581 -1.177854,-1.664581 0.05887,0 0.802944,0.441823 1.653504,0.98183 0.85056,0.540006 1.878605,1.120603 2.284544,1.290215 l 0.738071,0.308386 0,-0.80446 c 0,-1.315302 1.150115,-2.128498 2.208931,-1.561836 0.220063,0.117774 0.42617,0.184628 0.458016,0.148564 0.03185,-0.03606 -0.06659,-0.778679 -0.218743,-1.650257 -0.152154,-0.871577 -0.251917,-1.716113 -0.221695,-1.876746 0.03022,-0.160633 0.448905,0.396483 0.930404,1.238036 0.820839,1.434641 0.917315,1.530096 1.546451,1.530096 0.369047,0 0.830761,0.0855 1.026029,0.190009 0.283162,0.151543 0.400333,0.09059 0.578801,-0.301106 0.299664,-0.657692 1.111057,-0.955738 1.875961,-0.689092 0.357407,0.124593 0.676377,0.134649 0.808549,0.02549 0.120055,-0.09915 0.556688,-0.24352 0.970295,-0.320816 0.72459,-0.135413 0.739568,-0.154287 0.410756,-0.51762 -0.261613,-0.289079 -0.286872,-0.431466 -0.108233,-0.610106 0.128162,-0.128162 0.233022,-0.405235 0.233022,-0.615717 0,-0.597954 0.776355,-1.705453 1.285012,-1.833118 0.327253,-0.08214 0.495487,-0.304887 0.583138,-0.772106 0.06776,-0.361167 0.25929,-0.769619 0.425633,-0.907672 0.29003,-0.240703 1.077994,-0.318117 1.635184,-0.160649 0.180307,0.05096 0.280586,-0.157363 0.315343,-0.655094 0.06805,-0.974589 0.584722,-1.715037 1.448563,-2.075973 0.886429,-0.370374 1.825475,-0.213289 2.403578,0.402074 0.369227,0.393024 0.577422,0.448732 1.386483,0.370992 0.855808,-0.08223 0.995264,-0.03649 1.379985,0.452598 0.235383,0.299241 0.427969,0.665762 0.427969,0.81449 0,0.377688 0.129289,0.34305 0.892553,-0.239119 0.929202,-0.708737 1.673172,-0.599778 2.126566,0.311448 0.31862,0.640361 0.431214,0.702955 1.47454,0.819738 1.031907,0.115505 1.161755,0.08553 1.501709,-0.34665 0.438048,-0.556888 1.233431,-0.620394 1.90232,-0.151886 0.439882,0.308106 0.482172,0.295373 1.037177,-0.31228 0.486877,-0.533062 0.672214,-0.612921 1.169164,-0.503773 0.573771,0.126022 0.609803,0.08843 1.266987,-1.321926 l 0.67642,-1.451638 -0.112907,1.37046 c -0.106664,1.294693 -0.09199,1.361366 0.265505,1.205978 1.907002,-0.828907 3.421849,0.412427 2.883341,2.36274 -0.107255,0.388446 -0.127834,0.706266 -0.04573,0.706266 0.0821,0 0.662491,-0.359505 1.289749,-0.798901 l 1.140469,-0.798901 -0.454339,0.650337 c -0.249886,0.357685 -0.72234,0.989174 -1.049897,1.403309 -0.506774,0.640722 -0.55987,0.810118 -0.356162,1.136305 0.131667,0.210833 0.239395,0.645046 0.239395,0.964916 0,0.489269 0.110289,0.617982 0.694821,0.810895 0.779146,0.257141 1.171373,0.811202 0.986533,1.393581 -0.08282,0.260959 -0.03143,0.388689 0.156411,0.388689 0.435846,0 0.935436,0.669531 0.935436,1.253633 0,0.575923 -0.614663,1.321482 -1.089472,1.321482 -0.411532,0 -0.371279,0.32202 0.09904,0.792343 0.425666,0.425666 0.549368,1.66471 0.188467,1.887759 -0.141822,0.08765 -0.13363,0.217623 0.02583,0.409757 0.138882,0.167344 0.190562,0.601753 0.12751,1.071837 -0.11879,0.885647 0.143782,1.047594 0.484846,0.29904 0.265366,-0.582416 0.753048,-0.773187 1.536607,-0.601089 0.541893,0.11902 0.592575,0.07091 0.975657,-0.926146 l 0.404071,-1.051687 0.01032,1.541382 c 0.0084,1.249176 0.07286,1.565378 0.340191,1.667964 0.394755,0.151481 0.697526,-0.199747 2.168916,-2.516046 1.196763,-1.883974 1.2079,-1.834589 0.346769,1.537641 -0.590984,2.314321 -0.589347,2.424074 0.03615,2.424074 0.290908,0 0.709791,0.221327 0.988934,0.522527 l 0.484261,0.522526 0.744316,-0.518124 c 0.409374,-0.284968 1.131367,-0.798093 1.604428,-1.140278 l 0.860112,-0.622153 -1.239591,1.803914 c -1.203056,1.750748 -1.229177,1.81542 -0.886274,2.194324 0.194324,0.214726 0.415451,0.683762 0.491393,1.042302 0.147589,0.696802 0.128266,0.691476 1.7177,0.473474 l 0.969749,-0.133009 -1.287557,0.762463 c -1.287389,0.762364 -1.287554,0.762579 -1.263154,1.641357 0.03769,1.357293 0.474031,2.364536 1.024332,2.364536 0.25112,0 0.713571,0.132895 1.02767,0.295321 0.632671,0.327167 0.796642,0.935101 0.561398,2.081419 -0.124449,0.606428 -0.06919,0.75971 0.442283,1.22687 0.911636,0.832651 0.653859,1.96021 -0.496323,2.170995 -0.272501,0.04994 -0.43483,0.305885 -0.546909,0.862315 -0.21579,1.071318 -0.759925,1.484596 -1.954669,1.484596 -0.870095,0 -0.993159,0.05755 -1.2707,0.594257 -0.184021,0.355857 -0.464195,0.594257 -0.698387,0.594257 -0.286423,0 -0.391085,0.134232 -0.391085,0.501577 0,0.819204 -0.536859,1.857794 -1.090774,2.110174 -0.42389,0.193137 -0.712262,0.169272 -1.599749,-0.132395 l -1.082646,-0.368002 -0.798396,0.448724 c -1.020076,0.573314 -1.552788,0.44178 -2.365227,-0.584007 l -0.632136,-0.798137 -0.862664,0.482152 c -0.876787,0.490046 -2.599022,1.027914 -5.18403,1.619017 -1.467511,0.335569 -2.567523,0.945656 -3.844534,2.132248 -0.58013,0.539053 -0.825609,1.016948 -1.249912,2.433302 -0.727834,2.429569 -1.29528,3.77421 -1.778542,4.214501 -0.572815,0.521882 -2.151475,0.729812 -2.545952,0.335335 -0.2685,-0.2685 -0.366956,-0.267225 -0.926685,0.01201 -0.383957,0.191543 -0.832217,0.263006 -1.158562,0.184702 -0.741775,-0.177984 -0.780205,-0.178194 -2.163051,-0.01184 -0.972053,0.116939 -1.253098,0.09051 -1.321645,-0.124282 z m 3.562846,-3.711752 c 0.260784,-1.150572 0.28458,-1.61131 0.112828,-2.184566 -0.299112,-0.998346 -1.306277,-1.888298 -2.605088,-2.301908 -1.717908,-0.547073 -2.168915,-0.891958 -3.171205,-2.425024 -0.911075,-1.393545 -1.481214,-2.895223 -1.992805,-5.248805 -0.136169,-0.626446 -0.355081,-1.138993 -0.486472,-1.138993 -0.172756,0 -0.134328,0.370162 0.138806,1.337079 0.428425,1.516657 0.490304,3.720236 0.14318,5.098791 -0.207753,0.825063 -0.190964,0.980206 0.157263,1.453223 0.214415,0.291253 1.229527,1.129571 2.255804,1.862929 1.026277,0.733358 2.150593,1.656021 2.498482,2.050363 0.586369,0.664666 1.66437,2.628625 1.94816,3.549261 0.115588,0.374976 0.136792,0.369677 0.396342,-0.09904 0.150821,-0.272368 0.422938,-1.151356 0.604705,-1.953307 z m 3.892869,-0.10519 c 0.791041,-1.249536 1.3309,-2.519439 1.335865,-3.142334 0.0035,-0.44177 0.246106,-0.71973 1.272595,-1.458169 l 1.268245,-0.912354 0.0055,-1.414496 c 0.0031,-0.777973 0.10088,-1.665241 0.217398,-1.971706 0.299905,-0.788809 0.275378,-0.868697 -0.31196,-1.016109 -0.43071,-0.108102 -0.640462,-0.0078 -1.180115,0.564337 -1.410052,1.49492 -1.674053,2.098535 -1.839562,4.205994 -0.08673,1.104367 -0.289479,2.214866 -0.466263,2.553839 -0.172041,0.329878 -0.44429,1.087556 -0.604998,1.683729 -0.160708,0.596173 -0.356472,1.239944 -0.435031,1.430601 -0.272899,0.662304 0.199829,0.327209 0.738278,-0.523332 z M 49.76113,64.920902 c -0.239169,-0.471164 -0.69669,-1.238897 -1.016713,-1.706074 -0.320023,-0.467177 -0.88979,-1.492271 -1.26615,-2.277986 -0.376359,-0.785716 -0.837718,-1.695989 -1.02524,-2.022831 -0.187523,-0.326841 -0.350873,-0.619036 -0.363,-0.649321 -0.01213,-0.03028 -0.234974,0.02638 -0.495214,0.125924 -0.653797,0.250079 -1.533682,2.767836 -1.213139,3.471351 0.495729,1.088007 1.554409,1.985589 3.341876,2.833348 0.995258,0.47203 1.927955,1.000894 2.07266,1.175253 0.445905,0.537283 0.424416,-0.04446 -0.03508,-0.949664 z m 2.484423,-0.609054 c 0.293143,-1.012756 0.283086,-1.114714 -0.384569,-3.899051 -0.377071,-1.572505 -0.818509,-2.992025 -0.980973,-3.154489 -0.261794,-0.261794 -0.338738,-0.194259 -0.676551,0.593828 -0.20964,0.489069 -0.661511,1.125113 -1.004158,1.413432 l -0.622994,0.524215 0.31347,0.750239 c 0.172408,0.412632 0.647355,1.151538 1.055438,1.642014 1.105955,1.329254 1.572795,2.044364 1.721565,2.637108 0.07353,0.29296 0.166103,0.532654 0.205723,0.532654 0.03962,0 0.207491,-0.467978 0.373049,-1.03995 z M 64.20725,62.964491 c 0.853419,-0.377508 0.870896,-0.403782 0.751021,-1.12902 -0.0675,-0.408384 -0.123712,-0.898509 -0.124911,-1.089167 -0.0014,-0.227961 -0.156536,-0.34665 -0.453,-0.34665 -0.336978,0 -0.549566,0.212588 -0.841864,0.841865 -0.337196,0.725935 -0.486516,0.850816 -1.084345,0.906872 -0.716721,0.0672 -1.274665,0.445183 -1.625897,1.101466 -0.193302,0.361189 -0.140462,0.372197 1.151321,0.23985 0.744657,-0.07629 1.74711,-0.31264 2.227675,-0.525216 z M 40.664718,60.622645 c 0,-1.423759 -0.378885,-2.826056 -0.927302,-3.43205 -0.498386,-0.55071 -0.657384,-0.430918 -0.657384,0.495284 0,0.468473 -0.100892,0.952661 -0.224204,1.075973 -0.166881,0.166881 -0.116399,0.392251 0.197447,0.881482 0.231908,0.361502 0.604387,1.036116 0.827731,1.499142 0.223343,0.463025 0.491047,0.841864 0.594896,0.841864 0.103849,0 0.188816,-0.612763 0.188816,-1.361695 z m 14.243034,-0.07443 c 0.609737,-0.571973 1.18306,-1.307366 1.274052,-1.634208 0.09099,-0.326841 0.305864,-0.750796 0.477493,-0.942122 0.395597,-0.440997 0.155912,-0.704733 -0.352125,-0.387458 -0.671977,0.419656 -1.951114,0.300061 -2.419915,-0.226255 -0.396994,-0.445698 -0.440161,-0.452281 -0.974188,-0.148564 -0.662032,0.376518 -0.685271,0.655879 -0.179376,2.156341 0.596417,1.768944 0.78634,2.222216 0.931121,2.222216 0.07388,0 0.633202,-0.467978 1.242938,-1.03995 z"
       id="path26" /><path
       style="fill:#735e40;fill-opacity:1"
       d="m 46.062555,74.53064 c -0.136184,-0.05495 -0.247607,-0.348692 -0.247607,-0.652757 0,-1.599842 -1.443315,-4.084808 -2.955819,-5.089053 -1.903723,-1.264002 -2.809983,-2.380021 -3.53361,-4.351488 -0.355244,-0.967836 -0.644945,-1.864212 -0.643779,-1.991947 0.0012,-0.127735 -0.332149,-0.342366 -0.740701,-0.476958 -0.408552,-0.134592 -1.041761,-0.369408 -1.407132,-0.521813 -0.63442,-0.264633 -0.649138,-0.293865 -0.327109,-0.649703 0.265311,-0.293166 0.441361,-0.333001 0.82577,-0.186849 0.268713,0.102165 0.527335,0.185754 0.574716,0.185754 0.229817,0 0.04018,-0.59927 -0.344321,-1.088083 -0.409152,-0.520152 -0.410738,-0.536693 -0.03203,-0.334012 0.482222,0.258077 1.254838,0.08996 1.254838,-0.273047 0,-0.144284 0.08812,-0.316795 0.195817,-0.383356 0.107699,-0.06656 0.150499,-0.0029 0.09511,0.141414 -0.05539,0.144339 0.166954,0.684492 0.494095,1.200339 0.32714,0.515847 0.650558,1.160058 0.718706,1.431581 0.06815,0.271523 0.24795,0.493678 0.39956,0.493678 0.38701,0 0.370409,-2.652913 -0.02359,-3.769624 -0.164584,-0.46648 -0.272114,-0.875276 -0.238956,-0.908433 0.03316,-0.03316 0.252892,-0.0099 0.488299,0.05164 0.720707,0.188469 1.139749,1.783846 1.137134,4.329289 -0.0014,1.33456 -0.095,2.342274 -0.241618,2.600422 -0.205063,0.361058 -0.16416,0.517983 0.28532,1.09465 0.288585,0.370244 1.244129,1.160827 2.123433,1.75685 0.879303,0.596023 1.963114,1.456098 2.408468,1.911278 0.828641,0.846923 2.062508,3.142677 2.062508,3.837539 0,0.855976 0.406578,0.299774 0.882768,-1.207635 1.014328,-3.210914 0.500808,-4.525933 -2.115124,-5.416405 -0.684044,-0.232851 -1.511131,-0.584192 -1.837973,-0.780759 -1.160165,-0.697738 -2.669197,-3.44524 -3.165103,-5.762718 -0.141535,-0.661427 -0.31445,-1.425441 -0.384255,-1.697809 -0.104234,-0.406708 -0.02323,-0.553475 0.453228,-0.821197 l 0.580144,-0.325984 0.206866,0.821198 c 0.113776,0.451659 0.258163,1.066329 0.32086,1.365933 0.151502,0.723975 0.347729,0.686859 0.703624,-0.133087 0.261059,-0.601453 0.334036,-0.648646 0.647697,-0.418854 0.332882,0.243871 0.334672,0.309371 0.03071,1.123516 -0.499204,1.337068 -0.545527,1.853825 -0.221647,2.472552 0.49578,0.947116 1.529838,1.779332 3.303952,2.659039 0.926051,0.459188 1.884291,1.017286 2.129422,1.240216 0.245131,0.22293 0.445693,0.348245 0.445693,0.278476 0,-0.293365 -0.742653,-1.719856 -1.565775,-3.007548 -0.485738,-0.759887 -1.052685,-1.82955 -1.259884,-2.377029 -0.207198,-0.547479 -0.525289,-1.173693 -0.706869,-1.391588 -0.326472,-0.391764 -0.325273,-0.392052 0.107735,-0.02589 0.287922,0.243473 0.639817,0.340642 1.027544,0.283735 0.495976,-0.07279 0.609184,-0.0088 0.71252,0.402952 0.133925,0.533602 1.118998,2.04189 1.737555,2.660447 0.213397,0.213396 0.644647,0.875898 0.958334,1.472226 0.549734,1.045063 0.577086,1.066489 0.757075,0.593082 0.398339,-1.047711 0.443359,-1.905231 0.154525,-2.943296 -0.161703,-0.581159 -0.348364,-1.324069 -0.414803,-1.650911 -0.06644,-0.326841 -0.243137,-1.091947 -0.392664,-1.700236 l -0.271866,-1.105978 h 0.568715 c 0.445328,0 0.567978,0.08953 0.565318,0.412678 -0.0051,0.622374 1.047587,3.681094 1.266911,3.681094 0.105267,0 0.704627,-0.446396 1.331911,-0.991991 1.036461,-0.901486 1.152033,-0.955703 1.266752,-0.594257 0.07351,0.231622 0.306802,0.402977 0.55858,0.410289 0.431383,0.01253 0.431421,0.01293 0.01723,0.180389 -0.554509,0.224194 -1.765789,1.660363 -2.258103,2.677348 -0.282422,0.583406 -0.397116,1.224075 -0.397116,2.218254 0,0.987836 -0.121569,1.672749 -0.41441,2.334766 -0.551499,1.246755 -1.219793,3.688704 -1.051822,3.84336 0.07363,0.06779 0.172686,0.01477 0.220127,-0.117829 0.04744,-0.132598 0.30948,-0.570023 0.582306,-0.972055 0.569383,-0.839033 1.258056,-2.494462 1.258056,-3.02411 0,-0.420314 0.592712,-1.054105 1.82176,-1.948022 l 0.878387,-0.638873 -0.07386,-1.143899 c -0.04309,-0.667415 0.04648,-1.5152 0.215028,-2.035285 0.18063,-0.557352 0.296224,-0.72875 0.30847,-0.457383 0.01077,0.238701 0.115013,0.49298 0.231647,0.565064 0.12973,0.08018 0.1619,0.427971 0.08286,0.895807 -0.210032,1.243165 0.04606,1.285121 1.197448,0.196183 0.704982,-0.666742 1.22855,-1.001585 1.566101,-1.001585 0.611189,0 0.660238,0.394243 0.1109,0.891386 -0.217894,0.197192 -0.396171,0.46231 -0.396171,0.589153 0,0.33608 2.679948,-0.01317 3.612492,-0.470783 0.649732,-0.318831 0.77,-0.327401 0.983552,-0.07009 0.133816,0.161239 0.424674,0.363779 0.646351,0.450089 0.349728,0.136165 0.276244,0.214107 -0.555449,0.589149 -0.527173,0.237722 -1.730544,0.613008 -2.674157,0.833968 -3.365625,0.788108 -3.641041,0.901655 -5.019704,2.069492 -1.277682,1.082299 -1.34094,1.179408 -1.839437,2.823775 -0.75559,2.492429 -1.491745,4.169549 -1.966286,4.479625 -0.54714,0.357514 -1.989581,0.434797 -2.361056,0.126501 -0.23337,-0.193681 -0.432362,-0.175923 -0.985739,0.08796 -0.540018,0.257516 -0.822614,0.285568 -1.277913,0.12685 -0.362434,-0.126345 -0.916126,-0.139765 -1.457092,-0.03531 -0.977217,0.188682 -1.352357,0.200615 -1.714386,0.05453 z M 30.239417,62.974769 c 0,0 0.143959,-1.213818 0.655438,-3.961715 0.134256,-0.817104 0.297254,-1.778397 0.362218,-2.136207 l 0.118115,-0.650563 1.029702,0.543946 c 0.566336,0.29917 1.065252,0.568049 1.108704,0.597509 0.108588,0.07362 -1.106605,2.352169 -1.794477,3.364734 -0.309381,0.455418 -0.562512,0.869728 -0.562512,0.920688 0,0.05096 -0.230194,0.480593 -0.511541,0.954739 -0.135679,0.306418 -0.474125,0.764195 -0.405647,0.366869 z m -6.386123,-4.868322 c 0.476037,-0.412629 1.311214,-1.170786 1.85595,-1.684793 2.221688,-2.096363 3.134183,-2.844415 3.208492,-2.630284 0.04307,0.124121 0.385302,0.657458 0.760508,1.185193 l 0.682193,0.959519 -0.665443,0.341392 c -0.365994,0.187766 -0.877681,0.38163 -1.137082,0.430808 -0.488913,0.09269 -3.267755,1.174331 -4.136225,1.609992 -1.236214,0.620135 -1.440408,0.544037 -0.568393,-0.211827 z m 23.225469,-3.946494 c 0.183104,-1.453192 0.745616,-3.664586 0.93216,-3.664586 0.08886,0 0.611837,0.09657 1.162183,0.214596 l 1.00063,0.214597 -0.595929,0.825354 c -0.327761,0.453944 -1.052209,1.404754 -1.609884,2.11291 l -1.013955,1.287558 z M 60.116065,51.9784 c -1.122526,-0.246252 -2.086984,-0.493759 -2.14324,-0.550015 -0.05626,-0.05626 0.08489,-0.469178 0.313662,-0.917605 0.339714,-0.665895 0.478385,-0.781465 0.75664,-0.630595 0.187382,0.1016 1.228665,0.727272 2.313963,1.390383 2.262503,1.382378 2.143432,1.450291 -1.241025,0.707832 z m 13.448113,-1.701737 c -0.133963,-0.447129 -0.288227,-0.929338 -0.342809,-1.071576 -0.05458,-0.142239 0.0632,-0.30942 0.261736,-0.371514 0.416071,-0.13013 5.688735,-0.900863 5.749207,-0.840392 0.02211,0.02211 -0.534941,0.341286 -1.237893,0.709279 -0.702952,0.367992 -1.19783,0.791604 -1.278094,0.83482 -0.567633,0.305622 -0.458174,0.248483 -1.61149,0.859044 -0.666489,0.352837 -1.20862,0.6933 -1.240012,0.6933 -0.03139,0 -0.166682,-0.365833 -0.300645,-0.812961 z m -3.462009,-0.800041 c -0.396918,-0.463711 -0.697889,-0.899859 -0.668822,-0.969219 0.120536,-0.287631 4.371727,-4.158688 4.464825,-4.065589 0.05577,0.05577 0.0011,0.222269 -0.121498,0.369991 -0.122598,0.147721 -0.65775,1.152684 -1.189226,2.233251 -0.531476,1.080567 -1.14571,2.259419 -1.364964,2.619672 L 70.82384,50.319732 Z M 57.502277,48.713171 c -0.254992,-0.544419 -0.426222,-1.026159 -0.380511,-1.070533 0.08053,-0.07818 1.542056,-0.763014 4.094349,-1.918519 0.680919,-0.308274 1.238036,-0.495852 1.238036,-0.41684 0,0.166982 -4.210521,4.395745 -4.376783,4.395745 -0.06131,0 -0.320099,-0.445434 -0.575091,-0.989853 z m 16.365475,-1.499923 c -0.666855,-1.054071 -0.65135,-1.083601 1.240309,-2.36228 0.721124,-0.487448 1.735348,-1.201091 2.25383,-1.585873 l 0.942696,-0.699603 -0.946745,1.340301 c -0.52071,0.737166 -1.256908,1.858984 -1.635996,2.49293 -1.083248,1.811508 -1.192884,1.859672 -1.854094,0.814525 z M 26.501587,45.128242 c -0.76263,-0.431309 -1.520308,-0.842152 -1.683729,-0.912982 -0.163421,-0.07083 -0.341698,-0.187285 -0.396171,-0.258787 -0.05447,-0.0715 -0.657749,-0.42554 -1.340612,-0.786752 -0.682863,-0.361211 -1.204666,-0.69365 -1.159561,-0.738755 0.0451,-0.0451 0.622471,0.016 1.283038,0.135781 0.660566,0.119783 1.883115,0.265434 2.716775,0.323668 1.996393,0.139455 3.165713,0.360112 3.111306,0.58712 -0.116036,0.484155 -0.958228,2.453883 -1.045403,2.445 -0.05447,-0.0056 -0.723013,-0.362983 -1.485643,-0.794293 z m 43.187479,-0.311446 c -0.433156,-0.150831 -0.85863,-0.345312 -0.945497,-0.432179 -0.146402,-0.146402 0.173279,-0.989673 1.325475,-3.496409 0.250383,-0.544736 0.503456,-1.124137 0.562386,-1.287557 0.151278,-0.419514 0.127448,3.691502 -0.02711,4.676528 l -0.127698,0.813856 z M 41.057298,42.358253 c -0.988417,-1.325235 -1.76459,-2.44205 -1.724828,-2.481812 0.101837,-0.101836 5.293963,3.311532 5.293963,3.480317 0,0.07615 -0.398703,0.424775 -0.886006,0.77473 l -0.886006,0.636282 z m 30.855447,1.358713 c -0.785642,-0.455376 -0.907369,-0.752589 -0.483443,-1.180402 0.229821,-0.231928 2.064906,-2.975801 2.692153,-4.025385 0.217233,-0.363501 0.225466,-0.3555 0.09983,0.09703 -0.07531,0.27126 -0.245859,0.984369 -0.378996,1.584686 -0.482781,2.176852 -0.968584,3.96363 -1.076453,3.959179 -0.06065,-0.0025 -0.444538,-0.198301 -0.85309,-0.435107 z M 29.376739,41.234858 c -0.680449,-1.498024 -1.277417,-2.766783 -1.326596,-2.819466 -0.04918,-0.05268 -0.384402,0.245557 -0.74494,0.662756 l -0.655524,0.758544 -0.308212,-0.440035 c -0.763991,-1.090752 -0.417477,-0.680761 -1.078568,-1.621407 -0.867244,-1.233976 -1.761103,-2.223439 -2.026398,-2.730572 -0.248785,-0.47557 -0.244167,-0.482434 0.116412,-0.173032 1.311674,0.990834 2.933151,1.7552 4.265515,2.550061 0.250825,0 1.262712,0.881989 3.656228,3.186869 l 1.603698,1.54431 -1.045739,0.902826 c -0.575157,0.496554 -1.084654,0.902825 -1.132218,0.902825 -0.04756,0 -0.643209,-1.225656 -1.323658,-2.723679 z m 14.772888,-2.052425 c -0.07666,-1.646333 -0.106572,-3.026148 -0.06647,-3.066255 0.07266,-0.07266 1.152588,2.468472 2.04906,4.821551 l 0.471664,1.238036 h -1.15743 -1.157436 z M 30.303105,34.698028 c -0.196944,-1.280129 -0.403934,-2.594923 -0.459978,-2.921765 -0.07544,-0.439975 0.09943,-0.15164 0.863902,0.988823 0.931103,1.389049 1.015807,1.500931 1.637347,2.522414 0.217487,0.356711 0.395764,0.711249 0.396172,0.787861 6.93e-4,0.130524 -1.68651,0.950177 -1.955878,0.950177 -0.06792,0 -0.284621,-1.047379 -0.481565,-2.327508 z m 31.671824,-0.50616 c -0.63479,-0.832253 -0.633928,-0.858324 0.03353,-1.01436 1.215789,-0.284224 2.740327,-0.785748 3.003499,-0.988055 0.744673,-0.572447 -0.0084,0.329638 -1.204735,1.443075 l -1.321086,1.229567 z m -2.773772,-0.517693 c -0.304652,-0.317989 -0.498846,-0.667261 -0.431542,-0.776161 0.13888,-0.224712 2.606508,-2.013136 2.77768,-2.013136 0.06139,0 -0.264145,0.757678 -0.723419,1.683728 -0.459274,0.926051 -0.88764,1.683729 -0.951925,1.683729 -0.06428,0 -0.366142,-0.260172 -0.670794,-0.57816 z m 3.556726,-1.990062 -0.562731,-0.587365 0.476149,-0.392857 c 0.261882,-0.216071 0.788135,-0.553442 1.16945,-0.749714 0.381315,-0.196271 1.220632,-0.746183 1.865149,-1.222026 l 1.171849,-0.865169 -0.732485,0.964212 c -0.402866,0.530317 -1.130575,1.521328 -1.617132,2.202248 -0.486556,0.68092 -0.957294,1.238036 -1.046083,1.238036 -0.08879,0 -0.414664,-0.264314 -0.724166,-0.587365 z M 60.275207,29.55324 c -0.16342,-0.06151 -0.494134,-0.184627 -0.734918,-0.273582 -0.437388,-0.161588 -0.437051,-0.163427 0.366394,-2.001938 1.227065,-2.807873 1.561431,-3.484917 1.446854,-2.929672 -0.09389,0.455002 -0.209988,2.436663 -0.264013,4.506451 -0.02188,0.838436 -0.150354,0.948672 -0.814317,0.698741 z"
       id="path25"
       sodipodi:nodetypes="sssscsssssssssssssssccssssssssssscssssssssssssssssssssscscssssssssssssscssssssssssssssssssssssscsscssssscsssscssssssscsscsssssssssssssssssssssscsssssssssscssssssssssscsssssscssssscsssssssssssscsssssscsssssscccssssssssssssccsssssssscssscssssssssss" /></g></svg>
