<?xml version="1.0" encoding="UTF-8" standalone="no"?>
<!-- Created with Inkscape (http://www.inkscape.org/) -->

<svg
   width="100mm"
   height="100mm"
   viewBox="0 0 100 100"
   version="1.1"
   id="svg1"
   inkscape:version="1.4 (86a8ad7, 2024-10-11)"
   sodipodi:docname="bush3.svg"
   xml:space="preserve"
   xmlns:inkscape="http://www.inkscape.org/namespaces/inkscape"
   xmlns:sodipodi="http://sodipodi.sourceforge.net/DTD/sodipodi-0.dtd"
   xmlns="http://www.w3.org/2000/svg"
   xmlns:svg="http://www.w3.org/2000/svg"><sodipodi:namedview
     id="namedview1"
     pagecolor="#ffffff"
     bordercolor="#000000"
     borderopacity="0.25"
     inkscape:showpageshadow="2"
     inkscape:pageopacity="0.0"
     inkscape:pagecheckerboard="true"
     inkscape:deskcolor="#d1d1d1"
     inkscape:document-units="mm"
     inkscape:zoom="1.4464538"
     inkscape:cx="122.71391"
     inkscape:cy="179.40428"
     inkscape:window-width="1920"
     inkscape:window-height="1009"
     inkscape:window-x="1912"
     inkscape:window-y="-8"
     inkscape:window-maximized="1"
     inkscape:current-layer="layer1" /><defs
     id="defs1" /><g
     inkscape:label="Warstwa 1"
     inkscape:groupmode="layer"
     id="layer1"><path
       style="fill:#9aa3a8;fill-opacity:1"
       d="m 40.173877,66.090835 c -2.20921,-1.852672 -3.273511,-2.319441 -8.42822,-3.696355 -0.978611,-0.261403 -2.067778,-0.532492 -2.420373,-0.602418 l -0.641081,-0.127139 0.612435,0.817991 c 1.037178,1.385292 1.57155,2.226125 1.475686,2.321988 -0.05042,0.05042 -1.769472,-0.656476 -3.820107,-1.570889 -2.050635,-0.914413 -4.553565,-2.021571 -5.562066,-2.460351 -1.008502,-0.43878 -1.803287,-0.828133 -1.766191,-0.86523 0.08358,-0.08358 10.519345,-1.193051 11.239246,-1.19489 0.28724,-7.34e-4 1.340767,0.369141 2.341173,0.821946 1.502164,0.67991 2.096107,0.84594 3.41063,0.9534 1.789255,0.146268 2.211844,0.29082 3.966435,1.356771 L 41.81727,62.59645 41.370159,61.585452 C 40.025611,58.54519 39.65442,57.996088 35.961508,53.584451 l -2.620372,-3.130356 -0.314491,0.740499 c -0.17297,0.407274 -0.463062,1.211822 -0.64465,1.787884 -0.181587,0.576062 -0.393949,1.047385 -0.471915,1.047385 -0.07796,0 -0.363245,-0.737469 -0.633954,-1.638821 -0.270709,-0.901351 -0.904724,-2.941373 -1.408921,-4.533382 -0.504198,-1.592008 -0.878769,-2.932515 -0.832381,-2.978904 0.09816,-0.09816 2.12958,0.731145 3.715625,1.516874 1.195724,0.592363 1.201338,0.597609 3.86108,3.607417 1.001335,1.133127 2.800148,2.972693 3.997362,4.087924 l 2.176753,2.027692 -0.355861,-0.997576 c -0.195723,-0.548668 -0.665496,-1.756117 -1.04394,-2.683221 -1.438539,-3.524103 -1.554941,-3.839523 -1.41693,-3.839523 0.435651,0 5.032475,5.755479 6.057088,7.58381 0.337506,0.60225 0.494341,0.770438 0.438108,0.469823 -0.04817,-0.257529 -0.137188,-1.732468 -0.197811,-3.277641 -0.08441,-2.151427 -0.292667,-3.784426 -0.889212,-6.972493 -0.428444,-2.289698 -0.825862,-4.116214 -0.88315,-4.058926 -0.05729,0.05729 -0.322606,0.699804 -0.589594,1.427812 -0.505735,1.379007 -0.637019,1.37121 -0.707566,-0.04202 -0.02314,-0.463552 -0.208908,-3.025293 -0.412818,-5.692757 -0.20391,-2.667464 -0.344133,-4.876547 -0.311607,-4.909074 0.03253,-0.03253 1.033343,1.185282 2.224037,2.70624 2.454748,3.135622 2.861149,4.040678 3.503347,7.801944 0.19347,1.133128 0.738778,3.203565 1.211796,4.600972 0.670808,1.981724 0.907056,3.011937 1.073753,4.682344 0.117546,1.177883 0.274262,2.689439 0.348258,3.359014 l 0.134537,1.21741 0.22431,-0.842822 c 1.107385,-4.160903 3.020541,-9.435102 3.315488,-9.140155 0.04539,0.04539 -0.03623,1.340889 -0.181379,2.878878 -0.145153,1.537988 -0.309839,3.597023 -0.365969,4.575633 l -0.102055,1.779291 0.709775,-1.966585 c 1.139747,-3.157912 5.38864,-11.819482 6.169768,-12.577363 0.464483,-0.450661 3.62754,-2.625083 3.705383,-2.547241 0.09076,0.09076 -1.762779,7.609845 -1.964985,7.971168 -0.127448,0.227737 -0.261537,0.09597 -0.619891,-0.609153 l -0.457265,-0.89975 -0.437071,1.193999 c -0.240389,0.656699 -0.80244,2.102428 -1.249001,3.21273 -0.446562,1.110303 -0.811931,2.059784 -0.811931,2.109958 0,0.05017 1.353667,-0.942537 3.008148,-2.206025 5.006234,-3.823144 4.861514,-3.738389 7.374755,-4.318958 1.221959,-0.282276 2.246097,-0.488876 2.275863,-0.45911 0.02977,0.02977 -0.26392,0.768691 -0.652636,1.642056 -0.388715,0.873364 -1.06932,2.676223 -1.512454,4.006352 -0.913349,2.741546 -0.880251,2.738501 -1.705253,0.156872 -0.238663,-0.746833 -0.508067,-1.357879 -0.598676,-1.357879 -0.145144,0 -1.275856,1.057494 -5.216183,4.878417 -0.57929,0.561735 -1.688181,2.002542 -2.464204,3.201794 l -1.41095,2.180457 1.379456,-0.637347 c 2.189184,-1.011465 7.950355,-2.523823 7.950355,-2.087037 0,0.04823 -0.990316,0.651885 -2.200702,1.34145 -2.534514,1.443931 -5.614553,3.582542 -4.916462,3.413724 0.257529,-0.06228 1.411763,-0.326275 2.564964,-0.58666 l 2.096729,-0.473428 3.536589,0.26483 c 2.20057,0.164785 3.849502,0.204425 4.364906,0.104932 0.455575,-0.08794 1.468789,-0.163569 2.251587,-0.168055 1.245535,-0.0071 1.863541,0.134824 4.94892,1.136819 2.207332,0.716844 3.425973,1.197707 3.259076,1.285996 -0.146616,0.07756 -0.898692,0.284045 -1.671279,0.458853 -0.772587,0.174808 -2.929708,0.691778 -4.793604,1.148823 -1.863895,0.457044 -3.504759,0.83099 -3.646366,0.83099 -0.141606,0 0.238923,-0.501623 0.845621,-1.114717 l 1.103085,-1.114717 -3.356474,0.09915 c -6.035471,0.178297 -6.814259,0.283193 -9.443522,1.271964 -1.287645,0.484236 -2.619907,1.044019 -2.960583,1.24396 -0.589978,0.346257 -1.030519,0.36285 -9.271043,0.349203 l -8.651632,-0.01433 z"
       id="path16" /><path
       style="fill:#506067;fill-opacity:1"
       d="m 40.923052,66.553108 c -0.870083,-0.759342 -2.356075,-1.856224 -3.255407,-2.402971 -0.752985,-0.457776 -1.475427,-0.685102 -5.722921,-1.800788 -3.199789,-0.840486 -3.483599,-1.002003 -1.773562,-1.009334 0.811503,-0.0035 1.738093,-0.146595 2.380844,-0.367734 1.578766,-0.543175 2.542154,-0.63191 4.174391,-0.38449 1.546029,0.234352 2.657677,0.595252 3.44748,1.119236 0.257529,0.170854 0.784982,0.501319 1.172119,0.734366 l 0.703883,0.423722 -0.201694,-0.53128 c -0.110932,-0.292204 -0.680526,-1.453298 -1.265765,-2.580208 -0.860771,-1.657462 -1.620904,-2.714508 -3.978528,-5.532565 -1.602952,-1.916 -2.974066,-3.580084 -3.04692,-3.697964 -0.170357,-0.275643 2.249844,1.052087 3.100644,1.701024 0.704714,0.537511 1.087953,0.604616 1.670986,0.292586 0.285494,-0.152792 0.430999,-0.139999 0.596392,0.05244 0.120322,0.139994 1.089038,1.094831 2.152701,2.12186 2.286763,2.208 2.277884,2.288199 0.286511,-2.587969 -1.548152,-3.790877 -1.521242,-3.813175 0.952095,-0.788933 2.262312,2.766214 3.634215,4.727821 3.879799,5.547506 0.263766,0.880373 0.616729,0.969216 0.46932,0.118131 -0.05798,-0.334788 -0.1585,-1.788656 -0.223367,-3.230818 -0.06487,-1.442162 -0.239419,-3.380652 -0.387894,-4.307757 -0.319453,-1.994717 -1.146121,-6.299357 -1.375779,-7.16398 -0.160357,-0.603719 -0.07509,-1.359934 0.152863,-1.355664 0.06524,0.0012 0.406812,0.527986 0.759039,1.170586 0.352227,0.6426 1.122519,1.674057 1.711759,2.292127 1.000358,1.049301 1.128224,1.2913 1.929749,3.652228 0.758085,2.232977 0.903134,2.933396 1.241165,5.993401 0.21052,1.905714 0.404735,3.591358 0.43159,3.745875 0.02685,0.154518 0.245221,-0.477599 0.48526,-1.404703 0.953774,-3.683777 3.391612,-10.298131 2.962611,-8.038171 -0.161392,0.850207 -0.557266,7.585577 -0.477951,8.131818 0.0483,0.332624 0.249508,-0.07421 0.69474,-1.404703 0.344714,-1.030116 0.71259,-2.041503 0.817504,-2.247526 0.104914,-0.206023 1.179172,-1.385974 2.38724,-2.622112 1.487907,-1.52248 2.395295,-2.625154 2.812756,-3.418112 0.338946,-0.643822 0.688806,-1.170586 0.777466,-1.170586 0.210714,0 0.208057,0.32352 -0.0037,0.454413 -0.09071,0.05606 -0.209483,0.292813 -0.263935,0.526112 -0.05445,0.233298 -0.611419,1.724461 -1.237702,3.313695 -0.626283,1.589235 -1.100862,2.927353 -1.054619,2.973595 0.04624,0.04624 0.487792,-0.251398 0.981221,-0.661423 1.173798,-0.975394 1.404247,-1.08148 2.957375,-1.361413 0.721081,-0.129966 1.972132,-0.442309 2.780113,-0.694095 0.807981,-0.251786 1.502449,-0.4244 1.543262,-0.383587 0.04081,0.04081 -1.277898,1.332275 -2.930471,2.869916 -2.554071,2.376443 -3.209374,3.105176 -4.369617,4.859256 -1.405731,2.125214 -1.869293,2.899739 -1.735526,2.899739 0.04231,0 0.572041,-0.221141 1.177176,-0.491424 1.768646,-0.789965 4.076226,-1.524709 5.807391,-1.849101 0.885281,-0.165886 1.646352,-0.264861 1.69127,-0.219944 0.04492,0.04492 -0.575671,0.44173 -1.379084,0.881807 -2.755481,1.509339 -6.753485,4.366959 -5.393921,3.855368 0.206023,-0.07753 1.417247,-0.362039 2.691608,-0.632255 2.295145,-0.486662 2.346331,-0.489087 5.421735,-0.256863 1.707593,0.128941 3.17233,0.276226 3.25497,0.3273 0.08264,0.05107 0.150256,0.237976 0.150256,0.415335 0,0.33624 0.342524,0.514583 2.434819,1.26775 l 1.217409,0.438232 -1.591997,0.02128 c -0.875598,0.01171 -3.2355,0.08538 -5.244226,0.163722 -3.070146,0.119738 -3.801481,0.204916 -4.588698,0.534445 -0.515058,0.215603 -1.73715,0.705786 -2.71576,1.089296 -0.97861,0.38351 -1.945538,0.809866 -2.148729,0.947458 -0.295074,0.199811 -2.066992,0.248635 -8.802808,0.242555 l -8.43337,-0.0076 z"
       id="path15" /></g></svg>
