<?xml version="1.0" encoding="UTF-8" standalone="no"?>
<!-- Created with Inkscape (http://www.inkscape.org/) -->

<svg
   width="100mm"
   height="100mm"
   viewBox="0 0 100 100"
   version="1.1"
   id="svg1"
   inkscape:version="1.4 (86a8ad7, 2024-10-11)"
   sodipodi:docname="decor4.svg"
   xml:space="preserve"
   xmlns:inkscape="http://www.inkscape.org/namespaces/inkscape"
   xmlns:sodipodi="http://sodipodi.sourceforge.net/DTD/sodipodi-0.dtd"
   xmlns="http://www.w3.org/2000/svg"
   xmlns:svg="http://www.w3.org/2000/svg"><sodipodi:namedview
     id="namedview1"
     pagecolor="#ffffff"
     bordercolor="#000000"
     borderopacity="0.25"
     inkscape:showpageshadow="2"
     inkscape:pageopacity="0.0"
     inkscape:pagecheckerboard="true"
     inkscape:deskcolor="#d1d1d1"
     inkscape:document-units="mm"
     inkscape:zoom="1.4378367"
     inkscape:cx="168.65615"
     inkscape:cy="119.27641"
     inkscape:window-width="1920"
     inkscape:window-height="1009"
     inkscape:window-x="1912"
     inkscape:window-y="-8"
     inkscape:window-maximized="1"
     inkscape:current-layer="layer1" /><defs
     id="defs1" /><g
     inkscape:label="Warstwa 1"
     inkscape:groupmode="layer"
     id="layer1"><path
       style="fill:#4e5347;fill-opacity:1;stroke:none;stroke-width:1"
       d="m 58.357996,22.770677 c -0.212365,-1.486554 -1.339024,-4.479305 2.737106,-5.545015 1.430833,-0.374094 2.10909,-2.222086 4.490428,-1.716006 1.48693,0.316002 5.169186,2.214022 4.157806,6.805608 -6.020462,-1.785275 -9.975766,0.30762 -11.38534,0.455413 z"
       id="path2"
       sodipodi:nodetypes="csscc" /><path
       style="fill:#4e5347;fill-opacity:1;stroke:none;stroke-width:1"
       d="m 26.138801,52.143213 c -1.188251,-0.608256 1.400143,-3.964373 3.310334,-4.363747 1.774651,-0.371037 2.151921,0.567616 4.86514,0.606621 9.716689,0.139684 7.588845,4.236362 6.831295,4.655436 -2.792365,-1.763808 -12.946249,-1.859886 -15.006769,-0.89831 z"
       id="path2-4"
       sodipodi:nodetypes="csscc" /><path
       style="fill:#4e5347;fill-opacity:1;stroke:none;stroke-width:1"
       d="m 60.179002,80.540489 c -0.537354,-3.236715 -1.169473,-5.464261 2.135793,-6.896986 2.894701,-1.254758 3.088571,0.803923 3.899774,1.283166 2.333567,1.378626 2.257445,4.537374 1.978637,5.661061 -2.792365,-1.763808 -5.953684,-1.008817 -8.014204,-0.04724 z"
       id="path2-4-7"
       sodipodi:nodetypes="csscc" /></g></svg>
