<?xml version="1.0" encoding="UTF-8" standalone="no"?>
<!-- Created with Inkscape (http://www.inkscape.org/) -->

<svg
   width="100mm"
   height="100mm"
   viewBox="0 0 100 100"
   version="1.1"
   id="svg1"
   inkscape:version="1.4 (86a8ad7, 2024-10-11)"
   sodipodi:docname="decor2.svg"
   xml:space="preserve"
   xmlns:inkscape="http://www.inkscape.org/namespaces/inkscape"
   xmlns:sodipodi="http://sodipodi.sourceforge.net/DTD/sodipodi-0.dtd"
   xmlns="http://www.w3.org/2000/svg"
   xmlns:svg="http://www.w3.org/2000/svg"><sodipodi:namedview
     id="namedview1"
     pagecolor="#ffffff"
     bordercolor="#000000"
     borderopacity="0.25"
     inkscape:showpageshadow="2"
     inkscape:pageopacity="0.0"
     inkscape:pagecheckerboard="true"
     inkscape:deskcolor="#d1d1d1"
     inkscape:document-units="mm"
     inkscape:zoom="1.4378367"
     inkscape:cx="168.65615"
     inkscape:cy="103.97565"
     inkscape:window-width="1920"
     inkscape:window-height="1009"
     inkscape:window-x="1912"
     inkscape:window-y="-8"
     inkscape:window-maximized="1"
     inkscape:current-layer="layer1" /><defs
     id="defs1" /><g
     inkscape:label="Warstwa 1"
     inkscape:groupmode="layer"
     id="layer1"><path
       style="fill:#4e5347;fill-opacity:1;stroke:none;stroke-width:1"
       d="m 23.941742,43.264288 c -0.212365,-1.486554 0.998479,-6.090789 5.074609,-7.156499 1.430833,-0.374094 3.116397,-2.462854 5.464961,-1.821653 0.789317,0.215498 1.781414,3.224226 3.877512,3.694099 2.518912,0.564652 3.084719,5.120204 1.847689,5.804526 -6.020462,-1.785275 -14.855197,-0.668266 -16.264771,-0.520473 z"
       id="path2"
       sodipodi:nodetypes="cssscc" /><path
       style="fill:#4e5347;fill-opacity:1;stroke:none;stroke-width:1"
       d="m 57.237041,63.853848 c -1.188251,-0.608256 -1.397398,-3.151134 0.512793,-3.550508 1.774651,-0.371037 3.160337,0.892911 5.873556,0.931916 1.67088,0.02402 2.941986,-2.006804 5.396889,-1.507078 1.829996,0.372518 2.785403,2.886835 0.686227,4.048094 -6.837252,-2.027481 -10.481473,0.01645 -12.469465,0.07758 z"
       id="path2-4"
       sodipodi:nodetypes="csssccc" /></g></svg>
