<?xml version="1.0" encoding="UTF-8" standalone="no"?>
<!-- Created with Inkscape (http://www.inkscape.org/) -->

<svg
   width="100mm"
   height="100mm"
   viewBox="0 0 100 100"
   version="1.1"
   id="svg1"
   inkscape:version="1.4 (86a8ad7, 2024-10-11)"
   sodipodi:docname="decor3.svg"
   xml:space="preserve"
   xmlns:inkscape="http://www.inkscape.org/namespaces/inkscape"
   xmlns:sodipodi="http://sodipodi.sourceforge.net/DTD/sodipodi-0.dtd"
   xmlns="http://www.w3.org/2000/svg"
   xmlns:svg="http://www.w3.org/2000/svg"><sodipodi:namedview
     id="namedview1"
     pagecolor="#ffffff"
     bordercolor="#000000"
     borderopacity="0.25"
     inkscape:showpageshadow="2"
     inkscape:pageopacity="0.0"
     inkscape:pagecheckerboard="true"
     inkscape:deskcolor="#d1d1d1"
     inkscape:document-units="mm"
     inkscape:zoom="1.4378367"
     inkscape:cx="222.20882"
     inkscape:cy="119.9719"
     inkscape:window-width="1920"
     inkscape:window-height="1009"
     inkscape:window-x="1912"
     inkscape:window-y="-8"
     inkscape:window-maximized="1"
     inkscape:current-layer="layer1" /><defs
     id="defs1" /><g
     inkscape:label="Warstwa 1"
     inkscape:groupmode="layer"
     id="layer1"><path
       style="fill:#4e5347;fill-opacity:1;stroke:none;stroke-width:1"
       d="m 39.946276,28.300699 c -0.212365,-1.486554 -0.888234,-6.090789 3.187896,-7.156499 1.430833,-0.374094 6.006895,-0.224747 8.392619,0.260238 1.700145,0.345616 2.366946,2.638694 3.422099,3.108567 2.358174,1.050125 2.499187,3.623845 1.262157,4.308167 C 50.190585,27.035897 41.35585,28.152906 39.946276,28.300699 Z"
       id="path2"
       sodipodi:nodetypes="cssscc" /><path
       style="fill:#4e5347;fill-opacity:1;stroke:none;stroke-width:1"
       d="m 60.88035,56.567231 c -1.188251,-0.608256 -1.657634,-4.224609 0.252557,-4.623983 1.774651,-0.371037 6.185584,-3.531106 8.898803,-3.492101 9.716689,0.139684 6.612959,8.59532 5.855409,9.014394 C 73.094754,55.701733 62.94087,55.605655 60.88035,56.567231 Z"
       id="path2-4"
       sodipodi:nodetypes="csscc" /><path
       style="fill:#4e5347;fill-opacity:1;stroke:none;stroke-width:1"
       d="m 27.32585,75.48956 c -1.188251,-0.608256 -1.381612,-3.189525 0.528579,-3.588899 1.774651,-0.371037 1.654218,-1.736961 4.367437,-1.697956 3.154624,0.04535 4.19266,1.079945 6.153956,1.053147 2.710124,-0.03703 2.901497,2.743229 2.622689,3.866916 C 38.206146,73.35896 29.38637,74.527984 27.32585,75.48956 Z"
       id="path2-4-7"
       sodipodi:nodetypes="cssscc" /></g></svg>
