<?xml version="1.0" encoding="UTF-8" standalone="no"?>
<!-- Created with Inkscape (http://www.inkscape.org/) -->

<svg
   width="100mm"
   height="100mm"
   viewBox="0 0 100 100"
   version="1.1"
   id="svg1"
   inkscape:version="1.4 (86a8ad7, 2024-10-11)"
   sodipodi:docname="boulder4.svg"
   xml:space="preserve"
   xmlns:inkscape="http://www.inkscape.org/namespaces/inkscape"
   xmlns:sodipodi="http://sodipodi.sourceforge.net/DTD/sodipodi-0.dtd"
   xmlns="http://www.w3.org/2000/svg"
   xmlns:svg="http://www.w3.org/2000/svg"><sodipodi:namedview
     id="namedview1"
     pagecolor="#ffffff"
     bordercolor="#000000"
     borderopacity="0.25"
     inkscape:showpageshadow="2"
     inkscape:pageopacity="0.0"
     inkscape:pagecheckerboard="true"
     inkscape:deskcolor="#d1d1d1"
     inkscape:document-units="mm"
     inkscape:zoom="2.0334082"
     inkscape:cx="218.10673"
     inkscape:cy="187.61605"
     inkscape:window-width="1920"
     inkscape:window-height="1009"
     inkscape:window-x="1912"
     inkscape:window-y="-8"
     inkscape:window-maximized="1"
     inkscape:current-layer="layer1" /><defs
     id="defs1" /><g
     inkscape:label="Warstwa 1"
     inkscape:groupmode="layer"
     id="layer1"><path
       style="fill:#cbb399;fill-opacity:1;stroke-width:0.980646"
       d="m 24.576795,67.104988 c 0,0 11.244261,1.889933 22.947507,3.194643 3.325325,0.370717 19.352494,2.523151 22.34512,2.433381 2.992624,-0.08977 7.585566,-4.456741 7.585566,-4.456741 l 0.906857,-13.479616 c 0,0 -0.910433,-3.790901 -5.90629,-3.579442 -3.032271,0.128343 -5.744175,-1.346347 -8.359483,-1.3933 -2.872348,-0.05157 -5.605018,1.321072 -7.972237,1.415047 -5.527612,0.219436 -9.194598,-1.893385 -14.024673,-2.040242 -4.571184,-0.138993 -6.711251,-0.256549 -13.043688,0.209569 -6.069999,0.446803 -6.022783,3.678469 -6.022783,3.678469 z"
       id="path27-5"
       sodipodi:nodetypes="cssccssssscc" /><path
       style="fill:#7b6653;fill-opacity:1;stroke-width:0.980646"
       d="m 24.576795,67.104988 c 0,0 4.486487,3.647717 12.813649,4.318471 6.777303,0.545914 13.946478,2.524461 19.197671,3.109879 3.325326,0.370716 10.288681,-1.710556 13.281307,-1.800326 2.992624,-0.08977 7.585566,-4.456741 7.585566,-4.456741 l 0.906857,-13.479616 c 0,0 -3.483555,4.847559 -8.471267,5.116866 -4.987708,0.269308 -6.971304,1.06752 -12.503133,1.247058 -5.53182,0.179539 -10.586781,-2.311081 -15.030378,-3.029237 -4.443596,-0.718156 -4.81884,-1.723111 -10.894778,-2.08219 -6.075938,-0.359078 -8.429598,-2.962396 -8.429598,-2.962396 z"
       id="path26-9"
       sodipodi:nodetypes="csssccsssscc" /><path
       style="fill:#cbb399;fill-opacity:1;stroke-width:0.594804"
       d="m 29.269701,51.130802 c 0,0 6.07771,2.268621 13.762582,2.999604 2.183557,0.207699 12.707709,1.41363 14.672801,1.363335 1.965089,-0.05029 5.13464,-3.649103 5.13464,-3.649103 l 0.441862,-6.399992 c 0,0 -0.59783,-2.123906 -3.878333,-2.005433 -1.991124,0.0719 -2.3893,-0.600689 -4.106628,-0.626995 -1.886111,-0.02889 -4.986275,1.892299 -6.540695,1.94495 -3.629676,0.122942 -6.037582,-0.753553 -9.209224,-0.835833 -3.001643,-0.07787 -4.483717,-1.756747 -8.641877,-1.495599 -3.985831,0.250327 -3.954827,2.060913 -3.954827,2.060913 z"
       id="path27"
       sodipodi:nodetypes="cssccssssscc" /><path
       style="fill:#7b6653;fill-opacity:1;stroke-width:0.594804"
       d="m 29.269701,51.130802 c 0,0 1.640256,3.253444 7.10824,3.629243 4.45028,0.305857 9.157879,1.414365 12.606046,1.742353 2.183556,0.2077 6.756005,-0.958362 8.721097,-1.008657 1.965089,-0.05029 5.13464,-3.649103 5.13464,-3.649103 l 0.441862,-6.399992 c 0,0 -2.287458,2.715912 -5.562611,2.866795 -3.275151,0.150884 -4.577668,1.980674 -8.210113,2.081263 -3.632439,0.100589 -7.182181,-1.064385 -10.100045,-1.466741 -2.917863,-0.402357 -3.19407,-1.407346 -7.053683,-2.194056 -3.914314,-0.797861 -5.405132,-2.245256 -5.405132,-2.245256 z"
       id="path28"
       sodipodi:nodetypes="csssccsssscc" /><path
       style="fill:#cbb399;fill-opacity:1;stroke-width:0.399452"
       d="m 41.45851,44.987878 c 0,0 6.96226,0.922086 10.453217,1.64783 0.99191,0.206209 2.81349,-0.203277 3.706159,-0.253211 0.89267,-0.04993 3.422784,-1.144947 3.422784,-1.144947 l 0.270506,-5.307992 c 0,0 -1.480093,-2.140863 -2.967877,-1.99106 -1.487782,0.149802 -3.249282,0.809584 -4.899369,0.909452 -1.650086,0.09988 -2.71487,-0.721574 -4.155633,-0.803273 -1.363536,-0.07731 -2.139908,-0.497592 -4.028808,-0.238303 -1.810619,0.248531 -2.26157,1.573924 -2.26157,1.573924 z"
       id="path27-0"
       sodipodi:nodetypes="cssccsssscc" /><path
       style="fill:#7b6653;fill-opacity:1;stroke-width:0.399452"
       d="m 41.45851,44.987878 c 0,0 2.075329,1.079204 4.559236,1.452308 2.0216,0.303664 4.327604,-0.130118 5.893981,0.195522 0.99191,0.206209 3.420371,0.09389 4.313041,0.04397 0.892669,-0.04993 2.815902,-1.442118 2.815902,-1.442118 l 0.270506,-5.307992 c 0,0 -1.515504,1.928347 -3.003288,2.078148 -1.487783,0.149803 -3.272451,-0.130713 -4.922538,-0.03085 -1.650086,0.09988 -3.029667,0.499342 -4.355146,0.09988 -1.32548,-0.399475 -1.839441,-0.848883 -3.651831,-1.04862 -1.812391,-0.199737 -2.380454,-1.647829 -2.380454,-1.647829 z"
       id="path26"
       sodipodi:nodetypes="csssccsssscc" /></g></svg>
