<?xml version="1.0" encoding="UTF-8" standalone="no"?>
<!-- Created with Inkscape (http://www.inkscape.org/) -->

<svg
   width="100mm"
   height="100mm"
   viewBox="0 0 100 100"
   version="1.1"
   id="svg1"
   inkscape:version="1.4 (86a8ad7, 2024-10-11)"
   sodipodi:docname="boulder1.svg"
   xml:space="preserve"
   xmlns:inkscape="http://www.inkscape.org/namespaces/inkscape"
   xmlns:sodipodi="http://sodipodi.sourceforge.net/DTD/sodipodi-0.dtd"
   xmlns="http://www.w3.org/2000/svg"
   xmlns:svg="http://www.w3.org/2000/svg"><sodipodi:namedview
     id="namedview1"
     pagecolor="#ffffff"
     bordercolor="#000000"
     borderopacity="0.25"
     inkscape:showpageshadow="2"
     inkscape:pageopacity="0.0"
     inkscape:pagecheckerboard="true"
     inkscape:deskcolor="#d1d1d1"
     inkscape:document-units="mm"
     inkscape:zoom="2.0334082"
     inkscape:cx="147.78145"
     inkscape:cy="156.63358"
     inkscape:window-width="1920"
     inkscape:window-height="1009"
     inkscape:window-x="1912"
     inkscape:window-y="-8"
     inkscape:window-maximized="1"
     inkscape:current-layer="layer1" /><defs
     id="defs1" /><g
     inkscape:label="Warstwa 1"
     inkscape:groupmode="layer"
     id="layer1"><path
       style="fill:#cbb399;fill-opacity:1;stroke-width:1"
       d="m 20.43602,63.782354 26.682156,5.42844 c 0,0 16.193309,-2.484202 19.229554,-2.576208 3.036244,-0.09201 14.445167,-4.600372 14.445167,-4.600372 l 0.920073,-4.968401 c 0,0 -5.034253,-3.944693 -10.094663,-3.668671 -5.060408,0.276021 -12.096828,-2.046488 -17.709284,-1.862473 -5.612452,0.184015 -8.483176,-0.901581 -12.991541,-1.637639 -4.508365,-0.73606 -6.907097,1.168355 -13.331831,1.646093 -6.158472,0.457939 -8.161713,4.510609 -8.161713,4.510609 z"
       id="path27"
       sodipodi:nodetypes="ccsccsssscc" /><path
       style="fill:#7b6653;fill-opacity:1;stroke-width:1"
       d="m 20.43602,63.782354 26.682156,5.42844 c 0,0 16.193309,-2.484202 19.229554,-2.576208 3.036244,-0.09201 14.445167,-4.600372 14.445167,-4.600372 l 0.920073,-4.968401 c 0,0 -7.636616,4.968401 -12.697026,5.244423 -5.060408,0.276021 -8.648697,-1.656133 -14.261153,-1.472118 -5.612452,0.184015 -10.30483,0.920073 -14.813195,0.184015 -4.508365,-0.73606 -6.256506,-1.564127 -12.421004,-1.932157 -6.164498,-0.36803 -8.096654,-3.036244 -8.096654,-3.036244 z"
       id="path26" /></g></svg>
