<?xml version="1.0" encoding="UTF-8" standalone="no"?>
<!-- Created with Inkscape (http://www.inkscape.org/) -->

<svg
   width="100mm"
   height="100mm"
   viewBox="0 0 100 100"
   version="1.1"
   id="svg1"
   inkscape:version="1.4 (86a8ad7, 2024-10-11)"
   sodipodi:docname="boulder2.svg"
   xml:space="preserve"
   xmlns:inkscape="http://www.inkscape.org/namespaces/inkscape"
   xmlns:sodipodi="http://sodipodi.sourceforge.net/DTD/sodipodi-0.dtd"
   xmlns="http://www.w3.org/2000/svg"
   xmlns:svg="http://www.w3.org/2000/svg"><sodipodi:namedview
     id="namedview1"
     pagecolor="#ffffff"
     bordercolor="#000000"
     borderopacity="0.25"
     inkscape:showpageshadow="2"
     inkscape:pageopacity="0.0"
     inkscape:pagecheckerboard="true"
     inkscape:deskcolor="#d1d1d1"
     inkscape:document-units="mm"
     inkscape:zoom="2.8756734"
     inkscape:cx="137.18526"
     inkscape:cy="177.17589"
     inkscape:window-width="1920"
     inkscape:window-height="1009"
     inkscape:window-x="1912"
     inkscape:window-y="-8"
     inkscape:window-maximized="1"
     inkscape:current-layer="layer1" /><defs
     id="defs1" /><g
     inkscape:label="Warstwa 1"
     inkscape:groupmode="layer"
     id="layer1"><path
       style="fill:#cbb399;fill-opacity:1;stroke-width:0.814666"
       d="m 41.412691,61.574176 c 0,0 15.716475,1.699012 23.596899,3.036246 2.239121,0.379958 6.247271,2.08364 8.262367,1.991634 2.015095,-0.09201 7.830379,-4.567842 7.830379,-4.567842 l 0.610634,-4.968401 c 0,0 -3.341135,-3.944693 -6.69963,-3.668671 -3.358493,0.276021 -8.028427,-2.046488 -11.753304,-1.862473 -3.724874,0.184015 -5.43494,-0.05581 -8.68729,-0.206339 -3.078024,-0.142458 -4.519045,-0.262945 -8.783015,0.214793 -4.087257,0.457939 -5.416769,4.510609 -5.416769,4.510609 z"
       id="path27"
       sodipodi:nodetypes="cssccsssscc" /><path
       style="fill:#7b6653;fill-opacity:1;stroke-width:0.814666"
       d="m 41.412691,61.574176 c 0,0 4.684808,1.988511 10.291935,2.675986 4.563524,0.559522 9.769054,-0.239751 13.304964,0.36026 2.239121,0.379958 6.247271,2.08364 8.262367,1.991634 2.015095,-0.09201 7.830379,-4.567842 7.830379,-4.567842 l 0.610634,-4.968401 c 0,0 -5.068272,4.968401 -8.426767,5.244423 -3.358493,0.276021 -5.73997,-1.656133 -9.464847,-1.472118 -3.724874,0.184015 -6.839114,0.920073 -9.831227,0.184015 -2.992113,-0.73606 -4.15232,-1.564127 -8.243577,-1.932157 -4.091256,-0.36803 -5.37359,-3.036244 -5.37359,-3.036244 z"
       id="path26"
       sodipodi:nodetypes="csssccsssscc" /><path
       style="fill:#cbb399;fill-opacity:1;stroke-width:0.380908"
       d="m 55.233542,54.558097 c 0,0 6.844741,1.378905 10.129977,2.080149 0.933458,0.199251 2.506809,-1.151877 3.346874,-1.200125 0.840064,-0.04825 3.069196,-0.63878 3.069196,-0.63878 l 0.254565,-2.605428 c 0,0 -0.221809,-0.962594 -1.621917,-0.817847 -1.400108,0.144745 -3.542114,-0.94306 -5.094962,-0.846563 -1.552847,0.09649 -2.688633,0.686379 -4.044491,0.607445 -1.283185,-0.07471 -2.469458,-1.308951 -4.247046,-1.058431 -1.703919,0.240143 -2.225644,1.584653 -2.225644,1.584653 z"
       id="path27-8"
       sodipodi:nodetypes="cssccsssscc" /><path
       style="fill:#7b6653;fill-opacity:1;stroke-width:0.380908"
       d="m 55.233542,54.558097 c 0,0 0.795084,0.763283 1.938885,0.804563 0.954776,0.03446 2.166483,-0.671297 3.229974,-0.507277 1.902468,0.293412 3.487048,1.46822 4.961118,1.782867 0.933458,0.199251 2.506809,-1.151877 3.346874,-1.200125 0.840064,-0.04825 3.069196,-0.63878 3.069196,-0.63878 l 0.254565,-2.605428 c 0,0 -1.917713,0.848833 -3.317822,0.993579 -1.400108,0.144745 -2.295323,1.376061 -3.848171,1.47256 -1.552847,0.09649 -2.265597,-1.111462 -3.512966,-1.497457 -1.247369,-0.38599 -2.609341,0.285776 -4.314928,0.09278 -1.705586,-0.192995 -2.240173,-1.592206 -2.240173,-1.592206 z"
       id="path26-2"
       sodipodi:nodetypes="cssssccsssscc" /><path
       style="fill:#cbb399;fill-opacity:1;stroke-width:0.52527"
       d="m 22.544144,65.123334 c 0,0 8.732102,1.667198 13.525683,2.581105 1.362034,0.259675 3.800151,1.424023 5.025913,1.361143 1.225761,-0.06288 3.107004,-3.121803 3.107004,-3.121803 l 0.371443,-3.395557 c 0,0 -0.372908,-2.655402 -2.419182,-2.507282 -1.242001,0.0899 -2.352781,-0.943072 -3.423996,-0.975961 -1.176497,-0.03612 -2.295783,0.925368 -3.265381,0.991194 -2.264078,0.153708 -3.766054,-1.326254 -5.744425,-1.429123 -1.87233,-0.09736 -2.748889,-0.179704 -5.342618,0.146797 -2.486236,0.31297 -2.466897,2.576647 -2.466897,2.576647 z"
       id="path27-5"
       sodipodi:nodetypes="cssccssssscc" /><path
       style="fill:#7b6653;fill-opacity:1;stroke-width:0.52527"
       d="m 22.544144,65.123334 c 0,0 1.837639,2.555107 5.248396,3.024948 2.775944,0.382395 5.712396,1.768303 7.863254,2.178369 1.362034,0.259675 4.214184,-1.198189 5.439946,-1.261069 1.225761,-0.06288 3.107004,-3.121803 3.107004,-3.121803 l 0.371443,-3.395557 c 0,0 -1.426844,3.395557 -3.469782,3.584199 -2.042936,0.188641 -2.855405,0.747762 -5.12121,0.873523 -2.265801,0.125761 -4.336284,-1.618837 -6.156355,-2.121882 -1.820072,-0.503045 -1.973769,-1.206983 -4.462438,-1.458506 -2.488669,-0.251523 -3.452714,-2.075062 -3.452714,-2.075062 z"
       id="path26-9"
       sodipodi:nodetypes="csssccsssscc" /></g></svg>
