<?xml version="1.0" encoding="UTF-8" standalone="no"?>
<!-- Created with Inkscape (http://www.inkscape.org/) -->

<svg
   width="100mm"
   height="100mm"
   viewBox="0 0 100 100"
   version="1.1"
   id="svg1"
   inkscape:version="1.4 (86a8ad7, 2024-10-11)"
   sodipodi:docname="boulder3.svg"
   xml:space="preserve"
   xmlns:inkscape="http://www.inkscape.org/namespaces/inkscape"
   xmlns:sodipodi="http://sodipodi.sourceforge.net/DTD/sodipodi-0.dtd"
   xmlns="http://www.w3.org/2000/svg"
   xmlns:svg="http://www.w3.org/2000/svg"><sodipodi:namedview
     id="namedview1"
     pagecolor="#ffffff"
     bordercolor="#000000"
     borderopacity="0.25"
     inkscape:showpageshadow="2"
     inkscape:pageopacity="0.0"
     inkscape:pagecheckerboard="true"
     inkscape:deskcolor="#d1d1d1"
     inkscape:document-units="mm"
     inkscape:zoom="2.0334082"
     inkscape:cx="157.61715"
     inkscape:cy="193.02568"
     inkscape:window-width="1920"
     inkscape:window-height="1009"
     inkscape:window-x="1912"
     inkscape:window-y="-8"
     inkscape:window-maximized="1"
     inkscape:current-layer="layer1" /><defs
     id="defs1" /><g
     inkscape:label="Warstwa 1"
     inkscape:groupmode="layer"
     id="layer1"><path
       style="fill:#cbb399;fill-opacity:1;stroke-width:0.656754"
       d="m 43.157892,64.418626 c 0,0 5.954189,1.600797 12.151425,2.705902 1.760864,0.314002 10.247753,2.13714 11.832443,2.061104 1.584688,-0.07604 4.016795,-3.774915 4.016795,-3.774915 l 0.480209,-27.291816 c 0,0 -0.482103,-3.210939 -3.127566,-3.031831 -1.605683,0.108708 -3.041721,-1.140372 -4.426609,-1.180142 -1.520998,-0.04368 -2.968033,1.118964 -4.221549,1.198562 -2.927044,0.185865 -4.868828,-1.60372 -7.426505,-1.72811 -2.420585,-0.117729 -3.553818,-0.2173 -6.907042,0.177508 -3.214255,0.378447 -3.189253,3.115708 -3.189253,3.115708 z"
       id="path27-5"
       sodipodi:nodetypes="cssccssssscc" /><path
       style="fill:#7b6653;fill-opacity:1;stroke-width:0.656754"
       d="m 43.157892,64.418626 c 0,0 2.375736,3.089661 6.785229,3.657798 3.588795,0.462396 7.385098,2.13825 10.16577,2.634106 1.760864,0.314001 5.448179,-1.448862 7.032869,-1.524898 1.584688,-0.07604 4.016795,-3.774915 4.016795,-3.774915 l 0.480209,-27.291816 c 0,0 -1.844652,4.105942 -4.485802,4.334049 -2.641148,0.228107 -3.691524,0.904202 -6.620801,1.056273 -2.929272,0.152072 -5.606033,-1.957514 -7.959057,-2.565801 -2.353024,-0.608287 -2.551727,-1.459496 -5.769127,-1.76364 -3.2174,-0.304144 -4.463737,-2.509186 -4.463737,-2.509186 z"
       id="path26-9"
       sodipodi:nodetypes="csssccsssscc" /><path
       style="fill:#cbb399;fill-opacity:1;stroke-width:0.470587"
       d="m 25.241917,73.610338 c 0,0 9.078537,0.981425 13.630621,1.753871 1.293416,0.21948 3.608702,1.203603 4.772712,1.150456 1.164008,-0.05315 4.523176,-2.638589 4.523176,-2.638589 l 0.352729,-11.518669 c 0,0 -1.929989,-2.278631 -3.870005,-2.119188 -1.940015,0.159442 -4.637577,-1.182143 -6.789233,-1.075847 -2.151653,0.106295 -3.139463,-0.03224 -5.018166,-0.119191 -1.778003,-0.08229 -2.610401,-0.151889 -5.073461,0.124074 -2.360982,0.264526 -3.128967,2.605529 -3.128967,2.605529 z"
       id="path27"
       sodipodi:nodetypes="cssccsssscc" /><path
       style="fill:#7b6653;fill-opacity:1;stroke-width:0.470587"
       d="m 25.241917,73.610338 c 0,0 2.706154,1.148652 5.94508,1.545768 2.636095,0.323205 5.643042,-0.138491 7.685541,0.208103 1.293416,0.21948 3.608702,1.203603 4.772712,1.150456 1.164008,-0.05315 4.523176,-2.638589 4.523176,-2.638589 l 0.352729,-11.518669 c 0,0 -2.92766,2.86997 -4.867676,3.029413 -1.940016,0.159442 -3.315663,-0.956657 -5.467318,-0.850361 -2.151653,0.106295 -3.950577,0.531475 -5.678955,0.106295 -1.728378,-0.425181 -2.398565,-0.90351 -4.761858,-1.1161 -2.363292,-0.212591 -3.104025,-1.75387 -3.104025,-1.75387 z"
       id="path26"
       sodipodi:nodetypes="csssccsssscc" /><path
       style="fill:#cbb399;fill-opacity:1;stroke-width:0.261125"
       d="m 51.192441,77.930921 c 0,0 3.403863,0.805969 5.1106,1.44032 0.484948,0.180243 1.35303,0.988427 1.789458,0.944782 0.436428,-0.04365 1.695898,-2.166872 1.695898,-2.166872 l 0.132251,-4.887091 c 0,0 -0.723621,-1.871265 -1.451001,-1.740327 -0.72738,0.130938 -1.738792,-0.970803 -2.545523,-0.883511 -0.806731,0.08729 -1.177096,-0.02648 -1.881487,-0.09788 -0.666637,-0.06758 -0.978732,-0.124735 -1.90222,0.101892 -0.885215,0.217235 -1.17316,2.139722 -1.17316,2.139722 z"
       id="path27-6"
       sodipodi:nodetypes="cssccsssscc" /><path
       style="fill:#7b6653;fill-opacity:1;stroke-width:0.261125"
       d="m 51.192441,77.930921 c 0,0 1.014632,0.9433 2.22902,1.269421 0.988365,0.265424 2.115775,-0.113732 2.88158,0.170899 0.484948,0.180243 1.35303,0.988427 1.789458,0.944782 0.436428,-0.04365 1.695898,-2.166872 1.695898,-2.166872 l 0.132251,-4.887091 c 0,0 -1.097683,2.356887 -1.825063,2.487825 -0.727381,0.130938 -1.243159,-0.785628 -2.049891,-0.698336 -0.80673,0.08729 -1.48121,0.43646 -2.12924,0.08729 -0.64803,-0.349169 -0.899307,-0.741983 -1.785388,-0.916568 -0.886082,-0.174584 -1.163809,-1.440319 -1.163809,-1.440319 z"
       id="path26-1"
       sodipodi:nodetypes="csssccsssscc" /></g></svg>
