<?xml version="1.0" encoding="UTF-8" standalone="no"?>
<!-- Created with Inkscape (http://www.inkscape.org/) -->

<svg
   width="100mm"
   height="100mm"
   viewBox="0 0 100 100"
   version="1.1"
   id="svg1"
   inkscape:version="1.4 (86a8ad7, 2024-10-11)"
   sodipodi:docname="boulder2.svg"
   xml:space="preserve"
   xmlns:inkscape="http://www.inkscape.org/namespaces/inkscape"
   xmlns:sodipodi="http://sodipodi.sourceforge.net/DTD/sodipodi-0.dtd"
   xmlns="http://www.w3.org/2000/svg"
   xmlns:svg="http://www.w3.org/2000/svg"><sodipodi:namedview
     id="namedview1"
     pagecolor="#ffffff"
     bordercolor="#000000"
     borderopacity="0.25"
     inkscape:showpageshadow="2"
     inkscape:pageopacity="0.0"
     inkscape:pagecheckerboard="true"
     inkscape:deskcolor="#d1d1d1"
     inkscape:document-units="mm"
     inkscape:zoom="2.0334082"
     inkscape:cx="149.99448"
     inkscape:cy="177.78034"
     inkscape:window-width="1920"
     inkscape:window-height="1009"
     inkscape:window-x="1912"
     inkscape:window-y="-8"
     inkscape:window-maximized="1"
     inkscape:current-layer="layer1" /><defs
     id="defs1" /><g
     inkscape:label="Warstwa 1"
     inkscape:groupmode="layer"
     id="layer1"><path
       style="fill:#4e5347;fill-opacity:1;stroke:none;stroke-width:1"
       d="M 25.801929,67.980171 C 24.808855,62.72019 33.123118,56.045443 39.287981,56.326703 46.546834,56.657874 43.754596,44.960561 59.431263,45.16349 71.850587,45.324254 73.833612,66.773174 71.698006,67.9486 65.677544,66.163325 25.801929,67.980171 25.801929,67.980171 Z"
       id="path2-4"
       sodipodi:nodetypes="csscc" /><path
       style="fill:#4e5a32;fill-opacity:1;stroke:none;stroke-width:1"
       d="m 41.764165,57.027419 c -0.719378,0.632901 -2.889,0.103496 -4.924074,0.653796 -3.45997,0.935603 -5.009743,3.049106 -5.409756,0.985761 -0.237244,-1.223752 1.531055,-2.586481 5.95124,-3.312786 2.296788,-0.377398 6.042829,0.212567 4.38259,1.673229 z"
       id="path2-8-1"
       sodipodi:nodetypes="sssss" /><path
       style="fill:#4e5a32;fill-opacity:1;stroke:none;stroke-width:1"
       d="m 69.532825,53.659409 c -0.479191,0.222694 -2.969231,-3.692989 -6.688975,-5.460713 -2.150135,-1.021801 -5.013807,-0.744725 -7.674712,-0.54391 -3.574072,0.26973 -7.761115,3.497023 -8.161128,1.433678 -0.237244,-1.223752 3.361724,-3.326086 7.717082,-4.373183 2.253512,-0.541779 7.158153,-0.522489 9.945863,1.57809 3.267413,2.462042 6.953851,6.393834 4.86187,7.366038 z"
       id="path2-8-1-7"
       sodipodi:nodetypes="sssssss" /></g></svg>
