<?xml version="1.0" encoding="UTF-8" standalone="no"?>
<!-- Created with Inkscape (http://www.inkscape.org/) -->

<svg
   width="100mm"
   height="100mm"
   viewBox="0 0 100 100"
   version="1.1"
   id="svg1"
   inkscape:version="1.4 (86a8ad7, 2024-10-11)"
   sodipodi:docname="boulder3.svg"
   xml:space="preserve"
   xmlns:inkscape="http://www.inkscape.org/namespaces/inkscape"
   xmlns:sodipodi="http://sodipodi.sourceforge.net/DTD/sodipodi-0.dtd"
   xmlns="http://www.w3.org/2000/svg"
   xmlns:svg="http://www.w3.org/2000/svg"><sodipodi:namedview
     id="namedview1"
     pagecolor="#ffffff"
     bordercolor="#000000"
     borderopacity="0.25"
     inkscape:showpageshadow="2"
     inkscape:pageopacity="0.0"
     inkscape:pagecheckerboard="true"
     inkscape:deskcolor="#d1d1d1"
     inkscape:document-units="mm"
     inkscape:zoom="2.0334082"
     inkscape:cx="190.81265"
     inkscape:cy="161.05965"
     inkscape:window-width="1920"
     inkscape:window-height="1009"
     inkscape:window-x="1912"
     inkscape:window-y="-8"
     inkscape:window-maximized="1"
     inkscape:current-layer="layer1" /><defs
     id="defs1" /><g
     inkscape:label="Warstwa 1"
     inkscape:groupmode="layer"
     id="layer1"><path
       style="fill:#4e5347;fill-opacity:1;stroke:none;stroke-width:1.38699"
       d="M 23.980275,75.657142 C 22.987201,65.538295 27.745908,62.379181 33.6929,58.833955 c 29.665988,-17.685013 32.796734,3.87941 40.778302,5.828593 6.590965,1.609583 4.387892,9.719672 3.732712,10.413387 -6.020462,-3.434409 -54.223639,0.581203 -54.223639,0.581203 z"
       id="path2-4"
       sodipodi:nodetypes="cssccc" /><path
       style="fill:#4e5a32;fill-opacity:1;stroke:none;stroke-width:1"
       d="m 67.125639,58.864136 c -0.479191,0.222694 -4.855944,-2.26169 -8.575688,-4.029414 -2.150135,-1.021801 -5.794516,-1.004961 -8.455421,-0.804146 -3.574072,0.26973 -8.606883,2.97655 -9.006896,0.913205 -0.237244,-1.223752 4.207492,-2.805613 8.56285,-3.85271 2.253512,-0.541779 6.784408,0.09858 9.945863,1.57809 3.592708,1.681333 9.621273,5.222771 7.529292,6.194975 z"
       id="path2-8-1-7"
       sodipodi:nodetypes="sssssss" /><path
       style="fill:#4e5a32;fill-opacity:1;stroke:none;stroke-width:1"
       d="m 79.094441,69.393521 c -0.957371,-0.03885 -2.16133,-1.919813 -4.013431,-2.926827 -3.148884,-1.712096 -5.729221,-1.253235 -4.593971,-3.022022 0.673307,-1.049053 2.893359,-0.813934 6.592346,1.712537 1.922043,1.312789 4.224556,4.325979 2.015056,4.236312 z"
       id="path2-8-1"
       sodipodi:nodetypes="sssss" /><path
       style="fill:#4e5a32;fill-opacity:1;stroke:none;stroke-width:1"
       d="m 33.948436,58.719099 c -0.06418,0.281934 -0.256259,1.087925 -0.802248,1.575896 -1.26328,1.129043 -3.571484,2.254972 -4.498502,3.398368 -2.25727,2.784147 -2.276328,5.404896 -3.808611,3.966317 -0.908784,-0.853209 -0.273025,-2.993238 2.885233,-6.169865 1.641074,-1.650618 6.714941,-4.926877 6.224128,-2.770716 z"
       id="path2-8-1-2"
       sodipodi:nodetypes="ssssss" /></g></svg>
