<?xml version="1.0" encoding="UTF-8" standalone="no"?>
<!-- Created with Inkscape (http://www.inkscape.org/) -->

<svg
   width="100mm"
   height="100mm"
   viewBox="0 0 100 100"
   version="1.1"
   id="svg1"
   inkscape:version="1.4 (86a8ad7, 2024-10-11)"
   sodipodi:docname="boulder1.svg"
   xml:space="preserve"
   xmlns:inkscape="http://www.inkscape.org/namespaces/inkscape"
   xmlns:sodipodi="http://sodipodi.sourceforge.net/DTD/sodipodi-0.dtd"
   xmlns="http://www.w3.org/2000/svg"
   xmlns:svg="http://www.w3.org/2000/svg"><sodipodi:namedview
     id="namedview1"
     pagecolor="#ffffff"
     bordercolor="#000000"
     borderopacity="0.25"
     inkscape:showpageshadow="2"
     inkscape:pageopacity="0.0"
     inkscape:pagecheckerboard="true"
     inkscape:deskcolor="#d1d1d1"
     inkscape:document-units="mm"
     inkscape:zoom="2.0334082"
     inkscape:cx="149.99448"
     inkscape:cy="178.27213"
     inkscape:window-width="1920"
     inkscape:window-height="1009"
     inkscape:window-x="1912"
     inkscape:window-y="-8"
     inkscape:window-maximized="1"
     inkscape:current-layer="layer1" /><defs
     id="defs1" /><g
     inkscape:label="Warstwa 1"
     inkscape:groupmode="layer"
     id="layer1"><path
       style="fill:#4e5347;fill-opacity:1;stroke:none;stroke-width:1"
       d="m 30.694109,69.774084 c -0.993074,-5.259981 4.328471,-23.515245 10.493334,-23.233985 7.258853,0.331171 7.719569,-4.339761 23.396236,-4.136832 12.419324,0.160764 14.922822,26.293938 12.787216,27.469364 -6.020462,-1.785275 -46.676786,-0.09855 -46.676786,-0.09855 z"
       id="path2-4"
       sodipodi:nodetypes="csscc" /><path
       style="fill:#4e5a32;fill-opacity:1;stroke:none;stroke-width:1"
       d="m 74.685241,50.899186 c -0.479191,0.222694 -2.969231,-3.692989 -6.688975,-5.460713 -2.150135,-1.021801 -5.013807,-0.744725 -7.674712,-0.54391 -0.926504,0.06992 -5.45853,-0.395644 -9.367521,0.723984 -1.433345,0.410544 -3.709953,1.982906 -5.037795,2.248 -3.3179,0.662395 -3.203657,0.261629 -5.933541,1.099226 -4.691753,1.439546 -3.57627,4.001203 -5.901732,2.83691 -0.453878,-0.227243 0.496392,-3.568136 5.018163,-5.303429 2.689842,-1.032263 2.723379,-0.17388 6.133759,-0.853175 1.838973,-0.366296 4.980981,-2.330613 7.008749,-2.765309 3.414785,-0.732032 6.677873,-0.695394 7.635872,-0.925712 2.253512,-0.54178 7.158153,-0.522489 9.945863,1.57809 3.267413,2.462042 6.953851,6.393834 4.86187,7.366038 z"
       id="path2-8-1-7"
       sodipodi:nodetypes="sssssssssssss" /></g></svg>
