<?xml version="1.0" encoding="UTF-8" standalone="no"?>
<!-- Created with Inkscape (http://www.inkscape.org/) -->

<svg
   width="100mm"
   height="100mm"
   viewBox="0 0 100 100"
   version="1.1"
   id="svg1"
   inkscape:version="1.4 (86a8ad7, 2024-10-11)"
   sodipodi:docname="boulder4.svg"
   xml:space="preserve"
   xmlns:inkscape="http://www.inkscape.org/namespaces/inkscape"
   xmlns:sodipodi="http://sodipodi.sourceforge.net/DTD/sodipodi-0.dtd"
   xmlns="http://www.w3.org/2000/svg"
   xmlns:svg="http://www.w3.org/2000/svg"><sodipodi:namedview
     id="namedview1"
     pagecolor="#ffffff"
     bordercolor="#000000"
     borderopacity="0.25"
     inkscape:showpageshadow="2"
     inkscape:pageopacity="0.0"
     inkscape:pagecheckerboard="true"
     inkscape:deskcolor="#d1d1d1"
     inkscape:document-units="mm"
     inkscape:zoom="2.0334082"
     inkscape:cx="224.74583"
     inkscape:cy="141.88002"
     inkscape:window-width="1920"
     inkscape:window-height="1009"
     inkscape:window-x="1912"
     inkscape:window-y="-8"
     inkscape:window-maximized="1"
     inkscape:current-layer="layer1" /><defs
     id="defs1" /><g
     inkscape:label="Warstwa 1"
     inkscape:groupmode="layer"
     id="layer1"><path
       style="fill:#4e5347;fill-opacity:1;stroke:none;stroke-width:1.38699"
       d="m 15.776949,69.014577 c -0.197206,-2.009414 0.193764,-9.187352 3.110498,-11.801219 2.895336,-2.594692 10.155977,-2.003549 13.480891,-2.578717 0.03877,-7.686312 3.970113,-14.11806 8.006495,-15.219071 9.516361,-2.595794 28.847197,3.043513 37.990667,2.688056 9.687907,-0.376622 4.527257,24.991977 3.872077,25.685692 -6.020462,-3.434409 -66.460628,1.225259 -66.460628,1.225259 z"
       id="path2-4"
       sodipodi:nodetypes="cscsscc" /><path
       style="fill:#4e5a32;fill-opacity:1;stroke:none;stroke-width:1"
       d="m 63.287153,40.647593 c -1.010393,1.358217 -5.408946,1.381619 -9.323867,0.101838 -2.262746,-0.739688 -6.93305,-0.451959 -9.593955,-0.251144 -3.574072,0.26973 -7.844869,3.337912 -8.226187,1.27103 -0.237244,-1.285948 3.426783,-3.795423 7.782141,-4.210535 2.307267,-0.219907 7.116906,-0.315115 10.466336,0.667263 3.625237,1.063272 9.783016,1.228552 8.895532,2.421548 z"
       id="path2-8-1-7"
       sodipodi:nodetypes="sssssss" /><path
       style="fill:#4e5a32;fill-opacity:1;stroke:none;stroke-width:1"
       d="m 82.799265,45.227504 c -0.874947,0.390557 -2.030202,-1.541696 -4.136875,-1.620964 -3.581701,-0.134771 -5.689492,1.422761 -5.458324,-0.666248 0.137104,-1.238974 2.230461,-2.014711 6.666815,-1.394772 2.305189,0.32213 4.947664,2.780628 2.928384,3.681984 z"
       id="path2-8-1"
       sodipodi:nodetypes="sssss" /><path
       style="fill:#4e5a32;fill-opacity:1;stroke:none;stroke-width:1"
       d="m 29.837075,54.939671 c -0.200224,0.208606 -0.779995,0.800536 -1.499326,0.93759 -1.664348,0.317109 -4.222757,0.09336 -5.606269,0.595962 -3.368823,1.223835 -4.734987,3.460414 -5.307448,1.438116 -0.339522,-1.199408 1.307655,-2.706299 5.650915,-3.802493 2.256817,-0.569597 8.293372,-0.764549 6.762128,0.830825 z"
       id="path2-8-1-2"
       sodipodi:nodetypes="ssssss" /></g></svg>
