<?xml version="1.0" encoding="UTF-8" standalone="no"?>
<!-- Created with Inkscape (http://www.inkscape.org/) -->

<svg
   width="100mm"
   height="100mm"
   viewBox="0 0 100 100"
   version="1.1"
   id="svg1"
   inkscape:version="1.4 (86a8ad7, 2024-10-11)"
   sodipodi:docname="tree3.svg"
   xml:space="preserve"
   xmlns:inkscape="http://www.inkscape.org/namespaces/inkscape"
   xmlns:sodipodi="http://sodipodi.sourceforge.net/DTD/sodipodi-0.dtd"
   xmlns="http://www.w3.org/2000/svg"
   xmlns:svg="http://www.w3.org/2000/svg"><sodipodi:namedview
     id="namedview1"
     pagecolor="#ffffff"
     bordercolor="#000000"
     borderopacity="0.25"
     inkscape:showpageshadow="2"
     inkscape:pageopacity="0.0"
     inkscape:pagecheckerboard="true"
     inkscape:deskcolor="#d1d1d1"
     inkscape:document-units="mm"
     inkscape:zoom="1.0167041"
     inkscape:cx="-7.3767777"
     inkscape:cy="190.32086"
     inkscape:window-width="1920"
     inkscape:window-height="1009"
     inkscape:window-x="1912"
     inkscape:window-y="-8"
     inkscape:window-maximized="1"
     inkscape:current-layer="layer1" /><defs
     id="defs1"><filter
       style="color-interpolation-filters:sRGB;"
       inkscape:label="Invert"
       id="filter263"
       x="0"
       y="0"
       width="1"
       height="1"><feColorMatrix
         type="hueRotate"
         values="180"
         result="color1"
         id="feColorMatrix262" /><feColorMatrix
         values="-1 0 0 0 1 0 -1 0 0 1 0 0 -1 0 1 -0.21 -0.72 -0.07 2 0 "
         result="fbSourceGraphic"
         id="feColorMatrix263" /><feColorMatrix
         result="fbSourceGraphicAlpha"
         in="fbSourceGraphic"
         values="0 0 0 -1 0 0 0 0 -1 0 0 0 0 -1 0 0 0 0 1 0"
         id="feColorMatrix264" /><feColorMatrix
         id="feColorMatrix265"
         type="hueRotate"
         values="180"
         result="color1"
         in="fbSourceGraphic" /><feColorMatrix
         id="feColorMatrix266"
         values="-1 0 0 0 1 0 -1 0 0 1 0 0 -1 0 1 -0.21 -0.72 -0.07 2 0 "
         result="fbSourceGraphic" /><feColorMatrix
         result="fbSourceGraphicAlpha"
         in="fbSourceGraphic"
         values="0 0 0 -1 0 0 0 0 -1 0 0 0 0 -1 0 0 0 0 1 0"
         id="feColorMatrix267" /><feColorMatrix
         id="feColorMatrix268"
         type="hueRotate"
         values="180"
         result="color1"
         in="fbSourceGraphic" /><feColorMatrix
         id="feColorMatrix269"
         values="-1 0 0 0 1 0 -1 0 0 1 0 0 -1 0 1 -0.21 -0.72 -0.07 2 0 "
         result="color2" /></filter></defs><g
     inkscape:label="Warstwa 1"
     inkscape:groupmode="layer"
     id="layer1"><path
       style="fill:#307845;fill-opacity:1"
       d="m 43.923771,76.26236 c 0,-0.105006 0.557879,-0.913487 1.239731,-1.796624 0.681852,-0.883137 1.524188,-2.415847 1.871858,-3.406022 0.716857,-2.041631 1.168395,-7.321207 0.626149,-7.321207 -0.182312,0 -0.417289,0.15164 -0.522172,0.336979 -0.310553,0.54878 -2.053885,1.430814 -3.346016,1.692907 -1.095336,0.222176 -3.017243,-0.134038 -4.517081,-0.837213 -0.39661,-0.185945 -0.64319,0.08532 -1.097796,1.207705 -0.617978,1.525735 -2.388356,3.4543 -3.653018,3.979423 -1.36912,0.568497 -3.86177,0.361996 -5.319217,-0.440663 -1.186564,-0.653477 -2.981985,-2.892766 -3.407089,-4.249397 -0.06886,-0.219758 -0.78851,-0.209459 -2.109399,0.03019 -4.020847,0.729494 -7.522648,-0.925126 -9.305131,-4.396724 -0.806119,-1.570013 -0.944591,-2.184292 -0.942825,-4.182491 0.0017,-1.970318 0.147672,-2.63116 0.919118,-4.162183 0.543945,-1.079522 1.446803,-2.22882 2.219131,-2.824855 1.152623,-0.889522 1.302084,-1.1549 1.302084,-2.311936 0,-2.662569 1.642701,-4.822475 3.920597,-5.154998 l 1.134551,-0.165619 -0.102689,-1.765499 c -0.227535,-3.911899 2.709942,-7.043311 6.40612,-6.829059 1.452228,0.08418 1.49215,0.05938 2.515478,-1.562374 1.490287,-2.361791 3.33305,-3.329819 6.338727,-3.329819 h 2.305604 l 1.309115,-1.551446 c 3.777048,-4.47622 10.866926,-4.083555 13.982529,0.774406 0.470924,0.734282 0.509329,0.739327 1.375295,0.180659 1.013854,-0.654076 3.412807,-0.7623 4.416321,-0.199234 0.368058,0.206516 1.031646,0.744221 1.47464,1.1949 0.740794,0.753645 0.90715,0.789506 2.072555,0.446783 3.206262,-0.942899 6.859915,1.316668 7.718685,4.77355 0.192238,0.773832 0.389919,1.571084 0.439291,1.77167 0.05722,0.232455 0.713978,0.308169 1.811174,0.208798 4.48931,-0.406588 7.825024,3.367347 7.452787,8.431879 l -0.157623,2.144569 0.980759,0.200943 c 1.345675,0.275709 3.600784,1.89349 4.566051,3.275615 1.866565,2.672658 2.306746,7.097049 1.00891,10.140853 -2.918159,6.843932 -11.031781,7.764045 -21.949257,2.489123 l -2.604167,-1.258238 -0.919118,0.93294 c -0.505515,0.513116 -1.360341,1.17565 -1.899614,1.472297 -1.240461,0.682362 -4.126695,0.70018 -5.308443,0.03277 -0.872821,-0.492937 -0.902448,-0.482833 -1.099587,0.374998 -0.274865,1.196047 0.362977,5.901985 0.981705,7.24293 0.275688,0.597488 1.037265,1.790919 1.692393,2.652068 0.655129,0.861149 1.191143,1.65164 1.191143,1.756646 0,0.105006 -3.377758,0.190921 -7.506129,0.190921 -4.128372,0 -7.50613,-0.08591 -7.50613,-0.190921 z"
       id="path269" /><path
       style="fill:#1a4b28;fill-opacity:1"
       d="M 30.175882,69.942204 C 28.516795,69.36115 27.1723,68.018931 26.416376,66.189064 25.85803,64.837476 25.806741,64.801875 24.849771,65.101616 c -1.504731,0.471311 -4.550862,0.370562 -6.08773,-0.201347 -4.482435,-1.668034 -6.60274,-7.520636 -4.328436,-11.947627 0.497751,-0.968885 1.468863,-2.213318 2.158027,-2.765407 1.045722,-0.837728 1.256122,-1.199657 1.271745,-2.187647 0.04272,-2.701774 1.822809,-4.935502 4.384531,-5.501903 0.807123,-0.178456 0.842525,-0.27107 0.842525,-2.204121 0,-2.2216 0.420062,-3.365743 1.73429,-4.723762 1.172854,-1.211934 2.256082,-1.610634 4.375938,-1.610634 1.695402,0 1.799689,-0.04896 2.166929,-1.017236 0.538951,-1.421017 2.520902,-3.174841 4.151138,-3.673332 0.795493,-0.243244 2.135742,-0.344392 3.185649,-0.240418 1.792488,0.177512 1.820199,0.166867 2.520195,-0.968076 0.800766,-1.298329 2.890522,-2.858931 4.644333,-3.468325 3.017415,-1.048457 7.728017,0.483623 9.343146,3.038773 0.540974,0.855825 0.96737,1.218975 1.272998,1.084177 2.681511,-1.182689 2.987545,-1.243803 4.215847,-0.841889 0.676524,0.221366 1.624663,0.842671 2.106976,1.380678 0.825452,0.920769 0.94936,0.95704 2.110634,0.617835 1.592156,-0.465064 3.807758,-0.09625 5.089701,0.847245 1.39183,1.024369 2.727906,3.208823 2.920183,4.774432 l 0.160914,1.310231 h 2.547709 c 2.337652,0 2.655862,0.08301 3.859444,1.006859 2.252855,1.729245 3.403098,5.311122 2.648523,8.24755 -0.218032,0.84847 -0.147493,0.917105 1.531863,1.490513 1.315069,0.449025 2.161375,1.037305 3.345352,2.325405 1.836959,1.998507 2.371118,3.559795 2.345171,6.854681 -0.03072,3.900457 -1.857111,6.888899 -5.282285,8.643142 -1.542919,0.790225 -2.043576,0.872745 -5.081644,0.83758 -3.084459,-0.0357 -3.707673,-0.159529 -7.352943,-1.460968 -2.190564,-0.782078 -4.761915,-1.841081 -5.714113,-2.353341 l -1.731268,-0.931382 -1.02162,1.151156 c -1.407558,1.586027 -3.747658,2.325541 -5.722019,1.808262 -2.232793,-0.584988 -2.329446,-0.706963 -1.75337,-2.212732 0.910478,-2.379843 2.507552,-3.578645 5.599072,-4.202796 2.146322,-0.433325 4.238006,0.06697 9.47207,2.265539 4.877208,2.048674 6.321402,2.453327 8.772549,2.458007 3.955837,0.0076 6.345026,-2.30047 6.345026,-6.129469 0,-2.9338 -2.011609,-5.24395 -4.564303,-5.241686 -3.955777,0.0035 -5.779121,4.677605 -2.838446,7.276284 0.819274,0.723994 2.918858,0.520394 3.672873,-0.356164 0.786078,-0.913833 0.879494,-2.625379 0.184707,-3.384178 -0.607931,-0.663941 -1.778512,-0.678446 -2.272673,-0.02816 -0.513288,0.675457 -0.167639,1.509958 0.625423,1.509958 0.852787,0 0.609751,0.802185 -0.286556,0.945833 -0.970005,0.15546 -1.567595,-0.519839 -1.567595,-1.771442 0,-1.401019 0.870857,-2.252705 2.303414,-2.252705 3.050584,0 3.920804,4.979705 1.14425,6.547801 -2.415743,1.364323 -4.688982,0.941729 -10.539751,-1.959331 -4.490342,-2.226502 -6.94696,-3.089901 -9.65324,-3.392713 l -2.025532,-0.226641 0.883589,-0.528855 c 0.684468,-0.409675 2.229921,-0.569998 6.857855,-0.711423 6.649283,-0.203195 7.667517,-0.471685 8.887997,-2.343605 0.411437,-0.631046 0.766201,-1.757016 0.848572,-2.693252 0.35858,-4.07563 -3.769185,-6.586396 -6.508996,-3.959179 -0.934454,0.896052 -1.082964,1.242273 -1.082964,2.524703 0,1.923224 0.998072,3.128823 2.590241,3.128823 2.018026,0 3.103102,-2.460101 1.697731,-3.849122 -0.507325,-0.501423 -0.746835,-0.540742 -1.378677,-0.226332 -0.420578,0.209283 -0.764687,0.614323 -0.764687,0.900088 0,0.697759 0.915183,1.046918 1.23993,0.473056 0.210253,-0.371539 0.295996,-0.352253 0.455787,0.10252 0.286086,0.814215 -0.08253,1.261393 -1.039778,1.261393 -1.071275,0 -1.575057,-0.556513 -1.575057,-1.739917 0,-1.838263 1.716731,-2.778751 3.475085,-1.903779 1.403148,0.698219 1.90805,3.475639 0.883913,4.862319 -1.191258,1.612961 -2.352292,1.911636 -6.188252,1.591922 -1.942747,-0.161921 -4.704142,-0.280283 -6.136434,-0.263026 -2.530068,0.03048 -3.192686,0.223304 -7.00094,2.037257 -0.326606,0.15557 -0.316092,-0.0095 0.04984,-0.782293 0.851023,-1.797319 3.431149,-4.048855 6.68043,-5.829647 3.874235,-2.123303 5.028894,-3.059115 6.146193,-4.98128 2.125452,-3.656556 0.13678,-8.377981 -3.530459,-8.381874 -2.21002,-0.0023 -3.876928,1.786696 -3.876928,4.160989 0,3.026525 3.02483,4.579822 4.909755,2.521236 1.288634,-1.407359 0.462957,-4.006681 -1.272726,-4.006681 -0.950134,0 -1.492421,0.575243 -1.492421,1.583118 0,0.985461 0.877823,1.396427 1.380163,0.646143 0.520443,-0.777324 0.824836,-0.692944 0.709161,0.196584 -0.08005,0.615572 -0.291778,0.752848 -1.161158,0.752848 -1.34224,0 -1.956797,-1.062744 -1.479414,-2.558332 0.754854,-2.364875 3.895013,-2.109378 4.844536,0.394172 0.933504,2.461314 -0.947188,5.14014 -5.068777,7.219877 -1.236443,0.623904 -2.316423,1.134371 -2.399957,1.134371 -0.08353,0 -0.02364,-0.488358 0.133106,-1.085239 0.416315,-1.585343 0.348139,-4.462575 -0.135088,-5.701144 -1.381313,-3.540475 -5.596725,-3.815213 -6.619272,-0.431408 -0.768639,2.543573 1.592829,5.111517 3.467131,3.77028 1.772181,-1.268158 0.78081,-4.52039 -1.133399,-3.718163 -0.537565,0.225288 -0.709501,1.812085 -0.196348,1.812085 0.168505,0 0.306373,-0.225855 0.306373,-0.501899 0,-0.564264 0.780125,-0.683611 1.073999,-0.164306 0.105073,0.185677 0.103919,0.637386 -0.0026,1.003798 -0.220551,0.758916 -1.630289,0.925819 -2.23565,0.264685 -0.567228,-0.619487 -0.435576,-2.201088 0.245098,-2.944473 1.35359,-1.478299 3.747247,-0.206112 4.162686,2.212396 0.42308,2.462989 -0.776171,5.948747 -2.528123,7.348273 -0.646252,0.51625 -1.691802,1.467456 -2.323444,2.11379 -1.413827,1.446711 -1.682418,1.229627 -2.147504,-1.735674 -0.262354,-1.672727 -0.250981,-3.259062 0.04774,-6.65875 0.215679,-2.454594 0.299488,-5.06253 0.186241,-5.795413 -0.720109,-4.66022 -2.434857,-6.853403 -5.358359,-6.853403 -1.61649,0 -2.938208,0.754103 -3.693802,2.10749 -1.647079,2.950175 0.517781,6.730594 3.503923,6.118777 2.141723,-0.438807 2.776585,-3.575711 1.013436,-5.007464 -0.790465,-0.641891 -0.920499,-0.656504 -1.68505,-0.189357 -0.914324,0.558659 -1.230926,1.760269 -0.661302,2.50986 0.6363,0.837332 1.305121,0.601835 1.079464,-0.380087 -0.162546,-0.707304 -0.09989,-0.842838 0.346234,-0.749006 0.299581,0.06301 0.592127,0.383563 0.650103,0.712343 0.27207,1.542908 -1.961646,2.192778 -2.838355,0.825781 -0.674234,-1.051289 -0.592602,-2.083563 0.249296,-3.152504 1.398908,-1.776164 4.208211,-0.88562 5.000967,1.585298 0.521284,1.624778 0.481082,5.558005 -0.0945,9.245845 -0.308072,1.973853 -0.448022,4.325205 -0.370894,6.231533 l 0.123867,3.061544 -1.393371,-1.524495 c -0.766355,-0.838473 -2.126838,-1.960477 -3.023297,-2.493344 -1.9011,-1.130037 -2.500859,-2.190857 -2.500859,-4.423377 0,-1.860478 0.515588,-2.838726 1.803144,-3.421185 1.914771,-0.866196 3.777814,1.31203 2.682989,3.136888 -0.930854,1.551552 -3.118107,0.693073 -2.300323,-0.902858 0.399523,-0.779681 0.877916,-0.72939 0.877916,0.09229 0,0.707351 0.445971,0.900005 0.767626,0.331605 0.405631,-0.716793 -0.184199,-1.670002 -1.03337,-1.670002 -1.103757,0 -1.572491,0.562854 -1.572491,1.888243 0,2.05229 2.41025,2.871048 3.843583,1.305659 0.967896,-1.05707 1.023613,-3.061149 0.119986,-4.315764 -1.219109,-1.692636 -4.093973,-1.725283 -5.408346,-0.06142 -0.869967,1.101292 -1.416326,3.318485 -1.170453,4.749849 0.105608,0.614801 0.113806,1.11782 0.01822,1.11782 -0.09559,0 -1.07621,-0.446872 -2.179161,-0.993049 -3.379285,-1.673409 -5.022183,-3.567569 -5.025733,-5.794359 -0.0038,-2.35449 1.791024,-3.969016 3.584355,-3.224375 1.588109,0.659427 2.158722,2.685564 1.061685,3.769837 -1.045214,1.033055 -2.840433,0.322453 -2.394155,-0.947678 0.229686,-0.653699 0.809823,-0.656751 0.809823,-0.0043 0,0.28397 0.274488,0.501899 0.632156,0.501899 0.528647,0 0.616437,-0.178059 0.536152,-1.087448 -0.08714,-0.987073 -0.199364,-1.096858 -1.215791,-1.1894 -1.90773,-0.173692 -2.742415,1.959867 -1.462144,3.737421 0.516894,0.717666 0.889831,0.881622 2.005348,0.881622 3.653608,0 4.287298,-5.416413 0.829146,-7.087053 -1.624858,-0.784972 -3.110661,-0.560668 -4.452149,0.672118 -2.559487,2.352088 -2.232323,6.462352 0.735195,9.236459 0.676784,0.632675 2.740701,2.010723 4.586482,3.06233 3.721425,2.120227 6.093214,4.227401 7.040259,6.254792 0.715893,1.532551 1.016338,1.521363 -2.666592,0.09929 -1.234765,-0.476774 -3.273364,-0.931974 -4.748775,-1.060357 -2.886656,-0.251183 -4.074603,-0.819707 -4.598362,-2.20067 -0.729349,-1.92303 0.68164,-3.821912 2.186389,-2.942399 0.672954,0.393335 0.826936,2.164792 0.20972,2.412682 -0.587204,0.235837 -1.148897,-0.08087 -1.148897,-0.647793 0,-0.3157 0.174978,-0.436482 0.459559,-0.317217 0.493738,0.206921 0.643115,-0.292209 0.180834,-0.604237 -0.5995,-0.404647 -1.286184,0.23508 -1.193119,1.11153 0.07247,0.682484 0.284454,0.901358 0.954218,0.985231 1.151635,0.144216 1.743116,-0.46006 1.743116,-1.780824 0,-1.251012 -0.433212,-1.750891 -1.770534,-2.042997 -1.403922,-0.306654 -2.518683,1.006811 -2.518683,2.967634 0,0.801325 0.202417,1.74923 0.449815,2.106455 0.247399,0.357226 0.4542,0.782944 0.459559,0.946042 0.01645,0.500626 -5.569053,0.02478 -6.610037,-0.563133 -2.27139,-1.282798 -2.757895,-4.563271 -0.923193,-6.225035 1.804837,-1.634713 4.829417,1.077642 3.468428,3.110386 -0.585768,0.874892 -2.174766,0.610746 -2.303994,-0.383001 -0.05385,-0.414067 0.04955,-0.752849 0.229779,-0.752849 0.180225,0 0.327681,0.15057 0.327681,0.334599 0,0.18403 0.206802,0.3346 0.459559,0.3346 0.285007,0 0.459559,-0.315302 0.459559,-0.830124 0,-1.115451 -1.29621,-1.514101 -2.156954,-0.663372 -0.816008,0.806515 -0.754749,2.024543 0.151606,3.014402 2.144921,2.342537 5.448194,-0.797766 4.017509,-3.819303 -1.022303,-2.159051 -3.441206,-2.795755 -5.455673,-1.436041 -1.249448,0.843346 -1.764823,1.948158 -1.764823,3.783264 0,2.81601 1.698257,4.88848 4.59559,5.608235 0.758272,0.18837 3.377758,0.410843 5.82108,0.494384 2.443321,0.08354 4.787072,0.294803 5.208334,0.469471 0.680589,0.282192 0.578177,0.343623 -0.919118,0.551322 -2.704712,0.375188 -4.788428,1.113037 -9.147476,3.23914 -4.09624,1.997921 -6.843633,2.979032 -8.303539,2.965246 -1.321896,-0.01248 -3.30556,-1.202162 -3.821564,-2.291937 -1.419416,-2.997735 0.718586,-6.116835 3.365035,-4.909203 1.192773,0.544288 1.632544,1.780176 1.093344,3.072623 -0.265755,0.637005 -0.540495,0.808854 -1.164154,0.728174 -0.988646,-0.127896 -1.351558,-0.9421 -0.419919,-0.9421 0.793062,0 1.138712,-0.834501 0.625423,-1.509958 -0.454505,-0.5981 -1.874467,-0.655292 -2.386468,-0.09612 -0.597909,0.652995 -0.448476,2.856199 0.245098,3.613673 0.963628,1.052409 3.036739,0.918526 4.073268,-0.263054 2.351981,-2.681118 0.448623,-6.76103 -3.15415,-6.76103 -2.751208,0 -4.593299,2.145994 -4.593299,5.351087 0,2.162015 0.627018,3.484368 2.321803,4.896584 1.008086,0.840008 1.457676,0.972612 3.625963,1.06946 1.978869,0.08839 2.94611,-0.05365 4.823703,-0.708337 l 2.348512,-0.818892 -0.164698,1.108421 c -0.497174,3.345989 2.288014,6.08352 4.765738,4.684192 0.52099,-0.294236 1.089209,-0.824656 1.262709,-1.178712 1.291218,-2.634947 -1.511241,-5.719326 -3.361017,-3.699127 -0.708483,0.773757 -0.781736,1.627291 -0.212614,2.47732 0.564789,0.843557 1.868461,0.591341 1.995565,-0.386074 0.10049,-0.772748 -0.410898,-1.065744 -0.626604,-0.359008 -0.06611,0.216612 -0.278382,0.287075 -0.471709,0.156584 -0.631784,-0.426438 -0.04525,-1.262363 0.80977,-1.154073 0.69427,0.08793 0.803387,0.259066 0.803387,1.260017 0,0.910536 -0.177197,1.266889 -0.828484,1.666126 -0.764318,0.468525 -0.893548,0.454806 -1.668557,-0.177131 -0.993729,-0.810281 -1.322038,-1.926478 -0.980898,-3.334898 0.364471,-1.504744 1.442059,-2.424378 3.975871,-3.393087 5.215229,-1.993847 11.154896,-0.548261 12.749115,3.102858 0.46526,1.065551 0.459739,1.172126 -0.09607,1.8543 -1.535999,1.885219 -4.864551,2.500578 -7.023526,1.29846 -1.534179,-0.854232 -1.578614,-0.848119 -1.824378,0.25095 -0.797382,3.565928 -4.713183,5.798347 -8.093853,4.61435 z"
       id="path270" /></g></svg>
