<?xml version="1.0" encoding="UTF-8" standalone="no"?>
<!-- Created with Inkscape (http://www.inkscape.org/) -->

<svg
   width="100mm"
   height="100mm"
   viewBox="0 0 100 100"
   version="1.1"
   id="svg1"
   inkscape:version="1.4 (86a8ad7, 2024-10-11)"
   sodipodi:docname="tree4.svg"
   xml:space="preserve"
   xmlns:inkscape="http://www.inkscape.org/namespaces/inkscape"
   xmlns:sodipodi="http://sodipodi.sourceforge.net/DTD/sodipodi-0.dtd"
   xmlns="http://www.w3.org/2000/svg"
   xmlns:svg="http://www.w3.org/2000/svg"><sodipodi:namedview
     id="namedview1"
     pagecolor="#ffffff"
     bordercolor="#000000"
     borderopacity="0.25"
     inkscape:showpageshadow="2"
     inkscape:pageopacity="0.0"
     inkscape:pagecheckerboard="true"
     inkscape:deskcolor="#d1d1d1"
     inkscape:document-units="mm"
     inkscape:zoom="1.4378367"
     inkscape:cx="144.31402"
     inkscape:cy="138.75011"
     inkscape:window-width="1920"
     inkscape:window-height="1009"
     inkscape:window-x="1912"
     inkscape:window-y="-8"
     inkscape:window-maximized="1"
     inkscape:current-layer="layer1" /><defs
     id="defs1"><filter
       style="color-interpolation-filters:sRGB;"
       inkscape:label="Invert"
       id="filter263"
       x="0"
       y="0"
       width="1"
       height="1"><feColorMatrix
         type="hueRotate"
         values="180"
         result="color1"
         id="feColorMatrix262" /><feColorMatrix
         values="-1 0 0 0 1 0 -1 0 0 1 0 0 -1 0 1 -0.21 -0.72 -0.07 2 0 "
         result="fbSourceGraphic"
         id="feColorMatrix263" /><feColorMatrix
         result="fbSourceGraphicAlpha"
         in="fbSourceGraphic"
         values="0 0 0 -1 0 0 0 0 -1 0 0 0 0 -1 0 0 0 0 1 0"
         id="feColorMatrix264" /><feColorMatrix
         id="feColorMatrix265"
         type="hueRotate"
         values="180"
         result="color1"
         in="fbSourceGraphic" /><feColorMatrix
         id="feColorMatrix266"
         values="-1 0 0 0 1 0 -1 0 0 1 0 0 -1 0 1 -0.21 -0.72 -0.07 2 0 "
         result="fbSourceGraphic" /><feColorMatrix
         result="fbSourceGraphicAlpha"
         in="fbSourceGraphic"
         values="0 0 0 -1 0 0 0 0 -1 0 0 0 0 -1 0 0 0 0 1 0"
         id="feColorMatrix267" /><feColorMatrix
         id="feColorMatrix268"
         type="hueRotate"
         values="180"
         result="color1"
         in="fbSourceGraphic" /><feColorMatrix
         id="feColorMatrix269"
         values="-1 0 0 0 1 0 -1 0 0 1 0 0 -1 0 1 -0.21 -0.72 -0.07 2 0 "
         result="color2" /></filter><filter
       style="color-interpolation-filters:sRGB;"
       inkscape:label="Invert"
       id="filter271"
       x="0"
       y="0"
       width="1"
       height="1"><feColorMatrix
         type="hueRotate"
         values="180"
         result="color1"
         id="feColorMatrix270" /><feColorMatrix
         values="-1 0 0 0 1 0 -1 0 0 1 0 0 -1 0 1 -0.21 -0.72 -0.07 2 0 "
         result="color2"
         id="feColorMatrix271" /></filter></defs><g
     inkscape:label="Warstwa 1"
     inkscape:groupmode="layer"
     id="layer1"><path
       style="fill:#307845;fill-opacity:1;stroke-width:0.960668"
       d="m 44.100441,79.34161 c 0,-0.121644 0.393291,-1.162449 0.873979,-2.312899 1.09789,-2.627619 0.744624,-6.774465 -0.842061,-9.884624 -1.142233,-2.238962 -1.144003,-2.239886 -2.72543,-1.422099 -3.2991,1.706032 -7.057852,0.471357 -8.202601,-2.69439 -0.678725,-1.87698 -0.724274,-1.899439 -3.852288,-1.899439 -3.750707,0 -5.769539,-0.923074 -7.778051,-3.556369 -4.260927,-5.586363 -0.562413,-14.075669 6.600266,-15.149779 1.884945,-0.282665 2.395815,-0.582714 2.395815,-1.40713 0,-0.57632 0.372268,-1.767741 0.827262,-2.647602 0.80886,-1.564163 0.785791,-1.636159 -1.037096,-3.236674 -1.899274,-1.667586 -3.583236,-5.465915 -3.573383,-8.060089 0.0086,-2.287227 2.419311,-6.763864 4.61836,-8.576506 2.299766,-1.895662 6.29615,-2.989368 9.023167,-2.469407 4.426812,0.844062 8.491298,4.302152 9.666375,8.22421 0.489067,1.632358 0.852815,2.048065 1.617175,1.848179 0.542399,-0.14184 1.716351,0.106366 2.608781,0.551568 1.506776,0.751679 1.692488,0.730835 2.601654,-0.291997 1.436227,-1.615788 4.993411,-3.087956 7.494257,-3.101557 3.035346,-0.01651 6.689938,1.976185 8.558717,4.666703 2.111153,3.03947 2.154347,6.714198 0.119728,10.186013 -0.791065,1.34985 -1.67158,2.454272 -1.956699,2.454272 -0.285121,0 -0.518401,0.334334 -0.518401,0.742964 0,0.495718 0.89728,0.829182 2.696289,1.002043 5.32534,0.511699 8.903389,4.394203 8.91508,9.673661 0.01256,5.669797 -3.66136,9.147497 -9.663607,9.147497 -2.416866,0 -3.030192,0.175271 -3.030192,0.865944 0,0.476268 -0.828059,1.694002 -1.84013,2.706074 -1.459941,1.459941 -2.273713,1.840131 -3.938688,1.840131 -1.154206,0 -2.62979,-0.372091 -3.279075,-0.826868 -1.093942,-0.766227 -1.238588,-0.736459 -1.972322,0.40591 -0.435491,0.678029 -1.184408,2.602023 -1.664259,4.275542 -0.840927,2.9328 -0.818469,3.507395 0.314721,8.052142 0.170167,0.68247 -0.853951,0.836035 -6.427462,0.963784 -3.646434,0.08358 -6.629881,0.05243 -6.629881,-0.06921 z"
       id="path272" /><path
       style="fill:#1a4b28;fill-opacity:1"
       d="m 34.700174,65.883011 c -0.838089,-0.455052 -1.836673,-1.718131 -2.239866,-2.833142 -0.676995,-1.872196 -0.855156,-1.988075 -2.563796,-1.667532 -1.009933,0.189465 -2.820973,0.07932 -4.024534,-0.244765 -6.313779,-1.700124 -8.850136,-8.046218 -5.500361,-13.762177 1.656015,-2.825777 3.670844,-4.144405 7.271845,-4.759143 2.005253,-0.342322 2.378882,-0.632168 2.675994,-2.075924 0.189931,-0.922927 0.655059,-2.254574 1.033619,-2.959217 0.615998,-1.146604 0.499509,-1.440017 -1.109085,-2.793559 -5.214881,-4.388034 -5.022532,-12.487094 0.40285,-16.962358 3.850848,-3.17647 7.833452,-3.675568 12.392057,-1.552964 3.111651,1.448864 5.559058,4.176153 6.683989,7.44836 0.618003,1.797652 0.946145,2.058272 2.727716,2.166437 1.113861,0.06762 2.37468,0.412998 2.801822,0.767494 0.607093,0.503843 1.073315,0.326944 2.135805,-0.810389 2.037598,-2.181127 4.086605,-3.037989 7.264721,-3.037989 4.952206,0 8.038448,2.010978 9.891093,6.444983 1.347708,3.225519 0.695919,6.589671 -1.815247,9.369231 -2.40234,2.659103 -2.189751,3.903848 0.666733,3.903848 6.444392,0 11.302598,6.593553 9.309011,12.634182 -1.379059,4.178592 -6.1037,7.014426 -10.356999,6.216503 -1.705852,-0.32002 -1.941871,-0.192761 -2.60309,1.403565 -1.501478,3.624889 -5.951261,5.159083 -8.924079,3.076841 -1.005225,-0.704087 -1.449073,-0.750568 -2.08976,-0.218846 -0.695776,0.577443 -0.729749,0.441888 -0.234835,-0.937007 1.125456,-3.135663 3.585346,-5.069577 5.624962,-4.422228 1.106359,0.351144 1.588392,2.528425 0.559774,2.528425 -0.30013,0 -0.399766,-0.380277 -0.221412,-0.84506 0.222414,-0.5796 -0.03385,-0.84506 -0.815793,-0.84506 -1.354172,0 -1.841804,1.025953 -1.13802,2.394337 0.658273,1.279895 2.299162,1.25897 3.478661,-0.04436 1.239058,-1.369144 1.176512,-2.669213 -0.194371,-4.040095 -1.518328,-1.518328 -3.919039,-1.419036 -6.400174,0.264708 -1.127733,0.7653 -2.048044,1.208957 -2.045137,0.985903 0.01424,-1.092344 3.528125,-6.350515 5.172791,-7.740555 2.382929,-2.014006 5.885166,-3.567775 8.996043,-3.991099 1.980626,-0.269521 2.739838,-0.100422 3.994664,0.88973 2.686814,2.120096 1.608707,5.917727 -1.577058,5.555188 -1.337289,-0.152184 -1.697195,-0.492115 -1.840601,-1.73845 -0.143576,-1.247806 0.04827,-1.549277 0.985903,-1.549277 1.416244,0 1.548851,0.95212 0.178263,1.279938 -0.938955,0.22458 -0.938955,0.256244 0,0.664956 2.63708,1.147879 3.703264,-1.809218 1.235343,-3.426262 -1.364797,-0.894249 -1.520586,-0.88458 -2.95771,0.183572 -3.151265,2.342199 -1.413474,6.948393 2.608317,6.913611 4.846561,-0.04191 6.898682,-5.353776 3.526405,-9.128009 -1.552553,-1.737609 -1.857797,-1.839851 -5.492888,-1.839851 -4.965638,0 -8.667691,1.427781 -12.151549,4.686523 -1.485315,1.389338 -2.805945,2.420697 -2.934734,2.291908 -0.351129,-0.351129 1.689808,-7.392447 2.720333,-9.385263 1.027013,-1.986024 2.837539,-2.79151 4.037018,-1.79603 1.083549,0.899266 1.042617,2.587695 -0.07311,3.015841 -1.259176,0.483191 -1.362356,0.445088 -1.362356,-0.503099 0,-0.464783 0.430981,-0.84506 0.957735,-0.84506 0.748052,0 0.808842,-0.148891 0.277662,-0.680071 -0.53118,-0.531181 -0.868736,-0.491408 -1.541808,0.181664 -1.128371,1.128371 -0.479955,2.7519 1.099071,2.7519 1.572891,0 2.587579,-1.011273 2.587579,-2.578872 0,-3.01508 -3.891072,-3.565943 -6.28254,-0.889424 -1.387711,1.553118 -3.566046,7.443525 -4.692744,12.689588 -0.710228,3.306921 -0.903602,0.875292 -0.29181,-3.66944 1.26013,-9.360947 4.053937,-18.200401 6.598217,-20.876399 2.541852,-2.673443 6.038739,-2.590281 7.520736,0.178855 1.311901,2.45131 -0.713544,5.311346 -3.285178,4.638848 -1.947518,-0.509287 -2.248949,-3.577486 -0.351466,-3.577486 0.975757,0 1.034498,0.94129 0.08057,1.291064 -0.559778,0.205252 -0.556598,0.414498 0.01551,1.020188 0.925827,0.98018 2.587114,0.0361 2.833414,-1.610174 0.175119,-1.170498 -1.705897,-2.95457 -3.115118,-2.95457 -1.399971,0 -2.973198,2.218854 -2.973198,4.193353 0,2.316597 1.604977,3.693871 4.304576,3.693871 2.573473,0 3.51286,-0.484372 4.448544,-2.293786 1.395226,-2.698069 1.052567,-4.914397 -1.091245,-7.058209 -1.562914,-1.562914 -2.345758,-1.915469 -4.253276,-1.915469 -2.881407,0 -5.198815,1.147258 -6.767555,3.35035 -1.71835,2.413201 -4.23039,8.758563 -5.384264,13.600543 -0.547289,2.296581 -1.125253,4.555879 -1.284363,5.020662 -0.15911,0.464783 -0.622086,-1.69012 -1.028836,-4.788672 -1.136579,-8.658263 -2.385946,-13.705573 -4.485767,-18.12202 -2.289027,-4.814397 -4.343887,-6.384714 -8.354804,-6.384714 -4.791141,0 -7.651907,2.530542 -7.651907,6.768634 0,4.367118 2.306992,6.752323 6.530908,6.752323 3.943794,0 6.228651,-4.792993 3.746263,-7.858613 -1.131519,-1.397366 -4.117913,-1.729471 -5.468983,-0.608183 -1.992011,1.653223 -0.210586,5.680719 1.991414,4.502245 1.292642,-0.691801 1.434673,-1.669181 0.242563,-1.669181 -0.464783,0 -0.84506,-0.253518 -0.84506,-0.563374 0,-1.118159 2.181901,-0.549707 2.568782,0.669246 0.50795,1.60041 -1.609937,3.463835 -3.351519,2.948836 -2.708756,-0.800998 -3.570001,-4.899075 -1.470756,-6.998321 1.379534,-1.379533 4.841768,-1.505857 6.645507,-0.242469 1.521977,1.066034 3.817024,5.440611 4.61163,8.7902 0.876362,3.694225 2.256323,17.137018 2.216588,21.592735 l -0.03517,3.943613 -1.606798,-6.35742 c -2.350546,-9.300114 -4.88478,-13.078956 -8.771245,-13.078956 -3.967614,0 -4.970761,5.084689 -1.257082,6.371822 1.331521,0.461495 3.553542,-1.432076 3.091965,-2.634924 -0.467675,-1.218742 -1.987522,-1.799763 -2.739866,-1.047419 -0.405215,0.405215 -0.270046,0.55841 0.438813,0.497336 1.291978,-0.111315 1.745656,1.766799 0.538671,2.229962 -1.213785,0.465773 -2.662241,-0.838429 -2.455985,-2.21139 0.423436,-2.818641 4.299357,-2.608796 6.1103,0.330815 1.110716,1.802969 2.824795,6.767889 3.641613,10.548128 l 0.42606,1.971806 -2.652511,-2.444538 c -7.89217,-7.273377 -19.469955,-6.763852 -19.469955,0.85685 0,3.218727 1.842658,5.249614 4.763064,5.249614 2.611644,0 4.250907,-1.624379 4.250907,-4.212311 0,-1.467734 -0.353101,-2.19018 -1.408433,-2.88166 -1.3047,-0.854872 -1.512166,-0.854872 -2.816866,0 -0.846544,0.554677 -1.408433,1.455503 -1.408433,2.258012 0,1.509345 1.564467,2.391849 2.488542,1.403767 0.440189,-0.470679 0.413963,-0.724148 -0.09421,-0.910476 -0.967205,-0.354642 -0.889166,-1.291064 0.107595,-1.291064 1.113924,0 1.584208,0.916916 1.158395,2.258534 -0.24106,0.75951 -0.853109,1.121705 -1.895496,1.121705 -1.954094,0 -2.891576,-0.936743 -2.891576,-2.889299 0,-4.433752 6.063085,-5.001856 12.394209,-1.161323 2.30335,1.397239 7.323851,7.698621 7.323851,9.192387 0,0.292923 -0.946163,-0.110347 -2.102584,-0.896155 -1.156422,-0.785809 -2.747879,-1.428744 -3.536572,-1.428744 -3.245597,0 -5.113929,3.250763 -3.052887,5.311805 0.970928,0.970928 1.395901,1.055492 2.730548,0.543339 1.094892,-0.420149 1.163529,-2.110875 0.120825,-2.976243 -0.583562,-0.484313 -0.930715,-0.446028 -1.431947,0.157919 -0.51095,0.615657 -0.495897,0.863722 0.0661,1.089217 0.499496,0.200418 0.517298,0.305944 0.05676,0.336472 -1.054703,0.06991 -1.46591,-1.049607 -0.716984,-1.952008 0.374471,-0.451209 1.152851,-0.820381 1.729733,-0.820381 1.560389,0 4.393187,2.831543 5.001588,4.999372 0.517802,1.845009 0.501961,1.87231 -0.539499,0.9298 -0.988868,-0.894912 -1.173806,-0.900388 -2.359555,-0.06986 -1.585316,1.110398 -4.202261,1.125114 -6.210121,0.03492 z"
       id="path271" /></g></svg>
