<?xml version="1.0" encoding="UTF-8" standalone="no"?>
<!-- Created with Inkscape (http://www.inkscape.org/) -->

<svg
   width="100mm"
   height="100mm"
   viewBox="0 0 100 100"
   version="1.1"
   id="svg1"
   inkscape:version="1.4 (86a8ad7, 2024-10-11)"
   sodipodi:docname="tree1.svg"
   xml:space="preserve"
   xmlns:inkscape="http://www.inkscape.org/namespaces/inkscape"
   xmlns:sodipodi="http://sodipodi.sourceforge.net/DTD/sodipodi-0.dtd"
   xmlns="http://www.w3.org/2000/svg"
   xmlns:svg="http://www.w3.org/2000/svg"><sodipodi:namedview
     id="namedview1"
     pagecolor="#ffffff"
     bordercolor="#000000"
     borderopacity="0.25"
     inkscape:showpageshadow="2"
     inkscape:pageopacity="0.0"
     inkscape:pagecheckerboard="true"
     inkscape:deskcolor="#d1d1d1"
     inkscape:document-units="mm"
     inkscape:zoom="1.4378367"
     inkscape:cx="115.79896"
     inkscape:cy="151.96441"
     inkscape:window-width="1920"
     inkscape:window-height="1009"
     inkscape:window-x="1912"
     inkscape:window-y="-8"
     inkscape:window-maximized="1"
     inkscape:current-layer="layer1" /><defs
     id="defs1" /><g
     inkscape:label="Warstwa 1"
     inkscape:groupmode="layer"
     id="layer1"><path
       style="fill:#307845;fill-opacity:1;stroke-width:0.958949"
       d="m 41.847779,82.820658 c 0,-0.138478 0.503845,-1.070629 1.119655,-2.071449 1.334531,-2.168888 1.782529,-3.460445 2.769707,-7.984929 l 0.74558,-3.417179 -5.598285,-0.126752 C 35.4741,69.097852 35.238505,69.057215 33.866913,68.009902 33.086332,67.41387 32.219794,66.296015 31.941273,65.52578 31.527682,64.382015 31.28852,64.171675 30.636332,64.378105 c -3.618749,1.145402 -7.608976,0.344749 -9.51117,-1.908449 -2.36267,-2.798642 -2.999991,-5.685053 -1.922861,-8.708592 0.545055,-1.52999 0.534664,-1.570199 -0.782548,-3.028196 -2.063872,-2.284458 -2.67688,-3.79081 -2.86388,-7.037443 -0.158438,-2.750714 -0.07903,-3.128829 1.157716,-5.512781 1.405387,-2.709022 3.837074,-4.782944 6.376837,-5.438637 1.103339,-0.284851 1.256276,-0.504573 1.438647,-2.066872 0.356586,-3.054726 2.129542,-4.765098 5.277551,-5.091259 1.732744,-0.179527 1.977986,-0.325703 2.318731,-1.382071 0.680265,-2.10894 2.40822,-4.279568 4.37458,-5.495276 3.534527,-2.185229 8.714553,-1.790494 11.768554,0.896804 0.662927,0.583326 0.813235,0.506112 2.221184,-1.141047 0.854924,-1.000176 2.508313,-2.271743 3.810728,-2.930705 3.077997,-1.557324 7.508083,-1.655307 10.672335,-0.236046 3.503314,1.57134 6.550299,5.584923 7.05934,9.29878 0.235832,1.720591 0.284263,1.773226 1.631567,1.773226 3.631689,0 6.652497,3.657083 6.281122,7.604119 -0.105736,1.123786 -0.318533,2.341868 -0.472881,2.706849 -0.222694,0.526594 0.05185,0.763214 1.329775,1.14609 3.884426,1.163803 6.723453,5.312514 6.723453,9.825082 0,1.441174 -0.205301,3.222647 -0.456224,3.958828 -0.759517,2.22834 -2.621309,4.609799 -4.434693,5.672513 l -1.715633,1.005427 -0.151957,2.689254 c -0.25906,4.58473 -2.775177,7.17096 -7.254013,7.456151 -2.173161,0.138376 -2.737859,0.01966 -4.321737,-0.908554 l -1.821941,-1.067728 -1.045907,0.997633 c -1.755812,1.674776 -2.983864,1.93083 -7.83844,1.634356 l -4.429915,-0.27054 0.0067,1.318599 c 0.01125,2.197268 1.451633,7.065754 2.929706,9.902361 0.76726,1.472468 1.395017,2.757143 1.395017,2.854834 0,0.09769 -3.721127,0.17762 -8.269172,0.17762 -4.548044,0 -8.269172,-0.1133 -8.269172,-0.251777 z"
       id="path257"
       sodipodi:nodetypes="csscsssssssssssssssssssssssssscssscssccssscc" /><path
       style="fill:#1a4b28;fill-opacity:1;stroke-width:0.958949"
       d="m 35.153889,68.454329 c -1.46847,-0.585559 -2.679533,-1.871807 -3.174504,-3.371584 -0.377109,-1.142652 -0.563588,-1.290682 -1.291181,-1.024963 -0.467727,0.170815 -2.027107,0.586596 -3.690196,0.586596 -3.451716,0 -4.619878,-0.780851 -6.585426,-3.559693 -1.42299,-2.011788 -1.818906,-5.394712 -0.89121,-7.615 0.588431,-1.408314 0.581423,-1.435531 -0.685907,-2.663875 -5.536014,-5.365716 -3.376316,-15.443072 3.753803,-17.515606 l 2.20196,-0.64005 0.02687,-1.777277 c 0.01478,-0.977504 0.323514,-2.23002 0.686084,-2.78337 0.840782,-1.283197 3.890473,-2.655199 5.282945,-2.376705 0.964467,0.192893 1.107936,0.0479 1.754845,-1.773515 1.765658,-4.971325 7.810525,-7.919907 12.348979,-6.023621 0.793537,0.331562 2.034307,1.054008 2.757266,1.605435 l 1.314471,1.002596 1.856885,-1.976612 c 3.876762,-4.126723 9.424105,-5.259323 14.104602,-2.879731 4.143727,2.106694 5.937612,4.659388 7.036618,10.013089 0.200459,0.976523 0.386596,1.082868 1.895345,1.082868 2.1152,0 4.245862,1.385817 5.190152,3.375761 0.694369,1.463273 0.708586,4.964697 0.02665,6.563614 -0.206856,0.485011 -0.07879,0.754163 0.43747,0.919367 3.496717,1.118964 5.913456,3.130924 7.056777,5.87484 0.992047,2.380868 0.890499,6.607381 -0.220416,9.173932 -0.948973,2.192412 -3.40594,4.65734 -5.054802,5.071178 -0.836932,0.210057 -0.913039,0.393904 -0.704062,1.70077 0.348279,2.178018 -0.758064,5.450243 -2.350521,6.952124 -2.402963,2.266285 -6.985863,2.485674 -9.765577,0.46749 -1.030091,-0.747887 -1.170636,-0.764803 -1.497754,-0.180274 -0.703908,1.257811 -3.363322,2.260739 -5.661705,2.135163 l -2.149644,-0.117449 1.863213,-1.378196 c 1.024768,-0.758007 2.903367,-2.763542 4.174666,-4.456744 2.648984,-3.528096 4.136061,-4.596411 6.401029,-4.598496 2.837821,-0.0026 4.43983,2.803319 2.567785,4.497497 -1.549097,1.401914 -4.130556,-0.186697 -2.659679,-1.636747 0.669662,-0.660182 0.732921,-0.660886 1.213569,-0.01351 0.57387,0.772933 1.019867,0.526112 1.019867,-0.564409 0,-0.819754 -1.360121,-1.479247 -2.458423,-1.192035 -0.944752,0.247059 -1.873048,1.611991 -1.873048,2.754062 0,1.45682 1.679438,2.847761 3.438417,2.847761 4.842971,0 5.720295,-6.17342 1.208866,-8.506371 -1.500713,-0.776048 -4.151297,-0.668755 -6.176212,0.250007 -0.949198,0.430678 -2.810138,1.888658 -4.135424,3.239955 -1.325286,1.351297 -2.940823,2.894721 -3.590083,3.429831 -0.649259,0.535109 0.502895,-0.767605 2.560344,-2.894922 3.868718,-4.000094 3.877068,-4.219448 0.09844,-2.586379 -0.920438,0.397801 -1.673524,0.61376 -1.673524,0.479909 0,-0.80031 6.033957,-7.923171 8.219676,-9.703019 3.538576,-2.881492 5.359642,-3.791285 7.588737,-3.791285 1.588123,0 1.987042,0.173281 2.901889,1.260514 0.870401,1.034413 1.024292,1.531602 0.857941,2.771833 -0.250992,1.871289 -0.782232,2.537932 -2.285569,2.86812 -1.512835,0.332274 -3.106949,-0.662693 -3.106949,-1.939204 0,-1.157412 0.947922,-1.985791 1.865393,-1.630148 0.660612,0.256076 0.660854,0.293555 0.005,0.776561 -1.096346,0.807427 -0.868469,1.798875 0.413459,1.798875 1.443032,0 2.047604,-0.654265 2.047604,-2.21591 0,-0.91561 -0.300964,-1.507599 -1.076653,-2.117756 -2.967581,-2.334301 -6.883342,1.912023 -5.190114,5.628254 1.003074,2.201509 4.888293,2.966796 7.372529,1.452196 1.448483,-0.883117 2.809755,-3.448824 2.823292,-5.321297 0.01497,-2.071168 -1.55814,-4.567576 -3.535283,-5.610221 -2.265679,-1.194804 -4.612565,-1.077926 -7.742599,0.544024 -3.227701,1.67256 -3.68623,2.218723 -2.173144,0.538869 1.575698,-1.749367 1.634529,-5.272567 0.06248,-7.480309 -1.079691,-1.516287 -3.478035,-2.741215 -5.389639,-2.752701 l -2.860937,0.336028 2.665433,-0.984167 c 2.733477,-1.009291 3.994713,-5.546585 2.811535,-8.669334 -1.4009,-3.697382 -6.508998,-5.516824 -10.408678,-3.707444 -2.850499,1.322579 -5.519448,5.107149 -6.919389,9.811694 l -0.505864,1.699971 -0.94992,-2.37424 c -1.092825,-2.731423 -3.459696,-5.616641 -5.198371,-6.336824 -0.701533,-0.290585 -2.098996,-0.420919 -3.376889,-0.314947 -3.477836,0.28841 -5.667094,2.39856 -5.99153,5.77503 -0.495896,5.160881 5.118398,8.579944 8.648665,5.266973 1.311322,-1.230607 1.6974,-2.824312 1.113094,-4.594777 -0.81678,-2.474867 -3.326315,-3.308963 -5.295441,-1.760049 -1.277952,1.005237 -1.281492,2.90702 -0.007,3.748021 0.691642,0.456386 0.925296,0.448411 1.575081,-0.05376 0.722592,-0.558434 0.7265,-0.617981 0.07387,-1.12526 -0.989636,-0.769225 -0.850744,-1.110367 0.39377,-0.96717 0.950428,0.109358 1.082868,0.292508 1.082868,1.497487 0,1.105819 -0.208431,1.472788 -1.071453,1.886423 -0.907389,0.434901 -1.256676,0.417751 -2.281095,-0.111996 -1.588793,-0.821598 -2.156311,-2.309303 -1.597115,-4.186721 0.527382,-1.770609 1.878467,-2.701411 3.921171,-2.701411 2.764956,0 4.874262,2.505974 5.965934,7.087861 0.619332,2.599417 0.726413,12.429048 0.208045,19.09785 -0.470671,6.055198 -0.91598,4.713649 -0.980299,-2.953275 -0.03897,-4.645465 -0.183852,-6.009008 -0.77732,-7.315697 -1.025454,-2.257827 -2.506809,-3.316096 -4.641836,-3.316096 -3.405248,0 -5.416938,2.137087 -4.496672,4.776966 0.680464,1.951981 0.230289,1.769306 -0.779302,-0.316231 -1.174333,-2.425848 -3.7738,-5.013955 -5.66179,-5.637048 -4.587991,-1.514173 -9.268739,1.47592 -9.268739,5.920932 0,3.542159 2.269294,5.887174 5.697079,5.887174 1.594028,0 2.056788,-0.193482 3.202125,-1.338819 1.072382,-1.072382 1.338818,-1.649541 1.338818,-2.900172 0,-2.005189 -1.169007,-3.524546 -2.972075,-3.862804 -2.443451,-0.458393 -4.414789,1.7401 -3.347875,3.733648 0.609881,1.139572 2.776019,1.168191 2.776019,0.03668 0,-0.433148 -0.177196,-0.787541 -0.39377,-0.787541 -0.216573,0 -0.39377,-0.189521 -0.39377,-0.421157 0,-0.231637 0.398693,-0.364534 0.885983,-0.295328 0.639869,0.09088 0.921233,0.43325 1.012878,1.23251 0.163672,1.427412 -0.53117,2.240366 -1.914871,2.240366 -1.654391,0 -2.313376,-0.368611 -2.986678,-1.670634 -1.369977,-2.649242 0.463457,-5.417228 3.588214,-5.417228 3.681876,0 5.607057,2.676293 8.149401,11.328898 1.653533,5.627626 3.2224,9.500315 4.675231,11.540629 0.468315,0.657685 0.761446,1.285826 0.651404,1.395869 -0.362118,0.362118 -2.13276,-2.348541 -4.018553,-6.151972 -1.946917,-3.926709 -3.235244,-5.608902 -5.002885,-6.532361 -2.46502,-1.287786 -6.146821,-0.22136 -7.562895,2.190577 -0.924707,1.575012 -0.944933,4.389157 -0.04146,5.768036 0.860583,1.313416 3.129424,2.247038 4.730643,1.946647 2.836374,-0.532107 4.063224,-3.911898 2.156676,-5.941325 -1.319628,-1.40468 -3.501057,-1.252009 -4.239732,0.296725 -0.620481,1.300926 -0.0632,2.665472 1.088566,2.665472 0.875182,0 1.384327,-0.621391 0.803349,-0.980455 -0.657288,-0.406227 -0.453954,-0.988395 0.345218,-0.988395 0.839108,0 1.315373,0.877323 0.96787,1.782904 -0.577172,1.504084 -3.31083,1.615495 -4.086289,0.166538 -0.601302,-1.123542 -0.450507,-2.960612 0.321253,-3.913695 0.474234,-0.585654 1.292235,-0.936419 2.501687,-1.072743 1.64773,-0.185722 1.910098,-0.08951 3.157574,1.157971 0.901999,0.901999 1.735939,2.410038 2.474442,4.474608 1.596704,4.463763 2.849363,6.629832 4.994486,8.636343 l 1.88424,1.762487 -2.247309,-0.02496 C 37.14936,68.857988 35.695171,68.67015 35.153847,68.454295 Z m 6.134492,-11.319266 c -0.772177,-1.271141 -2.085507,-4.239184 -2.918511,-6.595649 -0.833003,-2.356466 -1.659324,-4.638876 -1.836267,-5.072024 -0.219243,-0.536692 -0.04216,-0.442625 0.55596,0.295328 1.135114,1.400494 2.853541,1.44826 4.18546,0.116341 1.109811,-1.109811 1.235246,-2.412291 0.353543,-3.671098 -0.718459,-1.025745 -1.832633,-1.129678 -2.709555,-0.252755 -0.725527,0.725527 -0.452871,1.415365 0.497398,1.258449 0.920538,-0.152005 0.872704,1.414332 -0.04861,1.591761 -1.78054,0.342901 -2.534252,-2.396081 -1.063952,-3.866381 1.568382,-1.568382 3.923832,-0.656331 4.747071,1.838108 0.374359,1.134321 0.368474,2.4335 -0.02759,6.090477 -0.276901,2.556719 -0.402548,5.982837 -0.279214,7.613595 0.123334,1.630757 0.162139,2.965014 0.08624,2.965014 -0.0759,0 -0.76979,-1.040024 -1.541968,-2.311166 z m 14.35644,0.539201 c -0.0036,-0.216574 0.264555,-1.279753 0.595923,-2.362621 0.331366,-1.082868 1.045313,-4.528648 1.586547,-7.657288 1.106765,-6.39774 1.854984,-8.441894 3.639628,-9.943573 2.47171,-2.079807 5.776544,-1.770308 6.924326,0.648466 0.805045,1.696505 0.787898,2.113649 -0.150126,3.652087 -0.962251,1.578173 -2.414307,2.005845 -3.777568,1.112603 -1.336856,-0.875942 -1.252875,-3.099547 0.124452,-3.295159 0.933398,-0.132563 1.298613,0.907084 0.421369,1.199498 -0.713228,0.237743 -0.05383,1.485837 0.784996,1.485837 0.948014,0 2.042239,-1.206378 2.042239,-2.251559 0,-1.189295 -1.201517,-2.437217 -2.60786,-2.708584 -1.756714,-0.338973 -3.659803,1.40071 -3.957042,3.61728 -0.188681,1.407027 -0.05749,1.790898 1.038817,3.039518 1.411863,1.608022 3.143064,2.159594 4.939527,1.482377 2.088762,-0.787405 0.991266,-0.263696 -0.594753,1.045141 -2.309349,1.905754 -5.966364,5.563815 -8.767736,8.770241 -1.229896,1.407728 -2.239128,2.382309 -2.242739,2.165736 z M 52.317882,46.553715 c -0.337969,-6.217173 0.248462,-12.486318 1.550407,-16.574387 1.753947,-5.507338 3.571748,-7.330122 7.013958,-7.033187 2.383925,0.205645 3.774464,1.461684 4.071719,3.677884 0.173831,1.296014 0.02867,1.769903 -0.868872,2.836576 -0.940799,1.118077 -1.283016,1.265572 -2.696231,1.162073 -1.316979,-0.09645 -1.71428,-0.318968 -2.131696,-1.193891 -0.62553,-1.311142 -0.06069,-2.665472 1.111662,-2.665472 0.909696,0 1.035121,0.711935 0.18303,1.038912 -0.852322,0.327067 -0.725807,1.223669 0.246059,1.743795 0.680755,0.364329 1.029387,0.304085 1.870407,-0.323204 2.855175,-2.129583 0.230916,-5.986697 -3.283929,-4.826694 -1.807778,0.596621 -2.634223,1.655195 -2.860662,3.664154 -0.365953,3.246727 1.636097,5.376699 5.091438,5.416755 l 2.394635,-0.187387 -2.425555,1.04239 c -3.322083,1.427676 -5.556727,5.632971 -7.551099,13.301096 -0.478786,1.840876 -0.998685,3.489859 -1.155331,3.664408 -0.156646,0.17455 -0.408619,-1.960169 -0.55994,-4.743819 z"
       id="path256"
       sodipodi:nodetypes="cssssssscsssssscssssssssssssssscsssssssssssssssssssssssssssssssssssccsssscsssssssssssssssssssssssssssssssssssssssssssssssssssssssssscsccsssssssssssssssssssssssssssssssssssssssssssssssscsssss" /></g></svg>
