<?xml version="1.0" encoding="UTF-8" standalone="no"?>
<!-- Created with Inkscape (http://www.inkscape.org/) -->

<svg
   width="100mm"
   height="100mm"
   viewBox="0 0 100 100"
   version="1.1"
   id="svg1"
   inkscape:version="1.4 (86a8ad7, 2024-10-11)"
   sodipodi:docname="tree2.svg"
   xml:space="preserve"
   xmlns:inkscape="http://www.inkscape.org/namespaces/inkscape"
   xmlns:sodipodi="http://sodipodi.sourceforge.net/DTD/sodipodi-0.dtd"
   xmlns="http://www.w3.org/2000/svg"
   xmlns:svg="http://www.w3.org/2000/svg"><sodipodi:namedview
     id="namedview1"
     pagecolor="#ffffff"
     bordercolor="#000000"
     borderopacity="0.25"
     inkscape:showpageshadow="2"
     inkscape:pageopacity="0.0"
     inkscape:pagecheckerboard="true"
     inkscape:deskcolor="#d1d1d1"
     inkscape:document-units="mm"
     inkscape:zoom="1.4378367"
     inkscape:cx="26.080848"
     inkscape:cy="167.26517"
     inkscape:window-width="1920"
     inkscape:window-height="1009"
     inkscape:window-x="1912"
     inkscape:window-y="-8"
     inkscape:window-maximized="1"
     inkscape:current-layer="layer1" /><defs
     id="defs1" /><g
     inkscape:label="Warstwa 1"
     inkscape:groupmode="layer"
     id="layer1"><path
       style="fill:#307845;fill-opacity:1;stroke-width:0.969781"
       d="m 43.839365,80.077718 c 2.464879,-4.550913 4.079854,-15.192316 2.708189,-17.844822 -1.415078,-2.73646 -4.958896,-4.583784 -7.492548,-3.905721 -1.189985,0.318467 -2.433528,0.05 -2.433528,2.431557 0,4.157606 -1.147754,6.871515 -5.013127,6.586975 -2.586204,-0.190377 -4.396245,-1.397619 -5.355584,-3.572011 -0.622026,-1.409853 -0.91568,-1.632075 -2.463383,-1.864168 -4.408126,-0.661039 -7.485357,-5.097247 -6.380905,-9.198865 0.859646,-3.192485 3.854151,-4.765957 7.105923,-4.765957 2.460324,0 2.340202,-2.229764 -0.327761,-3.453716 -3.429413,-1.573274 -5.291808,-4.82888 -4.515818,-8.965261 0.301451,-1.606875 2.659606,-4.538295 3.990625,-4.960744 0.600451,-0.190575 0.738485,-0.479499 0.535152,-1.120145 -0.533275,-1.6802 -0.203505,-4.464666 0.724259,-6.115398 1.197539,-2.130732 3.151174,-3.31013 6.000382,-3.622397 l 2.283944,-0.250314 0.517793,-2.043769 c 0.963116,-3.801494 5.043742,-6.406016 9.086715,-5.799735 3.397649,0.509509 5.652214,3.836337 5.652214,6.978565 0,1.172783 0.800377,1.138539 1.621015,0.918617 0.509844,-0.136634 1.669675,-0.250955 2.5774,-0.25405 1.430039,-0.0048 2.164115,0.09974 2.631692,-0.956591 1.531448,-3.45978 6.519956,-3.693055 9.487388,-0.725622 0.607815,0.607814 0.595463,0.370243 2.106612,-0.400687 5.607283,-2.860622 11.860739,1.178334 11.452318,7.686021 l -0.13669,2.177979 1.853983,0.978498 c 3.293291,1.738139 4.631549,5.749879 3.034951,9.097978 -0.661011,1.386154 -0.651828,1.439095 0.514995,2.968877 1.056673,1.38537 1.188006,1.887497 1.188006,4.542082 0,2.428502 -0.168807,3.212847 -0.906095,4.210084 -0.897452,1.213869 -0.898418,1.232508 -0.101262,1.953926 1.028785,0.931037 1.769749,3.668034 1.478648,5.461879 -0.349123,2.151392 -2.060744,4.071705 -4.355734,4.886813 -1.762832,0.626102 -2.035709,0.881631 -2.231783,2.089898 -0.523926,3.228576 -3.633895,5.874746 -6.904424,5.874746 -2.102459,0 -4.106341,-1.815687 -4.994635,-3.512607 -0.863007,-1.648615 -0.883942,-3.923827 -0.17068,-5.489265 0.573332,-1.258328 -0.721112,-1.530693 -2.968567,-1.963265 -2.113975,-0.406881 -4.463229,0.511572 -6.488286,2.536629 -1.727533,1.727532 -1.814739,1.929439 -1.811763,4.194708 0.0083,6.330613 1.463151,12.936734 3.514792,15.959996 l 0.989204,1.457673 h -8.599871 -8.599872 z"
       id="path258"
       sodipodi:nodetypes="ssssssssssssssscsssscsssscsssssssssssssscscccs" /><path
       style="fill:#1a4b28;fill-opacity:1;stroke-width:0.985161"
       d="m 68.343851,68.134879 c -0.817265,-0.555345 -1.832907,-1.788018 -2.267762,-2.752356 -0.781303,-1.73262 -0.693993,-2.992576 0.381141,-5.500151 0.192195,-0.448263 0.03423,-0.784102 -0.465607,-0.989932 -3.157075,-1.300045 -5.866413,-0.658917 -8.405728,1.514643 -1.4444,1.236353 -1.658259,1.081163 -1.451464,0.290379 0.441009,-1.686424 3.929081,-4.832008 5.957392,-5.37245 3.296263,-0.878284 7.854586,0.166504 10.461333,2.397782 2.831026,2.423253 3.175291,6.150879 0.673346,7.290841 -2.070081,0.943191 -4.414961,-0.650941 -3.80134,-2.584286 0.302795,-0.954025 2.154367,-1.551017 2.801961,-0.903422 0.501391,0.501389 0.159586,1.755321 -0.478477,1.755321 -0.230192,0 -0.302792,-0.301611 -0.161334,-0.670246 0.186712,-0.486564 0.04924,-0.629938 -0.501618,-0.523164 -0.417348,0.08089 -0.829915,0.360645 -0.916814,0.621666 -0.172825,0.51912 0.960747,1.827338 1.58339,1.827338 0.617952,0 2.062762,-1.612324 2.062762,-2.301922 0,-0.34529 -0.376679,-1.004476 -0.837063,-1.464861 -2.5191,-2.5191 -6.171096,1.094772 -4.316071,4.271014 1.958301,3.353075 7.081447,2.106188 7.834276,-1.90673 0.712063,-3.795628 -2.729279,-7.837645 -8.08623,-9.497655 l -2.266102,-0.702219 2.266102,-0.564978 c 3.43424,-0.856212 9.479633,-0.772589 11.177875,0.15462 2.386318,1.302887 2.720414,3.831091 0.682706,5.16625 -0.929168,0.608813 -1.102676,0.607063 -2.060914,-0.02079 -0.57548,-0.377071 -1.046328,-1.034857 -1.046328,-1.461749 0,-0.995932 1.060247,-1.880242 1.878061,-1.566418 0.700705,0.268886 0.877459,1.524819 0.214596,1.524819 -0.230193,0 -0.418531,-0.226007 -0.418531,-0.502236 0,-0.39063 -0.11161,-0.39063 -0.502237,0 -0.656895,0.656892 0.109967,1.47538 1.190209,1.270338 0.981913,-0.186378 1.258388,-2.113798 0.404825,-2.822192 -1.043389,-0.865936 -2.902776,-0.388749 -3.519099,0.903129 -0.700604,1.468546 0.02592,3.19382 1.678488,3.985873 0.937014,0.449099 1.373471,0.43803 2.578321,-0.06538 1.855675,-0.775351 2.510462,-2.012106 2.218397,-4.190085 -0.491933,-3.668433 -4.209946,-5.136563 -12.001,-4.738829 -4.881771,0.249215 -8.940513,1.313645 -12.440321,3.262553 l -2.186301,1.217466 0.249869,-1.357604 c 0.793911,-4.313527 4.105202,-8.322071 8.785148,-10.635027 2.668288,-1.318739 3.651139,-1.575138 6.639096,-1.731966 4.405391,-0.231225 6.127175,0.08889 7.729347,1.437026 2.6003,2.188008 1.01502,6.404913 -2.008138,5.341724 -0.922374,-0.32438 -1.118527,-0.648484 -1.118527,-1.848144 0,-1.259368 0.135863,-1.454782 1.011451,-1.454782 0.556298,0 1.104858,0.282509 1.219023,0.627797 0.171318,0.518145 0.09573,0.535519 -0.432756,0.09947 -0.521404,-0.430202 -0.737893,-0.410769 -1.165638,0.104633 -1.0579,1.27469 1.227399,2.582113 2.423199,1.386314 0.869314,-0.869314 0.597417,-2.764352 -0.499773,-3.483259 -3.233224,-2.11849 -6.149157,2.890531 -3.151191,5.413151 4.092119,3.443292 9.07767,-2.076762 6.049601,-6.698181 -0.359176,-0.548173 -1.450734,-1.422862 -2.425685,-1.943756 -1.580227,-0.844278 -2.36322,-0.947079 -7.213544,-0.947079 -5.067641,0 -5.610379,0.07938 -7.911195,1.156984 -1.358659,0.636341 -2.54239,1.084883 -2.630513,0.996759 -0.244279,-0.244278 6.064298,-6.032589 8.10519,-7.436761 3.728995,-2.565616 7.665063,-3.198804 9.269329,-1.491142 1.830794,1.948791 0.842226,4.634714 -1.619643,4.400548 -1.297502,-0.123414 -1.446387,-0.266821 -1.446387,-1.39317 0,-0.98345 0.204109,-1.284582 0.941696,-1.389336 0.626392,-0.08896 0.941695,0.08181 0.941695,0.510028 0,0.40029 -0.237439,0.552657 -0.627796,0.402863 -0.404198,-0.155106 -0.627797,0.0089 -0.627797,0.460776 0,0.909088 1.624614,0.710699 2.241585,-0.27373 0.569552,-0.908771 -0.703051,-2.431055 -2.032319,-2.431055 -2.029474,0 -3.130699,3.308697 -1.569493,4.715635 2.109864,1.901382 5.216797,0.989252 5.953841,-1.747922 0.845689,-3.140653 -1.099419,-5.503073 -4.782456,-5.808499 l -2.287935,-0.189733 0.760468,-1.519093 c 1.135084,-2.267422 1.36851,-3.678151 0.89783,-5.426123 -0.643314,-2.389089 -2.481315,-3.913804 -5.010996,-4.156872 -1.965485,-0.188859 -2.197524,-0.106262 -3.577084,1.273298 -1.886667,1.886666 -2.071358,4.34916 -0.447953,5.972566 1.386867,1.386866 3.567965,1.517527 4.936768,0.295739 0.914683,-0.816441 0.958066,-3.168323 0.07473,-4.051651 -1.255353,-1.255353 -3.527621,-0.579724 -3.527621,1.048893 0,1.070531 1.166679,1.897993 1.792997,1.271675 0.390217,-0.390216 0.365678,-0.586134 -0.11025,-0.880275 -0.76254,-0.471275 -0.277067,-1.034958 0.601125,-0.697965 0.930874,0.35721 0.794427,1.839262 -0.219281,2.381783 -1.261595,0.675185 -2.901654,-0.484896 -2.901654,-2.052459 0,-1.553779 1.181481,-2.566407 2.994352,-2.566407 2.095693,0 3.283618,1.387617 3.283618,3.835595 0,2.919434 -2.01784,5.375139 -7.689734,9.358376 -2.153362,1.512256 -2.816916,1.81755 -2.639154,1.214241 1.120867,-3.804117 1.449958,-10.464475 0.660216,-13.361882 -0.828188,-3.038463 -3.087624,-4.514696 -5.426898,-3.545737 -2.257459,0.93507 -2.522678,4.543004 -0.38386,5.22184 2.019458,0.640949 3.760353,-0.726753 3.103581,-2.438273 -0.292857,-0.763172 -1.637088,-1.304817 -2.269003,-0.914271 -0.547117,0.338137 -0.550191,1.885706 -0.0038,1.885706 0.230193,0 0.418531,-0.18834 0.418531,-0.418531 0,-0.230193 0.188339,-0.418532 0.418531,-0.418532 0.676999,0 0.478814,1.258733 -0.241719,1.535227 -1.005093,0.385691 -2.007188,-0.855696 -1.694961,-2.099706 0.508283,-2.025163 3.166026,-1.928187 4.243193,0.154825 1.032039,1.995743 0.822504,7.998911 -0.430064,12.321261 -1.283181,4.427987 -2.120146,6.117645 -4.368024,8.818131 -0.952364,1.144121 -2.429331,3.528445 -3.282148,5.298497 -0.852816,1.770051 -1.647638,3.22968 -1.766272,3.243618 -0.118634,0.01394 -0.648646,-1.664823 -1.177806,-3.730581 -0.529161,-2.065757 -1.453205,-4.937929 -2.053432,-6.382604 -0.950361,-2.287402 -1.095558,-3.248368 -1.124117,-7.43979 -0.03802,-5.581255 0.631254,-7.583757 2.895542,-8.663521 1.201451,-0.572933 1.460855,-0.568452 2.648602,0.04576 1.626579,0.841137 2.093073,2.377631 1.156053,3.807703 -0.783783,1.196206 -2.37115,1.384634 -3.20459,0.3804 -0.599195,-0.721987 -0.159471,-1.855201 0.850515,-2.191863 0.409562,-0.136521 0.478713,0.109206 0.267525,0.950645 -0.236741,0.943249 -0.158417,1.110662 0.464096,0.991987 0.89942,-0.171464 1.221689,-1.823584 0.520518,-2.668443 -0.723622,-0.871912 -1.910989,-0.744235 -2.894296,0.311222 -2.69931,2.897368 2.001788,6.311664 4.81583,3.497621 1.519716,-1.519716 1.431883,-4.073414 -0.196095,-5.701392 -1.157059,-1.157059 -2.079613,-1.439669 -4.008242,-1.227863 -2.672619,0.293512 -4.361752,2.672354 -5.344182,7.526325 l -0.541445,2.675162 -1.524241,-2.064163 C 43.175341,28.84423 41.706083,27.162 40.748655,26.241231 c -2.23849,-2.152782 -2.997914,-3.638674 -3.032608,-5.933617 -0.049,-3.241208 2.508476,-5.40528 5.112967,-4.326465 1.508501,0.624841 2.370722,2.498592 1.714218,3.725281 -0.777189,1.452191 -2.016406,1.884601 -3.192507,1.11399 -0.560045,-0.366956 -1.018263,-0.938732 -1.018263,-1.270614 0,-0.730755 1.524765,-1.631677 1.855588,-1.096393 0.127743,0.206694 -0.08261,0.496632 -0.467438,0.644306 -0.621956,0.238667 -0.629944,0.338256 -0.07191,0.896298 0.89761,0.897611 2.032004,0.318044 2.032004,-1.038158 0,-1.437541 -0.700896,-2.131585 -2.15263,-2.131585 -1.94323,0 -3.102492,2.604889 -2.041518,4.587337 1.16267,2.172468 5.56472,1.724956 6.659107,-0.676963 1.758299,-3.859046 -2.135101,-8.095899 -6.30553,-6.861767 -2.80419,0.829829 -4.743854,4.239327 -4.226267,7.428839 0.234296,1.443801 0.199056,1.499888 -0.761492,1.211964 -3.790927,-1.136324 -6.95926,-0.404703 -8.140626,1.879808 -1.290802,2.496135 -0.383894,5.714072 1.873966,6.649308 3.30295,1.368127 6.386692,-2.079465 4.398708,-4.91771 -0.82564,-1.178768 -2.718728,-1.224988 -3.744588,-0.09142 -1.355592,1.497913 0.384986,3.842021 1.801223,2.425783 0.682799,-0.682799 0.632862,-1.23534 -0.09811,-1.085602 -0.330192,0.06764 -0.612702,-0.06535 -0.627797,-0.295552 -0.05953,-0.907687 1.441924,-0.38672 1.574174,0.546202 0.289271,2.040557 -1.742848,2.870087 -3.275745,1.337189 -1.830365,-1.830365 -0.172127,-5.031638 2.596797,-5.013184 4.684304,0.03122 10.571521,5.716167 13.435912,12.974292 1.179095,2.987729 2.594181,8.068391 2.952695,10.601225 l 0.228147,1.611812 -2.177844,-2.05755 c -4.327547,-4.088512 -8.25877,-5.560654 -14.849233,-5.560654 -4.080131,0 -5.255714,-0.332244 -6.467114,-1.827744 -2.219627,-2.740174 0.844522,-6.956592 3.697161,-5.087472 1.918719,1.257193 0.80595,4.526411 -1.269594,3.729952 -0.716461,-0.274933 -0.920191,-1.837113 -0.239585,-1.837113 0.230193,0 0.418532,0.282509 0.418532,0.627797 0,0.821286 0.592187,0.799358 1.295406,-0.04796 0.48081,-0.579339 0.421783,-0.788366 -0.413651,-1.46486 -1.225703,-0.992514 -1.520938,-0.986972 -2.55588,0.04797 -1.060341,1.060341 -1.053999,1.703982 0.03037,3.082542 1.067044,1.356528 2.7645,1.449259 4.30776,0.235332 1.486977,-1.169656 1.529821,-3.611782 0.09268,-5.28256 -0.859589,-0.999331 -1.326092,-1.174299 -3.130937,-1.174299 -1.806115,0 -2.310253,0.189408 -3.397189,1.276343 -3.760169,3.76017 -0.362399,9.814738 5.507945,9.814738 1.039919,0 2.011069,0.120308 2.158112,0.267351 0.147042,0.147042 -0.198245,0.82068 -0.767308,1.496971 -1.25727,1.49418 -1.327197,3.204743 -0.181291,4.434729 1.72022,1.846439 4.328721,0.819112 4.097321,-1.613681 -0.123416,-1.297502 -0.266823,-1.446385 -1.393172,-1.446385 -1.048733,0 -1.255593,0.166637 -1.255593,1.01145 0,0.556298 0.255188,1.096514 0.567084,1.20048 0.410058,0.136686 0.489167,-0.05647 0.285695,-0.697553 -0.170087,-0.535895 -0.09949,-0.88658 0.178481,-0.88658 0.782997,0 1.000278,1.286817 0.330393,1.956702 -0.948468,0.948469 -2.407982,0.04655 -2.407982,-1.488029 0,-2.762927 4.362433,-3.881211 8.176149,-2.095908 2.278468,1.066613 5.594111,4.127886 6.620388,6.112488 l 0.653674,1.264065 -1.74634,-0.601663 c -2.505031,-0.863053 -6.871378,-0.7511 -9.48838,0.243282 -1.197585,0.455046 -3.154389,1.581077 -4.348453,2.50229 -3.682171,2.840776 -6.255982,3.334194 -8.047424,1.542753 -1.179598,-1.179599 -1.312921,-2.563982 -0.375774,-3.901947 1.113726,-1.590067 4.370846,-0.895658 4.370846,0.931852 0,1.334596 -2.417546,1.978362 -2.825723,0.752457 -0.110982,-0.33332 0.164658,-0.485869 0.756245,-0.418532 1.225654,0.13951 1.514506,-0.75995 0.430377,-1.340158 -0.688598,-0.368527 -1.016004,-0.293359 -1.699557,0.390194 -1.039342,1.039344 -1.049924,1.339959 -0.08893,2.526731 1.619289,1.999738 4.683187,0.583979 4.683187,-2.163997 0,-3.143444 -4.321904,-4.466255 -6.728697,-2.059461 -0.989706,0.989705 -1.223399,1.58318 -1.223399,3.106872 0,3.927844 3.950483,6.242374 7.986973,4.679452 0.546938,-0.211773 0.662675,0.08693 0.662675,1.710311 0,1.69611 0.189792,2.136476 1.378588,3.198664 1.117933,0.998873 1.625704,1.184083 2.685577,0.979572 2.585799,-0.498953 3.755244,-3.698724 1.841658,-5.039051 -1.238704,-0.867622 -2.134538,-0.821464 -3.018715,0.155539 -0.831848,0.919183 -0.584825,2.317926 0.481627,2.727161 0.853143,0.327384 2.009926,-0.752227 1.569522,-1.464814 -0.244554,-0.395698 -0.449468,-0.348695 -0.846406,0.194148 -0.386293,0.528287 -0.605971,0.58318 -0.837118,0.209177 -0.18271,-0.295633 0.01155,-0.744664 0.465863,-1.07687 0.675261,-0.493763 0.888067,-0.460983 1.594699,0.245649 0.773036,0.773036 0.778867,0.871283 0.112107,1.888887 -1.33878,2.043235 -4.033397,0.85636 -4.030734,-1.775381 0.0057,-5.652216 9.457759,-8.945779 14.43571,-5.030121 1.11602,0.877861 2.694536,3.724607 2.713321,4.893289 0.0052,0.32332 0.563917,1.195803 -1.66227,-0.739592 -1.88848,-1.6418 -3.977676,-2.438975 -6.228036,-1.878706 l -1.495402,0.372308 -0.01103,2.857057 c -0.01065,2.759051 -0.06465,2.906212 -1.574375,4.289946 -1.366852,1.252792 -1.840291,1.432692 -3.766782,1.431325 -1.446488,-9.7e-4 -2.663735,-0.282226 -3.543344,-0.818555 -1.322079,-0.806118 -2.63614,-2.759639 -2.63614,-3.918959 0,-0.40789 -0.653316,-0.658106 -2.075013,-0.794713 -5.063402,-0.486529 -8.096485,-5.908502 -5.799372,-10.367023 1.287009,-2.497985 3.242374,-3.77016 5.794831,-3.77016 1.787895,0 2.001788,-0.103665 2.184345,-1.058647 0.178845,-0.935573 -0.03699,-1.161616 -1.856408,-1.944314 -3.681443,-1.583714 -5.764392,-6.010953 -4.553824,-9.679006 0.46529,-1.409842 3.740915,-4.89635 4.600193,-4.89635 0.253379,0 0.237651,-0.483245 -0.04182,-1.284937 -0.612428,-1.756815 -0.197263,-4.333804 0.978252,-6.072134 1.172971,-1.734572 4.537027,-3.524744 6.623628,-3.524744 1.424161,0 1.531528,-0.09865 1.995535,-1.833517 1.266746,-4.736223 6.427659,-7.333898 10.877058,-5.474821 2.832262,1.183395 4.239685,3.118611 4.405852,6.058074 0.09328,1.650114 0.120997,1.678218 1.350829,1.369763 0.690577,-0.173203 1.92279,-0.292143 2.738253,-0.264311 1.299087,0.04434 1.595867,-0.146103 2.397038,-1.538167 1.265821,-2.199414 3.982554,-3.268374 6.437318,-2.532909 0.940265,0.28171 2.137907,0.974382 2.661427,1.539267 l 0.951852,1.027068 1.990981,-1.058616 c 1.09504,-0.582238 2.575031,-1.054477 3.288871,-1.049422 3.147596,0.0223 7.05791,3.151402 7.60898,6.088857 0.15602,0.831655 0.188383,2.38948 0.07192,3.461832 l -0.211753,1.949732 2.146015,1.057111 c 1.486418,0.7322 2.370934,1.504036 2.877795,2.511189 0.900869,1.790065 0.948585,5.054953 0.09791,6.69996 -0.606288,1.172432 -0.578678,1.306238 0.607333,2.943481 1.853163,2.558216 2.061859,4.87806 0.690919,7.680161 l -1.106826,2.262273 1.05893,1.560421 c 2.418844,3.564366 0.778877,8.177025 -3.412576,9.598395 -1.365928,0.463202 -1.688299,0.821056 -2.226369,2.47141 -0.690176,2.116894 -2.507082,4.301493 -4.072502,4.896664 -1.923749,0.731408 -4.842093,0.447527 -6.419681,-0.624471 z"
       id="path259"
       sodipodi:nodetypes="csssssssssssssssssssscssssssssssssssssscssssssssssssssssssssssssssssssscsssssssssssssssssssssssssssssssssssssssssssssssscssssssssssssssssssssssssssssscssssssssssssssssssssssssssssscssssssssssssssssssssssssssssscsscsscssssssssscsssssssssscsssscssssscsssscc" /></g></svg>
