<?xml version="1.0" encoding="UTF-8" standalone="no"?>
<!-- Created with Inkscape (http://www.inkscape.org/) -->

<svg
   width="100mm"
   height="100mm"
   viewBox="0 0 100 100"
   version="1.1"
   id="svg1"
   inkscape:version="1.4 (86a8ad7, 2024-10-11)"
   sodipodi:docname="bush1.svg"
   xml:space="preserve"
   xmlns:inkscape="http://www.inkscape.org/namespaces/inkscape"
   xmlns:sodipodi="http://sodipodi.sourceforge.net/DTD/sodipodi-0.dtd"
   xmlns="http://www.w3.org/2000/svg"
   xmlns:svg="http://www.w3.org/2000/svg"><sodipodi:namedview
     id="namedview1"
     pagecolor="#ffffff"
     bordercolor="#000000"
     borderopacity="0.25"
     inkscape:showpageshadow="2"
     inkscape:pageopacity="0.0"
     inkscape:pagecheckerboard="true"
     inkscape:deskcolor="#d1d1d1"
     inkscape:document-units="mm"
     inkscape:zoom="1.4142136"
     inkscape:cx="347.54298"
     inkscape:cy="150.26019"
     inkscape:window-width="1920"
     inkscape:window-height="1009"
     inkscape:window-x="1912"
     inkscape:window-y="-8"
     inkscape:window-maximized="1"
     inkscape:current-layer="layer1" /><defs
     id="defs1" /><g
     inkscape:label="Warstwa 1"
     inkscape:groupmode="layer"
     id="layer1"><path
       style="fill:#53535f;fill-opacity:1;stroke-width:1.98094"
       d="m 46.106794,66.06731 c -2.88241,-0.876383 -4.004119,-0.950011 -6.149718,-0.40366 -0.78794,0.200638 -1.849289,0.193379 -2.35857,-0.01605 -0.753887,-0.310135 -0.590954,-0.498332 0.876844,-1.012755 0.991522,-0.347511 1.884214,-0.876138 1.983756,-1.174726 0.258216,-0.774635 -3.038984,-3.160045 -5.109524,-3.696579 -0.962759,-0.249476 -1.848577,-0.747866 -1.968463,-1.107529 -0.154712,-0.464212 0.177096,-0.554789 1.143637,-0.312195 1.631604,0.409507 1.630495,0.418183 0.331986,-2.611128 -0.97502,-2.274638 -1.139517,-2.402014 -3.101879,-2.402014 -1.139735,0 -2.445335,-0.143163 -2.901308,-0.318137 -1.526257,-0.585676 -0.850657,-1.254236 1.267447,-1.254236 2.396188,0 2.530575,-0.256572 0.992076,-1.894221 -1.567481,-1.668501 -1.053663,-2.648298 0.675501,-1.288135 1.824904,1.435481 2.001287,1.383366 2.001287,-0.591341 0,-1.237041 0.15392,-1.52328 0.586498,-1.090701 0.322577,0.322573 0.572968,1.566994 0.556427,2.765381 -0.03427,2.478981 2.366612,8.536213 3.257502,8.218584 0.318318,-0.113488 0.526852,-1.065105 0.463402,-2.114706 -0.117668,-1.945238 0.532239,-2.578505 1.107526,-1.07931 0.174916,0.455979 0.318139,1.994239 0.318139,3.418353 0,2.51248 0.0727,2.635441 2.452486,4.144621 2.592064,1.64384 4.281174,2.345119 4.682315,1.943986 0.454765,-0.454777 -1.002218,-2.977436 -1.880707,-3.256253 -1.308473,-0.415297 -3.157603,-2.292132 -3.157603,-3.204934 0,-0.657021 0.270418,-0.608905 1.500505,0.266995 0.82528,0.587649 1.603533,0.965426 1.729462,0.839504 0.125988,-0.125929 0.09925,-1.332028 -0.05923,-2.680236 -0.278045,-2.365677 -0.367861,-2.474766 -2.57162,-3.12361 -2.434499,-0.716776 -4.792158,-2.561997 -4.792158,-3.750572 0,-0.489891 0.562687,-0.292314 1.752877,0.615487 0.964066,0.735342 2.14336,1.336984 2.620609,1.336984 1.072363,0 1.081278,0.116321 -0.180464,-2.35856 -0.576534,-1.130843 -1.048256,-2.418957 -1.048256,-2.862475 -1.9e-5,-0.443519 -0.830668,-1.469174 -1.845901,-2.279233 -1.015234,-0.810061 -1.699392,-1.709884 -1.520334,-1.999609 0.201006,-0.325229 0.672371,-0.212914 1.232027,0.293556 1.384837,1.253273 2.051484,0.989527 2.232047,-0.883074 0.291199,-3.020279 1.204176,-1.575864 1.493136,2.362291 0.409441,5.580413 3.169865,8.986464 3.943027,4.865245 0.262693,-1.400368 0.08894,-2.133019 -0.762445,-3.215428 -0.606466,-0.771001 -1.102672,-1.760353 -1.102672,-2.198557 0,-0.687132 0.13193,-0.67741 0.958479,0.07068 0.527168,0.477082 1.116816,0.867419 1.310315,0.867419 0.193538,0 0.35544,-1.592026 0.359857,-3.537839 0.006,-2.477654 0.160259,-3.302244 0.516096,-2.751653 0.279431,0.432402 0.515302,1.375827 0.524117,2.096497 0.0079,0.720672 0.23391,1.654718 0.500149,2.075656 0.414195,0.654828 0.640558,0.623757 1.56758,-0.21517 0.595887,-0.539286 1.25873,-0.805235 1.472969,-0.591001 0.214239,0.214238 -0.327648,1.030313 -1.204196,1.813503 -1.351339,1.207421 -1.730432,2.137415 -2.492699,6.115146 -1.382183,7.212531 -1.065272,11.457777 0.584953,7.835911 0.328361,-0.720672 0.837939,-1.310311 1.132386,-1.310311 0.759077,0 0.679483,0.419573 -0.568709,2.998004 -0.951566,1.965672 -1.015193,2.495323 -0.460549,3.834351 0.726491,1.753869 1.378379,1.992951 1.735326,0.636418 1.694835,-6.441242 1.69216,-6.296926 0.191359,-10.326715 -1.09463,-2.939018 -0.454944,-4.080948 0.778688,-1.390024 0.542462,1.183307 1.177968,2.151467 1.412234,2.151467 0.234266,0 0.709297,-0.945809 1.055645,-2.1018 0.582912,-1.945559 0.530635,-2.231712 -0.703215,-3.849376 -1.828767,-2.397621 -1.709356,-3.515687 0.18185,-1.70371 0.833185,0.798241 1.626077,1.255115 1.76197,1.015276 0.803886,-1.418689 0.836651,-3.496251 0.08478,-5.375357 -1.095798,-2.738643 -0.666033,-3.995047 0.551475,-1.612268 1.288663,2.522016 1.223014,2.502995 2.642795,0.765704 1.156732,-1.415415 1.269924,-1.4544 1.287118,-0.443293 0.0099,0.609728 -0.433826,1.684081 -0.987104,2.387448 -0.553257,0.703367 -1.233572,2.531342 -1.511816,4.062163 -0.448367,2.466838 -0.388621,2.900581 0.525505,3.81469 1.192389,1.192409 1.127196,1.23031 1.920286,-1.116365 0.818446,-2.42178 3.140745,-6.3256 3.762939,-6.3256 0.737466,0 0.625206,0.596413 -0.582912,3.096951 -0.596739,1.235076 -0.951545,2.379009 -0.788475,2.542071 0.163032,0.163071 1.358848,0.256294 2.657316,0.207178 1.298469,-0.0491 2.360848,0.132565 2.360848,0.40374 0,0.54079 -0.811572,0.823446 -3.827438,1.333016 -1.096156,0.185219 -2.09045,0.618551 -2.209525,0.962984 -1.728134,4.998634 -2.754322,6.991084 -4.73576,9.194919 -2.444107,2.718448 -2.715714,3.224119 -1.73174,3.224119 1.143638,0 6.21497,-4.778469 6.21497,-5.85606 0,-1.170297 1.569818,-4.102304 2.19641,-4.102304 0.218894,0 0.246191,0.766532 0.06062,1.703403 -0.319209,1.611728 -0.283236,1.662694 0.668251,0.946956 0.553099,-0.416048 2.125928,-1.822319 3.495215,-3.125045 2.601948,-2.475501 3.530813,-1.979784 1.081218,0.577037 l -1.40837,1.470022 h 2.749607 c 3.67247,0 2.996395,0.90198 -1.016381,1.355973 -2.589529,0.292974 -3.609635,0.723651 -5.749409,2.427366 -1.430717,1.139162 -2.601315,2.286993 -2.601315,2.55074 0,0.723551 2.186386,0.540811 3.668864,-0.306648 1.649631,-0.943008 2.134446,-0.970807 1.801549,-0.103287 -0.540065,1.407396 -3.390582,2.593167 -5.444324,2.26476 -1.546483,-0.247295 -2.167905,-0.09744 -2.885897,0.695942 -1.119293,1.236799 -5.136783,2.662672 -7.322951,2.599034 -0.885521,-0.02577 -2.789326,-0.405422 -4.23066,-0.843656 z m 9.390442,-6.840312 c 2.778371,-2.941174 3.283234,-4.50714 2.191338,-6.796886 -0.497592,-1.043472 -1.084586,-1.66542 -1.324854,-1.403764 -0.912442,0.993697 -3.613656,10.166116 -2.993839,10.166116 0.148967,0 1.106199,-0.88446 2.127355,-1.965466 z"
       id="path62"
       sodipodi:nodetypes="cscssssssssssssscsccsssssssssssssssssssssssscscsssssssssccssssssssscssssssssssssssssssscsssssssssccsssss" /></g></svg>
