<?xml version="1.0" encoding="UTF-8" standalone="no"?>
<!-- Created with Inkscape (http://www.inkscape.org/) -->

<svg
   width="100mm"
   height="100mm"
   viewBox="0 0 100 100"
   version="1.1"
   id="svg1"
   inkscape:version="1.4 (86a8ad7, 2024-10-11)"
   sodipodi:docname="bush3.svg"
   xml:space="preserve"
   xmlns:inkscape="http://www.inkscape.org/namespaces/inkscape"
   xmlns:sodipodi="http://sodipodi.sourceforge.net/DTD/sodipodi-0.dtd"
   xmlns="http://www.w3.org/2000/svg"
   xmlns:svg="http://www.w3.org/2000/svg"><sodipodi:namedview
     id="namedview1"
     pagecolor="#ffffff"
     bordercolor="#000000"
     borderopacity="0.25"
     inkscape:showpageshadow="2"
     inkscape:pageopacity="0.0"
     inkscape:pagecheckerboard="true"
     inkscape:deskcolor="#d1d1d1"
     inkscape:document-units="mm"
     inkscape:zoom="1.4142136"
     inkscape:cx="347.54298"
     inkscape:cy="150.26019"
     inkscape:window-width="1920"
     inkscape:window-height="1009"
     inkscape:window-x="1912"
     inkscape:window-y="-8"
     inkscape:window-maximized="1"
     inkscape:current-layer="layer1" /><defs
     id="defs1" /><g
     inkscape:label="Warstwa 1"
     inkscape:groupmode="layer"
     id="layer1"><path
       d="m 45.663841,65.083576 c -0.935884,-3.169626 -2.37115,-4.214788 -5.787993,-4.214788 -1.463463,0 -2.817694,-0.253767 -3.009389,-0.563925 -0.207382,-0.335603 0.464085,-0.563926 1.658505,-0.563926 1.103858,0 2.007005,-0.219819 2.007005,-0.488487 0,-0.268666 -1.183593,-1.410616 -2.630197,-2.537661 -2.37277,-1.848604 -2.969383,-2.049179 -6.095401,-2.049179 -2.173806,0 -3.873127,-0.308554 -4.559833,-0.827952 -1.047441,-0.792237 -1.026895,-0.828726 0.475978,-0.845888 1.408388,-0.01599 1.506559,-0.137665 0.950293,-1.177048 -1.158955,-2.165551 -0.151328,-2.518037 1.119779,-0.391682 1.273665,2.130783 1.9644,2.47705 3.278027,1.643272 0.571634,-0.362814 0.543265,-0.942539 -0.140883,-2.88189 -0.471097,-1.335244 -0.856556,-2.861532 -0.856556,-3.391753 0,-0.530221 -1.205375,-2.18889 -2.678643,-3.685933 -1.804738,-1.833876 -2.427716,-2.80641 -1.909495,-2.980946 0.423035,-0.142482 1.340739,0.406148 2.03936,1.21917 1.562146,1.817978 1.98486,1.855503 1.98486,0.1762 0,-0.716117 0.372585,-1.794623 0.827953,-2.396682 0.762625,-1.008294 0.829359,-0.863275 0.845877,1.838199 0.02494,4.063569 1.073998,8.627615 1.98324,8.627615 1.174428,0 1.992491,-3.073064 1.383409,-5.196798 -0.290996,-1.014652 -0.521013,-2.227144 -0.511145,-2.69443 0.01492,-0.701554 0.145359,-0.681864 0.749326,0.112984 0.679204,0.893924 0.797666,0.896318 1.660402,0.03357 1.29971,-1.299693 1.63344,-0.681621 0.65269,1.208773 -0.453556,0.874226 -0.825608,2.258353 -0.826759,3.075836 -0.0012,0.817485 -0.508695,2.31721 -1.127858,3.33272 -1.431769,2.348315 -1.41994,2.510798 0.334199,4.595488 1.835622,2.181511 2.487544,2.19285 2.487544,0.04327 0,-0.930475 0.253761,-1.691775 0.563919,-1.691775 0.310157,0 0.563939,0.984495 0.563939,2.187769 0,1.900375 0.3248,2.45393 2.472625,4.213903 1.359942,1.114375 2.633607,2.667541 2.830375,3.451483 0.196725,0.783941 0.606652,1.42535 0.910905,1.42535 1.10891,0 0.466856,-3.742754 -1.16083,-6.767103 -0.918109,-1.705875 -1.669332,-3.448012 -1.669396,-3.87142 -8.5e-5,-0.423407 -0.934094,-1.625309 -2.075614,-2.670893 -1.14152,-1.045585 -1.898583,-2.077959 -1.682376,-2.294163 0.216206,-0.216206 0.693399,-0.09282 1.060421,0.274212 1.156183,1.156189 1.569584,0.73784 1.569584,-1.58839 0,-2.278936 0.719316,-3.00584 1.349477,-1.363691 0.1882,0.490605 0.342298,1.72157 0.342298,2.735476 0,2.164492 1.029325,5.395318 1.718908,5.395318 0.264418,0 0.728098,-0.441978 1.03039,-0.982172 0.96144,-1.717987 1.436992,-0.208789 0.533823,1.694158 -0.762945,1.607536 -0.769595,2.0952 -0.05563,4.081377 0.445925,1.240635 0.799626,3.334208 0.785985,4.652382 -0.01279,1.318177 0.219702,2.396684 0.518541,2.396684 0.29884,0 0.543351,-1.129458 0.543351,-2.509906 0,-3.240368 1.021907,-8.141767 2.029811,-9.735627 0.434395,-0.686945 0.789822,-1.580861 0.789822,-1.98648 0,-0.840287 -3.025651,-2.54954 -4.956695,-2.800142 -0.710151,-0.09216 -1.242227,-0.42133 -1.182399,-0.731489 0.05989,-0.310159 0.588258,-0.482696 1.174279,-0.383416 1.013147,0.171639 1.022759,0.07822 0.195446,-1.901627 -0.478492,-1.145174 -0.869983,-2.567234 -0.869983,-3.160134 0,-0.624858 -0.793445,-1.546141 -1.887542,-2.19168 -2.249875,-1.327459 -3.957508,-4.24049 -3.62706,-6.187346 l 0.237925,-1.401777 0.653755,1.558937 c 0.86344,2.059041 3.004977,4.926202 3.67945,4.926202 0.313482,0 0.408775,-1.40533 0.229378,-3.383552 -0.168805,-1.860953 -0.21058,-3.383551 -0.09271,-3.383551 0.863845,0 1.934752,3.886205 1.934752,7.021062 0,2.810613 0.190971,3.693516 0.798881,3.693516 0.439403,0 1.053792,-0.697855 1.365313,-1.550794 l 0.566391,-1.550793 0.04454,2.001934 c 0.02451,1.101064 -0.259324,2.305764 -0.630672,2.677111 -0.524275,0.524287 -0.41615,1.022099 0.483821,2.227506 1.521841,2.038354 2.677833,1.983335 2.929953,-0.139455 0.292362,-2.461807 -1.008755,-11.028707 -1.940292,-12.775332 -0.873968,-1.638719 -1.091517,-5.552242 -0.308622,-5.552242 0.26932,0 0.628626,1.036023 0.798475,2.302275 0.374866,2.794849 0.890743,3.394025 1.738602,2.019297 2.310385,-3.746149 3.292798,-3.497309 1.52376,0.385966 -1.151111,2.526821 -1.525081,5.460934 -0.78978,6.196246 0.501576,0.501574 2.442445,-1.286649 2.442445,-2.250346 0,-0.417167 0.253761,-0.758484 0.563939,-0.758484 1.047803,0 0.572891,2.158499 -0.845898,3.844633 -1.163302,1.382494 -1.409817,2.271114 -1.409817,5.081883 0,1.873528 -0.237562,4.031257 -0.527919,4.794955 -0.734939,1.933051 -0.08227,2.308535 1.472948,0.84744 1.2843,-1.206529 1.310686,-1.208392 1.310686,-0.09257 0,1.292423 -1.383558,2.692263 -3.210676,3.248463 -0.896475,0.272903 -1.47851,1.207596 -2.114703,3.396062 -1.004387,3.454976 -1.135936,5.947531 -0.313887,5.947531 0.310157,0 0.562724,-0.317207 0.561232,-0.704906 -0.0015,-0.387698 2.072204,-2.660509 4.608173,-5.050688 l 4.610838,-4.345782 -0.91877,-2.13936 c -1.068435,-2.487825 -1.506794,-7.649451 -0.684554,-8.060571 0.324586,-0.162304 0.703267,1.034367 0.892234,2.819626 0.518755,4.900595 1.782914,6.688792 2.554704,3.613731 0.398503,-1.587741 -0.07374,-10.788669 -0.688624,-13.415038 -0.541496,-2.313098 1.005857,-1.687176 1.685253,0.681706 0.441386,1.539053 2.017897,2.587156 2.054109,1.365629 0.0064,-0.232617 0.508779,-1.057358 1.115325,-1.832755 1.091219,-1.395071 1.102899,-1.396751 1.115304,-0.160599 0.0064,0.687067 -0.748772,2.116281 -1.679243,3.176037 -1.960542,2.232948 -2.380294,5.77856 -0.757767,6.401176 0.91325,0.350447 3.68595,-2.129297 4.240277,-3.792244 0.131719,-0.395017 0.540772,-0.616707 0.909115,-0.492645 0.492688,0.165949 0.442558,0.662972 -0.189692,1.880266 -1.166584,2.246284 -0.682806,3.138667 1.701538,3.138667 1.103602,0 1.991446,0.283903 1.991446,0.636792 0,0.447334 -1.133932,0.525055 -3.811339,0.261229 -4.527415,-0.446119 -5.279725,-0.01812 -6.303295,3.585237 -0.405067,1.42606 -1.552789,3.349462 -2.658331,4.455008 -2.258251,2.258258 -1.894852,3.062337 1.266205,2.801655 1.613682,-0.133082 2.3447,-0.519638 2.828628,-1.495759 0.358901,-0.723967 0.968473,-1.61215 1.354592,-1.973737 0.553454,-0.518288 0.624684,-0.329207 0.336544,0.89336 -0.306513,1.300411 -0.181806,1.550796 0.773069,1.550796 0.626219,0 1.1386,0.234086 1.1386,0.520191 0,0.960056 -4.193323,1.971177 -8.271296,1.994428 -3.515121,0.02004 -4.238657,0.206764 -5.551859,1.432856 -1.805804,1.686009 -3.094601,4.022897 -3.094601,5.611248 0,1.042519 -0.34735,1.155855 -3.542403,1.155855 h -3.542402 z"
       style="fill:#53535f;fill-opacity:1;stroke-width:2.13137"
       id="path1-9" /><path
       d="m 154.62589,79.089116 c -0.093,-0.122295 -0.31072,-0.605742 -0.48388,-1.074327 -0.17317,-0.468585 -0.50066,-1.072789 -0.72776,-1.342677 -0.42611,-0.506405 -2.15825,-1.451967 -2.65981,-1.451967 -0.15607,0 -0.90751,-0.240542 -1.66987,-0.534539 -1.35094,-0.520976 -1.40834,-0.527796 -2.26228,-0.268751 -1.11265,0.337525 -1.70322,0.337637 -2.51015,4.79e-4 -0.83627,-0.349418 -0.65582,-0.521826 0.2819,-0.269326 0.76114,0.204954 2.02249,0.0034 2.24642,-0.358897 0.13702,-0.221695 -1.26937,-0.872319 -1.8969,-0.877547 -0.88941,-0.0074 -3.18509,-1.836359 -2.79371,-2.225723 0.0334,-0.03322 0.50995,0.279341 1.05901,0.69458 0.79558,0.601665 1.23551,0.794286 2.16639,0.948538 0.6742,0.111717 1.79661,0.500622 2.65457,0.919779 1.61092,0.787017 2.27445,0.911119 2.27445,0.425397 0,-0.278207 0.0167,-0.278814 0.22236,-0.0081 0.12229,0.161016 0.61177,0.45758 1.08773,0.65903 0.47596,0.20145 1.10094,0.534003 1.38884,0.739008 0.7121,0.507058 0.83061,0.297006 0.25684,-0.45524 -1.14645,-1.503069 -2.36652,-2.412743 -3.23601,-2.412743 -0.74421,0 -3.53383,-1.06224 -4.45406,-1.696031 -1.87223,-1.289452 -2.45853,-2.34415 -0.64645,-1.162912 1.63182,1.063741 4.12596,2.038425 4.43229,1.732097 0.15576,-0.155759 -2.48792,-2.724484 -3.3256,-3.231305 -0.67824,-0.410357 -1.11687,-0.967767 -1.50479,-1.91225 -0.40668,-0.990183 0.006,-0.813945 0.53416,0.228034 0.31382,0.619297 0.64292,0.985387 1.06806,1.188125 0.33797,0.161165 0.66026,0.24726 0.71619,0.191322 0.0559,-0.05594 -0.0631,-0.603815 -0.26459,-1.217504 -0.37448,-1.140743 -0.4871,-2.220003 -0.21404,-2.051242 0.0837,0.05175 0.41422,0.796919 0.73441,1.655923 0.53075,1.42389 1.67626,3.251263 2.23713,3.568766 0.12403,0.07022 0.57257,0.450416 0.99676,0.844892 0.42419,0.394476 1.25519,1.086984 1.84667,1.538908 0.59148,0.451924 1.28351,1.089744 1.53785,1.417377 1.41649,1.824721 0.0784,-1.428914 -1.534,-3.729953 -0.56037,-0.799706 -1.57205,-1.94566 -2.24817,-2.546567 -1.18558,-1.053676 -1.58425,-1.72906 -1.58731,-2.689034 -0.002,-0.529125 0.30396,-0.343044 0.42422,0.258274 0.1241,0.620499 0.74189,1.38715 1.11781,1.38715 0.32612,0 0.31049,-1.964784 -0.0244,-3.068494 -0.14101,-0.464721 -0.18808,-0.844948 -0.10458,-0.844948 0.36763,0 0.92373,1.377408 1.10389,2.734257 0.1056,0.795306 0.2681,1.590958 0.36111,1.768116 0.4323,0.823454 1.00032,-0.41387 1.0209,-2.223857 0.007,-0.654619 0.0941,-1.240039 0.19267,-1.300932 0.53978,-0.333603 0.60177,2.41454 0.0831,3.682848 -0.34055,0.832695 -0.34042,0.838914 0.0326,1.606628 0.20594,0.423883 0.59703,1.035232 0.86908,1.358552 0.58297,0.692815 0.58377,0.69195 1.22868,-1.327586 0.36344,-1.138119 0.44949,-1.768803 0.45133,-3.307975 0.001,-1.045964 0.0703,-1.943781 0.15339,-1.995149 0.28664,-0.177151 0.39179,3.815621 0.13074,4.964203 -0.13342,0.587016 -0.34773,1.526326 -0.47624,2.087356 -0.20585,0.89861 -0.19749,1.120981 0.0702,1.867779 0.16711,0.466249 0.30345,1.067856 0.30296,1.336905 -4.8e-4,0.26905 0.07,0.489181 0.1566,0.489181 0.0866,0 0.48685,-0.545134 0.88942,-1.211408 l 0.73194,-1.211409 v -2.088274 c 0,-1.557473 -0.0716,-2.226761 -0.28174,-2.633107 -0.36445,-0.704764 -0.54447,-2.369652 -0.27429,-2.536636 0.13561,-0.08381 0.20026,0.104693 0.20026,0.58385 0,0.680342 0.47326,1.800295 0.76174,1.802627 0.0765,6.18e-4 0.21782,-0.178983 0.31397,-0.399114 0.14107,-0.322977 0.15345,-0.280054 0.0641,0.222355 -0.21227,1.194204 -0.28038,3.735558 -0.10013,3.735558 0.23676,0 1.17078,-1.197144 1.54298,-1.977656 0.45126,-0.946294 0.11613,-2.303677 -0.97344,-3.942711 -0.92782,-1.395729 -1.16939,-1.966636 -0.96921,-2.290539 0.0788,-0.127485 0.28798,0.150078 0.53506,0.709943 0.22314,0.505596 0.47994,0.919265 0.57068,0.919265 0.0907,0 0.22026,-0.4887 0.28784,-1.086001 0.16073,-1.420692 0.36974,-1.187526 0.30727,0.342778 -0.0418,1.022469 0.0209,1.320225 0.43239,2.056538 0.6213,1.111622 0.74577,0.886648 0.80356,-1.452418 0.0653,-2.64327 0.36402,-2.397493 0.60399,0.496974 0.18987,2.290271 -0.3967,4.318283 -1.8105,6.259572 -0.74541,1.023532 -2.04894,3.368977 -1.93545,3.482468 0.0455,0.04548 0.43444,-0.123457 0.86436,-0.375409 0.67061,-0.393002 0.83929,-0.617236 1.18712,-1.578094 0.32651,-0.901954 0.61395,-1.310473 1.47647,-2.098362 1.2558,-1.14715 1.97086,-2.528926 2.26655,-4.379843 0.1066,-0.667285 0.22347,-1.242899 0.25971,-1.279143 0.0362,-0.03624 0.12001,0.294913 0.18614,0.735906 0.13696,0.913294 -0.11579,2.29638 -0.63355,3.466846 -0.19455,0.439823 -0.32008,0.833329 -0.27895,0.874456 0.0411,0.04113 0.39637,-0.138046 0.78943,-0.398163 0.80275,-0.531231 1.28522,-1.39388 1.41284,-2.526116 0.12303,-1.091506 0.39552,-0.943239 0.39552,0.215209 0,0.700959 0.0678,0.97836 0.23925,0.97836 0.3031,0 0.74949,-0.502874 0.90794,-1.022831 0.12306,-0.403804 0.45376,-0.559421 0.45376,-0.213521 0,0.456399 -0.58815,1.244824 -1.37214,1.83938 -0.46827,0.355127 -1.23928,0.954704 -1.71336,1.332395 -0.47407,0.377691 -1.15732,0.775204 -1.51832,0.883363 -0.85555,0.256328 -1.751,1.144782 -1.97458,1.959154 -0.2532,0.922269 -0.68982,1.510016 -1.68782,2.272046 -0.47964,0.366234 -0.78247,0.69575 -0.67294,0.732257 0.10952,0.03651 0.79533,-0.209082 1.52401,-0.545755 1.15302,-0.532729 1.41749,-0.747576 2.03885,-1.656293 0.84166,-1.23091 1.73606,-2.122148 1.88607,-1.879417 0.0586,0.09475 -0.17214,0.476455 -0.51267,0.84823 -0.61931,0.67612 -0.91785,1.262562 -0.73554,1.444865 0.21893,0.218935 1.08213,-0.179211 1.51646,-0.69946 0.25563,-0.306199 0.6649,-0.742138 0.90949,-0.968755 1.38381,-1.282114 1.77884,-1.604765 1.77884,-1.452896 0,0.309581 -0.52736,1.193875 -0.85287,1.43012 -0.35164,0.255213 -0.92597,1.031192 -0.92597,1.251094 0,0.07607 0.29523,0.138303 0.65606,0.138303 0.76374,0 1.7157,-0.583623 2.02575,-1.241927 0.11966,-0.254079 0.24489,-0.354454 0.28932,-0.231911 0.13344,0.367991 -0.36358,1.174726 -0.97891,1.588932 -0.33343,0.224447 -1.02516,0.448419 -1.60095,0.518373 -1.05236,0.127849 -3.23741,0.900634 -3.23741,1.144972 0,0.28776 1.49362,0.738292 2.0818,0.627949 0.72905,-0.136771 0.74888,-0.0091 0.0544,0.35 -0.48175,0.249121 -0.68285,0.24757 -2.12565,-0.01639 l -1.59355,-0.291544 -1.16235,0.543929 c -0.9341,0.437118 -1.26771,0.710056 -1.69886,1.389916 -0.29508,0.465292 -0.53651,1.027616 -0.53651,1.24961 0,0.221993 -0.15483,0.486488 -0.34407,0.587767 -0.47278,0.253024 -1.35527,0.231411 -1.56024,-0.03821 z"
       style="fill:#53535f;fill-opacity:1"
       id="path1-6" /></g></svg>
