<?xml version="1.0" encoding="UTF-8" standalone="no"?>
<!-- Created with Inkscape (http://www.inkscape.org/) -->

<svg
   width="100mm"
   height="100mm"
   viewBox="0 0 100 100"
   version="1.1"
   id="svg1"
   inkscape:version="1.4 (86a8ad7, 2024-10-11)"
   sodipodi:docname="bush2.svg"
   xml:space="preserve"
   xmlns:inkscape="http://www.inkscape.org/namespaces/inkscape"
   xmlns:sodipodi="http://sodipodi.sourceforge.net/DTD/sodipodi-0.dtd"
   xmlns="http://www.w3.org/2000/svg"
   xmlns:svg="http://www.w3.org/2000/svg"><sodipodi:namedview
     id="namedview1"
     pagecolor="#ffffff"
     bordercolor="#000000"
     borderopacity="0.25"
     inkscape:showpageshadow="2"
     inkscape:pageopacity="0.0"
     inkscape:pagecheckerboard="true"
     inkscape:deskcolor="#d1d1d1"
     inkscape:document-units="mm"
     inkscape:zoom="1.4142136"
     inkscape:cx="347.54298"
     inkscape:cy="150.26019"
     inkscape:window-width="1920"
     inkscape:window-height="1009"
     inkscape:window-x="1912"
     inkscape:window-y="-8"
     inkscape:window-maximized="1"
     inkscape:current-layer="layer1" /><defs
     id="defs1" /><g
     inkscape:label="Warstwa 1"
     inkscape:groupmode="layer"
     id="layer1"><path
       style="fill:#53535f;fill-opacity:1;stroke-width:1.81689"
       d="m 47.133947,65.304623 c -0.29143,-0.222197 -0.849816,-1.276624 -1.240848,-2.34317 -0.568579,-1.550746 -1.267865,-2.513909 -3.491071,-4.808446 -4.128946,-4.26143 -6.690948,-5.181443 -10.831558,-3.889597 -1.675957,0.522887 -3.421956,0.268339 -3.421956,-0.498881 0,-0.326383 0.432166,-0.459214 2.655027,-0.816045 0.66035,-0.105998 1.280002,-0.321145 1.377006,-0.47809 0.09702,-0.156944 -0.552372,-0.975314 -1.44305,-1.818602 -0.890678,-0.843288 -1.619398,-1.664395 -1.619398,-1.824681 0,-0.517366 1.410782,0.116826 3.154274,1.417942 1.821181,1.359111 4.267938,2.535732 5.272989,2.535732 0.594052,0 0.597158,-0.05104 0.08358,-1.373583 -0.72425,-1.865261 -0.852777,-1.999866 -3.128164,-3.275923 -2.88521,-1.61807 -4.413163,-3.413839 -4.413163,-5.186722 0,-1.20191 0.463036,-1.018122 1.123186,0.445808 0.31623,0.701274 0.883701,1.559721 1.261069,1.90766 0.810735,0.747534 2.981287,1.988429 3.478135,1.988429 0.448046,0 0.13336,-1.267769 -0.846364,-3.409647 -1.422718,-3.110386 -1.904722,-5.963033 -1.007558,-5.963033 0.280328,0 0.715529,0.863285 1.140482,2.262371 0.37795,1.244305 0.830575,2.262373 1.005814,2.262373 0.175331,0 0.616927,-0.472674 0.981487,-1.050388 0.560784,-0.888689 0.634332,-1.38622 0.477788,-3.231958 -0.196624,-2.317926 0.162612,-2.86993 0.757427,-1.163755 0.550083,1.577959 0.41169,3.170003 -0.459347,5.284503 -0.926071,2.248082 -0.962136,2.672093 -0.349643,4.109781 0.248696,0.583742 0.707098,1.679464 1.018678,2.434934 0.311579,0.75547 0.683261,1.373582 0.82596,1.373582 0.500354,0 0.703047,-2.407582 0.508439,-6.038886 -0.107923,-2.015642 -0.113737,-3.880369 -0.01272,-4.143835 0.342539,-0.892642 0.762459,-0.128963 0.766893,1.394709 0.0091,3.115397 0.764567,3.852444 1.132233,1.104577 0.307564,-2.298768 0.452952,-2.621676 0.856593,-1.902558 0.386145,0.687925 0.122459,2.873615 -0.584513,4.845801 -0.265502,0.740649 -0.69329,2.628978 -0.950617,4.196285 -0.423645,2.580382 -0.41794,2.954844 0.0605,3.962906 0.572503,1.206443 2.173986,2.721721 2.876579,2.721721 0.593997,0 0.96468,-3.111134 0.511673,-4.294545 -0.189701,-0.495545 -0.710005,-1.438295 -1.156253,-2.095 -0.802703,-1.181288 -1.038227,-2.014416 -0.568942,-2.012617 0.13336,5.11e-4 0.533259,0.436407 0.888788,0.968659 1.020986,1.52856 1.454369,1.245321 1.454369,-0.950514 0,-1.056055 0.145715,-2.010155 0.323807,-2.12022 0.557187,-0.34436 0.968986,1.393079 0.968986,4.088294 0,3.035498 0.337524,3.182959 1.689221,0.738012 0.484693,-0.876686 0.886626,-1.375818 0.893203,-1.109181 0.0073,0.266636 0.09193,0.782598 0.189738,1.14658 0.124457,0.463611 -0.263904,1.230596 -1.297189,2.56126 -1.23696,1.592946 -1.474973,2.127647 -1.474973,3.313413 0,1.44488 0.735006,3.321014 1.301078,3.321014 0.17315,0 0.314904,-0.229329 0.314904,-0.509619 0,-0.280291 0.823343,-2.107443 1.829685,-4.060338 l 1.829684,-3.55072 -0.391577,-2.125151 c -0.532313,-2.888972 -1.313396,-4.28424 -3.625357,-6.47601 -2.122132,-2.011824 -3.304348,-3.920459 -3.120479,-5.037894 0.0963,-0.58536 0.209761,-0.487731 0.681045,0.585994 0.567107,1.292087 1.726231,2.751575 2.185305,2.751575 0.134814,0 0.218609,-1.086098 0.186068,-2.413553 -0.06922,-2.8221 0.490017,-3.322674 0.783281,-0.701147 0.221916,1.983649 1.264322,4.779216 1.725486,4.627495 0.599012,-0.19707 0.821763,-2.04508 0.630317,-5.229546 -0.199222,-3.314138 0.189357,-5.467953 0.86466,-4.792644 0.268464,0.268456 0.390559,5.557097 0.256146,11.094962 -0.03198,1.317506 0.602827,3.878351 0.961409,3.878351 0.358782,0 1.270463,-4.213911 1.672523,-7.730678 0.363143,-3.176114 1.237269,-5.727708 2.287979,-6.678584 0.588819,-0.532884 0.61649,-0.525944 0.61649,0.154599 0,0.391893 -0.230655,1.15857 -0.512564,1.703723 -0.281909,0.545156 -0.583423,2.101392 -0.670052,3.458307 l -0.157525,2.467115 1.298189,-1.454382 c 1.16214,-1.301957 1.894003,-2.592588 2.428351,-4.282346 0.227239,-0.718631 0.845528,-0.739403 0.845528,-0.0284 0,1.677502 -1.164029,4.031297 -2.878523,5.820686 -1.585749,1.655016 -1.874162,2.164481 -2.347918,4.147571 -0.664474,2.781459 -2.798161,8.807264 -3.890424,10.987079 -0.445357,0.88879 -0.91437,2.049196 -1.042279,2.578685 -0.196497,0.813525 0.184469,0.518699 2.45853,-1.902613 1.480096,-1.575925 2.867731,-3.172648 3.083614,-3.548272 0.22237,-0.386855 0.397518,-1.899914 0.404005,-3.489877 0.01272,-2.91361 0.530696,-5.158009 0.939261,-4.063276 0.115555,0.309816 0.208689,2.091433 0.206799,3.959148 -0.0018,1.867716 0.09375,3.395845 0.212613,3.395845 0.300078,0 1.311834,-1.686199 2.713476,-4.522311 0.956359,-1.9351 1.23487,-2.939632 1.431131,-5.161711 0.28994,-3.282688 0.869384,-5.665001 1.506478,-6.193743 0.837297,-0.694882 1.036901,0.134251 0.592707,2.46189 -0.499301,2.616376 -0.263159,3.255141 0.992006,2.683254 0.427479,-0.194773 0.856466,-0.603756 0.953288,-0.908852 0.09684,-0.305096 0.460201,-0.811855 0.807464,-1.126131 0.553735,-0.501123 0.654881,-0.510222 0.822308,-0.07397 0.314159,0.818695 -0.973038,2.897803 -2.690784,4.34623 -1.218263,1.027254 -1.666854,1.654802 -1.839042,2.572666 -0.125365,0.667696 -0.437181,1.618972 -0.693145,2.113947 -0.543723,1.051471 -0.565762,1.04598 1.632988,0.406782 2.255983,-0.655833 4.509204,-2.122384 5.419468,-3.527365 0.827122,-1.276655 1.225059,-1.451791 1.225059,-0.539156 0,0.336289 -0.650103,1.334496 -1.444667,2.218235 -0.794546,0.883739 -1.35206,1.699379 -1.238904,1.812532 0.379567,0.379576 2.593053,0.210569 3.789514,-0.289343 2.170807,-0.907024 2.21076,0.234044 0.04869,1.393502 -0.739313,0.396495 -1.90167,0.539098 -4.548267,0.557999 -4.178838,0.02985 -5.327278,0.449047 -7.591746,2.771108 -0.801759,0.822155 -2.120587,1.940281 -2.930722,2.484724 -3.58475,2.409094 -2.399881,2.763643 1.834227,0.548858 3.038827,-1.589555 5.397628,-2.103699 7.88025,-1.717657 0.799906,0.124385 2.290649,0.236936 3.312761,0.25011 1.037791,0.01344 1.858373,0.170207 1.858373,0.355152 0,0.64214 -1.763622,1.01517 -3.788387,0.801301 -1.105943,-0.116808 -2.169844,-0.114101 -2.364215,0.006 -0.492015,0.304081 0.517506,1.361499 2.043261,2.140212 0.672868,0.343417 1.13663,0.764789 1.030578,0.936384 -0.313868,0.507858 -1.798525,-0.0049 -3.892477,-1.344315 -1.078944,-0.690158 -2.229728,-1.254832 -2.557278,-1.254832 -0.327568,0 -1.268973,0.432128 -2.092044,0.960285 -0.823053,0.528156 -2.144734,1.188592 -2.937045,1.467632 -2.084196,0.734014 -3.689894,1.950995 -4.383929,3.322667 -1.083232,2.140786 -1.354149,2.329312 -3.3473,2.329312 -1.005015,0 -2.065754,-0.181797 -2.357166,-0.403994 z"
       id="path64"
       sodipodi:nodetypes="csssssssssscssssssssssssssssccssssscsssssssssccssssscssssssssssssssssscssssssssscccsssssssssscssssssssssssscsscsssssssscc" /></g></svg>
