<?xml version="1.0" encoding="UTF-8" standalone="no"?>
<!-- Created with Inkscape (http://www.inkscape.org/) -->

<svg
   width="100mm"
   height="100mm"
   viewBox="0 0 100 100"
   version="1.1"
   id="svg1"
   inkscape:version="1.4 (86a8ad7, 2024-10-11)"
   sodipodi:docname="bush4.svg"
   xml:space="preserve"
   xmlns:inkscape="http://www.inkscape.org/namespaces/inkscape"
   xmlns:sodipodi="http://sodipodi.sourceforge.net/DTD/sodipodi-0.dtd"
   xmlns="http://www.w3.org/2000/svg"
   xmlns:svg="http://www.w3.org/2000/svg"><sodipodi:namedview
     id="namedview1"
     pagecolor="#ffffff"
     bordercolor="#000000"
     borderopacity="0.25"
     inkscape:showpageshadow="2"
     inkscape:pageopacity="0.0"
     inkscape:pagecheckerboard="true"
     inkscape:deskcolor="#d1d1d1"
     inkscape:document-units="mm"
     inkscape:zoom="1.4142136"
     inkscape:cx="347.54298"
     inkscape:cy="150.26019"
     inkscape:window-width="1920"
     inkscape:window-height="1009"
     inkscape:window-x="1912"
     inkscape:window-y="-8"
     inkscape:window-maximized="1"
     inkscape:current-layer="layer1" /><defs
     id="defs1" /><g
     inkscape:label="Warstwa 1"
     inkscape:groupmode="layer"
     id="layer1"><path
       d="m 47.405007,64.138605 c -0.166511,-0.218961 -0.556324,-1.08454 -0.866355,-1.92351 -0.31005,-0.83897 -0.896398,-1.920756 -1.303005,-2.403971 -0.762921,-0.906685 -3.8642,-2.599649 -4.762209,-2.599649 -0.279433,0 -1.624835,-0.430674 -2.989789,-0.957055 -2.418766,-0.932772 -2.521537,-0.944983 -4.050458,-0.481181 -1.992125,0.604316 -3.0495,0.604516 -4.494253,8.58e-4 -1.497285,-0.625609 -1.174202,-0.934294 0.504723,-0.482211 1.362769,0.366957 3.621131,0.0061 4.022062,-0.64258 0.245325,-0.39693 -2.272721,-1.561828 -3.396271,-1.571188 -1.592428,-0.01325 -5.702687,-3.287877 -5.001948,-3.985006 0.0598,-0.05948 0.913031,0.500142 1.896086,1.243598 1.424431,1.07724 2.212097,1.422115 3.878774,1.698293 1.207109,0.200022 3.216708,0.896329 4.752827,1.646802 2.884243,1.409101 4.072249,1.631297 4.072249,0.761645 0,-0.498112 0.0299,-0.499199 0.39812,-0.0145 0.218952,0.288289 1.095332,0.819266 1.947506,1.179948 0.852174,0.360683 1.971159,0.956097 2.486624,1.323144 1.274967,0.907853 1.487151,0.531769 0.459854,-0.815076 -2.05264,-2.691143 -4.237092,-4.319852 -5.793855,-4.319852 -1.332458,0 -6.327083,-1.901869 -7.974692,-3.036629 -3.352101,-2.308676 -4.401831,-4.197041 -1.157425,-2.082115 2.921663,1.904556 7.387251,3.649662 7.935714,3.101202 0.278878,-0.278875 -4.454452,-4.878003 -5.954261,-5.785432 -1.214343,-0.734716 -1.999679,-1.732721 -2.694224,-3.423753 -0.728133,-1.772856 0.01074,-1.457314 0.956377,0.408279 0.561873,1.108809 1.151105,1.764268 1.912289,2.127257 0.605112,0.288555 1.182151,0.442703 1.282289,0.342549 0.100085,-0.100156 -0.112976,-1.08109 -0.47373,-2.179858 -0.670481,-2.042423 -0.872119,-3.974765 -0.383223,-3.672609 0.149858,0.09265 0.741632,1.426829 1.31491,2.964817 0.950272,2.549378 3.00123,5.821165 4.005429,6.389633 0.222068,0.125724 1.025148,0.80644 1.784631,1.512722 0.759484,0.706282 2.247333,1.946171 3.306338,2.75531 1.059005,0.809139 2.298037,1.951112 2.753416,2.537717 2.536129,3.267039 0.140369,-2.558373 -2.746523,-6.678227 -1.003305,-1.431819 -2.814649,-3.483572 -4.025195,-4.559455 -2.122701,-1.886536 -2.836492,-3.095765 -2.841972,-4.814533 -0.0036,-0.947362 0.54422,-0.614197 0.759537,0.462422 0.222193,1.110961 1.328304,2.483598 2.001364,2.483598 0.583895,0 0.55591,-3.517812 -0.04369,-5.49393 -0.252469,-0.832052 -0.336744,-1.512822 -0.187243,-1.512822 0.658217,0 1.653876,2.466155 1.976439,4.895501 0.189071,1.423942 0.480016,2.848502 0.646544,3.165692 0.774004,1.474338 1.791005,-0.741006 1.827852,-3.981665 0.01254,-1.172051 0.16848,-2.220206 0.344962,-2.32923 0.96644,-0.597294 1.077429,4.323069 0.148785,6.593889 -0.609731,1.490884 -0.609498,1.502019 0.05837,2.876558 0.368722,0.758934 1.068942,1.853513 1.556029,2.432395 1.043768,1.240438 1.0452,1.23889 2.199868,-2.376952 0.650714,-2.037725 0.804781,-3.166922 0.808075,-5.922705 0.0018,-1.872727 0.125868,-3.480208 0.274635,-3.572178 0.51321,-0.317177 0.701473,6.83161 0.234081,8.888067 -0.23888,1.051012 -0.622587,2.732783 -0.852675,3.73727 -0.368561,1.6089 -0.353593,2.00704 0.125688,3.344131 0.299199,0.834787 0.543307,1.911923 0.542429,2.393638 -8.59e-4,0.481715 0.12533,0.875845 0.280382,0.875845 0.155051,0 0.871672,-0.976026 1.592446,-2.168944 l 1.310489,-2.168945 v -3.738912 c 0,-2.788549 -0.128195,-3.986864 -0.504437,-4.714399 -0.652523,-1.261832 -0.974836,-4.242701 -0.491097,-4.541675 0.2428,-0.150055 0.358552,0.187446 0.358552,1.045345 0,1.218105 0.84734,3.223305 1.363843,3.22748 0.136969,0.0011 0.389992,-0.320457 0.562142,-0.714586 0.252577,-0.578269 0.274742,-0.501418 0.114767,0.398112 -0.380055,2.13814 -0.502002,6.688263 -0.179276,6.688263 0.423903,0 2.096202,-2.143406 2.762601,-3.54086 0.80795,-1.694274 0.207923,-4.124577 -1.742879,-7.059155 -1.661198,-2.498959 -2.093713,-3.521129 -1.735304,-4.101055 0.141086,-0.228253 0.515609,0.268705 0.957989,1.271105 0.399517,0.905235 0.859299,1.645881 1.021763,1.645881 0.162393,0 0.394361,-0.874984 0.515358,-1.94441 0.287776,-2.543653 0.661994,-2.126185 0.550146,0.61372 -0.07484,1.830661 0.03742,2.363773 0.774165,3.682092 1.112396,1.990283 1.335251,1.587483 1.43872,-2.600456 0.116915,-4.732595 0.651753,-4.292549 1.081403,0.889798 0.339949,4.100574 -0.710264,7.731592 -3.241577,11.207338 -1.334606,1.832565 -3.668488,6.031924 -3.465292,6.235123 0.08146,0.08143 0.777836,-0.221042 1.547578,-0.672145 1.200681,-0.703643 1.502691,-1.105119 2.125457,-2.82547 0.584595,-1.614888 1.099237,-2.346313 2.64352,-3.756974 2.248424,-2.053895 3.528691,-4.527871 4.058104,-7.841812 0.19086,-1.194728 0.400107,-2.225326 0.464993,-2.290218 0.06482,-0.06489 0.21487,0.528021 0.33327,1.317589 0.245218,1.635191 -0.207314,4.111512 -1.134327,6.207153 -0.348329,0.787473 -0.573082,1.492018 -0.499442,1.565654 0.07358,0.07364 0.709674,-0.247162 1.413421,-0.712885 1.437269,-0.951132 2.301099,-2.495646 2.529594,-4.522838 0.220277,-1.954267 0.708152,-1.688806 0.708152,0.385317 0,1.255019 0.121391,1.751687 0.42836,1.751687 0.542681,0 1.341912,-0.900362 1.625605,-1.831309 0.220331,-0.722984 0.812427,-1.001606 0.812427,-0.382295 0,0.817151 -1.053042,2.228773 -2.456723,3.293285 -0.838406,0.635831 -2.218847,1.709332 -3.067655,2.385562 -0.84879,0.67623 -2.072103,1.38795 -2.718449,1.581601 -1.531804,0.458939 -3.135046,2.049655 -3.535351,3.507733 -0.453337,1.65126 -1.235076,2.703581 -3.021927,4.067944 -0.858763,0.655717 -1.40096,1.245693 -1.204854,1.311056 0.196089,0.06537 1.423985,-0.374347 2.728637,-0.977137 2.064404,-0.953815 2.537919,-1.338484 3.650422,-2.96548 1.506935,-2.203861 3.108297,-3.799562 3.37688,-3.364968 0.104919,0.169643 -0.308204,0.85306 -0.9179,1.518697 -1.108833,1.210547 -1.643348,2.260532 -1.316935,2.586933 0.391979,0.391989 1.937481,-0.320865 2.715119,-1.252335 0.457688,-0.548229 1.190458,-1.328749 1.628379,-1.734491 2.477619,-2.295537 3.184893,-2.873222 3.184893,-2.601311 0,0.554284 -0.944202,2.137552 -1.527006,2.560533 -0.629588,0.456941 -1.657887,1.846279 -1.657887,2.239998 0,0.136198 0.52859,0.247623 1.174632,0.247623 1.367424,0 3.071844,-1.044938 3.626967,-2.223586 0.214244,-0.454911 0.438459,-0.634626 0.518009,-0.415222 0.238915,0.658864 -0.650966,2.103268 -1.752673,2.844875 -0.596984,0.401858 -1.835479,0.802864 -2.866392,0.928112 -1.884179,0.228905 -5.796362,1.612524 -5.796362,2.049995 0,0.515214 2.674224,1.321861 3.727321,1.1243 1.305315,-0.244879 1.340819,-0.0163 0.0974,0.626651 -0.862541,0.446034 -1.222597,0.443257 -3.805833,-0.02935 l -2.853142,-0.52199 -2.081109,0.973868 c -1.672443,0.78263 -2.269748,1.271308 -3.041693,2.48855 -0.528321,0.833074 -0.960586,1.839877 -0.960586,2.237342 0,0.397464 -0.277212,0.871024 -0.616033,1.052357 -0.84648,0.453022 -2.426519,0.414326 -2.793504,-0.06841 z"
       style="fill:#53535f;fill-opacity:1;stroke-width:1.79043"
       id="path1-6" /></g></svg>
