<?xml version="1.0" encoding="UTF-8" standalone="no"?>
<!-- Created with Inkscape (http://www.inkscape.org/) -->

<svg
   width="210mm"
   height="297mm"
   viewBox="0 0 210 297"
   version="1.1"
   id="svg1"
   xml:space="preserve"
   inkscape:version="1.4 (86a8ad7, 2024-10-11)"
   sodipodi:docname="tree1.svg"
   xmlns:inkscape="http://www.inkscape.org/namespaces/inkscape"
   xmlns:sodipodi="http://sodipodi.sourceforge.net/DTD/sodipodi-0.dtd"
   xmlns="http://www.w3.org/2000/svg"
   xmlns:svg="http://www.w3.org/2000/svg"><sodipodi:namedview
     id="namedview1"
     pagecolor="#ffffff"
     bordercolor="#000000"
     borderopacity="0.25"
     inkscape:showpageshadow="2"
     inkscape:pageopacity="0.0"
     inkscape:pagecheckerboard="0"
     inkscape:deskcolor="#d1d1d1"
     inkscape:document-units="mm"
     inkscape:zoom="0.66594117"
     inkscape:cx="520.31623"
     inkscape:cy="539.83747"
     inkscape:window-width="1920"
     inkscape:window-height="1009"
     inkscape:window-x="1912"
     inkscape:window-y="-8"
     inkscape:window-maximized="1"
     inkscape:current-layer="layer1" /><defs
     id="defs1" /><g
     inkscape:label="Warstwa 1"
     inkscape:groupmode="layer"
     id="layer1"><path
       d="m 103.97259,175.89476 c -0.039,-0.28866 0.0186,-1.21514 0.60794,-9.78181 l 0.56416,-8.20033 -0.822,-1.66203 c -1.42037,-2.87192 -4.23241,-6.39675 -7.377451,-9.24747 -3.50914,-3.18075 -5.53445,-5.37193 -6.30971,-6.82647 -0.39841,-0.74749 -0.68301,-1.35907 -0.63244,-1.35907 0.0506,0 0.49347,0.583 0.98422,1.29555 1.11578,1.62006 2.86906,3.23363 5.08621,4.68091 1.92067,1.25374 7.261211,6.45462 8.298251,8.08124 l 0.67219,1.05433 0.15589,-1.28862 c 0.0857,-0.70875 0.16633,-2.42623 0.17908,-3.81663 0.0264,-2.87962 0.20976,-2.37727 -2.9258,-8.01527 -2.19678,-3.95002 -4.018151,-8.04138 -4.745751,-10.66042 -0.62647,-2.25506 -2.18509,-10.51129 -2.09627,-11.10426 0.0373,-0.24873 0.57731,1.59445 1.20012,4.09596 0.6228,2.50151 1.3473,5.23351 1.60996,6.07112 0.6957,2.2184 3.482971,7.85547 5.107381,10.32931 0.77272,1.17678 1.40494,2.2335 1.40494,2.34826 0,0.11476 0.13179,0.2088 0.29287,0.20899 0.22981,2.6e-4 0.25845,-0.99609 0.13306,-4.62733 -0.0879,-2.54521 -0.16251,-7.63249 -0.16579,-11.30507 -0.003,-3.67257 -0.0104,-6.94331 -0.0159,-7.26832 -0.005,-0.325 -0.85003,-1.9974 -1.87681,-3.71644 -2.06603,-3.45897 -3.411541,-6.65172 -4.324411,-10.26139 -0.81933,-3.23975 -0.75181,-3.46698 0.19622,-0.66043 0.43529,1.28862 1.217211,3.32957 1.737601,4.53543 1.0238,2.37235 3.95734,7.03995 4.43319,7.05371 0.21218,0.006 0.29287,-0.54517 0.29287,-2.0013 0,-2.22436 0.351,-6.46398 0.78593,-9.49299 0.24152,-1.68202 0.26991,-0.60242 0.19468,7.40259 -0.0659,7.0114 0.01,10.84705 0.29913,15.22918 0.21296,3.22155 0.44953,7.04349 0.52572,8.49319 0.0761,1.4497 0.23217,2.63582 0.34663,2.63582 0.29392,0 2.81312,-3.94701 4.06606,-6.3706 0.57896,-1.11988 1.5266,-3.49212 2.10588,-5.27164 1.07005,-3.28721 3.37546,-12.10073 3.40921,-13.03336 0.0102,-0.28111 0.0677,-0.39135 0.12777,-0.24496 0.27259,0.66396 -2.03635,11.91289 -3.33579,16.25164 -0.59703,1.99346 -3.34886,7.58716 -4.74565,9.64661 -1.45968,2.15217 -1.45067,2.08576 -1.28109,9.43931 0.0848,3.67759 0.23817,6.68653 0.34079,6.68653 0.36312,0 4.53389,-5.41267 7.49231,-9.72324 3.36326,-4.90043 7.92183,-11.09517 8.53572,-11.5994 0.23414,-0.19231 -0.0178,0.33567 -0.55979,1.17327 -0.54201,0.83761 -1.57902,2.52453 -2.30446,3.74872 -1.87471,3.16359 -4.113,6.62106 -10.23825,15.81491 -0.94437,1.41749 -2.00572,3.14804 -2.35855,3.84568 l -0.64151,1.26843 0.17134,8.16194 0.17135,8.16194 h -2.37375 c -1.30557,0 -2.38444,-0.0791 -2.39749,-0.17572 z"
       style="fill:#b3b3b3;stroke-width:0.885524"
       id="path1-4"
       sodipodi:nodetypes="sscssssssscsssssssssssccsssssssssssssscsssssssssscccsss" /></g></svg>
