<?xml version="1.0" encoding="UTF-8" standalone="no"?>
<!-- Created with Inkscape (http://www.inkscape.org/) -->

<svg
   width="210mm"
   height="297mm"
   viewBox="0 0 210 297"
   version="1.1"
   id="svg1"
   xml:space="preserve"
   sodipodi:docname="tree4.svg"
   inkscape:version="1.4 (86a8ad7, 2024-10-11)"
   xmlns:inkscape="http://www.inkscape.org/namespaces/inkscape"
   xmlns:sodipodi="http://sodipodi.sourceforge.net/DTD/sodipodi-0.dtd"
   xmlns="http://www.w3.org/2000/svg"
   xmlns:svg="http://www.w3.org/2000/svg"><sodipodi:namedview
     id="namedview1"
     pagecolor="#ffffff"
     bordercolor="#000000"
     borderopacity="0.25"
     inkscape:showpageshadow="2"
     inkscape:pageopacity="0.0"
     inkscape:pagecheckerboard="0"
     inkscape:deskcolor="#d1d1d1"
     inkscape:document-units="mm"
     inkscape:zoom="0.66594117"
     inkscape:cx="544.34237"
     inkscape:cy="539.83747"
     inkscape:window-width="1920"
     inkscape:window-height="1009"
     inkscape:window-x="1912"
     inkscape:window-y="-8"
     inkscape:window-maximized="1"
     inkscape:current-layer="layer1" /><defs
     id="defs1" /><g
     inkscape:label="Warstwa 1"
     inkscape:groupmode="layer"
     id="layer1"><path
       style="fill:#b3b3b3"
       d="m 102.7278,175.26386 c 0.12142,-4.32925 0.22076,-9.30011 0.22076,-11.04636 v -3.175 l -1.11952,-1.63182 c -2.581586,-3.76296 -4.052636,-5.03828 -6.685686,-5.79616 -1.46842,-0.42266 -3.53985,-1.4848 -3.83868,-1.96832 -0.089,-0.14405 0.24529,-0.0217 0.74292,0.27194 0.88678,0.52321 4.98731,1.86934 5.17587,1.69915 0.0527,-0.0475 -0.32284,-0.59895 -0.83445,-1.22539 -1.79776,-2.20129 -5.76902,-9.27152 -5.40958,-9.63096 0.0468,-0.0468 0.48648,0.65414 0.9771,1.55762 1.02111,1.8804 3.83651,6.08855 4.36927,6.5307 0.29313,0.24328 0.38813,-0.0749 0.52745,-1.76648 0.27039,-3.28299 0.33237,-3.31247 0.37073,-0.17634 l 0.036,2.9452 1.84401,2.08189 c 1.014206,1.14504 2.294126,2.64236 2.844266,3.32739 0.55015,0.68503 1.08956,1.25057 1.1987,1.25677 0.17566,0.01 0.38456,-9.58113 0.26722,-12.26861 -0.054,-1.23687 -2.12921,-5.50632 -3.39542,-6.9856 -0.476556,-0.55675 -1.560126,-1.38286 -2.407936,-1.8358 -0.8478,-0.45294 -1.95818,-1.27202 -2.4675,-1.82017 l -0.92605,-0.99665 1.04415,0.88409 c 0.99694,0.84411 3.79954,2.27123 4.02248,2.04829 0.0583,-0.0583 -0.13224,-0.66195 -0.42348,-1.34138 -0.63561,-1.48283 -1.86775,-5.45918 -1.85826,-5.99697 0.004,-0.21077 0.3081,0.50975 0.67639,1.60115 0.82787,2.45333 2.765636,6.38553 4.494016,9.11945 l 1.30512,2.0644 0.16751,-1.68932 c 0.0921,-0.92912 0.18143,-4.27687 0.19844,-7.43944 l 0.0309,-5.75013 -1.19063,-2.48047 c -1.48664,-3.09718 -1.56253,-3.82003 -0.10991,-1.04695 0.59439,1.1347 1.1897,2.1762 1.32291,2.31444 0.1472,0.15276 0.29112,-0.83332 0.26859,-2.51354 -0.0815,-6.08016 0.29587,-4.54419 0.50279,2.39448 0.16335,5.47752 0.11057,5.5409 1.72194,3.00376 0.72577,-1.14274 1.58467,-2.85162 1.90866,-3.79751 0.32399,-0.94588 0.59086,-1.5412 0.59304,-1.32292 0.008,0.8268 -0.78648,2.88956 -2.34461,6.08542 l -1.61245,3.30729 0.1436,6.87917 c 0.079,3.78354 0.20454,7.38286 0.27902,7.9985 l 0.13543,1.11933 1.66528,-2.44225 c 2.68289,-3.93465 2.60271,-3.67412 2.45092,-7.96374 -0.0868,-2.45233 -0.0612,-3.14713 0.0743,-2.01913 0.39122,3.25596 0.61528,4.49791 0.81147,4.49791 0.28508,0 1.50406,-2.57199 2.94686,-6.2177 0.69107,-1.74626 1.26194,-3.0569 1.26858,-2.91256 0.0275,0.59646 -2.23103,7.04238 -3.18867,9.10074 -0.56792,1.22069 -1.03258,2.24949 -1.03258,2.28622 0,0.216 3.96176,-1.59662 4.66946,-2.13641 1.20586,-0.91975 1.46556,-0.80624 0.35763,0.15631 -0.50933,0.44249 -1.83019,1.27925 -2.93525,1.85946 -1.10506,0.58021 -2.27999,1.30719 -2.61094,1.61552 -0.81481,0.75911 -2.31479,3.11669 -3.50865,5.51466 l -0.98504,1.97856 0.24857,7.67291 c 0.13671,4.22011 0.33119,10.91737 0.43217,14.88282 l 0.18359,7.20989 h -1.91683 -1.91684 z"
       id="path4"
       sodipodi:nodetypes="cscssssssssssscssssssscssscsscsscssssssscscsscsscsssssssssscsscccc" /></g></svg>
