<?xml version="1.0" encoding="UTF-8" standalone="no"?>
<!-- Created with Inkscape (http://www.inkscape.org/) -->

<svg
   width="210mm"
   height="297mm"
   viewBox="0 0 210 297"
   version="1.1"
   id="svg1"
   xml:space="preserve"
   sodipodi:docname="tree3.svg"
   inkscape:version="1.4 (86a8ad7, 2024-10-11)"
   xmlns:inkscape="http://www.inkscape.org/namespaces/inkscape"
   xmlns:sodipodi="http://sodipodi.sourceforge.net/DTD/sodipodi-0.dtd"
   xmlns="http://www.w3.org/2000/svg"
   xmlns:svg="http://www.w3.org/2000/svg"><sodipodi:namedview
     id="namedview1"
     pagecolor="#ffffff"
     bordercolor="#000000"
     borderopacity="0.25"
     inkscape:showpageshadow="2"
     inkscape:pageopacity="0.0"
     inkscape:pagecheckerboard="0"
     inkscape:deskcolor="#d1d1d1"
     inkscape:document-units="mm"
     inkscape:zoom="0.66594117"
     inkscape:cx="544.34237"
     inkscape:cy="539.83747"
     inkscape:window-width="1920"
     inkscape:window-height="1009"
     inkscape:window-x="1912"
     inkscape:window-y="-8"
     inkscape:window-maximized="1"
     inkscape:current-layer="layer1" /><defs
     id="defs1" /><g
     inkscape:label="Warstwa 1"
     inkscape:groupmode="layer"
     id="layer1"><path
       style="fill:#b3b3b3"
       d="m 98.753459,179.85512 c 0.44192,-2.0292 0.38841,-13.36501 1.257921,-22.29114 0.17212,-1.76694 0.37015,-3.1708 0.33105,-6.03304 -0.0728,-5.33209 -0.22122,-5.78133 -2.023241,-9.50209 -1.35374,-2.79514 -2.06871,-3.5236 -4.64349,-4.73108 -1.11676,-0.52371 -2.62578,-1.23519 -3.35338,-1.58107 -0.72761,-0.34587 -1.8587,-1.11615 -2.51355,-1.71173 -1.28091,-1.16499 -0.9825,-1.14872 0.53393,0.0291 1.29089,1.00264 6.61116,3.35954 6.60898,2.92779 -4.7e-4,-0.0922 -0.74634,-1.06065 -1.65749,-2.15206 -2.7869,-3.33823 -5.57255,-7.38027 -6.94601,-10.07879 -0.65375,-1.28447 -0.34983,-0.9189 1.35251,1.62689 1.59787,2.38956 4.08709,5.61942 4.22475,5.48177 0.24311,-0.24312 -0.75055,-7.53629 -1.1812,-8.66968 -0.27681,-0.72849 -0.40496,-1.26375 -0.28478,-1.18948 0.43213,0.26707 1.30421,3.49275 1.71595,6.347 0.61361,4.25367 0.79772,4.70097 2.87022,6.97331 2.4971,2.7379 3.91533,4.69839 4.68598,6.47771 0.354681,0.8189 0.721371,1.49094 0.814871,1.49342 0.33866,0.009 0.53479,-9.08755 0.23923,-11.09552 -0.25565,-1.73683 -0.45193,-2.1935 -1.646501,-3.83074 -1.35705,-1.85994 -2.31787,-3.65876 -2.32879,-4.35992 -0.003,-0.20514 0.35209,0.33064 0.78952,1.19062 0.74154,1.45787 2.29456,3.45671 2.514691,3.23658 0.0535,-0.0535 -0.125511,-1.24808 -0.397901,-2.65452 -0.50674,-2.61653 -1.20488,-10.54585 -1.00985,-11.46968 0.0596,-0.28234 0.2573,0.79634 0.43933,2.39707 0.53727,4.7248 0.60127,5.0356 0.919841,4.46635 0.15054,-0.26899 0.48392,-1.14584 0.74086,-1.94855 0.37533,-1.17259 0.46826,-1.30344 0.47275,-0.66571 0.003,0.43656 -0.22476,1.44859 -0.5063,2.24895 -0.69164,1.96619 -0.656,3.69247 0.12836,6.21771 0.36159,1.16417 0.65923,2.37753 0.66142,2.69637 0.002,0.31883 0.12303,0.65328 0.26855,0.74322 0.16275,0.10058 0.27334,-0.37715 0.28733,-1.24116 0.0172,-1.06136 0.0714,-1.24301 0.22177,-0.74322 0.10947,0.3638 0.10928,1.37583 -4.1e-4,2.24896 -0.43063,3.42757 -0.14578,6.41185 0.436,4.5679 0.10397,-0.32953 0.64833,-1.54018 1.20968,-2.69032 0.73654,-1.5091 1.01983,-2.42967 1.01777,-3.30729 -0.003,-1.23251 -0.62708,-3.71316 -1.00158,-3.98057 -0.40829,-0.29154 -1.3767,-1.67998 -1.37235,-1.96759 0.002,-0.16228 0.25227,0.0919 0.55515,0.56485 0.30288,0.47294 0.65806,0.85989 0.78929,0.85989 0.13123,0 0.25614,-1.10132 0.27758,-2.44739 l 0.039,-2.4474 0.18327,2.24896 c 0.18823,2.30974 1.05812,6.34924 1.3674,6.34973 0.32472,5.1e-4 1.81097,-4.52136 1.80894,-5.50366 -0.001,-0.5381 -0.23833,-1.75227 -0.52714,-2.69815 -0.28882,-0.94589 -0.50982,-2.07698 -0.49112,-2.51354 0.0304,-0.7092 0.046,-0.72329 0.14654,-0.1323 0.15806,0.92915 1.23338,3.70417 1.43536,3.70417 0.0921,0 0.30436,-0.92273 0.4717,-2.05052 0.72049,-4.85561 0.78487,-5.11545 0.63927,-2.57969 -0.1254,2.184 -0.63241,5.92633 -1.0216,7.54063 -0.26439,1.09662 1.83628,-1.35283 2.78025,-3.24188 0.44115,-0.88283 0.8021,-1.47046 0.8021,-1.30584 0,0.73788 -1.45508,3.47145 -2.75977,5.18463 -1.2245,1.60787 -3.59501,6.50684 -3.14854,6.50684 0.22702,0 3.26171,-2.18193 3.27323,-2.35344 0.006,-0.0881 0.3748,-0.57682 0.81975,-1.08615 l 0.809,-0.92604 -0.53198,1.05834 c -0.59348,1.18066 -1.57571,2.16705 -3.79846,3.81456 -1.34565,0.99739 -1.5703,1.30813 -2.17922,3.01436 -1.42495,3.99274 -1.70378,6.96969 -1.30352,13.91684 l 0.17393,3.01867 0.50264,-0.63742 c 2.14022,-2.71414 4.52714,-4.6167 8.79639,-7.01139 2.21745,-1.2438 2.79796,-2.13442 3.56785,-5.47379 0.49358,-2.14088 1.16047,-3.89496 1.48083,-3.89496 0.0728,0 -0.0516,0.35568 -0.27644,0.79039 -0.2248,0.43472 -0.64706,1.97926 -0.93835,3.43233 -0.2913,1.45306 -0.59942,2.82379 -0.68471,3.04606 -0.21246,0.55367 0.009,0.50984 1.18933,-0.23516 2.85468,-1.80207 6.22826,-5.07428 8.00168,-7.76122 0.60028,-0.90951 1.14384,-1.65365 1.2079,-1.65365 0.32972,0 -1.57186,2.93136 -2.98034,4.59432 -2.41074,2.8463 -4.55386,4.62853 -8.51626,7.08217 l -3.57564,2.21413 3.46498,0.0737 c 2.81772,0.06 3.73695,-0.0181 4.92092,-0.41779 0.80077,-0.27033 1.40057,-0.40192 1.33289,-0.2924 -0.32575,0.52707 -3.05809,1.07782 -6.49302,1.30879 -3.05867,0.20566 -4.03073,0.37108 -4.99403,0.84985 -1.46645,0.72884 -3.8165,3.47344 -5.10025,5.95653 l -0.92114,1.78171 0.23233,8.73125 c 0.15067,5.662 0.38457,9.70782 0.6654,11.50937 0.23818,1.52797 0.48737,3.22461 0.55375,3.77031 l 0.1207,0.99219 h -3.10135 -3.101341 z"
       id="path3"
       sodipodi:nodetypes="ssssssssssssssssssssssssssssssssssssssssscssscsssssssssssssssscsssscsssssssssssscsssssscssscccs" /></g></svg>
