<?xml version="1.0" encoding="UTF-8" standalone="no"?>
<!-- Created with Inkscape (http://www.inkscape.org/) -->

<svg
   width="210mm"
   height="297mm"
   viewBox="0 0 210 297"
   version="1.1"
   id="svg1"
   xml:space="preserve"
   sodipodi:docname="tree2.svg"
   inkscape:version="1.4 (86a8ad7, 2024-10-11)"
   xmlns:inkscape="http://www.inkscape.org/namespaces/inkscape"
   xmlns:sodipodi="http://sodipodi.sourceforge.net/DTD/sodipodi-0.dtd"
   xmlns="http://www.w3.org/2000/svg"
   xmlns:svg="http://www.w3.org/2000/svg"><sodipodi:namedview
     id="namedview1"
     pagecolor="#ffffff"
     bordercolor="#000000"
     borderopacity="0.25"
     inkscape:showpageshadow="2"
     inkscape:pageopacity="0.0"
     inkscape:pagecheckerboard="0"
     inkscape:deskcolor="#d1d1d1"
     inkscape:document-units="mm"
     inkscape:zoom="0.66594117"
     inkscape:cx="520.31623"
     inkscape:cy="539.83747"
     inkscape:window-width="1920"
     inkscape:window-height="1009"
     inkscape:window-x="1912"
     inkscape:window-y="-8"
     inkscape:window-maximized="1"
     inkscape:current-layer="layer1" /><defs
     id="defs1" /><g
     inkscape:label="Warstwa 1"
     inkscape:groupmode="layer"
     id="layer1"><path
       style="fill:#b3b3b3;stroke-width:0.783951"
       d="m 98.585432,176.03568 c -0.004,-1.93115 -0.1044,-2.47785 -1.09283,-5.96333 -0.59851,-2.11051 -1.41065,-5.47072 -1.80477,-7.46713 -0.81548,-4.13095 -0.91817,-4.44348 -1.98147,-6.03077 -1.55961,-2.32814 -3.97624,-4.21867 -9.42596,-7.37395 -1.58304,-0.91655 -4.69374,-3.91327 -5.89389,-5.67795 l -0.91693,-1.34823 1.91905,2.01429 c 2.40391,2.52322 3.97779,3.72029 6.35325,4.83222 2.81882,1.31945 5.3366,2.87968 6.73244,4.17199 1.42022,1.31486 1.45852,1.26272 0.84314,-1.14752 -1.06843,-4.1846 -3.37268,-9.50116 -5.39441,-12.44641 -0.99778,-1.45355 -2.816,-3.23536 -3.63311,-3.56033 -0.36144,-0.14376 -1.88286,-0.26402 -3.62985,-0.28693 -2.8056,-0.0368 -3.07974,-0.0764 -4.08187,-0.58985 -0.59085,-0.30273 -1.14408,-0.66335 -1.22939,-0.80139 -0.0853,-0.13804 0.18479,-0.0409 0.60023,0.21585 1.23201,0.76142 1.95243,0.871 4.76546,0.72478 l 2.64718,-0.13759 -0.97019,-0.95409 c -1.58445,-1.55816 -2.54144,-2.89294 -3.63143,-5.065 -1.02946,-2.05144 -1.30077,-2.99044 -0.38473,-1.33155 1.45737,2.63921 2.99596,4.55594 4.75408,5.92246 0.98053,0.76214 2.45948,1.97274 3.28657,2.69022 0.82709,0.71748 1.50281,1.23109 1.5016,1.14135 -0.002,-0.0897 -0.32962,-1.3299 -0.72981,-2.75592 -0.4002,-1.42601 -1.10814,-4.36619 -1.5732,-6.53373 -0.46507,-2.16754 -1.19761,-4.96772 -1.62788,-6.22261 -0.43026,-1.25489 -0.84635,-2.4683 -0.92464,-2.69646 -0.0783,-0.22816 0.18205,0.1983 0.57855,0.9477 0.97415,1.84121 1.97345,4.77843 3.11082,9.14362 1.06846,4.10071 2.38536,7.93646 3.621,10.54699 l 0.83452,1.76307 0.017,-1.0371 c 0.0225,-1.3713 0.54032,-4.71504 0.93156,-6.01518 0.65195,-2.16651 0.97606,-4.2227 0.99723,-6.32632 0.0173,-1.72322 0.0548,-1.98304 0.17927,-1.24452 0.31769,1.88433 0.1918,4.40413 -0.37219,7.44935 -0.45073,2.43373 -0.55985,3.63381 -0.55799,6.13667 l 0.002,3.11131 0.78865,1.86678 c 1.05388,2.4946 3.05636,8.60596 4.07786,12.44521 1.7594,6.61259 3.352388,11.64681 4.331878,13.68974 1.51855,3.16729 1.56189,3.19617 1.84256,1.22774 0.743,-5.21091 0.84301,-9.22911 0.34035,-13.67295 -0.3623,-3.20288 -0.38692,-5.9777 -0.0819,-9.23021 0.4367,-4.65705 0.30564,-5.61104 -1.17784,-8.57373 -0.39045,-0.77976 -1.26695,-2.18446 -1.94781,-3.12156 -1.392098,-1.91606 -2.717578,-4.59363 -3.194898,-6.45397 -0.17562,-0.6845 -0.41427,-2.3646 -0.53033,-3.73357 -0.11605,-1.36897 -0.2664,-2.72239 -0.33409,-3.00759 -0.0931,-0.39209 -0.0727,-0.44101 0.0837,-0.20056 0.11375,0.17489 0.40764,1.3883 0.6531,2.69646 0.93775,4.99776 2.19728,7.82074 4.742458,10.62925 0.67939,0.74967 1.48553,1.79012 1.79143,2.31209 0.3059,0.52197 0.64063,0.89684 0.74386,0.83304 0.34883,-0.21559 0.20113,-6.98 -0.24504,-11.2224 -0.45157,-4.29374 -0.57617,-4.78836 -2.04824,-8.13114 -0.47048,-1.06835 -1.03721,-2.70178 -1.25941,-3.62985 -0.38408,-1.60417 -0.96792,-7.10814 -0.77453,-7.30154 0.0502,-0.0502 0.20194,0.92885 0.33717,2.17568 0.13523,1.24683 0.42239,2.95057 0.63814,3.78609 0.4209,1.63 2.14487,5.82569 2.43226,5.91948 0.0957,0.0312 0.20045,-0.94448 0.23284,-2.16823 0.0324,-1.22375 0.19852,-3.15999 0.36915,-4.30276 0.35163,-2.35499 1.16318,-6.36343 1.26726,-6.25935 0.0379,0.0379 -0.13252,1.32095 -0.37871,2.85122 -0.70568,4.38626 -0.66031,9.43456 0.13545,15.07152 0.34218,2.42399 0.69215,4.40744 0.77771,4.40769 0.0856,2.4e-4 0.15557,-0.10927 0.15557,-0.24336 0,-0.47927 2.51252,-5.63129 3.45646,-7.08759 2.09278,-3.22873 3.3005,-6.36055 3.81823,-9.90139 0.336,-2.29793 0.4574,-1.93471 0.18121,0.54219 -0.4127,3.70115 -1.32208,6.59578 -3.02797,9.63829 -1.38504,2.47027 -3.15141,6.8263 -3.62672,8.94384 -0.34745,1.54786 -0.44734,2.7728 -0.48851,5.99042 -0.0285,2.22458 -0.16997,5.30477 -0.31446,6.84487 -0.32558,3.47028 -0.16648,8.25596 0.3965,11.92667 0.22745,1.48305 0.51649,4.56324 0.64229,6.84486 0.21986,3.98739 0.64702,7.28242 1.03323,7.97011 0.15917,0.28343 0.20357,0.27176 0.33522,-0.0881 0.0835,-0.22816 0.68432,-1.62825 1.33523,-3.11131 1.40621,-3.20399 3.24591,-8.56991 4.1246,-12.03037 0.34762,-1.36897 0.81955,-3.09575 1.04873,-3.83727 0.49258,-1.59371 0.54371,-4.05742 0.1227,-5.91148 -0.47264,-2.08141 -1.56486,-6.11214 -2.20557,-8.13941 -1.11665,-3.5332 -1.53383,-7.82297 -1.03399,-10.63212 0.13116,-0.73716 0.17155,-0.42671 0.19205,1.47662 0.035,3.24464 0.45865,5.47674 1.66025,8.74625 1.15634,3.14639 2.46558,7.3424 2.64913,8.49028 0.14791,0.92498 0.38903,1.01615 0.55062,0.2082 0.0633,-0.31688 0.84509,-2.25367 1.73714,-4.30397 l 1.62192,-3.72782 -0.022,-3.21502 c -0.0169,-2.46928 -0.14921,-3.94322 -0.5704,-6.35453 -0.55219,-3.16122 -0.67964,-6.02571 -0.36791,-8.26859 0.10282,-0.73979 0.15179,-0.23436 0.17084,1.76308 0.0224,2.3548 0.12515,3.19604 0.64567,5.28921 0.76132,3.06148 1.08037,4.96694 1.13728,6.7923 0.0246,0.78989 0.13104,1.37055 0.24431,1.3332 0.26622,-0.0878 2.85816,-6.54476 3.66733,-9.13596 0.7178,-2.2986 0.71168,-3.23833 -0.0382,-5.86049 -0.42787,-1.49617 -0.4937,-2.73822 -0.21851,-4.12232 0.13692,-0.68865 0.16133,-0.56525 0.14361,0.72597 -0.0165,1.20638 0.11836,1.98525 0.60091,3.46907 0.34225,1.05238 0.66893,1.91523 0.72597,1.91745 0.0571,0.002 0.27621,-0.71499 0.48705,-1.59379 0.5058,-2.10833 2.21001,-7.38742 2.34216,-7.25527 0.0571,0.057 -0.0804,0.69999 -0.30553,1.42875 -0.22509,0.72876 -0.65805,2.44122 -0.96212,3.80546 -1.10965,4.97857 -2.21975,9.11282 -3.3287,12.39676 -0.62378,1.84722 -1.13474,3.4812 -1.13545,3.63108 -0.002,0.30873 2.53981,-1.60765 5.10387,-3.84884 1.81408,-1.58565 3.87233,-4.25579 5.56548,-7.22003 1.1737,-2.05483 1.21765,-1.87435 0.0921,0.37811 -1.53702,3.07582 -2.8852,5.10616 -4.57816,6.89467 l -1.66648,1.76051 h 2.58926 c 1.80159,0 2.86475,-0.0972 3.4949,-0.31953 1.15637,-0.40799 0.79687,-0.0672 -0.43011,0.40771 -0.5819,0.22522 -1.94178,0.42122 -3.66721,0.52854 -1.5083,0.0938 -2.86555,0.24428 -3.01613,0.33438 -0.7332,0.43874 -3.05671,2.39996 -3.73855,3.15561 -1.23229,1.36572 -1.75583,2.28658 -2.64029,4.64396 -0.72443,1.93083 -2.64122,8.15769 -2.99895,9.74232 -0.0684,0.30313 -0.18801,0.72315 -0.26573,0.93339 -0.0777,0.21024 0.58235,-0.30092 1.46683,-1.13592 1.84098,-1.73801 3.538,-2.88488 6.34726,-4.28959 3.00826,-1.50421 4.6694,-2.66528 6.65724,-4.65311 l 1.81501,-1.81501 -0.86555,1.23125 c -1.42835,2.03185 -3.7362,4.04503 -6.57912,5.73908 -3.25075,1.93708 -4.24759,2.6803 -6.32041,4.71237 -2.84226,2.7864 -3.53855,4.17276 -4.56904,9.09742 -0.31033,1.48305 -1.03909,4.09655 -1.61945,5.80776 -1.02901,3.03409 -1.05535,3.17178 -1.0614,5.54791 l -0.006,2.43661 -7.05823,5.8e-4 -7.058228,5.8e-4 z"
       id="path2"
       sodipodi:nodetypes="cssssscssssssssssscssssscssssssscssscsscsssssssssssssssssssssssssssssssssssssssssssssssssssscsssssssssssssssssscsssscsssssssssssscsssssccccc" /></g></svg>
