<?xml version="1.0" encoding="UTF-8" standalone="no"?>
<!-- Created with Inkscape (http://www.inkscape.org/) -->

<svg
   width="100mm"
   height="100mm"
   viewBox="0 0 100 100"
   version="1.1"
   id="svg1"
   inkscape:version="1.4 (86a8ad7, 2024-10-11)"
   sodipodi:docname="bush3.svg"
   xml:space="preserve"
   xmlns:inkscape="http://www.inkscape.org/namespaces/inkscape"
   xmlns:sodipodi="http://sodipodi.sourceforge.net/DTD/sodipodi-0.dtd"
   xmlns="http://www.w3.org/2000/svg"
   xmlns:svg="http://www.w3.org/2000/svg"><sodipodi:namedview
     id="namedview1"
     pagecolor="#ffffff"
     bordercolor="#000000"
     borderopacity="0.25"
     inkscape:showpageshadow="2"
     inkscape:pageopacity="0.0"
     inkscape:pagecheckerboard="true"
     inkscape:deskcolor="#d1d1d1"
     inkscape:document-units="mm"
     inkscape:zoom="2.0334082"
     inkscape:cx="191.05854"
     inkscape:cy="190.07497"
     inkscape:window-width="1920"
     inkscape:window-height="1009"
     inkscape:window-x="1912"
     inkscape:window-y="-8"
     inkscape:window-maximized="1"
     inkscape:current-layer="layer1" /><defs
     id="defs1" /><g
     inkscape:label="Warstwa 1"
     inkscape:groupmode="layer"
     id="layer1"><path
       style="fill:#307845;fill-opacity:1"
       d="m 20.249743,79.15499 c -2.540466,-0.636083 -4.224815,-3.343712 -3.937853,-6.330187 0.221408,-2.304234 1.150926,-3.628314 3.392056,-4.831916 1.467895,-0.788335 2.088253,-0.889451 4.578382,-0.746256 3.56051,0.204747 6.602,1.514775 11.63639,5.012008 5.21185,3.620516 5.79349,3.837109 3.46836,1.291558 -1.09215,-1.195683 -3.27657,-4.03296 -4.85426,-6.30506 -3.00332,-4.325199 -4.09084,-5.513004 -6.55954,-7.164414 -2.84025,-1.899948 -5.995284,-0.933434 -5.995284,1.836593 0,1.494059 0.982032,2.540925 2.383563,2.540925 1.224781,0 1.982211,-0.870477 1.654871,-1.901848 -0.24954,-0.786228 -1.7341,-1.130796 -1.7341,-0.402486 0,0.211231 0.172825,0.384056 0.384056,0.384056 0.21123,0 0.384055,0.259237 0.384055,0.576083 0,0.780114 -1.770106,0.753269 -2.071216,-0.03141 -1.104991,-2.879561 2.113604,-4.470814 4.149385,-2.051428 1.30295,1.548473 1.26395,2.832394 -0.12835,4.224688 -2.002337,2.002339 -5.413808,1.403196 -6.752708,-1.185951 -1.27762,-2.470645 -0.172385,-5.705728 2.302602,-6.739844 4.145456,-1.732082 8.099286,0.609749 14.570196,8.629857 3.69724,4.582385 5.20785,6.184856 4.73906,5.02723 -0.1283,-0.316846 -0.66543,-1.619062 -1.1936,-2.893813 -0.52817,-1.274751 -1.23299,-3.755183 -1.56627,-5.512071 -0.97266,-5.127468 -2.24036,-7.3534 -4.51044,-7.919841 -0.75774,-0.189074 -1.2306,-0.04751 -1.82426,0.546162 -0.95676,0.956754 -1.0144,1.685688 -0.19788,2.50221 0.88419,0.884188 2.08487,0.775494 2.08487,-0.188736 0,-0.598954 -0.20852,-0.762936 -0.85466,-0.672097 -1.14532,0.161019 -1.40557,-1.06438 -0.30054,-1.415104 1.32633,-0.420962 2.69143,0.740755 2.69143,2.290446 0,2.428456 -2.49219,3.271111 -4.55097,1.538765 -1.4844,-1.249043 -1.83605,-2.819798 -1.01746,-4.544852 0.75245,-1.585673 2.35528,-2.351397 4.2712,-2.040488 1.8978,0.307971 2.90671,1.051035 4.31609,3.17881 l 1.006507,1.934203 c -0.01027,-0.511869 -0.100386,-0.778226 -0.02846,-1.540319 0.167286,-1.772581 2.012177,-3.313891 3.691417,-3.313891 1.6859,0 3.31825,1.06046 4.0696,2.643819 0.52619,1.108852 0.59722,2.178741 0.42185,6.353793 -0.17174,4.088572 -0.14028,4.592709 0.16949,2.716086 0.60562,-3.668891 0.59249,-12.715652 -0.0225,-15.489007 -0.8802,-3.969495 -2.94657,-6.286949 -5.60581,-6.286949 -3.78076,0 -5.38183,4.432594 -2.32462,6.435754 1.23758,0.810897 2.78395,0.462385 3.33733,-0.752151 0.52185,-1.145339 -0.14584,-2.534347 -1.21825,-2.534347 -0.92264,0 -0.96366,0.338539 -0.11612,0.958277 0.86119,0.629711 0.38948,1.730113 -0.74164,1.730113 -1.22482,0 -1.81712,-0.69415 -1.81712,-2.129594 0,-1.722029 1.07029,-2.555547 3.09081,-2.407061 4.25497,0.312693 4.36531,6.225731 0.14219,7.619489 -2.34563,0.774126 -4.97418,-0.469932 -6.25745,-2.961572 -0.61134,-1.186994 -0.53585,-4.183291 0.13824,-5.486835 1.21982,-2.358865 4.77715,-3.815461 7.51665,-3.077791 1.75777,0.473319 4.33666,2.620823 5.23617,4.360288 l 0.59955,1.159399 0.92227,-2.474732 c 1.46873,-3.941068 1.95019,-4.788364 3.53396,-6.219207 2.60131,-2.350122 5.46412,-2.756626 8.67688,-1.232071 3.34514,1.587371 4.57132,6.289547 2.38693,9.153427 -1.29926,1.703426 -2.84278,2.544093 -4.67111,2.544093 -3.66927,0 -5.85242,-3.381112 -4.22064,-6.536634 0.68597,-1.326516 1.65116,-1.912591 3.1498,-1.912591 1.76614,0 2.79909,0.971785 2.79909,2.633356 0,1.653989 -0.54326,2.359368 -1.81711,2.359368 -1.15754,0 -1.59881,-1.103342 -0.70319,-1.758235 0.71206,-0.520673 0.51687,-1.31421 -0.32326,-1.31421 -0.65965,0 -1.76511,1.255064 -1.76511,2.003985 0,1.242525 1.37314,2.374249 2.88071,2.374249 3.56585,0 4.55849,-5.298657 1.34794,-7.195179 -0.59548,-0.351756 -1.74732,-0.63891 -2.55965,-0.638121 -4.33233,0.0042 -6.74926,4.699897 -6.81919,13.248485 -0.0389,4.755857 0.92495,15.480805 1.3221,14.711222 0.14224,-0.275639 0.45753,-2.181491 0.70063,-4.235226 0.24311,-2.053735 0.81033,-4.718492 1.26051,-5.921681 1.0457,-2.794887 3.39317,-5.378738 5.37037,-5.911142 3.06837,-0.826228 6.39653,0.99642 7.22544,3.956975 1.18235,4.222945 -3.05461,7.831556 -6.87538,5.855756 -1.24979,-0.646291 -2.13718,-2.772292 -1.72354,-4.129248 0.65587,-2.15161 2.92583,-3.148726 4.62845,-2.033125 0.79176,0.518778 0.94505,0.889176 0.84852,2.050235 -0.10718,1.28904 -0.23059,1.427942 -1.366,1.537416 -1.31433,0.126725 -1.67467,-0.500379 -0.79372,-1.38133 0.57777,-0.577772 0.23281,-0.943571 -0.59152,-0.627246 -0.91335,0.350485 -0.82324,2.334432 0.12918,2.844151 1.83026,0.979526 4.15946,-1.119176 3.6214,-3.263016 -0.51169,-2.038714 -3.26911,-3.116033 -5.25511,-2.053159 -2.25982,1.209419 -3.25234,4.147047 -3.54933,10.505144 -0.1184,2.534767 -0.30231,5.289274 -0.40869,6.121127 l -0.19341,1.51246 0.79096,-1.005545 c 2.22095,-2.823483 3.04558,-7.124588 1.54556,-8.061366 -1.05938,-0.66159 -0.96326,-1.447094 0.17706,-1.447094 2.73765,0 3.55042,4.583136 1.51187,8.525257 -1.11266,2.15164 -0.29903,1.449739 2.27815,-1.965327 2.9274,-3.879141 6.77168,-7.637121 8.79439,-8.596957 1.68175,-0.798046 4.57147,-0.84361 6.01929,-0.09491 2.985,1.543603 3.39378,5.848454 0.76537,8.060113 -2.037634,1.974919 0.123943,-0.380943 2.34443,0.261907 4.40128,1.318656 5.97289,6.386821 3.02252,9.747109 -2.59922,2.96034 -7.37304,2.23168 -8.42705,-1.286274 -1.08892,-3.634492 3.05551,-6.665958 5.61462,-4.106845 1.09528,1.095281 1.18726,1.993733 0.32947,3.218402 -0.81798,1.167824 -2.59669,1.023864 -2.77398,-0.224514 -0.0848,-0.597097 0.0734,-0.864125 0.51207,-0.864125 0.67499,0 0.61203,-0.818375 -0.0807,-1.049295 -0.65157,-0.217191 -1.70532,1.067393 -1.57724,1.92276 0.0641,0.427748 0.55798,1.106058 1.09762,1.507355 0.81264,0.604306 1.17009,0.657807 2.08101,0.311474 1.46062,-0.555328 2.09553,-1.459568 2.11036,-3.005584 0.016,-1.669984 -0.52635,-2.620726 -1.90037,-3.331264 -2.95014,-1.525574 -7.18836,0.179049 -13.10892,5.272439 -6.06521,5.217832 -5.56636,5.072713 -17.89689,5.206398 -11.96481,0.12972 -11.02301,0.341362 -15.80622,-3.55197 -5.98046,-4.867832 -8.70655,-6.176058 -12.256318,-5.881684 -2.669148,0.221347 -3.924471,1.428204 -3.924471,3.772954 0,1.932869 1.04558,3.051029 2.852985,3.051029 1.599538,0 2.606133,-0.911731 2.448631,-2.217866 -0.16863,-1.398407 -1.2619,-1.986446 -2.112235,-1.136111 -0.631412,0.631413 -0.625209,0.665588 0.120813,0.665588 1.079052,0 1.341024,0.355045 0.887393,1.202663 -0.52625,0.983307 -2.1006,0.90772 -2.831615,-0.135951 -0.842542,-1.202898 -0.745055,-2.106599 0.344821,-3.196476 1.258724,-1.258724 3.247961,-1.265408 4.700726,-0.01579 0.91247,0.784877 1.07757,1.22001 1.07757,2.840096 0,2.171845 -0.75574,3.305743 -2.772072,4.159164 -1.257402,0.532202 -1.999927,0.585402 -3.372823,0.241656 z m 42.925855,-4.961454 c 0.89353,-0.560046 2.92079,-2.016302 4.50502,-3.236126 1.58423,-1.219824 3.83095,-2.70845 4.99272,-3.308057 l 2.11231,-1.090195 -0.86413,-0.844707 c -1.13997,-1.114352 -1.19097,-3.617754 -0.096,-4.712711 1.77829,-1.778295 5.1559,-0.366317 4.38274,1.832163 -0.38981,1.108416 -1.51208,1.57618 -2.17974,0.90852 -0.28235,-0.282357 -0.26447,-0.57166 0.0594,-0.961964 0.53461,-0.644165 0.0515,-1.107204 -0.68215,-0.653792 -0.64628,0.399418 -0.40683,1.954148 0.37655,2.444919 1.84745,1.157401 4.11973,-1.518741 2.99433,-3.526537 -0.30934,-0.551896 -1.04775,-1.236729 -1.6409,-1.52185 -2.50077,-1.202094 -6.22444,1.742949 -10.93491,8.648395 -1.32112,1.936728 -3.13935,4.313072 -4.0405,5.280765 -1.83539,1.970902 -1.4249,2.270587 1.01522,0.741177 z m -17.91214,-7.150367 c 0.0276,-1.324215 0.35039,-3.757419 0.71742,-5.407119 0.67613,-3.039102 0.59814,-5.251745 -0.21987,-6.237386 -0.70267,-0.846658 -2.93767,-0.690016 -3.43583,0.240804 -0.55243,1.032223 -0.12454,2.289827 0.77909,2.289827 1.05695,0 1.36287,-0.784082 0.40378,-1.034889 -0.91247,-0.238617 -0.88262,-0.814812 0.0734,-1.41789 0.47039,-0.296711 0.82855,-0.212736 1.43553,0.336579 1.05596,0.955628 0.87168,2.399838 -0.42961,3.366928 -1.15626,0.859301 -2.540806,1.046605 -3.712396,-0.210949 -0.41532,-0.445789 -0.632193,-1.05806 -0.600605,-0.959034 0.553003,1.733586 4.293441,11.441325 4.859121,11.440859 0.0439,-3.6e-5 0.10237,-1.083515 0.12992,-2.40773 z"
       id="path255"
       sodipodi:nodetypes="sssssssssssssssssssssscscssssssssscssssscssssssssssssscsssssssssssssssssscsssssssssssssscsssssssssssssssscssssssssssssssssssssscsscsssscssssssccccsssscssssscc" /></g></svg>
