<?xml version="1.0" encoding="UTF-8" standalone="no"?>
<!-- Created with Inkscape (http://www.inkscape.org/) -->

<svg
   width="100mm"
   height="100mm"
   viewBox="0 0 100 100"
   version="1.1"
   id="svg1"
   inkscape:version="1.4 (86a8ad7, 2024-10-11)"
   sodipodi:docname="bush1.svg"
   xml:space="preserve"
   xmlns:inkscape="http://www.inkscape.org/namespaces/inkscape"
   xmlns:sodipodi="http://sodipodi.sourceforge.net/DTD/sodipodi-0.dtd"
   xmlns="http://www.w3.org/2000/svg"
   xmlns:svg="http://www.w3.org/2000/svg"><sodipodi:namedview
     id="namedview1"
     pagecolor="#ffffff"
     bordercolor="#000000"
     borderopacity="0.25"
     inkscape:showpageshadow="2"
     inkscape:pageopacity="0.0"
     inkscape:pagecheckerboard="true"
     inkscape:deskcolor="#d1d1d1"
     inkscape:document-units="mm"
     inkscape:zoom="1.4378367"
     inkscape:cx="129.70875"
     inkscape:cy="172.13359"
     inkscape:window-width="1920"
     inkscape:window-height="1009"
     inkscape:window-x="1912"
     inkscape:window-y="-8"
     inkscape:window-maximized="1"
     inkscape:current-layer="layer1" /><defs
     id="defs1" /><g
     inkscape:label="Warstwa 1"
     inkscape:groupmode="layer"
     id="layer1"><path
       style="fill:#307845;fill-opacity:1;stroke-width:1.10257"
       d="m 43.217888,77.377724 c -2.332725,-1.843915 -3.906173,-3.879963 -5.897641,-7.6316 -2.658337,-5.007923 -4.446446,-6.367641 -7.186285,-5.464616 -1.180842,0.389193 -2.45765,1.897096 -2.45765,2.902468 0,1.233777 0.85063,2.592511 1.89665,3.029565 0.93625,0.391192 1.144306,0.387253 2.041833,-0.03865 1.073289,-0.50931 1.463159,-1.234063 1.166567,-2.168568 -0.228145,-0.718796 -1.113257,-1.224785 -1.729111,-0.988462 -0.663517,0.254616 -0.563029,0.641587 0.194682,0.749689 0.808836,0.115398 0.992338,0.88545 0.361368,1.516425 -0.996814,0.996813 -2.623352,0.176724 -2.94421,-1.484447 -0.151369,-0.783687 -0.03622,-1.081053 0.705987,-1.823265 1.286923,-1.286928 2.955656,-1.255054 4.292714,0.082 2.611653,2.611662 0.665722,6.615936 -3.215115,6.615936 -3.339278,0 -5.748843,-3.296728 -4.854252,-6.641506 0.746076,-2.789494 2.81105,-4.295522 5.875279,-4.284961 3.237364,0.01116 4.657379,1.117569 8.010359,6.241268 2.050047,3.132683 3.658536,5.166366 3.658536,4.625636 0,-0.08249 -0.447667,-1.120223 -0.99483,-2.306063 -1.516479,-3.28665 -2.136908,-5.518 -2.951775,-10.616023 -1.154747,-7.224329 -2.870152,-10.001828 -6.355761,-10.29088 -3.755419,-0.31143 -6.349371,3.204357 -4.707174,6.380013 1.222757,2.364563 4.725775,2.672612 5.842163,0.513751 0.591718,-1.144253 0.518121,-1.804051 -0.299668,-2.686458 -0.766785,-0.827368 -1.578279,-0.987067 -2.143502,-0.421838 -0.581441,0.581435 -0.428768,1.172839 0.247374,0.958241 0.65925,-0.209238 1.444613,0.288382 1.444613,0.915331 0,0.221025 -0.262556,0.664414 -0.583449,0.985309 -1.830502,1.830506 -4.633973,-1.027032 -3.382286,-3.447523 0.658247,-1.272918 1.56593,-1.803644 3.082552,-1.802391 3.776346,0.0031 5.702574,4.562304 3.153932,7.465044 -1.240075,1.412371 -2.258102,1.868984 -4.166943,1.868984 -4.640493,0 -7.63032,-4.761734 -5.824149,-9.275799 1.069386,-2.67266 4.691663,-4.702377 7.74632,-4.340598 4.476127,0.530132 7.397537,4.188969 9.008639,11.282617 0.761095,3.351089 2.2083,7.938357 2.945083,9.33512 l 0.538585,1.021029 0.0129,-1.854088 c 0.01511,-2.167121 0.574011,-4.515746 1.648413,-6.926468 0.425913,-0.955658 0.832255,-2.504175 0.913416,-3.480954 0.132727,-1.597206 0.07332,-1.846106 -0.643848,-2.698432 -1.297056,-1.541453 -3.392033,-1.23242 -4.040842,0.596066 -0.236866,0.667545 0.334984,1.910346 0.972039,2.112539 1.087049,0.345016 2.085881,-0.699978 1.427414,-1.493384 -0.396794,-0.478106 -0.883933,-0.255671 -0.668656,0.305321 0.216127,0.563221 -0.412693,0.868652 -0.920571,0.447144 -0.954509,-0.792174 -0.04752,-2.323175 1.376209,-2.323175 2.103181,0 2.456456,3.235194 0.465694,4.264658 -2.583174,1.335811 -5.116755,-1.474432 -3.917321,-4.345082 0.867428,-2.076051 3.230903,-2.798438 5.450703,-1.665984 2.379419,1.213893 2.983199,4.534677 1.627519,8.951481 -0.795463,2.591651 -1.06836,4.569484 -0.776917,5.630716 0.15866,0.577708 0.242026,0.383812 0.40105,-0.932789 0.291487,-2.413276 1.39664,-5.25014 4.331679,-11.119173 2.914949,-5.828873 3.605877,-7.969701 3.317366,-10.278839 -0.533182,-4.26749 -4.776953,-6.662736 -8.224765,-4.642182 -3.348349,1.962263 -3.077392,6.989844 0.430941,7.99602 1.189478,0.341137 2.817978,-0.107567 3.398527,-0.936412 0.632006,-0.902317 0.572632,-2.63611 -0.11147,-3.255214 -0.725328,-0.656417 -2.171121,-0.513188 -2.312008,0.229042 -0.06781,0.357012 0.03164,0.495957 0.289227,0.404072 0.593967,-0.21191 1.413543,0.317488 1.413543,0.913063 0,0.290383 -0.240074,0.745226 -0.533491,1.010765 -1.343573,1.215922 -3.550627,-0.03442 -3.550627,-2.011504 0,-2.156482 1.44866,-3.507508 3.707512,-3.457644 4.272438,0.09431 5.605471,5.978624 1.980729,8.743355 -1.498871,1.143245 -4.161861,1.345063 -5.919098,0.448586 -2.455099,-1.252495 -3.844705,-3.484112 -3.834043,-6.157221 0.01246,-3.127473 1.362747,-5.31328 4.139379,-6.700782 4.38286,-2.190137 9.455589,-0.402943 11.567182,4.07528 0.681346,1.444998 1.169086,1.983927 1.15558,5.005286 -0.01709,3.81549 -0.679731,4.661684 -3.381443,10.601866 -2.428583,5.339633 -3.023939,7.381592 -3.210837,11.012523 -0.08876,1.724809 -0.07983,3.136017 0.01985,3.136017 0.523634,0 1.411437,-2.579162 1.540283,-4.474673 0.254948,-3.750866 0.33043,-3.958439 2.129841,-5.857034 2.046739,-2.159561 2.203283,-2.542217 1.438042,-3.515069 -0.678491,-0.862556 -0.536148,-1.614515 0.305611,-1.614515 0.824868,0 1.780666,1.36239 1.780666,2.538161 0,1.249371 -0.345546,1.90911 -1.924067,3.673635 l -1.250979,1.398375 -0.08986,3.460891 c -0.04939,1.903491 -0.01191,3.412315 0.08358,3.352943 0.261376,-0.162701 2.019649,-3.80931 2.35309,-4.880235 0.160622,-0.515876 0.799089,-2.961419 1.418824,-5.434538 1.699925,-6.783733 3.465177,-9.773108 6.586385,-11.153766 2.775,-1.227513 5.356642,-0.997078 7.881976,0.703536 3.907243,2.631214 3.993365,8.445291 0.164967,11.135993 -1.688282,1.186569 -4.345583,1.392089 -6.143008,0.475113 -2.81993,-1.438623 -3.513757,-5.198848 -1.387401,-7.519104 0.785925,-0.857596 1.199765,-1.059195 2.413698,-1.17584 1.620021,-0.155663 3.07684,0.398113 3.595171,1.36662 0.56928,1.063707 0.361798,2.89847 -0.415681,3.67595 -0.85681,0.85681 -2.198266,0.94169 -2.885269,0.18256 -0.913371,-1.009262 -0.258266,-2.337838 0.961819,-1.950599 0.882951,0.280241 0.777545,-0.655312 -0.119916,-1.06422 -1.412209,-0.643449 -2.819312,1.035937 -2.369529,2.828047 0.211253,0.841662 1.732275,1.884435 2.751074,1.886057 2.977929,0.0047 4.837319,-3.948338 3.015042,-6.409963 -1.955601,-2.641712 -5.470725,-2.758437 -7.84236,-0.260418 -1.626417,1.713088 -2.260462,3.743519 -3.313144,10.609725 -0.474459,3.094758 -1.466444,6.20588 -2.860229,8.970466 -0.626901,1.243466 -1.034952,2.260849 -0.906778,2.260849 0.381601,0 2.543449,-2.861232 4.064889,-5.379927 1.60732,-2.660881 3.150878,-4.336512 4.74972,-5.156119 2.402837,-1.231756 5.229967,-0.963522 7.093933,0.673061 1.423289,1.249668 1.877461,2.262957 1.877461,4.188753 0,3.194378 -1.683022,5.110145 -4.67975,5.326908 -1.375261,0.09947 -1.900329,0.003 -2.711789,-0.49856 -1.742871,-1.077154 -2.358261,-3.139657 -1.528972,-5.124421 0.786763,-1.882995 3.626209,-2.559476 4.995527,-1.190156 1.764503,1.764507 -0.07608,4.99723 -2.031281,3.567579 -0.699362,-0.51138 -0.483599,-1.446337 0.380862,-1.650409 0.626394,-0.147871 0.647585,-0.201892 0.218728,-0.557812 -0.40191,-0.333547 -0.587109,-0.32053 -1.205619,0.08473 -0.828837,0.543082 -0.946306,1.486429 -0.299988,2.409181 1.486775,2.122659 5.257355,-0.164644 4.671161,-2.833602 -0.276956,-1.260976 -1.676584,-2.523035 -3.056608,-2.75619 -0.899843,-0.152027 -1.476809,-0.05001 -2.489324,0.440137 -1.49521,0.723817 -2.315326,1.800947 -4.328911,5.685482 -1.81564,3.502695 -3.022219,5.084453 -5.212833,6.833774 l -1.829015,1.460561 -7.339796,0.0099 -7.339796,0.0099 z"
       id="path253"
       sodipodi:nodetypes="cssssssssssssssssscsssssssssscssssssccsscssssssssssssssssssccsssssscsscscssssssscccsssssssssssssscsssssssssscsssssssssssscccc" /></g></svg>
