<?xml version="1.0" encoding="UTF-8" standalone="no"?>
<!-- Created with Inkscape (http://www.inkscape.org/) -->

<svg
   width="100mm"
   height="100mm"
   viewBox="0 0 100 100"
   version="1.1"
   id="svg1"
   inkscape:version="1.4 (86a8ad7, 2024-10-11)"
   sodipodi:docname="bush4.svg"
   xml:space="preserve"
   xmlns:inkscape="http://www.inkscape.org/namespaces/inkscape"
   xmlns:sodipodi="http://sodipodi.sourceforge.net/DTD/sodipodi-0.dtd"
   xmlns="http://www.w3.org/2000/svg"
   xmlns:svg="http://www.w3.org/2000/svg"><sodipodi:namedview
     id="namedview1"
     pagecolor="#ffffff"
     bordercolor="#000000"
     borderopacity="0.25"
     inkscape:showpageshadow="2"
     inkscape:pageopacity="0.0"
     inkscape:pagecheckerboard="true"
     inkscape:deskcolor="#d1d1d1"
     inkscape:document-units="mm"
     inkscape:zoom="2.0334082"
     inkscape:cx="189.0914"
     inkscape:cy="187.61605"
     inkscape:window-width="1920"
     inkscape:window-height="1009"
     inkscape:window-x="1912"
     inkscape:window-y="-8"
     inkscape:window-maximized="1"
     inkscape:current-layer="layer1" /><defs
     id="defs1" /><g
     inkscape:label="Warstwa 1"
     inkscape:groupmode="layer"
     id="layer1"><path
       style="fill:#307845;fill-opacity:1;stroke-width:1.05907"
       d="m 41.494864,81.756549 c -1.291588,-0.477788 -4.221323,-2.801067 -7.461905,-5.917292 -1.661415,-1.597656 -3.782349,-3.276115 -4.776042,-3.779659 -1.554767,-0.78786 -2.08715,-0.888848 -4.089352,-0.775713 -2.021427,0.11422 -2.397893,0.241692 -3.089947,1.046252 -1.011829,1.176322 -1.057109,3.097486 -0.101628,4.312178 1.264102,1.607045 4.291559,0.916802 4.276488,-0.975013 -0.0095,-1.150205 -0.609928,-1.625778 -1.899334,-1.50356 -0.65243,0.06184 -0.482844,0.606379 0.248404,0.797605 0.780958,0.204224 0.865546,0.979132 0.169896,1.556464 -0.743403,0.616973 -2.021608,0.136649 -2.461323,-0.924918 -1.180391,-2.849715 2.765202,-4.71273 4.973743,-2.348483 2.525191,2.703224 -0.2614,7.060747 -4.120624,6.443632 -2.635507,-0.421435 -4.268516,-2.393149 -4.268516,-5.153859 0,-4.488584 4.245853,-6.91574 9.603055,-5.489618 2.678662,0.713079 5.139568,2.259565 9.377444,5.893 1.016007,0.871099 1.945108,1.583815 2.064655,1.583815 0.119548,0 -0.367941,-1.155059 -1.083311,-2.566797 -0.715369,-1.411738 -1.687722,-3.982674 -2.160766,-5.713192 -1.552553,-5.679589 -2.87551,-8.090246 -4.990736,-9.093988 -3.631549,-1.723283 -6.949867,2.806516 -3.643114,4.973181 1.078641,0.706756 2.402033,0.395203 2.89235,-0.680917 0.44859,-0.984565 -0.09924,-1.827845 -1.176912,-1.811735 -0.67971,0.01017 -0.682665,0.02718 -0.08356,0.480887 0.820461,0.621291 0.459254,1.495777 -0.617851,1.495777 -1.729237,0 -1.979972,-3.017585 -0.303677,-3.654909 1.31996,-0.501848 1.993867,-0.38453 3.090173,0.537955 0.875882,0.737007 1.019015,1.079557 1.019015,2.438833 0,1.875887 -1.053011,3.18458 -2.830733,3.518083 -3.969571,0.744696 -7.00023,-4.083717 -4.702934,-7.49267 2.430542,-3.606679 7.666644,-3.171123 10.575738,0.879722 l 1.217838,1.899175 c 0.02758,-0.467619 -0.0903,-0.784849 0.08294,-1.403616 0.300633,-1.073785 0.895679,-1.860314 2.163615,-2.368834 1.494989,-0.599582 3.057702,-0.181617 4.214979,0.891466 1.529857,1.418564 1.860785,2.664966 1.897153,7.145355 0.01811,2.237308 0.16405,4.440431 0.324213,4.895831 0.509624,1.449039 0.05687,-13.171788 -0.483465,-15.614067 -0.935412,-4.227674 -2.782863,-6.576305 -5.17296,-6.576305 -1.802621,0 -3.311996,1.306306 -3.311996,2.866411 0,1.537155 0.451302,2.294393 1.607657,2.697501 1.295644,0.451664 2.498323,-0.153793 2.634985,-1.326516 0.07128,-0.611133 -0.100082,-0.989357 -0.559495,-1.23522 -0.79551,-0.425741 -1.228997,0.06651 -0.552792,0.627707 0.716068,0.594281 0.240017,1.390729 -0.761015,1.273227 -0.522768,-0.06136 -1.053594,-0.450676 -1.35849,-0.996336 -0.461659,-0.826197 -0.447086,-0.967398 0.188049,-1.821598 0.494892,-0.665593 1.029955,-0.95497 1.902776,-1.029079 3.272249,-0.27784 4.404839,4.787046 1.378771,6.165814 -4.581417,2.087435 -8.680513,-3.350233 -5.609074,-7.440743 1.037231,-1.381374 3.297475,-2.2399 5.302124,-2.013947 4.36238,0.491704 6.998954,5.285283 7.786097,14.155964 0.185887,2.094837 0.457719,4.553995 0.604071,5.464793 l 0.266102,1.655998 0.04353,-1.872808 c 0.0448,-1.926513 -0.483245,-7.187434 -1.623619,-16.17757 -1.428652,-11.262665 -0.461521,-19.857083 2.548862,-22.650627 3.211681,-2.980345 8.495959,-2.237314 10.382109,1.459846 1.746278,3.422978 -0.276873,7.518848 -3.87917,7.853403 -2.051597,0.190537 -3.248726,-0.29203 -4.071284,-1.641148 -1.266255,-2.076851 -0.710254,-4.631066 1.180015,-5.420871 1.945044,-0.812694 3.786585,0.161387 3.786585,2.002912 0,1.221653 -0.509285,1.836505 -1.521204,1.836505 -0.974969,0 -1.354105,-0.996586 -0.467357,-1.228476 0.786052,-0.205557 0.841208,-0.530349 0.182859,-1.07673 -0.692155,-0.574435 -1.801297,-0.107144 -2.044353,0.861306 -0.283926,1.131243 0.347364,2.381392 1.405734,2.783784 1.022267,0.388664 1.731949,0.214477 2.913807,-0.715173 0.745616,-0.586502 1.18061,-1.39316 1.18061,-2.660702 0,-1.472776 -0.432717,-1.97482 -1.198138,-2.576904 -2.59347,-2.040022 -5.551715,-1.413945 -7.144206,1.511981 -1.348195,2.47708 -1.775466,6.675862 -1.259233,12.374503 0.222765,2.459157 0.538918,5.141874 0.702555,5.961593 0.630114,3.156492 0.990028,5.261819 1.500436,8.77679 0.290958,2.003756 0.632667,4.313873 0.759342,5.133593 l 0.230316,1.490398 0.212937,-1.490398 c 0.117122,-0.81972 0.281373,-3.353397 0.365008,-5.630393 0.238809,-6.50163 1.690888,-10.146104 4.604526,-11.556571 1.774523,-0.859032 3.292582,-0.875676 5.098136,-0.0559 1.628976,0.739607 2.420228,1.818356 2.663369,3.631051 0.231099,1.723028 -0.04649,2.737 -1.088437,3.975236 -2.332378,2.771875 -6.765504,1.471557 -6.765504,-1.984444 0,-1.785907 1.046657,-2.951767 2.649971,-2.951767 1.505626,0 2.318017,0.68153 2.318017,1.944614 0,1.047545 -0.537139,1.698581 -1.401435,1.698581 -0.694749,0 -1.238073,-1.052161 -0.645344,-1.249737 0.541227,-0.18041 0.49179,-0.73746 -0.06545,-0.73746 -0.711917,0 -1.276729,0.891696 -1.039085,1.640455 0.748741,2.359066 4.144922,0.981299 4.144922,-1.681517 0,-0.36976 -0.435648,-1.107946 -0.968116,-1.640413 -1.293579,-1.293574 -3.175418,-1.340409 -4.631416,-0.115267 -1.716921,1.444695 -2.018056,3.19795 -2.018056,11.749459 0,6.955556 -0.395785,11.488883 -1.202129,13.7693 -0.120808,0.341633 1.925992,-1.556546 4.548438,-4.218178 7.775347,-7.891533 11.60241,-9.817536 15.758505,-7.930606 1.872847,0.850298 2.53807,2.180376 2.355169,4.708987 -0.11384,1.573879 -0.321174,2.128057 -1.112362,2.973275 l -0.535413,0.659314 0.484165,-0.207753 c 0.771753,-0.331156 1.309189,-0.541332 2.598765,-0.388601 3.183668,0.377059 5.256828,2.382189 5.256828,5.084331 0,3.958724 -3.127654,6.250243 -6.496755,4.759931 -1.58137,-0.699515 -2.114431,-1.592429 -2.114431,-3.541787 0,-2.524498 3.329089,-4.119816 4.955088,-2.374507 1.324197,1.421362 0.410559,3.776375 -1.367385,3.524558 -1.039561,-0.147237 -1.31081,-1.599812 -0.298743,-1.599812 0.747396,0 0.937361,-0.522436 0.271429,-0.746495 -0.709385,-0.238682 -1.542703,0.128656 -1.746172,0.769743 -0.467441,1.472785 1.402875,2.89788 3.004198,2.289058 1.001435,-0.380744 1.903974,-2.301745 1.617559,-3.442887 -0.743858,-2.963776 -5.181962,-3.252319 -9.65995,-0.628043 -1.335455,0.782627 -1.382647,0.861722 -0.913712,1.531233 0.567767,0.810594 0.645259,2.307618 0.165829,3.203436 -0.646276,1.207586 -3.351425,1.570374 -4.037882,0.541522 -0.358844,-0.537841 0.02447,-0.867971 1.007853,-0.867971 1.051327,0 1.702697,-0.536117 1.702697,-1.401432 0,-1.08519 -0.942836,-1.016477 -2.562778,0.186773 -3.768751,2.799326 -7.00498,4.821074 -8.698008,5.433846 -1.625142,0.588198 -2.661568,0.659091 -9.609835,0.657331 -4.283522,-0.0011 -8.155331,-0.137772 -8.604006,-0.303748 z m 19.795307,-4.72073 c 4.660836,-2.388796 6.177095,-3.737563 2.248541,-2.000171 -2.094775,0.926407 -5.545477,3.14173 -4.893726,3.14173 0.229818,0 1.420149,-0.513702 2.645185,-1.141559 z M 43.12653,72.568365 c -0.238079,-1.478308 -0.224226,-3.062674 0.04713,-5.39714 0.211295,-1.817495 0.304324,-3.899795 0.206741,-4.627335 -0.338139,-2.521073 -2.68187,-3.775535 -4.206114,-2.251289 -1.194969,1.194969 -0.581842,3.205201 0.891079,2.921542 0.874749,-0.16846 0.98467,-1.265545 0.126803,-1.265545 -0.887723,0 -0.889068,-0.861981 -0.0021,-1.336685 0.532553,-0.28501 0.863586,-0.24912 1.490396,0.161582 1.856082,1.216153 0.296169,4.362202 -2.028372,4.090826 -0.627128,-0.07321 -1.519756,-0.791367 -1.519756,-0.752486 0,0.03888 0.882959,2.077623 1.498268,3.687146 1.065752,2.787785 3.43633,7.258529 3.705863,6.988996 0.0699,-0.06986 -0.02468,-1.068678 -0.210003,-2.219611 z m 17.83481,1.102262 c 2.070586,-0.895178 4.456754,-1.446783 6.276447,-1.450911 1.357494,-0.0031 2.182943,-0.254335 3.808794,-1.159338 1.141634,-0.635475 1.834986,-1.157114 1.540766,-1.159199 -0.969981,-0.0069 -2.248023,-1.316722 -2.477312,-2.538984 -0.316333,-1.686193 0.504202,-3.257787 1.950043,-3.734958 2.057211,-0.678938 3.812512,0.62259 3.346066,2.48105 -0.275178,1.096375 -1.556599,1.743074 -2.274055,1.147645 -0.715369,-0.593704 -0.62897,-1.332939 0.15579,-1.332939 0.364319,0 0.662405,-0.158939 0.662405,-0.353199 0,-0.194258 -0.40986,-0.306039 -0.9108,-0.248399 -0.732706,0.08431 -0.932542,0.29589 -1.022012,1.082065 -0.208817,1.834942 1.976763,2.486488 3.438268,1.024986 0.942847,-0.942849 1.085186,-2.625377 0.315116,-3.72481 -0.767878,-1.096289 -2.501861,-1.543999 -4.111794,-1.061649 -1.916619,0.574229 -6.085486,4.054238 -8.944814,7.466759 -1.35258,1.614271 -2.679773,3.195859 -2.949328,3.514637 -0.606677,0.717489 -0.375048,0.726635 1.19642,0.04725 z"
       id="path256"
       sodipodi:nodetypes="cssssscsssssssssssssssscssssssscssscscssscssssssssssscccssssssssscssssssssscssssscsssssssssssssssscsssssssssssssssssssssccssssccssssssssscccscscsssssssssssssss" /></g></svg>
