<?xml version="1.0" encoding="UTF-8" standalone="no"?>
<!-- Created with Inkscape (http://www.inkscape.org/) -->

<svg
   width="100mm"
   height="100mm"
   viewBox="0 0 100 100"
   version="1.1"
   id="svg1"
   inkscape:version="1.4 (86a8ad7, 2024-10-11)"
   sodipodi:docname="bush2.svg"
   xml:space="preserve"
   xmlns:inkscape="http://www.inkscape.org/namespaces/inkscape"
   xmlns:sodipodi="http://sodipodi.sourceforge.net/DTD/sodipodi-0.dtd"
   xmlns="http://www.w3.org/2000/svg"
   xmlns:svg="http://www.w3.org/2000/svg"><sodipodi:namedview
     id="namedview1"
     pagecolor="#ffffff"
     bordercolor="#000000"
     borderopacity="0.25"
     inkscape:showpageshadow="2"
     inkscape:pageopacity="0.0"
     inkscape:pagecheckerboard="true"
     inkscape:deskcolor="#d1d1d1"
     inkscape:document-units="mm"
     inkscape:zoom="1.4378367"
     inkscape:cx="202.73512"
     inkscape:cy="215.94942"
     inkscape:window-width="1920"
     inkscape:window-height="1009"
     inkscape:window-x="1912"
     inkscape:window-y="-8"
     inkscape:window-maximized="1"
     inkscape:current-layer="layer1" /><defs
     id="defs1" /><g
     inkscape:label="Warstwa 1"
     inkscape:groupmode="layer"
     id="layer1"><path
       style="fill:#307845;fill-opacity:1;stroke-width:1.11789"
       d="m 40.844606,77.972583 c -1.008865,-0.760991 -3.081092,-2.560031 -4.604948,-3.997866 -4.147461,-3.913348 -7.076318,-5.339919 -9.882453,-4.813486 -3.022849,0.567091 -4.255639,3.845957 -2.213719,5.887874 1.069556,1.06956 1.564883,1.170993 2.852785,0.584187 0.875064,-0.398703 1.326145,-1.408108 1.117725,-2.501142 -0.133241,-0.698772 -1.505846,-1.014631 -2.048975,-0.471501 -0.259988,0.259988 -0.213741,0.361745 0.164387,0.361745 0.928041,0 1.372739,0.854965 0.762246,1.465458 -1.156438,1.156437 -2.822512,0.162569 -2.822512,-1.683715 0,-1.365979 1.206889,-2.449818 2.727961,-2.449818 1.484316,0 2.773962,0.98255 3.272542,2.493255 0.319427,0.96786 0.275303,1.383514 -0.280144,2.639181 -0.851846,1.925739 -2.209538,2.672077 -4.466396,2.455221 -2.862879,-0.275087 -4.587553,-2.287105 -4.588548,-5.35303 -0.0011,-3.806622 2.9909,-6.130237 7.522391,-5.841694 2.82259,0.179729 6.664486,2.134648 10.546068,5.366274 4.441891,3.698114 5.624197,4.219195 2.748138,1.211198 -3.445178,-3.603238 -4.472611,-5.655835 -5.639546,-11.266632 -0.665806,-3.201299 -1.364858,-4.621725 -2.585094,-5.252736 -1.120855,-0.579613 -2.413799,-0.390798 -2.715966,0.396622 -0.290719,0.757608 0.373511,1.81302 1.141045,1.81302 0.863382,0 0.844367,-0.680018 -0.02538,-0.907461 -0.902766,-0.236076 -0.64982,-0.901057 0.390267,-1.026004 1.860375,-0.22349 2.590918,2.297603 0.934302,3.224261 -1.793671,1.003322 -3.979006,-0.406353 -3.979006,-2.566699 0,-1.791536 1.20719,-2.892964 3.170747,-2.892964 2.687873,0 4.233371,1.791975 5.849397,6.782256 1.331299,4.111002 2.322814,5.92477 4.307465,7.87958 l 1.592483,1.568542 -2.220761,-4.446585 c -3.045409,-6.09774 -3.739341,-8.770537 -4.011906,-15.452397 -0.224618,-5.506361 -0.458615,-6.488383 -1.806134,-7.579923 -0.796276,-0.645007 -2.589443,-0.769589 -3.56467,-0.247662 -0.94178,0.504026 -1.701053,2.168219 -1.448432,3.174726 0.316319,1.260344 1.609621,2.012028 2.647853,1.538978 0.93363,-0.425393 1.18728,-2.055515 0.31984,-2.055515 -0.275147,0 -0.500257,0.216262 -0.500257,0.480581 0,0.703689 -0.623237,0.971471 -1.181893,0.507823 -0.670389,-0.556371 -0.60829,-1.77457 0.124243,-2.437507 0.883918,-0.799936 2.289702,-0.684259 3.240615,0.26666 1.95913,1.959123 0.346659,5.518065 -2.500089,5.518065 -2.823373,0 -4.352013,-1.616893 -4.352013,-4.603249 0,-3.021435 2.311735,-5.211457 5.501084,-5.211457 2.138596,0 3.751134,0.949019 4.808136,2.829694 0.633342,1.126869 0.836094,2.173329 1.085563,5.602761 0.431428,5.930832 1.341874,9.500512 3.498323,13.71627 0.986842,1.929223 2.054218,3.844215 2.371956,4.255537 0.558187,0.722611 0.57813,0.621281 0.59074,-3.001584 0.01006,-2.945371 0.182686,-4.321617 0.8041,-6.417519 1.452031,-4.89749 0.94235,-8.568997 -1.31965,-9.505944 -1.093489,-0.452939 -2.469795,0.01197 -3.006998,1.015748 -0.606792,1.133806 0.164409,2.653781 1.346469,2.653781 0.907539,0 1.528975,-0.741075 1.143906,-1.364135 -0.30182,-0.488354 -0.815179,-0.348986 -0.815179,0.221306 0,0.770071 -1.149786,0.438351 -1.252565,-0.36137 -0.133734,-1.04057 0.432624,-1.608555 1.603941,-1.608555 1.262303,0 1.983198,0.798938 1.983198,2.197895 0,2.151114 -1.795995,3.289246 -3.841684,2.434502 -2.033749,-0.849754 -2.735349,-3.409169 -1.493069,-5.446692 1.677958,-2.752103 6.081562,-2.186792 7.701567,0.988688 0.956335,1.87456 1.144566,5.159747 0.502761,8.774776 -0.576463,3.247032 -0.69221,6.739689 -0.246652,7.442327 0.174023,0.274438 0.354831,-0.34977 0.48302,-1.667547 0.268931,-2.764765 0.939823,-5.229788 2.601884,-9.559921 4.654761,-12.126995 4.951383,-14.536937 2.09767,-17.042528 -0.953909,-0.837546 -1.446799,-1.017199 -2.790719,-1.017199 -1.395096,0 -1.805207,0.16317 -2.823227,1.123286 -1.340264,1.264035 -1.549154,2.552911 -0.684698,4.224595 0.968587,1.873034 3.907818,1.711408 4.097379,-0.225311 0.123013,-1.256777 -0.737474,-1.77939 -1.275259,-0.774528 -0.504639,0.942926 -1.602298,0.837474 -1.857267,-0.178428 -0.274353,-1.09311 -0.02448,-1.675 1.010743,-2.353272 1.94282,-1.272983 4.855277,0.606788 4.855277,3.133715 0,3.913761 -4.28978,5.939119 -7.687805,3.629691 -2.187773,-1.486891 -3.137311,-5.37286 -1.894628,-7.753779 2.164968,-4.147982 7.9689,-5.114384 11.363907,-1.892183 3.334228,3.164528 3.340298,8.232753 0.02035,16.968507 -2.088772,5.4961 -2.833065,8.463366 -2.996389,11.945745 l -0.140787,3.001585 0.658953,-1.334038 c 0.434547,-0.879721 0.661938,-2.029711 0.667706,-3.376783 0.0142,-3.326259 0.286986,-4.043687 2.39323,-6.295278 2.024135,-2.163799 2.43704,-3.350138 1.45088,-4.16858 -1.228878,-1.019873 -0.05668,-2.109214 1.307621,-1.215254 1.737687,1.138574 1.383918,3.852828 -0.836564,6.418395 -1.576273,1.821243 -1.696469,2.249695 -1.570472,5.598521 l 0.09882,2.628445 1.578622,-2.296054 c 1.797527,-2.614465 2.330583,-4.508882 2.896784,-10.294838 0.456447,-4.664355 1.398071,-6.791075 3.634896,-8.209626 1.747401,-1.108169 4.41068,-1.321949 6.03091,-0.484098 2.619536,1.354614 3.890871,4.430763 2.986998,7.227385 -1.283676,3.971799 -6.668298,4.661496 -8.178314,1.047533 -0.92727,-2.219269 0.184117,-4.498399 2.410725,-4.943721 1.989938,-0.397987 3.782759,2.303216 2.329286,3.509487 -0.770742,0.639662 -1.683558,0.281849 -1.683558,-0.659935 0,-0.8606 -0.749737,-0.991658 -1.242404,-0.21718 -0.393856,0.619151 -0.312015,0.867112 0.580936,1.760057 1.484014,1.484013 3.647885,0.155575 3.647885,-2.239497 0,-1.120073 -0.195038,-1.54075 -1.081583,-2.332883 -1.574049,-1.406411 -3.417511,-1.354728 -4.909898,0.137653 -1.385203,1.385202 -1.699611,2.606395 -2.130972,8.276834 -0.372381,4.895211 -0.950869,6.98182 -2.700449,9.740626 -0.752174,1.18606 -0.85113,1.499058 -0.397132,1.256082 1.227626,-0.657003 3.275471,-3.275511 4.568706,-5.841821 0.731683,-1.451979 1.869899,-3.215411 2.529355,-3.918735 0.996356,-1.062619 1.420708,-1.278773 2.510497,-1.278773 2.329141,0 3.770698,1.679966 3.097827,3.610155 -0.378697,1.086345 -1.717352,1.851595 -2.695765,1.541058 -0.78551,-0.24931 -0.662788,-1.357243 0.135343,-1.221857 0.856753,0.145332 1.377345,-1.092276 0.731236,-1.738384 -1.260324,-1.260326 -2.733326,-0.02181 -4.148009,3.48768 -1.826301,4.530657 -4.47933,7.982257 -8.134325,10.58283 -1.531022,1.089333 -1.325106,1.328375 0.39039,0.453196 2.061361,-1.05163 3.259195,-2.212106 5.752185,-5.572796 1.65949,-2.237085 2.712512,-3.32214 3.737128,-3.850794 2.638372,-1.361279 5.96644,-0.749257 6.452299,1.186559 0.26759,1.066184 -0.350225,2.138501 -1.381202,2.397257 -1.18993,0.298654 -3.880553,-0.772936 -3.735305,-1.487656 0.11796,-0.580466 0.808908,-0.643987 2.374997,-0.218343 0.818678,0.222503 0.933687,0.171321 0.831042,-0.369842 -0.16983,-0.895463 -1.937912,-0.993961 -3.272564,-0.18231 -1.267635,0.770893 -3.254254,3.334903 -4.731762,6.106982 -0.58601,1.099476 -1.751772,2.612486 -2.590571,3.362244 l -1.525097,1.363195 1.334038,-0.73451 c 0.733717,-0.40398 2.459632,-1.634963 3.835356,-2.735518 3.032944,-2.426291 5.828884,-3.856832 8.514018,-4.356185 3.879882,-0.721537 7.198638,1.040371 8.189561,4.347791 0.568336,1.896951 0.141156,3.550673 -1.322535,5.119829 -1.076419,1.153974 -1.491381,1.363777 -2.980347,1.506848 -1.440562,0.13842 -1.922441,0.03423 -2.881704,-0.623072 -2.371666,-1.625086 -2.744271,-4.485664 -0.797639,-6.123643 2.576396,-2.167893 6.298488,0.422266 4.433362,3.085116 -0.564827,0.806393 -1.778937,0.977785 -2.415711,0.341015 -0.622219,-0.622217 -0.472254,-1.267336 0.294598,-1.267336 0.90802,0 0.652101,-0.799639 -0.300825,-0.939924 -1.100621,-0.162032 -1.668678,1.305602 -0.937342,2.42176 1.11303,1.6987 3.387238,1.435996 4.39219,-0.507364 1.469202,-2.841129 -1.412871,-5.665979 -5.093981,-4.992841 -2.261508,0.413548 -4.21421,1.592672 -7.801227,4.710707 -2.334316,2.029127 -4.336306,3.436775 -6.152659,4.326088 l -2.692434,1.318253 -8.980402,-0.0015 -8.980392,-0.0015 z"
       id="path254"
       sodipodi:nodetypes="cssssssssssssscsssssssssssssscsssscssssscsssssssccsssssssssssssccssssssscsssscscscsscsccssssssssssssssssssssssssssssssssssssscssssssssssssssssscccc" /></g></svg>
