<?xml version="1.0" encoding="UTF-8" standalone="no"?>
<!-- Created with Inkscape (http://www.inkscape.org/) -->

<svg
   width="100mm"
   height="100mm"
   viewBox="0 0 100 100"
   version="1.1"
   id="svg1"
   inkscape:version="1.4 (86a8ad7, 2024-10-11)"
   sodipodi:docname="tree2.svg"
   xml:space="preserve"
   xmlns:inkscape="http://www.inkscape.org/namespaces/inkscape"
   xmlns:sodipodi="http://sodipodi.sourceforge.net/DTD/sodipodi-0.dtd"
   xmlns="http://www.w3.org/2000/svg"
   xmlns:svg="http://www.w3.org/2000/svg"><sodipodi:namedview
     id="namedview1"
     pagecolor="#ffffff"
     bordercolor="#000000"
     borderopacity="0.25"
     inkscape:showpageshadow="2"
     inkscape:pageopacity="0.0"
     inkscape:pagecheckerboard="true"
     inkscape:deskcolor="#d1d1d1"
     inkscape:document-units="mm"
     inkscape:zoom="1.4464538"
     inkscape:cx="184.2437"
     inkscape:cy="173.87351"
     inkscape:window-width="1920"
     inkscape:window-height="1009"
     inkscape:window-x="1912"
     inkscape:window-y="-8"
     inkscape:window-maximized="1"
     inkscape:current-layer="layer1" /><defs
     id="defs1" /><g
     inkscape:label="Warstwa 1"
     inkscape:groupmode="layer"
     id="layer1"><path
       style="fill:#9aa3a8;fill-opacity:1"
       d="m 45.393013,77.056847 c 0.0805,-0.387143 0.38755,-3.660259 0.682332,-7.273593 l 0.535967,-6.569696 -1.642401,-2.90723 c -1.785758,-3.160986 -2.423419,-3.899289 -4.090141,-4.735688 -1.046391,-0.525104 -1.219812,-0.524226 -3.910534,0.01979 -1.548571,0.313094 -3.58216,0.818979 -4.519087,1.124189 l -1.703503,0.554927 -0.615653,2.948562 c -0.688871,3.299231 -0.756305,3.252788 -1.589836,-1.094957 L 27.99587,56.284114 25.833015,54.926975 c -1.18957,-0.746427 -2.116477,-1.403518 -2.059794,-1.460201 0.05668,-0.05668 1.570569,0.391869 3.36419,0.996785 l 3.261128,1.099847 1.720635,-0.651694 c 0.946349,-0.358432 2.172147,-0.890117 2.723995,-1.181523 l 1.00336,-0.529829 -4.44463,-1.936527 c -2.444546,-1.065091 -5.422456,-2.322413 -6.617577,-2.79405 -1.19512,-0.471637 -2.025101,-0.906804 -1.844401,-0.967037 0.282786,-0.09426 4.563583,0.781634 6.55584,1.341394 0.651876,0.183156 0.656084,0.154957 0.291145,-1.95123 -0.34277,-1.978247 -0.98643,-3.544864 -1.45644,-3.544864 -0.108313,0 -0.376762,0.668701 -0.596554,1.486003 -0.415102,1.54357 -0.928837,2.434085 -0.938485,1.626782 -0.02732,-2.285788 -0.735064,-6.582662 -1.245565,-7.562079 -0.338815,-0.650031 -0.528841,-1.181875 -0.422279,-1.181875 0.106562,0 1.350339,1.050032 2.763948,2.333403 2.339091,2.123589 2.644088,2.538509 3.391943,4.61443 0.451959,1.254565 0.912842,2.876681 1.024183,3.604702 0.111341,0.728022 0.360845,1.452616 0.554453,1.610209 0.193607,0.157594 1.513442,0.641575 2.932966,1.075515 2.890964,0.883749 2.848754,0.917979 2.077179,-1.684508 -0.662353,-2.234085 -1.519095,-3.902931 -2.839742,-5.531529 -0.592995,-0.73127 -0.940609,-1.329581 -0.772477,-1.329581 0.443001,0 3.393375,2.385397 3.761535,3.041226 0.346321,0.616925 0.270202,0.733906 1.121871,-1.724114 0.464077,-1.339382 0.462839,-1.345059 -0.622576,-2.855877 -1.084856,-1.510042 -1.094026,-1.514833 -3.666423,-1.915829 -2.68119,-0.417954 -2.654396,-0.599729 0.157729,-1.070032 l 1.172363,-0.196067 -0.615809,-1.207085 c -0.338695,-0.663896 -1.140774,-1.639805 -1.782399,-2.168687 l -1.166591,-0.961602 -0.373697,0.853131 c -1.001497,2.286368 -1.219408,2.197303 -1.789142,-0.731264 -0.292984,-1.506002 -0.490411,-2.780472 -0.438727,-2.832156 0.05168,-0.05168 1.425423,0.936684 3.052754,2.196372 2.661346,2.0601 4.228606,3.730331 7.043051,7.505788 0.883786,1.185561 0.913389,1.198303 1.090144,0.469264 0.09993,-0.412164 0.01432,-1.594064 -0.190243,-2.626445 -0.868574,-4.383493 -0.892053,-4.245056 0.370031,-2.18179 2.423593,3.962111 2.339863,3.193334 0.704948,6.472584 -0.796468,1.597523 -1.626336,3.620221 -1.844151,4.494884 -0.347894,1.397012 -0.327288,1.770286 0.169542,3.071216 0.489644,1.282115 0.800272,1.599885 2.313892,2.367092 1.941716,0.984195 3.107191,2.072508 3.301839,3.083233 0.07076,0.367435 0.265882,0.913271 0.433601,1.212968 0.384367,0.686825 0.513503,-0.05913 0.996582,-5.756754 l 0.350172,-4.130073 -1.25827,-5.41163 c -0.692049,-2.976396 -1.3554,-5.974746 -1.474114,-6.663 -0.274091,-1.589063 -0.666063,-2.35373 -2.445562,-4.770851 -2.023603,-2.748692 -2.95314,-2.62325 -3.465142,0.467625 -0.120985,0.730368 -0.32403,1.392253 -0.451211,1.470855 -0.127181,0.0786 -0.41177,-0.765335 -0.632419,-1.875417 -0.220649,-1.110081 -0.5187,-2.01833 -0.662336,-2.01833 -0.143636,0 -0.600739,0.569456 -1.015785,1.265458 l -0.754628,1.265458 -0.560045,-0.854735 c -0.308024,-0.470105 -0.99707,-1.214586 -1.531213,-1.654403 -0.534143,-0.439817 -1.604675,-1.40765 -2.378961,-2.150741 l -1.407792,-1.351074 1.308355,0.640598 c 0.719596,0.35233 1.396606,0.78339 1.504466,0.957912 0.294894,0.477148 2.361295,0.381771 4.027267,-0.185883 0.81224,-0.276757 1.822773,-0.437059 2.245629,-0.356225 1.073433,0.2052 0.971486,-0.06278 -0.61693,-1.621696 -1.163795,-1.142178 -1.528834,-1.331404 -2.279,-1.181371 -0.733943,0.146789 -1.086571,-0.01946 -1.977301,-0.932236 -0.596232,-0.610987 -1.682371,-1.523237 -2.413641,-2.027222 -0.731269,-0.503985 -1.329581,-0.96175 -1.329581,-1.017255 0,-0.0555 1.161428,0.314511 2.580952,0.822257 1.419524,0.507747 2.948473,1.037195 3.397664,1.176553 1.513115,0.46943 2.085783,0.928099 3.714783,2.975291 0.892547,1.121678 1.722386,2.039415 1.844088,2.039415 0.121701,0 0.379517,-0.592854 0.572923,-1.317453 0.326817,-1.224421 0.278007,-1.461905 -0.691206,-3.363059 -1.005411,-1.97216 -1.030687,-2.110192 -0.703972,-3.844451 0.186385,-0.989366 0.439722,-1.798846 0.56297,-1.798846 0.123248,0 0.320246,0.95026 0.437772,2.111688 0.161253,1.593548 0.469497,2.533877 1.256251,3.832323 l 1.042567,1.720635 -0.389416,2.259551 c -0.389411,2.259518 -0.389404,2.259567 0.47495,3.284849 0.805095,0.954991 0.879952,0.982393 1.091673,0.399612 0.125018,-0.344127 0.629392,-1.590686 1.120829,-2.770132 0.766098,-1.838631 0.893522,-2.561409 0.893522,-5.068295 0,-1.608117 -0.154529,-3.644389 -0.343396,-4.525049 -0.424144,-1.977714 -0.145585,-2.435433 0.353708,-0.581201 0.29261,1.086672 0.892723,2.433667 1.778973,3.993029 0.03776,0.06644 1.36013,-1.058246 2.938605,-2.499292 1.673235,-1.527555 2.792917,-2.360622 2.685204,-1.997847 -0.101612,0.34223 -0.416187,1.537301 -0.699054,2.655713 -0.713742,2.822024 -0.898763,3.076802 -1.383881,1.905624 -0.220321,-0.531903 -0.494234,-0.967096 -0.608695,-0.967096 -0.114461,0 -0.74457,0.718566 -1.400243,1.596814 -0.968775,1.297636 -1.424986,2.448766 -2.434955,6.143982 l -1.242823,4.547169 0.696148,1.911717 c 0.382881,1.051445 0.801688,2.032091 0.930681,2.179215 0.128994,0.147123 1.121561,-0.204825 2.205706,-0.782107 2.377284,-1.265849 2.606463,-1.852049 2.390243,-6.113823 l -0.145828,-2.874319 0.833874,-0.345402 c 0.458631,-0.189972 1.599985,-0.970776 2.536341,-1.735122 1.510492,-1.233011 1.796854,-1.663677 2.539526,-3.819239 l 0.837061,-2.429519 0.02326,2.14175 c 0.01279,1.177962 -0.201896,2.916246 -0.477082,3.862853 -0.462029,1.589326 -0.561925,1.70933 -1.304706,1.567338 -0.630507,-0.120529 -1.108382,0.133478 -2.210892,1.175163 l -1.406525,1.328928 0.41184,2.407637 c 0.289046,1.689784 0.510311,2.309165 0.742109,2.077368 0.181648,-0.181648 1.392348,-2.180843 2.690444,-4.442655 l 2.360175,-4.112387 2.972006,-1.198222 c 3.380179,-1.362785 3.316876,-1.344837 2.877923,-0.815932 -0.179913,0.216783 -0.426746,1.274767 -0.548516,2.351075 l -0.221401,1.956924 -1.042919,-1.177914 -1.042918,-1.177915 -2.044562,2.0774 c -1.124509,1.14257 -2.044562,2.297754 -2.044562,2.567075 0,0.441184 0.131664,0.443175 1.329581,0.02011 0.734251,-0.259316 2.870439,-0.530327 4.770852,-0.605264 l 3.44127,-0.135695 -2.659163,0.907719 c -1.46254,0.499246 -2.894341,0.918639 -3.181781,0.931984 -0.330684,0.01535 -0.597771,0.397667 -0.727252,1.041003 -0.465121,2.310982 -0.503321,2.333505 -1.299772,0.766349 -0.41096,-0.808635 -0.808267,-1.470245 -0.882904,-1.470245 -0.717869,0 -1.773438,0.936933 -2.243352,1.991222 -0.317126,0.711494 -1.105553,1.872548 -1.752062,2.58012 l -1.175469,1.286494 1.710589,0.201046 c 2.011765,0.236444 3.586076,-0.271663 5.90873,-1.907035 1.685414,-1.186694 1.627574,-0.897069 -0.215531,1.079242 -1.74376,1.869786 -1.947368,2.223138 -2.393716,4.154192 -0.619753,2.681264 -0.826488,2.822251 -1.265016,0.862703 -0.508539,-2.272394 -0.540387,-2.311447 -2.097219,-2.571652 -1.28151,-0.214188 -1.346353,-0.184191 -2.00129,0.925845 L 54.238962,39.332349 53.5576,38.47784 52.876238,37.623331 51.387307,38.191959 c -1.236974,0.472404 -1.462362,0.678842 -1.331921,1.219933 0.260828,1.081955 2.118952,7.202091 2.216114,7.299253 0.04977,0.04977 1.061443,-0.127173 2.24816,-0.393209 5.750326,-1.289097 8.917935,-2.152797 9.749075,-2.658244 0.891262,-0.542008 0.917152,-0.632135 1.116219,-3.885622 0.116088,-1.897307 0.396656,-3.696221 0.651931,-4.179971 0.246476,-0.467075 1.33855,-1.697724 2.426831,-2.734775 2.590301,-2.468367 3.863139,-3.540911 3.536998,-2.980418 -0.144771,0.248798 -0.571528,1.938149 -0.94835,3.754112 l -0.685131,3.301752 -0.588098,-1.014761 c -0.323454,-0.558118 -0.677492,-1.01565 -0.78675,-1.016738 -0.109259,-0.0011 -0.443746,0.372082 -0.743304,0.829266 -0.633612,0.967013 -0.852993,4.800386 -0.274707,4.800098 0.32426,-1.62e-4 3.174282,-3.102362 5.801273,-6.314587 0.935422,-1.143813 3.692279,-3.271803 6.208464,-4.792249 0.258095,-0.155958 -0.910229,1.201916 -2.596277,3.017499 -3.289543,3.542273 -4.130715,4.59488 -3.875702,4.849892 0.08885,0.08885 0.469404,-0.0032 0.845687,-0.204608 0.555524,-0.297308 1.338021,-0.203929 4.162049,0.496675 l 3.4779,0.862822 -1.241461,0.347297 c -1.45309,0.4065 -1.73959,1.026137 -2.358137,5.100145 -0.215523,1.419523 -0.487207,2.580952 -0.603742,2.580952 -0.116536,0 -0.388427,-1.385324 -0.604204,-3.078499 -0.571787,-4.486752 -0.963473,-4.816812 -2.140071,-1.803364 l -0.597939,1.531412 -0.378222,-1.922466 C 73.86597,40.1462 73.572859,39.281091 73.422633,39.281091 c -0.477434,0 -3.213278,2.19642 -5.639388,4.527475 -1.623379,1.559774 -2.828282,2.429919 -3.910534,2.824072 -1.689415,0.615278 -2.838497,1.408048 -2.0409,1.408048 0.241723,0 1.442379,0.516263 2.668123,1.147251 l 2.228626,1.147251 3.577559,-0.819912 c 1.967657,-0.450951 3.929507,-0.921237 4.359666,-1.04508 0.680485,-0.195913 0.730403,-0.16207 0.384181,0.26047 -0.218859,0.267102 -0.486088,1.628917 -0.593843,3.026257 -0.107755,1.39734 -0.280637,2.540366 -0.384182,2.540058 -0.103545,-3.08e-4 -0.590646,-0.63747 -1.082448,-1.415917 l -0.894184,-1.415358 -2.547086,1.383919 -2.547085,1.383919 -0.468491,1.909054 c -0.25767,1.04998 -0.544261,1.909055 -0.636868,1.909055 -0.09261,0 -0.422615,-1.257757 -0.733351,-2.795016 -0.310736,-1.537258 -0.728041,-3.009442 -0.927346,-3.27152 -0.199304,-0.262078 -1.699774,-1.016392 -3.334377,-1.676254 l -2.972006,-1.199749 -1.292971,0.720401 c -0.823262,0.458695 -1.436956,1.088582 -1.689318,1.733896 -0.21799,0.557422 -0.80276,1.963954 -1.299489,3.125628 l -0.903142,2.112133 0.344931,4.613985 c 0.189713,2.537692 0.588032,7.253595 0.885155,10.479786 l 0.540224,5.8658 h -4.633721 -4.63372 z"
       id="path22" /><path
       style="fill:#506067;fill-opacity:1"
       d="m 45.571673,76.744005 c 1.44e-4,-0.559207 0.149882,-2.565311 0.332752,-4.458009 0.840835,-8.702616 0.846131,-8.988071 0.18863,-10.167388 -2.367553,-4.246528 -3.16782,-5.354371 -4.510023,-6.243409 -1.651432,-1.093863 -1.829151,-1.085783 -7.580959,0.344656 -1.975517,0.491298 -3.805647,0.890434 -4.066955,0.886967 -0.480202,-0.0064 -6.000878,-3.416993 -5.54988,-3.428664 0.133954,-0.0035 1.095915,0.423968 2.137689,0.949854 2.900876,1.464357 3.195159,1.538969 4.213395,1.06825 0.502473,-0.232287 1.899043,-0.861652 3.103487,-1.398588 1.967605,-0.877149 2.126387,-1.012312 1.564214,-1.33154 -0.79479,-0.451319 -7.954666,-3.553239 -9.972423,-4.320418 -1.587524,-0.603599 -2.107595,-0.917872 -1.518929,-0.917872 0.614554,0 4.599138,0.890865 5.476419,1.224406 1.045885,0.397645 1.051852,0.314217 0.251448,-3.515626 -0.415316,-1.987236 -0.854809,-3.14744 -1.568983,-4.141909 -0.545635,-0.759784 -0.808395,-1.306607 -0.583911,-1.215162 0.826478,0.336671 2.36404,2.868026 3.220452,5.30197 1.631518,4.636814 1.619872,4.62314 4.751851,5.578978 1.517813,0.463216 2.85028,0.840431 2.961038,0.838255 0.110758,-0.0022 0.07471,-0.567736 -0.08012,-1.256799 -0.507555,-2.25896 -1.861692,-5.22736 -2.981371,-6.535453 -0.604548,-0.706279 -0.970533,-1.284144 -0.813299,-1.284144 0.435141,0 3.130958,2.173622 3.325912,2.681664 0.330888,0.862282 0.734194,0.430524 1.231808,-1.318709 0.484523,-1.703217 0.479532,-1.797352 -0.141514,-2.669532 -0.354061,-0.497232 -0.682635,-1.258321 -0.730165,-1.691308 -0.04753,-0.432986 -0.632933,-1.563438 -1.300896,-2.512115 -2.843285,-4.038187 -1.723089,-3.038472 2.127098,1.89832 2.14534,2.750802 2.181124,2.827134 1.973715,4.210234 -0.116181,0.774751 -0.468797,2.236177 -0.783591,3.247613 l -0.572353,1.838974 1.00002,2.343445 c 0.951364,2.229423 1.090976,2.391742 2.869389,3.336073 1.335579,0.709188 2.048031,1.327378 2.495054,2.164943 0.344127,0.644773 0.709223,1.172695 0.811325,1.17316 0.102102,4.65e-4 0.352263,-2.427596 0.555913,-5.395691 0.395369,-5.76228 0.348241,-6.246784 -1.209626,-12.435498 -0.324848,-1.290476 -0.753011,-3.290793 -0.951472,-4.445148 -0.295403,-1.718211 -0.665644,-2.536733 -2.041616,-4.513564 -1.398629,-2.009381 -1.958163,-2.542687 -3.333184,-3.176947 -0.908824,-0.419216 -1.951202,-0.781358 -2.316395,-0.804762 -0.365194,-0.0234 -0.601819,-0.204652 -0.525834,-0.402776 0.184366,-0.480722 1.313866,-0.754771 2.197128,-0.533086 0.975164,0.24475 0.90324,0.01037 -0.459802,-1.498351 l -1.173131,-1.298515 1.290199,0.65821 c 0.70961,0.362016 1.659428,1.097013 2.110707,1.633328 l 0.820507,0.975117 0.340399,-0.883188 c 0.187219,-0.485754 0.418734,-1.624434 0.514478,-2.5304 l 0.174079,-1.647211 0.673303,0.982622 c 0.641404,0.936067 0.654312,1.093504 0.272455,3.323044 -0.386588,2.257167 -0.375945,2.372005 0.299175,3.228233 0.732108,0.928503 1.486978,1.200391 1.475306,0.531374 -0.0109,-0.624614 3.52996,-8.681385 3.815369,-8.681385 0.449804,0 0.285327,1.139249 -0.687927,4.76493 -1.816635,6.767543 -1.765121,6.21738 -0.810082,8.651613 l 0.850595,2.168024 2.17161,-1.131407 c 2.551974,-1.329575 2.68286,-1.644695 2.580594,-6.212963 -0.05064,-2.262161 0.03172,-2.902508 0.391053,-3.040397 0.382754,-0.146877 0.455207,0.421275 0.455207,3.569615 0,3.109437 0.07908,3.744293 0.466388,3.744293 0.503823,0 0.891193,-0.553753 3.380208,-4.832077 1.152775,-1.981484 1.947847,-2.980575 2.723101,-3.421861 1.063461,-0.605337 1.080727,-0.605825 0.600407,-0.01698 -0.818635,1.003592 -2.231652,3.615532 -2.052735,3.794448 0.09188,0.09188 0.789052,-0.04489 1.549282,-0.303928 1.616864,-0.550921 2.838187,-0.176285 1.300237,0.398843 -2.937321,1.098432 -3.652047,1.634999 -4.384747,3.291765 -0.828933,1.874364 -2.535758,3.436369 -4.353238,3.983875 -0.682198,0.205509 -1.864276,0.971468 -2.626838,1.702131 l -1.386478,1.328479 0.183356,2.27777 c 0.100846,1.252774 0.473443,3.391328 0.827993,4.752344 0.35455,1.361016 0.646792,2.909587 0.649427,3.44127 0.0083,1.670619 0.391862,1.790168 1.403685,0.437477 0.967854,-1.293908 2.660401,-2.307573 5.932247,-3.552817 2.936069,-1.11745 5.962565,-2.556353 6.335837,-3.012282 0.186378,-0.227649 0.430152,-1.540141 0.54172,-2.916649 0.384264,-4.740985 0.36152,-4.679897 2.399823,-6.445709 1.024277,-0.887346 1.91864,-1.557039 1.987473,-1.488205 0.06883,0.06883 -0.499392,1.159143 -1.262723,2.422911 -1.409111,2.332919 -1.603159,3.281148 -1.116228,5.45453 0.194335,0.867401 0.251202,0.826564 3.422878,-2.45805 1.773893,-1.837057 3.291208,-3.274156 3.371812,-3.193552 0.170912,0.170912 -0.326473,1.405228 -0.87588,2.17359 -0.482353,0.674584 -0.162963,1.016874 0.58708,0.629172 0.514191,-0.26579 6.745447,0.524107 7.122149,0.902829 0.06862,0.06898 -1.376585,0.125428 -3.211561,0.125428 -3.104279,0 -3.441774,0.06198 -4.852552,0.89122 -0.833927,0.490171 -3.037536,2.271145 -4.896908,3.957719 -2.832747,2.569489 -3.666267,3.149521 -5.142748,3.578746 -0.96914,0.281736 -1.691178,0.626958 -1.60453,0.767158 0.08665,0.1402 1.288554,0.99744 2.6709,1.904976 2.665858,1.750186 2.786193,1.771393 5.953299,1.049208 0.430158,-0.09809 -0.06257,0.258809 -1.09495,0.793103 -2.135228,1.105058 -2.745896,1.177225 -4.066955,0.480626 -0.516191,-0.272189 -2.266715,-1.041825 -3.890054,-1.710301 l -2.951526,-1.215412 -1.265601,0.698145 c -1.120408,0.618053 -1.422053,1.05674 -2.629352,3.823917 l -1.363752,3.125772 0.205175,3.44127 c 0.112846,1.892698 0.476179,6.327243 0.807408,9.854545 0.331228,3.527301 0.603411,6.730028 0.604851,7.117171 0.0026,0.696572 -0.04295,0.703896 -4.377179,0.703896 H 45.571411 Z M 50.889738,38.02972 c 0.258095,-0.166794 0.610043,-0.303262 0.782106,-0.303262 0.172064,0 0.101674,0.136468 -0.156421,0.303262 -0.258095,0.166794 -0.610043,0.303261 -0.782107,0.303261 -0.172063,0 -0.101674,-0.136467 0.156422,-0.303261 z M 41.061299,19.683645 c -0.298054,-0.776715 0.03046,-0.882772 0.428817,-0.138439 0.19218,0.359091 0.218627,0.65248 0.05882,0.65248 -0.159709,0 -0.379145,-0.231319 -0.487635,-0.514041 z"
       id="path21" /></g></svg>
