<?xml version="1.0" encoding="UTF-8" standalone="no"?>
<!-- Created with Inkscape (http://www.inkscape.org/) -->

<svg
   width="100mm"
   height="100mm"
   viewBox="0 0 100 100"
   version="1.1"
   id="svg1"
   inkscape:version="1.4 (86a8ad7, 2024-10-11)"
   sodipodi:docname="boulder3.svg"
   xml:space="preserve"
   xmlns:inkscape="http://www.inkscape.org/namespaces/inkscape"
   xmlns:sodipodi="http://sodipodi.sourceforge.net/DTD/sodipodi-0.dtd"
   xmlns="http://www.w3.org/2000/svg"
   xmlns:svg="http://www.w3.org/2000/svg"><sodipodi:namedview
     id="namedview1"
     pagecolor="#ffffff"
     bordercolor="#000000"
     borderopacity="0.25"
     inkscape:showpageshadow="2"
     inkscape:pageopacity="0.0"
     inkscape:pagecheckerboard="true"
     inkscape:deskcolor="#d1d1d1"
     inkscape:document-units="mm"
     inkscape:zoom="1.6685133"
     inkscape:cx="156.72635"
     inkscape:cy="167.5144"
     inkscape:window-width="1920"
     inkscape:window-height="1009"
     inkscape:window-x="1912"
     inkscape:window-y="-8"
     inkscape:window-maximized="1"
     inkscape:current-layer="layer1" /><defs
     id="defs1" /><g
     inkscape:label="Warstwa 1"
     inkscape:groupmode="layer"
     id="layer1"><path
       style="fill:#b1cad8;fill-opacity:1;stroke-width:1.09267"
       d="m 23.194464,70.179534 c -5.553182,-3.68788 -5.422829,-3.259062 -3.172483,-10.43644 0.842349,-2.686634 1.531544,-5.218743 1.531544,-5.626909 0,-1.46645 1.212805,-3.298423 5.275796,-4.668762 8.14415,-2.746807 5.974846,-2.139565 7.244409,-8.44505 1.196222,-5.941228 1.885663,-6.414968 5.323073,-7.983662 5.227045,-2.385411 10.550093,-4.34418 11.793608,-4.339797 0.667026,0.0024 2.216459,0.471624 3.443182,1.04283 1.256166,0.584914 3.590318,1.175124 5.343762,1.351216 3.076805,0.308991 3.136073,0.339255 5.048606,2.577898 1.733915,2.029569 1.497643,2.492951 1.575355,5.277222 0.10057,3.603429 2.955981,3.81792 4.061125,3.922513 0.786848,0.07446 1.759412,0.111435 2.730142,0.459407 0.970731,0.347973 2.847985,0.930398 4.171677,1.294277 2.282397,0.627425 2.447938,0.769915 3.204872,2.758597 1.863641,4.896315 5.105565,14.397597 5.107318,14.968291 0.0028,0.927341 -2.917328,6.896731 -3.579601,7.317374 -1.75243,1.113054 -8.14874,3.659654 -9.191979,3.659654 -0.670994,0 -3.312665,-0.587613 -5.87038,-1.305806 -2.557714,-0.718194 -5.897403,-1.433566 -7.421531,-1.589718 -2.344782,-0.240229 -3.025366,-0.516773 -4.423493,-1.797408 -1.487242,-1.36226 -1.828313,-1.485475 -3.413276,-1.233079 -0.968507,0.154228 -2.942399,1.046732 -4.386425,1.983342 -3.722555,2.414484 -4.83531,2.756831 -7.657718,2.355955 -3.039572,-0.431723 -4.256334,-0.30815 -7.309689,0.742358 -1.34979,0.464396 -2.964847,0.843297 -3.589016,0.842003 -0.673323,-0.0014 -3.047912,-1.272819 -5.838878,-3.126306 z"
       id="path9"
       sodipodi:nodetypes="sssssscsssssssssssssssssscs" /><path
       style="fill:#7d919d;fill-opacity:1;stroke-width:1.09267"
       d="m 23.194464,70.179534 c -5.553182,-3.68788 -5.422829,-3.259062 -3.172483,-10.43644 0.842349,-2.686634 1.531544,-5.218743 1.531544,-5.626909 0,-1.46645 1.444043,-2.744341 5.275796,-4.668762 3.623407,-1.819785 4.136127,-1.956678 7.328555,-1.956678 h 3.432579 l 3.308288,3.172484 c 2.891723,2.773019 3.462254,3.58572 4.53107,6.454361 1.294992,3.475685 3.637613,8.733209 3.671415,8.239725 0.02294,-0.334823 -1.963878,-8.974835 -2.607379,-11.338664 -0.321891,-1.182428 -1.293986,-2.293384 -3.95788,-4.523252 -3.433639,-2.874197 -5.155727,-3.747891 -7.414456,-3.76169 -2.098483,-0.01282 -2.177704,-0.370546 -1.047783,-4.731336 1.520119,-5.866717 1.885663,-6.414968 5.323073,-7.983662 5.227045,-2.385411 10.550093,-4.34418 11.793608,-4.339797 0.667026,0.0024 2.216459,0.471624 3.443182,1.04283 1.256166,0.584914 3.590318,1.175124 5.343762,1.351216 3.076805,0.308991 3.136073,0.339255 5.048606,2.577898 1.733915,2.029569 1.951888,2.533525 2.095164,4.844047 l 0.159914,2.578812 -4.129806,2.765568 c -2.271393,1.521064 -4.295035,2.930798 -4.49698,3.132743 -0.201947,0.201947 -0.636689,2.420455 -0.966095,4.930021 -0.407367,3.103507 -1.110775,5.872745 -2.199311,8.658449 -0.880216,2.252581 -1.515046,4.180949 -1.410735,4.28526 0.104307,0.104317 0.970452,-1.050342 1.924756,-2.5659 1.464714,-2.326151 1.896843,-3.59815 2.773038,-8.162601 0.570865,-2.973874 1.241211,-5.666676 1.489656,-5.984003 0.727395,-0.929067 9.362819,-5.455931 10.407708,-5.455931 0.524891,0 1.748583,0.284705 2.719313,0.632677 0.970731,0.347973 2.847985,0.930398 4.171677,1.294277 2.282397,0.627425 2.447938,0.769915 3.204872,2.758597 1.863641,4.896315 5.105565,14.397597 5.107318,14.968291 0.0028,0.927341 -2.917328,6.896731 -3.579601,7.317374 -1.75243,1.113054 -8.14874,3.659654 -9.191979,3.659654 -0.670994,0 -3.312665,-0.587613 -5.87038,-1.305806 -2.557714,-0.718194 -5.897403,-1.433566 -7.421531,-1.589718 -2.344782,-0.240229 -3.025366,-0.516773 -4.423493,-1.797408 -1.487242,-1.36226 -1.828313,-1.485475 -3.413276,-1.233079 -0.968507,0.154228 -2.942399,1.046732 -4.386425,1.983342 -3.722555,2.414484 -4.83531,2.756831 -7.657718,2.355955 -3.039572,-0.431723 -4.256334,-0.30815 -7.309689,0.742358 -1.34979,0.464396 -2.964847,0.843297 -3.589016,0.842003 -0.673323,-0.0014 -3.047912,-1.272819 -5.838878,-3.126306 z m 6.877406,-3.814071 1.179605,-4.75481 1.605387,-0.465305 c 0.882962,-0.255918 2.412325,-0.675646 3.398582,-0.93273 1.363662,-0.35546 2.345189,-1.102066 4.097648,-3.116911 1.267448,-1.457218 2.20397,-2.749969 2.081159,-2.87278 -0.122811,-0.122811 -1.182065,0.628233 -2.353899,1.668987 -1.791477,1.591086 -2.851923,2.097353 -6.662347,3.180669 l -4.531741,1.288388 -1.150263,-1.322676 c -0.632644,-0.727473 -1.76774,-2.0972 -2.522437,-3.043839 -2.122487,-2.6623 -2.098236,-1.587348 0.04685,2.077118 1.225084,2.092814 2.28874,3.400077 2.895595,3.558774 0.936345,0.24486 0.951829,0.360926 0.64976,4.870381 -0.170195,2.54075 -0.220361,4.619545 -0.111479,4.619545 0.108885,0 0.728787,-2.139665 1.377571,-4.754811 z m 22.28695,-4.98143 c 0.117745,-0.782181 0.436295,-2.898993 0.70789,-4.704027 0.271596,-1.805033 0.471417,-3.971073 0.44405,-4.813422 -0.164759,-5.071124 -0.05644,-8.752853 0.274929,-9.344982 0.209251,-0.373911 1.434572,-1.427173 2.722934,-2.340582 2.251519,-1.596255 5.846471,-5.817791 4.954285,-5.817791 -0.237701,0 -1.417748,0.886108 -2.622326,1.969128 -1.20458,1.08302 -2.456581,1.971051 -2.782226,1.973402 -0.325645,0.0024 -1.673458,0.50762 -2.995142,1.122821 -1.632024,0.759654 -2.825435,1.041406 -3.719463,0.878126 -2.098686,-0.383293 -2.733955,0.330269 -1.240673,1.39358 1.125981,0.801768 1.304359,1.285587 1.790777,4.857135 0.481964,3.538857 0.460158,4.134579 -0.202189,5.523536 -0.726861,1.524244 -0.717693,1.607282 0.437572,3.96282 0.801343,1.633908 1.179989,3.104922 1.179989,4.584178 0,2.436176 0.718743,2.953925 1.049593,0.756078 z m 26.018245,-6.731852 c 1.289392,-0.35721 2.216425,-0.777396 2.060073,-0.933748 -0.31802,-0.318021 -6.850312,-0.210837 -8.583655,0.140843 -0.79955,0.16222 -1.659356,-0.167044 -3.031199,-1.160801 -2.066872,-1.497234 -5.64144,-3.222523 -5.978432,-2.885531 -0.114074,0.114074 1.526821,1.515251 3.646433,3.113727 l 3.85384,2.906322 2.844295,-0.26567 c 1.564363,-0.146119 3.899253,-0.557933 5.188645,-0.915142 z M 44.649967,38.213012 c -0.351908,-0.530001 -1.114349,-1.088783 -1.694313,-1.241738 -2.898341,-0.764382 -3.461191,-0.844285 -3.461191,-0.491348 0,0.369323 4.635629,2.671264 5.413776,2.688349 0.209858,0.0046 0.09363,-0.425261 -0.258272,-0.955263 z"
       id="path8" /></g></svg>
