<?xml version="1.0" encoding="UTF-8" standalone="no"?>
<!-- Created with Inkscape (http://www.inkscape.org/) -->

<svg
   width="100mm"
   height="100mm"
   viewBox="0 0 100 100"
   version="1.1"
   id="svg1"
   inkscape:version="1.4 (86a8ad7, 2024-10-11)"
   sodipodi:docname="boulder4.svg"
   xml:space="preserve"
   xmlns:inkscape="http://www.inkscape.org/namespaces/inkscape"
   xmlns:sodipodi="http://sodipodi.sourceforge.net/DTD/sodipodi-0.dtd"
   xmlns="http://www.w3.org/2000/svg"
   xmlns:svg="http://www.w3.org/2000/svg"><sodipodi:namedview
     id="namedview1"
     pagecolor="#ffffff"
     bordercolor="#000000"
     borderopacity="0.25"
     inkscape:showpageshadow="2"
     inkscape:pageopacity="0.0"
     inkscape:pagecheckerboard="true"
     inkscape:deskcolor="#d1d1d1"
     inkscape:document-units="mm"
     inkscape:zoom="1.4464538"
     inkscape:cx="223.65042"
     inkscape:cy="164.88601"
     inkscape:window-width="1920"
     inkscape:window-height="1009"
     inkscape:window-x="1912"
     inkscape:window-y="-8"
     inkscape:window-maximized="1"
     inkscape:current-layer="layer1" /><defs
     id="defs1" /><g
     inkscape:label="Warstwa 1"
     inkscape:groupmode="layer"
     id="layer1"><path
       style="fill:#b1cad8;fill-opacity:1;stroke-width:1.43558"
       d="m 41.480889,81.544117 c -13.493862,-2.157213 -14.377444,-2.416611 -13.83749,-4.06234 0.223566,-0.681406 0.279752,-3.57205 1.204729,-6.323146 4.720702,-14.040441 7.400058,-12.214758 5.51669,-15.385887 L 33.812219,54.690741 C 33.41802,53.918887 33.343318,51.515708 33.343318,49.398112 v -3.850174 c 2.385445,-0.978775 4.173977,-2.789356 4.398469,-4.548017 0.382307,-0.44487 1.590778,-4.136713 2.68549,-8.204095 1.094711,-4.06738 2.3195,-8.030573 2.721752,-8.807091 0.655711,-1.265802 4.957023,-3.769191 8.739205,-5.650482 1.569962,-0.780913 1.863387,1.244561 4.137169,2.851488 0.523624,0.370056 1.057254,0.894543 1.988557,3.055341 0.931301,2.160796 2.311508,4.882135 3.067126,6.047422 2.189047,3.37587 3.673663,8.46472 4.573325,15.676093 0.45986,3.686064 0.575887,7.143665 0.769308,7.652088 0.341683,0.898137 2.492629,3.682417 4.28674,4.681363 1.070849,0.596239 1.697637,1.34516 1.697637,2.867688 0,1.163909 0.873,5.413022 1.939999,9.442474 1.066998,4.029451 1.789732,7.418727 1.606071,7.531723 -0.522469,0.321448 -22.244289,5.269205 -22.883767,5.212422 -0.313674,-0.02786 -5.528953,-0.843359 -11.58951,-1.812238 z"
       id="path11"
       sodipodi:nodetypes="ssscsscsssssssssssssss" /><path
       style="fill:#7d919d;fill-opacity:1;stroke-width:1.43558"
       d="m 41.480889,81.544117 c -13.493862,-2.157213 -14.377444,-2.416611 -13.83749,-4.06234 0.223566,-0.681406 0.765695,-3.526821 1.204729,-6.323146 1.418366,-9.033904 1.410776,-9.023181 10.46649,-14.789605 7.301579,-4.649441 14.312334,-9.88341 14.312334,-10.685056 0,-0.178256 -2.175343,0.904817 -4.834097,2.406826 -2.658753,1.50201 -7.011564,3.926008 -9.672915,5.386664 l -4.838818,2.655736 -0.468903,-1.442455 c -0.257896,-0.79335 -0.468901,-3.175033 -0.468901,-5.292629 v -3.850174 l 5.965642,-2.794 c 7.283613,-3.411268 8.298023,-4.24451 2.874932,-2.361479 -4.697308,1.631019 -5.404871,1.72778 -4.442105,0.607462 0.382307,-0.44487 1.590778,-4.136713 2.68549,-8.204095 1.094711,-4.06738 2.3195,-8.030573 2.721752,-8.807091 0.655711,-1.265802 4.653056,-3.972805 8.532072,-5.777921 1.573197,-0.732094 1.56478,-0.374828 -0.283728,12.042899 l -0.653637,4.390923 2.673716,2.43885 c 1.470542,1.341367 2.807974,2.356246 2.972069,2.255286 0.164096,-0.10096 -0.478918,-1.274713 -1.428918,-2.608342 l -1.727272,-2.42478 1.248398,-6.121264 c 0.686616,-3.366695 1.38127,-6.514285 1.543674,-6.994645 0.162394,-0.480359 1.057254,0.894543 1.988557,3.055341 0.931301,2.160796 2.311508,4.882135 3.067126,6.047422 2.189047,3.37587 3.673663,8.46472 4.573325,15.676093 0.45986,3.686064 0.994361,7.117918 1.187781,7.626341 0.341683,0.898137 -5.075156,5.959934 -16.817147,15.714883 -7.798371,6.478689 -7.288763,6.544177 1.798347,0.231102 3.659147,-2.542114 6.851906,-4.622025 7.09502,-4.622025 0.243115,0 1.212677,1.143951 2.154582,2.542113 0.941908,1.398162 1.955826,2.542114 2.253157,2.542114 0.297328,0 0.09895,-1.586547 -0.440869,-3.525659 l -0.981466,-3.525661 2.613717,-2.19065 c 3.868448,-3.242283 4.608052,-3.535292 6.402163,-2.536346 1.070848,0.596239 1.4884,1.422399 1.4884,2.944927 0,1.163909 0.873,5.413022 1.939999,9.442474 1.066998,4.029451 1.789732,7.418727 1.606071,7.531723 -0.522469,0.321448 -22.244289,5.269205 -22.883767,5.212422 -0.313674,-0.02786 -5.528953,-0.843359 -11.58951,-1.812238 z"
       id="path10" /></g></svg>
