<?xml version="1.0" encoding="UTF-8" standalone="no"?>
<!-- Created with Inkscape (http://www.inkscape.org/) -->

<svg
   width="100mm"
   height="100mm"
   viewBox="0 0 100 100"
   version="1.1"
   id="svg1"
   inkscape:version="1.4 (86a8ad7, 2024-10-11)"
   sodipodi:docname="tree2.svg"
   xml:space="preserve"
   xmlns:inkscape="http://www.inkscape.org/namespaces/inkscape"
   xmlns:sodipodi="http://sodipodi.sourceforge.net/DTD/sodipodi-0.dtd"
   xmlns="http://www.w3.org/2000/svg"
   xmlns:svg="http://www.w3.org/2000/svg"><sodipodi:namedview
     id="namedview1"
     pagecolor="#ffffff"
     bordercolor="#000000"
     borderopacity="0.25"
     inkscape:showpageshadow="2"
     inkscape:pageopacity="0.0"
     inkscape:pagecheckerboard="true"
     inkscape:deskcolor="#d1d1d1"
     inkscape:document-units="mm"
     inkscape:zoom="1.4142136"
     inkscape:cx="330.57242"
     inkscape:cy="154.50283"
     inkscape:window-width="1920"
     inkscape:window-height="1009"
     inkscape:window-x="1912"
     inkscape:window-y="-8"
     inkscape:window-maximized="1"
     inkscape:current-layer="layer1" /><defs
     id="defs1" /><g
     inkscape:label="Warstwa 1"
     inkscape:groupmode="layer"
     id="layer1"><path
       style="fill:#2d3035;fill-opacity:1;stroke-width:1.83643"
       d="m 49.292598,75.365113 c -0.877576,-0.513963 -1.946435,-1.25063 -2.375279,-1.637033 -0.883728,-0.796296 -0.960014,-0.786361 -5.705191,0.743865 -3.243122,1.04583 -3.290098,1.050366 -3.058432,0.295886 0.129469,-0.421443 0.92402,-1.432675 1.765804,-2.247169 1.668215,-1.614115 1.745052,-1.867359 2.132961,-7.02891 0.36029,-4.794155 0.303489,-5.940824 -0.357626,-7.219293 -0.562647,-1.088032 -0.563804,-1.228041 -0.01653,-2.062627 l 0.586648,-0.895371 0.97577,0.934836 0.975752,0.934818 2.588948,-2.454007 2.588948,-2.454012 -0.188106,-1.668932 c -0.148749,-1.318926 -0.47534,-1.965406 -1.557623,-3.082434 -1.77113,-1.828022 -2.250696,-2.069513 -4.835089,-2.434798 -1.452398,-0.205313 -2.390669,-0.552564 -2.888544,-1.069061 l -0.737383,-0.765003 1.13475,0.569313 c 1.047116,0.52533 4.006583,0.809297 4.006583,0.38442 0,-0.101738 -0.391895,-0.779804 -0.87091,-1.50694 -0.478997,-0.727135 -0.979553,-2.040075 -1.112328,-2.917651 -0.351162,-2.320792 -0.654816,-2.71366 -2.595577,-3.358285 -0.961924,-0.319502 -1.906034,-0.771612 -2.097996,-1.004696 -0.555539,-0.674538 -2.174208,-4.501811 -1.902122,-4.497515 0.135529,0.0022 0.805441,0.829544 1.488704,1.838677 1.07424,1.586608 1.48191,1.89709 3.01388,2.295412 0.974393,0.253345 1.959897,0.392591 2.19002,0.309432 0.861801,-0.311434 0.923818,-3.177894 0.127816,-5.909871 -0.938271,-3.220433 -1.280894,-4.83892 -1.604492,-7.579221 -0.327564,-2.77397 0.05087,-2.358795 0.703611,0.772038 0.283105,1.357817 0.762873,3.06259 1.066123,3.788387 l 0.551389,1.319633 1.553494,-1.272973 c 1.037731,-0.850353 1.66939,-1.708711 1.902581,-2.585453 l 0.349087,-1.31248 0.03673,1.296112 c 0.0281,0.994228 -0.252969,1.642742 -1.206757,2.784355 -1.530501,1.831886 -1.759137,2.673604 -1.244973,4.583077 0.299706,1.113003 0.298145,1.98646 -0.0055,3.452325 -0.455013,2.19175 -0.23409,4.080392 0.553758,4.734254 0.425593,0.35322 0.522483,0.321247 0.522483,-0.172441 0,-0.333294 0.871223,-1.456585 1.936078,-2.496208 2.218742,-2.166183 2.52168,-2.986741 1.827232,-4.949442 -0.602423,-1.702652 -0.383006,-2.390013 1.539207,-4.82178 1.338631,-1.693518 2.498154,-4.543921 2.498154,-6.141188 0,-0.518605 0.106881,-0.608766 0.388314,-0.327388 0.65344,0.653445 -0.344166,4.300053 -1.897586,6.936273 l -1.41185,2.395994 0.79176,2.117177 c 0.452552,1.210081 0.702785,2.471749 0.584078,2.944755 -0.114227,0.455168 -1.009983,1.744375 -1.990547,2.864911 -2.564138,2.930194 -2.485391,3.551514 0.862279,6.802827 2.243184,2.178634 2.710997,2.489578 3.078816,2.046374 0.238535,-0.28742 1.446522,-0.981812 2.684388,-1.5431 1.822365,-0.826284 2.349844,-1.257809 2.771691,-2.267443 0.885803,-2.120015 0.675256,-3.46366 -0.844594,-5.389674 -1.578102,-1.999818 -1.869856,-2.953109 -1.506297,-4.921724 l 0.261912,-1.418303 0.276567,1.876269 c 0.261967,1.777191 1.56936,3.97422 2.36494,3.97422 0.177766,0 0.323065,-0.742561 0.323065,-1.65015 0,-1.241781 0.322459,-2.226798 1.303022,-3.980204 0.716668,-1.281525 1.367739,-2.135935 1.446834,-1.898688 0.172258,0.517068 -0.559322,2.901634 -1.097746,3.577603 -0.439495,0.551743 -0.37129,6.437841 0.07989,6.888924 0.160504,0.160504 0.890156,0.0055 1.62157,-0.34244 1.000176,-0.47694 1.581169,-1.131995 2.343564,-2.642296 0.935148,-1.852513 2.455457,-3.498496 3.231387,-3.498496 0.177583,0 -0.223126,0.715235 -0.890615,1.589414 -0.66747,0.874179 -1.393118,2.302336 -1.612516,3.173668 -0.377479,1.499098 -2.120897,3.392149 -3.124011,3.392149 -0.625875,0 -1.631653,1.38197 -2.389677,3.283505 -0.582994,1.462461 -1.102227,2.088501 -2.47979,2.989896 -2.545755,1.665773 -2.715717,1.915638 -3.030702,4.455498 -0.250637,2.020964 -0.511135,2.606529 -2.056658,4.622969 -3.415012,4.45559 -3.733193,7.365766 -1.24108,11.351211 1.036942,1.658318 1.610148,2.22056 2.498504,2.450757 0.780667,0.202301 1.546148,0.838754 2.371239,1.971576 1.427514,1.959914 1.00664,2.354343 -1.193002,1.118075 -1.100189,-0.618345 -1.771772,-0.745867 -3.203364,-0.608318 -0.996228,0.09568 -1.899238,0.261949 -2.00667,0.369398 -0.107431,0.107432 -0.0371,0.768749 0.156464,1.469606 0.193505,0.700838 0.245036,1.272739 0.11441,1.270903 -0.13057,-0.0018 -0.955367,-0.423867 -1.832944,-0.937848 z"
       id="path60" /></g></svg>
