<?xml version="1.0" encoding="UTF-8" standalone="no"?>
<!-- Created with Inkscape (http://www.inkscape.org/) -->

<svg
   width="100mm"
   height="100mm"
   viewBox="0 0 100 100"
   version="1.1"
   id="svg1"
   inkscape:version="1.4 (86a8ad7, 2024-10-11)"
   sodipodi:docname="tree3.svg"
   xml:space="preserve"
   xmlns:inkscape="http://www.inkscape.org/namespaces/inkscape"
   xmlns:sodipodi="http://sodipodi.sourceforge.net/DTD/sodipodi-0.dtd"
   xmlns="http://www.w3.org/2000/svg"
   xmlns:svg="http://www.w3.org/2000/svg"><sodipodi:namedview
     id="namedview1"
     pagecolor="#ffffff"
     bordercolor="#000000"
     borderopacity="0.25"
     inkscape:showpageshadow="2"
     inkscape:pageopacity="0.0"
     inkscape:pagecheckerboard="true"
     inkscape:deskcolor="#d1d1d1"
     inkscape:document-units="mm"
     inkscape:zoom="1.4142136"
     inkscape:cx="330.57242"
     inkscape:cy="154.50283"
     inkscape:window-width="1920"
     inkscape:window-height="1009"
     inkscape:window-x="1912"
     inkscape:window-y="-8"
     inkscape:window-maximized="1"
     inkscape:current-layer="layer1" /><defs
     id="defs1" /><g
     inkscape:label="Warstwa 1"
     inkscape:groupmode="layer"
     id="layer1"><path
       style="fill:#2d3035;fill-opacity:1;stroke-width:1.85997"
       d="m 45.991538,76.020078 c 0.217412,-1.158891 0.167211,-1.25693 -0.644888,-1.25693 -0.484373,0 -1.673991,0.240661 -2.643592,0.534797 -2.778515,0.842901 -2.886635,0.671318 -0.900448,-1.428791 2.604439,-2.753814 3.06759,-3.984406 2.907298,-7.724878 -0.278326,-6.49475 -0.173907,-7.563897 1.023262,-10.474302 1.413353,-3.436063 1.41698,-4.693495 0.02325,-8.041551 -1.538714,-3.696129 -2.529204,-4.661156 -5.384404,-5.245967 -1.949508,-0.399298 -2.539992,-0.712907 -3.831015,-2.034638 -1.778186,-1.8205 -2.083146,-2.882896 -0.359104,-1.251071 1.619902,1.533265 2.422274,1.882419 4.927503,2.144284 2.024837,0.211627 2.301712,0.355142 3.950444,2.047658 0.975144,1.001053 1.869138,1.723949 1.986632,1.606455 0.291197,-0.291197 -0.767497,-4.74798 -1.434091,-6.037012 -0.659806,-1.275939 -4.527629,-5.136836 -6.417767,-6.406283 -1.157719,-0.777543 -1.736764,-0.917354 -3.509482,-0.847344 -1.895103,0.07484 -2.218533,-0.01921 -3.01274,-0.876189 -1.251722,-1.350637 -1.10856,-1.82137 0.21518,-0.707513 1.116,0.939048 1.925607,1.074409 3.563644,0.595813 1.05038,-0.306893 3.164681,0.340408 4.712975,1.442887 0.590875,0.420736 1.141072,0.69821 1.222669,0.61661 0.08165,-0.0816 0.01302,-1.00066 -0.151029,-2.042348 -0.5754,-3.639985 -2.672497,-5.230255 -6.502842,-4.931231 -2.211372,0.172642 -2.27755,0.155716 -1.256929,-0.321211 0.592548,-0.276892 1.679347,-0.510729 2.415095,-0.519638 1.313584,-0.016 1.333672,-0.03726 1.113395,-1.183338 -0.123315,-0.641928 -0.42941,-1.862835 -0.68006,-2.713131 -0.391151,-1.326932 -0.383767,-1.486273 0.05208,-1.124539 0.279293,0.231798 0.702603,1.071586 0.940661,1.86619 0.41455,1.383594 1.101548,2.225855 3.977785,4.876671 l 1.301345,1.199369 0.311973,-1.199369 c 0.300515,-1.155372 0.116434,-2.928298 -0.460286,-4.43145 -0.259913,-0.677529 -0.239081,-0.683955 0.367492,-0.113384 0.852759,0.802158 1.197057,3.29003 0.843533,6.09535 -0.489618,3.88522 -0.12127,5.202048 2.108963,7.540258 1.465506,1.536427 2.110544,2.565678 2.592908,4.137295 0.637783,2.078069 0.644795,2.085304 1.048576,1.081126 0.635626,-1.580862 0.492799,-2.894725 -0.720459,-6.626784 l -1.126937,-3.466567 0.458055,-3.976714 c 0.498137,-4.324754 0.389794,-4.828222 -1.623139,-7.54354 -0.839478,-1.132386 -1.368286,-3.052519 -0.840669,-3.052519 0.170188,0 0.309313,0.20219 0.309313,0.449311 0,0.247123 0.760058,1.474659 1.689038,2.72786 1.965317,2.651271 2.186021,2.498213 2.251101,-1.561132 0.02902,-1.81146 0.242912,-2.865029 0.765508,-3.770759 0.39887,-0.691306 0.603002,-0.933712 0.453627,-0.53868 -0.149355,0.395031 -0.297223,2.334279 -0.328526,4.309439 -0.03125,1.975159 -0.320231,4.722427 -0.642005,6.105039 -0.854098,3.669731 -0.768762,6.440502 0.266849,8.664653 0.471577,1.012755 1.009703,1.935513 1.195886,2.050575 0.186164,0.115057 0.938298,-0.794362 1.671405,-2.020935 1.379371,-2.30786 1.515019,-3.484277 0.745978,-6.469534 -0.173907,-0.674942 -0.04817,-1.476003 0.381014,-2.427723 0.78275,-1.735836 0.996906,-1.660777 0.490827,0.172029 -0.251281,0.910088 -0.259261,1.681488 -0.02399,2.314085 0.194162,0.521906 0.442059,1.226964 0.550904,1.566795 0.158283,0.494095 0.584551,0.206329 2.128046,-1.43648 1.061596,-1.129895 2.214683,-2.458365 2.562423,-2.952155 l 0.632259,-0.897799 -0.262088,0.897799 c -0.144148,0.49379 -0.343964,1.11533 -0.44403,1.381202 -0.143032,0.379906 0.28331,0.456793 1.991171,0.359121 1.195216,-0.06835 2.101448,-0.0091 2.013844,0.13176 -0.229781,0.369406 -2.650456,0.996528 -3.855641,0.998874 -1.465544,0.0028 -3.341211,2.163515 -4.051886,4.667545 -0.308774,1.087998 -1.014632,2.705395 -1.568568,3.594216 -1.205222,1.933871 -2.149063,4.151382 -2.149063,5.04917 0,0.509018 0.591358,0.210325 2.696285,-1.361888 2.267413,-1.693557 2.863589,-2.367982 3.748041,-4.239931 0.578451,-1.224313 1.315463,-2.327222 1.637796,-2.45091 0.463169,-0.177739 0.430285,-0.02688 -0.156796,0.719527 -0.408579,0.519428 -0.746424,1.205427 -0.750757,1.524443 -0.0037,0.319017 -0.32516,1.279162 -0.712926,2.133665 l -0.705059,1.553632 1.161848,-0.242186 c 0.639011,-0.133174 1.525435,-0.472451 1.969856,-0.753883 0.873943,-0.553452 1.122101,-0.125548 0.315432,0.543948 -0.270923,0.224852 -1.615513,0.790747 -2.988002,1.257562 -3.729926,1.268629 -3.99008,1.505477 -5.722957,5.210182 -0.868754,1.857327 -1.52417,3.432349 -1.456485,3.500052 0.30974,0.309721 4.257524,-2.184162 4.9116,-3.102745 0.780536,-1.096153 1.995579,-1.597471 4.788806,-1.975788 2.022511,-0.273937 4.04067,-1.877453 5.502606,-4.372062 0.501633,-0.855957 0.961883,-1.556291 1.022797,-1.556291 0.06082,0 -0.173349,0.748414 -0.520606,1.663165 -0.877384,2.311365 -2.348564,4.031854 -4.098534,4.793047 l -1.485334,0.646078 0.987588,0.390278 c 0.676433,0.267333 1.286131,0.276782 1.935186,0.02995 1.299225,-0.493952 1.472742,-0.171675 0.31573,0.586448 -0.840985,0.551035 -1.222465,0.575363 -3.227697,0.20588 -1.250699,-0.23045 -2.524666,-0.322816 -2.83104,-0.205247 -0.306374,0.11755 -1.134562,0.918545 -1.84042,1.779953 l -1.283379,1.566205 1.301718,0.244195 c 1.68887,0.316827 0.929036,0.856069 -1.216978,0.863695 -2.526748,0.0093 -3.592511,1.00974 -4.140123,3.887688 -0.124431,0.653835 -0.713112,2.240742 -1.308209,3.526458 -1.296826,2.80182 -1.370573,4.558858 -0.315115,7.507262 0.421785,1.178253 0.880267,3.367696 1.018816,4.865455 0.257029,2.778086 1.040039,4.401839 3.244139,6.727469 1.10988,1.171074 0.651045,1.367263 -1.564345,0.668919 -2.552882,-0.804734 -2.937189,-0.770641 -5.40148,0.479017 -1.163559,0.590056 -2.180906,1.072811 -2.260773,1.072811 -0.07998,0 -0.03906,-0.565616 0.09058,-1.256911 z"
       id="path59" /></g></svg>
