<?xml version="1.0" encoding="UTF-8" standalone="no"?>
<!-- Created with Inkscape (http://www.inkscape.org/) -->

<svg
   width="100mm"
   height="100mm"
   viewBox="0 0 100 100"
   version="1.1"
   id="svg1"
   inkscape:version="1.4 (86a8ad7, 2024-10-11)"
   sodipodi:docname="tree1.svg"
   xml:space="preserve"
   xmlns:inkscape="http://www.inkscape.org/namespaces/inkscape"
   xmlns:sodipodi="http://sodipodi.sourceforge.net/DTD/sodipodi-0.dtd"
   xmlns="http://www.w3.org/2000/svg"
   xmlns:svg="http://www.w3.org/2000/svg"><sodipodi:namedview
     id="namedview1"
     pagecolor="#ffffff"
     bordercolor="#000000"
     borderopacity="0.25"
     inkscape:showpageshadow="2"
     inkscape:pageopacity="0.0"
     inkscape:pagecheckerboard="true"
     inkscape:deskcolor="#d1d1d1"
     inkscape:document-units="mm"
     inkscape:zoom="1.4142136"
     inkscape:cx="330.57242"
     inkscape:cy="154.50283"
     inkscape:window-width="1920"
     inkscape:window-height="1009"
     inkscape:window-x="1912"
     inkscape:window-y="-8"
     inkscape:window-maximized="1"
     inkscape:current-layer="layer1" /><defs
     id="defs1" /><g
     inkscape:label="Warstwa 1"
     inkscape:groupmode="layer"
     id="layer1"><path
       style="fill:#2d3035;fill-opacity:1;stroke-width:2.06978"
       d="m 48.405217,74.81434 c 0,-0.939763 -0.03167,-0.941315 -3.450136,-0.168894 -1.062873,0.240136 -1.008542,0.138261 0.752634,-1.410493 l 1.898236,-1.669298 v -3.289998 c 0,-3.267354 0.252824,-4.216493 2.513292,-9.43598 0.900023,-2.078183 0.382434,-6.410004 -0.934319,-7.819379 -1.983366,-2.12287 -4.658329,-2.607385 -6.374528,-1.154586 -0.619133,0.524131 -1.610082,0.724216 -2.997227,0.605204 -0.565919,-0.04864 -0.399695,-0.207827 0.569437,-0.545553 0.752779,-0.262344 1.418897,-0.656823 1.480265,-0.876613 0.06147,-0.21979 -0.787716,-1.093755 -1.886852,-1.942137 -2.117861,-1.634691 -2.174242,-1.639534 -5.757651,-0.495505 -0.439601,0.140331 0.09997,-0.195594 1.198878,-0.746507 2.444948,-1.225662 2.741693,-1.235079 4.50856,-0.143022 l 1.405857,0.868873 -0.259696,-1.06869 c -0.370366,-1.524041 -0.675638,-3.420704 -0.397128,-2.467384 0.128326,0.4396 0.481617,1.153985 0.784901,1.587542 0.303265,0.433536 0.551411,1.178346 0.551411,1.655099 0,1.02243 1.293612,1.474035 3.155606,1.10164 0.680813,-0.136191 1.780611,-0.02132 2.449626,0.255784 2.471689,1.023816 1.793671,-0.831555 -1.050206,-2.87389 -1.010115,-0.725395 -2.276447,-2.06951 -2.814093,-2.986919 -1.051966,-1.795058 -1.986409,-2.544794 -4.05534,-3.253818 -1.113583,-0.381605 -1.554384,-0.326156 -2.87391,0.361632 -1.307832,0.681682 -1.835584,0.75044 -3.280415,0.427389 l -1.721849,-0.384979 1.609522,-0.04284 c 0.885224,-0.0236 2.01371,-0.325928 2.507745,-0.671954 L 36.83606,37.599913 35.616318,36.059852 C 34.607797,34.786503 34.03511,34.453848 32.309307,34.13889 l -2.087249,-0.380923 2.329206,-0.0474 c 2.205164,-0.04491 2.411728,0.03581 3.878664,1.517542 1.006347,1.016448 2.291059,1.795224 3.665227,2.221805 1.163693,0.36126 2.34059,0.750999 2.615333,0.866079 0.36188,0.151508 0.499541,-0.355112 0.499541,-1.838565 0,-2.024431 -0.01863,-2.056471 -1.69842,-2.802481 -1.962296,-0.871874 -0.955431,-1.095804 1.088042,-0.241978 1.185342,0.495257 1.42496,0.493373 1.84643,-0.01449 0.39183,-0.472137 0.291218,-0.790676 -0.526842,-1.668118 -0.55615,-0.59649 -1.219307,-1.489144 -1.473704,-1.983698 -0.318953,-0.620064 -0.822965,-0.899153 -1.623763,-0.899153 -0.638672,0 -1.27221,-0.179657 -1.407864,-0.399033 -0.142194,-0.230201 0.143643,-0.357016 0.675783,-0.299725 0.724175,0.07803 0.893917,-0.07244 0.789973,-0.699958 -0.07286,-0.43958 -0.206357,-1.428665 -0.29691,-2.197961 l -0.164547,-1.398695 0.453799,1.198878 c 0.655934,1.732903 1.904859,3.396861 2.549617,3.396861 0.313757,0 0.749467,-0.715399 0.998109,-1.638873 0.629296,-2.337009 0.975984,-1.608115 0.392327,0.824849 -0.419192,1.747349 -0.39659,2.163251 0.163927,3.018794 0.357575,0.545739 0.813589,0.992273 1.013343,0.992273 0.474435,0 1.779224,-1.876938 2.361412,-3.39686 0.451191,-1.177911 0.456469,-1.17015 0.302436,0.442829 -0.09894,1.035284 -0.677708,2.398999 -1.566989,3.691784 -1.699372,2.470468 -2.414232,5.328254 -1.846864,7.383152 0.522536,1.892462 1.040788,2.158263 1.361459,0.698261 0.16786,-0.76408 0.741416,-1.463272 1.631049,-1.988168 1.51572,-0.89429 1.738905,-1.943834 0.772731,-3.633974 -0.314109,-0.549486 -0.572025,-1.268817 -0.573142,-1.598512 -0.0015,-0.441298 0.112596,-0.402282 0.432149,0.147782 0.408264,0.70269 0.49207,0.678847 1.404925,-0.399633 l 0.970748,-1.146927 -0.613918,1.271424 c -0.40963,0.848362 -0.537273,1.845706 -0.383613,2.997228 0.188143,1.409354 0.07451,1.890681 -0.618905,2.624977 -0.467067,0.494533 -1.022016,0.899174 -1.233258,0.899174 -0.211242,0 -0.384068,0.585024 -0.384068,1.300091 0,0.917761 0.342031,1.622894 1.163009,2.397778 0.639645,0.603713 1.240605,1.097687 1.335443,1.097687 0.09479,0 0.396321,-0.764308 0.669946,-1.698441 0.273604,-0.934133 0.924653,-2.438097 1.446755,-3.342156 0.947111,-1.64001 0.947566,-1.64711 0.198699,-3.11597 -0.670588,-1.315345 -0.689568,-1.587356 -0.178001,-2.55239 0.386366,-0.728956 0.50691,-1.794748 0.370718,-3.278097 -0.171378,-1.866465 -0.139503,-2.017145 0.211304,-0.999082 0.22722,0.65939 0.407581,2.292032 0.400834,3.628096 -0.0083,1.488916 0.207329,2.726396 0.555052,3.197043 0.539509,0.730157 0.622569,0.734834 1.692666,0.09521 2.038692,-1.218479 2.075948,-1.733833 0.261268,-3.614352 -0.906253,-0.939122 -1.779265,-2.157104 -1.940004,-2.706589 l -0.292274,-0.999062 0.877815,1.09897 c 1.133059,1.418544 1.447003,1.384579 1.847278,-0.199734 0.327998,-1.29829 0.328164,-1.298103 0.469343,0.499542 0.164341,2.093168 1.398778,4.053849 2.107553,3.347599 0.675038,-0.672658 -0.303326,-6.725231 -1.459505,-9.029041 -0.52028,-1.036732 -0.938086,-2.385483 -0.928441,-2.997227 0.01656,-1.049979 0.04678,-1.030647 0.538329,0.345508 0.286416,0.80177 0.895511,1.934168 1.353533,2.516459 0.458021,0.58227 0.949387,1.589735 1.091953,2.238798 0.277992,1.265691 0.77356,1.534224 1.127803,0.611102 0.425339,-1.108429 2.325563,-3.899486 2.521467,-3.703581 0.109285,0.109284 -0.19725,0.975446 -0.681578,1.924626 -0.884893,1.734538 -1.649511,3.94649 -1.364192,3.94649 0.08424,0 0.577965,-0.193524 1.097232,-0.430162 0.643991,-0.293433 1.380418,-0.304878 2.316663,-0.03601 l 1.372553,0.394127 -1.422228,0.03601 c -1.83219,0.04636 -2.700628,0.717095 -3.017532,2.330282 -0.250609,1.275688 -0.237155,1.289659 0.893772,0.928958 1.596235,-0.509083 5.362737,-0.778879 5.107451,-0.365833 -0.115494,0.186901 -0.873675,0.33814 -1.684946,0.336256 -0.811271,-0.0019 -2.312854,0.392451 -3.336857,0.876303 -1.488296,0.703249 -2.029481,1.250727 -2.697503,2.728819 -0.459615,1.016965 -0.835673,2.168611 -0.835673,2.559158 0,0.132383 -1.605176,2.850745 -2.682828,2.927708 -0.301443,0.02153 -3.864361,2.106197 -1.76813,0.222693 2.209097,-1.984908 2.953369,-4.090698 2.876787,-4.63156 -0.0801,-0.565739 -2.203964,0.906874 -2.347813,1.028364 -0.925419,0.781569 -2.272411,3.044317 -2.660785,4.315143 -0.190627,0.623477 0.07058,1.06018 0.29573,0.864987 0.342528,-0.296928 4.307212,-3.308915 5.126451,-3.312694 0.480334,-0.0023 -1.167397,1.836076 -1.23719,1.912238 -2.148369,2.344568 -2.397777,2.794389 -2.397777,4.324598 0,3.737152 0.771448,3.854054 2.486177,0.376741 1.147424,-2.326826 1.426141,-2.619658 2.693777,-2.830134 3.413274,-0.566726 3.412094,-0.565484 3.412094,-3.558986 v -2.712529 l 2.098053,-1.558606 c 2.521406,-1.87313 2.698579,-1.720091 0.443699,0.383261 -1.607081,1.499058 -1.646365,1.596545 -1.37423,3.411286 0.325328,2.169461 0.731956,2.354582 1.436385,0.653947 0.648028,-1.564443 1.478754,-1.982869 3.936783,-1.982869 1.589322,0 2.045212,-0.150473 2.231099,-0.736055 0.128533,-0.404829 0.706043,-1.169115 1.283449,-1.69842 l 1.049834,-0.962386 -0.615449,0.999083 c -1.223364,1.98585 -1.22651,2.68496 -0.01449,3.127251 0.970189,0.353932 0.791774,0.410375 -1.383916,0.437862 -2.652878,0.03353 -3.154365,0.516658 -1.869694,1.80135 0.451543,0.451543 0.483831,0.627971 0.114872,0.627971 -0.282173,0 -0.895697,-0.479858 -1.363343,-1.066351 -1.088787,-1.365454 -2.046764,-1.033151 -2.396536,0.831307 -0.320381,1.707733 -0.502459,1.859096 -3.776727,3.139359 -1.825111,0.713639 -2.865009,1.401158 -3.496768,2.31184 -1.087421,1.567506 -1.159739,2.190158 -0.199734,1.720608 0.384648,-0.188143 2.227932,-0.342321 4.096218,-0.342611 3.280435,-5.17e-4 3.476278,-0.05361 5.714662,-1.551093 2.094037,-1.400868 2.441264,-1.510897 3.596656,-1.139641 l 1.278876,0.410934 -1.449695,0.04078 c -0.79732,0.02235 -1.686146,0.325721 -1.975149,0.673961 -0.822075,0.990514 -3.844512,2.96349 -4.539855,2.96349 -1.645599,0 0.01449,1.211153 2.369877,1.72957 0.43958,0.09666 0.04885,0.196836 -0.868521,0.222232 -1.240729,0.03457 -1.971775,-0.209461 -2.855095,-0.952719 -1.466936,-1.234355 -2.981787,-1.262317 -5.045978,-0.09314 -1.984815,1.124242 -2.839221,2.598381 -3.412508,5.887757 -0.248995,1.428666 -0.801957,3.676591 -1.228828,4.995372 -0.426851,1.318781 -0.776064,2.923171 -0.776023,3.56532 1.24e-4,1.664165 1.888923,6.219522 3.137931,7.567921 l 1.058258,1.142477 -1.645661,-0.269526 c -1.289018,-0.211118 -1.938556,-0.09107 -2.997228,0.554452 -1.683393,1.02628 -1.950995,1.030068 -1.950995,0.02773 0,-0.989685 -0.0325,-0.988961 -1.775498,0.03953 l -1.421544,0.838739 z"
       id="path50"
       sodipodi:nodetypes="csscsssscscsssscscsssssssssccscsscssscscsssssccsccsscsssscsssssssscscssssssssssscscsscssssssssssscssscsssssssssssssssssssscssssssscscsssssssssssccssccsssssscscsccc" /></g></svg>
