<?xml version="1.0" encoding="UTF-8" standalone="no"?>
<!-- Created with Inkscape (http://www.inkscape.org/) -->

<svg
   width="100mm"
   height="100mm"
   viewBox="0 0 100 100"
   version="1.1"
   id="svg1"
   inkscape:version="1.4 (86a8ad7, 2024-10-11)"
   sodipodi:docname="tree4.svg"
   xml:space="preserve"
   xmlns:inkscape="http://www.inkscape.org/namespaces/inkscape"
   xmlns:sodipodi="http://sodipodi.sourceforge.net/DTD/sodipodi-0.dtd"
   xmlns="http://www.w3.org/2000/svg"
   xmlns:svg="http://www.w3.org/2000/svg"><sodipodi:namedview
     id="namedview1"
     pagecolor="#ffffff"
     bordercolor="#000000"
     borderopacity="0.25"
     inkscape:showpageshadow="2"
     inkscape:pageopacity="0.0"
     inkscape:pagecheckerboard="true"
     inkscape:deskcolor="#d1d1d1"
     inkscape:document-units="mm"
     inkscape:zoom="1.4142136"
     inkscape:cx="330.57242"
     inkscape:cy="154.50283"
     inkscape:window-width="1920"
     inkscape:window-height="1009"
     inkscape:window-x="1912"
     inkscape:window-y="-8"
     inkscape:window-maximized="1"
     inkscape:current-layer="layer1" /><defs
     id="defs1" /><g
     inkscape:label="Warstwa 1"
     inkscape:groupmode="layer"
     id="layer1"><path
       style="fill:#2d3035;fill-opacity:1;stroke-width:1.99154"
       d="m 19.267453,68.025671 c 0.898822,-0.803527 1.634218,-1.665584 1.634218,-1.915683 0,-0.250117 -0.648883,-0.648964 -1.441954,-0.886355 -1.171584,-0.35067 -1.766437,-0.312752 -3.172326,0.202301 -2.753146,1.008616 -3.028038,1.068242 -3.713048,0.805378 -0.544806,-0.209051 -0.438257,-0.434076 0.667166,-1.409114 0.723547,-0.638169 2.230387,-1.584589 3.348578,-2.103166 1.732699,-0.803548 2.148354,-1.21245 2.813686,-2.767864 1.106143,-2.585936 2.042106,-3.44391 5.535388,-5.074086 2.314808,-1.080231 3.647227,-2.02934 5.383333,-3.834692 2.456067,-2.55403 4.622465,-3.915369 6.285681,-3.949862 0.561156,-0.01195 1.906502,0.272623 2.989661,0.631678 2.269997,0.752483 4.288325,0.419298 6.102,-1.007362 2.10484,-1.655648 2.736278,-5.155721 1.375538,-7.624593 -1.428173,-2.591253 -1.59389,-3.19232 -1.342478,-4.868938 0.30118,-2.00841 0.931862,-2.213498 0.931862,-0.303034 0,1.406129 0.92037,3.633866 1.501323,3.633866 0.180432,0 0.534827,-0.49936 0.787654,-1.109707 0.700704,-1.691635 2.680395,-3.522975 4.925717,-4.556526 2.599339,-1.196516 3.341148,-0.957751 1.274148,0.410119 -3.633467,2.404526 -5.382398,5.362063 -4.84976,8.201263 0.132637,0.706539 0.328265,1.284623 0.434933,1.284623 0.559862,0 2.476799,-1.243079 2.816596,-1.82648 0.339278,-0.582507 0.393528,-0.539151 0.403645,0.322629 0.008,0.713868 -0.532318,1.489054 -1.910923,2.739682 -1.275701,1.157265 -1.923112,2.051427 -1.924067,2.657412 -0.0018,1.158659 -1.25487,3.23484 -2.285114,3.786218 -1.14402,0.612258 -0.982745,0.97205 0.738803,1.648299 1.33678,0.525109 1.751181,0.533354 3.304702,0.06593 2.425159,-0.729861 5.692341,-2.651299 6.852334,-4.029862 0.527458,-0.626877 1.417418,-2.652513 1.977659,-4.501439 0.56024,-1.848927 1.38422,-3.756424 1.831062,-4.238895 0.718488,-0.775745 2.557895,-1.473879 5.673799,-2.153433 1.117474,-0.243725 2.287941,-2.312677 2.287941,-4.044241 0,-1.402901 1.220058,-2.937105 3.097226,-3.894776 2.161238,-1.102577 2.635604,-0.928397 0.901848,0.331152 -2.099202,1.525003 -2.33988,1.918074 -2.544013,4.154713 l -0.180235,1.975708 1.715991,-0.912405 c 0.943811,-0.501827 1.901443,-0.797791 2.1281,-0.657705 0.258203,0.159521 0.144188,0.408683 -0.305124,0.667045 -0.394465,0.226778 -1.595662,1.299142 -2.669321,2.382999 -1.59393,1.609065 -2.326,2.050032 -3.989793,2.403271 -1.12072,0.237928 -2.276152,0.432623 -2.567634,0.432623 -0.291461,0 -0.888585,0.455923 -1.326903,1.013156 -0.631299,0.80257 -0.796954,1.564454 -0.796954,3.66533 0,1.458686 -0.235619,3.21608 -0.523597,3.905292 -0.561235,1.343255 -3.032777,3.554064 -6.310295,5.644663 -1.115044,0.711239 -1.968717,1.46906 -1.897062,1.684048 0.07169,0.214985 1.243537,0.960898 2.604138,1.657578 5.512205,2.822412 10.677725,0.797134 13.202979,-5.176552 1.601696,-3.788965 2.702459,-4.303739 9.266099,-4.333254 2.61806,-0.01195 4.810209,-0.22578 5.753123,-0.561613 1.841996,-0.656053 2.269977,-0.399802 0.970279,0.580991 -1.18188,0.891872 -3.637051,1.533447 -5.868294,1.533447 -0.928535,0 -1.807124,0.118894 -1.952427,0.264158 -0.51543,0.515451 2.547738,3.196542 3.652067,3.196542 0.579061,0 1.159774,0.173064 1.290479,0.384526 0.146178,0.236636 -0.496571,0.384527 -1.671281,0.384527 -1.618465,0 -2.154051,-0.20479 -3.51979,-1.345823 -2.802854,-2.341733 -4.213262,-1.626392 -5.427564,2.752808 -0.828183,2.986692 -2.159825,4.601991 -5.24273,6.359486 l -2.018507,1.150731 1.441717,0.974282 c 0.792952,0.535845 1.996797,1.459381 2.675216,2.052303 1.649811,1.441895 4.005028,1.778884 6.784779,0.970796 1.172859,-0.340952 2.249148,-0.808705 2.391741,-1.039445 0.746869,-1.208446 5.932243,-2.513483 5.932243,-1.492998 0,0.211482 -0.312991,0.384526 -0.695527,0.384526 -0.382554,0 -1.723578,0.630721 -2.980061,1.401628 -4.332397,2.658068 -5.367141,3.169815 -7.269042,3.595009 -2.828009,0.632234 -4.534021,0.193379 -6.814137,-1.752894 -2.695968,-2.301225 -5.016193,-3.027002 -8.630082,-2.699515 -3.854825,0.349311 -5.18649,-0.116111 -8.795061,-3.07317 -4.382106,-3.591067 -7.336855,-4.743451 -10.716441,-4.179548 -1.324074,0.220923 -2.047323,0.74422 -4.347392,3.14552 -3.718666,3.882348 -3.974319,4.5622 -2.664661,7.086498 0.561693,1.082642 0.938413,2.051287 0.837143,2.152557 -0.350113,0.350113 -1.958939,-0.267145 -4.167916,-1.599108 l -2.2176,-1.33716 -0.910513,0.910512 c -1.015247,1.015229 -2.75679,1.549638 -6.189986,1.899453 l -2.307141,0.23508 z"
       id="path38" /></g></svg>
