<?xml version="1.0" encoding="UTF-8" standalone="no"?>
<!-- Created with Inkscape (http://www.inkscape.org/) -->

<svg
   width="100mm"
   height="100mm"
   viewBox="0 0 100 100"
   version="1.1"
   id="svg1"
   inkscape:version="1.4 (86a8ad7, 2024-10-11)"
   sodipodi:docname="tree3.svg"
   xml:space="preserve"
   xmlns:inkscape="http://www.inkscape.org/namespaces/inkscape"
   xmlns:sodipodi="http://sodipodi.sourceforge.net/DTD/sodipodi-0.dtd"
   xmlns="http://www.w3.org/2000/svg"
   xmlns:svg="http://www.w3.org/2000/svg"><sodipodi:namedview
     id="namedview1"
     pagecolor="#ffffff"
     bordercolor="#000000"
     borderopacity="0.25"
     inkscape:showpageshadow="2"
     inkscape:pageopacity="0.0"
     inkscape:pagecheckerboard="true"
     inkscape:deskcolor="#d1d1d1"
     inkscape:document-units="mm"
     inkscape:zoom="1.4378367"
     inkscape:cx="174.22006"
     inkscape:cy="126.92679"
     inkscape:window-width="1920"
     inkscape:window-height="1009"
     inkscape:window-x="1912"
     inkscape:window-y="-8"
     inkscape:window-maximized="1"
     inkscape:current-layer="layer1-6" /><defs
     id="defs1" /><g
     inkscape:label="Warstwa 1"
     inkscape:groupmode="layer"
     id="layer1"><g
       inkscape:label="Warstwa 1"
       id="layer1-6"
       transform="translate(2.7097488,-3.0206858)"><path
         style="fill:#b7a26c;fill-opacity:1"
         d="m 42.614189,83.800616 c 0.410206,-1.037294 0.922408,-4.418706 1.02109,-6.74094 0.136753,-3.218151 -0.656793,-11.037 -1.344215,-13.244613 C 42.062042,63.079572 41.300225,61.485364 40.598137,60.272379 39.89605,59.059394 38.933023,57.187956 38.458076,56.113628 37.105909,53.055024 35.735324,51.54475 32.837735,49.920461 31.508385,49.175273 30.044128,47.617363 29.712768,46.595624 29.119976,44.767761 28.213997,44.267794 24.98037,43.984031 22.271241,43.746295 20.953135,43.266376 19.953853,42.153888 19.537819,41.690723 19.09711,41.14045 18.9745,40.931059 c -0.220328,-0.376272 -0.231395,-0.376245 -0.949012,0.0023 -0.919044,0.484826 -1.707886,0.461013 -3.240548,-0.09782 -1.144752,-0.417397 -1.328638,-0.430511 -3.057519,-0.218044 -2.2741036,0.279471 -4.0543102,0.01315 -4.3065876,-0.644278 -0.2559854,-0.667087 0.6434372,-1.071187 2.8341046,-1.273329 2.09162,-0.193003 2.373041,-0.365509 1.795038,-1.100321 -0.224378,-0.285251 -0.361525,-0.639647 -0.30477,-0.787547 0.128118,-0.333871 1.109823,-0.68862 1.921546,-0.694369 0.335655,-0.0024 0.996364,-0.179511 1.468242,-0.393631 0.978397,-0.44396 1.544296,-0.481437 2.580729,-0.170915 0.596405,0.178688 0.842101,0.159877 1.351341,-0.103462 1.362424,-0.704537 0.435151,-1.098601 -2.588666,-1.100109 -2.269096,-0.0011 -3.475618,-0.207377 -3.84966,-0.658071 -0.384543,-0.463346 0.203252,-0.88456 1.648451,-1.181279 0.80685,-0.165658 1.867187,-0.569873 2.558605,-0.975374 1.072928,-0.629251 1.356073,-0.702138 3.100985,-0.798258 1.056135,-0.05818 2.461406,-0.257621 3.122824,-0.443206 1.041368,-0.292193 1.430584,-0.307069 2.903429,-0.110973 1.848924,0.246167 3.173592,0.05315 3.173592,-0.462414 0,-0.307522 -0.248088,-0.385487 -2.153005,-0.676608 -1.481545,-0.226419 -2.042852,-0.618816 -1.566538,-1.095131 0.463766,-0.463766 4.43082,-1.467735 5.804808,-1.469061 1.229851,-0.0012 1.622152,-0.213282 1.913365,-1.034442 0.138148,-0.389546 0.183471,-0.395731 2.544318,-0.347184 1.696144,0.03488 1.730118,0.02623 2.355842,-0.599491 0.788538,-0.788539 1.67289,-1.169094 2.716793,-1.169094 0.441847,0 1.080025,-0.14307 1.418173,-0.317934 0.89232,-0.461436 2.142362,-0.376079 4.482432,0.306076 1.578912,0.46027 2.46076,0.603016 3.7395,0.605319 0.920342,0.0017 1.791382,0.07784 1.935645,0.169287 0.158439,0.100436 0.23637,0.427922 0.196816,0.827078 -0.0552,0.5571 0.01931,0.702028 0.474795,0.923475 0.458308,0.22282 0.789384,0.213198 2.182223,-0.06342 1.355015,-0.269103 1.834053,-0.286206 2.741264,-0.09787 1.373922,0.285226 1.726951,0.639304 1.208545,1.212137 -0.360966,0.398863 -0.360739,0.413739 0.01046,0.685163 0.256158,0.187308 0.958685,0.282116 2.16236,0.291816 0.980611,0.0079 2.225764,0.0846 2.767008,0.170439 1.763921,0.279752 5.110077,1.216751 5.412433,1.515605 0.262228,0.25919 0.252907,0.323175 -0.0834,0.572495 -0.208242,0.15438 -0.695361,0.329243 -1.082487,0.388585 -3.044705,0.466716 -3.632955,0.708367 -2.654869,1.090612 1.009027,0.394336 2.047975,0.44468 3.74116,0.181284 1.446042,-0.224949 1.792766,-0.217422 2.784602,0.06046 0.623094,0.174569 2.01857,0.363368 3.101056,0.419552 1.749293,0.09079 2.112508,0.177051 3.266235,0.775689 0.713942,0.370446 1.821031,0.785101 2.460197,0.921455 1.245592,0.265725 1.786526,0.601426 1.559921,0.96808 -0.28595,0.462677 -1.245566,0.644539 -3.66098,0.693812 -2.458284,0.05015 -3.330149,0.252291 -3.330149,0.7721 0,0.459725 1.080928,0.779164 1.794649,0.530359 0.870939,-0.30361 1.662816,-0.272359 2.370401,0.09355 0.331551,0.171451 1.102114,0.358972 1.712364,0.416714 0.61025,0.05774 1.311562,0.231285 1.558471,0.385653 0.43881,0.274344 0.441205,0.293737 0.106318,0.860657 -0.21481,0.363644 -0.272143,0.643548 -0.153702,0.750382 0.103898,0.09372 1.018489,0.268307 2.032424,0.387979 1.730975,0.204303 2.781652,0.58958 2.781652,1.020016 0,0.103258 -0.228545,0.33749 -0.507878,0.520517 -0.426469,0.279432 -0.974017,0.326826 -3.415886,0.295662 -2.733427,-0.03488 -2.971744,-0.0074 -3.96968,0.457102 -1.387664,0.645967 -1.698646,0.628252 -3.32195,-0.18923 L 75.20755,41.24233 74.55988,42.055239 c -2.422747,3.04086 -6.686489,5.242265 -12.161391,6.279026 -3.592448,0.680289 -5.501314,1.745211 -6.645841,3.707596 -0.814109,1.395858 -2.098794,3.233284 -3.428082,4.90303 -1.774594,2.229103 -2.608624,4.136737 -3.115075,7.124943 -0.654702,3.862926 -0.700021,5.752936 -0.219447,9.151934 0.417166,2.950525 0.806617,7.65668 0.810289,9.791585 l 0.0019,1.131691 h -3.662148 c -3.408439,0 -3.652713,-0.02386 -3.525942,-0.344428 z m 3.842222,-20.692004 c 0,-0.508149 0.847993,-2.916919 1.433699,-4.072497 0.278487,-0.549448 1.201007,-1.789388 2.050044,-2.755421 2.449151,-2.786645 3.356837,-3.967014 4.128024,-5.368146 1.254496,-2.279233 1.961544,-3.116504 3.075064,-3.641426 0.563039,-0.265421 1.687961,-0.79613 2.499826,-1.179355 1.392905,-0.657492 3.345868,-2.191095 3.345868,-2.627409 0,-0.109581 -0.677993,-0.256549 -1.506652,-0.326596 -1.383626,-0.116959 -1.556389,-0.08956 -2.115769,0.335581 -1.141132,0.867279 -1.910576,1.133797 -4.028461,1.395368 -3.133054,0.38695 -4.226043,1.103793 -5.730277,3.758234 -0.785953,1.386929 -1.545848,2.415964 -2.982496,4.03884 -1.266941,1.431171 -1.707766,2.566042 -1.728142,4.448979 -0.02315,2.139605 0.948252,6.719023 1.36998,6.458381 0.104111,-0.06434 0.189292,-0.273384 0.189292,-0.464533 z m -3.279208,-9.554374 c 0.31256,-0.68272 0.864537,-1.365878 1.668811,-2.065415 1.661972,-1.445539 1.90093,-2.130821 1.892615,-5.427633 -0.0036,-1.407233 -0.08048,-3.666892 -0.17096,-5.021465 l -0.164506,-2.462859 -0.735691,0.07016 c -0.730287,0.06964 -0.736593,0.07783 -0.858498,1.115054 -0.222502,1.893143 -0.835321,3.394528 -2.306411,5.650621 -1.881209,2.885061 -2.33426,4.002681 -2.337249,5.7657 -0.0034,1.992948 0.552261,3.778129 1.742842,5.599472 0.311758,0.476925 0.317939,0.467403 0.558628,-0.860615 0.13386,-0.738582 0.453549,-1.80194 0.710419,-2.363019 z m -5.108095,-3.459549 c 0.06935,-0.433669 0.400259,-1.474332 0.735361,-2.312586 0.82782,-2.07078 0.737467,-3.658919 -0.341997,-6.011336 -0.848056,-1.848124 -0.95011,-2.000165 -1.227498,-1.82873 -0.137507,0.08498 -0.133212,0.3229 0.01343,0.743544 0.190731,0.547134 0.164126,0.660281 -0.230375,0.979728 -0.30454,0.246602 -0.769861,0.361157 -1.467013,0.361157 h -1.021003 l -0.33741,1.820546 c -0.671026,3.620609 -0.558165,3.89319 2.61984,6.327416 0.487119,0.373114 0.940777,0.68522 1.008128,0.693568 0.06735,0.0083 0.179195,-0.339639 0.248541,-0.773307 z m 11.870047,-4.384653 c 0.930373,-1.344998 1.857753,-1.739782 4.515339,-1.922173 1.512149,-0.10378 2.478401,-0.275527 3.10198,-0.551366 0.498134,-0.220348 0.905699,-0.443613 0.905699,-0.496143 0,-0.05253 -0.47153,-0.232587 -1.047844,-0.400126 -0.576315,-0.167539 -1.217657,-0.492257 -1.425205,-0.721595 -0.373266,-0.412454 -0.372337,-0.421045 0.08557,-0.791835 0.346193,-0.280331 0.776968,-0.374858 1.708281,-0.374858 1.108856,0 1.316205,-0.06471 1.891808,-0.590448 0.524326,-0.478897 0.819534,-0.590447 1.562575,-0.590447 0.921748,0 1.452596,-0.319417 1.199076,-0.721497 C 62.135,38.071475 60.402436,37.696519 58.494833,37.696519 h -1.921741 l -0.241944,0.669082 c -0.302901,0.837658 -1.211135,1.299076 -2.557042,1.299076 -0.910095,0 -1.019794,0.05228 -1.399727,0.667021 -0.226733,0.366861 -1.087877,1.271711 -1.913652,2.010776 -0.825776,0.739066 -1.621729,1.631718 -1.768784,1.983671 -0.147056,0.351953 -0.264575,1.240588 -0.261154,1.974743 l 0.0062,1.334828 0.436616,-0.508242 c 0.240139,-0.279534 0.719628,-0.917381 1.065531,-1.417438 z M 32.5554,45.420892 c 0.202473,-0.94682 0.409579,-2.180144 0.460236,-2.740719 l 0.0921,-1.019227 -0.755459,-0.209774 c -0.415503,-0.115376 -1.436089,-0.210268 -2.267969,-0.210871 -0.831881,-6.04e-4 -1.739693,-0.08747 -2.017362,-0.193042 -0.668764,-0.254264 -0.652188,-0.858636 0.0321,-1.170419 0.467058,-0.212806 0.493954,-0.268717 0.20662,-0.429517 -0.430519,-0.24093 -3.456031,-0.619693 -3.707683,-0.464164 -0.307009,0.189742 0.611849,1.645333 1.487991,2.357172 0.432994,0.351795 1.274382,0.882868 1.869749,1.180162 1.731018,0.864375 2.066218,1.181223 2.85417,2.697906 0.789319,1.519311 1.054057,1.925677 1.253857,1.924631 0.06793,-3.55e-4 0.289172,-0.775317 0.491644,-1.722138 z m 33.46154,0.568262 c 1.027088,-0.305358 2.080591,-0.694862 2.341118,-0.865566 0.395038,-0.258839 1.258622,-1.960259 2.259445,-4.451526 0.08798,-0.218991 -0.125838,-0.254913 -1.09851,-0.184557 -0.664261,0.04805 -1.260971,0.140585 -1.326023,0.205637 -0.06505,0.06505 0.02929,0.343484 0.209638,0.618737 0.530862,0.810198 0.344773,0.91782 -2.603979,1.505963 -0.918207,0.183141 -1.255864,0.341491 -1.348142,0.63223 -0.06771,0.21334 -0.756387,1.056623 -1.53039,1.873961 l -1.407279,1.486071 1.318344,-0.132878 c 0.725089,-0.07308 2.158689,-0.382715 3.185778,-0.688072 z M 41.788876,43.602167 c 0.409694,-0.531375 0.913122,-1.346848 1.11873,-1.812162 0.439457,-0.994544 0.739697,-2.912591 0.455921,-2.912591 -0.105248,0 -0.670203,0.164229 -1.255455,0.364954 -0.585252,0.200725 -1.484788,0.42757 -1.998969,0.504099 -0.514181,0.07653 -0.934875,0.214332 -0.934875,0.306229 0,0.0919 0.260406,0.717713 0.57868,1.390702 0.318274,0.67299 0.689286,1.655181 0.824471,2.182646 0.135185,0.527465 0.295473,0.955255 0.356195,0.950644 0.06072,-0.0046 0.445608,-0.443145 0.855302,-0.974521 z m 29.697241,-0.134222 c 0.943015,-0.758557 2.524502,-2.289612 2.524502,-2.443998 0,-0.137369 -1.54187,-0.572007 -2.029184,-0.572007 -0.170551,0 -0.521833,0.639817 -0.896925,1.633637 -0.339116,0.8985 -0.616575,1.695604 -0.616575,1.771342 0,0.271798 0.374671,0.128663 1.018182,-0.388974 z m -21.33941,-2.325409 c 1.313031,-1.192579 1.471481,-1.477859 0.820831,-1.477859 -0.225097,0 -0.982252,-0.22923 -1.682567,-0.5094 -1.822207,-0.728998 -1.907984,-0.655821 -1.811588,1.545467 0.04378,0.999769 0.149075,1.930074 0.233987,2.067344 0.188392,0.304557 0.661138,-0.01048 2.439337,-1.625552 z M 25.59394,42.689972 c 0,-0.06807 -0.312743,-0.469927 -0.694985,-0.893023 -0.382242,-0.423096 -0.887009,-1.164509 -1.121705,-1.647585 -0.344915,-0.709938 -0.522963,-0.8753 -0.928745,-0.862569 -0.776928,0.02437 -2.824474,0.648107 -2.902183,0.884075 -0.07616,0.231262 1.07902,1.493336 1.79811,1.964502 0.723686,0.474177 3.849508,0.924515 3.849508,0.5546 z"
         id="path33" /><path
         style="fill:#735e40;fill-opacity:1"
         d="m 42.805402,83.505393 c 1.045957,-4.858932 1.131897,-7.763734 0.417382,-14.107516 -0.543279,-4.823464 -0.845821,-6.010127 -2.085985,-8.181872 -0.432704,-0.757741 -1.493415,-2.817848 -2.357136,-4.578015 -1.351383,-2.753973 -1.742179,-3.37208 -2.802095,-4.431972 -0.677432,-0.677417 -1.940231,-1.642124 -2.806221,-2.143793 -1.945457,-1.127009 -2.505992,-1.708136 -3.416801,-3.542323 -0.959493,-1.932227 -1.552437,-2.262219 -4.571333,-2.54409 -3.337307,-0.3116 -4.572315,-0.830516 -5.708063,-2.398371 -0.679788,-0.93842 -0.697165,-1.05955 -0.175749,-1.225041 0.301042,-0.09555 0.604776,0.08752 1.254667,0.756207 1.187506,1.221854 1.885497,1.531674 3.736529,1.658546 l 1.58845,0.108875 -0.812847,-0.923443 c -0.676378,-0.768406 -1.637233,-2.398636 -1.637233,-2.777803 0,-0.0553 0.219617,-0.100553 0.488039,-0.100553 0.368985,0 0.583383,0.18689 0.878883,0.766116 0.504958,0.989801 1.749667,2.055143 3.356656,2.872951 1.503666,0.765225 1.891984,1.160035 2.749701,2.795662 0.351613,0.670511 0.800136,1.364668 0.996717,1.542572 0.339681,0.307406 0.3638,0.276203 0.485939,-0.628663 0.07069,-0.523669 0.254411,-1.408591 0.408278,-1.966495 0.153868,-0.557904 0.279759,-1.386625 0.279759,-1.841603 0,-0.673468 0.05787,-0.805027 0.311321,-0.707768 0.171226,0.06571 0.447573,0.119465 0.614103,0.119465 0.253891,0 0.282059,0.198626 0.174446,1.230099 -0.375054,3.5949 -0.372279,3.785826 0.06755,4.647967 0.306253,0.600307 0.788839,1.060938 1.771179,1.690602 0.742628,0.476013 1.408993,0.960555 1.480812,1.07676 0.271603,0.439462 0.480376,0.176102 0.700339,-0.883455 0.124997,-0.602105 0.451893,-1.585385 0.726436,-2.185065 0.438799,-0.958465 0.488487,-1.284273 0.41085,-2.693967 -0.07275,-1.320985 -0.215678,-1.877373 -0.81089,-3.156679 -0.397414,-0.854172 -0.72257,-1.58485 -0.72257,-1.62373 0,-0.03888 0.299474,-0.07069 0.665499,-0.07069 0.646482,0 0.685254,0.0464 1.356796,1.62373 0.380214,0.893052 0.752029,1.911574 0.826257,2.263382 0.07423,0.351808 0.205849,0.639651 0.292492,0.639651 0.249465,0 1.720065,-2.035727 2.062297,-2.854804 0.170817,-0.408823 0.366362,-1.217961 0.434544,-1.798084 0.1224,-1.041434 0.132335,-1.054769 0.785725,-1.054769 0.738402,0 0.754146,0.04956 0.478112,1.505078 -0.309475,1.631855 -0.960223,3.106046 -2.209717,5.005843 -1.929012,2.932975 -2.329878,3.931422 -2.330061,5.803547 -8.6e-5,0.879468 0.139582,2.058555 0.31303,2.642616 0.30587,1.029975 1.336336,3.051447 1.656316,3.249206 0.08832,0.05459 0.220567,-0.277536 0.293871,-0.738053 0.39433,-2.477284 0.916739,-3.422786 2.892995,-5.236002 0.508655,-0.466692 1.038524,-1.173545 1.177487,-1.570784 0.298114,-0.852189 0.347303,-5.576621 0.08463,-8.128566 -0.203156,-1.973728 -0.07812,-2.729701 0.451493,-2.729701 0.330539,0 0.375219,0.206944 0.443618,2.054697 0.04183,1.130083 0.137681,2.116318 0.212996,2.191634 0.194077,0.194077 0.826175,-0.261589 2.441902,-1.760314 1.016909,-0.943271 1.555225,-1.305123 1.94159,-1.305123 h 0.53458 l -0.346606,0.541244 c -0.190633,0.297684 -1.000883,1.149193 -1.800554,1.892242 -1.964407,1.825312 -2.306479,2.577421 -2.055583,4.519578 l 0.122748,0.950182 1.017619,-1.466286 c 1.353621,-1.95043 2.061976,-2.301353 5.060819,-2.507165 2.098388,-0.144013 3.460995,-0.489954 3.745955,-0.951029 0.110189,-0.178289 1.226777,-0.109698 1.466019,0.09006 0.03955,0.03302 -0.181865,0.284129 -0.492039,0.55801 -0.728099,0.642906 -2.437432,1.293563 -3.398301,1.293563 -1.044275,0 -2.678772,0.329547 -3.450256,0.69564 -1.002408,0.475674 -1.806313,1.374975 -3.075813,3.440809 -0.642476,1.045489 -1.785462,2.578099 -2.539969,3.4058 -1.578798,1.731956 -2.005353,2.804567 -1.998335,5.024992 0.0069,2.198481 1.155985,7.19079 1.456248,6.327074 0.05645,-0.162373 0.251522,-0.87091 0.4335,-1.574526 0.553861,-2.141496 1.543607,-3.891614 3.403979,-6.019082 2.53241,-2.895991 3.026657,-3.550282 4.076275,-5.396233 1.391519,-2.447247 1.831398,-2.845854 4.592326,-4.161449 1.891078,-0.901107 2.660379,-1.390695 3.492042,-2.222358 0.930922,-0.930922 2.017418,-1.486779 2.044523,-1.045989 0.005,0.08119 0.0091,0.235912 0.0091,0.343834 0,0.107922 -0.631229,0.860743 -1.402731,1.672934 l -1.402732,1.476712 h 0.701009 c 1.784659,0 5.779848,-1.158544 6.403384,-1.856883 0.199625,-0.223574 0.745239,-1.314311 1.212475,-2.42386 0.748585,-1.777673 0.90675,-2.017362 1.331206,-2.017362 0.383562,0 0.451729,0.07016 0.334625,0.344427 -0.46084,1.079316 -1.075947,2.864246 -1.075947,3.122204 0,0.402472 0.881374,-0.216955 2.495364,-1.753733 0.949023,-0.903623 1.305583,-1.129474 1.62373,-1.028498 0.224218,0.07116 0.407669,0.208485 0.407669,0.305158 0,0.427477 -3.170855,3.235221 -4.555689,4.033992 -2.592751,1.495498 -4.63238,2.168125 -9.244976,3.048798 -1.662746,0.317465 -3.689495,1.371205 -4.575504,2.37888 -0.418636,0.476124 -1.275787,1.662783 -1.904778,2.637021 -0.628992,0.974239 -1.734344,2.524163 -2.456338,3.444277 -2.001679,2.550955 -2.568859,3.924446 -3.148984,7.625625 -0.556818,3.552487 -0.605806,5.549588 -0.202824,8.268545 0.313518,2.115333 0.610431,5.408984 0.807162,8.953822 l 0.128344,2.312586 h -3.586702 -3.586701 z"
         id="path32" /></g></g></svg>
