<?xml version="1.0" encoding="UTF-8" standalone="no"?>
<!-- Created with Inkscape (http://www.inkscape.org/) -->

<svg
   width="100mm"
   height="100mm"
   viewBox="0 0 100 100"
   version="1.1"
   id="svg1"
   inkscape:version="1.4 (86a8ad7, 2024-10-11)"
   sodipodi:docname="tree1.svg"
   xml:space="preserve"
   xmlns:inkscape="http://www.inkscape.org/namespaces/inkscape"
   xmlns:sodipodi="http://sodipodi.sourceforge.net/DTD/sodipodi-0.dtd"
   xmlns="http://www.w3.org/2000/svg"
   xmlns:svg="http://www.w3.org/2000/svg"><sodipodi:namedview
     id="namedview1"
     pagecolor="#ffffff"
     bordercolor="#000000"
     borderopacity="0.25"
     inkscape:showpageshadow="2"
     inkscape:pageopacity="0.0"
     inkscape:pagecheckerboard="true"
     inkscape:deskcolor="#d1d1d1"
     inkscape:document-units="mm"
     inkscape:zoom="2.0334082"
     inkscape:cx="189.58319"
     inkscape:cy="184.17355"
     inkscape:window-width="1920"
     inkscape:window-height="1009"
     inkscape:window-x="1912"
     inkscape:window-y="-8"
     inkscape:window-maximized="1"
     inkscape:current-layer="layer1-6" /><defs
     id="defs1" /><g
     inkscape:label="Warstwa 1"
     inkscape:groupmode="layer"
     id="layer1"><g
       inkscape:label="Warstwa 1"
       id="layer1-6"
       transform="translate(2.7097488,-3.0206858)"><path
         style="fill:#b7a26c;fill-opacity:1"
         d="m 43.445259,81.425926 c 0.923657,-2.910187 1.147485,-7.044507 0.627376,-11.588269 -0.723553,-6.321076 -0.795073,-6.582364 -2.679079,-9.787578 -0.577783,-0.982966 -1.317016,-2.419115 -1.642742,-3.191441 -0.325726,-0.772326 -0.792245,-1.721074 -1.036708,-2.108329 -0.727526,-1.152476 -2.147102,-2.444659 -3.617254,-3.292642 -1.675246,-0.966281 -2.641304,-1.97692 -3.31953,-3.472714 -0.678033,-1.495369 -1.341109,-1.83589 -4.014558,-2.061668 -2.003732,-0.169218 -2.641672,-0.306677 -3.511989,-0.756735 -0.518828,-0.268296 -1.618957,-1.370788 -1.939625,-1.943789 -0.14701,-0.262692 -0.241765,-0.254232 -1.069544,0.09549 l -0.908245,0.383722 -1.444553,-0.489145 c -1.39828,-0.473476 -1.495687,-0.482763 -3.040769,-0.289909 -2.229553,0.278288 -3.969949,-0.07061 -3.969949,-0.795853 0,-0.417683 1.060513,-0.804749 2.585824,-0.943775 1.745478,-0.159092 2.007459,-0.327837 1.594453,-1.027001 -0.159122,-0.269371 -0.235066,-0.573247 -0.168766,-0.675281 0.210527,-0.323992 0.869179,-0.589696 1.471686,-0.593686 0.320658,-0.0021 0.927934,-0.160373 1.349503,-0.351665 0.852428,-0.386799 1.568688,-0.435834 2.487568,-0.170297 1.087282,0.314201 2.112597,-0.408303 1.241224,-0.874648 -0.187057,-0.10011 -1.275019,-0.18246 -2.417693,-0.182999 -2.246664,-0.0011 -3.299047,-0.195218 -3.469785,-0.640153 -0.179908,-0.468834 0.20182,-0.719663 1.552574,-1.020177 0.718712,-0.159899 1.658384,-0.5221 2.129315,-0.820755 0.900522,-0.571095 2.162392,-0.856043 3.798371,-0.857728 0.543911,-5.6e-4 1.333344,-0.122535 1.754296,-0.271056 0.604989,-0.213452 1.208352,-0.246724 2.879381,-0.15878 1.740523,0.0916 2.176093,0.06419 2.4654,-0.155167 0.193263,-0.146533 0.300284,-0.317528 0.237824,-0.379988 -0.06246,-0.06246 -0.761812,-0.21736 -1.554115,-0.344222 -1.599071,-0.256039 -2.19654,-0.616937 -1.753988,-1.059489 0.422216,-0.422217 3.829293,-1.32249 5.009544,-1.323703 1.10533,-0.0011 1.841404,-0.323586 1.841404,-0.806657 0,-0.424722 0.723609,-0.57188 2.321792,-0.472172 l 1.510892,0.09426 0.649703,-0.649703 c 0.755603,-0.755604 1.258445,-0.980134 2.195037,-0.980134 0.37193,0 1.119079,-0.169466 1.660331,-0.376592 1.087716,-0.416245 0.879423,-0.441926 4.497997,0.554556 0.863615,0.237822 1.743526,0.350134 2.549567,0.325427 0.676954,-0.02075 1.417878,0.02394 1.646498,0.09932 0.356126,0.117413 0.402044,0.221038 0.320528,0.723356 -0.166628,1.026811 0.528482,1.226812 2.726362,0.784442 0.950378,-0.191284 1.36211,-0.195361 2.140356,-0.0212 1.204936,0.269652 1.520022,0.58802 1.07196,1.083122 -0.552585,0.6106 -0.108297,0.773535 2.432794,0.892188 1.793103,0.08373 2.80162,0.235248 4.431408,0.665784 1.160492,0.306564 2.225847,0.673189 2.367455,0.814724 0.434091,0.433866 -0.112109,0.755925 -1.643177,0.968877 -2.314904,0.321973 -2.664858,0.585656 -1.357411,1.022782 0.76316,0.255151 1.46464,0.25211 3.010955,-0.01305 1.072016,-0.183831 1.402413,-0.171631 2.420956,0.08939 0.648734,0.166252 1.733388,0.303546 2.410342,0.305098 1.572456,0.0036 2.651555,0.252458 3.434723,0.792088 0.341774,0.235494 1.172581,0.559534 1.846238,0.720089 1.486394,0.354256 1.873546,0.634089 1.455559,1.052077 -0.397737,0.397736 -1.513308,0.578369 -3.627057,0.587293 -1.833481,0.0077 -2.49405,0.170793 -2.49405,0.615621 0,0.374433 1.083337,0.670233 1.656525,0.452308 0.681807,-0.259223 1.619765,-0.223507 2.215089,0.08435 0.282335,0.146002 0.994998,0.331329 1.583693,0.411838 0.588696,0.08051 1.199064,0.275088 1.356374,0.432398 0.264136,0.264136 0.261744,0.31284 -0.03126,0.636607 -0.553587,0.611707 -0.255112,0.827006 1.314277,0.948029 1.419959,0.109499 2.634795,0.523917 2.764284,0.942983 0.03545,0.114721 -0.155017,0.352094 -0.423256,0.527496 -0.42338,0.27685 -0.818602,0.312622 -2.996469,0.271212 -2.34378,-0.04456 -2.578032,-0.01855 -3.562054,0.395623 -0.579309,0.243828 -1.215899,0.443323 -1.414642,0.443323 -0.198744,0 -0.900446,-0.271483 -1.559338,-0.603296 l -1.197987,-0.603296 -0.899475,1.021857 c -1.134467,1.28882 -2.737803,2.498815 -4.432391,3.345007 -1.805428,0.901541 -3.124767,1.329985 -5.703131,1.852045 -2.379793,0.481854 -2.442193,0.499304 -3.615976,1.011219 -1.344294,0.586279 -1.885281,1.128155 -3.431979,3.437621 -0.822033,1.227427 -1.936683,2.785556 -2.476999,3.46251 -0.540317,0.676954 -1.287893,1.863822 -1.66128,2.637484 -0.583911,1.209869 -0.741429,1.814237 -1.125951,4.32007 -0.536859,3.498567 -0.549546,4.457185 -0.09991,7.548604 0.35731,2.45662 0.70306,6.653944 0.706094,8.57182 l 0.0017,1.098951 h -3.264745 c -3.233941,0 -3.263642,-0.0035 -3.147844,-0.368321 z m 3.627986,-19.346868 c 0.598296,-2.121436 1.369785,-3.404984 3.618737,-6.020597 1.354806,-1.57569 2.433152,-3.036516 3.048752,-4.130119 1.290434,-2.292433 1.827418,-2.788807 4.016067,-3.712351 1.388474,-0.585895 2.053438,-0.988312 2.846731,-1.722761 0.569291,-0.527063 1.035074,-1.017478 1.035074,-1.08981 0,-0.07233 -0.605514,-0.177308 -1.345588,-0.23328 -1.220214,-0.09229 -1.396332,-0.06382 -1.890196,0.305527 -1.014802,0.758936 -1.704387,0.995798 -3.639189,1.250007 -2.91588,0.383111 -3.580973,0.84889 -5.294159,3.707609 -0.455375,0.759865 -1.346576,1.975006 -1.980448,2.700314 -0.633871,0.725308 -1.32311,1.674802 -1.531642,2.109987 -0.515033,1.074818 -0.61366,3.006016 -0.251906,4.93251 0.321938,1.714462 0.795422,3.40635 0.918766,3.283006 0.04581,-0.04581 0.247856,-0.666825 0.449001,-1.380042 z m -3.117124,-7.769517 c 0.179043,-0.368662 0.826716,-1.113044 1.439273,-1.654182 1.5265,-1.348523 1.732571,-1.93154 1.726505,-4.884644 -0.0026,-1.2572 -0.07225,-3.255094 -0.154819,-4.439763 L 46.816957,41.177007 H 46.164548 45.51214 l -0.107566,1.011035 c -0.174289,1.638196 -0.780608,3.108237 -2.107325,5.109282 -0.685572,1.034027 -1.426571,2.315233 -1.646664,2.847126 -0.768885,1.858144 -0.436309,4.462756 0.853158,6.681624 l 0.562005,0.967077 0.28242,-1.406658 c 0.155331,-0.773662 0.428909,-1.70829 0.607953,-2.076952 z m -4.58051,-2.93536 c 0.06195,-0.387433 0.357586,-1.317145 0.656961,-2.066028 0.487592,-1.219706 0.534463,-1.49602 0.449753,-2.651384 -0.07566,-1.031848 -0.243533,-1.603246 -0.839478,-2.857273 -0.801678,-1.686945 -1.152488,-2.00076 -0.971523,-0.869068 0.09896,0.618869 0.05982,0.732408 -0.343603,0.996742 -0.28179,0.184636 -0.772938,0.291079 -1.28887,0.279327 l -0.833584,-0.01899 -0.318616,1.743542 c -0.49592,2.713793 -0.264032,3.53262 1.327614,4.687981 0.4262,0.309374 1.012282,0.761941 1.302405,1.005704 0.290123,0.243764 0.576728,0.445605 0.636898,0.448537 0.06017,0.0029 0.16009,-0.311659 0.222043,-0.699092 z m 10.69517,-4.027562 c 0.856531,-1.148969 1.556612,-1.436184 3.932983,-1.613544 1.432426,-0.106909 2.266645,-0.26055 2.851676,-0.525206 0.912389,-0.412744 0.94813,-0.364213 -0.696087,-0.945165 -1.579015,-0.557915 -1.121788,-1.503207 0.727085,-1.503207 0.858982,0 1.111331,-0.07947 1.675105,-0.527497 0.497948,-0.395719 0.846998,-0.527496 1.397228,-0.527496 0.403404,0 0.880988,-0.107875 1.061299,-0.239722 0.313783,-0.229443 0.308611,-0.25232 -0.120651,-0.533583 -0.727638,-0.476766 -1.532997,-0.633353 -3.257475,-0.633353 l -1.625249,0 -0.252256,0.603734 c -0.31911,0.763737 -1.066259,1.154588 -2.207104,1.154588 -0.715473,0 -0.948985,0.07744 -1.192918,0.395623 -0.166817,0.217592 -0.993584,1.06818 -1.837258,1.890196 -0.843674,0.822015 -1.616345,1.717317 -1.717045,1.989559 -0.1007,0.272242 -0.178853,1.023924 -0.173672,1.670406 l 0.0094,1.17542 0.423304,-0.527496 c 0.232817,-0.290123 0.683544,-0.876589 1.001615,-1.303257 z M 34.449749,47.198683 c 0.180886,-0.845875 0.365596,-1.942283 0.410468,-2.436462 l 0.08159,-0.898506 -0.796037,-0.200445 c -0.43782,-0.110244 -1.399197,-0.200444 -2.136392,-0.200444 -0.737195,0 -1.493402,-0.08191 -1.68046,-0.182019 -0.488908,-0.261655 -0.418916,-0.780618 0.139601,-1.035096 0.66543,-0.30319 0.299713,-0.478003 -1.459365,-0.697578 -1.671839,-0.208685 -1.872738,-0.0942 -1.394163,0.794454 0.444607,0.825586 1.454756,1.63107 3.040942,2.424821 1.340213,0.670662 1.528865,0.884341 2.717599,3.07812 0.265918,0.490745 0.542854,0.892004 0.615413,0.891687 0.07256,-3.18e-4 0.279923,-0.692657 0.460809,-1.538532 z m 29.38676,0.656437 c 0.773662,-0.200987 1.762061,-0.539573 2.196442,-0.752414 0.748668,-0.366838 0.833342,-0.487346 1.626448,-2.314773 0.460165,-1.060284 0.836664,-1.959945 0.836664,-1.999246 0,-0.117905 -2.092834,0.07088 -2.22243,0.200474 -0.06591,0.06591 0.01154,0.265028 0.172132,0.442474 0.632719,0.699146 0.331772,0.921018 -1.831706,1.350424 -1.4033,0.278527 -1.530181,0.34005 -1.823132,0.884028 -0.173176,0.321567 -0.800009,1.075049 -1.392963,1.674406 l -1.078099,1.089738 1.054993,-0.104841 c 0.580246,-0.05766 1.687989,-0.269284 2.461651,-0.47027 z M 42.691083,45.583638 c 0.815652,-1.058186 1.316499,-2.203425 1.470141,-3.361635 l 0.117778,-0.887857 -0.507431,0.126048 c -0.279087,0.06933 -0.751305,0.227295 -1.049374,0.35104 -0.298069,0.123746 -0.950846,0.279235 -1.450616,0.345532 -0.49977,0.0663 -0.908672,0.178327 -0.908672,0.248956 0,0.07063 0.269893,0.713213 0.599764,1.427963 0.32987,0.714751 0.655174,1.596264 0.722897,1.958917 0.06772,0.362654 0.173671,0.656001 0.235439,0.651882 0.06177,-0.0041 0.408301,-0.3915 0.770074,-0.860846 z m 26.491712,-0.124952 c 0.744264,-0.548522 2.302415,-2.023045 2.302415,-2.178842 0,-0.09715 -1.570441,-0.520347 -1.930939,-0.520347 -0.116912,0 -1.23404,2.793865 -1.23404,3.086254 0,0.1735 0.26068,0.05652 0.862564,-0.387065 z M 50.166362,43.375734 c 0.604867,-0.549378 1.06148,-1.060806 1.014694,-1.136507 -0.04678,-0.0757 -0.343866,-0.188765 -0.660178,-0.251255 -0.316313,-0.06249 -0.995384,-0.287098 -1.509047,-0.499129 -0.804033,-0.331891 -0.958273,-0.349817 -1.108932,-0.128883 -0.188679,0.276688 -0.10796,3.158942 0.09779,3.491854 0.151214,0.24467 0.631647,-0.08278 2.165672,-1.47608 z M 28.230486,44.75892 c 0,-0.06081 -0.2794,-0.419825 -0.620889,-0.797813 -0.341489,-0.377987 -0.792441,-1.040354 -1.002115,-1.471927 -0.209674,-0.431572 -0.487665,-0.784676 -0.617758,-0.784676 -0.396193,0 -2.584524,0.566867 -2.74525,0.711132 -0.168042,0.150832 1.156303,1.664364 1.7221,1.968108 0.511932,0.274827 3.263912,0.591158 3.263912,0.375176 z"
         id="path29" /><path
         style="fill:#735e40;fill-opacity:1"
         d="m 43.527888,81.642108 c 0,-0.09412 0.116764,-0.632479 0.259476,-1.196359 0.437676,-1.72934 0.828974,-5.492367 0.709979,-6.8277 -0.365747,-4.104293 -0.841435,-8.233901 -1.054687,-9.15609 -0.287093,-1.241505 -1.094079,-2.997781 -2.458287,-5.350067 -0.532813,-0.918723 -1.169474,-2.191438 -1.414802,-2.828254 -0.778852,-2.021728 -2.403879,-3.708373 -5.077835,-5.270378 -1.153064,-0.673568 -2.253336,-1.925777 -2.576535,-2.932329 -0.464552,-1.446773 -1.35271,-1.90963 -4.333653,-2.258453 -3.055953,-0.3576 -4.068485,-0.839855 -5.033579,-2.397424 -0.281514,-0.454337 -0.279374,-0.486129 0.04439,-0.659403 0.288149,-0.154213 0.485634,-0.03658 1.291483,0.769267 0.61142,0.611421 1.196644,1.019433 1.637947,1.141961 0.711776,0.197625 2.884532,0.26793 2.884532,0.09334 0,-0.0546 -0.224182,-0.287905 -0.498183,-0.518462 -0.541023,-0.45524 -1.740639,-2.54725 -1.460663,-2.54725 0.09447,0 0.291964,-0.04613 0.438877,-0.102502 0.183949,-0.07059 0.375237,0.107334 0.614385,0.571455 0.503055,0.976289 1.342424,1.709461 2.932873,2.561806 1.453976,0.779207 1.36841,0.685941 2.983929,3.252437 0.290123,0.460905 0.606621,0.838008 0.703329,0.838008 0.09671,0 0.225206,-0.474747 0.285551,-1.054993 0.06034,-0.580246 0.188028,-1.252805 0.283741,-1.494574 0.09571,-0.241769 0.229217,-0.815422 0.296677,-1.274783 0.123934,-0.843909 0.19883,-0.921614 0.70214,-0.728475 0.351465,0.134869 0.354742,0.771926 0.01158,2.251597 -0.162132,0.6991 -0.220956,1.434427 -0.150164,1.877134 0.140054,0.87585 0.984494,2.027803 1.806808,2.46478 0.32937,0.175027 0.899299,0.559674 1.26651,0.854773 l 0.667654,0.536542 0.106616,-0.661007 c 0.05864,-0.363554 0.268052,-1.096192 0.465365,-1.628085 0.939569,-2.532781 0.923991,-2.453846 0.719678,-3.646616 -0.106039,-0.619048 -0.47588,-1.721633 -0.82187,-2.450189 -0.345989,-0.728556 -0.629072,-1.355997 -0.629072,-1.394313 0,-0.03832 0.236235,-0.06967 0.524966,-0.06967 0.463242,0 0.585518,0.119955 1.039974,1.020228 0.283255,0.561125 0.646069,1.471057 0.806253,2.022071 0.160184,0.551013 0.364917,1.001842 0.454963,1.001842 0.09005,0 0.51881,-0.482357 0.952811,-1.071905 0.787828,-1.070189 1.320167,-2.422024 1.320167,-3.352464 0,-0.38381 0.100983,-0.517578 0.458454,-0.607297 0.625792,-0.157064 0.745753,0.114448 0.563647,1.275724 -0.225002,1.434822 -0.847166,2.818439 -2.141839,4.763189 -0.634228,0.952685 -1.277607,2.030044 -1.429732,2.39413 -0.835265,1.999069 -0.677738,4.141456 0.470676,6.401269 0.405454,0.797839 0.798091,1.450616 0.872527,1.450616 0.07444,0 0.18322,-0.296717 0.241742,-0.659371 0.05852,-0.362654 0.267702,-1.186808 0.464844,-1.831453 0.318071,-1.04008 0.504331,-1.31266 1.653852,-2.420312 1.054457,-1.016051 1.345594,-1.417209 1.565195,-2.156686 0.323264,-1.088548 0.361148,-4.32978 0.07542,-6.452887 -0.240257,-1.785242 -0.09597,-3.007519 0.355037,-3.007519 0.275022,0 0.313229,0.161653 0.301299,1.274784 -0.01563,1.458403 0.175026,2.593525 0.435615,2.593525 0.237607,0 3.146549,-2.455821 3.146549,-2.656417 0,-0.08629 0.245143,-0.156899 0.544763,-0.156899 l 0.544764,0 -0.324973,0.498519 c -0.178736,0.274185 -0.878845,0.995124 -1.555799,1.602085 -1.750565,1.569567 -2.187125,2.547827 -1.887402,4.229356 l 0.141035,0.791245 0.722846,-1.054994 c 0.87016,-1.269995 1.54684,-1.930822 2.254346,-2.20153 0.290123,-0.111007 1.460227,-0.268255 2.600231,-0.349438 1.593602,-0.113486 2.215765,-0.231998 2.691491,-0.512683 0.634529,-0.374381 1.653651,-0.496524 1.653651,-0.198193 0,0.300938 -1.197862,1.088438 -2.042088,1.342513 -0.454915,0.136909 -1.192922,0.248925 -1.640015,0.248925 -1.154842,0 -2.523595,0.393557 -3.34252,0.961072 -0.630679,0.437061 -1.026292,0.968902 -2.854309,3.837186 -0.25955,0.407251 -0.982756,1.307075 -1.607125,1.999609 -1.126741,1.249751 -1.518911,2.044234 -1.779947,3.605936 -0.197531,1.181765 0.778428,6.448901 1.221497,6.592281 0.09671,0.0313 0.310581,-0.501756 0.475274,-1.184558 0.550101,-2.280673 1.283233,-3.559001 3.571283,-6.227071 1.334687,-1.556365 2.515266,-3.152692 3.206646,-4.335888 1.259452,-2.155367 1.742057,-2.621213 3.560478,-3.436842 2.282716,-1.023882 2.524911,-1.17251 3.596934,-2.207347 0.655191,-0.632464 1.198359,-1.011035 1.450616,-1.011035 0.221787,0 0.403249,0.06725 0.403249,0.14945 0,0.292561 -1.014554,1.543389 -1.844164,2.273641 l -0.84283,0.741889 0.80272,0 c 1.041095,0 3.834324,-0.642138 4.974868,-1.143676 l 0.892691,-0.392549 0.865631,-2.0442 c 0.714749,-1.68789 0.930326,-2.044374 1.236796,-2.045203 0.360744,-9.75e-4 0.354277,0.04396 -0.230301,1.600281 -0.330807,0.880706 -0.558608,1.644143 -0.506225,1.696527 0.143212,0.143211 1.305646,-0.710658 2.441687,-1.79355 0.94993,-0.905487 1.528234,-1.112866 1.528234,-0.548021 0,0.266819 -2.150675,2.405444 -2.996429,2.979641 -1.936514,1.314731 -5.133072,2.528524 -7.942752,3.016012 -1.994169,0.345994 -3.248363,0.775859 -4.377261,1.50027 -0.676386,0.434036 -1.154387,0.997823 -2.20502,2.600752 -0.737784,1.125621 -1.883632,2.729289 -2.546329,3.563705 -1.660578,2.090869 -2.365596,3.64455 -2.788428,6.144985 -0.663643,3.924479 -0.72225,5.237867 -0.351574,7.878794 0.360149,2.56593 0.646858,5.935622 0.734792,8.636029 l 0.05439,1.670406 -3.121022,0.05345 c -1.942807,0.03327 -3.121022,-0.01115 -3.121022,-0.117673 z"
         id="path28" /></g></g></svg>
