<?xml version="1.0" encoding="UTF-8" standalone="no"?>
<!-- Created with Inkscape (http://www.inkscape.org/) -->

<svg
   width="100mm"
   height="100mm"
   viewBox="0 0 100 100"
   version="1.1"
   id="svg1"
   inkscape:version="1.4 (86a8ad7, 2024-10-11)"
   sodipodi:docname="tree2.svg"
   xml:space="preserve"
   xmlns:inkscape="http://www.inkscape.org/namespaces/inkscape"
   xmlns:sodipodi="http://sodipodi.sourceforge.net/DTD/sodipodi-0.dtd"
   xmlns="http://www.w3.org/2000/svg"
   xmlns:svg="http://www.w3.org/2000/svg"><sodipodi:namedview
     id="namedview1"
     pagecolor="#ffffff"
     bordercolor="#000000"
     borderopacity="0.25"
     inkscape:showpageshadow="2"
     inkscape:pageopacity="0.0"
     inkscape:pagecheckerboard="true"
     inkscape:deskcolor="#d1d1d1"
     inkscape:document-units="mm"
     inkscape:zoom="1.4378367"
     inkscape:cx="105.36662"
     inkscape:cy="161.00577"
     inkscape:window-width="1920"
     inkscape:window-height="1009"
     inkscape:window-x="1912"
     inkscape:window-y="-8"
     inkscape:window-maximized="1"
     inkscape:current-layer="layer1-6" /><defs
     id="defs1" /><g
     inkscape:label="Warstwa 1"
     inkscape:groupmode="layer"
     id="layer1"><g
       inkscape:label="Warstwa 1"
       id="layer1-6"
       transform="translate(2.7097488,-3.0206858)"><path
         style="fill:#b7a26c;fill-opacity:1"
         d="m 38.257125,82.3 c 0,-0.0599 0.263535,-0.330654 0.585633,-0.601682 0.808338,-0.680171 1.058634,-1.23564 1.719312,-3.815583 0.7245,-2.829168 1.414996,-4.119121 3.368958,-6.293738 2.042456,-2.273104 2.427959,-2.990101 2.427959,-4.515759 0,-1.658548 -0.539618,-2.602794 -2.307734,-4.038171 -1.126581,-0.914572 -1.502952,-1.360469 -1.872471,-2.218367 -0.744709,-1.728964 -0.806575,-1.820419 -2.272525,-3.359461 -1.755982,-1.843535 -3.163963,-2.559025 -5.75105,-2.922495 -2.064183,-0.290005 -2.537751,-0.474235 -4.053036,-1.57673 -2.305526,-1.677459 -4.259805,-2.014147 -7.226839,-1.245055 -0.870822,0.225728 -1.901064,0.410414 -2.289425,0.410414 -1.702113,0 -3.128055,-0.884176 -2.898834,-1.797465 0.122695,-0.488855 0.375478,-0.61874 2.292638,-1.178007 0.610051,-0.177962 1.109184,-0.398857 1.109184,-0.490878 0,-0.09202 -0.302325,-0.354159 -0.671833,-0.582527 -0.369508,-0.228369 -0.957204,-0.748608 -1.305991,-1.156087 -0.42603,-0.49772 -0.858508,-0.782959 -1.317744,-0.869112 -0.596191,-0.111846 -0.789157,-0.04004 -1.509332,0.561649 -0.980841,0.81947 -1.253688,0.842355 -2.451258,0.205601 -0.793473,-0.421894 -1.063374,-0.468661 -2.094839,-0.362985 -1.064217,0.109033 -1.23683,0.07508 -1.70603,-0.335541 C 9.7447586,45.866755 9.4003255,45.276364 9.266461,44.806041 9.0781999,44.1446 8.827526,43.813218 8.1597554,43.343018 7.424415,42.82524 7.2964399,42.637456 7.2964399,42.076235 c 0,-0.647628 0.037929,-0.677799 2.2183669,-1.764601 1.8037232,-0.899035 2.4078592,-1.313679 3.2321612,-2.218367 0.557587,-0.611963 1.066552,-1.27712 1.131035,-1.478127 0.06448,-0.201008 -0.03905,-0.825267 -0.230072,-1.387244 -0.485645,-1.428742 -0.257517,-1.87308 1.197067,-2.331597 1.161788,-0.366221 2.006495,-1.059576 2.678549,-2.198613 0.518032,-0.877992 1.260931,-1.210385 2.907038,-1.300686 1.048061,-0.05749 1.798331,0.04247 3.214526,0.42828 1.981271,0.539758 2.455934,0.50146 3.079739,-0.248483 0.496305,-0.596663 1.256615,-0.710583 2.290867,-0.343249 1.846947,0.655978 2.379487,0.301799 2.181217,-1.450674 l -0.130148,-1.150355 0.827261,-0.842918 c 0.454994,-0.463604 1.269867,-1.043274 1.810831,-1.288154 0.907541,-0.410822 1.25197,-0.445898 4.455797,-0.453775 1.909724,-0.0047 3.615625,-0.07582 3.79089,-0.158056 0.175265,-0.08224 0.673404,-0.570221 1.106975,-1.084411 0.999733,-1.185623 2.19842,-1.642242 4.264954,-1.624657 1.110475,0.0094 1.734731,0.132109 2.685653,0.527704 1.461176,0.607866 2.24226,0.63537 3.680096,0.12959 0.583527,-0.205264 1.535062,-0.376042 2.114523,-0.379506 1.030166,-0.0062 1.075247,0.017 2.029842,1.042721 0.575007,0.61785 1.351088,1.20968 1.888182,1.439905 0.831874,0.356583 0.911906,0.448461 0.911906,1.046885 0,0.365601 0.172121,0.874812 0.388819,1.150299 0.643928,0.818622 1.497364,0.977153 4.519845,0.839586 3.055781,-0.139082 3.401996,-0.05137 4.088348,1.035767 0.736088,1.165915 1.17069,1.463227 2.761157,1.888911 2.661749,0.712411 3.634447,1.635304 3.249208,3.082839 -0.104485,0.392601 -0.404853,0.783753 -0.788314,1.026574 -0.534595,0.338525 -0.835596,0.378611 -2.195996,0.29245 -1.266988,-0.08024 -1.624564,-0.04192 -1.821378,0.19523 -0.638491,0.769335 1.39606,1.903053 3.97579,2.215438 2.785963,0.337358 4.837082,1.320606 5.697034,2.730994 0.829701,1.360776 0.267827,2.048318 -1.384363,1.693987 -1.141075,-0.244717 -1.32192,-0.169713 -1.32192,0.548259 0,0.900767 0.511346,1.175922 2.185331,1.175922 1.632703,0 2.251403,0.336352 2.251403,1.223962 0,0.545967 0.554748,1.090855 1.110594,1.090855 0.469373,0 1.011322,0.477693 1.011322,0.891415 0,0.483908 -0.536154,1.353304 -1.156471,1.875266 -0.658019,0.553687 -1.679264,0.894111 -2.701558,0.900545 -0.371336,0.0023 -1.022378,0.215453 -1.446761,0.473591 -1.958256,1.191142 -2.72295,1.507287 -3.868203,1.599217 -1.379879,0.110763 -2.944812,-0.282673 -4.016123,-1.009684 -0.955532,-0.648442 -1.379846,-0.61412 -2.262141,0.182981 -1.152844,1.041526 -2.874122,1.807856 -5.032605,2.240565 -2.986825,0.598767 -3.773343,1.101558 -5.26687,3.366906 -1.219008,1.848964 -2.187902,2.765802 -3.763192,3.561006 -0.642852,0.324511 -1.508405,0.896812 -1.923451,1.271781 -1.214225,1.096979 -1.369458,1.770632 -1.310478,5.686976 l 0.05105,3.39008 -1.429405,2.81319 c -1.346149,2.649334 -1.434518,2.901488 -1.517162,4.32913 -0.07488,1.293551 -0.02285,1.654017 0.354669,2.45716 0.448401,0.953934 1.346219,1.985028 2.398997,2.755115 l 0.578704,0.423311 -6.896227,0.01072 c -3.792925,0.0059 -6.896228,-0.03829 -6.896228,-0.09819 z m 12.23337,-22.278279 c 0.661674,-0.999858 1.738288,-1.766827 3.910356,-2.785702 1.623546,-0.761573 1.84248,-0.931936 2.60417,-2.026428 1.366485,-1.963537 2.581969,-3.194096 3.386297,-3.428297 0.398547,-0.116047 1.521506,-0.345914 2.495465,-0.510817 2.05425,-0.347807 3.755388,-0.930296 4.636752,-1.587674 0.517344,-0.38587 0.592134,-0.534197 0.449721,-0.891924 -0.09395,-0.235997 -0.216113,-0.574619 -0.271473,-0.752495 -0.09247,-0.297106 -0.183959,-0.291306 -1.124877,0.07132 -0.756736,0.291641 -1.732021,0.431902 -3.734418,0.537066 -1.490606,0.07829 -2.898418,0.243071 -3.128469,0.36619 -0.230052,0.12312 -0.726796,0.627911 -1.103876,1.121758 -1.078652,1.412667 -2.146701,1.999973 -5.190335,2.854094 -5.381548,1.5102 -7.485059,5.381118 -4.585625,8.43855 l 0.682669,0.71987 0.234039,-0.680774 c 0.128721,-0.374425 0.461543,-1.024555 0.739604,-1.444734 z m -5.681888,-5.668382 c 0.332103,-0.537354 0.825644,-0.875656 2.288972,-1.568994 3.447385,-1.633403 3.569504,-1.712053 4.325071,-2.785536 0.906217,-1.287518 0.950058,-2.063819 0.172588,-3.056016 -1.418513,-1.810289 -1.356827,-2.809294 0.309425,-5.011114 l 0.433786,-0.573215 -0.578463,-0.201654 c -0.474903,-0.165552 -0.578462,-0.308701 -0.578462,-0.799603 0,-0.393862 0.168653,-0.754253 0.494134,-1.055898 l 0.494135,-0.457949 -0.84866,-0.497348 c -0.466763,-0.273541 -1.036346,-0.497348 -1.265741,-0.497348 -0.376841,0 -0.41708,0.102138 -0.41708,1.058652 0,1.240702 -0.958315,4.423257 -1.563626,5.192785 -0.222076,0.282324 -1.024479,0.972602 -1.783117,1.533951 -1.953863,1.445746 -3.101183,2.656511 -3.729196,3.935416 -0.458723,0.934158 -0.543669,1.348264 -0.543669,2.650356 0,1.717805 0.347591,2.66134 1.489956,4.044485 l 0.63196,0.765159 0.122296,-0.995531 c 0.06726,-0.547542 0.312824,-1.303811 0.545691,-1.680598 z m -6.165679,-0.940637 c 0,-0.357377 -0.237503,-0.56004 -1.186837,-1.012733 -0.929361,-0.443169 -1.412403,-0.848426 -2.226583,-1.868033 -0.57186,-0.716146 -1.177713,-1.302085 -1.346338,-1.302085 -0.7137,0 -1.576471,-0.806372 -2.265302,-2.117221 -0.927795,-1.765596 -1.562353,-2.492902 -2.560054,-2.934233 -0.80917,-0.357934 -0.831641,-0.357589 -1.580108,0.02425 -1.262435,0.644046 -2.177587,0.697455 -3.496863,0.204079 -1.570807,-0.587443 -2.45065,-0.460355 -3.557436,0.513852 -0.462761,0.407328 -0.84956,0.840111 -0.859554,0.96174 -0.02841,0.345788 1.224156,1.352961 2.001771,1.609597 0.646198,0.213264 0.763796,0.189594 1.46202,-0.294275 0.736013,-0.510057 0.819971,-0.523104 2.737824,-0.425449 2.388489,0.12162 3.095917,0.358746 3.625203,1.215148 0.229046,0.370604 0.834538,0.883971 1.401865,1.188572 0.54927,0.294907 1.026548,0.682767 1.060617,0.861911 0.06302,0.331354 -0.469108,0.989378 -0.950396,1.175258 -0.191025,0.07378 -0.103317,0.243363 0.313465,0.606095 0.999848,0.870183 1.583767,1.079582 3.526701,1.264706 1.03892,0.09899 2.232927,0.303878 2.653349,0.455308 1.088872,0.392196 1.246656,0.376187 1.246656,-0.126487 z m 16.264056,-3.332329 c 0.661467,-0.225385 1.323783,-0.729031 2.493857,-1.89641 1.361185,-1.35805 1.782807,-1.657225 2.895277,-2.054431 0.716147,-0.255699 1.302085,-0.510311 1.302085,-0.565804 0,-0.05549 -0.367595,-0.260149 -0.816877,-0.454793 -0.76779,-0.332631 -0.883533,-0.335365 -1.926103,-0.04551 -0.610073,0.169615 -1.392654,0.308067 -1.739067,0.307671 -0.83725,-9.59e-4 -1.802078,-0.612312 -1.960123,-1.242012 -0.155561,-0.619805 0.166971,-1.904408 0.56006,-2.230643 0.508361,-0.421902 0.311951,-0.577625 -0.724765,-0.574624 -0.996339,0.0029 -1.024842,0.01928 -1.760768,1.012733 -1.497342,2.02132 -1.516996,2.563004 -0.141189,3.891308 1.116322,1.07778 1.292311,1.73465 0.799633,2.984585 -0.215965,0.547906 -0.392663,1.036383 -0.392663,1.085503 0,0.16799 0.509861,0.08935 1.410643,-0.217578 z M 39.297605,47.651995 c 0.382394,-2.066433 0.39379,-3.249024 0.03603,-3.73829 -0.26966,-0.368777 -0.280615,-0.368154 -0.723381,0.04109 -0.570162,0.526997 -1.574469,0.793431 -2.59966,0.689669 l -0.799776,-0.08095 -0.129791,0.76823 c -0.276292,1.635357 0.721051,3.19484 2.7903,4.363022 l 0.868057,0.490056 0.124198,-0.429262 c 0.06831,-0.236094 0.263621,-1.1827 0.434028,-2.103569 z m 24.991724,-0.367143 c 0.535701,-0.114887 0.974002,-0.248611 0.974002,-0.297163 0,-0.292911 -0.900272,-1.230064 -1.181656,-1.230064 -0.362186,0 -2.463885,1.350793 -2.476118,1.591437 -0.01085,0.213456 1.564845,0.175757 2.683772,-0.06421 z M 43.753518,44.431308 c 0.311493,-0.566394 0.38475,-1.065431 0.385802,-2.628163 7.15e-4,-1.060959 -0.06827,-2.178918 -0.153291,-2.484355 -0.146631,-0.526744 -0.196986,-0.549529 -0.977917,-0.442491 -0.45283,0.06207 -1.065637,0.204976 -1.361795,0.317575 -0.507383,0.192907 -0.531162,0.253437 -0.411926,1.048559 0.107865,0.719296 0.05794,0.923586 -0.338268,1.384207 l -0.464809,0.540372 0.454233,0.975475 c 0.361864,0.777111 0.454616,1.302258 0.456117,2.582458 l 0.0019,1.606982 1.012733,-1.100735 c 0.557003,-0.605405 1.185759,-1.415353 1.397236,-1.799884 z m -10.257234,1.663894 c 0.05694,-0.238715 0.160905,-0.83233 0.231043,-1.319144 l 0.127523,-0.885115 -0.969272,-0.416969 c -0.533099,-0.229334 -1.250429,-0.41697 -1.594066,-0.41697 h -0.624795 l 0.395263,0.434028 c 0.217395,0.238716 0.761141,1.019967 1.208326,1.736114 0.447185,0.716146 0.882678,1.302085 0.967761,1.302085 0.08508,0 0.201281,-0.195313 0.258217,-0.434029 z m 13.032014,-2.944351 c 0.327294,-0.372767 0.717277,-0.915303 0.866628,-1.205634 0.422583,-0.821482 1.085977,-3.110055 1.085977,-3.746396 0,-0.638123 0.185394,-0.629092 -2.283796,-0.111257 -1.017682,0.213426 -1.028426,0.223044 -0.903055,0.808379 0.323018,1.508119 0.448655,2.904738 0.348554,3.874627 -0.129525,1.254977 0.05002,1.332064 0.885692,0.380281 z"
         id="path30" /><path
         style="fill:#735e40;fill-opacity:1"
         d="m 38.775045,81.873237 c 0.822452,-0.703201 1.318139,-1.736798 1.778342,-3.708165 0.742455,-3.180446 1.447727,-4.483312 3.794617,-7.009886 1.684365,-1.813324 2.076512,-2.568035 2.070859,-3.985498 -0.0073,-1.822731 -0.686812,-2.951452 -2.646165,-4.395284 -0.768205,-0.566085 -1.082791,-0.990224 -1.669053,-2.250295 -0.860684,-1.849894 -2.905478,-4.179192 -4.367078,-4.974695 -1.058047,-0.575861 -2.900961,-1.111223 -3.825241,-1.111223 -1.032851,0 -2.475245,-0.539409 -3.57015,-1.335121 -1.986505,-1.443672 -1.886088,-1.355896 -1.420854,-1.242006 0.222596,0.05449 0.701659,-0.02499 1.064583,-0.176632 0.638547,-0.266802 0.687048,-0.254838 1.501467,0.370373 0.962465,0.738863 1.648786,0.948508 3.68433,1.125422 0.795718,0.06916 1.902491,0.280348 2.459494,0.469309 l 1.012732,0.343567 v -0.53891 c 0,-0.457288 -0.153388,-0.615516 -1.012732,-1.04469 -1.118446,-0.558573 -2.009508,-1.34118 -2.75987,-2.423953 -0.30303,-0.437272 -0.701932,-0.753614 -1.034058,-0.820039 -0.84143,-0.168286 -1.636202,-0.963936 -2.38721,-2.389851 -0.733664,-1.392981 -1.666737,-2.428854 -2.445994,-2.715476 -0.458576,-0.168671 -0.441034,-0.191393 0.453092,-0.586908 1.179932,-0.52194 1.425554,-0.376737 2.63476,1.557571 1.001558,1.602143 1.536574,1.903729 1.536574,0.866158 0,-0.363283 0.09199,-0.924388 0.204416,-1.246901 0.190883,-0.547569 0.240797,-0.572655 0.75399,-0.378947 0.527829,0.199234 0.5455,0.246911 0.446617,1.204996 -0.144863,1.403588 0.18457,2.221043 1.254292,3.112403 1.243285,1.035982 2.355013,1.689182 2.528427,1.485586 0.07923,-0.09302 0.334464,-1.254206 0.567178,-2.580404 0.329611,-1.878399 0.379327,-2.565994 0.224969,-3.111411 -0.182279,-0.644074 -0.151518,-0.750058 0.38412,-1.323461 l 0.582267,-0.623319 0.336666,0.744757 c 0.243313,0.538245 0.336666,1.245742 0.336666,2.551495 v 1.806738 l 1.128981,-1.227673 c 0.62094,-0.67522 1.267114,-1.488252 1.435942,-1.806738 0.384045,-0.724482 0.550328,-3.952602 0.258115,-5.010909 -0.114626,-0.415142 -0.182733,-0.780481 -0.151348,-0.811865 0.03138,-0.03139 0.319235,-0.109498 0.639668,-0.173584 0.576486,-0.115297 0.584951,-0.104848 0.805766,0.99467 0.122737,0.611156 0.223159,1.834562 0.223159,2.718682 0,0.884119 0.07943,1.60749 0.176508,1.60749 0.09708,0 0.531238,-0.402996 0.964798,-0.895547 0.847395,-0.962691 1.752216,-3.34432 1.752216,-4.612103 0,-0.617293 0.04368,-0.665197 0.606548,-0.665197 h 0.606547 l -0.106777,1.411832 c -0.10632,1.4058 -0.892636,4.059849 -1.459821,4.927329 -0.16386,0.250617 -1.104723,1.059422 -2.090806,1.797346 -2.04355,1.529266 -2.732232,2.287957 -3.542324,3.90242 -1.063025,2.118543 -0.688239,4.656603 0.965805,6.540455 0.343233,0.390921 0.701874,0.710765 0.796979,0.710765 0.09511,0 0.172918,-0.492311 0.172918,-1.094024 0,-1.036865 0.04324,-1.135454 0.827541,-1.886949 0.570159,-0.546308 1.500892,-1.083969 2.992512,-1.728698 2.326147,-1.00544 2.995536,-1.562171 3.753089,-3.121443 0.394263,-0.811511 0.397293,-0.867932 0.07914,-1.473566 -0.181949,-0.34636 -0.548352,-0.928409 -0.814229,-1.293442 -0.952737,-1.30805 -0.867001,-2.264713 0.35085,-3.914881 0.744641,-1.008977 0.88133,-1.1066 1.553033,-1.109183 l 0.736527,-0.0028 -0.977654,1.387654 c -0.53771,0.763209 -0.977654,1.576157 -0.977654,1.806549 0,0.43734 0.42516,1.067758 1.488448,2.207038 0.497333,0.532876 0.629033,0.83776 0.624959,1.446761 -0.0028,0.424383 -0.129219,0.98862 -0.280844,1.25386 -0.151624,0.265239 -0.278757,0.627166 -0.282516,0.804282 -0.0059,0.279228 0.08931,0.295586 0.716545,0.123076 1.304359,-0.358738 2.081325,-0.87986 3.183418,-2.13516 1.348548,-1.536018 2.871224,-2.304314 4.773767,-2.408701 l 1.25386,-0.0688 -0.499413,0.444113 c -0.274676,0.244263 -0.752108,0.634604 -1.060958,0.867425 l -0.561545,0.423312 1.157408,0.006 c 0.636575,0.0033 1.535997,-0.08129 1.998716,-0.187982 0.56546,-0.13038 0.918278,-0.130102 1.076064,8.49e-4 0.129117,0.107157 0.575183,0.269481 0.991258,0.360719 l 0.756499,0.165888 -1.060958,0.334624 c -0.646516,0.203911 -2.102987,0.388516 -3.728521,0.472585 l -2.667563,0.13796 -1.286917,1.380849 c -1.376537,1.47701 -2.292512,1.996577 -4.662693,2.644813 -1.754145,0.479752 -3.576735,1.337772 -4.569254,2.151068 -1.634692,1.339507 -2.222708,3.463935 -1.436281,5.189106 0.356781,0.782665 1.302118,2.025465 1.540671,2.025465 0.07176,0 0.279086,-0.41842 0.46072,-0.929822 0.375685,-1.057766 1.82547,-2.660096 2.852622,-3.152774 0.368098,-0.176559 1.190102,-0.550391 1.826677,-0.830737 1.383637,-0.60935 2.042003,-1.193149 2.943172,-2.609824 0.906202,-1.424587 1.921198,-2.460492 2.638956,-2.693317 0.324895,-0.10539 1.533155,-0.372083 2.68502,-0.592653 2.192755,-0.419889 3.622066,-0.899885 4.750409,-1.595298 0.564313,-0.347794 1.459221,-0.465886 1.709596,-0.225597 0.03665,0.03518 -0.223765,0.330746 -0.578705,0.656823 -1.021615,0.938538 -2.797689,1.719378 -4.696276,2.064688 -2.930884,0.533061 -4.283351,1.410308 -5.572334,3.614369 -0.90325,1.544488 -1.710514,2.303395 -3.495486,3.286101 -1.638674,0.902162 -2.907596,2.081887 -3.203419,2.978239 -0.149898,0.454194 -0.179771,1.594034 -0.09381,3.579213 0.145107,3.350928 -0.01695,4.243599 -1.096012,6.037273 -1.32604,2.204215 -1.733436,3.321585 -1.831301,5.022736 -0.08234,1.431365 -0.04072,1.692139 0.420651,2.635139 0.481273,0.983688 1.327134,1.909952 2.431295,2.6624 0.456201,0.310886 0.129043,0.327709 -6.463932,0.332389 l -6.944452,0.0049 z"
         id="path31"
         sodipodi:nodetypes="ssscsssssssssscssssssssssssssssscsscssssssssssscsssssssssssssccssscscssscsscsssscsscsssssssssssssssssssssssccs" /><path
         d="m 21.128897,48.6292 c -1.986505,-1.443672 -1.930218,-1.715624 -2.720401,-2.34219 0.222596,0.05449 0.750453,-0.212035 1.113377,-0.363677 0.622284,0.934763 1.661351,1.47037 2.74647,1.743859"
         style="fill:#735e40;fill-opacity:1"
         id="path1"
         sodipodi:nodetypes="cccc" /></g></g></svg>
