<?xml version="1.0" encoding="UTF-8" standalone="no"?>
<!-- Created with Inkscape (http://www.inkscape.org/) -->

<svg
   width="100mm"
   height="100mm"
   viewBox="0 0 100 100"
   version="1.1"
   id="svg1"
   inkscape:version="1.4 (86a8ad7, 2024-10-11)"
   sodipodi:docname="tree4.svg"
   xml:space="preserve"
   xmlns:inkscape="http://www.inkscape.org/namespaces/inkscape"
   xmlns:sodipodi="http://sodipodi.sourceforge.net/DTD/sodipodi-0.dtd"
   xmlns="http://www.w3.org/2000/svg"
   xmlns:svg="http://www.w3.org/2000/svg"><sodipodi:namedview
     id="namedview1"
     pagecolor="#ffffff"
     bordercolor="#000000"
     borderopacity="0.25"
     inkscape:showpageshadow="2"
     inkscape:pageopacity="0.0"
     inkscape:pagecheckerboard="true"
     inkscape:deskcolor="#d1d1d1"
     inkscape:document-units="mm"
     inkscape:zoom="1.4378367"
     inkscape:cx="183.26142"
     inkscape:cy="131.09973"
     inkscape:window-width="1920"
     inkscape:window-height="1009"
     inkscape:window-x="1912"
     inkscape:window-y="-8"
     inkscape:window-maximized="1"
     inkscape:current-layer="layer1-6" /><defs
     id="defs1" /><g
     inkscape:label="Warstwa 1"
     inkscape:groupmode="layer"
     id="layer1"><g
       inkscape:label="Warstwa 1"
       id="layer1-6"
       transform="translate(2.7097488,-3.0206858)"><path
         style="fill:#735e40;fill-opacity:1"
         d="m 37.748471,82.032191 c 0.12196,-0.227883 0.487581,-0.571366 0.812493,-0.763296 0.324912,-0.19193 0.590748,-0.431742 0.590748,-0.532916 0,-0.264219 -3.183254,0.01357 -4.195213,0.366095 -0.461029,0.160605 -1.23795,0.291327 -1.726491,0.290493 l -0.888256,-0.0015 0.493476,-0.396287 c 1.083299,-0.869947 2.162534,-1.376715 3.950218,-1.854871 2.877858,-0.769749 3.349767,-1.259209 3.911942,-4.057431 0.457824,-2.278818 1.308032,-4.086995 2.599883,-5.529291 l 0.969494,-1.082398 0.0085,0.727363 c 0.0047,0.400049 -0.08276,0.967528 -0.194367,1.261064 -0.111602,0.293536 -0.163211,0.573403 -0.114687,0.621926 0.163667,0.163667 0.503733,-0.683548 0.979872,-2.441179 0.260486,-0.961563 0.662165,-2.256824 0.89262,-2.878358 0.49841,-1.344204 0.600596,-3.666019 0.134272,-3.050856 -0.262852,0.346748 -0.276142,0.34658 -0.3877,-0.0049 -0.06354,-0.200181 -0.707225,-0.983535 -1.430423,-1.740787 -0.923841,-0.967342 -1.515516,-1.815301 -1.98943,-2.851149 -0.370988,-0.81088 -1.031158,-1.86123 -1.467044,-2.33411 -0.954825,-1.035863 -1.697071,-2.586765 -1.869271,-3.905787 -0.155534,-1.191359 -0.235468,-1.296065 -1.560153,-2.043672 -0.672634,-0.379611 -1.35076,-0.990979 -1.852438,-1.670076 -0.536004,-0.725561 -1.013306,-1.144494 -1.4791,-1.29822 -0.881023,-0.290764 -1.719839,-1.252994 -2.578267,-2.957605 -1.002534,-1.990767 -1.369223,-2.188585 -4.406623,-2.377244 -3.35011,-0.208082 -4.334318,-0.673692 -5.666503,-2.680714 -0.389103,-0.586208 -0.890804,-1.163956 -1.114891,-1.283884 -0.486074,-0.260139 -1.3869,-0.168328 -3.138652,0.319888 -1.290513,0.359668 -1.297245,0.359442 -2.171291,-0.07296 -0.482221,-0.238562 -1.27648,-0.795346 -1.765021,-1.2373 l -0.888255,-0.803551 0.888255,0.498904 c 2.526323,1.418955 2.421432,1.38026 3.15621,1.164369 0.381094,-0.111972 1.201426,-0.391116 1.82296,-0.62032 0.621534,-0.229205 1.500134,-0.416735 1.952444,-0.416735 0.702662,0 0.911714,0.104897 1.43601,0.720555 2.088054,2.451907 3.053296,3.029858 5.060206,3.029858 h 0.817434 l -0.619085,-0.781659 c -0.340497,-0.429912 -0.897354,-1.464885 -1.23746,-2.29994 -0.914609,-2.245616 -1.635776,-2.853245 -3.95029,-3.328368 -0.298553,-0.06129 -0.542823,-0.191506 -0.542823,-0.289376 0,-0.30119 1.074562,-0.433358 1.940841,-0.238718 0.723282,0.162511 0.822621,0.142942 0.822621,-0.162051 0,-0.640636 -0.957098,-1.353783 -2.138252,-1.593241 -0.971508,-0.196956 -1.255979,-0.370524 -2.162244,-1.319283 -0.573957,-0.60087 -0.996865,-1.139184 -0.939795,-1.196253 0.05707,-0.05707 0.587973,0.354182 1.179785,0.913894 0.904146,0.855104 1.196146,1.018349 1.828051,1.021992 0.413616,0.0024 1.125272,0.173783 1.581458,0.380886 0.702009,0.318703 0.937418,0.590987 1.532366,1.772394 0.386614,0.767715 1.01002,1.875896 1.385347,2.462625 0.375326,0.58673 0.82748,1.429344 1.004786,1.872476 0.408679,1.02139 1.349762,1.848816 2.906515,2.555487 1.361349,0.617969 2.247222,1.505829 3.015819,3.022581 l 0.507934,1.00236 0.574703,-1.651165 C 34.86094,39.907611 34.823792,39.607267 33.526658,38.206208 32.698159,37.31133 32.239406,36.983284 31.586596,36.818904 30.383468,36.515953 29.700118,35.905146 29.140671,34.632635 28.874707,34.027677 28.464653,33.321553 28.22944,33.06347 l -0.427661,-0.469242 0.640493,0.325738 c 0.408986,0.208 0.816865,0.673793 1.128451,1.288678 0.583663,1.151804 1.335897,1.791445 2.106784,1.791445 0.53308,0 0.565799,-0.04817 0.569885,-0.838908 0.0024,-0.4614 0.180036,-1.226117 0.394781,-1.699372 0.214745,-0.473255 0.390286,-0.917383 0.390092,-0.986951 -1.94e-4,-0.06957 -0.387017,-0.370757 -0.859606,-0.66931 -0.679778,-0.429441 -1.096076,-0.542823 -1.993065,-0.542823 -1.358638,0 -2.325398,-0.416351 -2.921106,-1.258024 l -0.436821,-0.617183 0.876892,0.690866 c 0.834102,0.657153 0.954337,0.691266 2.463958,0.699078 1.131322,0.0059 1.776551,0.109229 2.246927,0.359988 0.362923,0.193476 0.704872,0.306764 0.759885,0.251751 0.207416,-0.207416 -0.382096,-1.517307 -0.847677,-1.883532 -0.266748,-0.209825 -0.834929,-0.44062 -1.262624,-0.512878 -0.540537,-0.09132 -0.96004,-0.339136 -1.37592,-0.812798 -0.581448,-0.662232 -0.800163,-1.457242 -0.400903,-1.457242 0.108565,0 0.19739,0.08201 0.19739,0.182245 0,0.100235 0.220113,0.443836 0.489141,0.763556 0.380446,0.452135 0.716217,0.611433 1.511022,0.716868 1.276869,0.169383 2.201151,1.007944 2.531871,2.297057 0.123651,0.481984 0.260675,0.983754 0.304496,1.115046 0.04382,0.131292 0.550183,0.474324 1.125248,0.762293 0.575065,0.287969 1.343886,0.747574 1.708492,1.021345 0.744592,0.55909 0.911778,0.456817 1.133272,-0.693257 0.177025,-0.919171 -0.238376,-1.750358 -1.20827,-2.417663 -0.460078,-0.316542 -0.902188,-0.734062 -0.982465,-0.927822 -0.220814,-0.532961 -0.299312,-2.747738 -0.08541,-2.409767 0.0978,0.154531 0.179679,0.414203 0.181947,0.57705 0.01314,0.943175 0.446772,1.774491 1.142742,2.190725 0.403912,0.241565 0.929724,0.613729 1.16847,0.827031 0.238746,0.213302 0.560301,0.339388 0.714565,0.280191 0.483401,-0.185498 1.318728,-2.119749 1.318728,-3.053595 0,-1.029553 -0.200727,-1.450779 -1.227287,-2.575469 -0.864953,-0.947636 -1.527505,-2.248192 -1.527505,-2.998418 0,-0.407971 0.06561,-0.348934 0.378687,0.340728 0.208279,0.458811 0.961345,1.454583 1.673481,2.212826 0.712137,0.758243 1.294794,1.510135 1.294794,1.670872 0,0.160737 0.09039,0.348113 0.200864,0.41639 0.230135,0.142232 0.972634,-1.372585 0.979142,-1.997605 0.0024,-0.228986 0.373358,-0.835571 0.824387,-1.347967 0.453494,-0.515196 1.022406,-1.476115 1.272751,-2.149734 0.386231,-1.039255 0.454209,-1.127558 0.462984,-0.601406 0.01401,0.840288 -0.453397,2.096351 -1.151337,3.09397 -0.319103,0.456117 -0.729203,1.362257 -0.911335,2.013645 -0.182131,0.651387 -0.491706,1.49523 -0.687944,1.875206 -0.196237,0.379976 -0.921078,1.890011 -1.610757,3.355633 -1.233004,2.620231 -1.253961,2.692809 -1.253961,4.342584 0,1.773751 -0.05629,1.602717 1.494072,4.539974 0.612257,1.15996 0.677219,1.438556 0.677219,2.904296 v 1.62126 l 0.844435,-0.828875 c 2.177393,-2.137267 2.387689,-4.581798 0.801218,-9.313528 -0.437202,-1.303974 -0.509938,-3.206788 -0.149117,-3.900912 0.128784,-0.247745 0.747575,-0.989966 1.375091,-1.64938 1.213416,-1.275096 1.692515,-2.388004 1.447785,-3.363085 -0.09388,-0.374057 -0.06646,-0.489124 0.09308,-0.390526 0.335894,0.207594 0.275554,2.211902 -0.08774,2.914434 -0.172655,0.333878 -0.696984,1.077353 -1.165176,1.652167 -0.468192,0.574814 -0.910962,1.316945 -0.983933,1.64918 -0.141701,0.645161 0.219173,2.783264 0.469766,2.783264 0.08252,0 0.269705,-0.223595 0.415961,-0.496877 0.340915,-0.637006 1.332347,-1.390972 2.518193,-1.915041 1.145732,-0.506341 1.308731,-0.720339 1.727752,-2.26833 0.182531,-0.674321 0.472818,-1.340539 0.645083,-1.480486 0.271408,-0.220487 0.29276,-0.201758 0.159981,0.140333 -0.08428,0.21713 -0.234778,0.956963 -0.33445,1.644075 -0.09967,0.687112 -0.270909,1.416879 -0.380528,1.621704 -0.109619,0.204825 -0.803675,0.725379 -1.542347,1.156787 -1.727788,1.009082 -2.132751,1.773457 -1.915929,3.616351 0.08014,0.681132 0.203699,2.120004 0.274582,3.197493 l 0.128878,1.959071 0.64194,-0.732731 c 0.750878,-0.857077 1.10867,-1.649481 1.66112,-3.678887 0.524899,-1.928201 0.891965,-2.498748 2.322106,-3.609353 2.231295,-1.732757 2.535156,-3.458956 1.097795,-6.236462 -0.981636,-1.896878 -1.00662,-2.875719 -0.113256,-4.437157 0.766545,-1.339781 0.981813,-1.36018 0.415656,-0.03939 -0.527205,1.229917 -0.515641,2.515068 0.03139,3.488373 0.237121,0.421898 0.494908,0.767088 0.572861,0.767088 0.07795,0 0.239648,-0.28088 0.359323,-0.624179 0.119674,-0.343298 0.272806,-0.568962 0.340292,-0.501476 0.06749,0.06749 0.137951,1.011403 0.15659,2.097593 0.01864,1.08619 0.08353,2.024538 0.144213,2.085217 0.06068,0.06068 0.50056,-0.112747 0.977514,-0.385391 0.476953,-0.272644 1.012792,-0.496786 1.190752,-0.498094 0.638109,-0.0047 1.220212,-0.687493 1.194485,-1.401126 -0.03872,-1.07418 0.298608,-1.817227 1.247993,-2.748978 1.051184,-1.031659 1.176001,-0.777097 0.19481,0.397313 -0.618217,0.739957 -0.690866,0.949489 -0.690866,1.992577 0,1.319633 0.230944,1.476923 0.986951,0.67219 0.533314,-0.567687 0.78956,-0.626821 0.78956,-0.182206 0,0.625485 -1.082872,1.39903 -2.723211,1.945313 -1.878903,0.625732 -2.558491,1.127195 -3.299823,2.434915 -0.29125,0.513768 -1.228828,1.600315 -2.083507,2.414549 l -1.553962,1.480426 -0.307776,1.860042 c -0.313876,1.896906 -0.833327,3.352639 -1.438541,4.031432 -0.185841,0.208435 -0.826434,0.734511 -1.423539,1.169059 -1.766842,1.28583 -2.954257,2.53514 -3.607865,3.795927 -0.525289,1.013264 -0.614561,1.398187 -0.618019,2.664767 -0.0043,1.582983 0.204867,2.151859 1.778324,4.836059 0.693046,1.182285 0.693987,1.182971 0.542089,0.394781 -0.478391,-2.482341 0.521776,-4.204329 2.862873,-4.929013 l 0.463926,-0.143608 -0.513274,0.875836 c -0.282301,0.48171 -0.514894,0.912445 -0.516874,0.957189 -0.002,0.04474 0.96385,-0.851316 2.146289,-1.991244 3.043822,-2.934391 3.30738,-3.602965 2.107784,-5.34687 -1.382941,-2.010442 -1.129888,-2.942395 1.572537,-5.791411 1.208492,-1.274047 2.06052,-2.396214 2.664766,-3.509643 1.120044,-2.063875 1.82418,-2.481271 4.584851,-2.7178 1.871274,-0.160327 2.895355,-0.471498 3.895499,-1.183664 0.667869,-0.475564 0.796987,-0.494038 0.796987,-0.114029 0,0.354794 -1.058417,1.178137 -2.043754,1.589837 -0.406707,0.169934 -1.455665,0.398773 -2.331017,0.508533 -2.438687,0.305786 -2.888865,0.591602 -3.780503,2.400228 -0.41423,0.840235 -0.697671,1.617459 -0.629869,1.727164 0.181943,0.29439 1.135366,0.242268 1.60665,-0.08783 0.225595,-0.158013 0.725017,-0.602141 1.109827,-0.986951 0.56877,-0.56877 0.841819,-0.696845 1.459606,-0.684637 l 0.759953,0.01502 -0.651368,0.236033 c -0.358252,0.129818 -1.074837,0.716343 -1.592411,1.303389 -0.918489,1.041774 -0.972504,1.070613 -2.253629,1.203214 -1.09594,0.113434 -1.435834,0.243063 -2.059307,0.785383 -1.057099,0.919504 -2.227147,2.520455 -2.227147,3.047358 0,0.245671 0.444128,1.048323 0.986951,1.783671 1.072579,1.452995 1.180732,1.955381 0.679302,3.155472 -0.169207,0.404968 -0.266657,0.777298 -0.216556,0.827399 0.0501,0.0501 0.538646,-0.101441 1.085657,-0.336758 0.701712,-0.301869 1.351823,-0.82983 2.207861,-1.793027 1.026265,-1.154732 1.476857,-1.487451 2.923056,-2.158399 2.922926,-1.356057 3.472278,-1.685648 3.9304,-2.358098 0.528029,-0.775061 0.567393,-1.703375 0.112666,-2.656948 -0.446467,-0.936251 -0.159527,-1.140046 0.525576,-0.373283 l 0.556267,0.622571 0.419815,-1.151383 c 0.284797,-0.781081 0.719612,-1.446862 1.351974,-2.070117 0.917605,-0.904391 0.931889,-0.937739 0.914932,-2.136091 -0.0095,-0.669547 -0.08815,-1.769427 -0.174835,-2.444178 -0.159445,-1.241109 0.100859,-2.424898 0.533212,-2.424898 0.111516,0 0.129785,0.147442 0.0428,0.345432 -0.32504,0.739852 -0.317383,1.783342 0.01784,2.431598 l 0.339689,0.656887 0.517513,-0.600117 c 0.284632,-0.330064 0.675731,-0.892662 0.869109,-1.250218 0.193378,-0.357556 0.394312,-0.607385 0.446522,-0.555176 0.143226,0.143226 -0.609879,1.741677 -1.187856,2.521202 -0.372501,0.502398 -0.478177,0.831013 -0.392572,1.220768 0.189153,0.86121 -0.220226,1.906431 -1.069494,2.730618 -0.730783,0.709201 -1.411722,2.230333 -1.12622,2.515834 0.22145,0.22145 2.391118,-0.557037 3.801499,-1.363995 2.413667,-1.380995 4.006492,-3.351068 4.011483,-4.96157 0.0013,-0.413506 0.50699,-1.465966 0.943752,-1.964099 0.494421,-0.563893 0.683129,-0.392557 0.23509,0.213447 -0.22821,0.308671 -0.481349,1.061088 -0.565423,1.680635 l -0.152226,1.121754 0.707557,-0.125612 c 0.389156,-0.06909 0.75197,-0.125286 0.806252,-0.124888 0.888189,0.0065 0.757069,0.325644 -0.299595,0.729188 -0.625448,0.238861 -1.388002,0.851094 -2.553417,2.050067 -1.915657,1.970816 -3.1815,2.800945 -5.587732,3.664387 -1.711075,0.613994 -1.720258,0.620965 -2.628707,1.995396 -0.609863,0.922686 -1.313562,1.671701 -2.125832,2.262729 -0.667809,0.485914 -1.214198,0.964992 -1.214198,1.06462 0,0.106416 0.731407,0.125926 1.773033,0.04729 1.365208,-0.10306 1.875989,-0.06997 2.220639,0.143882 0.618549,0.383794 1.685638,0.08267 1.836456,-0.51824 0.07548,-0.300741 0.564172,-0.675689 1.53228,-1.17564 2.503495,-1.292856 3.894082,-2.336763 6.03312,-4.529035 2.787603,-2.85698 3.230447,-3.052627 7.056155,-3.117391 0.120556,-0.002 0.546422,-0.225775 0.946369,-0.497187 0.905095,-0.614214 0.996941,-0.6168 0.603941,-0.017 -0.448907,0.685118 -1.470608,1.102651 -2.698181,1.102651 -0.761814,0 -1.370629,0.151601 -2.131522,0.53077 l -1.065116,0.53077 1.371792,0.34088 c 0.754486,0.187484 1.771508,0.524053 2.260049,0.747931 0.969639,0.444346 1.868422,0.521101 2.644929,0.225874 0.582058,-0.221298 0.842672,0.03198 0.405896,0.394477 -0.594137,0.49309 -2.077883,0.458865 -3.69899,-0.08532 -2.732395,-0.917235 -3.369403,-0.739422 -5.607752,1.565333 -1.701684,1.752168 -4.642087,3.838084 -6.704228,4.755967 -1.689843,0.752168 -4.375171,1.252002 -6.742499,1.255017 -1.119924,0.0014 -2.199356,0.0899 -2.398737,0.196603 -0.19938,0.106706 -0.677422,0.623006 -1.062315,1.147335 -0.834827,1.137262 -1.872235,1.729663 -4.56962,2.609435 -2.38457,0.777746 -3.287931,1.21138 -4.396622,2.110481 -1.123092,0.910781 -1.66723,2.009456 -1.651405,3.334368 0.01544,1.292496 0.33829,2.076622 1.362388,3.308901 0.997172,1.199881 1.32567,2.3086 1.148356,3.875846 -0.07372,0.651607 -0.08975,1.18474 -0.03563,1.18474 0.05413,0 0.252409,-0.488541 0.44063,-1.085646 0.188221,-0.597105 0.406134,-1.085646 0.484252,-1.085646 0.271121,0 0.575433,1.249283 0.575433,2.362311 0,2.095221 -0.822737,4.111156 -2.665829,6.532026 -1.093862,1.436768 -1.975374,2.913641 -1.827406,3.061609 0.04085,0.04085 0.404075,-0.367469 0.807159,-0.907384 0.717947,-0.961663 1.315059,-1.336511 1.013478,-0.63623 -0.337509,0.783704 -0.337701,2.823776 -3.49e-4,3.707118 0.381097,0.997888 3.341414,4.078754 4.218036,4.389802 0.290129,0.102945 1.038254,0.347358 1.662501,0.543139 0.624246,0.195782 1.134993,0.430365 1.134993,0.521297 0,0.197135 0.152192,0.199169 -2.171292,-0.02902 -1.031363,-0.10129 -2.399859,-0.365475 -3.041101,-0.587078 -0.641242,-0.221603 -1.432233,-0.402915 -1.757757,-0.402915 -0.560883,0 -0.574763,0.01889 -0.265183,0.360976 0.499093,0.551491 0.412318,0.625975 -0.729265,0.625975 -0.846041,0 -1.228605,-0.116998 -1.924554,-0.588578 -1.054637,-0.714631 -1.390257,-0.731874 -2.43039,-0.124862 -0.958692,0.559483 -3.309795,1.24137 -4.92568,1.428587 -1.132044,0.13116 -1.152969,0.124897 -0.936182,-0.280175 z M 56.601316,48.008722 c 0.348789,-0.497966 0.250035,-0.757393 -0.28831,-0.757393 -0.457454,0 -1.236455,0.724087 -1.069547,0.994151 0.213019,0.344671 1.05322,0.198172 1.357857,-0.236758 z M 39.457587,44.869697 c 0.475018,-1.822772 0.378919,-2.678557 -0.50635,-4.509181 -0.435955,-0.9015 -0.93657,-2.229185 -1.112476,-2.950411 -0.489339,-2.006316 -1.170355,-2.932027 -2.983465,-4.055456 l -0.842089,-0.521771 -0.211534,0.547307 c -0.655882,1.696974 -0.482654,2.487243 0.8681,3.960274 2.103414,2.293825 2.237233,2.695309 1.429905,4.289987 -1.140382,2.252543 -0.589988,3.896749 1.753634,5.238676 l 1.002315,0.573913 0.157832,-0.737371 c 0.08681,-0.405554 0.286665,-1.231739 0.444128,-1.835967 z"
         id="path34" /></g></g></svg>
