<?xml version="1.0" encoding="UTF-8" standalone="no"?>
<!-- Created with Inkscape (http://www.inkscape.org/) -->

<svg
   width="100mm"
   height="100mm"
   viewBox="0 0 100 100"
   version="1.1"
   id="svg1"
   inkscape:version="1.4 (86a8ad7, 2024-10-11)"
   sodipodi:docname="rough3.svg"
   xmlns:inkscape="http://www.inkscape.org/namespaces/inkscape"
   xmlns:sodipodi="http://sodipodi.sourceforge.net/DTD/sodipodi-0.dtd"
   xmlns="http://www.w3.org/2000/svg"
   xmlns:svg="http://www.w3.org/2000/svg">
  <sodipodi:namedview
     id="namedview1"
     pagecolor="#ffffff"
     bordercolor="#000000"
     borderopacity="0.25"
     inkscape:showpageshadow="2"
     inkscape:pageopacity="0.0"
     inkscape:pagecheckerboard="true"
     inkscape:deskcolor="#d1d1d1"
     inkscape:document-units="mm"
     inkscape:zoom="1.4378367"
     inkscape:cx="242.03027"
     inkscape:cy="141.53207"
     inkscape:window-width="1920"
     inkscape:window-height="1009"
     inkscape:window-x="1912"
     inkscape:window-y="-8"
     inkscape:window-maximized="1"
     inkscape:current-layer="layer1"
     showguides="true" />
  <defs
     id="defs1">
    <inkscape:path-effect
       effect="fillet_chamfer"
       id="path-effect3"
       is_visible="true"
       lpeversion="1"
       nodesatellites_param="F,0,1,1,0,1.8619345,0,1 @ F,0,1,1,0,1.8619345,0,1 @ F,0,1,1,0,1.8619345,0,1 @ F,0,1,1,0,1.8619345,0,1 @ F,0,1,1,0,1.8619345,0,1 @ F,0,1,1,0,1.8619345,0,1 @ F,0,1,1,0,1.8619345,0,1 @ F,0,1,1,0,1.8619345,0,1 @ F,0,1,1,0,1.8619345,0,1 @ F,0,1,1,0,1.8619345,0,1 @ F,0,1,1,0,1.8619345,0,1 @ F,0,1,1,0,1.8619345,0,1 @ F,0,1,1,0,1.8619345,0,1 @ F,0,1,1,0,1.8619345,0,1 @ F,0,1,1,0,1.8619345,0,1 @ F,0,1,1,0,1.8619345,0,1 @ F,0,1,1,0,1.8619345,0,1 @ F,0,0,1,0,1.8619345,0,1 @ F,0,1,1,0,1.8619345,0,1 @ F,0,1,1,0,1.8619345,0,1 @ F,0,1,1,0,1.8619345,0,1 @ F,0,1,1,0,1.8619345,0,1 @ F,0,1,1,0,1.8619345,0,1"
       radius="0"
       unit="px"
       method="auto"
       mode="F"
       chamfer_steps="1"
       flexible="false"
       use_knot_distance="true"
       apply_no_radius="true"
       apply_with_radius="true"
       only_selected="false"
       hide_knots="false" />
    <inkscape:path-effect
       effect="fillet_chamfer"
       id="path-effect2"
       is_visible="true"
       lpeversion="1"
       nodesatellites_param="F,0,1,1,0,1.5512069,0,1 @ F,0,1,1,0,1.5512069,0,1 @ F,0,1,1,0,1.5512069,0,1 @ F,0,1,1,0,1.5512069,0,1 @ F,0,1,1,0,1.5512069,0,1 @ F,0,1,1,0,1.5512069,0,1 @ F,0,1,1,0,1.5512069,0,1 @ F,0,1,1,0,1.5512069,0,1 @ F,0,1,1,0,1.5512069,0,1 @ F,0,1,1,0,1.5512069,0,1 @ F,0,1,1,0,1.5512069,0,1 @ F,0,1,1,0,1.5512069,0,1 @ F,0,1,1,0,1.5512069,0,1 @ F,0,1,1,0,1.5512069,0,1 @ F,0,1,1,0,1.5512069,0,1 @ F,0,1,1,0,1.5512069,0,1 @ F,0,1,1,0,1.5512069,0,1 @ F,0,1,1,0,1.5512069,0,1 @ F,0,1,1,0,1.5512069,0,1 @ F,0,1,1,0,1.5512069,0,1 @ F,0,0,1,0,1.5512069,0,1 @ F,0,1,1,0,1.5512069,0,1 @ F,0,1,1,0,1.5512069,0,1"
       radius="0"
       unit="px"
       method="auto"
       mode="F"
       chamfer_steps="1"
       flexible="false"
       use_knot_distance="true"
       apply_no_radius="true"
       apply_with_radius="true"
       only_selected="false"
       hide_knots="false" />
    <inkscape:path-effect
       effect="fillet_chamfer"
       id="path-effect1"
       is_visible="true"
       lpeversion="1"
       nodesatellites_param="F,0,1,1,0,1.6003945,0,1 @ F,0,1,1,0,1.6003945,0,1 @ F,0,1,1,0,1.6003945,0,1 @ F,0,1,1,0,1.6003945,0,1 @ F,0,1,1,0,1.6003945,0,1 @ F,0,1,1,0,1.6003945,0,1 @ F,0,1,1,0,1.6003945,0,1 @ F,0,1,1,0,1.6003945,0,1 @ F,0,1,1,0,1.6003945,0,1 @ F,0,1,1,0,1.6003945,0,1 @ F,0,1,1,0,1.6003945,0,1 @ F,0,1,1,0,1.6003945,0,1 @ F,0,1,1,0,1.6003945,0,1 @ F,0,1,1,0,1.6003945,0,1 @ F,0,1,1,0,1.6003945,0,1 @ F,0,0,1,0,1.6003945,0,1 @ F,0,1,1,0,1.6003945,0,1 @ F,0,1,1,0,1.6003945,0,1 @ F,0,1,1,0,1.6003945,0,1 @ F,0,1,1,0,1.6003945,0,1 @ F,0,1,1,0,1.6003945,0,1 @ F,0,1,1,0,1.6003945,0,1 @ F,0,1,1,0,1.6003945,0,1"
       radius="0"
       unit="px"
       method="auto"
       mode="F"
       chamfer_steps="1"
       flexible="false"
       use_knot_distance="true"
       apply_no_radius="true"
       apply_with_radius="true"
       only_selected="false"
       hide_knots="false" />
  </defs>
  <g
     inkscape:label="Warstwa 1"
     inkscape:groupmode="layer"
     id="layer1">
    <rect
       style="fill:#333333;stroke-width:0.100004"
       id="rect1"
       width="100"
       height="100"
       x="0"
       y="0" />
    <path
       style="color:#000000;font-style:normal;font-variant:normal;font-weight:normal;font-stretch:normal;font-size:medium;line-height:normal;font-family:sans-serif;font-variant-ligatures:normal;font-variant-position:normal;font-variant-caps:normal;font-variant-numeric:normal;font-variant-alternates:normal;font-variant-east-asian:normal;font-feature-settings:normal;font-variation-settings:normal;text-indent:0;text-align:start;text-decoration-line:none;text-decoration-style:solid;text-decoration-color:#000000;letter-spacing:normal;word-spacing:normal;text-transform:none;writing-mode:lr-tb;direction:ltr;text-orientation:mixed;dominant-baseline:auto;baseline-shift:baseline;text-anchor:start;white-space:normal;shape-padding:0;shape-margin:0;inline-size:0;clip-rule:nonzero;display:inline;overflow:visible;visibility:visible;isolation:auto;mix-blend-mode:normal;color-interpolation:sRGB;color-interpolation-filters:linearRGB;solid-color:#000000;solid-opacity:1;vector-effect:none;fill:#b3b3b3;fill-opacity:1;fill-rule:nonzero;stroke:none;stroke-linecap:butt;stroke-linejoin:miter;stroke-miterlimit:4;stroke-dasharray:none;stroke-dashoffset:0;stroke-opacity:1;-inkscape-stroke:none;color-rendering:auto;image-rendering:auto;shape-rendering:auto;text-rendering:auto;enable-background:accumulate;stop-color:#000000;stop-opacity:1"
       d="M 21.298315,9.2258712 37.375507,10.96394 A 9.6824176,9.6824176 175.28502 0 0 41.02,10.663348 L 54.593135,6.8736313 a 4.326352,4.326352 7.6855053 0 1 3.389817,0.457448 l 3.662268,2.198001 a 4.5512936,4.5512936 8.7216529 0 0 3.40675,0.5226237 L 82.414338,5.8744509 a 3.7647772,3.7647772 12.787659 0 1 3.255161,0.7388172 l 6.45405,5.2456509 a 4.8110537,4.8110537 60.260163 0 1 1.722756,3.015439 l 2.228033,14.762135 a 7.4287799,7.4287799 95.48783 0 1 -0.345444,3.595585 L 92.7099,41.72988 a 6.5797031,6.5797031 93.757939 0 0 -0.234845,3.57546 l 1.827052,8.564295 a 12.81492,12.81492 86.224306 0 1 0.242671,3.677175 L 93.38129,72.3594 a 9.5790363,9.5790363 83.491445 0 0 0.414351,3.631894 l 3.953586,12.532829 a 1.2280048,1.2280048 129.08557 0 1 -1.292642,1.591415 L 82.627049,88.740175 a 5.7268116,5.7268116 167.66877 0 0 -3.459692,0.756311 l -8.450051,4.946107 a 3.5029996,3.5029996 177.64988 0 1 -3.285465,0.134836 L 60.791914,91.39017 a 5.4475885,5.4475885 6.7717298 0 0 -3.499147,-0.415498 l -18.058056,3.870724 a 10.376738,10.376738 178.07432 0 1 -3.663261,0.123167 l -13.513458,-1.9586 a 6.5714965,6.5714965 172.42757 0 0 -3.551587,0.472144 l -8.348249,3.611176 A 1.1444067,1.1444067 35.032028 0 1 8.5614838,95.97395 L 9.3006139,83.734212 A 9.9695848,9.9695848 82.876992 0 0 8.8467026,80.101887 L 5.5277938,69.703488 A 13.242909,13.242909 80.301464 0 1 4.9065654,66.068592 L 4.5912529,55.415077 A 9.1733039,9.1733039 99.778346 0 1 5.2110652,51.818643 L 8.6905039,42.872197 A 5.8046014,5.8046014 93.467367 0 0 8.9049607,39.332778 L 5.6808373,26.699928 A 14.600769,14.600769 82.950059 0 1 5.2274619,23.033902 L 5.2684027,12.242393 A 2.0562345,2.0562345 132.37842 0 1 7.1289515,10.203291 L 17.593682,9.2029292 a 18.281732,18.281732 0.35481711 0 1 3.704633,0.022942 z"
       id="path1"
       sodipodi:nodetypes="cccccccccccccccccccccccc"
       transform="rotate(93.354073,50.341024,49.78419)"
       inkscape:path-effect="#path-effect3"
       inkscape:original-d="M 19.447167,9.0257478 39.226655,11.164063 56.38648,6.3729166 63.241692,10.487243 84.224616,5.4389119 93.568432,13.033275 96.352211,31.477576 92.086583,43.484382 94.690579,55.690593 93.235489,74.215617 98.309379,90.2998 80.774255,88.555913 69.110408,95.383166 59.113347,90.584433 37.414131,95.235635 20.215311,92.742891 8.4492503,97.832499 9.4128474,81.875663 4.961649,67.929712 4.5361693,53.553957 9.3653998,41.136883 5.2203982,24.895823 5.2754664,10.380472 Z" />
  </g>
</svg>
