<?xml version="1.0" encoding="UTF-8" standalone="no"?>
<!-- Created with Inkscape (http://www.inkscape.org/) -->

<svg
   width="100mm"
   height="100mm"
   viewBox="0 0 100 100"
   version="1.1"
   id="svg1"
   inkscape:version="1.4 (86a8ad7, 2024-10-11)"
   sodipodi:docname="boulder1.svg"
   xml:space="preserve"
   xmlns:inkscape="http://www.inkscape.org/namespaces/inkscape"
   xmlns:sodipodi="http://sodipodi.sourceforge.net/DTD/sodipodi-0.dtd"
   xmlns="http://www.w3.org/2000/svg"
   xmlns:svg="http://www.w3.org/2000/svg"><sodipodi:namedview
     id="namedview1"
     pagecolor="#ffffff"
     bordercolor="#000000"
     borderopacity="0.25"
     inkscape:showpageshadow="2"
     inkscape:pageopacity="0.0"
     inkscape:pagecheckerboard="true"
     inkscape:deskcolor="#d1d1d1"
     inkscape:document-units="mm"
     inkscape:zoom="1.0227973"
     inkscape:cx="366.15271"
     inkscape:cy="140.30151"
     inkscape:window-width="1920"
     inkscape:window-height="1009"
     inkscape:window-x="1912"
     inkscape:window-y="-8"
     inkscape:window-maximized="1"
     inkscape:current-layer="layer1" /><defs
     id="defs1" /><g
     inkscape:label="Warstwa 1"
     inkscape:groupmode="layer"
     id="layer1"><path
       style="fill:#c4e3d0;fill-opacity:1;stroke-width:1.26729"
       d="m 35.1419,68.763674 c -4.9333,-0.86866 -9.021924,-1.642131 -9.085834,-1.718826 -1.015278,-1.218521 -6.953058,-10.442442 -6.870634,-10.67306 0.06248,-0.174859 1.245266,-1.6344 2.628401,-3.243423 2.142673,-2.492628 2.865853,-3.090021 4.887475,-4.037402 1.801049,-0.844022 2.792058,-1.594073 4.1134,-3.113246 1.929641,-2.218558 1.379193,-2.034077 8.09964,-2.714588 1.936371,-0.196078 6.82785,-0.717821 10.86994,-1.159428 l 7.349264,-0.80292 9.918914,2.49627 c 11.120711,2.798726 9.517372,1.994204 13.920184,6.984856 l 1.989445,2.255072 -0.618591,3.146093 c -0.340217,1.730352 -0.707364,3.285892 -0.815882,3.456755 -0.10848,0.170863 -3.290472,1.873837 -7.071031,3.784386 l -6.873738,3.473725 -4.526601,0.205117 c -3.73467,0.169231 -5.690506,0.477862 -11.179222,1.764078 -3.658937,0.857431 -6.903001,1.540279 -7.209039,1.517443 -0.306038,-0.02284 -4.592778,-0.752243 -9.526091,-1.620902 z"
       id="path46" /><path
       style="fill:#88968d;fill-opacity:1;stroke-width:1.26729"
       d="m 34.749217,68.551201 c -4.596048,-0.802635 -8.469588,-1.576733 -8.607875,-1.72022 -0.138287,-0.143485 -1.755934,-2.52289 -3.594761,-5.287565 l -3.343318,-5.02668 0.93611,-1.176447 c 1.344166,-1.689253 4.021839,-4.476429 4.153967,-4.323835 0.06172,0.07131 0.607717,1.03497 1.213279,2.141475 0.605563,1.106504 1.427617,2.404794 1.826776,2.885088 0.399171,0.480295 1.060102,1.790241 1.468752,2.910991 l 0.742988,2.037728 1.91835,0.221887 c 1.055084,0.12204 4.148061,0.504072 6.873282,0.848968 l 4.954958,0.627083 4.098256,-1.307489 c 2.254056,-0.719118 5.83347,-1.83666 7.95427,-2.483427 2.1208,-0.646768 3.629662,-1.185515 3.353038,-1.197216 -0.276625,-0.01166 -3.294363,-0.249797 -6.706076,-0.5291 -3.411726,-0.279303 -9.204795,-0.727498 -12.87349,-0.995989 -3.668695,-0.268492 -6.694239,-0.529392 -6.723425,-0.579781 -0.707326,-1.220986 -3.212445,-7.068456 -3.08346,-7.197441 0.0991,-0.0991 1.885489,0.35152 3.969753,1.001378 3.244558,1.011627 4.585276,1.236152 9.322095,1.561142 3.042894,0.208769 7.267727,0.532233 9.388527,0.718808 2.1208,0.186576 5.213979,0.3658 6.873726,0.398275 3.203789,0.06269 3.731971,-0.101104 15.851156,-4.915418 l 2.103666,-0.835679 3.026241,3.410293 c 2.208256,2.48852 2.984066,3.592852 2.870225,4.085705 -0.0858,0.371476 -0.411869,1.852541 -0.724612,3.291256 l -0.568621,2.615846 -7.08772,3.547732 -7.087721,3.547732 -4.694264,0.247639 c -3.733846,0.196975 -5.888356,0.530919 -10.530736,1.632246 -3.210062,0.761533 -6.52958,1.366548 -7.376701,1.344479 -0.847109,-0.02208 -5.300599,-0.69683 -9.896635,-1.499464 z"
       id="path41" /></g></svg>
