<?xml version="1.0" encoding="UTF-8" standalone="no"?>
<!-- Created with Inkscape (http://www.inkscape.org/) -->

<svg
   width="100mm"
   height="100mm"
   viewBox="0 0 100 100"
   version="1.1"
   id="svg1"
   inkscape:version="1.4 (86a8ad7, 2024-10-11)"
   sodipodi:docname="boulder3.svg"
   xml:space="preserve"
   xmlns:inkscape="http://www.inkscape.org/namespaces/inkscape"
   xmlns:sodipodi="http://sodipodi.sourceforge.net/DTD/sodipodi-0.dtd"
   xmlns="http://www.w3.org/2000/svg"
   xmlns:svg="http://www.w3.org/2000/svg"><sodipodi:namedview
     id="namedview1"
     pagecolor="#ffffff"
     bordercolor="#000000"
     borderopacity="0.25"
     inkscape:showpageshadow="2"
     inkscape:pageopacity="0.0"
     inkscape:pagecheckerboard="true"
     inkscape:deskcolor="#d1d1d1"
     inkscape:document-units="mm"
     inkscape:zoom="1.0227973"
     inkscape:cx="148.12319"
     inkscape:cy="201.89729"
     inkscape:window-width="1920"
     inkscape:window-height="1009"
     inkscape:window-x="1912"
     inkscape:window-y="-8"
     inkscape:window-maximized="1"
     inkscape:current-layer="layer1" /><defs
     id="defs1" /><g
     inkscape:label="Warstwa 1"
     inkscape:groupmode="layer"
     id="layer1"><path
       style="fill:#c4e3d0;fill-opacity:1;stroke-width:1.36987"
       d="m 46.325149,76.413487 c -1.0964,-0.366562 -3.64294,-1.185181 -5.658999,-1.819182 -3.580913,-1.126084 -3.728981,-1.216811 -6.41196,-3.928831 l -2.746404,-2.776129 -0.543782,-3.805667 c -0.299069,-2.093114 -0.653262,-5.440026 -0.787098,-7.437587 -0.337041,-5.030705 0.645673,-9.855069 3.348542,-16.438766 l 2.027211,-4.937925 3.877694,-3.896271 c 3.421076,-3.43745 4.023625,-3.896271 5.116806,-3.896271 0.681508,0 1.80888,-0.170205 2.505266,-0.378235 0.696385,-0.20803 3.304911,-0.466704 5.796711,-0.574829 l 4.530545,-0.196595 3.428172,2.936875 3.428172,2.936874 2.855528,6.245995 c 3.617748,7.913206 4.089708,9.508131 4.566709,15.43247 0.384946,4.780937 0.376713,4.890445 -0.708481,9.423537 l -1.097934,4.586395 -4.786313,2.770129 c -3.982228,2.304773 -5.769657,3.081089 -10.639818,4.621161 -3.219432,1.018058 -5.91059,1.839388 -5.980329,1.825168 -0.06973,-0.01425 -1.023852,-0.325754 -2.120238,-0.692316 z"
       id="path43" /><path
       style="fill:#88968d;fill-opacity:1;stroke-width:1.36987"
       d="m 45.962696,76.092747 c -9.49209,-2.940089 -8.394965,-2.40406 -11.518588,-5.627684 L 31.597102,67.526892 31.14884,64.083678 c -0.246548,-1.893771 -0.591836,-5.155765 -0.767316,-7.248874 l -0.319056,-3.805659 4.387421,-8.875882 4.387407,-8.875881 0.875345,2.714337 c 0.481439,1.492885 1.852798,5.581382 3.047459,9.085549 l 2.172128,6.371211 3.566378,1.754739 3.566392,1.754739 1.250702,-1.058296 c 1.930319,-1.633367 2.287922,-2.474868 3.69035,-8.68384 0.71866,-3.181683 1.380593,-6.030817 1.47099,-6.33141 0.111507,-0.370739 1.226688,-0.742208 3.467104,-1.154878 1.816525,-0.334591 3.371117,-0.676699 3.454651,-0.76024 0.08356,-0.08353 -0.09397,-1.194843 -0.394425,-2.469559 -0.808782,-3.431101 -0.674563,-3.383435 1.128221,0.400663 3.732119,7.833854 4.574189,10.163323 4.911615,13.587183 0.177055,1.796548 0.451357,4.301586 0.609549,5.566753 0.245138,1.960455 0.122055,2.9918 -0.833303,6.980808 l -1.120948,4.680491 -4.347695,2.600334 c -3.599994,2.153129 -5.370341,2.931623 -10.294187,4.526778 -3.27057,1.059564 -6.206357,1.913196 -6.523988,1.896963 -0.317617,-0.01616 -1.474538,-0.307356 -2.570938,-0.64696 z"
       id="path42" /></g></svg>
