<?xml version="1.0" encoding="UTF-8" standalone="no"?>
<!-- Created with Inkscape (http://www.inkscape.org/) -->

<svg
   width="100mm"
   height="100mm"
   viewBox="0 0 100 100"
   version="1.1"
   id="svg1"
   inkscape:version="1.4 (86a8ad7, 2024-10-11)"
   sodipodi:docname="boulder2.svg"
   xml:space="preserve"
   xmlns:inkscape="http://www.inkscape.org/namespaces/inkscape"
   xmlns:sodipodi="http://sodipodi.sourceforge.net/DTD/sodipodi-0.dtd"
   xmlns="http://www.w3.org/2000/svg"
   xmlns:svg="http://www.w3.org/2000/svg"><sodipodi:namedview
     id="namedview1"
     pagecolor="#ffffff"
     bordercolor="#000000"
     borderopacity="0.25"
     inkscape:showpageshadow="2"
     inkscape:pageopacity="0.0"
     inkscape:pagecheckerboard="true"
     inkscape:deskcolor="#d1d1d1"
     inkscape:document-units="mm"
     inkscape:zoom="0.51139865"
     inkscape:cx="94.837951"
     inkscape:cy="133.94638"
     inkscape:window-width="1920"
     inkscape:window-height="1009"
     inkscape:window-x="1912"
     inkscape:window-y="-8"
     inkscape:window-maximized="1"
     inkscape:current-layer="layer1" /><defs
     id="defs1" /><g
     inkscape:label="Warstwa 1"
     inkscape:groupmode="layer"
     id="layer1"><path
       style="fill:#c4e3d0;fill-opacity:1;stroke-width:1.49529"
       d="M 44.954111,76.236276 C 39.55149,75.596257 39.298607,75.522897 34.667793,73.252142 l -4.747536,-2.327984 -1.894558,-4.747536 -1.894544,-4.747536 1.599015,-5.848163 c 1.531518,-5.601287 1.775205,-6.14618 5.772585,-12.907685 l 4.173556,-7.059519 4.368017,-2.719622 c 2.402403,-1.495792 5.375153,-3.374708 6.606118,-4.175369 1.23095,-0.80066 2.558197,-1.468282 2.949438,-1.483605 0.391257,-0.01533 1.637474,0.557752 2.769406,1.273498 1.131918,0.715748 4.345185,2.450958 7.140594,3.856025 2.795394,1.405066 5.222648,2.822323 5.393874,3.149457 0.440616,0.841741 7.323512,21.288613 8.501738,25.255911 l 0.979233,3.297207 -2.943038,4.256482 -2.943039,4.256483 -5.848785,1.292895 C 50.024809,77.10601 51.153078,76.970632 44.954111,76.236276 Z"
       id="path45"
       sodipodi:nodetypes="sscccsscssssscscccss" /><path
       style="fill:#88968d;fill-opacity:1;stroke-width:1.49529"
       d="m 43.965039,76.01973 c -3.259666,-0.429509 -4.87815,-0.882488 -7.516927,-2.103828 -1.849566,-0.856057 -4.003855,-1.814694 -4.787311,-2.130304 -1.322596,-0.532795 -1.560272,-0.909552 -3.323051,-5.267361 -1.044204,-2.581438 -1.884196,-4.989484 -1.866642,-5.351215 0.03036,-0.624768 3.828488,-7.597474 7.399981,-13.584915 0.908567,-1.523168 2.029396,-4.176235 2.964242,-5.63758 1.780723,-2.783613 1.147086,-2.129247 2.146679,-4.25114 0.357149,-0.545077 0.956819,-0.993793 1.3326,-0.997147 0.37578,-0.0033 4.164269,0.814466 8.418884,1.817376 l 7.735673,1.823473 5.007088,-2.634801 5.007103,-2.634802 0.632566,1.509774 c 1.042903,2.489092 8.411154,24.741582 8.690518,26.245818 0.236106,1.271193 0.0045,1.757373 -2.636609,5.519089 l -2.895519,4.125098 -9.495072,2.090891 c -10.231427,2.25304 -10.578528,2.283213 -16.814203,1.461574 z"
       id="path40"
       sodipodi:nodetypes="sssscssccscccssccss" /></g></svg>
