<?xml version="1.0" encoding="UTF-8" standalone="no"?>
<!-- Created with Inkscape (http://www.inkscape.org/) -->

<svg
   width="100mm"
   height="100mm"
   viewBox="0 0 100 100"
   version="1.1"
   id="svg1"
   inkscape:version="1.4 (86a8ad7, 2024-10-11)"
   sodipodi:docname="boulder4.svg"
   xml:space="preserve"
   xmlns:inkscape="http://www.inkscape.org/namespaces/inkscape"
   xmlns:sodipodi="http://sodipodi.sourceforge.net/DTD/sodipodi-0.dtd"
   xmlns="http://www.w3.org/2000/svg"
   xmlns:svg="http://www.w3.org/2000/svg"><sodipodi:namedview
     id="namedview1"
     pagecolor="#ffffff"
     bordercolor="#000000"
     borderopacity="0.25"
     inkscape:showpageshadow="2"
     inkscape:pageopacity="0.0"
     inkscape:pagecheckerboard="true"
     inkscape:deskcolor="#d1d1d1"
     inkscape:document-units="mm"
     inkscape:zoom="1.0227973"
     inkscape:cx="174.52138"
     inkscape:cy="201.89729"
     inkscape:window-width="1920"
     inkscape:window-height="1009"
     inkscape:window-x="1912"
     inkscape:window-y="-8"
     inkscape:window-maximized="1"
     inkscape:current-layer="layer1" /><defs
     id="defs1" /><g
     inkscape:label="Warstwa 1"
     inkscape:groupmode="layer"
     id="layer1"><path
       style="fill:#c4e3d0;fill-opacity:1;stroke-width:1.14576"
       d="m 41.989036,74.326212 -3.334587,-1.112976 0.104264,-1.361491 c 0.05729,-0.74882 0.225909,-1.588877 0.374651,-1.866815 0.317856,-0.593902 -0.04847,-0.655212 -7.183765,-1.202116 L 27.366814,68.43156 25.317251,65.744063 C 23.329238,63.137275 23.24703,62.95872 22.579868,59.798334 22.084878,57.453589 21.836466,54.967745 21.69382,50.931858 l -0.198216,-5.608239 2.364875,-2.650967 c 2.164895,-2.426794 5.411705,-5.275196 6.912096,-6.06394 0.333472,-0.175299 0.674506,-0.410798 0.757872,-0.523333 0.08341,-0.112537 1.422192,-1.132579 2.975162,-2.266765 3.256972,-2.378677 2.725777,-2.328165 9.344455,-0.888573 l 3.679906,0.800395 4.201946,5.008174 c 2.311071,2.754495 4.350288,5.294754 4.531592,5.645017 0.181305,0.350265 0.5747,1.59176 0.874212,2.75888 0.299513,1.16712 0.62862,2.21658 0.731371,2.332135 0.102774,0.115555 2.028435,0.01531 4.279308,-0.222767 3.494637,-0.36963 4.336069,-0.371739 5.759808,-0.01444 0.917029,0.230133 2.659885,0.599368 3.873034,0.820521 l 2.205719,0.402097 4.256392,6.305036 4.256382,6.305029 -0.353134,1.701033 c -0.305138,1.469856 -0.724267,2.149141 -3.083906,4.998087 -1.537364,1.856159 -3.014782,3.354098 -3.380645,3.427598 -0.357419,0.07184 -2.764321,0.289556 -5.348654,0.483876 -4.36768,0.32842 -4.933787,0.308575 -8.033424,-0.281604 -4.599982,-0.875862 -4.621706,-0.874705 -6.697564,0.357946 -1.919863,1.140027 -2.259615,1.205691 -8.005112,1.547046 -2.016268,0.119789 -2.651051,0.0092 -5.608202,-0.977892 z"
       id="path44" /><path
       style="fill:#88968d;fill-opacity:1;stroke-width:1.14576"
       d="m 41.989001,74.221925 c -1.667316,-0.51504 -3.088283,-0.986771 -3.157715,-1.048275 -0.06943,-0.06153 0.358415,-0.828049 0.950759,-1.703441 0.592334,-0.875381 1.247362,-1.924046 1.455615,-2.330377 0.208241,-0.40632 0.629708,-1.008277 0.936587,-1.33767 0.554042,-0.594694 0.578813,-0.591165 3.528265,0.502883 l 2.970315,1.101794 2.511315,-0.673567 c 2.133513,-0.572225 2.600454,-0.81563 3.103911,-1.61798 l 0.592608,-0.944435 -2.370902,-1.556544 c -1.303997,-0.856096 -2.704042,-1.551157 -3.11121,-1.544581 -1.414527,0.0228 -6.180174,1.150291 -6.29302,1.488805 -0.06244,0.187285 -0.417708,0.710633 -0.789518,1.162989 -0.371797,0.452344 -1.09446,1.439711 -1.605903,2.194134 l -0.929907,1.371677 -2.836526,-0.21735 C 35.38359,68.950439 32.635746,68.755729 30.837367,68.637292 l -3.269793,-0.215334 -1.904946,-2.454725 c -1.047726,-1.350102 -1.99019,-2.600062 -2.094374,-2.777677 -0.334171,-0.569693 -1.748516,-7.195313 -1.573364,-7.370472 0.09292,-0.09286 2.10582,-1.469207 4.473239,-3.058543 l 4.304388,-2.889702 0.489548,-2.823781 c 0.269252,-1.55308 0.610287,-2.939643 0.757872,-3.081251 0.251768,-0.241587 2.134131,-1.042038 8.301748,-3.530236 2.575924,-1.039203 2.577436,-1.040466 4.685891,-3.911345 1.160021,-1.579492 2.183147,-2.861338 2.273605,-2.848547 0.09051,0.01279 2.155041,2.434187 4.587951,5.380877 4.323466,5.236498 4.438259,5.412913 5.077728,7.803448 0.359848,1.345205 0.654262,2.553061 0.654262,2.684124 0,0.131063 -1.39827,1.687934 -3.107268,3.459713 l -3.107268,3.221417 1.364171,0.203984 c 0.750287,0.112192 2.31908,0.358993 3.486193,0.548452 3.373519,0.547622 12.97051,1.833607 13.69315,1.834866 0.617128,0.0011 0.67115,-0.187311 0.873903,-3.047178 l 0.216124,-3.048325 1.360964,-1.039171 c 0.748522,-0.571545 1.453792,-0.981799 1.567245,-0.911676 0.11343,0.07012 2.071447,2.898642 4.35109,6.285599 l 4.144784,6.158107 -0.424273,1.608341 c -0.233345,0.884593 -0.604387,1.839374 -0.824532,2.121757 -0.405884,0.520632 -4.445683,5.493111 -4.772682,5.874568 -0.09796,0.114232 -2.424214,0.409963 -5.169595,0.65724 -4.957974,0.44657 -5.020314,0.444519 -9.257275,-0.304611 l -4.265673,-0.754217 -2.168058,1.22856 -2.168046,1.228549 -4.186799,0.144136 c -4.026932,0.138625 -4.302555,0.108388 -7.218276,-0.792314 z"
       id="path39" /></g></svg>
