<?xml version="1.0" encoding="UTF-8" standalone="no"?>
<!-- Created with Inkscape (http://www.inkscape.org/) -->

<svg
   width="100mm"
   height="100mm"
   viewBox="0 0 100 100"
   version="1.1"
   id="svg1"
   inkscape:version="1.4 (86a8ad7, 2024-10-11)"
   sodipodi:docname="bush1.svg"
   xml:space="preserve"
   xmlns:inkscape="http://www.inkscape.org/namespaces/inkscape"
   xmlns:sodipodi="http://sodipodi.sourceforge.net/DTD/sodipodi-0.dtd"
   xmlns="http://www.w3.org/2000/svg"
   xmlns:svg="http://www.w3.org/2000/svg"><sodipodi:namedview
     id="namedview1"
     pagecolor="#ffffff"
     bordercolor="#000000"
     borderopacity="0.25"
     inkscape:showpageshadow="2"
     inkscape:pageopacity="0.0"
     inkscape:pagecheckerboard="true"
     inkscape:deskcolor="#d1d1d1"
     inkscape:document-units="mm"
     inkscape:zoom="1.243451"
     inkscape:cx="447.94687"
     inkscape:cy="135.50996"
     inkscape:window-width="1920"
     inkscape:window-height="1009"
     inkscape:window-x="1912"
     inkscape:window-y="-8"
     inkscape:window-maximized="1"
     inkscape:current-layer="layer1" /><defs
     id="defs1" /><g
     inkscape:label="Warstwa 1"
     inkscape:groupmode="layer"
     id="layer1"><path
       style="fill:#611415;fill-opacity:1"
       d="m 56.011986,76.522008 c -0.905515,-0.473636 -1.209551,-0.524303 -1.89105,-0.315145 -1.037952,0.318556 -1.881881,-0.04182 -2.387456,-1.019493 -0.453932,-0.877807 -0.986891,-7.082971 -0.79113,-9.210995 0.30013,-3.262556 1.961681,-6.017538 5.370965,-8.905481 2.228417,-1.887651 2.865972,-2.806666 3.415298,-4.923035 l 0.359488,-1.384992 -0.863935,-0.699241 c -0.776834,-0.628744 -0.847776,-0.784679 -0.703658,-1.54669 0.08815,-0.466097 0.501979,-1.211943 0.919616,-1.657435 0.63271,-0.674911 0.906534,-0.797133 1.642012,-0.73292 l 0.882674,0.07706 0.435641,-2.302508 c 0.239603,-1.266379 0.481928,-2.348795 0.538501,-2.405367 0.05657,-0.05657 1.019557,-0.0265 2.139966,0.06683 l 2.037107,0.16969 -0.192492,2.724291 c -0.176455,2.497314 -0.689474,6.078376 -1.064013,7.427197 -0.139165,0.501172 -0.06926,0.550045 0.792007,0.55371 1.207958,0.0051 2.823389,0.913538 3.118909,1.753844 0.277558,0.789231 -0.266744,1.747903 -1.338604,2.357668 -0.657266,0.373908 -0.713275,0.518385 -0.748608,1.931063 -0.02101,0.839805 -0.04918,1.654153 -0.06262,1.809664 -0.03766,0.435819 3.20845,1.427401 4.672834,1.427401 1.62954,0 2.858677,-0.501598 4.032894,-1.645782 0.983615,-0.958458 1.285375,-1.676739 1.53471,-3.653067 0.174434,-1.38263 0.05905,-1.304692 2.467498,-1.666773 0.905845,-0.136183 1.02067,-0.09505 1.157121,0.41446 0.501611,1.873029 -0.04735,5.571396 -1.129575,7.609947 -1.882056,3.545173 -5.586403,4.71989 -10.194691,3.232924 -3.566122,-1.150688 -6.347245,-0.789311 -7.555943,0.981812 -0.497428,0.728889 -0.595065,1.17207 -0.604763,2.745064 -0.0064,1.031713 0.145138,2.504588 0.336664,3.273055 0.311239,1.248797 0.306094,1.48557 -0.04843,2.229016 -0.84769,1.777625 -4.072314,2.437364 -6.276935,1.284223 z m 4.898885,-15.19572 c 0.452065,-0.237756 1.481565,-0.615278 2.287778,-0.838937 l 1.465841,-0.406652 0.281931,-1.197316 c 0.405009,-1.720012 0.386126,-1.980421 -0.15385,-2.121628 -0.37454,-0.09794 -0.645216,0.137922 -1.208108,1.052738 -0.398983,0.648429 -1.609846,1.910663 -2.690808,2.804965 -1.080962,0.894301 -2.208357,1.974365 -2.505322,2.400141 -0.491973,0.705371 -0.440422,0.683746 0.580333,-0.243444 0.616148,-0.55967 1.490141,-1.21211 1.942205,-1.449867 z M 45.858245,76.287533 c -0.402264,-0.294143 -0.423386,-0.455498 -0.183893,-1.404764 0.489724,-1.94109 0.50709,-2.178633 0.280147,-3.831933 -0.151271,-1.102027 -0.576621,-2.35754 -1.299854,-3.836803 -0.591254,-1.209319 -1.206039,-2.865844 -1.366188,-3.681168 -0.286309,-1.457602 -0.308169,-1.486996 -1.306456,-1.756729 -1.456499,-0.393539 -1.951786,-0.835028 -1.951786,-1.739782 0,-1.26283 1.923029,-2.961054 3.353028,-2.961054 0.334665,0 0.663215,-0.08856 0.730113,-0.196805 0.0669,-0.108242 -0.06404,-0.931374 -0.290965,-1.829183 l -0.412598,-1.632379 -1.73471,-0.831152 c -0.954091,-0.457134 -1.808605,-1.023719 -1.89892,-1.259077 -0.249796,-0.650957 0.414614,-1.450243 1.922816,-2.313148 0.975524,-0.558139 1.329707,-0.894468 1.246838,-1.183985 -0.351261,-1.227182 -1.612632,-6.49127 -1.612632,-6.730009 0,-0.330799 3.955533,-1.669219 4.192619,-1.418643 0.163603,0.172914 2.003108,6.204651 2.267698,7.435787 0.07905,0.367814 0.44431,0.859312 0.811691,1.092216 0.894423,0.567029 2.91154,2.469395 3.53128,3.330391 0.492681,0.684474 0.493084,0.700174 0.02982,1.163439 -0.258281,0.258282 -1.261482,0.660652 -2.229335,0.894157 -1.703195,0.410915 -1.759351,0.448103 -1.747856,1.157476 0.0065,0.403106 0.10627,2.546898 0.221641,4.763983 0.197279,3.791126 0.263806,4.176479 1.117692,6.474131 0.796493,2.143218 0.911507,2.727926 0.937093,4.763983 0.03408,2.712345 -0.440932,4.274459 -1.595127,5.24565 -0.828975,0.697537 -2.262741,0.833386 -3.012155,0.285401 z M 43.118652,74.907354 C 42.395745,74.616165 41.901793,73.803223 41.585003,72.383288 40.949767,69.53599 39.704629,67.767712 36.861894,65.675781 33.731875,63.372442 32.647722,61.768764 30.839352,56.767244 l -0.900283,-2.489967 1.360612,-0.578398 c 2.408303,-1.023774 2.282889,-1.074326 2.935186,1.183113 0.766618,2.653075 1.964777,5.07228 2.97679,6.010445 0.452862,0.419816 1.502113,1.189382 2.331668,1.710148 1.819037,1.141926 3.73117,3.267429 4.774608,5.307392 0.656453,1.283392 0.784285,1.832558 0.875501,3.761164 0.145777,3.082197 -0.388448,3.915473 -2.074782,3.236213 z m 6.932234,-9.78138 c -0.246807,-0.922806 -0.193792,-3.177489 0.100258,-4.263918 0.145472,-0.537475 0.740446,-1.747192 1.322165,-2.68826 1.595011,-2.580308 2.100928,-4.069238 2.282529,-6.717554 0.08753,-1.276503 0.125749,-2.72111 0.08493,-3.210239 l -0.07423,-0.889324 -1.698271,-0.09596 c -1.311776,-0.07412 -1.814334,-0.212024 -2.208254,-0.605944 -0.475747,-0.475747 -0.485039,-0.558219 -0.13841,-1.228526 0.543979,-1.051938 2.567508,-2.940614 3.786966,-3.534592 1.288614,-0.627663 3.265948,-0.532639 5.01488,0.240996 0.967468,0.427957 1.13275,0.603249 1.13275,1.201349 0,0.85241 -1.005813,1.946935 -2.534253,2.75777 l -1.085876,0.576056 -0.004,3.310358 c -0.0048,3.902169 -0.367636,5.536175 -1.697337,7.643314 -2.752499,4.361803 -3.257814,5.254549 -3.485662,6.158159 -0.137478,0.545219 -0.337235,1.20603 -0.443904,1.46847 -0.180507,0.444107 -0.205047,0.435645 -0.354231,-0.122154 z M 20.933563,54.410787 c -1.712917,-0.171705 -1.95249,-0.295723 -2.457394,-1.272099 -0.529045,-1.02306 -0.297193,-1.488429 1.432184,-2.874664 0.832603,-0.667398 2.173452,-1.891262 2.979665,-2.719699 1.953949,-2.00781 4.03118,-3.597114 5.275052,-4.035977 1.425868,-0.503076 4.988342,-0.452975 8.071682,0.113514 2.80881,0.516051 4.286235,1.092056 4.495961,1.752844 0.228439,0.719747 -0.535142,2.120573 -1.899747,3.485178 -2.352872,2.352872 -8.663352,5.018216 -13.079044,5.524169 -2.251449,0.257972 -2.497891,0.25934 -4.818359,0.02673 z M 72.73676,54.044936 c -1.125484,-0.316133 -2.086752,-1.085774 -2.086752,-1.670761 0,-0.481373 1.64034,-1.783025 3.550919,-2.817748 3.708864,-2.008629 6.266263,-2.422894 9.582515,-1.55224 2.000056,0.525098 3.968045,1.587467 3.968045,2.142048 0,1.349343 -1.417758,2.291616 -5.130444,3.409806 -2.595733,0.781785 -7.906382,1.04446 -9.884283,0.488895 z m -1.588968,-4.867529 c -1.024713,-0.41182 -1.391332,-0.705228 -1.63672,-1.309881 -0.300723,-0.741 -0.277569,-0.815508 0.472434,-1.520276 0.96267,-0.904607 2.941361,-2.105106 5.064025,-3.072411 1.272303,-0.579794 1.905219,-0.719332 3.1837,-0.701906 2.717501,0.03704 6.187146,1.890397 8.481952,4.530749 1.475276,1.697419 1.386306,2.141966 -0.244307,1.220699 -0.705436,-0.398559 -2.07388,-0.901349 -3.040986,-1.117311 -3.477853,-0.776629 -5.895131,-0.405899 -8.991126,1.378941 -0.940582,0.542245 -1.768271,1.016542 -1.83931,1.053994 -0.07104,0.03745 -0.723387,-0.170717 -1.449662,-0.462598 z M 29.438818,41.207515 c -1.150882,-0.701743 -1.399043,-1.307263 -0.917438,-2.238583 0.716544,-1.385643 4.079267,-4.470904 6.961438,-6.387041 4.162511,-2.767339 4.072392,-2.738817 8.659896,-2.740797 2.196801,-9.48e-4 4.657957,0.13847 5.619058,0.318305 1.795649,0.33599 3.786756,1.093401 3.786756,1.44047 0,0.112345 -0.558393,0.420856 -1.240873,0.685582 -1.775295,0.688614 -2.248603,1.198477 -2.119542,2.28324 0.05794,0.486999 0.183549,1.061369 0.279129,1.276377 0.134513,0.302592 -0.201566,0.587955 -1.48738,1.262926 -3.767911,1.977915 -7.613944,3.259918 -11.913584,3.971171 -4.518941,0.74753 -6.555772,0.781804 -7.62746,0.12835 z m 33.637677,-0.51464 c -3.137443,-0.373139 -5.87257,-1.176402 -8.524916,-2.503631 -2.712077,-1.357118 -3.374224,-1.980603 -3.603429,-3.393025 -0.137917,-0.849887 -0.09799,-0.91453 0.869793,-1.408256 3.244023,-1.654977 9.232169,-3.186415 12.459346,-3.186415 1.861365,0 2.178114,0.0808 4.662421,1.189347 1.465961,0.654141 3.496176,1.707157 4.511588,2.340036 1.873004,1.167392 4.772222,3.7176 4.772222,4.197738 0,0.530696 -1.125009,1.910661 -1.955285,2.398404 -0.783278,0.460134 -1.290599,0.505224 -6.106841,0.542771 -2.888929,0.02252 -6.077133,-0.05711 -7.084899,-0.176969 z"
       id="path43" /><path
       style="fill:#ac7e47;fill-opacity:1"
       d="m 56.118319,76.520394 c -1.050195,-0.538685 -1.320574,-0.586763 -1.97302,-0.350835 -1.097917,0.397012 -2.095129,-0.137768 -2.486943,-1.333686 -0.166197,-0.507278 -0.433587,-2.650547 -0.594199,-4.762821 -0.262889,-3.45735 -0.249462,-4.010898 0.134592,-5.54852 0.713603,-2.857026 2.291783,-5.125437 5.249213,-7.545003 1.625129,-1.329568 2.741253,-2.687344 3.036712,-3.694191 0.07834,-0.266974 0.263162,-0.952645 0.410707,-1.523712 0.265671,-1.028265 0.278911,-1.038304 1.369334,-1.038304 0.843294,0 1.241458,-0.140389 1.700732,-0.599662 0.329814,-0.329815 0.599662,-0.707441 0.599662,-0.83917 0,-0.510174 -0.544591,-1.642612 -1.070376,-2.225771 l -0.550678,-0.610767 0.475845,-2.507211 0.475845,-2.507211 1.983753,0.158788 c 1.091064,0.08733 2.033077,0.202168 2.093362,0.255187 0.208597,0.183458 -0.45016,6.806747 -0.863034,8.677152 -0.366419,1.659949 -0.49533,1.911407 -1.11053,2.166231 -0.732666,0.30348 -2.411415,2.005215 -2.411415,2.444433 0,0.141556 0.339127,0.567118 0.753614,0.945694 l 0.753614,0.68832 -0.507149,0.994093 c -0.304924,0.5977 -1.328206,1.679875 -2.566231,2.713924 -1.88157,1.571564 -2.684192,2.440474 -3.17622,3.438539 -0.09936,0.201553 0.17682,-0.05665 0.613738,-0.573788 1.060514,-1.255228 2.427262,-2.088496 4.495095,-2.740536 l 1.710148,-0.539252 0.348142,-1.493508 0.348143,-1.493507 h 1.157486 1.157486 l -0.06218,1.79036 -0.06218,1.790361 1.762305,0.558744 c 2.394507,0.759185 3.921212,0.72937 5.636991,-0.110082 1.785459,-0.873543 2.682923,-2.225071 2.914699,-4.389362 l 0.164942,-1.5402 0.890596,-0.142795 c 0.489827,-0.07854 1.233382,-0.211527 1.652343,-0.295533 l 0.761747,-0.152738 0.117336,1.414918 c 0.664402,8.011818 -4.258056,12.305921 -11.413105,9.956216 -3.535047,-1.160903 -6.484035,-0.73906 -7.528926,1.076989 -0.691979,1.202678 -0.802649,3.387738 -0.274684,5.423334 0.536782,2.069588 0.380469,2.695459 -0.939446,3.761511 -0.763208,0.616419 -1.19104,0.763072 -2.443068,0.837441 -1.259391,0.07481 -1.725044,-0.01613 -2.734797,-0.53407 z M 46.036092,76.321671 c -0.653819,-0.315325 -0.648802,-0.252719 -0.170027,-2.121559 0.555933,-2.17002 0.207775,-4.297473 -1.121376,-6.852269 -0.979694,-1.883095 -1.86158,-4.929511 -1.56563,-5.408367 0.07558,-0.12229 0.39335,-0.222347 0.706156,-0.222347 0.824251,0 2.896362,-1.473045 3.168474,-2.25244 0.291568,-0.83512 -0.256807,-1.523623 -1.743322,-2.1888 -0.841894,-0.376726 -1.073577,-0.628001 -1.262536,-1.369296 -0.354311,-1.389986 -0.563719,-2.495896 -0.472606,-2.495896 0.04516,0 0.465677,0.110008 0.934491,0.244462 0.468815,0.134455 1.469167,0.258405 2.223005,0.275445 l 1.370614,0.03098 0.157374,2.572089 c 0.08656,1.414648 0.157375,3.385744 0.157375,4.380213 0,1.468149 0.187993,2.368244 0.999821,4.787055 0.83961,2.501587 1.003601,3.311686 1.023413,5.055538 0.04979,4.382925 -1.858344,6.793504 -4.405226,5.565189 z m -2.894116,-1.5161 c -0.808142,-0.35182 -1.262504,-1.225023 -1.789094,-3.438322 -0.462035,-1.941966 -1.817458,-3.689561 -4.355098,-5.61518 -2.685845,-2.038081 -4.090736,-3.817366 -5.181391,-6.562194 -1.486427,-3.740862 -1.721323,-4.378624 -1.721323,-4.673534 0,-0.278883 3.346092,-1.786037 3.491305,-1.572561 0.03758,0.05525 0.380937,1.0899 0.763006,2.299218 1.290903,4.085946 2.499467,5.827466 5.049749,7.276604 1.637564,0.930507 4.068378,3.646972 4.951865,5.53377 0.624031,1.332696 0.767503,1.980928 0.84894,3.835648 0.08866,2.019292 0.04879,2.281127 -0.418534,2.748452 -0.599695,0.599695 -0.638823,0.603707 -1.639425,0.168099 z m 6.908704,-9.881914 c -0.463669,-2.29266 0.04373,-4.543842 1.574399,-6.985104 1.412682,-2.253087 2.092146,-4.437764 2.291919,-7.369195 0.1055,-1.548072 0.07536,-2.649212 -0.08048,-2.940407 -0.198445,-0.370798 -0.166095,-0.467468 0.158972,-0.475061 0.224463,-0.0052 0.765414,-0.09251 1.202112,-0.193917 l 0.793997,-0.184383 v 3.118715 c 0,4.280665 -0.38112,5.694923 -2.347699,8.711812 -1.907312,2.925969 -2.501147,4.065236 -3.022368,5.798388 l -0.404095,1.343687 z m -7.163306,-6.260363 c -0.200273,-0.521904 0.07414,-1.099381 0.522419,-1.099381 0.517983,0 0.734479,0.655947 0.363879,1.102492 -0.384759,0.463606 -0.707637,0.462473 -0.886298,-0.0031 z m 23.36194,-2.691195 c -0.358835,-0.43237 -0.109744,-0.851254 0.506202,-0.851254 0.302391,0 0.474196,0.167558 0.474196,0.462476 0,0.591225 -0.611223,0.833606 -0.980398,0.388778 z M 63.91708,55.097401 c -0.215381,-0.348494 0.497625,-1.0615 0.846119,-0.846119 0.465581,0.287745 0.312467,1.11387 -0.206444,1.11387 -0.260808,0 -0.548662,-0.120488 -0.639675,-0.267751 z m 3.801245,-0.927645 c 0,-0.591226 0.611223,-0.833607 0.980398,-0.388779 0.358835,0.43237 0.109744,0.851254 -0.506202,0.851254 -0.302391,0 -0.474196,-0.167558 -0.474196,-0.462475 z m -2.081404,-0.278205 c -0.09488,-0.153517 -0.05755,-0.394078 0.08295,-0.534581 0.328323,-0.328323 1.093795,-0.04194 0.960218,0.359239 -0.135983,0.408405 -0.827314,0.524607 -1.043172,0.175342 z M 20.008269,53.259042 c -0.601648,-0.601648 0.204498,-1.703881 1.049927,-1.435552 0.779046,0.247259 0.580518,1.439802 -0.255929,1.537346 -0.340951,0.03976 -0.69825,-0.006 -0.793998,-0.101794 z m 5.452708,-0.281567 c -0.605475,-0.490284 -0.474229,-1.17348 0.270863,-1.409963 1.007427,-0.319745 1.648516,1.090513 0.721314,1.586737 -0.352239,0.188512 -0.594335,0.145379 -0.992177,-0.176774 z m 47.072355,0.03635 c -0.5583,-0.558301 0.172262,-1.690938 0.908455,-1.408435 0.598405,0.22963 0.412325,1.417336 -0.236611,1.510229 -0.274267,0.03926 -0.576596,-0.0065 -0.671844,-0.101794 z m 5.405606,-0.272892 c -0.766681,-0.171478 -0.811879,-1.337218 -0.06299,-1.624594 0.747017,-0.286657 1.462745,0.429071 1.176088,1.176088 -0.158699,0.413564 -0.555136,0.573302 -1.113099,0.448506 z m 3.011659,-0.03345 c -0.179717,-0.113915 -0.289655,-0.46953 -0.244307,-0.790257 0.06181,-0.437156 0.235351,-0.583138 0.693219,-0.583138 0.457868,0 0.631408,0.145982 0.693219,0.583138 0.0705,0.498581 -0.276187,0.997374 -0.693219,0.997374 -0.06718,0 -0.269195,-0.0932 -0.448912,-0.207117 z M 45.092711,52.328451 c -0.243249,-0.633896 0.09769,-1.157815 0.697982,-1.072574 0.403774,0.05734 0.550783,0.241231 0.550783,0.688979 0,0.447748 -0.147009,0.631643 -0.550783,0.688979 -0.330371,0.04691 -0.609689,-0.07529 -0.697982,-0.305384 z m 4.793796,-0.01402 c -0.405939,-0.489127 -0.135538,-1.102492 0.486032,-1.102492 0.277172,0 0.567767,0.166307 0.645766,0.369571 0.140385,0.365835 -0.289884,1.09627 -0.645766,1.09627 -0.101463,0 -0.320178,-0.163507 -0.486032,-0.363349 z M 41.34297,51.101572 c -0.255688,-0.308086 -0.255688,-0.448415 0,-0.7565 0.489823,-0.590201 1.333903,-0.350848 1.333903,0.37825 0,0.729098 -0.84408,0.968451 -1.333903,0.37825 z M 22.286331,50.740288 c -0.191537,-0.35789 -0.156996,-0.56707 0.143211,-0.867277 0.751948,-0.751948 2.002253,0.142627 1.330545,0.951986 -0.438602,0.528484 -1.168023,0.486558 -1.473756,-0.08471 z m 53.017873,0.120088 c -0.618061,-0.744718 0.357197,-1.719976 1.101915,-1.101915 0.522053,0.433265 0.34593,1.314673 -0.280585,1.404187 -0.280496,0.04008 -0.650094,-0.09595 -0.82133,-0.302272 z m 8.686665,-0.03488 c -0.256747,-0.669073 -0.16351,-1.054064 0.317636,-1.311565 0.35385,-0.189374 0.596742,-0.143429 1.00975,0.191004 0.462591,0.374584 0.501188,0.520023 0.258397,0.973682 -0.334777,0.625536 -1.365471,0.721002 -1.585783,0.146879 z M 27.765573,50.46513 c -0.08776,-0.142006 -0.09042,-0.533721 -0.0059,-0.870479 0.122372,-0.487569 0.283769,-0.596709 0.792356,-0.535805 0.838721,0.100436 1.261749,0.753833 0.827113,1.277537 -0.363692,0.438223 -1.372555,0.51872 -1.613572,0.128747 z m 4.702346,0.106537 c -0.601648,-0.601649 0.204497,-1.703881 1.049927,-1.435552 0.779046,0.247259 0.580517,1.439801 -0.25593,1.537346 -0.34095,0.03976 -0.698249,-0.006 -0.793997,-0.101794 z m 14.632615,-0.479093 c -0.206427,-0.537941 -0.204178,-0.543685 0.323356,-0.826013 0.565615,-0.302708 1.300545,0.277886 1.079829,0.853064 -0.18416,0.479911 -1.21628,0.460014 -1.403185,-0.02705 z m -3.321698,-0.221215 c -0.405939,-0.489126 -0.135538,-1.102492 0.486031,-1.102492 0.277172,0 0.567767,0.166307 0.645767,0.369572 0.140384,0.365835 -0.289884,1.096269 -0.645767,1.096269 -0.101463,0 -0.320177,-0.163507 -0.486031,-0.363349 z m 35.404916,-0.02359 c -0.632084,-0.761614 0.593017,-1.716009 1.37242,-1.069162 0.452866,0.375845 0.446869,0.596133 -0.02919,1.07219 -0.488685,0.488684 -0.935985,0.487676 -1.343233,-0.003 z M 61.884363,48.682141 c -0.212897,-0.256525 -0.1992,-0.403896 0.05732,-0.616793 0.256525,-0.212896 0.403896,-0.1992 0.616793,0.05732 0.212896,0.256525 0.1992,0.403896 -0.05733,0.616793 -0.256525,0.212896 -0.403896,0.1992 -0.616792,-0.05732 z M 25.040231,48.124893 c -0.384385,-1.001692 1.131013,-1.762721 1.634966,-0.821076 0.209632,0.3917 0.206348,0.605139 -0.01338,0.8699 -0.394769,0.475668 -1.432303,0.444429 -1.621582,-0.04882 z m 5.406917,0.04752 c -0.379708,-0.281961 -0.420229,-0.44022 -0.203298,-0.793997 0.149013,-0.243015 0.521814,-0.441846 0.828447,-0.441846 0.306634,0 0.679435,0.198831 0.828448,0.441846 0.216931,0.353777 0.17641,0.512036 -0.203298,0.793997 -0.260827,0.193683 -0.542145,0.352151 -0.62515,0.352151 -0.08301,0 -0.364322,-0.158468 -0.625149,-0.352151 z m 12.385854,-0.953497 c -1.101974,-4.287698 -1.502207,-6.102602 -1.374044,-6.230765 0.309521,-0.309521 3.912056,-1.468757 4.059686,-1.306339 0.16446,0.180932 1.454044,4.319958 1.917813,6.155377 0.152784,0.60466 0.32656,1.26952 0.38617,1.477469 0.09163,0.319659 -0.129058,0.362968 -1.428084,0.280253 -1.017344,-0.06478 -1.834486,0.02669 -2.418536,0.270718 l -0.882073,0.368554 z m 17.474682,0.654164 c -0.357946,-0.357947 -0.151884,-1.058663 0.311324,-1.058663 0.623613,0 0.86365,0.420556 0.494151,0.865775 -0.322527,0.388621 -0.55425,0.444112 -0.805475,0.192888 z M 36.750716,47.508971 c -0.466365,-0.466364 -0.364711,-0.887604 0.322924,-1.33816 0.598586,-0.392209 0.6503,-0.386849 1.157066,0.119917 0.419309,0.419309 0.474825,0.619358 0.264918,0.954617 -0.326843,0.522026 -1.334298,0.674236 -1.744908,0.263626 z m 34.805389,0.130103 c -0.323552,-0.323552 -0.174936,-1.260324 0.224249,-1.413505 0.541437,-0.207769 1.108061,0.311484 1.019128,0.933926 -0.07225,0.505663 -0.898574,0.824383 -1.243377,0.479579 z m 4.028901,-0.873523 c -0.386415,-0.386415 -0.371007,-0.803937 0.04233,-1.146974 0.730956,-0.606639 1.651778,0.395195 0.980362,1.066612 -0.450263,0.450263 -0.638033,0.465018 -1.022689,0.08036 z m 6.935807,-0.592871 c -0.171109,-0.445903 0.243154,-1.068415 0.710998,-1.068415 0.168647,0 0.443492,0.164907 0.610767,0.36646 0.242642,0.292366 0.242642,0.440555 0,0.73292 -0.401959,0.484331 -1.130577,0.467262 -1.321765,-0.03097 z M 33.564227,46.032631 c -0.778688,-0.778688 0.186389,-1.944823 1.172673,-1.41698 0.584444,0.312785 0.652343,1.350736 0.102172,1.561856 -0.579973,0.222557 -0.949393,0.180575 -1.274845,-0.144876 z M 50.9495,45.959339 c -0.210977,-0.549797 0.08299,-1.099381 0.588044,-1.099381 0.688345,0 1.054223,0.482493 0.769419,1.014654 -0.29037,0.542563 -1.160924,0.596899 -1.357463,0.08473 z m 3.368987,0.153649 c -0.545094,-0.351125 -0.231421,-1.130877 0.454921,-1.130877 0.484153,0 0.607421,0.123269 0.607421,0.607422 0,0.641455 -0.498123,0.886899 -1.062342,0.523455 z m -26.12901,-0.324664 c -0.816316,-0.816316 0.222231,-1.950139 1.325729,-1.447352 0.988488,0.450386 0.603404,1.74052 -0.519517,1.74052 -0.282174,0 -0.64497,-0.131926 -0.806212,-0.293168 z m 51.988498,-0.806213 c -0.242642,-0.292366 -0.242642,-0.440554 0,-0.73292 0.167274,-0.201553 0.442119,-0.36646 0.610767,-0.36646 0.168648,0 0.443493,0.164907 0.610767,0.36646 0.242642,0.292366 0.242642,0.440554 0,0.73292 -0.167274,0.201553 -0.442119,0.366461 -0.610767,0.366461 -0.168648,0 -0.443493,-0.164908 -0.610767,-0.366461 z m -2.843335,-0.73292 c -0.07734,-0.201553 -0.07438,-0.539078 0.0066,-0.750056 0.20177,-0.525804 1.220704,-0.348122 1.331383,0.232168 0.147017,0.7708 -1.061414,1.238552 -1.337959,0.517888 z m -23.99338,-0.33863 c -0.418535,-0.264944 -0.27031,-1.101193 0.210073,-1.185176 0.653396,-0.11423 1.128846,0.358744 0.834815,0.830467 -0.326021,0.523044 -0.620857,0.623133 -1.044888,0.354709 z m 3.057515,0.0536 c -0.309486,-0.309485 -0.161468,-1.006925 0.246963,-1.163655 0.229183,-0.08795 0.56992,0.0028 0.773011,0.205907 0.298395,0.298396 0.307111,0.430729 0.04886,0.741898 -0.329879,0.397479 -0.793569,0.49112 -1.068839,0.21585 z M 30.44277,39.619594 c -0.299693,-1.194072 1.056916,-1.836424 1.702708,-0.80623 0.36796,0.586985 -0.08091,1.260279 -0.906071,1.359093 -0.512522,0.06137 -0.669882,-0.04783 -0.796637,-0.552863 z m 4.701308,0.191356 c -0.324955,-0.324955 -0.15244,-1.291361 0.270975,-1.517966 0.903561,-0.483571 1.712532,0.658271 0.983134,1.387669 -0.319416,0.319415 -0.994819,0.389587 -1.254109,0.130297 z M 63.47367,38.870254 c -0.495679,-0.495679 -0.498104,-0.715057 -0.01326,-1.199897 0.793391,-0.793391 1.930021,-0.225725 1.772528,0.885253 -0.09962,0.702755 -1.178242,0.895666 -1.759264,0.314644 z m 6.219101,0.02827 c -0.554378,-0.667984 -0.222217,-1.245622 0.716276,-1.245622 0.783493,0 0.851728,0.05872 0.851728,0.732921 0,0.606448 -0.109002,0.745591 -0.631679,0.806349 -0.347423,0.04038 -0.768769,-0.09176 -0.936325,-0.293648 z M 74.36897,38.61628 c -0.918262,-0.643175 -0.558653,-1.818448 0.556408,-1.818448 1.028814,0 1.453378,1.076943 0.71547,1.814851 -0.476931,0.476931 -0.59562,0.477267 -1.271878,0.0036 z M 40.584335,38.233908 c -0.22986,-0.429497 -0.188863,-0.606943 0.239106,-1.034913 0.408298,-0.408297 0.605411,-0.460564 0.940676,-0.249432 0.539717,0.339883 0.671208,0.991382 0.292249,1.448 -0.427532,0.515144 -1.151846,0.434617 -1.472031,-0.163655 z m 16.343333,-1.062381 c -0.358971,-0.787854 0.08015,-1.350922 1.053535,-1.350922 0.877479,0 1.457452,0.967004 0.94808,1.58076 -0.506041,0.609742 -1.680524,0.474881 -2.001615,-0.229838 z M 33.60919,36.445643 c -0.283661,-0.739209 0.01999,-1.234605 0.803446,-1.310803 0.606147,-0.05895 0.806032,0.03502 0.934334,0.43926 0.09059,0.285426 0.03222,0.672109 -0.131186,0.868996 -0.379536,0.457313 -1.431444,0.45898 -1.606594,0.0025 z m 3.833147,-0.102676 c -0.557774,-1.04221 1.141456,-1.737239 1.775122,-0.726071 0.184374,0.294214 0.166067,0.514327 -0.06604,0.793998 -0.437265,0.526872 -1.411477,0.488153 -1.709082,-0.06793 z m 29.194058,0.07095 c -0.5293,-0.529301 -0.480773,-1.257207 0.104703,-1.570544 1.079638,-0.577805 2.139026,0.893429 1.144781,1.589826 -0.652534,0.457052 -0.77504,0.455162 -1.249484,-0.01928 z M 46.229052,35.710175 c -0.624889,-0.752945 0.326798,-1.830242 1.290241,-1.460535 0.989132,0.379566 0.637262,1.815272 -0.444897,1.815272 -0.303016,0 -0.683421,-0.159632 -0.845344,-0.354737 z m 15.270118,0.02629 c -0.560203,-0.409631 -0.342886,-1.610991 0.299369,-1.654953 1.399678,-0.09581 1.995901,0.741941 1.138352,1.59949 -0.470174,0.470174 -0.850505,0.484846 -1.437721,0.05546 z m 9.052177,-0.23493 c -0.268227,-0.196133 -0.403884,-0.549129 -0.352078,-0.916151 0.120267,-0.852045 1.507133,-0.995677 1.93287,-0.20018 0.252458,0.471722 0.217109,0.609091 -0.25514,0.991496 -0.65362,0.529269 -0.758986,0.539191 -1.325652,0.124835 z M 42.249336,35.312423 c -0.573049,-0.333771 -0.540132,-1.02434 0.07538,-1.581368 0.545658,-0.493813 1.062936,-0.337002 1.557367,0.472112 0.207764,0.339996 0.143639,0.522526 -0.316122,0.899823 -0.657198,0.539323 -0.730277,0.550947 -1.316622,0.209433 z m 11.348053,-0.02929 c -0.605667,-0.605667 -0.15896,-1.661286 0.703007,-1.661286 0.620399,0 1.033395,0.644687 0.858753,1.340515 -0.168706,0.672179 -1.032862,0.849669 -1.56176,0.320771 z M 38.694671,33.084368 C 38.2218,32.611497 38.355736,31.952947 39.01227,31.52277 c 0.565783,-0.370716 0.655751,-0.370716 1.221534,0 0.702813,0.4605 0.774222,0.923491 0.226857,1.470856 -0.455644,0.455644 -1.354883,0.50185 -1.76599,0.09074 z m 11.060353,-0.202901 c -0.349201,-0.385863 -0.370955,-0.5397 -0.119209,-0.843035 0.403282,-0.485926 1.376958,-0.47635 1.56566,0.0154 0.201733,0.525708 0.219748,0.48777 -0.435507,0.91711 -0.540022,0.353836 -0.615826,0.347127 -1.010944,-0.08947 z m 8.947159,0.157578 c -0.225359,-0.271542 -0.233326,-0.490439 -0.03157,-0.867426 0.485376,-0.906933 1.821487,-0.508499 1.678804,0.500626 -0.09855,0.697008 -1.174369,0.936567 -1.647235,0.3668 z m 5.511558,-0.108282 c -0.504785,-0.55778 -0.509577,-0.878915 -0.02041,-1.368077 0.72981,-0.72981 2.303464,-0.241023 2.303464,0.71547 0,0.9923 -1.569595,1.440967 -2.28305,0.652607 z M 44.257656,32.02516 c -0.443896,-0.534862 -0.01528,-1.212845 0.766758,-1.212845 0.486174,0 0.584141,0.122919 0.584141,0.73292 0,0.55702 -0.122398,0.750409 -0.509992,0.805787 -0.280495,0.04008 -0.658903,-0.106561 -0.840907,-0.325862 z"
       id="path42" /></g></svg>
