<?xml version="1.0" encoding="UTF-8" standalone="no"?>
<!-- Created with Inkscape (http://www.inkscape.org/) -->

<svg
   width="100mm"
   height="100mm"
   viewBox="0 0 100 100"
   version="1.1"
   id="svg1"
   inkscape:version="1.4 (86a8ad7, 2024-10-11)"
   sodipodi:docname="bush4.svg"
   xml:space="preserve"
   xmlns:inkscape="http://www.inkscape.org/namespaces/inkscape"
   xmlns:sodipodi="http://sodipodi.sourceforge.net/DTD/sodipodi-0.dtd"
   xmlns="http://www.w3.org/2000/svg"
   xmlns:svg="http://www.w3.org/2000/svg"><sodipodi:namedview
     id="namedview1"
     pagecolor="#ffffff"
     bordercolor="#000000"
     borderopacity="0.25"
     inkscape:showpageshadow="2"
     inkscape:pageopacity="0.0"
     inkscape:pagecheckerboard="true"
     inkscape:deskcolor="#d1d1d1"
     inkscape:document-units="mm"
     inkscape:zoom="1.243451"
     inkscape:cx="447.94687"
     inkscape:cy="135.50996"
     inkscape:window-width="1920"
     inkscape:window-height="1009"
     inkscape:window-x="1912"
     inkscape:window-y="-8"
     inkscape:window-maximized="1"
     inkscape:current-layer="layer1" /><defs
     id="defs1" /><g
     inkscape:label="Warstwa 1"
     inkscape:groupmode="layer"
     id="layer1"><path
       style="fill:#611415;fill-opacity:1;stroke-width:1.04428"
       d="m 56.016148,78.747141 c -0.64921,-0.308854 -1.029846,-0.33291 -1.513329,-0.09564 -0.358247,0.175816 -1.3083,0.243533 -2.133084,0.152041 -0.817924,-0.09073 -2.279791,-0.145296 -3.248601,-0.121255 -3.114423,0.07728 -3.743523,-0.0032 -5.167418,-0.661166 -3.449268,-1.593844 -5.639812,-4.274277 -6.334322,-7.750904 -0.191463,-0.958434 -0.348116,-1.850492 -0.348116,-1.982351 0,-0.131859 0.706222,-0.239744 1.569381,-0.239744 h 1.569393 l 0.395184,1.541828 c 0.523985,2.044328 1.037163,2.921418 2.4406,4.171278 1.653112,1.472211 1.878948,1.293094 0.630725,-0.500257 -1.364123,-1.959881 -2.762086,-4.489623 -2.762086,-4.998249 0,-0.23437 0.63873,-0.512272 1.586699,-0.690341 1.558793,-0.29281 1.593199,-0.283673 1.956049,0.51963 0.203153,0.449725 0.570059,0.970424 0.815372,1.15711 0.346874,0.263983 0.331105,0.08725 -0.07099,-0.795103 -0.424093,-0.930749 -0.449055,-1.306679 -0.139009,-2.092932 0.459656,-1.165653 0.234757,-1.94546 -0.965439,-3.347455 -0.632972,-0.739407 -1.017828,-1.646381 -1.246184,-2.936817 -0.519023,-2.93314 -0.475151,-3.188595 0.547639,-3.188595 0.485566,0 1.33433,-0.118736 1.886146,-0.263858 l 1.003302,-0.263857 0.38514,2.805784 c 0.363962,2.651593 1.666002,7.858779 2.054032,8.214593 0.336153,0.308254 0.447365,-0.659636 0.797499,-6.940921 0.192739,-3.457627 0.397342,-6.329612 0.454671,-6.382188 0.05736,-0.05258 1.120861,0.133256 2.363391,0.412961 l 2.259148,0.508556 -0.159499,4.552065 c -0.08768,2.503636 -0.06183,4.468587 0.05747,4.366557 0.220886,-0.188864 1.525608,-5.255855 1.937302,-7.523635 0.124625,-0.68648 0.36984,-1.248147 0.544924,-1.248147 0.20528,0 0.273688,2.37267 0.192619,6.681258 -0.112248,5.965477 -0.203459,6.897328 -0.851371,8.69811 -1.076455,2.99184 -1.092028,3.070558 -0.372817,1.883811 1.398202,-2.307131 1.933343,-5.516649 1.935764,-11.609807 l 0.0022,-5.653372 H 59.85 c 1.725719,0 1.761466,0.0171 1.761466,0.842403 0,0.606828 -0.403024,1.211974 -1.441191,2.16397 -1.224864,1.123186 -1.441201,1.496874 -1.441201,2.489419 0,1.314636 0.563429,1.941083 2.222953,2.471574 l 1.060424,0.338982 -0.213579,2.413775 c -0.221299,2.500999 -1.216107,6.800673 -1.808173,7.815125 -0.683823,1.171682 0.95412,-0.110966 2.10521,-1.648553 1.434997,-1.916806 2.052014,-3.597536 2.297218,-6.257457 l 0.199827,-2.167719 0.951285,0.174465 c 0.523211,0.09596 1.302302,0.174466 1.731324,0.174466 0.774947,0 0.778601,0.01384 0.56078,2.129192 -0.270439,2.62631 -1.337439,5.822046 -2.511604,7.522385 -2.790625,4.041186 -6.886617,6.311242 -9.308645,5.158984 z M 34.988313,67.181477 c -1.875328,-0.315234 -2.841302,-0.786117 -2.841302,-1.385055 0,-1.55346 3.165001,-4.036005 5.566517,-4.366242 2.288625,-0.314712 5.74099,1.280149 6.787248,3.135451 0.649919,1.152465 0.418554,1.642356 -1.039464,2.200986 -1.39107,0.53298 -6.331311,0.774866 -8.472999,0.41486 z m 26.943472,-4.478924 c -1.791641,-0.360615 -2.562128,-0.967908 -2.562128,-2.019456 0,-1.969888 3.562344,-4.08962 6.868547,-4.087054 2.32857,0.0018 3.848453,0.73063 5.489624,2.632429 1.489665,1.726213 1.483961,2.826204 -0.01767,3.401526 -1.28975,0.494157 -7.456437,0.539914 -9.778421,0.07256 z m -20.81731,-1.574412 c -0.616516,-0.213899 -1.354287,-0.396367 -1.639502,-0.405483 -0.505839,-0.01617 -0.910597,-1.284446 -0.919103,-2.879972 -0.0033,-0.604498 0.144548,-0.660784 1.73489,-0.660784 h 1.738423 l 0.209414,1.688669 c 0.11517,0.928769 0.27938,1.919944 0.364888,2.202613 0.177428,0.586469 0.05584,0.590955 -1.48901,0.05496 z m -5.924928,-4.808564 c -2.288538,-0.347314 -3.362801,-0.869248 -3.362801,-1.633818 0,-1.457925 3.715345,-4.554126 6.202608,-5.168973 1.597997,-0.395022 4.356278,-0.141837 5.933969,0.544685 0.631227,0.274669 1.844139,1.114976 2.695368,1.867347 1.33541,1.180314 1.533558,1.503483 1.444604,2.356051 -0.0952,0.912699 -0.237505,1.028961 -1.864411,1.523526 -2.006889,0.610074 -8.437427,0.907574 -11.049337,0.511182 z m 18.095049,-2.377203 c -2.139899,-0.401638 -4.083134,-1.137507 -4.286374,-1.62317 -0.529765,-1.265954 1.471823,-3.203177 4.926904,-4.768476 2.206127,-0.999466 2.623993,-1.087763 5.124267,-1.08277 3.03874,0.0061 5.181093,0.652995 8.222255,2.482886 2.849514,1.714574 2.832719,3.041772 -0.05551,4.380499 -1.502326,0.696361 -1.937935,0.746555 -7.045855,0.811889 -2.994498,0.0383 -6.093076,-0.05208 -6.885733,-0.200858 z m -9.051554,-4.47284 -1.845567,-0.901164 0.180099,-1.493446 c 0.424508,-3.519965 0.295499,-3.311604 2.15689,-3.483582 0.920925,-0.08509 1.780867,-0.06347 1.910977,0.04803 0.274975,0.235641 -0.08015,6.801767 -0.365576,6.759588 C 46.16463,50.38341 45.2481,49.965173 44.233042,49.469534 Z m 6.282358,-2.59811 c 0.113883,-0.999147 0.207069,-2.233322 0.207069,-2.742612 0,-0.891964 0.0735,-0.942553 2.001664,-1.377092 1.100915,-0.248111 2.25387,-0.553034 2.562128,-0.677607 0.492328,-0.198962 0.560463,-0.04648 0.560463,1.254213 0,1.917405 -0.412893,2.870418 -1.337776,3.087737 -0.409175,0.09614 -1.521704,0.646673 -2.47228,1.223399 l -1.728325,1.048592 z m 7.129454,-3.052037 c 0.114603,-0.969149 0.249195,-1.806028 0.299087,-1.859732 0.04995,-0.0537 0.895515,-0.0054 1.879155,0.10726 l 1.788424,0.204901 v 1.700707 1.700706 l -2.08751,-0.04588 -2.087522,-0.04588 z M 38.071939,42.588303 c -2.411243,-0.508439 -3.100998,-0.780344 -3.540752,-1.395778 -0.741402,-1.037595 -0.01887,-2.319703 2.499903,-4.436134 2.950267,-2.478985 4.599333,-3.181094 7.778828,-3.311933 2.27532,-0.09363 2.870844,-1.51e-4 5.124266,0.804371 2.975938,1.062475 6.049466,3.041934 6.600835,4.251171 1.243653,2.72751 -3.690688,4.326194 -13.140567,4.257434 -2.575083,-0.01874 -4.970219,-0.09485 -5.322513,-0.169131 z m 21.45785,-1.153336 c -2.459858,-0.233474 -2.771235,-0.36025 -2.409051,-0.980831 0.787368,-1.349093 0.109151,-2.825881 -2.005503,-4.366905 l -1.196718,-0.872087 1.458061,-0.783549 c 2.926156,-1.572498 7.288278,-1.522294 9.88141,0.113727 2.0869,1.316644 3.743163,3.291251 3.95069,4.710046 0.167984,1.148444 0.135715,1.198844 -1.061166,1.657424 -1.242443,0.47603 -6.040676,0.766771 -8.617723,0.522175 z m -7.606328,-7.209856 c -1.159476,-0.574745 -1.200992,-0.650166 -1.200992,-2.181782 v -1.586456 h 2.562127 2.562128 v 1.560855 c 0,1.508192 -0.04057,1.579773 -1.200992,2.12153 -0.660551,0.308371 -1.273065,0.587788 -1.361136,0.620926 -0.08811,0.03314 -0.700584,-0.207645 -1.361135,-0.535073 z m -4.243528,-4.665842 c -8.109954,-0.361655 -10.827798,-1.729653 -8.863429,-4.46131 0.928362,-1.290979 4.733566,-3.902645 7.737573,-5.310609 3.755193,-1.760042 6.397736,-2.191126 9.431874,-1.538643 3.165394,0.680707 6.903269,2.600051 9.676141,4.968555 2.446914,2.090073 2.840571,2.921657 2.035798,4.300551 -0.64812,1.110506 -3.627209,1.785865 -9.118916,2.067262 -2.823832,0.144694 -5.350419,0.246283 -5.614642,0.225752 -0.264223,-0.02053 -2.642205,-0.133732 -5.284399,-0.251558 z"
       id="path46" /><path
       style="fill:#ac7e47;fill-opacity:1;stroke-width:1.04428"
       d="m 51.591091,78.731928 c -0.109412,-0.100328 -1.538596,-0.16509 -3.175972,-0.143915 -2.517427,0.03256 -3.224282,-0.06847 -4.578384,-0.654374 -1.956146,-0.846399 -4.128794,-2.7952 -5.112576,-4.585842 -0.704521,-1.282352 -0.851796,-1.763277 -1.285682,-4.198368 l -0.196229,-1.101306 h 1.593144 1.593134 l 0.357375,1.57858 c 0.409862,1.810396 1.827094,4.027311 3.040747,4.756522 1.072005,0.644094 1.308169,0.411612 0.517824,-0.509743 -0.867184,-1.010929 -3.229997,-5.175102 -3.229997,-5.692471 0,-0.234613 0.270221,-0.42657 0.600496,-0.42657 0.330276,0 1.039879,-0.08058 1.576896,-0.179069 0.896944,-0.164498 1.032321,-0.07854 1.663701,1.056345 0.866703,1.557853 1.129094,1.393061 0.419491,-0.263459 -0.426558,-0.99575 -0.458674,-1.366805 -0.156697,-1.81021 0.734041,-1.07782 0.375554,-2.346774 -1.072442,-3.796195 -0.529525,-0.530042 -0.837979,-1.376436 -1.109268,-3.043788 -0.206676,-1.270272 -0.255324,-2.413187 -0.108071,-2.539812 0.147221,-0.126625 1.011569,-0.320557 1.92077,-0.430961 l 1.653112,-0.200734 0.213535,2.006342 c 0.21359,2.006761 1.444801,7.230439 2.030335,8.614178 0.488096,1.153452 0.600212,0.414494 1.001252,-6.599204 0.202914,-3.548799 0.397386,-6.478452 0.432163,-6.510338 0.03479,-0.03189 0.851066,0.129424 1.813986,0.358468 0.962921,0.229045 1.971567,0.416428 2.241438,0.416407 0.425195,-3.2e-5 0.475653,0.636711 0.378172,4.772327 -0.06183,2.6248 -0.02999,4.699033 0.07099,4.609406 0.248421,-0.220667 2.123279,-7.703563 2.123279,-8.474379 0,-0.337499 0.156109,-0.613635 0.346896,-0.613635 0.242543,0 0.307712,1.965921 0.216643,6.534417 -0.121441,6.092165 -0.188279,6.7019 -0.987436,9.009044 -1.019431,2.943082 -1.043488,3.184935 -0.164734,1.656531 1.471867,-2.559978 1.96402,-5.478027 1.947433,-11.54662 l -0.01548,-5.653372 h 1.730321 c 1.691433,0 1.730321,0.01893 1.730321,0.842403 0,0.606828 -0.403024,1.211974 -1.441191,2.16397 -1.234678,1.132183 -1.441202,1.492392 -1.441202,2.513621 0,0.941128 0.17949,1.321522 0.852702,1.807113 0.46899,0.338283 1.202911,0.69566 1.630931,0.79417 0.768632,0.176899 0.775448,0.208542 0.55212,2.563333 -0.204364,2.154781 -1.269379,6.586073 -1.896462,7.890754 -0.457583,0.952029 0.400254,0.535094 1.552839,-0.754722 1.820943,-2.037756 2.790298,-4.301752 2.990888,-6.98538 0.140383,-1.877999 0.267614,-2.315944 0.635251,-2.186578 0.252838,0.08897 0.952343,0.161766 1.554453,0.161766 h 1.094732 l -0.0033,1.83551 c -0.0076,3.719211 -1.843899,7.761716 -4.752431,10.462789 -0.99508,0.924098 -2.33543,1.905018 -2.978566,2.179821 -1.316849,0.562677 -3.806316,0.665286 -4.336888,0.178755 -0.253077,-0.232064 -0.530932,-0.232064 -1.003804,0 -0.704314,0.345651 -2.704397,0.437056 -3.030006,0.138473 z M 37.460407,66.102579 c -0.118682,-0.283593 -0.02028,-0.684608 0.222641,-0.907364 0.61247,-0.561634 1.566623,-0.156512 1.446687,0.614254 -0.122858,0.78964 -1.369914,1.008604 -1.669328,0.29311 z m -3.068141,-1.134374 c -0.470005,-0.519306 -0.20986,-1.325307 0.427746,-1.325307 0.248181,0 0.630649,0.198235 0.849932,0.440523 0.318083,0.351453 0.318083,0.529591 0,0.881044 -0.501259,0.553849 -0.77907,0.554662 -1.277678,0.0037 z m 6.828491,-0.02651 c -0.106653,-0.254812 0.01254,-0.652575 0.264823,-0.883917 0.618228,-0.566905 1.688467,0.08841 1.373524,0.841017 -0.265281,0.633922 -1.378813,0.66308 -1.638347,0.0429 z m -3.187248,-1.725254 c -0.246185,-0.588285 0.119162,-1.041949 0.839103,-1.041949 0.800683,0 1.109007,0.510255 0.628882,1.04075 -0.496416,0.548498 -1.238702,0.549104 -1.467985,0.0012 z m 26.896493,-1.482472 c -0.25371,-0.606282 0.09029,-1.321567 0.635589,-1.321567 0.248181,0 0.630649,0.198235 0.849932,0.440522 0.318083,0.351454 0.318083,0.529592 0,0.881045 -0.219283,0.242288 -0.601751,0.440523 -0.849932,0.440523 -0.248181,0 -0.534192,-0.198235 -0.635589,-0.440523 z m 4.861778,0.04534 c -0.745743,-0.500034 -0.449611,-1.366908 0.46694,-1.366908 0.840117,0 1.189182,0.797479 0.589689,1.347212 -0.389229,0.356917 -0.549263,0.3599 -1.056629,0.0197 z M 41.114475,61.096782 c -0.616516,-0.196651 -1.353556,-0.365007 -1.637866,-0.374123 -0.368063,-0.0118 -0.5756,-0.409001 -0.720607,-1.379133 -0.332435,-2.224101 -0.376732,-2.161623 1.532315,-2.161623 h 1.73597 l 0.220351,1.886817 c 0.121201,1.037749 0.168693,1.999044 0.105563,2.136212 -0.06314,0.137168 -0.619221,0.0885 -1.235726,-0.10815 z m 20.81538,-1.127048 c -0.354387,-0.391555 -0.34057,-0.543849 0.08473,-0.9338 0.686812,-0.629799 1.592349,-0.279898 1.460984,0.564528 -0.125126,0.804383 -0.969332,1.006069 -1.545663,0.369272 z m 4.82072,-0.862566 c -0.864948,-0.95568 0.566461,-2.105495 1.525881,-1.225711 0.407877,0.374018 0.449644,0.603499 0.181037,0.994625 -0.467638,0.680948 -1.208942,0.781307 -1.706918,0.231086 z m -21.789522,-4.41782 c -0.570649,-0.630516 -0.148147,-1.385065 0.712515,-1.272485 0.820814,0.107368 1.164874,1.072597 0.516613,1.449318 -0.600409,0.348911 -0.77619,0.323622 -1.229128,-0.176833 z m -10.3833,-0.334645 c -0.228726,-0.546553 0.322751,-1.284344 0.959998,-1.284344 0.517267,0 1.063237,0.882638 0.862886,1.394988 -0.208715,0.533782 -1.588258,0.450048 -1.822884,-0.110644 z m 5.371466,0.03722 c -0.25371,-0.606282 0.09029,-1.321567 0.635589,-1.321567 0.641129,0 1.275901,0.792206 1.055942,1.317827 -0.2401,0.573759 -1.451867,0.576439 -1.691531,0.0037 z m 12.543287,-1.796178 c -0.284659,-0.261035 -0.466525,-0.615025 -0.404147,-0.786643 0.188137,-0.517542 1.075462,-0.899856 1.633101,-0.703633 0.670431,0.235913 0.683212,1.552319 0.01734,1.786625 -0.679123,0.238973 -0.656691,0.244305 -1.246294,-0.296349 z m 6.547432,0.02364 c -0.581914,-0.642959 -0.02007,-1.457964 1.005156,-1.457964 0.637334,0 0.765765,0.147761 0.765765,0.881045 0,0.669594 -0.16046,0.902067 -0.668556,0.968638 -0.367713,0.04818 -0.86377,-0.128098 -1.102365,-0.391719 z M 42.191082,52.042466 c -0.25371,-0.606282 0.0903,-1.321567 0.63559,-1.321567 0.641129,0 1.2759,0.792206 1.055942,1.317827 -0.240101,0.573759 -1.451867,0.576439 -1.691532,0.0037 z m 23.049664,-0.02277 c -0.250983,-0.599753 0.656026,-1.431478 1.310078,-1.201331 0.277876,0.09778 0.505228,0.512323 0.505228,0.921204 0,0.599653 -0.156785,0.743422 -0.810716,0.743422 -0.445893,0 -0.897958,-0.208483 -1.00459,-0.463295 z m -27.84504,-0.250312 c -0.318879,-0.762007 0.128071,-1.391811 0.915003,-1.289342 0.529318,0.06892 0.722035,0.289984 0.722035,0.828222 0,0.538239 -0.192717,0.759299 -0.722035,0.828222 -0.43309,0.05639 -0.799255,-0.09051 -0.915003,-0.367102 z m 6.921426,-2.270672 -1.761466,-0.877415 0.09084,-1.373072 c 0.04995,-0.755189 0.170722,-1.868659 0.268356,-2.474377 l 0.177515,-1.101307 h 1.933486 1.933485 l -0.200165,0.917756 c -0.110099,0.504765 -0.200166,2.024567 -0.200166,3.377338 0,1.352771 -0.10807,2.448088 -0.240209,2.434038 -0.132106,-0.01405 -1.032856,-0.420383 -2.001665,-0.902961 z m 10.475548,0.451426 c -0.385958,-0.353925 -0.250995,-1.194843 0.253383,-1.57869 0.642296,-0.488809 1.510428,0.14321 1.376588,1.002187 -0.09466,0.607858 -1.17796,0.990992 -1.629971,0.576503 z m 7.583809,-0.236525 c -0.318879,-0.762007 0.128071,-1.391812 0.915003,-1.289343 0.529318,0.06892 0.722035,0.289984 0.722035,0.828223 0,0.538238 -0.192717,0.759298 -0.722035,0.828222 -0.43309,0.05639 -0.799255,-0.09051 -0.915003,-0.367102 z m -3.954801,-1.181152 c -0.335183,-0.37035 -0.335183,-0.53904 0,-0.90939 0.642121,-0.709481 1.748642,-0.421755 1.748642,0.454695 0,0.87645 -1.106521,1.164176 -1.748642,0.454695 z m -7.906637,-0.751834 c 0.11408,-0.523055 0.207418,-1.778502 0.207418,-2.789883 V 43.15187 l 1.517047,-0.208612 c 0.83437,-0.114736 1.928665,-0.4038 2.431756,-0.642364 0.503091,-0.238564 0.986061,-0.368323 1.07327,-0.288355 0.08724,0.07997 0.05867,1.001016 -0.06347,2.046772 -0.218715,1.872826 -0.24154,1.909431 -1.51997,2.438068 -0.713845,0.295183 -1.872907,0.918646 -2.575683,1.385475 l -1.277776,0.84878 z m 8.50926,-2.266122 -1.466273,-0.107938 0.144876,-1.674637 c 0.07972,-0.921051 0.167842,-1.701082 0.195923,-1.733403 0.02803,-0.03232 0.874904,0.01921 1.88186,0.114507 l 1.830823,0.173273 v 1.721003 c 0,1.463429 -0.08386,1.71308 -0.560463,1.668067 -0.308258,-0.02911 -1.220294,-0.101507 -2.026746,-0.160872 z M 41.230289,41.176247 c -0.463821,-1.108368 0.946693,-2.100925 1.679557,-1.181874 0.298519,0.374372 0.328476,0.688499 0.102509,1.075603 -0.382752,0.655814 -1.523656,0.72385 -1.782099,0.106271 z m 7.451354,-0.0081 c -0.26768,-0.639669 -0.27347,-0.617706 0.301595,-1.145035 0.690639,-0.633311 1.81801,-0.09203 1.678597,0.805936 -0.125421,0.807858 -1.673112,1.072894 -1.980192,0.339099 z m 17.157397,-1.07849 c -0.5609,-0.514344 -0.470822,-1.052872 0.233971,-1.398756 0.466711,-0.229044 0.741523,-0.190435 1.120937,0.157485 0.276448,0.253504 0.502633,0.557203 0.502633,0.674885 0,0.325675 -0.723605,0.918804 -1.120926,0.918804 -0.193764,0 -0.525239,-0.158588 -0.736615,-0.352418 z M 60.654107,39.41793 c -0.473592,-0.52328 -0.222259,-1.266722 0.516068,-1.526527 0.758382,-0.266861 1.478269,0.696778 1.058199,1.416515 -0.384572,0.658942 -1.036236,0.704481 -1.574267,0.110012 z m -23.25984,-0.280267 c -0.341137,-0.815209 0.02312,-1.485563 0.807292,-1.485563 1.010249,0 1.582533,0.815169 1.013597,1.443791 -0.525785,0.580941 -1.585086,0.605242 -1.820889,0.04177 z m 7.89644,-0.003 c -0.666909,-0.736872 -0.270635,-1.482516 0.787892,-1.482516 0.66175,0 0.985843,0.161003 1.062932,0.528051 0.127155,0.605473 -0.46971,1.380879 -1.062932,1.380879 -0.221082,0 -0.575633,-0.191886 -0.787892,-0.426414 z m 6.792886,-0.07827 c -0.564552,-0.185626 -0.499306,-1.534696 0.08419,-1.740005 0.56465,-0.198689 1.437123,0.377294 1.437123,0.948745 0,0.474324 -0.962539,0.97497 -1.521268,0.79126 z m 11.821841,-1.809062 c -0.235596,-0.136937 -0.379709,-0.564423 -0.320264,-0.949968 0.08103,-0.525506 0.308519,-0.700992 0.908754,-0.700992 0.600224,0 0.827717,0.175486 0.908754,0.700992 0.09237,0.599345 -0.362064,1.198945 -0.908754,1.198945 -0.08811,0 -0.352893,-0.11204 -0.58849,-0.248977 z M 42.240396,36.51708 c -0.396896,-0.266128 -0.4967,-0.572217 -0.337015,-1.033581 0.311071,-0.89873 1.887531,-0.769671 2.032854,0.166422 0.133283,0.858514 -0.911764,1.392896 -1.695839,0.867159 z m 5.492918,-0.08861 c -0.700465,-0.642321 0.243241,-2.018915 1.162333,-1.695502 0.687313,0.241855 0.949736,1.004406 0.512066,1.487991 -0.384071,0.424362 -1.312455,0.539417 -1.674399,0.207511 z m 10.807164,-0.500663 c -0.356044,-0.850805 0.0065,-1.506161 0.833563,-1.506161 0.671249,0 0.796289,0.138345 0.796289,0.881045 0,0.690604 -0.156076,0.901367 -0.722035,0.975063 -0.42345,0.05514 -0.798862,-0.08957 -0.907817,-0.349947 z m -6.613876,-1.739423 c -1.140927,-0.616993 -1.198016,-0.72107 -1.201004,-2.189612 l -0.0033,-1.541828 h 2.562128 2.562128 v 1.615249 c 0,1.16907 -0.120765,1.615249 -0.437202,1.615249 -0.240471,0 -0.803649,0.264313 -1.251516,0.587363 -0.971023,0.700406 -0.761414,0.708524 -2.231405,-0.08642 z m 6.226043,-6.433312 c -0.513483,-0.470861 -0.484803,-0.967596 0.0807,-1.397975 0.92557,-0.704386 2.329083,0.266963 1.892656,1.309871 -0.220809,0.527654 -1.43491,0.58186 -1.973366,0.0881 z M 48.77859,27.054987 c -0.561749,-0.620673 -0.0011,-1.443791 0.983074,-1.443791 0.98436,0 1.544823,0.823118 0.983084,1.443791 -0.23154,0.255827 -0.673921,0.46514 -0.983084,0.46514 -0.309152,0 -0.751545,-0.209313 -0.983074,-0.46514 z m -7.220861,-0.545591 c -0.341137,-0.815208 0.02312,-1.485563 0.807292,-1.485563 0.88184,0 1.503667,0.732622 1.212475,1.42849 -0.249293,0.595715 -1.776297,0.638864 -2.019767,0.05707 z m 21.838137,-0.03813 c -0.595403,-0.54598 -0.600507,-0.585235 -0.171746,-1.319897 0.373656,-0.640215 1.269204,-0.744812 1.846276,-0.215638 0.577083,0.529173 0.463014,1.350388 -0.235149,1.69302 -0.801175,0.393179 -0.843978,0.388496 -1.439381,-0.157485 z m -9.271731,-1.453739 c -0.285597,-0.261893 -0.519274,-0.589446 -0.519274,-0.727896 0,-0.454123 1.02797,-1.205977 1.525815,-1.115975 0.793988,0.14354 1.251495,1.03105 0.840215,1.629918 -0.48104,0.700462 -1.22253,0.786365 -1.846756,0.213953 z m -7.907683,-2.074081 c -0.561739,-0.620673 -0.0011,-1.443791 0.983084,-1.443791 0.98436,0 1.544823,0.823118 0.983073,1.443791 -0.231529,0.255827 -0.673921,0.46514 -0.983073,0.46514 -0.309163,0 -0.751545,-0.209313 -0.983084,-0.46514 z m 12.256458,-0.18096 c -0.594248,-0.544918 -0.455566,-1.354042 0.295237,-1.722502 0.558587,-0.274131 0.792352,-0.230062 1.313218,0.247568 0.520866,0.47763 0.568925,0.69199 0.26998,1.204209 -0.401813,0.688474 -1.284188,0.815644 -1.878435,0.270725 z m -6.162008,-1.653873 c -0.606418,-0.450288 -0.657018,-0.62512 -0.338738,-1.170464 0.411028,-0.704253 1.289346,-0.838489 1.888915,-0.288688 1.127382,1.033804 -0.305978,2.383009 -1.550177,1.459152 z"
       id="path40" /></g></svg>
