<?xml version="1.0" encoding="UTF-8" standalone="no"?>
<!-- Created with Inkscape (http://www.inkscape.org/) -->

<svg
   width="100mm"
   height="100mm"
   viewBox="0 0 100 100"
   version="1.1"
   id="svg1"
   inkscape:version="1.4 (86a8ad7, 2024-10-11)"
   sodipodi:docname="bush2.svg"
   xml:space="preserve"
   xmlns:inkscape="http://www.inkscape.org/namespaces/inkscape"
   xmlns:sodipodi="http://sodipodi.sourceforge.net/DTD/sodipodi-0.dtd"
   xmlns="http://www.w3.org/2000/svg"
   xmlns:svg="http://www.w3.org/2000/svg"><sodipodi:namedview
     id="namedview1"
     pagecolor="#ffffff"
     bordercolor="#000000"
     borderopacity="0.25"
     inkscape:showpageshadow="2"
     inkscape:pageopacity="0.0"
     inkscape:pagecheckerboard="true"
     inkscape:deskcolor="#d1d1d1"
     inkscape:document-units="mm"
     inkscape:zoom="1.243451"
     inkscape:cx="447.94687"
     inkscape:cy="135.50996"
     inkscape:window-width="1920"
     inkscape:window-height="1009"
     inkscape:window-x="1912"
     inkscape:window-y="-8"
     inkscape:window-maximized="1"
     inkscape:current-layer="layer1" /><defs
     id="defs1" /><g
     inkscape:label="Warstwa 1"
     inkscape:groupmode="layer"
     id="layer1"><path
       style="fill:#611415;fill-opacity:1"
       d="m 55.696978,70.4514 c -0.32694,-0.177369 -0.59444,-0.43173 -0.59444,-0.565247 0,-0.133517 -0.19059,-0.07027 -0.42355,0.140547 -0.23295,0.210818 -0.84741,0.431082 -1.36548,0.489476 -0.78262,0.08821 -1.04782,0.0151 -1.56792,-0.432277 -0.52251,-0.449448 -0.70946,-0.500411 -1.13103,-0.308331 -0.36992,0.168548 -0.70971,0.15611 -1.26999,-0.04649 -0.7005,-0.253305 -0.79168,-0.238429 -1.08237,0.176597 -0.35168,0.502081 -1.54461,0.628174 -1.96508,0.207707 -0.18322,-0.183221 -0.34109,-0.149901 -0.62234,0.13135 -0.58332,0.583319 -1.79391,0.302069 -3.4803,-0.808559 -2.57357,-1.694912 -3.57422,-1.926834 -9.03214,-2.093405 -4.45161,-0.135858 -4.84077,-0.180855 -6.08962,-0.7041 -2.18787,-0.916683 -4.12074,-2.486443 -5.44134,-4.419147 -0.72928,-1.067296 -0.63607,-1.155509 1.22097,-1.155509 1.65354,0 1.70159,0.01534 2.4318,0.776129 0.4097,0.426871 1.32855,1.083456 2.04188,1.459078 l 1.29695,0.682949 5.29592,0.0034 c 2.91275,0.0018 5.55029,0.08206 5.8612,0.178238 l 0.56529,0.174876 -0.61605,-1.259036 c -0.79072,-1.616006 -1.67714,-4.488855 -1.87388,-6.073172 l -0.15377,-1.238336 -1.02676,-0.06588 c -0.56579,-0.0363 -1.02676,0.02843 -1.02676,0.144199 0,0.491961 0.87394,2.169889 1.70126,3.266342 0.49096,0.650684 0.89266,1.305054 0.89266,1.454156 0,0.149102 0.33062,0.963193 0.7347,1.809091 l 0.7347,1.537996 -0.78874,-0.135429 c -0.43381,-0.07449 -1.05527,-0.188254 -1.38103,-0.252818 -1.23192,-0.244164 -3.36065,-3.412994 -4.54695,-6.768593 -0.41058,-1.161388 -0.59627,-1.422659 -1.13441,-1.596182 -0.91359,-0.29459 -1.18386,-0.559594 -1.18386,-1.160808 0,-0.995799 2.12144,-2.502905 4.84741,-3.443683 2.1309,-0.735408 5.30873,-0.729935 7.11379,0.01225 1.48679,0.611323 2.89025,1.542363 3.20142,2.123792 0.4625,0.864195 -1.5846,2.029798 -4.3006,2.448724 -1.09582,0.169023 -1.10548,0.227319 -0.47213,2.847281 0.46734,1.933236 1.34324,3.867764 2.18896,4.834585 0.27435,0.313627 1.13108,0.983671 1.90385,1.488987 l 1.40504,0.918757 -0.92929,-0.967577 c -1.03979,-1.082637 -1.55655,-2.443223 -1.55655,-4.098269 0,-0.99998 -0.0267,-1.046444 -0.60038,-1.046444 -0.79215,0 -1.56122,-0.558483 -1.56122,-1.133719 0,-1.113935 1.64054,-2.540995 2.92112,-2.540995 1.00966,0 2.21509,0.658826 2.83066,1.547097 0.72063,1.039865 0.57486,1.427315 -0.71913,1.911458 l -0.86662,0.324239 0.25683,0.864639 c 0.14125,0.475551 0.53336,1.301922 0.87135,1.83638 0.47721,0.754615 0.60984,1.213456 0.59358,2.053517 -0.0238,1.226997 0.0405,1.060292 0.70764,-1.83638 0.20536,-0.891659 0.70735,-2.593916 1.11553,-3.782795 1.1525,-3.356806 1.39863,-4.688405 1.39863,-7.566697 0,-1.435867 -0.0629,-2.861236 -0.13975,-3.167486 -0.13745,-0.547646 -0.11264,-0.56085 1.5065,-0.801668 0.90545,-0.134668 1.72755,-0.24485 1.8269,-0.24485 0.0994,0 0.29263,0.899764 0.4295,1.999477 0.30225,2.428543 0.0364,5.490949 -0.7341,8.456454 -0.28608,1.101096 -0.62159,2.870972 -0.74555,3.933058 -0.12397,1.062086 -0.28314,2.360106 -0.35371,2.884488 l -0.1283,0.953423 0.70879,-0.596407 c 0.7885,-0.663479 1.28678,-0.887959 2.9487,-1.328403 2.11793,-0.5613 3.55918,-1.802638 4.52047,-3.893462 0.4607,-1.002026 0.68739,-1.921178 1.04786,-4.248601 l 0.12554,-0.810599 h 1.28251 1.2825 l -0.0378,2.588803 c -0.0361,2.472071 -0.014,2.614603 0.49101,3.161 0.29087,0.314708 0.91656,0.739167 1.39043,0.943242 l 0.86158,0.371045 -1.51006,0.49819 c -2.39501,0.790145 -3.72335,1.437392 -5.14832,2.508565 -0.72988,0.548657 -1.77231,1.223191 -2.31653,1.498965 -0.54421,0.275774 -1.12927,0.672051 -1.30014,0.880615 -0.22059,0.26926 -0.0286,0.216832 0.66206,-0.180824 1.73045,-0.996286 3.08862,-1.266805 7.24135,-1.442329 4.51286,-0.190745 5.08209,-0.377652 6.63226,-2.177702 l 0.93332,-1.083769 1.67888,-1.06e-4 1.67888,-1.06e-4 -0.56222,1.109501 c -0.69486,1.371234 -2.26048,3.071924 -3.49277,3.794095 -1.33023,0.779564 -2.59387,1.110741 -5.6706,1.486153 -3.50987,0.428264 -4.0451,0.581544 -6.44979,1.847113 -2.13228,1.122199 -2.96705,1.272506 -3.98879,0.718206 z m -0.44558,-8.111986 c 0.7108,-0.757971 1.1481,-1.653543 1.1481,-2.351272 0,-0.296364 -0.2196,-0.43635 -0.85219,-0.543225 -1.2035,-0.203329 -1.46966,-0.590512 -1.03399,-1.504121 0.90074,-1.888878 3.21127,-2.536987 4.78018,-1.340856 1.514,1.154262 1.54244,2.35539 0.0652,2.752344 -1.01242,0.272043 -1.22176,0.491417 -1.22657,1.285352 -0.005,0.866585 -0.56377,1.443494 -1.78675,1.845565 -0.62409,0.205182 -1.28063,0.422144 -1.45896,0.482137 -0.17833,0.05999 -0.0141,-0.221672 0.36502,-0.625924 z m 14.75616,-1.601724 c -1.13493,-0.154976 -2.4836,-0.394892 -2.99704,-0.533148 -1.0796,-0.290707 -2.02118,-1.119398 -1.83201,-1.612367 0.33329,-0.868544 4.45405,-3.305476 6.86752,-4.061305 2.30504,-0.721876 5.95867,-0.678 7.9366,0.09531 2.34519,0.9169 6.01966,3.231578 6.47214,4.077027 0.57001,1.06508 -0.4449,1.663104 -3.61712,2.131346 -2.11256,0.31183 -10.28919,0.250099 -12.83009,-0.09686 z m -56.48097,-0.35678 c -1.29128,-0.104911 -2.62542,-0.336412 -2.9722,-0.515737 -1.1610903,-0.600424 -0.7416503,-1.756844 1.07788,-2.971753 0.28503,-0.190311 1.27677,-1.076605 2.20389,-1.969542 4.28755,-4.129503 9.17386,-4.52192 13.48987,-1.083364 0.47555,0.378871 1.54554,1.127092 2.37775,1.662713 0.83222,0.535622 1.6955,1.175882 1.91842,1.422801 0.476,0.527257 0.53014,1.462909 0.10808,1.867786 -0.53163,0.509983 -3.89589,1.419577 -6.01247,1.625588 -2.49993,0.243324 -8.97414,0.222882 -12.19122,-0.03849 z m 35.20336,-1.802734 c -0.0617,-0.29722 -0.1659,-0.796388 -0.23154,-1.109262 -0.0656,-0.312875 -0.50941,-0.966793 -0.98616,-1.453151 -0.81011,-0.826436 -0.86341,-0.957807 -0.81476,-2.008066 0.043,-0.927561 -0.0469,-1.25355 -0.51484,-1.867014 -1.41539,-1.855662 -4.83287,-3.122661 -7.73899,-2.869157 -2.15895,0.188328 -4.45545,0.977986 -6.43824,2.213808 -1.564,0.974796 -1.61174,0.988582 -2.98049,0.860766 -0.90199,-0.08423 -1.70034,-0.314342 -2.27081,-0.654526 l -0.87976,-0.524629 1.82289,-0.07718 c 1.58103,-0.06694 2.07056,-0.191904 3.68938,-0.941817 1.02656,-0.475552 1.87037,-0.937593 1.87513,-1.026759 0.016,-0.299193 -0.81142,-0.165981 -1.86482,0.30024 -1.44999,0.641747 -5.05009,1.247216 -6.18352,1.039954 -0.97301,-0.177928 -1.67019,-0.834911 -1.67019,-1.573899 0,-0.280967 0.46663,-0.87334 1.21563,-1.54321 0.66859,-0.59796 1.8584,-1.753522 2.64402,-2.567915 1.86971,-1.938203 4.46938,-3.882147 5.90706,-4.417106 2.61807,-0.974174 4.74438,-0.815082 7.48802,0.560257 1.80224,0.903433 1.80123,0.901482 1.3261,2.581425 -0.63605,2.248922 1.08134,3.251765 6.23497,3.640812 l 1.94092,0.14652 0.12924,0.781362 c 0.19903,1.203316 0.15764,3.251452 -0.0745,3.685171 -0.11467,0.214255 -0.51734,0.451324 -0.89482,0.52682 l -0.68633,0.137267 0.11963,1.134207 c 0.0658,0.623814 0.27717,1.594439 0.46971,2.156945 0.32181,0.940182 0.32207,1.119032 0.003,2.215637 -0.19073,0.656094 -0.38667,1.192898 -0.43541,1.192898 -0.0487,0 -0.13911,-0.24318 -0.20082,-0.540399 z m 23.44921,-4.70013 c 0,-0.05442 0.10678,-0.405281 0.2373,-0.779686 0.23002,-0.659845 0.27646,-0.680735 1.51312,-0.680735 1.1317,0 1.27581,0.04883 1.27581,0.43232 0,0.237775 -0.0354,0.432319 -0.0786,0.432319 -0.25594,0 -2.25325,0.426439 -2.56938,0.548579 -0.20805,0.08038 -0.37827,0.101626 -0.37827,0.0472 z m -12.70416,-0.603401 c -1.56643,-0.1645 -2.55486,-0.591501 -2.79046,-1.205478 -0.21974,-0.572628 0.63304,-2.042517 1.75379,-3.022927 0.61539,-0.538328 1.71999,-1.201025 2.53467,-1.520652 1.27417,-0.499903 1.66838,-0.555098 3.35285,-0.469447 2.27074,0.115461 3.53858,0.671072 5.02934,2.204019 0.84694,0.870917 0.96044,1.103072 0.97271,1.989587 0.0177,1.278755 -0.51449,1.714414 -2.47194,2.02353 -1.5823,0.249874 -6.00772,0.250596 -8.38096,0.0014 z m 12.13612,-1.428332 c -0.32401,-0.07067 -0.49467,-0.31427 -0.57743,-0.824232 -0.27784,-1.712103 -2.28316,-3.577561 -4.66347,-4.338215 -2.33347,-0.745683 -5.64232,-0.07009 -8.04862,1.643344 l -0.66283,0.471975 -0.57559,-0.427794 c -0.69233,-0.514549 -0.85832,-1.454984 -0.35498,-2.011167 0.19861,-0.219459 1.05703,-0.732279 1.9076,-1.139598 1.62527,-0.778303 2.73537,-1.655764 2.73537,-2.162123 0,-0.557816 0.77938,-1.012421 2.48243,-1.44799 2.16556,-0.553857 3.7999,-0.548425 5.63614,0.01873 2.17021,0.670309 4.29324,2.151336 4.97568,3.471038 0.3144,0.607982 0.31037,0.616392 -0.29604,0.616392 -1.53899,0 -4.58414,1.365913 -4.58414,2.056228 0,0.434127 0.12867,0.407965 0.9331,-0.189724 2.89463,-2.150695 7.65361,-1.382127 10.02902,1.619671 1.66938,2.109596 0.7538,2.636244 -4.69349,2.699706 -2.08054,0.02424 -3.98977,-0.0011 -4.24275,-0.05624 z m -25.94754,-5.58917 c -2.03189,-0.441755 -3.10212,-1.107705 -3.09355,-1.924967 0.0163,-1.551204 2.76238,-4.796857 5.01267,-5.924504 1.45167,-0.727454 3.53419,-1.337383 4.5663,-1.337383 0.3467,0 1.48393,0.200397 2.52719,0.445326 2.31684,0.543929 4.24446,1.741521 5.32292,3.307031 1.16826,1.69586 0.94875,2.403177 -1.11377,3.588829 -3.10809,1.7867 -9.43235,2.669525 -13.22176,1.845668 z"
       id="path45" /><path
       style="fill:#ac7e47;fill-opacity:1"
       d="m 55.805058,70.479236 c -0.38638,-0.173606 -0.70252,-0.416186 -0.70252,-0.539065 0,-0.12288 -0.31613,-0.03067 -0.70252,0.204917 -0.97189,0.592576 -2.00112,0.556036 -2.65128,-0.09413 -0.46902,-0.46902 -0.59405,-0.497662 -1.19019,-0.272643 -0.54507,0.205739 -0.77516,0.188853 -1.26612,-0.09292 -0.5718,-0.328167 -0.6213,-0.320433 -1.0533,0.164564 -0.48494,0.544432 -1.12264,0.646156 -1.79498,0.286329 -0.31033,-0.166081 -0.55142,-0.133795 -0.94972,0.127184 -0.75191,0.492668 -1.6669,0.24594 -3.37388,-0.909771 -2.35963,-1.59759 -3.46518,-1.846946 -8.95821,-2.020526 -4.31302,-0.136291 -4.86614,-0.197425 -5.94439,-0.657004 -2.3843,-1.016248 -4.85167,-3.052434 -5.7099,-4.71207 -0.18842,-0.364355 -0.34221,-0.691613 -0.34176,-0.727239 4.5e-4,-0.03563 0.73649,-0.09632 1.63564,-0.134885 l 1.63482,-0.07011 1.01232,0.944758 c 0.55678,0.519618 1.49868,1.183434 2.09312,1.475149 1.05239,0.516452 1.21428,0.530621 6.16055,0.53917 2.79386,0.0048 5.4411,0.08797 5.88275,0.184752 l 0.80301,0.175972 -0.61698,-1.27368 c -0.83892,-1.731852 -1.73152,-4.626008 -1.88776,-6.120869 l -0.12878,-1.232103 0.70289,-0.140579 c 0.38659,-0.07732 1.01561,-0.14058 1.39782,-0.14058 0.69343,0 0.6955,0.0034 0.96814,1.567158 0.32766,1.879428 1.14338,4.03983 1.9989,5.29403 0.57025,0.835984 2.63876,2.456493 3.57509,2.80078 0.21041,0.07737 -0.11746,-0.338344 -0.7286,-0.923812 -0.9212,-0.882488 -1.15219,-1.260334 -1.351,-2.209965 -0.1319,-0.630013 -0.23982,-1.481142 -0.23982,-1.891397 0,-0.680047 0.0557,-0.74592 0.6308,-0.74592 0.34694,0 0.77872,-0.05676 0.95952,-0.126142 0.24072,-0.09237 0.3887,0.0966 0.55276,0.705842 0.12321,0.457592 0.51824,1.295909 0.87783,1.862927 0.5282,0.832892 0.6538,1.264811 0.6538,2.248339 0,0.669569 0.0478,1.16956 0.10631,1.111091 0.0585,-0.05847 0.24209,-0.877174 0.40805,-1.819344 0.16596,-0.94217 0.8016,-3.22075 1.41253,-5.063511 1.26132,-3.804545 1.64676,-6.471634 1.36158,-9.421654 l -0.16879,-1.746018 1.62694,-0.234384 c 1.84296,-0.265506 1.83722,-0.268899 2.07138,1.224274 0.37964,2.420863 -0.1539,7.892461 -0.98199,10.0705 -0.16799,0.441858 -0.86433,5.625455 -0.86433,6.434153 0,0.128303 0.21886,0.03316 0.48636,-0.211436 0.67417,-0.61645 1.63828,-1.076007 2.8855,-1.375424 2.53255,-0.607982 4.32258,-2.324136 5.14528,-4.932935 0.28523,-0.904438 0.5881,-2.203746 0.67306,-2.887351 l 0.15447,-1.242918 h 1.26062 1.26061 l -0.0376,2.539876 c -0.0244,1.652287 0.0538,2.702432 0.22386,3.005037 0.14378,0.255838 0.74071,0.703998 1.32651,0.995912 l 1.06508,0.530751 -2.0881,0.704977 c -2.25448,0.761149 -3.04594,1.173135 -4.61512,2.402341 -0.55764,0.436828 -1.44126,1.001115 -1.96359,1.253972 -0.52233,0.252856 -1.1847,0.721936 -1.47194,1.042398 l -0.52224,0.58266 0.5404,-0.372864 c 1.86189,-1.284663 3.45943,-1.650291 8.10599,-1.855208 4.25991,-0.187866 4.81938,-0.37679 6.43406,-2.172703 l 0.98141,-1.091561 h 1.53413 c 1.14098,0 1.53414,0.07451 1.53414,0.290727 0,0.481505 -1.59807,2.795727 -2.43898,3.531961 -1.77357,1.552815 -3.53323,2.186562 -7.07205,2.547026 -2.94272,0.299746 -4.00235,0.58886 -6.06075,1.653639 -2.33695,1.208867 -3.2489,1.414239 -4.26087,0.959551 z m -17.88708,-6.912604 c -0.92294,-0.218719 -1.22266,-0.43266 -2.05352,-1.465801 -0.53506,-0.665337 -1.2542,-1.76721 -1.59809,-2.448608 -0.62281,-1.234097 -1.67547,-4.033216 -1.56014,-4.148552 0.0334,-0.03334 0.668,0.0029 1.41034,0.08044 l 1.34972,0.141073 0.49056,1.102254 c 0.2698,0.606239 0.83292,1.548367 1.25137,2.093618 0.41845,0.54525 0.88417,1.372061 1.03493,1.837357 0.15077,0.465296 0.50402,1.3048 0.78501,1.865565 0.28099,0.560765 0.51089,1.071442 0.51089,1.134838 0,0.153131 -0.328,0.114245 -1.62107,-0.192189 z m 17.37434,-1.286522 c 0.38896,-0.4013 0.83664,-1.106588 0.99485,-1.567307 0.24647,-0.717713 0.39892,-0.856012 1.06463,-0.965761 0.75245,-0.124049 0.77688,-0.106988 0.77379,0.540399 -0.006,1.223294 -0.41833,1.671854 -2.03884,2.21708 l -1.50162,0.505227 z m 24.89335,-2.394603 c -0.14465,-0.17429 -0.19623,-0.516321 -0.11599,-0.769126 0.21132,-0.665819 1.26883,-0.516054 1.36921,0.193908 0.11246,0.795316 -0.74422,1.188523 -1.25322,0.575218 z m -61.78704,-0.377845 c -0.41788,-0.417881 -0.31179,-1.207962 0.1833,-1.365098 0.48159,-0.15285 1.07043,0.211754 1.07043,0.662799 0,0.301341 -0.57463,0.961691 -0.83685,0.961691 -0.0866,0 -0.27421,-0.116726 -0.41688,-0.259392 z m 54.84629,-0.08297 c -0.20598,-0.248183 -0.22175,-0.44143 -0.0573,-0.702519 0.32236,-0.511936 0.96862,-0.580752 1.29263,-0.137645 0.59998,0.820525 -0.58354,1.625479 -1.23529,0.840164 z m 10.26311,-0.170937 c -0.25906,-0.675085 0.003,-1.107902 0.67095,-1.107902 0.57313,0 0.64552,0.07271 0.64552,0.648479 0,0.547074 -0.0931,0.659194 -0.59567,0.716996 -0.38014,0.04373 -0.64095,-0.04947 -0.7208,-0.257573 z m -15.51775,-0.247906 c -0.19276,-0.192762 -0.35048,-0.433852 -0.35048,-0.535756 0,-0.33425 0.69382,-0.88764 1.02983,-0.821396 0.53589,0.10565 0.84468,0.758889 0.5671,1.199675 -0.32468,0.515565 -0.82514,0.578792 -1.24645,0.157477 z m -55.91855,-0.229636 c -0.35793,-0.431282 -0.0292,-1.033337 0.61693,-1.129836 0.51418,-0.07679 0.98223,0.603321 0.77925,1.132296 -0.16875,0.439753 -1.03043,0.438235 -1.39618,-0.0025 z m 36.68226,-0.144 c -0.0717,-0.267498 -0.13166,-0.686717 -0.13329,-0.931598 -0.002,-0.244882 -0.44067,-0.958046 -0.97567,-1.584809 -0.71197,-0.834093 -0.97192,-1.323156 -0.96976,-1.824437 0.006,-1.33159 0.18569,-1.609554 1.09836,-1.696591 0.92865,-0.08856 0.92515,-0.09318 1.17847,1.552122 0.0824,0.534995 0.29003,1.326132 0.46148,1.758083 0.27581,0.694897 0.27106,0.925221 -0.0412,1.999477 -0.19413,0.667762 -0.38334,1.214112 -0.42049,1.214112 -0.0371,0 -0.12618,-0.218862 -0.19787,-0.486359 z M 22.687208,58.3724 c -0.57232,-0.689606 0.27212,-1.773559 0.94598,-1.2143 0.40664,0.337475 0.44393,0.907804 0.083,1.268764 -0.34657,0.346567 -0.71218,0.327215 -1.02895,-0.05446 z m 6.50211,-0.07001 c -0.28744,-0.537089 0.0937,-1.129256 0.7268,-1.129256 0.32927,0 0.56578,0.159702 0.65559,0.442692 0.28125,0.886119 -0.94868,1.49696 -1.38239,0.686564 z m 47.54645,0.08043 c -0.44381,-0.534758 -0.0809,-1.246466 0.59573,-1.16821 0.48097,0.05563 0.57589,0.173494 0.57589,0.715087 0,0.492844 -0.1083,0.663952 -0.45124,0.71295 -0.24818,0.03546 -0.57235,-0.08146 -0.72038,-0.259827 z m -61.14721,-0.820595 c -0.38906,-0.389059 -0.31269,-0.993834 0.15727,-1.245345 0.80772,-0.432281 1.52035,0.280352 1.08807,1.088077 -0.25151,0.469953 -0.85628,0.546327 -1.24534,0.157268 z m 10.75837,-0.288695 c -0.39276,-0.47324 -0.0135,-1.073111 0.67842,-1.073111 0.43016,0 0.51684,0.108757 0.51684,0.648479 0,0.492845 -0.1083,0.663952 -0.45124,0.712951 -0.24818,0.03546 -0.58299,-0.09428 -0.74402,-0.288319 z m 44.61828,0.02031 c -0.23259,-0.606132 0.0201,-1.09242 0.6028,-1.160032 0.66774,-0.07748 1.03771,0.633421 0.60254,1.157778 -0.33498,0.403627 -1.0508,0.404965 -1.20534,0.0022 z m 8.58931,-0.504568 c -0.44489,-0.831285 0.65801,-1.543648 1.26241,-0.81539 0.14327,0.172627 0.19726,0.513078 0.11998,0.756559 -0.17673,0.556826 -1.09496,0.595904 -1.38239,0.05883 z m -4.69843,-0.79239 c -0.23025,-0.600021 0.0156,-1.093425 0.54486,-1.093425 0.68186,0 1.06811,0.599992 0.68412,1.062679 -0.35487,0.427593 -1.06984,0.445479 -1.22898,0.03075 z m -54.11432,-0.650721 c -0.57232,-0.689606 0.27212,-1.773559 0.94599,-1.2143 0.40663,0.337475 0.44392,0.907804 0.083,1.268764 -0.34656,0.346567 -0.71218,0.327214 -1.02895,-0.05446 z m -4.10704,-0.86465 c -0.14465,-0.17429 -0.19623,-0.51632 -0.11599,-0.769126 0.21132,-0.665818 1.26883,-0.516054 1.36921,0.193908 0.11246,0.795316 -0.74422,1.188523 -1.25322,0.575218 z m 21.75147,0.16976 c -0.47023,-0.470227 0.009,-1.369011 0.7306,-1.369011 0.30393,0 0.64946,0.80048 0.50642,1.173219 -0.12986,0.338418 -0.9626,0.470221 -1.23702,0.195792 z m -6.402,-0.4843 c -0.16755,-0.313081 -0.1269,-0.52799 0.169,-0.893414 0.33143,-0.409295 0.46011,-0.443445 0.8615,-0.228627 0.51835,0.277415 0.61716,0.870224 0.21248,1.274896 -0.38773,0.38774 -0.99353,0.313242 -1.24298,-0.152855 z M 23.744348,54.0207 c -0.37914,-0.456837 -8.6e-4,-1.062679 0.66352,-1.062679 0.66438,0 1.04266,0.605842 0.66352,1.062679 -0.15628,0.188297 -0.45486,0.342358 -0.66352,0.342358 -0.20866,0 -0.50724,-0.154061 -0.66352,-0.342358 z m 48.43481,-0.201933 c 0,-0.02182 0.10678,-0.346006 0.2373,-0.720411 0.23002,-0.659845 0.27646,-0.680735 1.51312,-0.680735 1.09215,0 1.27581,0.05694 1.27581,0.395532 0,0.314657 -0.30938,0.461958 -1.51312,0.72041 -0.83221,0.178684 -1.51311,0.307026 -1.51311,0.285204 z m -36.70391,-0.579739 c -0.64537,-0.645362 0.0704,-1.65565 0.86986,-1.227792 0.6372,0.341021 0.34997,1.487184 -0.3727,1.487184 -0.13077,0 -0.3545,-0.116727 -0.49716,-0.259392 z m 6.9171,0 c -0.65265,-0.652656 0.0103,-1.687843 0.80759,-1.261121 0.68933,0.368917 0.45423,1.520513 -0.31042,1.520513 -0.13077,0 -0.3545,-0.116727 -0.49717,-0.259392 z m 15.53625,-1.223866 c -0.27686,-0.517319 0.17805,-1.188852 0.7317,-1.080124 0.60567,0.118945 0.90685,0.727495 0.56431,1.140225 -0.38376,0.462402 -1.03248,0.432319 -1.29601,-0.0601 z m 7.03311,0.06256 c -0.16627,-0.433284 0.2227,-1.173219 0.61674,-1.173219 0.56335,0 1.0024,0.636087 0.75636,1.095809 -0.26883,0.502322 -1.19012,0.554259 -1.3731,0.07741 z m -26.04521,-0.260123 c -0.26836,-0.501431 0.0795,-1.129256 0.62568,-1.129256 0.54106,0 0.89154,0.648556 0.61628,1.14042 -0.27127,0.484726 -0.97998,0.478356 -1.24196,-0.01116 z m 23.20757,-0.05999 c -0.20633,-0.650088 0.40283,-1.264218 0.9264,-0.93396 0.20582,0.12983 0.37422,0.468633 0.37422,0.752895 0,0.72424 -1.08048,0.874659 -1.30062,0.181065 z m 6.28773,-0.111983 c -0.453,-0.452997 -0.42866,-0.654277 0.12606,-1.042821 0.52043,-0.364524 1.26354,-0.128132 1.26354,0.401947 0,0.331771 -0.57209,0.980553 -0.86464,0.980553 -0.1019,0 -0.33813,-0.152856 -0.52496,-0.339679 z m -21.08239,-0.622655 c -0.41369,-0.49847 -0.1808,-1.083315 0.46104,-1.15779 0.42736,-0.04959 0.61095,0.04971 0.71853,0.388652 0.26508,0.835192 -0.63673,1.423217 -1.17957,0.769138 z m 27.52183,-0.01038 c -0.30462,-0.793819 0.5731,-1.494887 1.14969,-0.918301 0.4805,0.480507 0.17837,1.24254 -0.49265,1.24254 -0.29294,0 -0.58861,-0.145908 -0.65704,-0.324239 z m -14.86967,-0.880079 c -0.18682,-0.186824 -0.33967,-0.414927 -0.33967,-0.506897 0,-0.189666 0.72252,-0.882701 0.92025,-0.882701 0.19694,0 0.80902,0.654164 0.80902,0.864639 0,0.101904 -0.15285,0.338135 -0.33968,0.524959 -0.18682,0.186824 -0.42305,0.339679 -0.52496,0.339679 -0.1019,0 -0.33813,-0.152855 -0.52496,-0.339679 z m -30.55879,-0.732046 c -0.0626,-0.8216 0.61166,-1.268731 1.13063,-0.749763 0.49618,0.496183 0.41538,0.938607 -0.21522,1.17836 -0.80267,0.305175 -0.8616,0.277584 -0.91541,-0.428597 z m 36.47271,0.297048 c -0.35793,-0.431283 -0.0292,-1.033338 0.61692,-1.129837 0.59032,-0.08816 1.05938,0.708998 0.68361,1.161773 -0.33979,0.40942 -0.94661,0.394519 -1.30053,-0.03194 z m 12.08434,0.183334 c -0.67838,-0.154095 -0.71829,-1.184427 -0.0557,-1.438676 0.50595,-0.194153 0.956,0.09849 0.956,0.621641 0,0.576056 -0.39259,0.932354 -0.90027,0.817035 z m -51.07068,-0.829134 c -0.43701,-0.43701 -0.42769,-0.594466 0.0614,-1.037068 0.47733,-0.431982 1.04008,-0.271352 1.2384,0.353487 0.097,0.305781 0.0172,0.54176 -0.24925,0.73659 -0.50252,0.367454 -0.63685,0.360676 -1.05053,-0.05301 z m 44.99172,0.205497 c -0.25714,-0.257136 -0.17279,-0.878118 0.15639,-1.151308 0.46239,-0.383749 1.24886,0.09396 1.16177,0.705677 -0.0674,0.473341 -0.98144,0.782355 -1.31816,0.445631 z m -32.11054,-0.488012 c -0.42091,-0.266799 -0.22313,-1.195497 0.27483,-1.2905 0.57356,-0.109427 1.03651,0.551648 0.75486,1.077916 -0.23219,0.433861 -0.57042,0.50369 -1.02969,0.212584 z m 22.94469,-0.163746 c -0.17881,-0.465991 0.20519,-1.051417 0.68967,-1.051417 0.21186,0 0.48424,0.157004 0.60528,0.348898 0.33023,0.523528 0.025,1.05614 -0.60528,1.05614 -0.31347,0 -0.61288,-0.153522 -0.68967,-0.353621 z m -29.16472,-0.172302 c -0.23205,-0.604726 0.0868,-1.021115 0.72565,-0.947631 0.473,0.05441 0.59566,0.179801 0.59566,0.608915 0,0.429115 -0.12266,0.554509 -0.59566,0.608916 -0.38846,0.04468 -0.64089,-0.04931 -0.72565,-0.2702 z m 15.25383,-0.02626 c -0.23283,-0.280546 -0.20448,-0.410417 0.17169,-0.786593 0.59841,-0.598406 1.13505,-0.377443 1.13505,0.467356 0,0.545842 -0.0858,0.655263 -0.51393,0.655263 -0.28266,0 -0.63943,-0.151212 -0.79281,-0.336026 z m -3.44015,-0.193989 c -0.39104,-0.471166 -0.18056,-1.081488 0.40146,-1.164135 0.79986,-0.113581 1.12426,0.561246 0.5472,1.138311 -0.42121,0.421208 -0.61612,0.426514 -0.94866,0.02582 z m 29.25595,0.0022 c -0.21292,-0.554848 0.0179,-1.091775 0.499,-1.160583 0.60958,-0.08719 1.08643,0.700336 0.70347,1.161774 -0.33258,0.400735 -1.04851,0.400026 -1.20247,-0.0012 z m -36.71573,-1.278208 c -0.4431,-0.324008 -0.37429,-0.970264 0.13765,-1.292631 0.26109,-0.164408 0.45434,-0.148636 0.70252,0.05734 0.78531,0.651753 -0.0196,1.835275 -0.84017,1.235292 z m 3.60352,0.03347 c -0.38926,-0.389252 -0.31261,-0.993878 0.15791,-1.245692 0.315,-0.168584 0.50048,-0.140166 0.75656,0.115914 0.45692,0.456924 0.42732,0.89451 -0.0789,1.165405 -0.52107,0.27887 -0.52112,0.278868 -0.83561,-0.03563 z m 18.23889,-0.647099 c -0.2993,-0.427311 -0.29851,-0.51132 0.008,-0.850061 0.34287,-0.378865 0.91197,-0.322847 1.21492,0.119587 0.23297,0.340227 0.20332,0.487396 -0.17425,0.864966 -0.45434,0.454347 -0.65424,0.428711 -1.04872,-0.134492 z m 6.28802,0.113905 c -0.27518,-0.27518 -0.14219,-1.107331 0.19781,-1.237804 0.45761,-0.175602 0.44406,-0.178995 0.83109,0.208044 0.25609,0.25608 0.2845,0.441558 0.11592,0.756559 -0.21826,0.407815 -0.85762,0.560395 -1.14482,0.273201 z m -35.81683,-0.40398 c -0.39275,-0.47324 -0.0135,-1.073111 0.67842,-1.073111 0.43016,0 0.51684,0.108757 0.51684,0.648479 0,0.492844 -0.1083,0.663952 -0.45123,0.71295 -0.24818,0.03546 -0.58299,-0.09428 -0.74403,-0.288318 z m 3.29201,0.07254 c -0.65266,-0.652656 0.0103,-1.687843 0.80759,-1.261121 0.56203,0.300791 0.57721,1.002835 0.028,1.296747 -0.52108,0.278871 -0.52113,0.278869 -0.83562,-0.03563 z m 14.96,-1.147843 c -0.17354,-0.691433 0.11977,-1.03181 0.80553,-0.934783 0.40792,0.05772 0.51129,0.20345 0.51129,0.72082 0,0.54469 -0.0939,0.659309 -0.5869,0.716149 -0.47972,0.05531 -0.61302,-0.0364 -0.72992,-0.502186 z m -4.71938,-0.0879 c -0.53779,-0.594255 -0.11225,-1.367783 0.70079,-1.273854 0.72127,0.08333 0.93779,0.970925 0.34295,1.405881 -0.50667,0.370489 -0.59961,0.358733 -1.04374,-0.132027 z m 27.69812,0.280155 c -0.53233,-0.532331 0.18093,-1.507573 0.92896,-1.270158 0.68929,0.218772 0.51363,1.273918 -0.22644,1.360225 -0.30167,0.03518 -0.61781,-0.0053 -0.70252,-0.09007 z m -35.74221,-0.406216 c -0.30461,-0.793819 0.5731,-1.494887 1.14969,-0.918301 0.48051,0.480508 0.17837,1.24254 -0.49265,1.24254 -0.29294,0 -0.58861,-0.145907 -0.65704,-0.324239 z m 26.84007,-0.184783 c -0.59782,-0.437135 -0.33748,-1.112175 0.42892,-1.112175 0.49888,0 0.66078,0.107164 0.71268,0.471733 0.0897,0.629989 -0.61514,1.025399 -1.1416,0.640442 z m 5.6437,-0.247537 c -0.33139,-0.863598 0.51956,-1.395971 1.17834,-0.737192 0.35111,0.351115 0.38907,0.505511 0.18479,0.751656 -0.3376,0.406777 -1.20501,0.397573 -1.36313,-0.01446 z M 53.598028,43.88966 c -0.515,-0.620544 0.19548,-1.572371 0.95588,-1.280578 0.78646,0.301793 0.53027,1.594445 -0.31601,1.594445 -0.20866,0 -0.4966,-0.14124 -0.63987,-0.313867 z m -14.69652,-0.213346 c -0.54685,-0.658918 0.31604,-1.521814 0.97496,-0.974961 0.46191,0.383348 0.30607,1.163206 -0.24826,1.242408 -0.24818,0.03546 -0.57519,-0.08489 -0.7267,-0.267447 z m 18.22948,-5.58e-4 c -0.23025,-0.600021 0.0156,-1.093424 0.54487,-1.093424 0.68186,0 1.06811,0.599992 0.68411,1.062679 -0.35487,0.427592 -1.06983,0.445479 -1.22898,0.03075 z m 7.93088,-0.739324 c -0.27686,-0.51732 0.17805,-1.188853 0.73169,-1.080124 0.60567,0.118944 0.90686,0.727494 0.56432,1.140224 -0.38376,0.462402 -1.03248,0.432319 -1.29601,-0.0601 z m -31.5084,-0.599641 c -0.31845,-0.829873 0.83001,-1.439592 1.30205,-0.691257 0.16486,0.261364 0.14924,0.454074 -0.057,0.702519 -0.36975,0.445525 -1.07225,0.439171 -1.2451,-0.01126 z m 12.94592,0.09423 c -0.41788,-0.417881 -0.31179,-1.207962 0.1833,-1.365098 0.5156,-0.163647 1.07042,0.221509 1.07042,0.743087 0,0.412404 -0.40256,0.881403 -0.75655,0.881403 -0.13078,0 -0.35451,-0.116726 -0.49717,-0.259392 z m 4.334,0.116233 c -0.36816,-0.148555 -0.34172,-1.041508 0.0402,-1.358492 0.40486,-0.336 1.2027,0.06294 1.2027,0.601385 0,0.687881 -0.56363,1.031207 -1.24292,0.757107 z m 6.12306,-1.492366 c -0.31586,-0.315862 -0.32249,-0.41689 -0.0539,-0.821395 0.37111,-0.558922 0.9849,-0.5978 1.30965,-0.08296 0.50516,0.800835 -0.57869,1.581396 -1.25574,0.904351 z m -7.77206,-1.287274 c -0.19276,-0.192762 -0.35048,-0.433852 -0.35048,-0.535756 0,-0.33425 0.69382,-0.88764 1.02983,-0.821396 0.53589,0.105651 0.84468,0.758889 0.5671,1.199675 -0.32468,0.515565 -0.82514,0.578792 -1.24645,0.157477 z m 4.66443,-0.146669 c -0.3976,-0.397594 -0.30902,-0.995799 0.18674,-1.26112 0.56246,-0.301017 1.06698,0.0618 1.06698,0.767294 0,0.680723 -0.76536,0.98219 -1.25372,0.493826 z"
       id="path41" /></g></svg>
