<?xml version="1.0" encoding="UTF-8" standalone="no"?>
<!-- Created with Inkscape (http://www.inkscape.org/) -->

<svg
   width="100mm"
   height="100mm"
   viewBox="0 0 100 100"
   version="1.1"
   id="svg1"
   inkscape:version="1.4 (86a8ad7, 2024-10-11)"
   sodipodi:docname="bush3.svg"
   xml:space="preserve"
   xmlns:inkscape="http://www.inkscape.org/namespaces/inkscape"
   xmlns:sodipodi="http://sodipodi.sourceforge.net/DTD/sodipodi-0.dtd"
   xmlns="http://www.w3.org/2000/svg"
   xmlns:svg="http://www.w3.org/2000/svg"><sodipodi:namedview
     id="namedview1"
     pagecolor="#ffffff"
     bordercolor="#000000"
     borderopacity="0.25"
     inkscape:showpageshadow="2"
     inkscape:pageopacity="0.0"
     inkscape:pagecheckerboard="true"
     inkscape:deskcolor="#d1d1d1"
     inkscape:document-units="mm"
     inkscape:zoom="1.243451"
     inkscape:cx="447.94687"
     inkscape:cy="135.50996"
     inkscape:window-width="1920"
     inkscape:window-height="1009"
     inkscape:window-x="1912"
     inkscape:window-y="-8"
     inkscape:window-maximized="1"
     inkscape:current-layer="layer1" /><defs
     id="defs1" /><g
     inkscape:label="Warstwa 1"
     inkscape:groupmode="layer"
     id="layer1"><path
       style="fill:#611415;fill-opacity:1"
       d="m 56.070118,81.451245 c -0.36282,-0.107561 -0.83738,-0.291094 -1.05458,-0.407851 -0.33167,-0.178288 -0.49864,-0.165514 -1.04256,0.07976 -0.61814,0.278744 -0.66253,0.278573 -0.97448,-0.0037 -0.44162,-0.399659 -0.7303,-1.336666 -0.60989,-1.979548 0.0893,-0.476962 0.0628,-0.457124 -0.27988,0.208927 -0.50147,0.974797 -0.79281,1.147843 -1.48804,0.883823 -0.51594,-0.195937 -0.56924,-0.179837 -0.96304,0.290957 -1.17677,1.406841 -3.13281,1.141874 -3.91641,-0.530524 l -0.369,-0.787535 -0.4002,0.61501 c -0.24539,0.377115 -0.64209,0.706629 -1.02553,0.851863 -0.55569,0.210471 -0.70839,0.205134 -1.37099,-0.04791 -1.04875,-0.400521 -2.215,-1.511764 -3.3955,-3.235336 -1.63855,-2.392339 -3.6486,-6.71054 -4.32616,-9.293898 l -0.27121,-1.034038 -2.00881,0.02303 c -1.51182,0.01733 -2.13257,-0.04018 -2.50905,-0.232475 -0.47574,-0.24299 -0.49953,-0.305027 -0.48562,-1.266381 0.0118,-0.815552 0.11786,-1.191317 0.54892,-1.944738 1.78642,-3.122337 5.47905,-4.046577 8.41026,-2.10503 0.85587,0.566908 1.61468,1.677673 1.61468,2.363618 0,0.60532 -0.65764,1.3177 -1.64212,1.778806 l -0.83863,0.392791 0.75939,1.518707 c 1.01164,2.023165 2.07174,3.4105 3.83623,5.02041 1.59219,1.452705 1.40982,0.999786 -0.36713,-0.91177 -0.55688,-0.599062 -1.24411,-1.389349 -1.52717,-1.756194 -0.52974,-0.68654 -1.88707,-3.204603 -1.8877,-3.501989 -1.9e-4,-0.09187 0.34205,-0.348674 0.76053,-0.570678 1.02582,-0.544197 1.40684,-1.064226 1.40684,-1.920094 0,-1.97527 -2.61105,-3.915933 -5.28055,-3.924773 l -1.19523,-0.004 -0.33597,-1.542417 c -0.52829,-2.425339 -0.56957,-2.789059 -0.32468,-2.860568 0.11902,-0.03475 1.34195,-0.153653 2.71762,-0.26422 1.37567,-0.110568 2.5649,-0.212467 2.64274,-0.226443 0.0779,-0.01398 0.2493,0.38729 0.38101,0.891702 0.76785,2.940592 2.38447,6.404054 4.19928,8.99658 l 1.11436,1.591903 0.10246,-1.667478 c 0.0564,-0.917113 0.0707,-1.723755 0.0318,-1.792538 -0.0388,-0.06878 -0.28777,-0.125061 -0.55318,-0.125061 -0.64883,0 -1.30411,-0.316478 -1.42157,-0.686569 -0.27242,-0.858314 0.66505,-2.378627 1.8513,-3.002284 l 0.75411,-0.396467 -0.0855,-1.000487 c -0.047,-0.550268 -0.12907,-1.602866 -0.18228,-2.339107 l -0.0967,-1.338619 1.3839,-0.451552 c 1.69356,-0.552593 2.87481,-1.306907 3.54502,-2.263753 0.42533,-0.607241 0.50596,-0.878568 0.50136,-1.6872 -0.0107,-1.886333 -1.8648,-4.726747 -4.32548,-6.62651 l -1.25322,-0.967549 -9.4e-4,-1.706015 c -8.8e-4,-1.604247 0.26166,-5.542699 0.42094,-6.314787 0.0596,-0.288938 0.29951,-0.397753 1.36762,-0.620325 1.40248,-0.292246 3.65836,-0.613374 4.30887,-0.613374 0.38759,0 0.4048,0.04669 0.4048,1.09805 v 1.09805 l -1.31414,1.286187 c -2.20554,2.158614 -2.80821,3.961154 -1.81842,5.438719 0.8672,1.294544 1.17707,1.601766 2.22143,2.202428 l 1.05484,0.606691 0.0978,1.180031 c 0.66495,8.027082 0.80808,9.240058 1.7724,15.020095 0.77636,4.653401 0.9839,7.920654 0.66812,10.518026 -0.21644,1.780247 -0.87624,4.780905 -1.36295,6.198437 -0.45049,1.312035 -0.0903,1.055099 0.40892,-0.291686 0.97207,-2.622499 1.59764,-6.102732 1.60375,-8.92215 0.004,-1.665272 -0.32912,-4.732594 -0.80725,-7.441794 -0.36773,-2.083654 -0.31267,-2.59893 0.5553,-5.196503 1.11091,-3.324626 3.09449,-7.586097 5.62334,-12.081037 0.3004,-0.533952 0.60156,-0.870337 0.77208,-0.862379 0.15377,0.0072 1.40512,0.176008 2.78079,0.375182 2.87927,0.416871 2.72008,0.236091 2.00739,2.279735 -1.01497,2.910398 -2.09775,7.422393 -2.78112,11.58897 -0.43006,2.622153 -0.5124,6.996364 -0.25267,13.423195 0.16322,4.038687 -0.0171,5.442094 -0.94727,7.372449 -1.21249,2.516259 -3.68448,4.102489 -5.5373,3.553196 z m 1.55715,-5.798453 c 0.65248,-1.587216 1.07862,-4.059399 0.62083,-3.601609 -0.0442,0.04424 -0.22387,0.788351 -0.39919,1.653582 -0.17531,0.86523 -0.46956,1.967053 -0.65388,2.448494 -0.50187,1.310877 -0.14025,0.892177 0.43224,-0.500467 z m -9.64982,-6.108497 c -0.26355,-1.227553 -0.56737,-3.197261 -0.67515,-4.377129 -0.10778,-1.179868 -0.25973,-2.145215 -0.33766,-2.145215 -0.47811,0 0.41333,6.383153 1.14786,8.219245 0.1391,0.347722 0.27344,0.61035 0.29852,0.583617 0.0251,-0.02673 -0.17003,-1.052966 -0.43357,-2.280518 z m 13.91751,11.489738 c -0.19369,-0.07826 -0.5108,-0.343971 -0.7047,-0.590476 l -0.35255,-0.44819 0.50754,-0.737678 c 1.45329,-2.112291 1.92541,-4.510654 1.7189,-8.732089 -0.22989,-4.699495 -0.22602,-4.748449 0.48836,-6.169667 0.78826,-1.568228 2.39458,-3.563518 4.74405,-5.892812 l 1.82314,-1.807491 0.85155,0.431512 c 1.53011,0.775367 2.59041,1.946891 3.11964,3.446885 l 0.22658,0.642181 -0.93718,-0.922324 c -0.51545,-0.507278 -1.14544,-1.030019 -1.39998,-1.161646 -0.45878,-0.237245 -0.47127,-0.229473 -1.43981,0.895857 -3.19335,3.710287 -4.24467,6.111872 -5.21686,11.917172 -0.27299,1.630075 -0.59826,3.259596 -0.72283,3.62116 -0.20971,0.608691 -0.20521,0.646001 0.0607,0.503669 0.36461,-0.195134 2.17112,-2.139115 2.17112,-2.336338 0,-0.08128 -0.15945,-0.259472 -0.35434,-0.395976 -0.88376,-0.619013 -0.10513,-1.768238 1.40073,-2.067419 1.43281,-0.284666 2.45128,0.573053 2.58424,2.176342 0.0988,1.191751 -0.16716,1.485227 -1.14667,1.265147 -0.38156,-0.08573 -0.71384,-0.134512 -0.7384,-0.108403 -0.0246,0.02611 -0.51769,0.985428 -1.09585,2.131819 -1.78073,3.530914 -3.76785,5.073956 -5.58742,4.338765 z m 13.20655,-19.525606 c -0.23743,-0.28217 -0.43169,-0.646177 -0.43169,-0.808903 0,-0.516214 -0.83168,-1.901261 -1.6386,-2.728847 -1.30007,-1.333372 -3.11484,-2.005272 -6.39857,-2.368999 -1.35757,-0.150374 -2.03642,-0.64525 -2.10157,-1.532022 -0.0422,-0.574286 0.037,-0.787083 0.48142,-1.293226 1.50603,-1.715267 4.55533,-2.332139 7.57297,-1.532006 3.24107,0.859378 5.26204,3.621485 5.27608,7.210937 0.0111,2.835094 -1.51914,4.527785 -2.76004,3.053066 z m -8.01872,-4.842779 c -0.91711,-0.449669 -1.53191,-0.779947 -1.36622,-0.733952 0.16568,0.04599 1.10318,0.202704 2.08333,0.348242 0.98015,0.145537 1.80052,0.283046 1.82305,0.305575 0.0225,0.02253 -0.16461,0.233731 -0.41586,0.469338 l -0.45682,0.428376 z m -43.1377,-1.810235 c -3.19782,-0.674338 -4.22,-1.782243 -3.773,-4.089423 0.57849,-2.985914 2.96537,-6.118697 6.33562,-8.315539 2.85459,-1.860718 5.26752,-2.601214 8.47614,-2.601214 6.06655,0 12.31947,3.641553 14.42396,8.400166 1.03288,2.335536 0.097,3.859665 -3.0405,4.951586 -4.23915,1.475321 -18.33826,2.515624 -22.42222,1.654424 z m 45.0553,-7.088909 c -1.2381,-0.123668 -2.43868,-0.232129 -2.66796,-0.241026 -0.95508,-0.03706 -0.94187,-0.401571 0.10984,-3.030063 0.26544,-0.663383 0.27654,-0.669937 0.95479,-0.563879 1.77747,0.277945 6.46894,1.481399 9.04332,2.319788 1.56993,0.511274 2.97686,0.929589 3.12652,0.929589 0.14965,0 0.2721,0.06702 0.2721,0.148931 0,0.537901 -7.00117,0.81996 -10.83861,0.43666 z m 7.58703,-2.005283 c -4.83874,-1.559079 -8.17404,-2.343045 -13.0897,-3.076745 -4.49543,-0.670977 -8.32075,-1.040692 -11.49432,-1.110919 -1.99415,-0.04413 -3.3248,-0.141831 -3.46001,-0.254051 -0.12102,-0.100437 -0.21972,-0.512731 -0.21972,-0.917838 0,-2.137383 2.72423,-4.76188 7.07773,-6.818621 5.8968,-2.785843 12.91517,-3.007308 17.79032,-0.561372 3.85895,1.936094 6.89063,5.613036 7.91268,9.596839 0.23202,0.904372 0.43617,2.082059 0.45366,2.617082 0.0275,0.841978 -0.0211,1.01573 -0.36186,1.292295 -0.21651,0.17574 -0.5917,0.316906 -0.83374,0.313703 -0.24205,-0.0032 -1.94082,-0.489371 -3.77504,-1.080373 z m -19.09262,0.303441 c -0.94046,-0.158706 -3.58387,-0.926978 -4.84037,-1.40679 -1.48166,-0.565792 -3.15576,-1.604599 -3.54619,-2.200467 l -0.25196,-0.384545 2.86022,0.02515 c 2.36843,0.02082 7.30793,0.429257 8.06049,0.666498 0.20248,0.06383 -1.54437,3.437706 -1.75687,3.393212 -0.0597,-0.01249 -0.29604,-0.05436 -0.52532,-0.09306 z M 32.816128,34.18479 c -0.59613,-0.07378 -1.5716,-0.313127 -2.16772,-0.531878 -0.89598,-0.328784 -1.14053,-0.503366 -1.41078,-1.007133 -0.31566,-0.588432 -0.31707,-0.640622 -0.041,-1.516542 1.01773,-3.228595 5.19366,-6.854735 11.37323,-9.875848 3.95001,-1.931112 6.282,-2.586344 9.20487,-2.586344 7.00404,0 16.1309,4.759078 19.05154,9.934163 0.62739,1.111678 0.78956,1.935209 0.43846,2.226596 -0.21457,0.178072 -0.46315,0.177764 -1.38841,-0.0017 -2.64543,-0.513168 -6.24302,-0.143599 -9.95059,1.022194 -1.40159,0.440709 -1.70804,0.475674 -4.09942,0.467718 -2.73557,-0.0091 -3.97611,0.141081 -10.50511,1.271774 -2.80922,0.4865 -3.95316,0.604387 -6.41979,0.661578 -1.65081,0.03828 -3.4892,0.0092 -4.08532,-0.06456 z"
       id="path44"
       sodipodi:nodetypes="ssscccssscssssscssssssscsssssssccsssssscccsssccccsscscssssscsssccsssscsssssssssssssssssssssscscsssscsscsssssssssssssccssssscsssssssscssssssssssssssssssssssssssssssscssssscsscsssscsssscc" /><path
       style="fill:#ac7e47;fill-opacity:1"
       d="m 55.493818,81.197457 c -0.71885,-0.393555 -1.06347,-0.409167 -1.57878,-0.07152 -0.54164,0.354895 -0.97221,0.106614 -1.31925,-0.760725 -0.35312,-0.882527 -0.35342,-0.879601 0.24394,-2.335959 1.88384,-4.592826 2.31081,-10.632647 1.15033,-16.272655 -0.45693,-2.220725 -0.42515,-3.227959 0.16065,-5.092238 1.21178,-3.856372 3.77145,-9.381284 6.26859,-13.5304 0.16304,-0.270897 0.33133,-0.264843 2.87899,0.103567 1.4882,0.215205 2.73558,0.421382 2.77194,0.458171 0.0364,0.03679 -0.18986,0.817254 -0.50273,1.734367 -1.51508,4.441155 -2.88113,11.055983 -3.23695,15.674289 -0.1212,1.57316 -0.10981,2.99096 0.0415,5.169181 0.26908,3.872956 0.25678,8.210274 -0.027,9.504623 -0.53515,2.441204 -1.93886,4.407807 -3.76645,5.276811 -1.18387,0.56292 -2.22874,0.611184 -3.08484,0.142491 z m 2.16937,-5.516978 c 0.19503,-0.496546 0.48454,-1.540621 0.64336,-2.320167 0.26234,-1.287688 0.32614,-1.421627 0.6973,-1.464038 1.05599,-0.12066 1.15891,-0.188653 1.15891,-0.765574 0,-1.117459 -1.41733,-2.455216 -2.35256,-2.220487 -0.96765,0.242863 -2.20869,1.615353 -1.90499,2.106752 0.16851,0.27266 0.94699,0.634052 1.64985,0.76591 0.53742,0.10082 0.61938,0.171812 0.54592,0.472852 -0.0475,0.194821 -0.17657,0.879476 -0.28674,1.521455 -0.11016,0.641979 -0.37718,1.637925 -0.59337,2.213214 -0.21618,0.575289 -0.39306,1.098482 -0.39306,1.16265 0,0.260287 0.50309,-0.62653 0.83538,-1.472567 z m 1.17403,-4.394344 c -0.42185,-0.508295 0.2438,-1.173942 0.7521,-0.752094 0.14082,0.116874 0.23366,0.369137 0.20631,0.560585 -0.0611,0.427618 -0.66269,0.547828 -0.95841,0.191509 z m -1.59201,-1.092338 c -0.14216,-0.447913 0.19824,-0.866604 0.65187,-0.801791 0.26454,0.0378 0.34808,0.169792 0.34808,0.549977 0,0.41779 -0.0732,0.508712 -0.44424,0.551625 -0.33111,0.0383 -0.47263,-0.03805 -0.55571,-0.299811 z m -10.76341,10.72152 c -0.29341,-0.246888 -0.65989,-0.746562 -0.81441,-1.110386 l -0.28094,-0.661497 -0.34223,0.580048 c -0.47988,0.813322 -1.30816,1.182095 -2.13948,0.952555 -1.36562,-0.377066 -2.30309,-1.250144 -4.00578,-3.730648 -1.4666,-2.136556 -3.79921,-7.428213 -4.17136,-9.462936 -0.10069,-0.550574 -0.0749,-0.625304 0.21586,-0.625304 0.18163,0 0.86909,-0.175671 1.52769,-0.390381 l 1.19746,-0.390382 0.75036,1.521648 c 0.97975,1.986852 2.04235,3.375426 3.8283,5.002681 1.69637,1.545646 1.62605,1.260938 -0.18305,-0.741133 -0.70441,-0.779545 -1.5048,-1.717502 -1.77865,-2.084347 -0.67549,-0.904902 -1.83463,-3.227426 -1.71077,-3.427831 0.0551,-0.08911 0.37642,-0.303027 0.71412,-0.47538 1.77532,-0.906092 1.90089,-2.482644 0.32404,-4.068477 -1.085,-1.091182 -2.54141,-1.751787 -4.16458,-1.888995 l -1.27383,-0.107679 -0.27229,-1.111073 c -0.21859,-0.89201 -0.57614,-2.982794 -0.51629,-3.019112 0.0531,-0.03225 4.77197,-0.479508 5.11685,-0.484986 0.40908,-0.0065 0.46993,0.106152 1.05467,1.95239 0.80766,2.55005 2.26425,5.50647 3.83771,7.789333 l 1.26002,1.828101 0.001,-0.994362 c 8e-4,-0.546899 0.0488,-1.388303 0.1066,-1.869787 l 0.10515,-0.875426 h 0.89071 c 1.03105,0 0.98324,-0.09011 1.15017,2.167721 0.0576,0.779546 0.2481,2.163492 0.42324,3.075436 0.31958,1.664029 0.96364,3.844298 1.09639,3.711541 0.0391,-0.03904 -0.12196,-0.963032 -0.35779,-2.053312 -0.38113,-1.76209 -0.90854,-5.527388 -0.91304,-6.518401 -0.001,-0.27575 0.18549,-0.450165 0.7487,-0.699302 0.70461,-0.311681 0.75037,-0.37164 0.75037,-0.98327 0,-1.256891 -1.52525,-2.687907 -2.8764,-2.698697 -0.3177,-0.0025 -0.46366,-0.0933 -0.47518,-0.295471 -0.009,-0.160495 -0.0654,-1.244456 -0.12506,-2.408803 l -0.10844,-2.116995 0.72882,-0.18326 c 1.1242,-0.282678 2.71814,-1.057724 3.39192,-1.649307 0.87261,-0.766162 1.36075,-1.853731 1.25463,-2.795267 -0.11399,-1.011346 -1.12786,-3.015181 -2.14236,-4.234226 -0.45568,-0.547562 -1.42581,-1.489716 -2.15582,-2.093676 l -1.32731,-1.098108 -0.002,-1.360706 c -0.002,-1.32078 0.29479,-5.835757 0.43084,-6.550476 0.0576,-0.302597 0.27987,-0.393019 1.52857,-0.621838 1.79363,-0.328677 3.7354,-0.608181 4.22515,-0.608181 0.34891,0 0.36189,0.05255 0.28352,1.147873 l -0.0821,1.147874 -1.18817,1.120865 c -1.31355,1.239128 -2.36083,3.02625 -2.36083,4.028593 0,1.213455 1.47335,3.10669 3.01806,3.878152 l 0.73934,0.369247 0.45323,5.03399 c 0.4365,4.848169 0.74941,7.255576 1.45873,11.222765 1.08135,6.04798 1.06783,9.736237 -0.0525,14.3212 -1.08547,4.442306 -1.68097,5.508385 -2.75565,4.933237 -0.49228,-0.263461 -0.61132,-0.229145 -0.86784,0.250169 -0.52897,0.988391 -2.24151,1.233792 -3.16824,0.453999 z m 15.41316,0.118716 c -0.19369,-0.07826 -0.50873,-0.341334 -0.70009,-0.584617 l -0.34794,-0.442331 0.56083,-0.780627 c 1.41226,-1.965768 1.87249,-4.491405 1.66144,-9.117727 -0.19925,-4.367825 -0.19862,-4.374102 0.58379,-5.877996 0.85642,-1.646158 2.31742,-3.462121 4.62779,-5.752176 l 1.80795,-1.792054 0.8315,0.436258 c 1.68965,0.886498 2.63195,1.902186 3.14424,3.389137 l 0.24118,0.700021 -0.56722,-0.662676 c -0.50648,-0.591706 -1.95987,-1.695988 -2.23215,-1.695988 -0.1844,0 -1.95777,2.24297 -3.04968,3.857262 -1.55886,2.304634 -2.49014,4.881615 -3.03517,8.398698 -0.37838,2.441754 -0.77894,4.461094 -0.95094,4.793999 -0.3155,0.610658 0.18787,0.254112 1.312,-0.929299 l 1.15993,-1.221107 0.73718,0.342095 c 0.40545,0.188152 0.76347,0.357491 0.7956,0.376308 0.10361,0.06068 -1.75521,3.669492 -2.29178,4.449371 -1.17456,1.707163 -3.0304,2.621762 -4.28846,2.113449 z m 7.27883,-6.915345 c -0.31913,-0.384525 -0.13948,-0.83568 0.35565,-0.893131 0.57863,-0.06714 0.84255,0.573411 0.37663,0.914102 -0.38344,0.280379 -0.48458,0.277483 -0.73228,-0.02097 z m -1.06897,-1.735067 c -0.26314,-0.290762 -0.26079,-0.333768 0.0384,-0.70327 0.27335,-0.337565 0.35701,-0.361774 0.58793,-0.170126 0.31828,0.26415 0.34915,0.70299 0.0691,0.982999 -0.26909,0.269089 -0.36669,0.253708 -0.69548,-0.109603 z m -37.24915,-6.219646 c -0.30515,-0.305146 -0.25295,-0.714527 0.13599,-1.06651 0.36974,-0.334608 0.71905,-0.232066 1.06211,0.311785 0.37743,0.598365 -0.68512,1.267706 -1.1981,0.754725 z m 4.46167,-1.141051 c -0.39194,-0.391939 -0.40643,-0.503506 -0.11683,-0.899547 0.14414,-0.197124 0.38134,-0.277556 0.70867,-0.240305 0.40515,0.0461 0.50191,0.142865 0.54802,0.548012 0.0373,0.327337 -0.0432,0.564537 -0.24031,0.708678 -0.39604,0.289592 -0.50761,0.275101 -0.89955,-0.116838 z m -3.40229,-1.218264 c -0.6169,-0.451085 0.0385,-1.593177 0.6815,-1.187582 0.54385,0.343053 0.64639,0.692366 0.31178,1.062103 -0.36113,0.399051 -0.58114,0.426844 -0.99328,0.125479 z m 5.3318,-0.544498 c -0.14411,-0.144118 -0.26203,-0.363868 -0.26203,-0.488333 0,-0.31757 0.46852,-0.750365 0.8123,-0.750365 0.67854,0 0.95724,1.011637 0.3659,1.328115 -0.43819,0.234514 -0.60889,0.217854 -0.91617,-0.08942 z m -2.89664,-0.938552 c -0.48586,-0.48586 0.12455,-1.431761 0.78805,-1.221174 0.42166,0.13383 0.62662,0.832825 0.34403,1.173315 -0.2478,0.298591 -0.85565,0.324287 -1.13208,0.04786 z m 9.03507,-0.207032 c -0.17762,-0.462862 0.012,-0.843479 0.42031,-0.843479 0.52599,0 0.82395,0.462841 0.52773,0.819762 -0.27375,0.329849 -0.82528,0.343647 -0.94804,0.02372 z m 3.61106,-0.168477 c -0.31913,-0.384525 -0.13948,-0.83568 0.35564,-0.893131 0.57863,-0.06714 0.84256,0.573411 0.37664,0.914102 -0.38344,0.28038 -0.48459,0.277483 -0.73228,-0.02097 z m -1.66749,-1.333991 c -0.24534,-0.295622 -0.0911,-0.857022 0.27394,-0.997104 0.25678,-0.09854 0.88665,0.317872 0.88665,0.586166 0,0.208357 -0.50516,0.653058 -0.74185,0.653058 -0.11979,0 -0.30822,-0.108954 -0.41874,-0.24212 z m 30.54798,-0.0357 c -0.37683,-0.151814 -0.56791,-0.692474 -0.37327,-1.056163 0.33927,-0.633932 1.33398,-0.323084 1.33398,0.416869 0,0.584263 -0.41381,0.859626 -0.96071,0.639294 z m -8.62729,-3.832331 c -1.61038,-0.783051 -1.62536,-0.777134 0.9588,-0.378758 0.71076,0.109572 1.2923,0.250883 1.2923,0.314025 0,0.06314 -0.16883,0.267727 -0.37518,0.454634 l -0.37519,0.33983 z m 8.18255,0.346415 c -0.50364,-0.503648 -0.21386,-1.238698 0.48834,-1.238698 0.7022,0 0.99198,0.73505 0.48833,1.238698 -0.14412,0.144117 -0.36387,0.262032 -0.48833,0.262032 -0.12447,0 -0.34422,-0.117915 -0.48834,-0.262032 z m -5.01495,-2.073114 c -0.4413,-0.487626 -0.11374,-1.166557 0.56281,-1.166557 0.71834,0 0.99191,0.99307 0.36588,1.328115 -0.45227,0.242044 -0.58421,0.21909 -0.92869,-0.161558 z m -4.04493,-0.443889 c -0.31165,-0.125554 -0.55345,-0.660396 -0.43643,-0.965343 0.16284,-0.424356 0.6789,-0.630226 1.06364,-0.424316 0.44548,0.238414 0.45253,1.091798 0.011,1.328115 -0.17739,0.09494 -0.34622,0.166691 -0.37518,0.15945 -0.029,-0.0072 -0.1473,-0.0513 -0.26299,-0.09791 z m 6.99698,-0.422522 c -0.46773,-0.467727 -0.11535,-1.300633 0.55026,-1.300633 0.44696,0 0.75037,0.303405 0.75037,0.750365 0,0.446961 -0.30341,0.750365 -0.75037,0.750365 -0.19259,0 -0.44021,-0.09004 -0.55026,-0.200097 z m -44.63838,-0.321916 c -0.78716,-0.440057 -0.99237,-1.317285 -0.45856,-1.960228 0.7684,-0.925492 2.20941,-0.403053 2.20941,0.801022 0,0.953958 -0.96964,1.595939 -1.75085,1.159206 z m 40.39476,-0.938323 c -0.37404,-0.0831 -0.55924,-0.802155 -0.29013,-1.12642 0.51929,-0.625698 1.55693,0.02102 1.17594,0.732913 -0.19382,0.362148 -0.47157,0.485536 -0.88581,0.393507 z m -46.39768,-0.733185 c -1.16021,-0.634584 -0.92694,-2.160833 0.3685,-2.411047 0.44795,-0.08652 0.61793,-0.02071 1.04217,0.403541 0.6357,0.635692 0.64088,1.091264 0.0195,1.712638 -0.51617,0.516174 -0.88612,0.592447 -1.43018,0.294868 z m 18.12853,-0.852563 c -0.95099,-1.012281 0.20731,-2.531007 1.54023,-2.019515 0.14846,0.05697 0.38385,0.323872 0.52308,0.593117 0.23051,0.445764 0.22623,0.544598 -0.0479,1.10534 -0.26396,0.540008 -0.38375,0.621897 -0.97328,0.665301 -0.53026,0.03904 -0.75042,-0.03368 -1.04218,-0.344243 z m 5.15176,-1.414418 c -0.93203,-0.773821 -0.40262,-2.209408 0.81476,-2.209408 0.50171,0 0.72149,0.100062 1.00142,0.455925 0.65229,0.82926 0.0569,2.045292 -1.00142,2.045292 -0.25481,0 -0.62146,-0.131314 -0.81476,-0.291809 z m -15.42757,-1.08386 c -0.68149,-0.608924 -0.72359,-1.193552 -0.1288,-1.788342 0.61878,-0.618785 1.23202,-0.651414 1.78828,-0.09515 0.65726,0.657261 0.531,1.600698 -0.26963,2.01472 -0.64222,0.332107 -0.89837,0.307922 -1.38985,-0.131228 z m 5.58258,-1.231409 c -0.45846,-0.582826 -0.4365,-1.152378 0.0637,-1.65257 0.89843,-0.898437 2.20187,-0.199013 2.11168,1.133127 -0.0638,0.941875 -1.56173,1.299563 -2.17537,0.519443 z m 35.25505,0.37167 c -0.0917,-0.03677 -1.38223,-0.161071 -2.86781,-0.276235 -1.48558,-0.115164 -2.78326,-0.260193 -2.88373,-0.322288 -0.12386,-0.07655 0.005,-0.638075 0.40038,-1.744215 0.32068,-0.897224 0.61605,-1.664304 0.65637,-1.704624 0.0942,-0.09418 2.51684,0.363601 4.0278,0.761092 0.64197,0.168886 1.57993,0.402306 2.08434,0.518711 0.74589,0.172132 5.71495,1.750509 6.66991,2.118638 0.57806,0.222834 -1.96583,0.55577 -4.83568,0.632881 -1.69666,0.04559 -3.15987,0.05281 -3.25158,0.01604 z m -46.26827,-1.095306 c -0.87051,-0.870513 -0.43828,-2.047389 0.78556,-2.138939 0.56396,-0.04219 0.73024,0.02229 1.02551,0.39767 0.46497,0.591111 0.44553,1.158825 -0.0569,1.661233 -0.50319,0.50319 -1.29491,0.539313 -1.75419,0.08004 z m 32.11074,-0.864795 c -3.15145,-0.60224 -6.47747,-1.9615 -7.76981,-3.17532 l -0.58361,-0.548161 1.5841,-0.126758 c 0.87126,-0.06972 2.14688,-0.08548 2.83471,-0.03502 1.4993,0.109978 5.7729,0.565193 6.27939,0.668866 0.34202,0.07001 0.31436,0.156273 -0.55854,1.741807 -0.50511,0.917483 -0.92966,1.659758 -0.94346,1.649501 -0.0138,-0.01026 -0.39304,-0.08897 -0.84278,-0.174913 z m -16.62231,-0.952188 c -0.27888,-0.22582 -0.38532,-0.485102 -0.38532,-0.938597 0,-1.164032 1.32104,-1.678903 2.15862,-0.841318 0.5002,0.500192 0.52215,1.069744 0.0637,1.65257 -0.42052,0.5346 -1.26202,0.592935 -1.837,0.127345 z m 36.60843,-0.764269 c -1.16432,-1.164318 0.42773,-2.95701 1.67402,-1.884996 0.58663,0.5046 0.61473,1.312921 0.0659,1.89708 -0.49131,0.522976 -1.20989,0.517985 -1.73996,-0.01208 z m -45.04629,-0.761099 c -0.53857,-0.214647 -0.9419,-0.915235 -0.81591,-1.417228 0.3592,-1.431176 2.25337,-1.418069 2.53026,0.01751 0.17134,0.888369 -0.86805,1.737011 -1.71435,1.39972 z m 39.52137,-1.195551 c -0.55589,-0.268754 -0.80843,-1.021272 -0.55116,-1.642379 0.23905,-0.577103 0.61563,-0.827367 1.24497,-0.827367 0.55881,0 1.25361,0.739345 1.25361,1.333983 0,0.24835 -0.18401,0.650093 -0.40891,0.892763 -0.42754,0.461327 -0.92454,0.539826 -1.53851,0.243 z m -7.40328,-1.289684 c -0.6015,-0.601497 -0.6288,-1.220582 -0.0781,-1.771258 0.55731,-0.557307 1.31582,-0.544214 1.84977,0.03193 0.2249,0.24267 0.40891,0.623625 0.40891,0.846566 0,0.502739 -0.84807,1.38018 -1.33398,1.38018 -0.19754,0 -0.57849,-0.219337 -0.84657,-0.487416 z m 11.21151,-1.44701 c -0.81055,-0.567725 -0.78994,-1.611426 0.0426,-2.156911 0.58799,-0.385263 1.36614,-0.187332 1.6846,0.428491 0.35193,0.680559 0.30737,1.11664 -0.16207,1.586078 -0.47286,0.472859 -1.02193,0.522796 -1.5651,0.142342 z m -23.36478,-0.431485 c -0.73065,-0.784263 -0.14667,-2.136279 0.92272,-2.136279 0.75406,0 1.23851,0.489189 1.23851,1.250609 0,0.361287 -0.12705,0.710663 -0.3335,0.917112 -0.45854,0.458542 -1.3861,0.442585 -1.82773,-0.03144 z m 6.41262,-1.344227 c -0.88777,-0.763671 -0.32001,-2.292781 0.8513,-2.292781 0.58543,0 1.23373,0.70097 1.23373,1.333982 0,0.633011 -0.6483,1.333982 -1.23373,1.333982 -0.22834,0 -0.61142,-0.168832 -0.8513,-0.375183 z m 11.78546,-1.678224 c -0.7613,-0.810365 -0.22738,-2.115287 0.86548,-2.115287 1.12366,0 1.69579,1.379073 0.88725,2.138654 -0.51265,0.481609 -1.28804,0.471272 -1.75273,-0.02337 z m -6.01351,-1.178511 c -0.54879,-0.584159 -0.52069,-1.39248 0.0659,-1.89708 0.86238,-0.741789 2.08331,-0.126406 2.08331,1.050048 0,1.087559 -1.40361,1.64073 -2.14925,0.847032 z M 38.789198,32.00267 c -0.4038,-0.403793 -0.48316,-0.595095 -0.39777,-0.9588 0.12992,-0.553339 0.82388,-1.204724 1.28348,-1.204724 0.39482,0 1.31186,0.85977 1.31186,1.229935 0,0.473362 -0.36771,1.066591 -0.7766,1.252893 -0.62359,0.284128 -0.87375,0.227915 -1.42097,-0.319304 z m -5.75138,-0.746753 c -1.2375,-0.520331 -0.80429,-2.417258 0.55204,-2.417258 0.93224,0 1.53087,1.122067 1.06401,1.994396 -0.25388,0.474389 -1.01799,0.674328 -1.61605,0.422862 z m 17.99199,-0.694636 c -0.11657,-0.0469 -0.32883,-0.31131 -0.47169,-0.587576 -0.67979,-1.314573 1.17498,-2.524527 2.08889,-1.36268 0.71323,0.906727 0.22091,2.075033 -0.86332,2.048695 -0.29806,-0.0072 -0.63731,-0.05154 -0.75388,-0.09844 z m -7.43596,-2.06822 c -0.3389,-0.266572 -0.43936,-0.49258 -0.43936,-0.988384 0,-0.495804 0.10046,-0.721812 0.43936,-0.988384 0.24164,-0.190079 0.60671,-0.345598 0.81125,-0.345598 0.20454,0 0.5696,0.155519 0.81125,0.345598 0.33889,0.266572 0.43936,0.49258 0.43936,0.988384 0,0.495804 -0.10047,0.721812 -0.43936,0.988384 -0.24165,0.190079 -0.60671,0.345598 -0.81125,0.345598 -0.20454,0 -0.56961,-0.155519 -0.81125,-0.345598 z m 19.84298,0 c -0.80656,-0.634443 -0.46658,-2.013269 0.55156,-2.23689 0.63677,-0.139859 1.14995,0.145863 1.42137,0.791378 0.55836,1.327956 -0.82958,2.344868 -1.97293,1.445512 z m -6.10454,-1.317638 c -0.48755,-0.487548 -0.58898,-1.101062 -0.26402,-1.597003 0.73347,-1.119413 2.40721,-0.676107 2.4222,0.641541 0.0119,1.044395 -1.43062,1.683016 -2.15818,0.955462 z m -18.79415,-0.839144 c -0.78989,-0.318253 -0.95697,-1.444081 -0.31029,-2.090763 1.00064,-1.000642 2.63842,0.105589 2.0958,1.415597 -0.18369,0.443455 -0.78758,0.855327 -1.22064,0.832508 -0.11032,-0.0058 -0.36452,-0.07662 -0.56487,-0.157342 z m 11.69555,-0.574874 c -0.72045,-0.720449 -0.44484,-1.794796 0.53233,-2.075044 1.35657,-0.389059 2.22836,1.148579 1.22186,2.15508 -0.45928,0.459276 -1.251,0.423153 -1.75419,-0.08004 z m -5.27731,-2.932346 c -0.42425,-0.424247 -0.49006,-0.594221 -0.40354,-1.042174 0.21092,-1.092012 1.42067,-1.483211 2.19431,-0.709577 0.65726,0.657261 0.531,1.600699 -0.26963,2.01472 -0.68204,0.352694 -0.95218,0.305993 -1.52114,-0.262969 z m 8.73229,-0.212501 c -0.5288,-0.562882 -0.49208,-1.488965 0.0768,-1.936437 0.24165,-0.190079 0.60671,-0.345598 0.81125,-0.345598 0.20454,0 0.56961,0.155519 0.81125,0.345598 0.33889,0.266572 0.43936,0.49258 0.43936,0.988384 0,1.165302 -1.36578,1.770743 -2.13865,0.948053 z"
       id="path39"
       sodipodi:nodetypes="cssssssssssccsccssssssscssssssssssssscscsssssscsssssssscsssssccccscscscssccccsssssccsssccssscsssssccsscsssscsscsssssscsssssssscsssccssssssscsssssssssssssssssssssssssssssssssssssscsssssssssssssscssssssssssssssssssssscsscsccsssssssssssscsssssssssssscsssccsscsssssssssssscssccssssssssssssssssssssssssssssssssssssssssccsccssssssssssssscssssssssssssssssssssssssssssssssssssssss" /></g></svg>
