<?xml version="1.0" encoding="UTF-8" standalone="no"?>
<!-- Created with Inkscape (http://www.inkscape.org/) -->

<svg
   width="100mm"
   height="100mm"
   viewBox="0 0 100 100"
   version="1.1"
   id="svg1"
   inkscape:version="1.4 (86a8ad7, 2024-10-11)"
   sodipodi:docname="decor5.svg"
   xml:space="preserve"
   xmlns:inkscape="http://www.inkscape.org/namespaces/inkscape"
   xmlns:sodipodi="http://sodipodi.sourceforge.net/DTD/sodipodi-0.dtd"
   xmlns="http://www.w3.org/2000/svg"
   xmlns:svg="http://www.w3.org/2000/svg"><sodipodi:namedview
     id="namedview1"
     pagecolor="#ffffff"
     bordercolor="#000000"
     borderopacity="0.25"
     inkscape:showpageshadow="2"
     inkscape:pageopacity="0.0"
     inkscape:pagecheckerboard="true"
     inkscape:deskcolor="#d1d1d1"
     inkscape:document-units="mm"
     inkscape:zoom="1.0167041"
     inkscape:cx="320.15215"
     inkscape:cy="204.09085"
     inkscape:window-width="1920"
     inkscape:window-height="1009"
     inkscape:window-x="1912"
     inkscape:window-y="-8"
     inkscape:window-maximized="1"
     inkscape:current-layer="layer1" /><defs
     id="defs1" /><g
     inkscape:label="Warstwa 1"
     inkscape:groupmode="layer"
     id="layer1"><path
       style="fill:#a78d63;fill-opacity:1;stroke-width:1.2594"
       d="m 24.621116,48.743266 c -0.49535,-0.196776 -0.88308,-0.847757 -1.24361,-2.087938 -0.28813,-0.991111 -0.85992,-2.238005 -1.27065,-2.770876 -0.62824,-0.815038 -0.64372,-0.889504 -0.0976,-0.469033 0.35709,0.274906 1.00902,0.918517 1.44874,1.430248 0.43971,0.511731 0.84278,0.886602 0.89571,0.833043 0.0529,-0.05356 -0.0228,-0.746716 -0.16823,-1.540353 -0.29893,-1.631067 -0.001,-1.491955 0.96869,0.453219 l 0.65991,1.322974 0.0101,-1.666086 c 0.005,-0.916349 -0.2139,-2.403064 -0.48714,-3.303811 -0.51277,-1.69028 -0.4584,-2.382078 0.10264,-1.306469 0.17549,0.336419 0.65771,1.623819 1.07162,2.860888 0.79672,2.381193 1.13773,2.717965 1.51835,1.499478 0.45616,-1.460354 1.82097,-4.348641 1.9798,-4.189802 0.0887,0.08864 -0.0479,0.898914 -0.30337,1.800612 -0.59739,2.108334 -0.8734,4.427939 -0.55061,4.627433 0.13862,0.08566 0.42248,-0.413145 0.63079,-1.108474 0.34254,-1.143271 2.84262,-5.378291 3.175,-5.378291 0.0754,0 -0.35573,1.162096 -0.95816,2.582436 -1.18962,2.804777 -1.72787,5.081565 -1.20134,5.081565 0.17922,0 0.41622,-0.28468 0.52664,-0.632623 0.30792,-0.970114 2.13265,-3.365987 2.56361,-3.365987 0.2264,0 0.15697,0.249505 -0.16996,0.610754 -0.30399,0.335913 -0.79371,1.318014 -1.08825,2.182446 -0.29453,0.864431 -0.8773,1.795633 -1.29503,2.069339 -0.87669,0.574422 -5.61618,0.902728 -6.71729,0.465308 z"
       id="path34" /><path
       style="fill:#837253;fill-opacity:1;stroke-width:1.2594"
       d="m 66.398777,67.549692 c -0.28419,-0.968845 -0.90163,-2.323841 -1.37205,-3.011102 -0.47044,-0.68726 -0.71332,-1.249566 -0.53973,-1.249566 0.31049,0 1.29629,1.068388 2.47237,2.679509 l 0.59805,0.819275 -0.19671,-1.486593 c -0.10819,-0.817625 -0.54631,-2.352028 -0.97355,-3.409783 -0.42725,-1.057755 -0.64248,-1.840169 -0.4783,-1.738696 0.40497,0.250277 1.95194,3.336859 1.95194,3.894567 0,0.245969 0.22897,0.738284 0.50884,1.094035 0.46967,0.597033 0.49393,0.518581 0.31509,-1.019269 -0.10655,-0.916349 -0.42344,-2.765286 -0.70415,-4.108751 -0.28072,-1.343465 -0.43205,-2.521017 -0.33627,-2.616783 0.22518,-0.225183 1.88258,5.197644 1.88258,6.159598 0,0.4029 0.14995,0.732544 0.33322,0.732544 0.18327,0 0.33321,-0.300177 0.33321,-0.66706 0,-0.722079 1.73802,-5.937819 2.30079,-6.904626 0.49956,-0.858199 0.44033,-0.109178 -0.14002,1.770726 -0.27773,0.899658 -0.58062,2.835325 -0.67307,4.301481 -0.16237,2.575038 -0.15276,2.620389 0.28237,1.332871 0.56123,-1.66067 1.56297,-3.608991 1.75623,-3.415741 0.0797,0.07973 -0.15625,1.087866 -0.52441,2.240288 -0.36815,1.152422 -0.66936,2.554981 -0.66936,3.116795 v 1.021481 l 0.97729,-1.541024 c 0.5375,-0.847562 1.28488,-1.70564 1.66082,-1.90684 0.57189,-0.306066 0.51796,-0.120475 -0.33016,1.136202 -0.55754,0.826111 -1.19869,2.142164 -1.42478,2.92456 l -0.41107,1.422541 -3.04122,0.09545 -3.04124,0.09545 z"
       id="path33" /></g></svg>
