<?xml version="1.0" encoding="UTF-8" standalone="no"?>
<!-- Created with Inkscape (http://www.inkscape.org/) -->

<svg
   width="100mm"
   height="100mm"
   viewBox="0 0 100 100"
   version="1.1"
   id="svg1"
   inkscape:version="1.4 (86a8ad7, 2024-10-11)"
   sodipodi:docname="decor6.svg"
   xml:space="preserve"
   xmlns:inkscape="http://www.inkscape.org/namespaces/inkscape"
   xmlns:sodipodi="http://sodipodi.sourceforge.net/DTD/sodipodi-0.dtd"
   xmlns="http://www.w3.org/2000/svg"
   xmlns:svg="http://www.w3.org/2000/svg"><sodipodi:namedview
     id="namedview1"
     pagecolor="#ffffff"
     bordercolor="#000000"
     borderopacity="0.25"
     inkscape:showpageshadow="2"
     inkscape:pageopacity="0.0"
     inkscape:pagecheckerboard="true"
     inkscape:deskcolor="#d1d1d1"
     inkscape:document-units="mm"
     inkscape:zoom="1.0167041"
     inkscape:cx="320.15215"
     inkscape:cy="204.09085"
     inkscape:window-width="1920"
     inkscape:window-height="1009"
     inkscape:window-x="1912"
     inkscape:window-y="-8"
     inkscape:window-maximized="1"
     inkscape:current-layer="layer1" /><defs
     id="defs1" /><g
     inkscape:label="Warstwa 1"
     inkscape:groupmode="layer"
     id="layer1"><path
       style="fill:#a78d63;fill-opacity:1;stroke-width:1.2594"
       d="m 73.526959,29.670132 c -1.00099,-1.839158 -1.61388,-2.188699 -2.94819,-1.681398 -1.30495,0.496142 -1.45839,0.40551 -0.56853,-0.335818 1.02617,-0.85489 2.06769,-0.829463 3.22218,0.07866 l 0.93316,0.734015 -0.22977,-1.150536 c -0.12637,-0.632796 -0.67704,-2.125199 -1.22374,-3.316451 l -0.99397,-2.165914 0.98175,1.166262 c 0.53995,0.641444 1.32462,1.841026 1.74373,2.66574 l 0.76199,1.499478 0.21885,-1.727734 c 0.25914,-2.045915 1.59067,-6.586271 1.85423,-6.322712 0.10113,0.10113 0.0224,0.90421 -0.17483,1.784633 -0.19727,0.880423 -0.43919,2.800352 -0.53758,4.266509 l -0.17888,2.665739 0.62755,-1.694094 c 0.67167,-1.813237 2.10712,-4.267508 2.71606,-4.643861 0.2042,-0.1262 0.0786,0.348526 -0.27904,1.054946 -1.18933,2.348969 -1.30707,4.648583 -0.14254,2.783878 0.22891,-0.366539 0.55392,-0.666434 0.72228,-0.666434 0.16834,0 -0.2078,0.853378 -0.83587,1.896397 -0.62807,1.043019 -1.14195,2.197043 -1.14195,2.564497 0,0.581147 0.15113,0.521611 1.16126,-0.457448 1.30673,-1.266536 1.86495,-1.219423 0.84937,0.07169 -0.36544,0.464583 -0.81368,1.237213 -0.99607,1.716956 -0.3105,0.816672 -0.46886,0.87226 -2.485,0.87226 h -2.15336 z"
       id="path35" /><path
       style="fill:#837253;fill-opacity:1;stroke-width:1.2594"
       d="m 45.884284,61.530564 c -0.12749,-0.679549 -0.66726,-2.195951 -1.19951,-3.369785 -1.18021,-2.602903 -0.37818,-2.148405 1.03423,0.586079 0.7573,1.466175 0.95912,1.679313 0.9661,1.020292 0.009,-0.790911 -1.00886,-5.742101 -1.47189,-7.164174 -0.14744,-0.452834 -0.0564,-0.399434 0.28394,0.166608 0.27551,0.458173 0.83865,1.995139 1.25142,3.415478 0.41277,1.42034 0.85113,2.582436 0.97414,2.582436 0.12304,0 0.45919,-1.174365 0.74708,-2.609698 0.28787,-1.435335 0.76064,-3.122248 1.05057,-3.748697 0.38325,-0.828062 0.47984,-0.911585 0.35384,-0.305954 -0.55945,2.688995 -1.20176,7.395624 -1.0995,8.056763 0.10013,0.647363 0.19187,0.556145 0.56259,-0.559371 0.45908,-1.381402 1.71348,-3.492522 2.07759,-3.496506 0.11448,-0.0013 -0.0666,0.560028 -0.40228,1.247289 -0.33572,0.68726 -0.7872,1.999304 -1.00333,2.915652 -0.21611,0.916348 -0.44273,1.853522 -0.50361,2.082609 -0.0695,0.261783 -0.71974,0.416522 -1.75013,0.416522 -1.62736,0 -1.64117,-0.0091 -1.87125,-1.235543 z"
       id="path28" /></g></svg>
