<?xml version="1.0" encoding="UTF-8" standalone="no"?>
<!-- Created with Inkscape (http://www.inkscape.org/) -->

<svg
   width="100mm"
   height="100mm"
   viewBox="0 0 100 100"
   version="1.1"
   id="svg1"
   inkscape:version="1.4 (86a8ad7, 2024-10-11)"
   sodipodi:docname="decor4.svg"
   xml:space="preserve"
   xmlns:inkscape="http://www.inkscape.org/namespaces/inkscape"
   xmlns:sodipodi="http://sodipodi.sourceforge.net/DTD/sodipodi-0.dtd"
   xmlns="http://www.w3.org/2000/svg"
   xmlns:svg="http://www.w3.org/2000/svg"><sodipodi:namedview
     id="namedview1"
     pagecolor="#ffffff"
     bordercolor="#000000"
     borderopacity="0.25"
     inkscape:showpageshadow="2"
     inkscape:pageopacity="0.0"
     inkscape:pagecheckerboard="true"
     inkscape:deskcolor="#d1d1d1"
     inkscape:document-units="mm"
     inkscape:zoom="1.0167041"
     inkscape:cx="321.13572"
     inkscape:cy="205.07442"
     inkscape:window-width="1920"
     inkscape:window-height="1009"
     inkscape:window-x="1912"
     inkscape:window-y="-8"
     inkscape:window-maximized="1"
     inkscape:current-layer="layer1" /><defs
     id="defs1" /><g
     inkscape:label="Warstwa 1"
     inkscape:groupmode="layer"
     id="layer1"><path
       style="fill:#53535f;fill-opacity:1"
       d="m 86.602535,39.663463 c -1.42415,-1.622019 -1.53429,-2.687477 -0.66283,-6.412218 0.78422,-3.351912 1.16479,-4.230042 1.69201,-3.904202 0.88845,0.549092 1.84269,4.726235 1.84269,8.066282 0,2.127402 -0.0555,2.387797 -0.58804,2.760828 -0.88415,0.619283 -1.39127,0.505886 -2.28383,-0.51069 z"
       id="path9" /><path
       style="fill:#53535f;fill-opacity:1"
       d="m 29.021921,58.211485 -1.67366,-1.071925 0.18432,-1.105332 c 0.35681,-2.139634 2.23782,-4.89741 3.13616,-4.597965 0.39457,0.131523 3.33349,4.471231 3.33385,4.922867 6.9e-4,0.879775 -2.19034,2.9536 -3.09542,2.929836 -0.11637,-0.0031 -0.96473,-0.487922 -1.88525,-1.077481 z"
       id="path26" /><path
       style="fill:#53535f;fill-opacity:1"
       d="m 30.608434,81.156043 c -1.62509,-0.205762 -2.87451,-0.793167 -2.99272,-1.407005 -0.0488,-0.253536 0.0985,-0.836469 0.32749,-1.295406 0.22895,-0.458938 0.41636,-1.203093 0.41648,-1.653678 2.8e-4,-1.09269 1.40179,-4.008642 2.10848,-4.38685 0.41616,-0.222722 0.79526,-0.224708 1.45307,-0.0076 0.91539,0.302106 1.33929,0.967323 2.51152,3.941295 0.26581,0.674355 0.7442,1.726677 1.0631,2.338495 0.31889,0.611818 0.50448,1.234279 0.41242,1.383246 -0.14392,0.232869 -2.35938,0.965568 -3.58005,1.183997 -0.21828,0.03906 -0.99219,-0.0044 -1.71979,-0.09649 z"
       id="path25" /><path
       style="fill:#53535f;fill-opacity:1"
       d="m 77.017246,21.80375 c -1.56174,-1.192473 -1.82868,-2.255405 -0.97685,-3.889677 0.32186,-0.617496 0.82217,-1.899152 1.11181,-2.848124 0.28963,-0.948973 0.62603,-1.830011 0.74755,-1.957863 0.31265,-0.328955 1.36132,0.883109 2.31628,2.677169 0.77973,1.464858 1.62449,5.547875 1.26739,6.12568 -0.14435,0.233571 -2.20267,0.822318 -2.8749,0.822318 -0.20567,0 -0.92175,-0.418276 -1.59128,-0.929503 z"
       id="path23" /><path
       style="fill:#53535f;fill-opacity:1"
       d="m 81.132456,72.963438 c -0.63084,-0.09238 -1.26208,-0.337214 -1.40276,-0.544069 -0.42946,-0.631452 -0.0311,-3.14759 0.93815,-5.925161 0.85734,-2.456917 1.4117,-3.31448 2.14263,-3.31448 0.57355,0 2.50532,5.51079 2.50419,7.14375 -7.8e-4,1.127402 -0.13493,1.33252 -1.31545,2.011285 -1.31983,0.758861 -1.58328,0.816636 -2.86676,0.628675 z"
       id="path22" /><path
       style="fill:#53535f;fill-opacity:1"
       d="m 41.745945,70.102649 c -0.61846,-0.306134 -1.12448,-0.728671 -1.12448,-0.938972 0,-1.144417 1.53464,-2.850019 3.41116,-3.791183 l 1.16221,-0.582899 1.00184,1.149102 c 1.18823,1.362873 1.96456,2.938506 1.73832,3.528071 -0.46401,1.209189 -4.24585,1.597747 -6.18905,0.635881 z"
       id="path18" /></g></svg>
