<?xml version="1.0" encoding="UTF-8" standalone="no"?>
<!-- Created with Inkscape (http://www.inkscape.org/) -->

<svg
   width="100mm"
   height="100mm"
   viewBox="0 0 100 100"
   version="1.1"
   id="svg1"
   inkscape:version="1.4 (86a8ad7, 2024-10-11)"
   sodipodi:docname="decor1.svg"
   xml:space="preserve"
   xmlns:inkscape="http://www.inkscape.org/namespaces/inkscape"
   xmlns:sodipodi="http://sodipodi.sourceforge.net/DTD/sodipodi-0.dtd"
   xmlns="http://www.w3.org/2000/svg"
   xmlns:svg="http://www.w3.org/2000/svg"><sodipodi:namedview
     id="namedview1"
     pagecolor="#ffffff"
     bordercolor="#000000"
     borderopacity="0.25"
     inkscape:showpageshadow="2"
     inkscape:pageopacity="0.0"
     inkscape:pagecheckerboard="true"
     inkscape:deskcolor="#d1d1d1"
     inkscape:document-units="mm"
     inkscape:zoom="1.4378367"
     inkscape:cx="307.754"
     inkscape:cy="167.96066"
     inkscape:window-width="1920"
     inkscape:window-height="1009"
     inkscape:window-x="1912"
     inkscape:window-y="-8"
     inkscape:window-maximized="1"
     inkscape:current-layer="layer1" /><defs
     id="defs1" /><g
     inkscape:label="Warstwa 1"
     inkscape:groupmode="layer"
     id="layer1"><path
       style="fill:#53535f;fill-opacity:1"
       d="m 75.541849,50.9146 c -1.01877,-1.048879 -1.16903,-1.765675 -0.67012,-3.196845 0.27866,-0.799355 2.13427,-2.168682 2.93884,-2.168682 0.19393,0 1.13813,0.52698 2.09824,1.171068 1.60815,1.078825 1.75841,1.261181 1.90762,2.315104 0.19627,1.386392 -0.24116,1.859626 -2.27803,2.464513 -2.17374,0.64553 -2.90521,0.538431 -3.99655,-0.585158 z"
       id="path28" /><path
       style="fill:#53535f;fill-opacity:1"
       d="m 85.121558,39.275382 -0.74236,-0.641869 0.4771,-0.879485 c 0.57151,-1.053537 1.47445,-1.759274 2.51786,-1.967956 0.65967,-0.131933 0.84293,-0.02972 1.31265,0.732149 0.8855,1.436246 0.97974,2.212725 0.34553,2.846936 -0.81913,0.81913 -2.91523,0.771013 -3.91078,-0.08978 z"
       id="path21" /><path
       style="fill:#53535f;fill-opacity:1"
       d="m 77.812861,29.435363 c -0.61846,-0.306134 -1.12448,-0.728671 -1.12448,-0.938972 0,-1.144417 1.53464,-2.850019 3.41116,-3.791183 l 1.16221,-0.582899 1.00184,1.149102 c 1.18823,1.362873 1.96456,2.938506 1.73832,3.528071 -0.46401,1.209189 -4.24585,1.597747 -6.18905,0.635881 z"
       id="path18" /><path
       style="fill:#53535f;fill-opacity:1"
       d="m 26.85159,20.480716 c -0.67321,-0.354032 -1.28265,-0.797731 -1.3543,-0.985996 -0.41492,-1.09024 1.82278,-3.369572 3.95254,-4.026069 0.44477,-0.137099 0.77577,0.02517 1.4158,0.694086 1.89963,1.985343 1.82013,3.08457 -0.29632,4.0973 -1.88545,0.902192 -2.36739,0.930799 -3.71772,0.220679 z"
       id="path16" /><path
       style="fill:#53535f;fill-opacity:1"
       d="m 20.406948,65.927159 c -1.42394,-0.582808 -1.77784,-2.086873 -0.70381,-2.99115 0.82599,-0.695438 4.59668,-2.093599 5.22257,-1.936512 0.33238,0.08342 1.33165,0.584942 2.2206,1.114487 2.49922,1.488778 2.73683,2.331064 0.95259,3.376701 -1.08072,0.633344 -1.40394,0.685299 -4.16719,0.669829 -1.64757,-0.0092 -3.23372,-0.114234 -3.52476,-0.233355 z"
       id="path14" /><path
       style="fill:#53535f;fill-opacity:1"
       d="m 40.548241,80.039177 c -0.77806,-0.906225 -0.84906,-1.123268 -0.69092,-2.112207 0.11473,-0.717466 0.38265,-1.237437 0.76756,-1.489638 0.85985,-0.563395 2.972,-0.712375 4.4947,-0.317033 1.17346,0.304668 1.39112,0.477984 1.92663,1.534097 0.33204,0.654844 0.57017,1.487507 0.52917,1.850362 -0.0689,0.609347 -0.25643,0.694475 -2.4558,1.114536 -3.30658,0.631527 -3.5585,0.599557 -4.57134,-0.580117 z"
       id="path13" /><path
       style="fill:#53535f;fill-opacity:1"
       d="m 24.175341,80.007779 c -2.02874,-1.175944 -2.25551,-3.933628 -0.47028,-5.71886 1.08718,-1.087179 1.83544,-1.203243 3.57096,-0.553901 1.7492,0.65446 2.23938,1.300007 2.42985,3.200018 0.12995,1.296363 0.0808,1.465903 -0.61232,2.111226 -0.68886,0.641376 -2.82929,1.555916 -3.60713,1.541211 -0.17682,-0.0033 -0.7668,-0.264205 -1.31108,-0.579694 z"
       id="path10" /></g></svg>
