<?xml version="1.0" encoding="UTF-8" standalone="no"?>
<!-- Created with Inkscape (http://www.inkscape.org/) -->

<svg
   width="100mm"
   height="100mm"
   viewBox="0 0 100 100"
   version="1.1"
   id="svg1"
   inkscape:version="1.4 (86a8ad7, 2024-10-11)"
   sodipodi:docname="decor8.svg"
   xml:space="preserve"
   xmlns:inkscape="http://www.inkscape.org/namespaces/inkscape"
   xmlns:sodipodi="http://sodipodi.sourceforge.net/DTD/sodipodi-0.dtd"
   xmlns="http://www.w3.org/2000/svg"
   xmlns:svg="http://www.w3.org/2000/svg"><sodipodi:namedview
     id="namedview1"
     pagecolor="#ffffff"
     bordercolor="#000000"
     borderopacity="0.25"
     inkscape:showpageshadow="2"
     inkscape:pageopacity="0.0"
     inkscape:pagecheckerboard="true"
     inkscape:deskcolor="#d1d1d1"
     inkscape:document-units="mm"
     inkscape:zoom="0.71891836"
     inkscape:cx="202.38737"
     inkscape:cy="288.62804"
     inkscape:window-width="1920"
     inkscape:window-height="1009"
     inkscape:window-x="1912"
     inkscape:window-y="-8"
     inkscape:window-maximized="1"
     inkscape:current-layer="layer1" /><defs
     id="defs1" /><g
     inkscape:label="Warstwa 1"
     inkscape:groupmode="layer"
     id="layer1"><path
       style="fill:#53535f;fill-opacity:1;stroke-width:1.26554"
       d="m 41.98479,39.892791 c -0.55249,-0.140585 -1.68258,-0.275494 -2.51131,-0.299797 -2.35725,-0.06914 -3.0643,-0.34916 -2.94635,-1.166928 0.11567,-0.802194 0.15001,-0.802405 4.58096,-0.02813 2.74006,0.4788 2.83485,0.472942 4.00008,-0.247218 0.65645,-0.405702 1.67496,-1.160342 2.26339,-1.676978 1.10437,-0.969658 4.0895,-2.451586 4.37111,-2.169983 0.0876,0.08758 -0.75368,0.713791 -1.86946,1.391589 -1.11578,0.677798 -2.02869,1.37213 -2.02869,1.542959 0,0.170828 0.66082,0.310597 1.46851,0.310597 0.80768,0 1.90011,0.22509 2.4276,0.5002 0.5275,0.27511 1.41113,0.511326 1.96362,0.524924 0.94113,0.02316 0.95889,0.0468 0.28131,0.374602 -0.52866,0.255763 -1.26454,0.212494 -2.73568,-0.160853 -2.26354,-0.574439 -3.59533,-0.397751 -5.41441,0.718323 -1.20628,0.740096 -2.10654,0.830503 -3.85068,0.386696 z"
       id="path32" /><path
       style="fill:#53535f;fill-opacity:1;stroke-width:1.26554"
       d="m 80.583743,65.69196 c -0.46042,-0.06868 -1.45331,-0.203811 -2.20645,-0.300283 -0.75312,-0.09647 -2.54938,-0.84789 -3.99169,-1.669816 -4.0554,-2.311078 -4.44948,-2.35675 -6.86487,-0.79561 -1.66464,1.075914 -2.32504,1.310411 -3.69037,1.310411 -0.9146,0 -1.66291,-0.150679 -1.66291,-0.334841 0,-0.184163 0.4262,-0.334842 0.94711,-0.334842 1.24764,0 4.30521,-1.988854 3.68225,-2.395199 -0.24411,-0.159238 -1.83761,-0.192191 -3.54112,-0.07324 -2.04181,0.142584 -3.09729,0.09876 -3.09729,-0.128601 0,-0.441774 0.3656,-0.574528 3.88257,-1.409807 l 2.90604,-0.690182 2.49533,0.700193 c 1.37245,0.385106 2.56944,0.626108 2.65998,0.53556 0.30818,-0.308179 -0.52407,-1.454995 -1.71522,-2.363529 -0.65339,-0.498364 -1.18798,-1.199805 -1.18798,-1.558758 0,-0.776783 0.60737,-0.869789 0.88892,-0.136117 0.10896,0.284089 0.7584,0.802315 1.44308,1.151612 0.81191,0.41421 1.63416,1.277408 2.36418,2.481938 1.2773,2.107529 1.72988,2.351331 5.87432,3.164391 2.97811,0.584251 2.99102,0.591174 3.09552,1.65874 0.0577,0.589623 -0.043,1.07204 -0.22375,1.07204 -0.18077,0 -0.52934,0.05418 -0.77462,0.120404 -0.24526,0.06623 -0.82262,0.06421 -1.28303,-0.0044 z"
       id="path29" /></g></svg>
