<?xml version="1.0" encoding="UTF-8" standalone="no"?>
<!-- Created with Inkscape (http://www.inkscape.org/) -->

<svg
   width="100mm"
   height="100mm"
   viewBox="0 0 100 100"
   version="1.1"
   id="svg1"
   inkscape:version="1.4 (86a8ad7, 2024-10-11)"
   sodipodi:docname="decor4.svg"
   xml:space="preserve"
   xmlns:inkscape="http://www.inkscape.org/namespaces/inkscape"
   xmlns:sodipodi="http://sodipodi.sourceforge.net/DTD/sodipodi-0.dtd"
   xmlns="http://www.w3.org/2000/svg"
   xmlns:svg="http://www.w3.org/2000/svg"><sodipodi:namedview
     id="namedview1"
     pagecolor="#ffffff"
     bordercolor="#000000"
     borderopacity="0.25"
     inkscape:showpageshadow="2"
     inkscape:pageopacity="0.0"
     inkscape:pagecheckerboard="true"
     inkscape:deskcolor="#d1d1d1"
     inkscape:document-units="mm"
     inkscape:zoom="1.4378367"
     inkscape:cx="270.19758"
     inkscape:cy="188.82533"
     inkscape:window-width="1920"
     inkscape:window-height="1009"
     inkscape:window-x="1912"
     inkscape:window-y="-8"
     inkscape:window-maximized="1"
     inkscape:current-layer="layer1" /><defs
     id="defs1" /><g
     inkscape:label="Warstwa 1"
     inkscape:groupmode="layer"
     id="layer1"><g
       inkscape:label="Warstwa 1"
       id="layer1-6"
       transform="translate(0.31284259,0.06016761)"><rect
         style="fill:#23232b;fill-opacity:1;stroke-width:0.100069"
         id="rect1"
         width="100"
         height="100"
         x="2.220446e-16"
         y="0" /><path
         style="fill:#36373f;fill-opacity:1"
         d="m 61.870681,94.92045 c -2.792457,-0.21168 -4.956416,-0.74728 -11.013031,-2.72586 -2.478273,-0.8096 -5.701805,-1.66167 -7.358264,-1.94501 -3.166896,-0.54169 -7.211985,-0.51891 -10.62319,0.0598 -2.92353,0.49599 -4.173089,0.71762 -4.856875,0.86146 -1.483838,0.31214 -5.380859,0.92834 -6.545997,1.03507 -1.516175,0.13888 -4.254677,-0.17405 -5.292566,-0.14407 C 7.3182429,92.31789 8.3551437,87.23162 8.2165531,80.74598 8.1705081,78.59118 7.5330211,77.035648 6.9027334,74.640555 6.1225274,71.675772 5.2204303,67.817241 5.0604099,66.760403 4.6874565,64.297271 4.617152,61.950044 4.8553405,59.913832 5.1073074,57.759833 5.5468177,55.999085 6.7103304,52.482449 8.783794,46.215549 9.0689515,44.952434 9.2846129,41.079577 9.4249503,38.559391 9.2969813,37.420861 8.2110819,31.528454 7.182706,25.948186 6.9519914,24.050757 6.9518345,21.172233 6.9516171,17.180682 7.5241136,14.337514 9.2312066,12.304266 11.170387,9.9945882 11.477308,6.4238492 15.153442,5.7843782 c 5.175747,-0.900332 6.564882,2.237674 10.510681,0.971885 4.265868,-1.368465 5.590977,-1.713096 7.991757,-2.078476 2.73477,-0.416211 5.020838,-0.432488 7.163343,-0.051 2.458744,0.437791 3.808366,0.840382 9.161283,2.732797 4.748533,1.678748 7.801343,2.288167 11.451603,2.286036 3.124107,0.03613 6.179317,-0.627708 9.210012,-1.303337 3.552223,-0.852105 7.013699,-2.891788 10.662491,-3.21722 5.872825,-0.523792 9.344776,1.232612 10.720666,3.288012 1.183922,1.7686268 0.79697,5.5741108 0.692772,8.6912368 -0.116743,3.49241 1.274055,6.854996 2.135615,10.233347 1.165525,4.569026 1.594482,8.432631 1.269136,11.431078 -0.284972,2.626352 -0.796166,4.739381 -2.133898,8.820498 -1.263446,3.854487 -1.393384,4.280284 -1.746041,5.721631 -0.788647,3.223283 1.143634,6.427405 1.422507,9.043298 0.211592,1.984772 -1.418027,5.24975 -0.895625,8.548312 0.670439,4.2333 2.792068,8.690674 2.851521,11.402354 0.101977,4.65122 0.07133,7.42344 -6.444047,9.4907 -3.925033,1.24537 -4.322513,-2.55604 -14.685409,1.22686 -2.967622,1.08331 -4.790689,1.26401 -5.847627,1.4671 -2.224946,0.42752 -4.722562,0.58643 -6.773501,0.43096 z"
         id="path1"
         sodipodi:nodetypes="sssssssssssssssssssssssssssssssssssss" /></g><path
       style="fill:#53535f;fill-opacity:1"
       d="m 86.602535,39.663463 c -1.42415,-1.622019 -1.53429,-2.687477 -0.66283,-6.412218 0.78422,-3.351912 1.16479,-4.230042 1.69201,-3.904202 0.88845,0.549092 1.84269,4.726235 1.84269,8.066282 0,2.127402 -0.0555,2.387797 -0.58804,2.760828 -0.88415,0.619283 -1.39127,0.505886 -2.28383,-0.51069 z"
       id="path9" /><path
       style="fill:#53535f;fill-opacity:1"
       d="m 168.94819,63.766313 c -1.01877,-1.048879 -1.16903,-1.765675 -0.67012,-3.196845 0.27866,-0.799355 2.13427,-2.168682 2.93884,-2.168682 0.19393,0 1.13813,0.52698 2.09824,1.171068 1.60815,1.078825 1.75841,1.261181 1.90762,2.315104 0.19627,1.386392 -0.24116,1.859626 -2.27803,2.464513 -2.17374,0.64553 -2.90521,0.538431 -3.99655,-0.585158 z"
       id="path28" /><path
       style="fill:#53535f;fill-opacity:1"
       d="m 154.68963,18.105544 c -0.43884,-0.127721 -1.2616,-0.70709 -1.82834,-1.287486 l -1.03044,-1.055266 0.47212,-1.744127 c 0.46876,-1.731748 0.48333,-1.749793 2.05355,-2.542434 0.86979,-0.439068 1.61119,-0.760745 1.64757,-0.714836 0.0364,0.04591 0.56799,0.937112 1.18138,1.980452 l 1.11525,1.896983 -0.5579,1.87333 c -0.54401,1.826665 -0.57905,1.872735 -1.4066,1.849468 -0.46678,-0.01313 -1.20774,-0.128362 -1.64659,-0.256084 z"
       id="path27" /><path
       style="fill:#53535f;fill-opacity:1"
       d="m 29.021921,58.211485 -1.67366,-1.071925 0.18432,-1.105332 c 0.35681,-2.139634 2.23782,-4.89741 3.13616,-4.597965 0.39457,0.131523 3.33349,4.471231 3.33385,4.922867 6.9e-4,0.879775 -2.19034,2.9536 -3.09542,2.929836 -0.11637,-0.0031 -0.96473,-0.487922 -1.88525,-1.077481 z"
       id="path26" /><path
       style="fill:#53535f;fill-opacity:1"
       d="m 30.608434,81.156043 c -1.62509,-0.205762 -2.87451,-0.793167 -2.99272,-1.407005 -0.0488,-0.253536 0.0985,-0.836469 0.32749,-1.295406 0.22895,-0.458938 0.41636,-1.203093 0.41648,-1.653678 2.8e-4,-1.09269 1.40179,-4.008642 2.10848,-4.38685 0.41616,-0.222722 0.79526,-0.224708 1.45307,-0.0076 0.91539,0.302106 1.33929,0.967323 2.51152,3.941295 0.26581,0.674355 0.7442,1.726677 1.0631,2.338495 0.31889,0.611818 0.50448,1.234279 0.41242,1.383246 -0.14392,0.232869 -2.35938,0.965568 -3.58005,1.183997 -0.21828,0.03906 -0.99219,-0.0044 -1.71979,-0.09649 z"
       id="path25" /><path
       style="fill:#53535f;fill-opacity:1"
       d="m 130.24003,21.276469 c -0.60777,-0.532303 -0.86672,-1.015627 -0.94071,-1.755824 -0.0934,-0.934344 -0.0172,-1.07755 0.89511,-1.681256 0.64692,-0.428115 1.10683,-0.998734 1.30931,-1.624494 0.43949,-1.358259 1.45045,-3.320094 1.90548,-3.69774 0.54419,-0.451636 1.16299,-0.131154 1.47502,0.763924 0.14695,0.421553 0.41092,1.952388 0.58659,3.401856 0.40897,3.374412 0.20233,3.98342 -1.55669,4.587853 -2.35382,0.808817 -2.7564,0.80944 -3.67411,0.0057 z"
       id="path24" /><path
       style="fill:#53535f;fill-opacity:1"
       d="m 77.017246,21.80375 c -1.56174,-1.192473 -1.82868,-2.255405 -0.97685,-3.889677 0.32186,-0.617496 0.82217,-1.899152 1.11181,-2.848124 0.28963,-0.948973 0.62603,-1.830011 0.74755,-1.957863 0.31265,-0.328955 1.36132,0.883109 2.31628,2.677169 0.77973,1.464858 1.62449,5.547875 1.26739,6.12568 -0.14435,0.233571 -2.20267,0.822318 -2.8749,0.822318 -0.20567,0 -0.92175,-0.418276 -1.59128,-0.929503 z"
       id="path23" /><path
       style="fill:#53535f;fill-opacity:1"
       d="m 81.132456,72.963438 c -0.63084,-0.09238 -1.26208,-0.337214 -1.40276,-0.544069 -0.42946,-0.631452 -0.0311,-3.14759 0.93815,-5.925161 0.85734,-2.456917 1.4117,-3.31448 2.14263,-3.31448 0.57355,0 2.50532,5.51079 2.50419,7.14375 -7.8e-4,1.127402 -0.13493,1.33252 -1.31545,2.011285 -1.31983,0.758861 -1.58328,0.816636 -2.86676,0.628675 z"
       id="path22" /><path
       style="fill:#53535f;fill-opacity:1"
       d="m 176.68776,72.920775 -0.74236,-0.641869 0.4771,-0.879485 c 0.57151,-1.053537 1.47445,-1.759274 2.51786,-1.967956 0.65967,-0.131933 0.84293,-0.02972 1.31265,0.732149 0.8855,1.436246 0.97974,2.212725 0.34553,2.846936 -0.81913,0.81913 -2.91523,0.771013 -3.91078,-0.08978 z"
       id="path21" /><path
       style="fill:#53535f;fill-opacity:1"
       d="m 165.16405,38.979962 c -0.63768,-0.335186 -1.26984,-0.85093 -1.40481,-1.146096 -0.31091,-0.679955 0.15017,-1.976875 0.70282,-1.976875 0.22035,0 1.19124,-0.3165 2.15753,-0.703332 l 1.75689,-0.703333 1.09519,0.598272 c 2.0818,1.137229 3.07935,2.337429 2.58965,3.115706 -0.31383,0.49877 -2.39183,1.145984 -4.15035,1.292668 -1.31135,0.109385 -1.78918,0.02641 -2.74692,-0.47701 z"
       id="path20" /><path
       style="fill:#53535f;fill-opacity:1"
       d="m 134.18029,49.031528 c -0.69122,-0.359815 -1.25677,-0.82497 -1.25677,-1.033677 0,-0.208707 0.62966,-1.055943 1.39925,-1.882746 l 1.39925,-1.503278 0.91585,0.465557 c 0.50373,0.256056 1.4085,0.864459 2.01062,1.352008 0.85247,0.69027 1.12154,1.107505 1.21577,1.885281 0.0685,0.564957 -0.005,1.083267 -0.16871,1.193215 -0.15936,0.106913 -1.1827,0.190666 -2.27411,0.186119 -1.58484,-0.0066 -2.23741,-0.139987 -3.24115,-0.662479 z"
       id="path19" /><path
       style="fill:#53535f;fill-opacity:1"
       d="m 41.745945,70.102649 c -0.61846,-0.306134 -1.12448,-0.728671 -1.12448,-0.938972 0,-1.144417 1.53464,-2.850019 3.41116,-3.791183 l 1.16221,-0.582899 1.00184,1.149102 c 1.18823,1.362873 1.96456,2.938506 1.73832,3.528071 -0.46401,1.209189 -4.24585,1.597747 -6.18905,0.635881 z"
       id="path18" /><path
       style="fill:#53535f;fill-opacity:1"
       d="m 143.29787,37.8713 c -1.44807,-0.898352 -1.41293,-2.214952 0.0827,-3.098436 0.94637,-0.559034 1.73033,-0.412824 2.85339,0.532168 0.98584,0.829533 1.14706,2.293308 0.30236,2.745373 -0.76619,0.410057 -2.43777,0.317608 -3.23843,-0.179105 z"
       id="path17" /><path
       style="fill:#53535f;fill-opacity:1"
       d="m 115.36274,39.066218 c -0.67321,-0.354032 -1.28265,-0.797731 -1.3543,-0.985996 -0.41492,-1.09024 1.82278,-3.369572 3.95254,-4.026069 0.44477,-0.137099 0.77577,0.02517 1.4158,0.694086 1.89963,1.985343 1.82013,3.08457 -0.29632,4.0973 -1.88545,0.902192 -2.36739,0.930799 -3.71772,0.220679 z"
       id="path16" /><path
       style="fill:#53535f;fill-opacity:1"
       d="m 120.93129,72.657866 c -1.01639,-0.690652 -1.02102,-0.701892 -0.91161,-2.214429 0.0877,-1.213019 0.28061,-1.73571 0.95435,-2.586375 0.79705,-1.006358 2.74819,-2.183995 3.61851,-2.183995 0.53679,0 1.99195,2.948714 1.98745,4.027351 -0.007,1.711106 -0.20684,1.967077 -2.07078,2.654009 -0.96913,0.357164 -1.94078,0.727741 -2.15921,0.823502 -0.23008,0.10087 -0.82688,-0.117901 -1.41871,-0.520063 z"
       id="path15" /><path
       style="fill:#53535f;fill-opacity:1"
       d="m 123.56608,91.107868 c -1.42394,-0.582808 -1.77784,-2.086873 -0.70381,-2.99115 0.82599,-0.695438 4.59668,-2.093599 5.22257,-1.936512 0.33238,0.08342 1.33165,0.584942 2.2206,1.114487 2.49922,1.488778 2.73683,2.331064 0.95259,3.376701 -1.08072,0.633344 -1.40394,0.685299 -4.16719,0.669829 -1.64757,-0.0092 -3.23372,-0.114234 -3.52476,-0.233355 z"
       id="path14" /><path
       style="fill:#53535f;fill-opacity:1"
       d="m 114.63302,44.310966 c -0.77806,-0.906225 -0.84906,-1.123268 -0.69092,-2.112207 0.11473,-0.717466 0.38265,-1.237437 0.76756,-1.489638 0.85985,-0.563395 2.972,-0.712375 4.4947,-0.317033 1.17346,0.304668 1.39112,0.477984 1.92663,1.534097 0.33204,0.654844 0.57017,1.487507 0.52917,1.850362 -0.0689,0.609347 -0.25643,0.694475 -2.4558,1.114536 -3.30658,0.631527 -3.5585,0.599557 -4.57134,-0.580117 z"
       id="path13" /><path
       style="fill:#53535f;fill-opacity:1"
       d="m 165.79358,79.794436 c -2.02874,-1.175944 -2.25551,-3.933628 -0.47028,-5.71886 1.08718,-1.087179 1.83544,-1.203243 3.57096,-0.553901 1.7492,0.65446 2.23938,1.300007 2.42985,3.200018 0.12995,1.296363 0.0808,1.465903 -0.61232,2.111226 -0.68886,0.641376 -2.82929,1.555916 -3.60713,1.541211 -0.17682,-0.0033 -0.7668,-0.264205 -1.31108,-0.579694 z"
       id="path10" /></g></svg>
