<?xml version="1.0" encoding="UTF-8" standalone="no"?>
<!-- Created with Inkscape (http://www.inkscape.org/) -->

<svg
   width="100mm"
   height="100mm"
   viewBox="0 0 100 100"
   version="1.1"
   id="svg1"
   inkscape:version="1.4 (86a8ad7, 2024-10-11)"
   sodipodi:docname="decor2.svg"
   xml:space="preserve"
   xmlns:inkscape="http://www.inkscape.org/namespaces/inkscape"
   xmlns:sodipodi="http://sodipodi.sourceforge.net/DTD/sodipodi-0.dtd"
   xmlns="http://www.w3.org/2000/svg"
   xmlns:svg="http://www.w3.org/2000/svg"><sodipodi:namedview
     id="namedview1"
     pagecolor="#ffffff"
     bordercolor="#000000"
     borderopacity="0.25"
     inkscape:showpageshadow="2"
     inkscape:pageopacity="0.0"
     inkscape:pagecheckerboard="true"
     inkscape:deskcolor="#d1d1d1"
     inkscape:document-units="mm"
     inkscape:zoom="1.4378367"
     inkscape:cx="352.26531"
     inkscape:cy="181.87044"
     inkscape:window-width="1920"
     inkscape:window-height="1009"
     inkscape:window-x="1912"
     inkscape:window-y="-8"
     inkscape:window-maximized="1"
     inkscape:current-layer="layer1" /><defs
     id="defs1" /><g
     inkscape:label="Warstwa 1"
     inkscape:groupmode="layer"
     id="layer1"><path
       style="fill:#53535f;fill-opacity:1"
       d="m 27.349745,58.616994 c -1.42415,-1.622019 -1.53429,-2.687477 -0.66283,-6.412218 0.78422,-3.351912 1.16479,-4.230042 1.69201,-3.904202 0.88845,0.549092 1.84269,4.726235 1.84269,8.066282 0,2.127402 -0.0555,2.387797 -0.58804,2.760828 -0.88415,0.619283 -1.39127,0.505886 -2.28383,-0.51069 z"
       id="path9" /><path
       style="fill:#53535f;fill-opacity:1"
       d="m 16.334826,49.246728 c -0.60777,-0.532303 -0.86672,-1.015627 -0.94071,-1.755824 -0.0934,-0.934344 -0.0172,-1.07755 0.89511,-1.681256 0.64692,-0.428115 1.10683,-0.998734 1.30931,-1.624494 0.43949,-1.358259 1.45045,-3.320094 1.90548,-3.69774 0.54419,-0.451636 1.16299,-0.131154 1.47502,0.763924 0.14695,0.421553 0.41092,1.952388 0.58659,3.401856 0.40897,3.374412 0.20233,3.98342 -1.55669,4.587853 -2.35382,0.808817 -2.7564,0.80944 -3.67411,0.0057 z"
       id="path24" /><path
       style="fill:#53535f;fill-opacity:1"
       d="m 64.872268,38.181073 c -1.56174,-1.192473 -1.82868,-2.255405 -0.97685,-3.889677 0.32186,-0.617496 0.82217,-1.899152 1.11181,-2.848124 0.28963,-0.948973 0.62603,-1.830011 0.74755,-1.957863 0.31265,-0.328955 1.36132,0.883109 2.31628,2.677169 0.77973,1.464858 1.62449,5.547875 1.26739,6.12568 -0.14435,0.233571 -2.20267,0.822318 -2.8749,0.822318 -0.20567,0 -0.92175,-0.418276 -1.59128,-0.929503 z"
       id="path23" /><path
       style="fill:#53535f;fill-opacity:1"
       d="m 75.427999,28.615855 c -0.63084,-0.09238 -1.26208,-0.337214 -1.40276,-0.544069 -0.42946,-0.631452 -0.0311,-3.14759 0.93815,-5.925161 0.85734,-2.456917 1.4117,-3.31448 2.14263,-3.31448 0.57355,0 2.50532,5.51079 2.50419,7.14375 -7.8e-4,1.127402 -0.13493,1.33252 -1.31545,2.011285 -1.31983,0.758861 -1.58328,0.816636 -2.86676,0.628675 z"
       id="path22" /><path
       style="fill:#53535f;fill-opacity:1"
       d="m 78.781851,68.263081 c -1.44807,-0.898352 -1.41293,-2.214952 0.0827,-3.098436 0.94637,-0.559034 1.73033,-0.412824 2.85339,0.532168 0.98584,0.829533 1.14706,2.293308 0.30236,2.745373 -0.76619,0.410057 -2.43777,0.317608 -3.23843,-0.179105 z"
       id="path17" /><path
       style="fill:#53535f;fill-opacity:1"
       d="m 75.695079,82.615386 c -0.77806,-0.906225 -0.84906,-1.123268 -0.69092,-2.112207 0.11473,-0.717466 0.38265,-1.237437 0.76756,-1.489638 0.85985,-0.563395 2.972,-0.712375 4.4947,-0.317033 1.17346,0.304668 1.39112,0.477984 1.92663,1.534097 0.33204,0.654844 0.57017,1.487507 0.52917,1.850362 -0.0689,0.609347 -0.25643,0.694475 -2.4558,1.114536 -3.30658,0.631527 -3.5585,0.599557 -4.57134,-0.580117 z"
       id="path13" /></g></svg>
