<?xml version="1.0" encoding="UTF-8" standalone="no"?>
<!-- Created with Inkscape (http://www.inkscape.org/) -->

<svg
   width="100mm"
   height="100mm"
   viewBox="0 0 100 100"
   version="1.1"
   id="svg1"
   inkscape:version="1.4 (86a8ad7, 2024-10-11)"
   sodipodi:docname="decor3.svg"
   xml:space="preserve"
   xmlns:inkscape="http://www.inkscape.org/namespaces/inkscape"
   xmlns:sodipodi="http://sodipodi.sourceforge.net/DTD/sodipodi-0.dtd"
   xmlns="http://www.w3.org/2000/svg"
   xmlns:svg="http://www.w3.org/2000/svg"><sodipodi:namedview
     id="namedview1"
     pagecolor="#ffffff"
     bordercolor="#000000"
     borderopacity="0.25"
     inkscape:showpageshadow="2"
     inkscape:pageopacity="0.0"
     inkscape:pagecheckerboard="true"
     inkscape:deskcolor="#d1d1d1"
     inkscape:document-units="mm"
     inkscape:zoom="1.0167041"
     inkscape:cx="353.59354"
     inkscape:cy="172.6166"
     inkscape:window-width="1920"
     inkscape:window-height="1009"
     inkscape:window-x="1912"
     inkscape:window-y="-8"
     inkscape:window-maximized="1"
     inkscape:current-layer="layer1" /><defs
     id="defs1" /><g
     inkscape:label="Warstwa 1"
     inkscape:groupmode="layer"
     id="layer1"><path
       style="fill:#53535f;fill-opacity:1"
       d="m 73.701701,55.698987 c -1.01877,-1.048879 -1.16903,-1.765675 -0.67012,-3.196845 0.27866,-0.799355 2.13427,-2.168682 2.93884,-2.168682 0.19393,0 1.13813,0.52698 2.09824,1.171068 1.60815,1.078825 1.75841,1.261181 1.90762,2.315104 0.19627,1.386392 -0.24116,1.859626 -2.27803,2.464513 -2.17374,0.64553 -2.90521,0.538431 -3.99655,-0.585158 z"
       id="path28" /><path
       style="fill:#53535f;fill-opacity:1"
       d="m 64.908404,26.164926 c -1.62509,-0.205762 -2.87451,-0.793167 -2.99272,-1.407005 -0.0488,-0.253536 0.0985,-0.836469 0.32749,-1.295406 0.22895,-0.458938 0.41636,-1.203093 0.41648,-1.653678 2.8e-4,-1.09269 1.40179,-4.008642 2.10848,-4.38685 0.41616,-0.222722 0.79526,-0.224708 1.45307,-0.0076 0.91539,0.302106 1.33929,0.967323 2.51152,3.941295 0.26581,0.674355 0.7442,1.726677 1.0631,2.338495 0.31889,0.611818 0.50448,1.234279 0.41242,1.383246 -0.14392,0.232869 -2.35938,0.965568 -3.58005,1.183997 -0.21828,0.03906 -0.99219,-0.0044 -1.71979,-0.09649 z"
       id="path25" /><path
       style="fill:#53535f;fill-opacity:1"
       d="m 81.441262,64.853449 -0.74236,-0.641869 0.4771,-0.879485 c 0.57151,-1.053537 1.47445,-1.759274 2.51786,-1.967956 0.65967,-0.131933 0.84293,-0.02972 1.31265,0.732149 0.8855,1.436246 0.97974,2.212725 0.34553,2.846936 -0.81913,0.81913 -2.91523,0.771013 -3.91078,-0.08978 z"
       id="path21" /><path
       style="fill:#53535f;fill-opacity:1"
       d="m 48.051372,29.803974 c -1.44807,-0.898352 -1.41293,-2.214952 0.0827,-3.098436 0.94637,-0.559034 1.73033,-0.412824 2.85339,0.532168 0.98584,0.829533 1.14706,2.293308 0.30236,2.745373 -0.76619,0.410057 -2.43777,0.317608 -3.23843,-0.179105 z"
       id="path17" /><path
       style="fill:#53535f;fill-opacity:1"
       d="m 28.319588,83.040542 c -1.42394,-0.582808 -1.77784,-2.086873 -0.70381,-2.99115 0.82599,-0.695438 4.59668,-2.093599 5.22257,-1.936512 0.33238,0.08342 1.33165,0.584942 2.2206,1.114487 2.49922,1.488778 2.73683,2.331064 0.95259,3.376701 -1.08072,0.633344 -1.40394,0.685299 -4.16719,0.669829 -1.64757,-0.0092 -3.23372,-0.114234 -3.52476,-0.233355 z"
       id="path14" /><path
       style="fill:#53535f;fill-opacity:1"
       d="m 19.386526,36.24364 c -0.77806,-0.906225 -0.84906,-1.123268 -0.69092,-2.112207 0.11473,-0.717466 0.38265,-1.237437 0.76756,-1.489638 0.85985,-0.563395 2.972,-0.712375 4.4947,-0.317033 1.17346,0.304668 1.39112,0.477984 1.92663,1.534097 0.33204,0.654844 0.57017,1.487507 0.52917,1.850362 -0.0689,0.609347 -0.25643,0.694475 -2.4558,1.114536 -3.30658,0.631527 -3.5585,0.599557 -4.57134,-0.580117 z"
       id="path13" /><path
       style="fill:#53535f;fill-opacity:1"
       d="m 70.547086,71.72711 c -2.02874,-1.175944 -2.25551,-3.933628 -0.47028,-5.71886 1.08718,-1.087179 1.83544,-1.203243 3.57096,-0.553901 1.7492,0.65446 2.23938,1.300007 2.42985,3.200018 0.12995,1.296363 0.0808,1.465903 -0.61232,2.111226 -0.68886,0.641376 -2.82929,1.555916 -3.60713,1.541211 -0.17682,-0.0033 -0.7668,-0.264205 -1.31108,-0.579694 z"
       id="path10" /></g></svg>
