<?xml version="1.0" encoding="UTF-8" standalone="no"?>
<!-- Created with Inkscape (http://www.inkscape.org/) -->

<svg
   width="100mm"
   height="100mm"
   viewBox="0 0 100 100"
   version="1.1"
   id="svg1"
   inkscape:version="1.4 (86a8ad7, 2024-10-11)"
   sodipodi:docname="decor7.svg"
   xml:space="preserve"
   xmlns:inkscape="http://www.inkscape.org/namespaces/inkscape"
   xmlns:sodipodi="http://sodipodi.sourceforge.net/DTD/sodipodi-0.dtd"
   xmlns="http://www.w3.org/2000/svg"
   xmlns:svg="http://www.w3.org/2000/svg"><sodipodi:namedview
     id="namedview1"
     pagecolor="#ffffff"
     bordercolor="#000000"
     borderopacity="0.25"
     inkscape:showpageshadow="2"
     inkscape:pageopacity="0.0"
     inkscape:pagecheckerboard="true"
     inkscape:deskcolor="#d1d1d1"
     inkscape:document-units="mm"
     inkscape:zoom="0.71891836"
     inkscape:cx="202.38737"
     inkscape:cy="288.62804"
     inkscape:window-width="1920"
     inkscape:window-height="1009"
     inkscape:window-x="1912"
     inkscape:window-y="-8"
     inkscape:window-maximized="1"
     inkscape:current-layer="layer1" /><defs
     id="defs1" /><g
     inkscape:label="Warstwa 1"
     inkscape:groupmode="layer"
     id="layer1"><path
       style="fill:#53535f;fill-opacity:1;stroke-width:1.26554"
       d="m 58.469328,79.987663 c -0.19064,-0.356219 -0.34662,-0.790373 -0.34662,-0.964789 0,-0.174416 1.31844,-0.880083 2.92987,-1.568148 3.57632,-1.527067 3.52775,-1.488605 4.95446,-3.922914 0.78551,-1.340261 1.1671,-2.423745 1.18978,-3.378218 0.0183,-0.772825 0.154,-1.781834 0.30145,-2.242241 0.21175,-0.661188 0.2751,-0.471834 0.30146,0.901053 0.0183,0.955987 0.14639,1.803802 0.28452,1.884036 0.13812,0.08024 0.92918,-0.05751 1.75792,-0.306088 1.07029,-0.321041 1.67202,-0.74556 2.07719,-1.465483 0.31371,-0.557435 0.73936,-1.013518 0.9459,-1.013518 0.21243,0 0.0375,0.600968 -0.40299,1.383942 -0.62273,1.107071 -1.12403,1.511394 -2.50572,2.021008 -1.82923,0.674682 -2.67369,1.606481 -3.01854,3.330757 -0.20036,1.001815 -0.17201,1.033321 0.76205,0.84666 0.53359,-0.106635 1.92649,-0.358774 3.09534,-0.560318 2.65607,-0.457985 3.69827,-0.848696 4.65536,-1.745256 0.85704,-0.802833 1.00267,-0.424215 0.2501,0.650227 -0.27682,0.395209 -1.05572,0.900872 -1.73087,1.123696 l -1.22756,0.405133 0.93425,0.489502 c 0.51383,0.269227 1.43283,0.431296 2.04221,0.360153 1.22971,-0.14356 1.19887,0.27295 -0.0555,0.749865 -0.5659,0.215155 -1.28379,0.147517 -2.3783,-0.224077 -2.60058,-0.882919 -6.21647,-0.144805 -10.57455,2.158587 -1.80454,0.953757 -3.41903,1.734102 -3.58777,1.734102 -0.16874,0 -0.46279,-0.291452 -0.65343,-0.647671 z"
       id="path31" /><path
       style="fill:#53535f;fill-opacity:1;stroke-width:1.29136"
       d="m 53.689492,30.384638 c 0.465923,-0.178806 1.504286,-0.230459 2.307449,-0.114784 1.303664,0.187756 1.634428,0.08269 3.083061,-0.979301 0.892499,-0.654293 2.207471,-1.279825 2.922162,-1.390072 2.748019,-0.423906 2.868331,-0.47929 2.868331,-1.320431 0,-0.446029 -0.157349,-0.904359 -0.349651,-1.018512 -0.192323,-0.114152 -1.643549,0.04822 -3.224947,0.360826 -2.690596,0.531867 -2.953659,0.532391 -4.095529,0.0081 -2.956377,-1.357275 -4.184387,-2.103544 -4.887395,-2.970089 -0.683225,-0.84217 -2.367819,-1.91865 -3.002502,-1.91865 -0.139919,0 0.402513,0.540033 1.205405,1.200073 0.802892,0.66004 1.37099,1.338094 1.262433,1.506787 -0.108578,0.168693 -1.366367,0.306715 -2.795134,0.306715 -2.57399,0 -2.612327,-0.01302 -4.19003,-1.423077 -0.875756,-0.782691 -1.891712,-1.977898 -2.257679,-2.656014 -0.365977,-0.678116 -0.837491,-1.335085 -1.047817,-1.45993 -0.210336,-0.124846 -0.134129,0.234143 0.169333,0.797756 0.303473,0.563614 0.551761,1.098909 0.551761,1.189547 0,0.09064 -0.666784,0.218285 -1.481733,0.283659 l -1.481724,0.11886 1.568884,0.284169 c 1.244169,0.225351 1.946126,0.655208 3.3915,2.07686 1.686145,1.658474 1.943836,1.792692 3.441948,1.792692 1.468104,0 1.574662,0.05186 1.14086,0.555328 -0.912844,1.059426 -3.053699,1.745086 -4.363892,1.397644 -0.656632,-0.174126 -1.541479,-0.203903 -1.966336,-0.06617 -0.666785,0.216157 -0.581655,0.284828 0.622105,0.50188 2.693001,0.485584 4.24206,0.33996 5.290044,-0.497305 2.384405,-1.904969 3.11261,-1.949854 6.239371,-0.384589 1.287599,0.64457 2.710993,1.171946 3.163121,1.171946 1.036155,0 1.040351,0.355979 0.0152,1.280999 -0.571846,0.51595 -1.257434,0.731507 -2.353345,0.739917 -0.850518,0.0066 -1.93864,0.227204 -2.418027,0.490396 -0.989831,0.543441 -0.597116,0.622068 0.672834,0.13471 z"
       id="path30" /></g></svg>
