<?xml version="1.0" encoding="UTF-8" standalone="no"?>
<!-- Created with Inkscape (http://www.inkscape.org/) -->

<svg
   width="100mm"
   height="100mm"
   viewBox="0 0 100 100"
   version="1.1"
   id="svg1"
   inkscape:version="1.4 (86a8ad7, 2024-10-11)"
   sodipodi:docname="decor6.svg"
   xml:space="preserve"
   xmlns:inkscape="http://www.inkscape.org/namespaces/inkscape"
   xmlns:sodipodi="http://sodipodi.sourceforge.net/DTD/sodipodi-0.dtd"
   xmlns="http://www.w3.org/2000/svg"
   xmlns:svg="http://www.w3.org/2000/svg"><sodipodi:namedview
     id="namedview1"
     pagecolor="#ffffff"
     bordercolor="#000000"
     borderopacity="0.25"
     inkscape:showpageshadow="2"
     inkscape:pageopacity="0.0"
     inkscape:pagecheckerboard="true"
     inkscape:deskcolor="#d1d1d1"
     inkscape:document-units="mm"
     inkscape:zoom="1.4378367"
     inkscape:cx="211.08099"
     inkscape:cy="167.26517"
     inkscape:window-width="1920"
     inkscape:window-height="1009"
     inkscape:window-x="1912"
     inkscape:window-y="-8"
     inkscape:window-maximized="1"
     inkscape:current-layer="layer1" /><defs
     id="defs1" /><g
     inkscape:label="Warstwa 1"
     inkscape:groupmode="layer"
     id="layer1"><path
       style="fill:#8d844e;fill-opacity:1"
       d="m 64.38517,65.385593 c -1.152489,-0.132433 -1.555411,-0.360684 -2.69013,-1.523931 -0.734038,-0.752492 -1.175331,-1.280158 -0.98065,-1.172591 0.846973,0.467981 0.241221,-0.45676 -0.991101,-1.513016 -1.536824,-1.317252 -1.354011,-1.475331 0.49555,-0.428504 1.185791,0.671141 1.097309,0.540442 -1.274272,-1.882269 -1.4017,-1.431919 -2.357404,-2.498486 -2.123787,-2.37015 1.293183,0.710408 3.822713,2.584956 5.076237,3.761827 0.790191,0.74187 1.43671,1.305427 1.43671,1.25235 0,-0.250283 -1.35216,-2.701439 -2.604801,-4.721908 -0.764153,-1.232554 -1.530961,-2.506826 -1.704018,-2.831717 -0.562689,-1.056371 0.478675,-0.0047 2.09827,2.118951 0.813393,1.06656 1.515133,1.902963 1.559424,1.858673 0.04429,-0.04429 -0.365653,-1.405425 -0.910984,-3.024744 -0.939171,-2.788792 -1.248161,-4.589539 -0.431145,-2.512641 0.756444,1.922918 2.647967,5.930576 2.750638,5.827905 0.106635,-0.106635 -1.354502,-3.575222 -1.909293,-4.532464 -0.166754,-0.287719 -0.254505,-0.57181 -0.195001,-0.631314 0.0595,-0.0595 0.85211,1.004179 1.761347,2.363741 0.909237,1.359561 1.568824,2.153362 1.465748,1.764001 -0.103075,-0.389361 -0.629111,-2.442111 -1.168969,-4.561665 -0.539858,-2.119555 -1.05627,-4.094677 -1.147584,-4.389161 -0.333472,-1.075437 0.843919,1.225056 1.754948,3.428979 0.515037,1.245955 0.938762,2.101066 0.941612,1.900247 0.01608,-1.13294 0.644679,-5.865996 0.848007,-6.385068 0.149995,-0.382922 0.180311,0.0075 0.08093,1.042261 -0.153898,1.602427 0.415609,7.184678 0.754347,7.394029 0.092,0.05686 0.200005,-1.000098 0.240002,-2.348799 0.04,-1.348702 0.17432,-2.898181 0.298496,-3.443286 0.185312,-0.813483 0.260813,-0.483622 0.421294,1.840616 0.107536,1.557444 0.278551,3.517174 0.380033,4.354956 l 0.184513,1.52324 0.636573,-3.089096 c 0.596125,-2.892814 1.883279,-6.69601 2.812758,-8.310948 0.582906,-1.01278 0.52241,-0.539061 -0.265988,2.082837 -0.779811,2.59334 -1.86504,8.024362 -1.835873,9.187611 l 0.01917,0.764347 0.307109,-0.707929 c 1.164684,-2.684759 4.422908,-8.63511 4.620253,-8.437765 0.05566,0.05566 -0.334028,1.185157 -0.865977,2.509991 -0.927247,2.309339 -1.83459,5.846342 -1.834119,7.149766 1.36e-4,0.376015 0.330386,-0.07928 0.842098,-1.160942 0.835155,-1.765361 3.273134,-5.724483 3.525067,-5.724483 0.07218,0 -0.243817,0.909517 -0.702217,2.021149 -0.946457,2.29518 -1.101845,3.220438 -0.255017,1.518497 0.605305,-1.216534 0.599002,-1.150859 -0.132011,1.375502 -0.263969,0.912271 -0.433509,1.705109 -0.376755,1.761863 0.05676,0.05675 0.774561,-0.835566 1.595126,-1.982934 0.820565,-1.147367 1.816134,-2.386201 2.212376,-2.752964 0.595519,-0.551214 0.527398,-0.347688 -0.392869,1.173776 -1.710503,2.827948 -3.555841,6.25263 -3.434512,6.373959 0.05991,0.05991 0.623514,-0.556139 1.252455,-1.368996 0.628942,-0.812857 1.708218,-1.921081 2.398393,-2.462721 l 1.254863,-0.984798 -0.874149,1.132686 c -1.10622,1.433394 -3.23184,4.590304 -3.23184,4.799835 0,0.08722 1.114988,-0.44139 2.477752,-1.174685 l 2.477752,-1.333263 -2.806973,2.735719 c -2.85965,2.787059 -3.067324,2.73491 -5.223324,2.802317 -2.499074,0.07813 -8.622192,-0.0697 -8.616488,-0.05687 z"
       id="path18"
       sodipodi:nodetypes="ssssssssssscssssssssssssssssssscsssscsssssssssssssssscssscssss" /><path
       style="fill:#83734c;fill-opacity:1"
       d="m 25.927948,45.583987 c -0.161517,0.0041 -0.316333,-0.48665 -0.39754,-0.892683 -0.08121,-0.406033 -0.566757,-1.267869 -1.079002,-1.915191 -1.024403,-1.294536 -1.032765,-1.904769 -0.0098,-0.716263 0.351422,0.408297 0.63895,0.667874 0.63895,0.576838 0,-0.245654 -1.640918,-2.612632 -1.959251,-2.826164 -0.150911,-0.101228 -0.18579,-0.272644 -0.07751,-0.380924 0.10828,-0.108279 0.791173,0.388493 1.517541,1.103939 l 1.320669,1.30081 -0.632868,-1.581345 c -1.109551,-2.772427 -1.6614,-3.930046 -2.512823,-5.271167 -1.072987,-1.690119 -0.891337,-2.202891 0.04653,-0.987637 0.534389,0.692442 0.904157,1.152117 1.580346,2.114443 0.188009,0.267567 0.769942,1.160724 1.230895,2.033849 0.460954,0.873125 0.772254,1.369781 0.691778,1.103681 -0.08048,-0.266101 -0.392492,-1.456726 -0.693371,-2.645834 -0.826234,-3.265382 -1.611867,-5.836635 -1.869179,-6.117535 -0.301558,-0.3292 -0.293908,-0.674687 0.01494,-0.674687 0.276788,0 1.38435,2.252015 2.277181,4.630208 l 0.595985,1.5875 -0.130936,-4.497917 c -0.168801,-5.79867 0.219543,-7.135638 0.680982,-2.344444 0.624118,6.480317 0.611325,6.436718 1.003449,3.419858 0.303954,-2.338517 1.785657,-7.822289 2.113565,-7.822289 0.140342,0 -0.07444,1.812092 -0.45473,3.836459 -0.136684,0.727604 -0.306125,2.037291 -0.376536,2.910416 -0.07041,0.873125 -0.187198,2.301875 -0.259525,3.175 -0.155368,1.87558 -0.0749,1.747922 0.662977,-1.051825 0.560151,-2.125387 2.894698,-7.347364 3.433634,-7.680445 0.159554,-0.09861 0.09367,0.277998 -0.146408,0.836907 -1.315714,3.063015 -3.096146,9.902029 -2.684902,10.313273 0.05322,0.05322 0.297902,-0.626723 0.543746,-1.510976 0.245844,-0.884252 0.849204,-2.402552 1.340799,-3.374 1.028613,-2.032653 3.27169,-5.111766 3.855531,-5.292558 0.312475,-0.09676 0.298408,-0.01178 -0.06614,0.399615 -0.254662,0.28738 -0.463021,0.610375 -0.463021,0.717767 0,0.107392 -0.291823,0.577857 -0.648496,1.045479 -0.752947,0.987165 -2.367906,4.652931 -2.147122,4.873715 0.08238,0.08238 0.149784,0.02398 0.149784,-0.12979 0,-0.377139 2.384452,-3.597779 2.54489,-3.437341 0.06978,0.06978 -0.09322,0.527837 -0.362236,1.017902 -0.720106,1.311836 -1.950585,4.253999 -1.829682,4.374901 0.05748,0.05748 0.30875,-0.207186 0.558371,-0.588156 0.841029,-1.283572 0.687494,-0.480874 -0.336407,1.758782 -1.281072,2.802182 -1.530621,3.530682 -0.900157,2.627796 0.881045,-1.261744 1.868454,-2.259577 2.738462,-2.767372 l 0.877486,-0.51216 -0.520884,0.677207 c -0.286486,0.372464 -0.836599,1.079186 -1.222473,1.570494 -0.385874,0.491307 -0.893073,1.369536 -1.127108,1.951619 l -0.425518,1.058333 0.950613,-1.124479 c 1.078653,-1.275937 1.623464,-1.389905 2.448106,-0.512114 0.866842,0.922711 0.747248,1.342232 -0.237469,0.833015 -0.650685,-0.336482 -0.891148,-0.355234 -1.205874,-0.09403 -0.578556,0.480158 -1.631516,2.364599 -2.116382,3.787601 -0.284756,0.835715 -0.524369,1.107606 -0.781831,1.10691 -2.937583,-0.0079 -3.665796,-0.05756 -6.142029,0.005 z"
       id="path19"
       sodipodi:nodetypes="sssssssscsssssssssscsssssssssssssssssssssssssscssscsssssss" /></g></svg>
