<?xml version="1.0" encoding="UTF-8" standalone="no"?>
<!-- Created with Inkscape (http://www.inkscape.org/) -->

<svg
   width="100mm"
   height="100mm"
   viewBox="0 0 100 100"
   version="1.1"
   id="svg1"
   inkscape:version="1.4 (86a8ad7, 2024-10-11)"
   sodipodi:docname="decor1.svg"
   xml:space="preserve"
   xmlns:inkscape="http://www.inkscape.org/namespaces/inkscape"
   xmlns:sodipodi="http://sodipodi.sourceforge.net/DTD/sodipodi-0.dtd"
   xmlns="http://www.w3.org/2000/svg"
   xmlns:svg="http://www.w3.org/2000/svg"><sodipodi:namedview
     id="namedview1"
     pagecolor="#ffffff"
     bordercolor="#000000"
     borderopacity="0.25"
     inkscape:showpageshadow="2"
     inkscape:pageopacity="0.0"
     inkscape:pagecheckerboard="true"
     inkscape:deskcolor="#d1d1d1"
     inkscape:document-units="mm"
     inkscape:zoom="1.4378367"
     inkscape:cx="166.22194"
     inkscape:cy="159.61479"
     inkscape:window-width="1920"
     inkscape:window-height="1009"
     inkscape:window-x="1912"
     inkscape:window-y="-8"
     inkscape:window-maximized="1"
     inkscape:current-layer="layer1" /><defs
     id="defs1" /><g
     inkscape:label="Warstwa 1"
     inkscape:groupmode="layer"
     id="layer1"><path
       style="fill:#000000"
       id="path2" /><path
       style="fill:#b99974;fill-opacity:1"
       d="m 71.703394,31.077927 c -1.8808,1.254893 -3.144439,2.170938 -5.052775,2.170938 -1.428482,0 -1.815287,-0.120379 -3.14602,-0.979084 -2.054436,-1.325702 -2.707909,-1.932604 -2.707909,-2.514924 0,-0.270242 0.20836,-0.568407 0.463021,-0.662589 0.254662,-0.09418 1.056289,-0.685757 1.781393,-1.314613 0.725105,-0.628855 1.588308,-1.143373 1.91823,-1.143373 0.451469,0 0.599857,-0.152218 0.599857,-0.615338 0,-1.22296 1.235869,-1.843218 4.828677,-2.423419 0.828205,-0.133747 1.101553,-0.0509 1.653646,0.501194 0.363785,0.363784 0.661427,0.769725 0.661427,0.902091 0,0.132365 0.565547,0.453137 1.256771,0.712828 2.88627,1.084361 3.487182,2.221706 1.653645,3.171602 -2.741081,1.420065 -2.842051,1.482163 -3.909963,2.194687 z M 30.804097,71.29931 c -0.8046,-0.171195 -1.648766,-0.625522 -2.085801,-1.181619 -0.128755,-0.163832 -0.442473,-0.689383 -0.603742,-0.689383 -0.161269,0 -0.865161,-0.262385 -1.564204,-0.583077 -1.201648,-0.551267 -2.11133,-1.700578 -2.11133,-2.6675 0,-0.47692 2.119717,-1.513505 3.09324,-1.512658 0.464354,4.04e-4 0.917865,-0.118327 1.007802,-0.263848 0.08994,-0.145521 0.387593,-0.264584 0.661459,-0.264584 0.273865,0 0.668291,-0.700284 2.38125,-1.176942 1.32671,-0.369178 2.765204,-0.132466 4.13113,0.04274 0.557781,0.07043 0.919099,0.313095 1.118807,0.751407 0.162233,0.356061 0.416583,0.647384 0.565224,0.647384 0.14864,0 0.270255,0.295388 0.270255,0.656417 0,0.498145 0.175438,0.697752 0.727605,0.827847 0.400182,0.09429 1.180577,0.419782 1.734212,0.723324 0.865424,0.474489 0.983076,0.645977 0.838829,1.222675 -0.09228,0.368928 -0.307126,0.753443 -0.477441,0.854478 -0.170315,0.101034 -1.024038,0.724443 -1.897163,1.385352 -2.56994,1.945308 -3.815167,2.348568 -3.850336,1.246912 -0.01086,-0.340081 -0.125299,-0.3191 -0.429147,0.160599 -0.360848,0.569687 -2.225432,0.09393 -2.429562,0.0505 z"
       id="path4-1"
       sodipodi:nodetypes="ssssssssssssssssssssssssssssssssssss" /><path
       style="fill:#674f3b;fill-opacity:1"
       d="m 30.526326,71.388081 c -1.173538,0.276127 -2.118555,-1.382539 -2.118555,-1.889217 0,-0.201503 -0.114599,-0.295543 -0.254664,-0.208979 -0.140065,0.08657 -0.853476,-0.14605 -1.585358,-0.516923 -0.987193,-0.500249 -1.433696,-0.92083 -1.729712,-1.629296 -0.543364,-1.300454 -0.511035,-1.35759 0.328588,-0.580717 0.400182,0.370274 1.226013,0.94598 1.835179,1.279346 l 1.107575,0.60612 1.377015,-0.502241 c 0.757358,-0.276232 1.548519,-0.76279 1.758135,-1.081239 0.360971,-0.548386 0.324034,-0.608121 -0.698653,-1.129856 -0.780864,-0.398368 -1.078143,-0.714168 -1.073889,-1.140794 l 0.0059,-0.589935 0.457138,0.552168 c 1.250346,1.510269 5.172453,2.206204 6.326021,1.122483 0.336227,-0.315869 0.688289,-0.49734 0.78236,-0.403269 0.302505,0.302505 -0.443198,0.9375 -1.635829,1.39297 -0.638336,0.243783 -1.343995,0.72312 -1.56813,1.065194 -0.382557,0.583855 -0.368125,0.647764 0.235614,1.043348 0.353723,0.231769 0.764492,0.769529 0.91282,1.195023 0.205892,0.590622 0.382693,0.732291 0.747401,0.598886 0.557383,-0.203881 3.645255,-2.316425 4.51261,-3.087266 l 0.595313,-0.52907 v 0.675403 c 0,0.504215 -0.352073,0.943203 -1.389063,1.731977 -3.510274,2.67005 -4.324108,2.929415 -4.773584,1.521319 -0.293299,-0.91883 -1.319786,-2.115098 -2.382531,-2.7766 -0.708552,-0.441036 -0.801227,-0.438025 -2.182812,0.07091 -0.793564,0.292328 -1.442844,0.625636 -1.442844,0.740683 0,0.721172 2.75997,1.828553 4.564062,1.831236 0.815307,0.0012 0.992188,0.09581 0.992188,0.530642 0,0.463286 -0.172937,0.527878 -1.389063,0.518811 -0.763984,-0.0057 -1.773923,-0.538013 -2.313215,-0.411121 z m 3.01039,-4.042815 c 0.425061,-0.469688 0.416848,-0.50401 -0.157431,-0.657846 -0.997298,-0.267152 -1.531931,-0.192398 -1.531931,0.214199 0,0.340814 0.66183,0.909595 1.083472,0.931143 0.08659,0.0044 0.359237,-0.214948 0.60589,-0.487496 z m 29.579638,-35.45876 c -1.863404,-1.281717 -2.526127,-1.95897 -2.218188,-2.26691 0.06266,-0.06266 0.489582,0.08033 0.94871,0.317749 1.271968,0.65776 3.48222,0.107509 4.967657,-1.236719 l 1.123051,-1.016291 -1.189197,-0.577757 c -0.654058,-0.317767 -1.189196,-0.732625 -1.189196,-0.921909 0,-0.462436 0.08051,-0.446344 1.5875,0.317306 1.556793,0.788887 2.231801,0.831356 2.696976,0.169683 0.352232,-0.50102 2.595617,-1.712159 2.797491,-1.510285 0.06103,0.06103 -0.287059,0.312543 -0.773525,0.558925 -0.820979,0.415803 -2.043702,1.609774 -2.065594,2.017021 -0.01323,0.246199 2.336728,0.804592 3.286987,0.781047 0.430628,-0.01067 1.352267,-0.301147 2.048086,-0.645504 1.281479,-0.634197 1.534579,-0.635718 1.534579,-0.0092 0,0.431221 -2.580507,1.939765 -3.323937,1.943147 -0.300196,0.0014 -0.8927,0.364557 -1.316676,0.807092 -1.527568,1.594438 -3.105537,2.385984 -5.060978,2.538704 l -1.807784,0.141188 z m 7.226632,-1.04793 c 0.912427,-0.638881 1.697438,-1.280663 1.744469,-1.426184 0.09041,-0.279727 -2.678729,-1.190625 -3.619506,-1.190625 -0.304555,0 -0.986034,0.419841 -1.514397,0.932981 -0.528363,0.513139 -1.236836,0.989389 -1.574386,1.058333 -0.337549,0.06894 -0.911382,0.187152 -1.275184,0.262685 -0.870186,0.180669 -0.830407,0.401535 0.201906,1.121052 0.726616,0.506449 1.123326,0.582257 2.617283,0.500143 1.57691,-0.08667 1.934158,-0.21813 3.419815,-1.258385 z M 37.403604,64.665788 c 0,-0.194028 0.07938,-0.273403 0.176389,-0.176389 0.09701,0.09701 0.09701,0.255764 0,0.352778 -0.09701,0.09701 -0.176389,0.01764 -0.176389,-0.176389 z"
       id="path3-6"
       sodipodi:nodetypes="ssssssscsssccssssssssscsssssssssssssscssscsssssssssscssccsssssssssssssss" /></g></svg>
