<?xml version="1.0" encoding="UTF-8" standalone="no"?>
<!-- Created with Inkscape (http://www.inkscape.org/) -->

<svg
   width="100mm"
   height="100mm"
   viewBox="0 0 100 100"
   version="1.1"
   id="svg1"
   inkscape:version="1.4 (86a8ad7, 2024-10-11)"
   sodipodi:docname="decor2.svg"
   xml:space="preserve"
   xmlns:inkscape="http://www.inkscape.org/namespaces/inkscape"
   xmlns:sodipodi="http://sodipodi.sourceforge.net/DTD/sodipodi-0.dtd"
   xmlns="http://www.w3.org/2000/svg"
   xmlns:svg="http://www.w3.org/2000/svg"><sodipodi:namedview
     id="namedview1"
     pagecolor="#ffffff"
     bordercolor="#000000"
     borderopacity="0.25"
     inkscape:showpageshadow="2"
     inkscape:pageopacity="0.0"
     inkscape:pagecheckerboard="true"
     inkscape:deskcolor="#d1d1d1"
     inkscape:document-units="mm"
     inkscape:zoom="1.0167041"
     inkscape:cx="154.42055"
     inkscape:cy="101.79953"
     inkscape:window-width="1920"
     inkscape:window-height="1009"
     inkscape:window-x="1912"
     inkscape:window-y="-8"
     inkscape:window-maximized="1"
     inkscape:current-layer="layer1" /><defs
     id="defs1" /><g
     inkscape:label="Warstwa 1"
     inkscape:groupmode="layer"
     id="layer1"><path
       style="fill:#000000"
       id="path2" /><path
       style="fill:#b99974;fill-opacity:1;stroke-width:1.24904"
       d="m 32.731072,27.130759 c -1.030353,-0.38377 -2.055913,-1.100432 -2.522075,-1.838255 -0.137336,-0.217371 -0.44645,-0.891451 -0.659896,-0.929149 -0.213444,-0.0377 -1.092098,-0.502165 -1.952561,-1.032148 -1.479128,-0.911036 -2.451093,-2.437435 -2.255885,-3.542703 0.09628,-0.545157 3.111073,-1.234557 4.399393,-1.006021 0.614507,0.109008 1.238714,0.0793 1.387127,-0.06602 0.148418,-0.145317 0.566408,-0.211837 0.928879,-0.147819 0.36247,0.06402 1.025883,-0.644262 3.389273,-0.788703 1.830478,-0.111871 3.686583,0.494968 5.459061,1.014536 0.724024,0.21089 1.15325,0.572739 1.329081,1.120448 0.142837,0.444929 0.420663,0.83739 0.617395,0.872136 0.19673,0.03475 0.298056,0.400826 0.225169,0.813511 -0.100569,0.569419 0.09133,0.838596 0.795879,1.116377 0.510618,0.201327 1.477785,0.755814 2.149258,1.232203 1.049626,0.744678 1.170721,0.968204 0.863377,1.593697 -0.196617,0.400143 -0.5586,0.789453 -0.804416,0.865131 -0.245815,0.07568 -1.501604,0.588719 -2.790643,1.140091 -3.794133,1.622899 -5.523645,1.792776 -5.347784,0.525274 0.05428,-0.391278 -0.101415,-0.394046 -0.600413,0.08326 -0.592606,0.566847 -2.964397,-0.412842 -3.225803,-0.510202 z"
       id="path4-1"
       sodipodi:nodetypes="ssssssssssssssssssssss" /><path
       style="fill:#674f3b;fill-opacity:1;stroke-width:1.24904"
       d="m 32.345512,27.167301 c -1.608964,0.04131 -2.524864,-2.07558 -2.422572,-2.654754 0.04068,-0.230333 -0.09201,-0.364616 -0.294867,-0.298408 -0.202858,0.06621 -1.100119,-0.366454 -1.993915,-0.961473 -1.205589,-0.802589 -1.711641,-1.38772 -1.960399,-2.266748 -0.456617,-1.613538 -0.402293,-1.671292 0.552136,-0.586997 0.454901,0.516799 1.431689,1.36792 2.170638,1.891382 l 1.343546,0.951747 1.923922,-0.252214 c 1.058155,-0.138717 2.203513,-0.509952 2.545237,-0.824965 0.58847,-0.542469 0.551642,-0.619385 -0.696588,-1.45483 -0.953075,-0.637899 -1.282777,-1.068375 -1.191018,-1.555048 l 0.12688,-0.672969 0.493563,0.738032 c 1.349972,2.018635 6.400513,3.730966 8.146087,2.761842 0.508778,-0.282468 1.011379,-0.407606 1.116895,-0.278087 0.339304,0.416501 -0.775856,0.968037 -2.446297,1.209889 -0.894076,0.129447 -1.924811,0.512415 -2.290521,0.851039 -0.624199,0.577967 -0.618001,0.654394 0.101205,1.247706 0.421374,0.347616 0.856474,1.058339 0.966889,1.579385 0.153267,0.723257 0.358667,0.926524 0.868304,0.859285 0.778876,-0.10276 5.292272,-1.795752 6.595868,-2.474134 l 0.894729,-0.46561 -0.136355,0.772039 c -0.101794,0.576358 -0.6564,0.995857 -2.188134,1.655083 -5.185012,2.231527 -6.314512,2.337762 -6.625132,0.623128 -0.202692,-1.118857 -1.319772,-2.726235 -2.592802,-3.730809 -0.848754,-0.669769 -0.972021,-0.68799 -2.903342,-0.429193 -1.109326,0.148653 -2.03596,0.377876 -2.059186,0.509384 -0.145595,0.824357 3.283753,2.735345 5.670988,3.160132 1.078843,0.191963 1.293851,0.34145 1.206064,0.838497 -0.09353,0.529573 -0.335459,0.562982 -1.943212,0.268339 -1.01001,-0.185087 -2.239229,-1.02966 -2.978618,-1.010675 z m 4.800541,-3.917557 c 0.657406,-0.43753 0.653465,-0.478682 -0.07556,-0.788771 -1.266023,-0.538502 -1.98872,-0.578026 -2.070806,-0.113254 -0.06881,0.389577 0.692319,1.194447 1.246027,1.31764 0.113717,0.02526 0.518857,-0.161728 0.900334,-0.415615 z m 5.658906,-2.158943 c 0.03917,-0.221789 0.160259,-0.293965 0.269068,-0.160394 0.10881,0.133568 0.07676,0.315036 -0.07122,0.403254 -0.147981,0.08821 -0.237019,-0.02106 -0.197848,-0.24286 z"
       id="path3-6"
       sodipodi:nodetypes="ssssssscsssccssssssssscsssssssssssssscsssss" /><path
       d="m 71.201318,74.551176 c -2.221465,1.718312 -3.69984,2.944327 -6.200748,3.438702 -1.872049,0.370064 -2.402309,0.352176 -4.312782,-0.145487 -2.949461,-0.768311 -3.923543,-1.194402 -4.03647,-1.765668 -0.05241,-0.265112 0.16283,-0.611594 0.478304,-0.769961 0.315475,-0.158365 1.2513,-0.946382 2.07961,-1.751146 0.828311,-0.804763 1.859775,-1.533136 2.292143,-1.618606 0.591658,-0.116958 0.756605,-0.304728 0.666794,-0.759056 -0.237164,-1.199743 1.26218,-2.128392 5.8581,-3.628334 1.05944,-0.345764 1.433734,-0.335303 2.264326,0.06328 0.547294,0.262636 1.016081,0.583763 1.04175,0.713616 0.02567,0.129852 0.829035,0.298024 1.785256,0.373716 3.992792,0.316056 5.000858,1.276137 2.782186,2.682998 -3.316847,2.103214 -3.437128,2.19029 -4.698469,3.165942 z"
       style="fill:#b99974;fill-opacity:1;stroke-width:1.1558"
       id="path1-9" /><path
       d="m 60.144453,77.680447 c -2.69058,-0.77465 -3.690427,-1.26736 -3.346584,-1.64923 0.06997,-0.0777 0.657183,-0.04803 1.30492,0.06594 1.794492,0.315756 4.584358,-0.796639 6.270368,-2.500167 l 1.274693,-1.287937 -1.670505,-0.258714 c -0.918778,-0.142294 -1.700536,-0.410643 -1.737243,-0.596334 -0.08968,-0.453657 0.01895,-0.458727 2.141979,-0.09998 2.19319,0.370607 3.086035,0.237402 3.56734,-0.532219 0.364445,-0.582758 3.069569,-2.352078 3.373277,-2.206334 0.09182,0.04406 -0.315586,0.380975 -0.905328,0.748704 -0.995273,0.620593 -2.36613,2.108658 -2.315844,2.513845 0.03041,0.244952 3.218352,0.183963 4.459118,-0.08531 0.562276,-0.122026 1.713768,-0.645749 2.558872,-1.163829 1.556413,-0.954138 1.88781,-1.021199 2.009308,-0.406574 0.08362,0.423035 -3.005629,2.571449 -3.97925,2.76736 -0.393141,0.07914 -1.099203,0.5889 -1.569012,1.13287 -1.692701,1.959903 -3.607156,3.145212 -6.140178,3.801611 l -2.341753,0.606834 z m 9.267406,-2.900173 c 1.071856,-0.863127 1.976168,-1.696091 2.009583,-1.851034 0.06424,-0.297838 -3.741413,-0.474069 -4.974318,-0.23035 -0.399124,0.0789 -1.210796,0.667314 -1.803714,1.30759 -0.592918,0.640276 -1.429027,1.291023 -1.858023,1.446104 -0.428994,0.155077 -1.158087,0.419703 -1.620209,0.588049 -1.105356,0.40267 -1.010394,0.609038 0.482003,1.047464 1.050456,0.308597 1.585052,0.280194 3.526985,-0.187387 2.04976,-0.493541 2.492446,-0.715054 4.237693,-2.120436 z"
       style="fill:#674f3b;fill-opacity:1;stroke-width:1.1558"
       id="path1" /></g></svg>
