<?xml version="1.0" encoding="UTF-8" standalone="no"?>
<!-- Created with Inkscape (http://www.inkscape.org/) -->

<svg
   width="100mm"
   height="100mm"
   viewBox="0 0 100 100"
   version="1.1"
   id="svg1"
   inkscape:version="1.4 (86a8ad7, 2024-10-11)"
   sodipodi:docname="decor7.svg"
   xml:space="preserve"
   xmlns:inkscape="http://www.inkscape.org/namespaces/inkscape"
   xmlns:sodipodi="http://sodipodi.sourceforge.net/DTD/sodipodi-0.dtd"
   xmlns="http://www.w3.org/2000/svg"
   xmlns:svg="http://www.w3.org/2000/svg"><sodipodi:namedview
     id="namedview1"
     pagecolor="#ffffff"
     bordercolor="#000000"
     borderopacity="0.25"
     inkscape:showpageshadow="2"
     inkscape:pageopacity="0.0"
     inkscape:pagecheckerboard="true"
     inkscape:deskcolor="#d1d1d1"
     inkscape:document-units="mm"
     inkscape:zoom="2.0334082"
     inkscape:cx="174.82963"
     inkscape:cy="190.07497"
     inkscape:window-width="1920"
     inkscape:window-height="1009"
     inkscape:window-x="1912"
     inkscape:window-y="-8"
     inkscape:window-maximized="1"
     inkscape:current-layer="layer1" /><defs
     id="defs1" /><g
     inkscape:label="Warstwa 1"
     inkscape:groupmode="layer"
     id="layer1"><g
       inkscape:label="Warstwa 1"
       id="layer1-8"
       transform="translate(0.24968282,-0.05402426)"><rect
         style="fill:#c09e5e;fill-opacity:1;stroke-width:0.100069"
         id="rect1"
         width="100"
         height="100"
         x="2.220446e-16"
         y="0" /><path
         style="fill:#d8b982;fill-opacity:1"
         d="m 61.870681,94.92045 c -2.792457,-0.21168 -4.956416,-0.74728 -11.013031,-2.72586 -2.478273,-0.8096 -5.701805,-1.66167 -7.358264,-1.94501 -3.166896,-0.54169 -7.211985,-0.51891 -10.62319,0.0598 -2.92353,0.49599 -4.173089,0.71762 -4.856875,0.86146 -1.483838,0.31214 -5.380859,0.92834 -6.545997,1.03507 -1.516175,0.13888 -4.254677,-0.17405 -5.292566,-0.14407 C 7.3182429,92.31789 8.3551437,87.23162 8.2165531,80.74598 8.1705081,78.59118 7.5330211,77.035648 6.9027334,74.640555 6.1225274,71.675772 5.2204303,67.817241 5.0604099,66.760403 4.6874565,64.297271 4.617152,61.950044 4.8553405,59.913832 5.1073074,57.759833 5.5468177,55.999085 6.7103304,52.482449 8.783794,46.215549 9.0689515,44.952434 9.2846129,41.079577 9.4249503,38.559391 9.2969813,37.420861 8.2110819,31.528454 7.182706,25.948186 6.9519914,24.050757 6.9518345,21.172233 6.9516171,17.180682 7.5241136,14.337514 9.2312066,12.304266 11.170387,9.9945882 11.477308,6.4238492 15.153442,5.7843782 c 5.175747,-0.900332 6.564882,2.237674 10.510681,0.971885 4.265868,-1.368465 5.590977,-1.713096 7.991757,-2.078476 2.73477,-0.416211 5.020838,-0.432488 7.163343,-0.051 2.458744,0.437791 3.808366,0.840382 9.161283,2.732797 4.748533,1.678748 7.801343,2.288167 11.451603,2.286036 3.124107,0.03613 6.179317,-0.627708 9.210012,-1.303337 3.552223,-0.852105 7.013699,-2.891788 10.662491,-3.21722 5.872825,-0.523792 9.344776,1.232612 10.720666,3.288012 1.183922,1.7686268 0.79697,5.5741108 0.692772,8.6912368 -0.116743,3.49241 1.274055,6.854996 2.135615,10.233347 1.165525,4.569026 1.594482,8.432631 1.269136,11.431078 -0.284972,2.626352 -0.796166,4.739381 -2.133898,8.820498 -1.263446,3.854487 -1.393384,4.280284 -1.746041,5.721631 -0.788647,3.223283 1.143634,6.427405 1.422507,9.043298 0.211592,1.984772 -1.418027,5.24975 -0.895625,8.548312 0.670439,4.2333 2.792068,8.690674 2.851521,11.402354 0.101977,4.65122 0.07133,7.42344 -6.444047,9.4907 -3.925033,1.24537 -4.322513,-2.55604 -14.685409,1.22686 -2.967622,1.08331 -4.790689,1.26401 -5.847627,1.4671 -2.224946,0.42752 -4.722562,0.58643 -6.773501,0.43096 z"
         id="path1"
         sodipodi:nodetypes="sssssssssssssssssssssssssssssssssssss" /></g><path
       style="fill:#867652;fill-opacity:1"
       d="m 32.522676,49.793463 c -0.350338,0 -0.828495,-0.394319 -1.294809,-1.067783 -1.018538,-1.471001 -1.727965,-2.06861 -3.573685,-3.010413 l -1.5875,-0.810042 1.000983,-0.01273 c 0.568293,-0.0072 1.570486,0.275863 2.318467,0.654894 l 1.317484,0.667619 -0.730967,-1.345668 C 29.570617,44.12922 28.494022,42.638166 27.580216,41.555885 26.666409,40.473603 25.990113,39.5881 26.077336,39.5881 c 0.457377,0 2.62824,1.775082 3.929751,3.213298 0.815954,0.901659 1.483553,1.52968 1.483553,1.395602 0,-0.134077 -0.653331,-1.523586 -1.451846,-3.087797 -0.798516,-1.56421 -1.349801,-2.844019 -1.225078,-2.844019 0.124723,0 0.921014,0.833437 1.769536,1.852083 0.848521,1.018646 1.574663,1.852083 1.613648,1.852083 0.117911,0 -0.213487,-0.815079 -1.290901,-3.175 -1.103485,-2.417022 -0.693456,-2.336887 0.709651,0.138691 l 0.858555,1.514796 0.294928,-0.846031 c 0.32752,-0.939525 -0.01985,-2.194002 -1.725502,-6.231414 -0.847151,-2.005274 -0.858978,-2.074894 -0.224726,-1.322916 0.962908,1.141638 2.612089,4.190176 3.468919,6.412356 0.405995,1.052943 0.776727,1.875885 0.82385,1.828762 0.04712,-0.04712 -0.03396,-0.716512 -0.180178,-1.487532 -0.475993,-2.509904 -0.176017,-2.811891 0.657372,-0.661778 l 0.407735,1.051941 -0.146126,-1.852083 c -0.08037,-1.018646 -0.203232,-2.506927 -0.273028,-3.307291 l -0.126902,-1.455209 0.367879,0.935668 c 0.202333,0.514617 0.585696,2.332691 0.851917,4.040164 l 0.484038,3.104497 0.476826,-2.055789 c 0.665574,-2.869563 1.450602,-4.944682 2.629439,-6.950581 2.009614,-3.419544 2.420412,-3.535053 0.98234,-0.276216 -1.019518,2.310344 -2.111158,6.080904 -2.45461,8.478299 l -0.17057,1.190625 0.496825,-1.322917 c 0.690919,-1.83974 1.701324,-3.762321 2.689659,-5.117839 0.991397,-1.359716 1.394173,-1.253375 0.605494,0.159862 -0.586542,1.051026 -1.92331,4.942435 -1.92331,5.598866 0,0.696873 0.457115,-0.02668 1.992852,-3.154431 1.442628,-2.938118 3.460277,-6.012148 3.753581,-5.718844 0.07836,0.07836 -0.221597,0.712548 -0.666574,1.409305 -1.098874,1.72065 -2.963192,5.905734 -2.963192,6.651876 0,0.08069 0.599051,-0.7658 1.331224,-1.881085 2.013861,-3.067619 2.460058,-3.141734 0.91266,-0.151597 -0.512114,0.98959 -1.0486,2.128422 -1.192192,2.530738 l -0.261076,0.731482 0.552801,-0.727604 c 0.559343,-0.736213 1.209187,-1.005462 0.957875,-0.396875 -0.07511,0.181901 -0.336535,0.806979 -0.580934,1.389063 l -0.444361,1.058333 1.40486,-1.322917 c 0.772673,-0.727604 1.472012,-1.407595 1.554086,-1.511091 0.225592,-0.284473 2.154656,-1.051046 2.294078,-0.911623 0.06701,0.06701 -0.445889,0.55531 -1.139765,1.085123 -1.149339,0.877586 -2.903218,2.93116 -3.574262,4.185017 -0.234345,0.437878 -0.2049,0.466392 0.23726,0.229755 0.277644,-0.148591 0.664938,-0.46311 0.860652,-0.698931 0.403321,-0.485972 1.841173,-1.284239 2.009678,-1.115734 0.061,0.061 -0.389356,0.694857 -1.000791,1.408572 -0.611436,0.713714 -1.297447,1.518477 -1.524469,1.788361 -0.32587,0.387394 -0.139264,0.345275 0.886381,-0.200066 0.714532,-0.37992 1.348619,-0.641294 1.409083,-0.580831 0.06046,0.06046 -0.413377,0.592304 -1.052978,1.181868 -0.639601,0.589564 -1.685934,1.727386 -2.325183,2.528494 -0.63925,0.801108 -1.362591,1.507346 -1.518164,1.5147 -1.384301,0.06543 -9.571423,0.111122 -9.876928,0.111122 z"
       id="path20" /><path
       style="fill:#8d844d;fill-opacity:1"
       d="m 61.000211,69.89546 c 0,-0.145101 0.239793,-0.568666 0.532872,-0.941256 0.29308,-0.372591 0.487472,-0.722837 0.431984,-0.778326 -0.05549,-0.05549 -0.643801,0.02078 -1.307361,0.169488 -1.24164,0.278257 -3.760906,-0.01664 -4.240666,-0.496404 -0.294878,-0.294877 0.487984,-0.72673 2.284622,-1.260274 L 60.065704,66.183611 59.120709,65.6988 c -1.057376,-0.542467 -3.617407,-2.774241 -3.412165,-2.974644 0.07276,-0.07104 0.962995,0.08866 1.9783,0.354888 1.015304,0.266233 1.873573,0.456495 1.907264,0.422804 0.170939,-0.170939 -3.68419,-2.863235 -4.451043,-3.108464 -1.757129,-0.561903 -1.726795,-0.541488 -1.154312,-0.776886 0.961295,-0.395275 2.975668,-0.264712 4.233333,0.274386 1.557785,0.667744 1.558166,0.667681 1.011118,-0.167219 -0.614414,-0.937714 -2.468815,-4.94557 -2.345384,-5.069002 0.2148,-0.214799 1.406102,0.60291 2.758015,1.8931 1.149174,1.096707 1.39527,1.239907 1.276076,0.742534 -0.110442,-0.460851 -0.05248,-0.579683 0.229897,-0.471325 0.306268,0.117526 0.37757,-0.228283 0.37757,-1.831184 0,-1.086839 0.107803,-1.976071 0.239563,-1.976071 0.13176,0 0.691307,0.772244 1.243439,1.716098 1.018775,1.741569 1.414793,1.842369 1.423363,0.362293 0.0022,-0.384854 0.252944,-1.505553 0.557145,-2.490442 0.662672,-2.145483 0.79102,-2.025827 1.607889,1.498995 l 0.589138,2.542152 0.86872,-1.998358 c 0.477797,-1.099097 1.057456,-2.183535 1.288132,-2.409861 0.382325,-0.375116 0.412027,-0.206739 0.335907,1.90422 -0.04593,1.273647 -0.06543,2.315444 -0.04334,2.315104 0.02209,-3.4e-4 0.299685,-0.387571 0.616877,-0.860513 l 0.576713,-0.859896 -0.156415,1.312375 -0.156416,1.312375 0.77182,-1.047792 c 0.799143,-1.084884 2.352289,-2.382621 2.579555,-2.155356 0.110886,0.110887 -0.724039,2.703196 -1.364873,4.237713 -0.159287,0.38142 0.255188,0.254316 1.950889,-0.598266 1.18423,-0.595419 2.153145,-0.973337 2.153145,-0.839817 0,0.53821 -2.818783,4.368548 -3.950037,5.367556 l -1.209338,1.067964 1.007535,-0.418684 c 1.0789,-0.448339 2.329513,-1.249724 3.290901,-2.108788 1.379276,-1.232475 0.766445,0.595458 -0.797654,2.379219 -0.470222,0.536259 -1.319297,1.311772 -1.886834,1.723363 l -1.031885,0.748346 0.767302,0.0015 c 0.940736,0.0018 2.854968,0.512594 2.658247,0.709315 -0.366324,0.366324 -3.862865,1.408629 -4.855319,1.447352 l -1.112291,0.0434 0.64927,0.771613 c 0.75932,0.9024 0.80045,1.145551 0.230755,1.364164 -1.080535,0.41464 -3.216493,-0.254868 -4.061525,-1.273069 -0.307152,-0.370095 -0.426715,-0.344073 -1.127171,0.245322 -0.815494,0.686193 -1.184694,0.808675 -3.057894,1.01446 -0.653687,0.07181 -1.124479,0.01308 -1.124479,-0.140288 z"
       id="path19" /></g></svg>
