<?xml version="1.0" encoding="UTF-8" standalone="no"?>
<!-- Created with Inkscape (http://www.inkscape.org/) -->

<svg
   width="100mm"
   height="100mm"
   viewBox="0 0 100 100"
   version="1.1"
   id="svg1"
   inkscape:version="1.4 (86a8ad7, 2024-10-11)"
   sodipodi:docname="decor3.svg"
   xml:space="preserve"
   xmlns:inkscape="http://www.inkscape.org/namespaces/inkscape"
   xmlns:sodipodi="http://sodipodi.sourceforge.net/DTD/sodipodi-0.dtd"
   xmlns="http://www.w3.org/2000/svg"
   xmlns:svg="http://www.w3.org/2000/svg"><sodipodi:namedview
     id="namedview1"
     pagecolor="#ffffff"
     bordercolor="#000000"
     borderopacity="0.25"
     inkscape:showpageshadow="2"
     inkscape:pageopacity="0.0"
     inkscape:pagecheckerboard="true"
     inkscape:deskcolor="#d1d1d1"
     inkscape:document-units="mm"
     inkscape:zoom="1.4378367"
     inkscape:cx="77.547054"
     inkscape:cy="154.05087"
     inkscape:window-width="1920"
     inkscape:window-height="1009"
     inkscape:window-x="1912"
     inkscape:window-y="-8"
     inkscape:window-maximized="1"
     inkscape:current-layer="layer1" /><defs
     id="defs1" /><g
     inkscape:label="Warstwa 1"
     inkscape:groupmode="layer"
     id="layer1"><path
       style="fill:#b99974;fill-opacity:1;stroke-width:1.40113"
       d="m 27.845551,37.885569 c -1.759947,-0.622975 -1.927975,-1.159095 -1.033916,-3.298878 0.603702,-1.44486 1.028976,-1.459003 4.138036,-0.137605 1.25276,0.53244 1.560053,0.86413 1.703019,1.838219 0.155902,1.062229 0.04395,1.243074 -1.053276,1.701527 -1.47847,0.617743 -1.737069,0.610629 -3.753863,-0.103263 z"
       id="path18" /><path
       style="fill:#b99974;fill-opacity:1;stroke-width:1.30336"
       d="m 20.658135,32.439232 c -1.555471,-1.102084 -1.669497,-1.327472 -2.001954,-3.95716 -0.218915,-1.731586 -0.216986,-1.735918 1.103126,-2.477863 1.511121,-0.849297 6.412025,-2.512027 7.404213,-2.512027 0.958193,0 1.662618,1.967126 1.662618,4.642905 v 2.25113 l -2.108698,0.586271 c -1.501773,0.417529 -2.31447,0.864588 -2.823624,1.553256 -0.895007,1.210562 -1.425,1.196392 -3.235681,-0.08652 z"
       id="path17" /><path
       style="fill:#b99974;fill-opacity:1;stroke-width:1.79053"
       d="m 41.122268,78.859188 c -1.048238,-1.048238 -0.583991,-2.566331 1.681794,-5.499471 2.129175,-2.756292 2.33762,-2.898877 3.87292,-2.649229 0.892447,0.145123 2.438039,0.590109 3.434649,0.988875 1.589186,0.635866 1.812018,0.917851 1.812018,2.293055 0,1.282095 -0.303463,1.755578 -1.664163,2.596537 -0.915289,0.565679 -2.141103,1.093094 -2.724032,1.172032 -0.582929,0.07894 -1.992709,0.486235 -3.132848,0.905108 -2.482244,0.911946 -2.55708,0.916351 -3.280338,0.193093 z"
       id="path5" /><path
       style="fill:#674f3b;fill-opacity:1;stroke-width:1.40113"
       d="m 28.123588,37.781615 c -1.400202,-0.570594 -1.647506,-0.820477 -1.539291,-1.555354 0.07091,-0.481548 0.181553,-0.930578 0.245872,-0.997842 0.260293,-0.272214 2.129069,1.234306 2.418654,1.949807 l 0.310631,0.767503 0.0235,-0.76545 c 0.01513,-0.493095 0.47172,-0.979191 1.283229,-1.366172 1.441658,-0.687478 1.705995,-0.554889 1.705995,0.855714 0,0.757948 -0.222806,1.066093 -0.892349,1.234138 -0.490793,0.123187 -1.116375,0.299003 -1.390184,0.390717 -0.273809,0.09172 -1.248533,-0.13916 -2.166054,-0.513061 z"
       id="path12" /><path
       style="fill:#674f3b;fill-opacity:1;stroke-width:1.30336"
       d="m 20.771836,32.269972 c -0.880769,-0.672518 -1.610649,-1.409627 -1.621956,-1.638021 -0.01134,-0.228394 -0.141884,-1.152372 -0.290175,-2.053282 -0.148291,-0.900912 -0.213164,-1.638021 -0.144162,-1.638021 0.069,0 0.820304,0.640487 1.669561,1.423304 1.242343,1.145153 1.544105,1.650597 1.544105,2.586349 0,0.639674 0.155181,1.163044 0.344846,1.163044 0.189666,0 0.344846,-0.287703 0.344846,-0.639338 0,-0.806308 1.302596,-2.228532 2.705555,-2.954031 1.113642,-0.575886 1.845449,-1.693282 2.273309,-3.47111 0.390967,-1.624533 0.859118,-0.349494 0.965387,2.629291 l 0.09057,2.538531 -2.241502,0.720955 c -1.641246,0.527889 -2.380024,0.966372 -2.758773,1.637404 -0.284498,0.504049 -0.688929,0.916728 -0.898737,0.917067 -0.209808,3.39e-4 -1.102098,-0.549626 -1.982867,-1.222142 z"
       id="path11" /><path
       style="fill:#674f3b;fill-opacity:1;stroke-width:1.79053"
       d="m 41.488862,78.702121 c -0.303005,-0.365099 -0.441003,-0.937467 -0.306659,-1.271926 0.139249,-0.346661 0.266533,-0.200747 0.296066,0.339379 0.04627,0.846209 0.101308,0.862667 0.514801,0.153968 0.254646,-0.436435 1.227901,-1.045962 2.162788,-1.354503 1.433116,-0.472971 1.665826,-0.738686 1.483274,-1.69364 -0.250724,-1.311579 -0.280522,-1.297493 1.259933,-0.595613 0.978196,0.445695 1.470076,0.365116 2.891839,-0.473745 2.158023,-1.273264 2.132745,-1.27735 2.132745,0.344613 0,1.127211 -0.338973,1.518057 -2.013415,2.321535 -1.107379,0.531373 -3.33125,1.399845 -4.941935,1.929939 -2.492298,0.820244 -3.01058,0.86493 -3.479437,0.299993 z"
       id="path4" /></g></svg>
