<?xml version="1.0" encoding="UTF-8" standalone="no"?>
<!-- Created with Inkscape (http://www.inkscape.org/) -->

<svg
   width="100mm"
   height="100mm"
   viewBox="0 0 100 100"
   version="1.1"
   id="svg1"
   inkscape:version="1.4 (86a8ad7, 2024-10-11)"
   sodipodi:docname="decor4.svg"
   xml:space="preserve"
   xmlns:inkscape="http://www.inkscape.org/namespaces/inkscape"
   xmlns:sodipodi="http://sodipodi.sourceforge.net/DTD/sodipodi-0.dtd"
   xmlns="http://www.w3.org/2000/svg"
   xmlns:svg="http://www.w3.org/2000/svg"><sodipodi:namedview
     id="namedview1"
     pagecolor="#ffffff"
     bordercolor="#000000"
     borderopacity="0.25"
     inkscape:showpageshadow="2"
     inkscape:pageopacity="0.0"
     inkscape:pagecheckerboard="true"
     inkscape:deskcolor="#d1d1d1"
     inkscape:document-units="mm"
     inkscape:zoom="1.4378367"
     inkscape:cx="204.1261"
     inkscape:cy="152.6599"
     inkscape:window-width="1920"
     inkscape:window-height="1009"
     inkscape:window-x="1912"
     inkscape:window-y="-8"
     inkscape:window-maximized="1"
     inkscape:current-layer="layer1" /><defs
     id="defs1" /><g
     inkscape:label="Warstwa 1"
     inkscape:groupmode="layer"
     id="layer1"><path
       style="fill:#b99974;fill-opacity:1;stroke-width:1.50749"
       d="m 29.693703,74.455458 c -1.238336,-0.612004 -1.746764,-1.138338 -1.937209,-2.005426 -0.293972,-1.33844 0.06127,-1.679211 2.161182,-2.073157 1.690042,-0.317055 4.446451,0.78591 4.446451,1.779226 0,0.836977 -0.718533,1.745723 -1.994286,2.522224 -0.913232,0.555846 -1.138435,0.537092 -2.676138,-0.222867 z"
       id="path16" /><path
       style="fill:#b99974;fill-opacity:1;stroke-width:1.31955"
       d="m 23.946152,77.25014 c -0.954651,-1.213642 -0.913403,-1.67315 0.230999,-2.573337 1.146074,-0.901503 2.739218,-0.731917 3.671372,0.390806 0.95378,1.148774 0.737857,1.676347 -0.989053,2.416587 -2.026736,0.868761 -2.047131,0.867122 -2.913318,-0.234056 z"
       id="path15" /><path
       style="fill:#b99974;fill-opacity:1;stroke-width:1.95964"
       d="m 69.494913,35.348361 c -0.5391,-0.595697 -1.753823,-1.561223 -2.699384,-2.145613 -1.402115,-0.866555 -1.719205,-1.38823 -1.719205,-2.828434 0,-1.664821 0.205548,-1.869419 3.590848,-3.574228 1.974967,-0.994576 3.72792,-2.03011 3.895454,-2.301182 0.279876,-0.452852 6.187905,0.921513 7.53183,1.752104 2.117378,1.308612 -1.735679,8.171282 -5.079713,9.047458 -4.447396,1.165272 -4.509917,1.165836 -5.51983,0.04989 z"
       id="path14" /><path
       style="fill:#b99974;fill-opacity:1;stroke-width:2.00462"
       d="m 33.975197,82.74364 c -0.187712,-0.187713 -1.231326,-0.366713 -2.319158,-0.397793 -1.856259,-0.05304 -2.004164,-0.183142 -2.405435,-2.11604 -0.500918,-2.412888 0.146458,-3.509556 2.07175,-3.509556 2.002879,0 3.36438,0.971109 4.214686,3.006176 0.599317,1.434368 0.8116,2.244413 0.155358,2.609255 -0.652285,0.362642 -1.129041,0.407958 -1.717192,0.407958 z"
       id="path13"
       sodipodi:nodetypes="ssssssss" /><path
       style="fill:#674f3b;fill-opacity:1;stroke-width:1.50749"
       d="m 29.527657,74.164301 c -0.930528,-0.491717 -1.515231,-1.12541 -1.639835,-1.77723 -0.206712,-1.081343 0.366746,-1.408436 0.744303,-0.424543 0.124203,0.323666 0.749346,0.849653 1.38921,1.168859 1.105139,0.551317 1.188015,0.477067 2.443121,-0.588485 1.5493,-1.315315 1.907541,-1.009552 1.711061,-0.07281 -0.127586,0.608282 -0.283663,0.788563 -0.439971,1.01555 -0.116126,0.168636 -0.413484,0.446669 -0.955883,0.812671 -1.222308,0.824794 -1.455781,0.815173 -3.252006,-0.134002 z"
       id="path10"
       sodipodi:nodetypes="ssssssssss" /><path
       style="fill:#674f3b;fill-opacity:1;stroke-width:1.95964"
       d="m 67.539149,33.400281 c -1.753224,-1.274993 -2.462825,-2.148583 -2.462825,-3.031988 l 0.231081,-1.185178 2.097598,1.075582 c 1.875682,0.96179 2.389254,1.454262 2.654683,2.86913 0.179308,0.955774 0.239672,1.811054 0.134158,1.900628 -0.105528,0.08958 -1.300133,-0.643108 -2.654686,-1.628174 z"
       id="path9" /><path
       style="fill:#674f3b;fill-opacity:1;stroke-width:1.31955"
       d="m 24.28505,77.313304 c -0.990058,-1.05387 -0.957724,-1.98669 0.03447,-0.994494 0.811754,0.811754 1.268648,0.58876 3.005307,-0.740811 0,0 0.288375,-0.424075 0.485071,-0.371366 0.252163,0.06757 0.30047,0.723248 0.30047,0.723248 0.343512,0.826855 -0.195076,1.093866 -1.555975,1.583242 -1.508908,0.542601 -1.577557,0.536557 -2.269343,-0.199819 z"
       id="path8"
       sodipodi:nodetypes="sssssss" /><path
       style="fill:#674f3b;fill-opacity:1;stroke-width:1.95964"
       d="m 70.261219,36.122658 c 0,-0.175956 0.355971,-1.008306 0.791048,-1.849652 0.685623,-1.325849 1.082954,-1.530481 2.981313,-1.535428 2.118669,-0.0055 2.257581,-0.11144 4.249548,-3.240559 1.952281,-3.066764 2.068752,-3.158861 2.241546,-1.772452 0.129061,1.035574 -0.373932,2.269966 -1.723392,4.229325 -1.629137,2.365434 -2.255334,2.852559 -4.315504,3.357073 -1.325416,0.324582 -2.818157,0.711981 -3.317204,0.860886 -0.499046,0.148913 -0.907355,0.126772 -0.907355,-0.04919 z"
       id="path7" /><path
       style="fill:#674f3b;fill-opacity:1;stroke-width:2.00462"
       d="m 33.41575,82.456761 c -0.528955,-0.296017 -1.525204,-0.430501 -2.213886,-0.298851 -1.460041,0.279105 -1.77801,-2.580098 -1.787849,-3.226885 -0.0127,-0.83492 0.382753,-0.663795 0.541322,-0.238165 0.287237,0.770999 0.569687,1.674899 1.941125,1.089706 0.796203,-0.339741 1.731122,-0.826623 2.077601,-1.08196 0.425048,-0.313242 0.899483,0.05695 1.45857,1.13811 1.033891,1.999326 1.032192,2.039154 -0.113261,2.652183 -0.605099,0.323839 -1.285758,0.311633 -1.903614,-0.03414 z"
       id="path6"
       sodipodi:nodetypes="ssssssssss" /></g></svg>
