<?xml version="1.0" encoding="UTF-8" standalone="no"?>
<!-- Created with Inkscape (http://www.inkscape.org/) -->

<svg
   width="100mm"
   height="100mm"
   viewBox="0 0 100 100"
   version="1.1"
   id="svg1"
   inkscape:version="1.4 (86a8ad7, 2024-10-11)"
   sodipodi:docname="boulder2.svg"
   xml:space="preserve"
   xmlns:inkscape="http://www.inkscape.org/namespaces/inkscape"
   xmlns:sodipodi="http://sodipodi.sourceforge.net/DTD/sodipodi-0.dtd"
   xmlns="http://www.w3.org/2000/svg"
   xmlns:svg="http://www.w3.org/2000/svg"><sodipodi:namedview
     id="namedview1"
     pagecolor="#ffffff"
     bordercolor="#000000"
     borderopacity="0.25"
     inkscape:showpageshadow="2"
     inkscape:pageopacity="0.0"
     inkscape:pagecheckerboard="true"
     inkscape:deskcolor="#d1d1d1"
     inkscape:document-units="mm"
     inkscape:zoom="1.4378367"
     inkscape:cx="177.69751"
     inkscape:cy="151.9644"
     inkscape:window-width="1920"
     inkscape:window-height="1009"
     inkscape:window-x="1912"
     inkscape:window-y="-8"
     inkscape:window-maximized="1"
     inkscape:current-layer="layer1" /><defs
     id="defs1" /><g
     inkscape:label="Warstwa 1"
     inkscape:groupmode="layer"
     id="layer1"><path
       style="fill:#b1cad8;fill-opacity:1"
       d="m 36.488677,73.956881 c -1.169524,-0.51951 -8.493567,-7.935953 -8.975032,-9.08826 -0.273193,-0.653844 -0.961469,-3.540226 -1.529502,-6.414183 -0.802968,-4.062611 -0.966552,-5.578593 -0.735133,-6.812708 0.386934,-2.06345 0.954203,-3.528339 1.366328,-3.528339 0.18054,0 0.989233,-0.552232 1.797095,-1.227181 0.807862,-0.67495 2.393652,-1.720101 3.523977,-2.322558 1.956959,-1.043048 2.166039,-1.292108 4.376568,-5.213435 1.276787,-2.264932 2.44549,-4.314505 2.597118,-4.554607 0.151628,-0.240102 2.648038,-1.449816 5.547576,-2.688253 l 5.271888,-2.251705 2.139232,0.500543 c 1.176577,0.275299 4.044948,0.819698 6.374157,1.209775 4.675456,0.783007 4.981266,0.92819 8.327226,3.953346 l 2.327749,2.10457 0.647454,4.913473 0.647454,4.913473 2.33539,1.363941 c 3.895306,2.274981 3.701755,1.943261 5.103819,8.747234 0.690893,3.352781 1.256169,6.707054 1.256169,7.453939 0,1.35647 -0.0042,1.360379 -3.793787,3.529569 -2.086583,1.194377 -5.04389,2.941779 -6.571794,3.883116 l -2.778007,1.711521 -3.045016,-0.676063 C 53.551315,71.43296 51.603783,71.052571 50.353021,71.052571 c -0.85442,0 -2.622978,0.561479 -4.682058,1.486454 -2.791978,1.254205 -3.722534,1.50121 -5.955813,1.580896 -1.455756,0.05194 -2.907669,-0.02143 -3.226473,-0.16304 z"
       id="path7"
       sodipodi:nodetypes="sssssssssscssscccssssscsssss" /><path
       style="fill:#7d919d;fill-opacity:1"
       d="m 36.488677,73.956881 c -1.169524,-0.51951 -8.493567,-7.935953 -8.975032,-9.08826 -0.273193,-0.653844 -0.961469,-3.540226 -1.529502,-6.414183 -0.802968,-4.062611 -0.966552,-5.578593 -0.735133,-6.812708 0.386934,-2.06345 0.954203,-3.528339 1.366328,-3.528339 0.18054,0 0.989233,-0.552232 1.797095,-1.227181 0.807862,-0.67495 2.393652,-1.720101 3.523977,-2.322558 1.956959,-1.043048 2.166039,-1.292108 4.376568,-5.213435 1.276787,-2.264932 2.44549,-4.314505 2.597118,-4.554607 0.151628,-0.240102 2.648038,-1.449816 5.547576,-2.688253 l 5.271888,-2.251705 2.139232,0.500543 c 1.176577,0.275299 4.044948,0.819698 6.374157,1.209775 4.675456,0.783007 4.981266,0.92819 8.327226,3.953346 l 2.327749,2.10457 0.647454,4.913473 0.647454,4.913473 2.33539,1.363941 c 3.895306,2.274981 3.701755,1.943261 5.103819,8.747234 0.690893,3.352781 1.256169,6.707054 1.256169,7.453939 0,1.35647 -0.0042,1.360379 -3.793787,3.529569 -2.086583,1.194377 -5.04389,2.941779 -6.571794,3.883116 l -2.778007,1.711521 -3.045016,-0.676063 C 53.551315,71.43296 51.603783,71.052571 50.353021,71.052571 c -0.85442,0 -2.622978,0.561479 -4.682058,1.486454 -2.791978,1.254205 -3.722534,1.50121 -5.955813,1.580896 -1.455756,0.05194 -2.907669,-0.02143 -3.226473,-0.16304 z M 69.223384,57.118432 c 2.030155,-1.549603 4.122103,-3.279125 4.648774,-3.843382 l 0.957582,-1.025921 -1.588097,0.887817 c -0.873453,0.4883 -3.237572,1.802201 -5.253597,2.91978 l -3.6655,2.031963 -3.47604,-0.970802 c -1.911822,-0.533941 -3.40292,-1.089112 -3.313552,-1.233713 0.08937,-0.144601 2.149764,-1.408395 4.578657,-2.808432 4.058664,-2.339452 5.279914,-3.200398 4.533789,-3.196188 -0.157031,8.86e-4 -2.904857,1.311066 -6.10628,2.911511 l -5.82077,2.909901 -1.014652,2.823283 c -1.375978,3.828679 -3.055655,10.057948 -2.712051,10.057948 0.260136,0 3.767712,-7.706848 4.762052,-10.463184 0.01038,-0.02878 1.686378,0.216559 3.724436,0.545197 l 3.70556,0.597523 0.221109,1.39581 c 0.121609,0.767696 0.598038,3.460337 1.058731,5.983647 l 0.837623,4.587836 0.115518,-5.646567 0.115518,-5.646568 z m -27.038143,4.748409 5.935434,-4.244984 0.910781,-3.960184 c 0.50093,-2.178102 1.154732,-5.151258 1.452893,-6.607014 0.298161,-1.455755 0.624859,-2.914443 0.725994,-3.241528 0.127042,-0.410869 1.787857,-1.100699 5.372797,-2.231624 10.915724,-3.443538 11.720119,-4.058348 3.044231,-2.32675 -2.89654,0.578114 -6.219296,1.146379 -7.3839,1.262813 l -2.117463,0.211698 -4.676063,-2.62247 c -2.571835,-1.442359 -4.676064,-2.50459 -4.676064,-2.360514 0,0.144076 1.389585,1.315348 3.087966,2.602826 1.698382,1.287478 3.459223,2.632746 3.912981,2.989484 l 0.825014,0.648614 -0.580686,5.974603 -0.580686,5.974602 -4.30791,4.411381 c -5.937323,6.079932 -7.490959,7.76403 -7.162568,7.76403 0.154998,0 2.95276,-1.910242 6.217249,-4.244983 z"
       id="path6" /></g></svg>
