<?xml version="1.0" encoding="UTF-8" standalone="no"?>
<!-- Created with Inkscape (http://www.inkscape.org/) -->

<svg
   width="100mm"
   height="100mm"
   viewBox="0 0 100 100"
   version="1.1"
   id="svg1"
   inkscape:version="1.4 (86a8ad7, 2024-10-11)"
   sodipodi:docname="boulder1.svg"
   xml:space="preserve"
   xmlns:inkscape="http://www.inkscape.org/namespaces/inkscape"
   xmlns:sodipodi="http://sodipodi.sourceforge.net/DTD/sodipodi-0.dtd"
   xmlns="http://www.w3.org/2000/svg"
   xmlns:svg="http://www.w3.org/2000/svg"><sodipodi:namedview
     id="namedview1"
     pagecolor="#ffffff"
     bordercolor="#000000"
     borderopacity="0.25"
     inkscape:showpageshadow="2"
     inkscape:pageopacity="0.0"
     inkscape:pagecheckerboard="true"
     inkscape:deskcolor="#d1d1d1"
     inkscape:document-units="mm"
     inkscape:zoom="1.4378367"
     inkscape:cx="233.33665"
     inkscape:cy="190.9118"
     inkscape:window-width="1920"
     inkscape:window-height="1009"
     inkscape:window-x="1912"
     inkscape:window-y="-8"
     inkscape:window-maximized="1"
     inkscape:current-layer="layer1" /><defs
     id="defs1" /><g
     inkscape:label="Warstwa 1"
     inkscape:groupmode="layer"
     id="layer1"><path
       style="fill:#b1cad8;fill-opacity:1"
       d="M 43.98484,72.95444 C 36.650047,69.531123 31.453697,67.387352 31.194675,67.075249 31.022998,66.868391 30.517284,65.11961 30.070866,63.189068 29.242462,59.606625 27.782665,52.849765 27.782665,52.597833 c 0,-0.07672 0.703733,-0.883577 1.563852,-1.793026 1.717104,-1.815584 1.79831,-2.062719 2.885345,-8.780945 l 0.531856,-3.287044 2.981126,-0.919942 c 3.60667,-1.112976 12.308965,-3.719673 15.882732,-4.757534 l 2.598483,-0.754627 4.738412,1.884652 c 2.606127,1.036558 4.893791,2.00571 5.0837,2.153669 0.189908,0.14796 0.4324,0.713025 0.53887,1.2557 0.10647,0.542675 0.800084,2.912617 1.541365,5.266538 0.741281,2.35392 1.496219,4.845084 1.67764,5.53592 0.269794,1.027348 0.631055,1.456048 1.983977,2.354337 1.638688,1.088028 1.652771,1.110534 1.509465,2.412384 -0.07956,0.72276 -0.337465,2.277077 -0.573122,3.454037 -0.235657,1.176961 -0.717536,3.721946 -1.070842,5.655524 -0.353306,1.933577 -0.716501,3.822448 -0.8071,4.197491 -0.0906,0.375043 -0.803926,1.152018 -1.58517,1.726613 -0.781244,0.574594 -2.156482,1.609017 -3.056085,2.298717 -0.899603,0.689701 -1.759396,1.254002 -1.91065,1.254002 -0.155228,0 -2.553959,0.548064 -2.667341,0.65743 -0.113383,0.109366 -2.476003,0.630853 -5.250267,1.158859 -2.774263,0.528007 -5.31931,1.01719 -5.655659,1.087072 -0.336349,0.06988 -2.468634,-0.696555 -4.738412,-1.703193 z"
       id="path5"
       sodipodi:nodetypes="cssssscsscsssssssssssssssscc" /><path
       style="fill:#7d919d;fill-opacity:1"
       d="m 43.98484,72.95444 c -7.237067,-3.209615 -6.807374,-2.911025 -7.226218,-5.021441 -0.200216,-1.008823 -0.528656,-3.174156 -0.729866,-4.811851 -0.20121,-1.637695 -0.488092,-2.902069 -0.637516,-2.80972 -0.149423,0.09235 -0.271679,2.01694 -0.271679,4.276869 0,2.259929 -0.06362,4.108962 -0.141384,4.108962 -0.468989,0 -3.52448,-1.309907 -3.783502,-1.62201 -0.171677,-0.206858 -0.677391,-1.955639 -1.123809,-3.886181 -0.828404,-3.582443 -2.288201,-10.339303 -2.288201,-10.591235 0,-0.07672 0.703733,-0.883577 1.563852,-1.793026 1.717104,-1.815584 1.79831,-2.062719 2.885345,-8.780945 l 0.531856,-3.287044 2.981126,-0.919942 c 3.60667,-1.112976 12.308965,-3.719673 15.882732,-4.757534 l 2.598483,-0.754627 4.738412,1.884652 c 2.606127,1.036558 4.893791,2.00571 5.0837,2.153669 0.189908,0.14796 0.4324,0.713025 0.53887,1.2557 0.10647,0.542675 0.800084,2.912617 1.541365,5.266538 0.741281,2.35392 1.496219,4.845084 1.67764,5.53592 0.269794,1.027348 0.631055,1.456048 1.983977,2.354337 1.638688,1.088028 1.652771,1.110534 1.509465,2.412384 -0.07956,0.72276 -0.337465,2.277077 -0.573122,3.454037 -0.235657,1.176961 -0.717536,3.721946 -1.070842,5.655524 -0.353306,1.933577 -0.716501,3.822448 -0.8071,4.197491 -0.0906,0.375043 -0.803926,1.152018 -1.58517,1.726613 -0.781244,0.574594 -2.156482,1.609017 -3.056085,2.298717 -0.899603,0.689701 -1.759396,1.254002 -1.91065,1.254002 -0.155228,0 -0.275008,-3.192515 -0.275008,-7.329848 0,-7.274377 0.0052,-7.332993 0.687834,-7.745458 0.378309,-0.228586 2.039511,-1.207252 3.69156,-2.174814 1.65205,-0.967561 2.936105,-1.826824 2.853457,-1.909472 -0.08265,-0.08265 -1.984592,0.468909 -4.226542,1.225683 -2.24195,0.756773 -5.658291,1.677794 -7.591869,2.046712 -1.933577,0.368917 -3.62574,0.772311 -3.760362,0.89643 -0.256898,0.236856 2.961417,0.616793 5.256099,0.620507 l 1.342885,0.0022 -0.219623,7.413321 c -0.120792,4.077327 -0.31239,7.502803 -0.425772,7.612169 -0.113383,0.109366 -2.476003,0.630853 -5.250267,1.158859 -2.774263,0.528007 -5.31931,1.01719 -5.655659,1.087072 -0.336349,0.06988 -2.468634,-0.696555 -4.738412,-1.703193 z m 5.311743,-0.321242 c 0.105086,-0.525429 0.191065,-2.734038 0.191065,-4.90802 0,-3.784971 -0.04152,-4.046031 -0.978437,-6.152293 l -0.978436,-2.199597 -0.117251,-6.826995 -0.117252,-6.826995 1.30821,-1.119779 c 0.719516,-0.615879 2.062021,-1.705126 2.983346,-2.42055 1.618037,-1.256432 1.750552,-1.300771 3.887611,-1.300771 l 2.212475,0 0.179553,1.14639 c 0.182465,1.164984 1.097004,9.886555 1.097004,10.461666 0,0.172919 0.120042,0.314399 0.26676,0.314399 0.146718,0 0.361832,-2.923294 0.478029,-6.49621 l 0.211269,-6.496209 1.279447,-1.121236 c 0.703696,-0.61668 1.190321,-1.210363 1.08139,-1.319294 -0.108932,-0.108931 -0.962603,0.233426 -1.897049,0.760794 -1.085534,0.612638 -2.779999,1.178478 -4.692884,1.567115 -2.699363,0.548424 -3.328455,0.817927 -6.394704,2.739494 l -3.40081,2.13123 -5.256197,-1.87415 c -2.890909,-1.030782 -5.325186,-1.805161 -5.409506,-1.720841 -0.08432,0.08432 2.055576,1.270522 4.755325,2.636005 3.821461,1.932825 4.937759,2.633392 5.040133,3.16309 0.07232,0.374216 0.402247,3.525332 0.733162,7.00248 0.597256,6.275776 0.609758,6.335414 1.706682,8.141145 l 1.105018,1.819056 v 4.9277 c 0,4.61552 0.285266,6.176279 0.726047,3.972376 z M 38.788009,57.66176 c -2.595758,-2.237812 -7.484204,-5.778219 -7.978324,-5.778219 -0.914402,0 -2.109908,0.57344 -2.109908,1.012045 0,0.321073 10.274351,5.620891 11.005344,5.676885 0.08407,0.0064 -0.328632,-0.40338 -0.917112,-0.910711 z"
       id="path4" /></g></svg>
