<?xml version="1.0" encoding="UTF-8" standalone="no"?>
<!-- Created with Inkscape (http://www.inkscape.org/) -->

<svg
   width="100mm"
   height="100mm"
   viewBox="0 0 100 100"
   version="1.1"
   id="svg1"
   inkscape:version="1.4 (86a8ad7, 2024-10-11)"
   sodipodi:docname="tree4.svg"
   xml:space="preserve"
   xmlns:inkscape="http://www.inkscape.org/namespaces/inkscape"
   xmlns:sodipodi="http://sodipodi.sourceforge.net/DTD/sodipodi-0.dtd"
   xmlns="http://www.w3.org/2000/svg"
   xmlns:svg="http://www.w3.org/2000/svg"><sodipodi:namedview
     id="namedview1"
     pagecolor="#ffffff"
     bordercolor="#000000"
     borderopacity="0.25"
     inkscape:showpageshadow="2"
     inkscape:pageopacity="0.0"
     inkscape:pagecheckerboard="true"
     inkscape:deskcolor="#d1d1d1"
     inkscape:document-units="mm"
     inkscape:zoom="1.0227973"
     inkscape:cx="117.81416"
     inkscape:cy="156.92259"
     inkscape:window-width="1920"
     inkscape:window-height="1009"
     inkscape:window-x="1912"
     inkscape:window-y="-8"
     inkscape:window-maximized="1"
     inkscape:current-layer="layer1" /><defs
     id="defs1" /><g
     inkscape:label="Warstwa 1"
     inkscape:groupmode="layer"
     id="layer1"><path
       style="fill:#9aa3a8;fill-opacity:1"
       d="m 46.36486,60.047632 c 0,-0.992957 -2.020401,-7.352288 -2.573584,-8.100509 -1.490504,-2.016014 -5.076212,-4.124054 -6.850071,-4.027159 -1.229099,0.06714 -7.455996,1.565241 -8.518874,2.049521 -0.639746,0.291488 -0.970481,0.164477 -3.209984,-1.232717 -1.373213,-0.856728 -2.751654,-1.711441 -3.063201,-1.899362 -0.73096,-0.440906 -0.338632,-0.327445 3.261077,0.943097 l 2.977851,1.051054 1.341326,-0.593332 c 0.737728,-0.326333 1.341325,-0.690974 1.341325,-0.810314 0,-0.349445 -1.426156,-1.571778 -3.274853,-2.806817 -0.944413,-0.630925 -2.043361,-1.574866 -2.442106,-2.097647 -0.693142,-0.908757 -3.346232,-5.956381 -3.346232,-6.366359 0,-0.39441 1.457223,1.188084 3.150007,3.420799 2.015553,2.658434 5.250132,5.21503 4.261978,3.368647 -0.154538,-0.288756 -0.372605,-1.606045 -0.484595,-2.927311 -0.243134,-2.86851 -0.459679,-3.332779 -2.540591,-5.446967 -0.8816,-0.895698 -1.527624,-1.628542 -1.43561,-1.628542 0.09201,0 1.328752,0.782194 2.748305,1.738209 l 2.581006,1.738208 -0.191754,2.451198 c -0.178932,2.287299 -0.150496,2.488282 0.425275,3.005806 0.339366,0.305034 1.046257,1.223726 1.570868,2.041537 l 0.953839,1.48693 h 2.766829 c 1.521756,0 3.203625,0.125271 3.737487,0.278381 0.533862,0.15311 1.028735,0.220304 1.099718,0.149321 0.07098,-0.07098 -0.207616,-0.570465 -0.619108,-1.109959 -0.760825,-0.997493 -2.974781,-5.352734 -3.528552,-6.941283 -0.208731,-0.598766 -0.489917,-0.873202 -0.894679,-0.873202 -0.324654,0 -1.029368,-0.183463 -1.566032,-0.407695 -0.808693,-0.337894 -1.181445,-0.822439 -2.177141,-2.830096 -1.151298,-2.321403 -1.257623,-2.441079 -2.550201,-2.870404 -1.223669,-0.406438 -1.377445,-0.557737 -1.657388,-1.630694 -0.169716,-0.650479 -0.49071,-1.811215 -0.71332,-2.579413 -0.482229,-1.664109 -0.481736,-1.658149 -0.118719,-1.433792 0.157315,0.09723 0.7996,1.11253 1.4273,2.256232 0.956447,1.742696 1.323861,2.152515 2.268727,2.530576 0.6201,0.248115 1.23376,0.451117 1.363689,0.451117 0.252992,0 1.298205,-3.297731 1.707619,-5.387677 0.219314,-1.119538 0.252053,-0.95673 0.279449,1.389672 0.02899,2.48296 -0.360908,4.786799 -0.870653,5.144525 -0.12166,0.08538 -0.12473,0.720338 -0.0068,1.411021 0.183352,1.074036 0.377336,1.348083 1.34031,1.893487 0.619263,0.350735 1.205007,0.639796 1.301654,0.642358 0.09665,0.0026 0.321745,-1.429166 0.500218,-3.181619 0.427807,-4.200721 0.898301,-6.588877 1.203318,-6.107868 0.12994,0.204912 0.238205,0.786784 0.24059,1.293048 0.0024,0.506264 0.102203,0.92048 0.221816,0.92048 0.640926,0 2.461097,-1.637979 3.468275,-3.121115 0.632595,-0.931538 1.196274,-1.693705 1.25262,-1.693705 0.05635,0 -0.260415,0.972662 -0.703913,2.161472 -0.681066,1.82562 -1.056566,2.384477 -2.416638,3.59669 l -1.610279,1.435218 0.185897,2.644603 c 0.159191,2.264673 0.342488,2.973218 1.275886,4.93201 0.599493,1.258074 1.153675,2.177437 1.231515,2.04303 0.07784,-0.134407 0.487144,-1.327711 0.909567,-2.651787 0.422422,-1.324075 0.996438,-2.662312 1.27559,-2.973859 0.584559,-0.652395 1.327449,-2.822628 1.599681,-4.673208 0.310468,-2.110511 0.579857,-2.240325 0.975971,-0.470303 0.270304,1.207847 0.283108,1.865734 0.05103,2.621921 -0.276537,0.901041 -0.25867,0.988604 0.166316,0.815099 0.261875,-0.106912 1.027573,-0.387392 1.701553,-0.623287 1.774881,-0.621215 1.850377,-1.11962 0.683088,-4.509568 -0.882253,-2.562168 -0.966059,-3.05413 -0.77196,-4.531595 l 0.217737,-1.657397 0.661876,2.407411 c 0.791435,2.878652 1.511084,4.573101 1.852599,4.362033 0.137159,-0.08477 0.623043,-0.877865 1.079742,-1.762436 0.456699,-0.884571 0.836492,-1.45761 0.843984,-1.273421 0.01651,0.405963 -1.632939,6.856022 -1.838201,7.188143 -0.08002,0.129466 -1.44854,1.020528 -3.041168,1.980136 -1.592628,0.959608 -2.924111,1.770167 -2.958851,1.801241 -0.14845,0.132785 -0.879754,4.135192 -1.051077,5.752512 l -0.186731,1.762787 1.616711,1.63591 c 1.813566,1.835102 2.688873,3.538152 4.083304,7.944727 0.506488,1.600566 0.964179,2.86683 1.01709,2.813919 0.05291,-0.05291 0.286006,-1.043838 0.517989,-2.202059 0.231982,-1.158221 0.793982,-3.889722 1.248887,-6.070001 l 0.827075,-3.964144 -1.388056,-2.731903 c -0.76343,-1.502547 -1.315572,-2.920794 -1.22698,-3.151659 0.08859,-0.230865 0.841029,-0.888058 1.672084,-1.460427 1.376449,-0.947997 1.527536,-1.159251 1.696594,-2.372226 0.102072,-0.732354 0.39758,-2.414888 0.656684,-3.738964 l 0.471099,-2.40741 0.358715,2.824198 c 0.468448,3.688144 0.239585,4.558139 -1.62046,6.159971 -0.774004,0.666557 -1.407343,1.348217 -1.407419,1.5148 -1.13e-4,0.24517 1.836125,2.902305 2.384901,3.451081 0.195345,0.195345 2.774142,-1.48493 3.700093,-2.410881 1.004175,-1.004175 1.408113,-2.043233 2.080342,-5.351307 l 0.563282,-2.771939 -1.74455,-2.415566 -1.74455,-2.415566 -0.05994,-2.832705 -0.05995,-2.832704 0.674205,2.51487 c 0.573687,2.139928 0.853532,2.697592 1.877017,3.740447 0.661546,0.674067 1.30915,1.159855 1.43912,1.07953 0.129969,-0.08033 0.24037,-0.680192 0.245336,-1.333037 0.005,-0.652844 0.390435,-2.397775 0.856598,-3.877625 l 0.84757,-2.690635 -0.141659,1.699349 c -0.07791,0.934641 -0.228371,3.160865 -0.334353,4.947164 l -0.192694,3.247815 0.823072,-0.523038 c 1.273931,-0.809547 2.408186,-1.936434 2.733261,-2.715508 0.162495,-0.389434 0.59761,-1.472769 0.966923,-2.407411 l 0.671477,-1.699348 -0.160652,1.840961 c -0.268057,3.071751 -0.377344,3.307369 -2.835803,6.11387 -1.706737,1.948359 -2.430941,3.005196 -2.570672,3.751404 -0.106995,0.571383 -0.372255,1.464659 -0.589468,1.985059 -0.449189,1.07617 -0.531828,1.099995 1.93734,-0.558531 1.753851,-1.178052 2.985185,-2.589633 4.232701,-4.852299 0.955065,-1.732237 0.98682,-1.555438 0.355481,1.979151 -0.286082,1.601647 -0.36988,2.744121 -0.212419,2.896049 0.143027,0.138001 0.865443,0.339592 1.605367,0.447981 l 1.345318,0.197071 v -2.404165 c 0,-3.594238 0.112264,-3.898305 2.075915,-5.622604 l 1.737343,-1.525576 -0.890665,1.274511 c -0.712019,1.018875 -0.913441,1.629561 -1.004221,3.044666 -0.06246,0.973585 -0.04652,1.770154 0.03541,1.770154 0.08193,0 0.67573,-0.516982 1.319556,-1.148849 l 1.170592,-1.148849 -0.939287,1.927717 c -0.516608,1.060245 -1.023509,2.29018 -1.126446,2.733189 l -0.18716,0.805472 0.874895,-0.452426 c 0.481191,-0.248833 1.740661,-1.055489 2.798821,-1.792568 l 1.923928,-1.340142 -1.446078,1.83677 c -0.795342,1.010224 -1.588757,2.109263 -1.763144,2.442308 -0.286546,0.54725 -0.640854,0.624992 -3.680869,0.807647 -2.266134,0.136158 -3.896119,0.0916 -4.995086,-0.136543 l -1.631285,-0.338653 -2.217347,1.497011 c -1.219542,0.823357 -2.154698,1.598381 -2.078127,1.722277 0.07657,0.123895 0.845859,0.43069 1.709526,0.681765 l 1.570305,0.456499 2.090739,-0.877615 c 1.149906,-0.482689 2.189235,-0.874782 2.30962,-0.871318 0.223053,0.0064 0.104666,0.112238 -2.402699,2.147677 l -1.432264,1.162688 -2.046104,-0.667045 c -2.999975,-0.978014 -3.445282,-0.912876 -5.217481,0.763196 -0.831748,0.786632 -1.64694,1.774378 -1.811538,2.194991 -0.296272,0.75709 -1.289003,7.967142 -1.119993,8.134335 0.04825,0.04773 0.576012,-1.02017 1.172808,-2.373111 l 1.085083,-2.459893 2.738451,-1.322849 2.73845,-1.322848 2.090223,0.263837 c 1.149622,0.145111 2.527709,0.384634 3.062416,0.532273 1.094802,0.30229 1.025102,0.406835 2.736152,-4.104019 l 0.758979,-2.000903 2.048671,-0.896735 c 1.673499,-0.732517 1.893999,-0.781027 1.204066,-0.264895 -2.012794,1.50575 -2.152184,1.709204 -2.324802,3.393281 -0.09181,0.895698 -0.06449,1.628542 0.06071,1.628542 0.125199,0 1.088066,-0.764707 2.139705,-1.699348 l 1.912071,-1.699348 2.502321,0.01917 c 2.638371,0.02021 2.625602,0.346029 -0.02729,0.696244 -1.573677,0.207745 -2.00568,0.584329 -4.702683,4.099408 -2.710267,3.532365 -2.507856,3.39952 -5.169825,3.393002 -1.279064,-0.0031 -3.148578,-0.12464 -4.154475,-0.270017 l -1.828904,-0.264323 -1.991721,1.191842 c -2.217167,1.326749 -2.023437,0.979645 -3.864777,6.924454 l -0.89919,2.903053 h -4.210474 c -3.269958,0 -4.210474,-0.0824 -4.210474,-0.36888 z"
       id="path26"
       sodipodi:nodetypes="ssssssscssssssssssscssscsssssssssssssssssscscsscssssscsssssssssssscsssssssscssssccssssscsssssscccccssscscsscssscssssssssscsscsssscsscsscsssscssscscscssssscccssscssssscssscscsscsss" /><path
       style="fill:#54646a;fill-opacity:1"
       d="m 45.50848,56.309754 c -0.459105,-4.781634 -2.187501,-5.869727 -5.941014,-7.689847 -2.374611,-1.151476 -1.557286,-1.170649 -7.491107,0.175727 -2.737294,0.621088 -3.837881,0.715827 -3.837881,0.330368 0,-0.134611 0.605392,-0.469998 1.345317,-0.745304 0.739925,-0.275307 1.463385,-0.608239 1.607689,-0.739848 0.382603,-0.348945 -0.442217,-1.149032 -2.765516,-2.682589 -2.141515,-1.413567 -2.616879,-1.86971 -3.754174,-3.602381 -0.684245,-1.042448 -1.338305,-2.464447 -1.133542,-2.464447 0.05532,0 0.630124,0.701385 1.277352,1.558632 0.855675,1.133333 1.645607,1.795296 2.894935,2.425955 0.944986,0.477027 1.765531,0.819948 1.823433,0.762046 0.0579,-0.0579 -0.0081,-0.544188 -0.146653,-1.080637 -0.138561,-0.536448 -0.3368,-1.959288 -0.44053,-3.161867 -0.202091,-2.342905 -0.394806,-2.7241 -2.525013,-4.994555 l -1.157158,-1.233342 2.336604,1.631772 2.336604,1.631772 v 2.611556 c 0,2.041815 0.09827,2.693111 0.450431,2.985381 0.247737,0.205603 1.023631,1.177093 1.724209,2.158865 l 1.273778,1.78504 h 1.943894 c 1.069141,0 2.682956,0.211069 3.586254,0.469042 1.893078,0.540644 3.583583,0.649349 3.717076,0.23902 0.05068,-0.155773 -0.303206,-0.398223 -0.78641,-0.538777 -0.551121,-0.16031 -1.229508,-0.740869 -1.820228,-1.557736 -0.917377,-1.26858 -3.291611,-6.144567 -3.291611,-6.760013 0,-0.169299 -0.208411,-0.516228 -0.463135,-0.770952 -0.415811,-0.415811 -0.429011,-0.815819 -0.129183,-3.914571 0.537887,-5.559113 0.639693,-5.854005 1.044884,-3.026597 0.189751,1.324075 0.471404,3.245385 0.625895,4.269576 0.175768,1.165244 0.703265,2.701609 1.409465,4.105146 l 1.128572,2.242981 0.412167,-0.989675 c 0.226692,-0.544321 0.691852,-1.83185 1.03369,-2.861176 0.341838,-1.029327 0.903928,-2.121357 1.249087,-2.426735 0.723728,-0.640313 4.197026,-2.0037 5.426701,-2.130162 0.77891,-0.0801 0.879352,-0.235417 1.520786,-2.351568 1.461367,-4.821185 1.948598,-4.949846 0.662213,-0.174868 l -0.792202,2.940604 -2.943168,1.785503 c -3.378341,2.049506 -3.470204,2.198306 -4.013698,6.501422 -0.317525,2.514 -0.310714,2.577374 0.410944,3.823759 0.403601,0.697064 1.304753,2.605627 2.00256,4.241249 0.697807,1.635623 1.835138,4.216222 2.527402,5.734665 l 1.258662,2.760806 0.311819,-1.061457 c 0.404256,-1.37612 1.915335,-8.169488 2.354383,-10.584617 l 0.341057,-1.876093 -1.316894,-2.415874 c -1.329971,-2.439863 -1.900862,-4.43902 -0.705432,-2.470295 1.719297,2.83147 2.547068,3.965146 2.895213,3.965146 0.523491,0 4.525161,-3.220844 5.109292,-4.112341 0.374559,-0.571649 1.863347,-6.352333 1.863347,-7.235024 0,-0.118689 -0.759668,-1.240362 -1.688151,-2.492607 l -1.688152,-2.27681 -0.15106,-2.633343 -0.15106,-2.633342 0.417625,1.416124 c 0.229693,0.778868 0.41747,1.862203 0.417282,2.40741 -3.02e-4,0.87437 0.258578,1.229121 2.194938,3.007784 1.945771,1.787308 2.151082,2.069752 1.806406,2.48506 -0.852984,1.027784 -0.02794,0.611344 2.460073,-1.241715 1.437174,-1.0704 2.612357,-1.859402 2.611519,-1.753338 -8.38e-4,0.106064 -0.968406,1.274527 -2.150151,2.596584 -1.181744,1.322057 -2.291221,2.660294 -2.465503,2.97386 -0.329255,0.592391 -1.299019,4.110428 -1.133059,4.110428 0.05195,0 0.805468,-0.472084 1.674482,-1.049077 l 1.580025,-1.049078 1.743508,0.496489 c 3.415334,0.972566 4.152799,1.127751 4.36292,0.918096 0.11706,-0.116801 0.276561,-1.635781 0.354448,-3.375512 0.111406,-2.488427 0.186258,-2.921493 0.350914,-2.030249 0.115116,0.623094 0.210704,1.953313 0.212419,2.956042 l 0.0031,1.823143 0.849674,-0.814039 c 1.031894,-0.988618 1.058388,-0.817883 0.15096,0.972839 -0.662589,1.307557 -0.771376,1.388839 -2.104135,1.57214 -0.777991,0.107001 -2.349412,0.04101 -3.519926,-0.147811 l -2.114504,-0.341106 -1.375049,0.941361 c -3.270512,2.239001 -4.737126,3.444917 -6.420385,5.279133 l -1.791782,1.952472 -0.488105,3.665453 c -0.268457,2.015998 -0.548712,3.952217 -0.622789,4.302708 -0.243967,1.154323 0.355663,0.663979 0.865872,-0.708062 0.875497,-2.354368 1.522021,-3.13886 3.608278,-4.378282 1.974618,-1.173099 2.034121,-1.188139 4.560843,-1.152812 1.408067,0.01969 3.332663,0.116632 4.27688,0.215432 1.08309,0.113333 1.576303,0.08296 1.336234,-0.08228 -0.309165,-0.212803 -0.23965,-0.600946 0.370692,-2.069793 0.413169,-0.99433 0.936273,-2.401277 1.162453,-3.12655 0.336758,-1.079852 0.577391,-1.374093 1.328656,-1.624651 0.740295,-0.2469 0.830666,-0.238372 0.468078,0.04417 -0.288601,0.224886 -0.510555,1.010514 -0.620462,2.196187 -0.114941,1.23998 -0.427718,2.309297 -0.952702,3.257084 -0.952843,1.720227 -0.555764,1.46374 2.152808,-1.390575 1.018748,-1.073566 2.327679,-2.252489 2.908735,-2.619829 1.100978,-0.696032 2.847503,-0.881787 3.616743,-0.384666 0.323359,0.208971 0.209371,0.275587 -0.477205,0.278888 -1.654154,0.008 -2.313692,0.525074 -5.048159,3.958081 -1.493921,1.875555 -2.741767,3.416866 -2.772992,3.425137 -0.964682,0.255532 -4.027208,0.246666 -6.022605,-0.01744 l -2.614196,-0.346002 -1.982069,1.282194 c -2.204833,1.4263 -2.217921,1.449983 -3.903763,7.064195 l -1.718877,5.633971 2.262492,14.227251 -5.59965,0.09456 c -2.991525,0.05052 -4.895954,-0.249104 -6.301611,-0.350919 l 2.444635,-9.211781 z"
       id="path25"
       sodipodi:nodetypes="ssssssssssssssscccssscssssssssssscsssssscssssscsscsssssscccsssssssssscssssccsssscsscsssssssssssssssscssscssccsccs" /></g></svg>
