<?xml version="1.0" encoding="UTF-8" standalone="no"?>
<!-- Created with Inkscape (http://www.inkscape.org/) -->

<svg
   width="100mm"
   height="100mm"
   viewBox="0 0 100 100"
   version="1.1"
   id="svg1"
   inkscape:version="1.4 (86a8ad7, 2024-10-11)"
   sodipodi:docname="tree3.svg"
   xml:space="preserve"
   xmlns:inkscape="http://www.inkscape.org/namespaces/inkscape"
   xmlns:sodipodi="http://sodipodi.sourceforge.net/DTD/sodipodi-0.dtd"
   xmlns="http://www.w3.org/2000/svg"
   xmlns:svg="http://www.w3.org/2000/svg"><sodipodi:namedview
     id="namedview1"
     pagecolor="#ffffff"
     bordercolor="#000000"
     borderopacity="0.25"
     inkscape:showpageshadow="2"
     inkscape:pageopacity="0.0"
     inkscape:pagecheckerboard="true"
     inkscape:deskcolor="#d1d1d1"
     inkscape:document-units="mm"
     inkscape:zoom="1.4464538"
     inkscape:cx="221.57638"
     inkscape:cy="178.02159"
     inkscape:window-width="1920"
     inkscape:window-height="1009"
     inkscape:window-x="1912"
     inkscape:window-y="-8"
     inkscape:window-maximized="1"
     inkscape:current-layer="layer1" /><defs
     id="defs1" /><g
     inkscape:label="Warstwa 1"
     inkscape:groupmode="layer"
     id="layer1"><path
       style="fill:#9aa3a8;fill-opacity:1"
       d="m 46.238409,71.716469 c 1.361286,-5.197142 1.360055,-5.170573 0.411204,-8.874967 -0.8578,-3.348918 -0.947245,-3.520162 -2.823515,-5.405651 -1.833007,-1.842012 -2.069245,-1.971771 -4.374234,-2.402633 -4.198696,-0.784845 -5.970932,-0.851833 -9.058564,-0.342398 -1.638941,0.270412 -3.024539,0.448502 -3.079107,0.395755 -0.05457,-0.05275 0.815747,-0.545712 1.934032,-1.095478 l 2.033247,-0.999576 -1.265919,-0.860214 c -0.696255,-0.473117 -1.593843,-0.860213 -1.994639,-0.860213 -0.4733,0 -1.166559,-0.55125 -1.977875,-1.572721 -2.025195,-2.549781 -2.04281,-2.581257 -1.112875,-1.988493 4.761373,3.035017 8.241008,4.541587 11.293526,4.889734 1.505755,0.171735 2.788383,0.261598 2.850285,0.199697 0.119519,-0.119519 -6.016926,-5.577369 -7.211822,-6.414306 -0.388333,-0.272 -1.127344,-1.433505 -1.642245,-2.581123 -0.929767,-2.072275 -0.949725,-2.090378 -2.911372,-2.640789 -1.509891,-0.423653 -2.315168,-0.901691 -3.418402,-2.029267 l -1.443214,-1.475059 2.152145,0.97815 c 2.349029,1.067634 3.97849,1.534122 3.963863,1.134788 -0.0051,-0.140048 -0.665786,-2.114469 -1.468125,-4.387603 -0.802338,-2.273133 -2.011956,-6.506508 -1.961446,-6.557019 0.238224,-0.238224 4.394743,7.938987 5.082513,9.696692 0.427533,1.092627 0.874152,2.099197 0.992487,2.236821 0.333054,0.387344 1.390051,-4.084736 1.642791,-6.950531 l -0.09341,-3.713713 0.768404,2.633187 c 0.539354,1.848275 0.513214,3.621188 -0.143501,6.142484 -0.278351,1.068663 -0.506093,2.645135 -0.506093,3.503271 v 1.560247 l 3.215838,2.674479 c 1.768711,1.470963 3.311665,2.674479 3.428787,2.674479 0.650229,0 -1.060662,-6.336585 -2.539561,-9.405709 l -0.493388,-1.023916 0.870601,0.993298 c 1.118653,1.276308 3.716139,5.251409 4.302946,6.585075 0.249307,0.566613 0.546465,2.031831 0.66035,3.25604 l 0.207064,2.225834 2.951727,2.353884 c 1.62345,1.294637 3.309716,2.811309 3.747257,3.370383 l 0.79553,1.016499 0.428543,-1.914933 c 0.342353,-1.529793 0.350158,-2.698928 0.0388,-5.812989 -0.51467,-5.147577 -0.660003,-5.491592 -2.44613,-5.790157 -0.386644,-0.06463 -0.975803,-0.211062 -1.617019,-0.395782 -0.286435,-0.08252 -0.550921,0.296197 -1.135741,1.528045 -0.04069,-0.828422 -0.368908,-2.000708 -0.660857,-2.105449 -0.06359,-0.02282 -0.126236,-0.04561 -0.187751,-0.06833 -2.070254,-0.764679 -2.217528,-0.892391 -3.097077,-2.685756 l -0.923461,-1.882902 1.633768,1.528199 c 1.538194,1.4388 1.773784,1.54226 4.027209,1.768563 1.316393,0.1322 2.485439,0.148366 2.597881,0.03592 0.112441,-0.112441 -0.02133,-0.681154 -0.297268,-1.263805 -0.40078,-0.846255 -1.427484,-1.571822 -5.103693,-3.606755 -2.531091,-1.401064 -4.706591,-2.748041 -4.834442,-2.993283 -0.558813,-1.071899 -1.879724,-4.253534 -1.765928,-4.253534 0.06889,0 0.827604,0.893968 1.68602,1.986595 0.858417,1.092627 1.689834,1.986595 1.847594,1.986595 0.15776,0 1.210583,0.439977 2.339607,0.977726 2.095311,0.997989 2.520036,1.057684 2.03434,0.285924 -0.150881,-0.239746 -0.227579,-1.275425 -0.170441,-2.301509 0.136682,-2.454513 -0.494803,-3.622329 -2.778745,-5.138782 -1.661441,-1.103135 -1.867218,-1.381259 -2.472959,-3.342421 -0.866068,-2.804002 -0.817323,-2.928925 0.300381,-0.76981 0.756416,1.461202 1.320525,2.032469 3.024291,3.062668 1.151938,0.69653 2.216418,1.266419 2.365512,1.266419 0.149094,0 0.284402,-1.67619 0.300686,-3.724866 l 0.02961,-3.724866 0.49798,1.655496 c 0.308826,1.02667 0.562144,3.667738 0.666903,6.953083 0.17909,5.616446 0.300981,6.076076 2.154477,8.124151 0.418092,0.461983 0.807298,1.057962 0.864903,1.324397 0.0576,0.266435 0.307047,0.6913 0.554317,0.944145 0.491808,0.502896 0.585121,0.255161 1.631495,-4.331464 0.437044,-1.91572 0.442897,-2.366335 0.04316,-3.323044 -0.834687,-1.997689 -1.782849,-6.330998 -1.97563,-9.02907 l -0.18926,-2.648793 0.60468,1.240919 c 0.332574,0.682506 0.710552,1.346793 0.839952,1.476193 0.1294,0.1294 1.26904,-0.875998 2.532533,-2.234218 l 2.297259,-2.46949 -0.81347,1.895895 c -0.447409,1.042742 -1.412906,3.088111 -2.145548,4.545264 -0.732642,1.457154 -1.332077,2.855561 -1.332077,3.107572 0,0.252012 0.446984,1.444004 0.993297,2.648873 1.171775,2.584294 1.210383,3.544704 0.334205,8.313646 -0.595361,3.240481 -0.614079,3.766925 -0.193569,5.444227 0.256039,1.021271 0.568141,2.504371 0.693561,3.29578 0.12542,0.791408 0.340229,1.312889 0.477355,1.158847 0.877231,-0.985452 2.269559,-5.50998 2.465955,-8.013398 0.119383,-1.521758 0.522993,-3.881967 0.89691,-5.244909 0.756571,-2.757723 0.701195,-3.241352 -0.724192,-6.324818 l -0.964241,-2.085891 -0.18976,-1.757957 0.995492,-1.014895 1.226108,-2.580851 -0.396899,3.803347 c -0.118447,1.135036 -0.229198,1.447433 0.713886,3.259511 l 1.055754,2.028566 1.246746,-1.458568 c 0.68571,-0.802212 3.613253,-4.469145 4.493545,-5.186474 1.823673,-1.486069 0.189074,0.910228 -2.917143,5.405347 -0.873925,1.264689 -1.799265,3.052625 -2.056311,3.97319 -0.505219,1.809358 -0.956811,4.158366 -0.798748,4.154782 0.154361,-0.0035 4.869548,-4.296146 6.725839,-6.123118 l 1.682064,-1.655496 0.636297,-4.800938 0.636298,-4.800938 0.353758,4.304289 c 0.388857,4.731345 0.234923,5.595746 -1.37158,7.701981 -0.468017,0.613602 -0.798646,1.154706 -0.734729,1.202453 0.06392,0.04775 1.028578,-0.192836 2.143692,-0.53463 l 2.027481,-0.621442 1.418507,-2.635521 c 0.780179,-1.449537 1.452624,-2.596939 1.494323,-2.549784 0.0417,0.04716 -0.31307,1.602381 -0.788375,3.456059 l -0.86419,3.370321 -4.313109,1.39243 c -1.114878,0.359924 -1.744243,0.451728 -2.572957,2.586569 -1.536598,-1.567149 -3.551851,0.265187 -5.541519,2.744785 -1.080552,1.346624 -1.269562,1.848764 -1.472991,3.913242 -0.128356,1.302611 -0.724022,3.848059 -1.323703,5.65655 -0.59968,1.808492 -0.958938,3.288166 -0.798351,3.288166 0.160588,0 0.847513,-0.351538 1.5265,-0.781197 0.678988,-0.429659 1.92997,-1.173717 2.77996,-1.653463 1.739214,-0.981637 2.275415,-2.146955 2.883383,-6.266419 0.27489,-1.862595 0.56017,-2.532126 1.676093,-3.933667 0.73965,-0.928961 1.344819,-1.590571 1.344819,-1.470243 0,0.120327 -0.372232,1.103161 -0.827183,2.184075 -0.646764,1.536643 -0.809252,2.437031 -0.744973,4.128094 0.04521,1.189537 0.231204,2.158051 0.413309,2.152253 0.182104,-0.0058 1.272732,-0.762418 2.423617,-1.681378 1.497691,-1.195879 2.280004,-2.110356 2.752069,-3.217006 1.926975,-4.517354 3.361068,-7.687247 3.43924,-7.60203 0.04847,0.05284 -0.05344,1.639536 -0.226468,3.525989 -0.173031,1.886452 -0.247586,3.496929 -0.165677,3.578838 0.08191,0.08191 1.373389,-0.08335 2.869955,-0.367246 1.496567,-0.283894 2.890815,-0.509233 3.098329,-0.500754 0.772787,0.03158 -2.691856,1.578136 -5.163464,2.304887 -2.154497,0.633507 -2.660063,0.921116 -3.185959,1.812444 -0.344798,0.584389 -2.530847,2.456386 -4.875191,4.174811 l -4.250101,3.115364 3.367454,0.28276 3.367455,0.28276 2.161367,-1.510903 c 3.569095,-2.494976 3.811479,-2.38231 0.846767,0.3936 l -2.811384,2.632346 -1.308446,2.875819 -0.937611,-2.700011 -0.405696,0.03176 c -1.458464,0.11416 -3.946591,0.373706 -5.529171,0.576769 l -2.877418,0.369205 -1.137052,1.859491 c -1.858757,3.039741 -2.213362,3.905445 -2.212886,5.402365 4.33e-4,1.361421 0.764757,6.308705 1.173728,7.59726 0.183691,0.578758 -0.08337,0.613887 -4.667026,0.613887 h -4.861867 z"
       id="path24"
       sodipodi:nodetypes="ssssssscsssssssssscscssssscssscssscssscsscsssscssscsssssssssssssssssscsssssssscssscsssssssssssccccsscsssssscccsssscssscscsssssssssssssssssssssscccsscccsscsssscs" /><path
       style="fill:#54646a;fill-opacity:0.996078"
       d="m 46.120511,72.372012 c 0,-0.04919 0.311665,-1.203895 0.692589,-2.566018 0.787533,-2.816092 0.718802,-4.29297 -0.37294,-8.013697 -0.610337,-2.080068 -0.976866,-2.684283 -2.682429,-4.421923 -2.150495,-2.190939 -1.744233,-2.045842 -8.729042,-3.117592 -1.880801,-0.28859 -3.355603,-1.124354 -5.098227,-2.156556 -1.557299,-0.922429 -2.313177,-1.36283 -3.339815,-2.410271 l -2.250913,-2.296524 1.867936,1.132621 c 1.027365,0.622942 3.208888,1.790072 4.847829,2.593621 2.538901,1.244787 3.394046,1.494082 5.778438,1.684554 l 2.798547,0.223554 -2.136348,-1.91238 c -1.174992,-1.051809 -3.141238,-2.741656 -4.369436,-3.755215 -1.228198,-1.01356 -2.327811,-2.149036 -2.443583,-2.52328 -0.115772,-0.374245 -0.614836,-1.574413 -1.10903,-2.66704 -0.78356,-1.73239 -3.284576,-8.974444 -3.59618,-10.413257 -0.228219,-1.053787 3.398244,4.861744 4.142211,6.756827 0.425845,1.084741 0.902892,2.100885 1.060105,2.258098 0.296241,0.29624 1.075093,-2.286801 1.820425,-6.037387 0.339083,-1.706304 0.468851,-1.973786 0.642525,-1.324397 0.346957,1.29732 0.262864,3.094435 -0.242113,5.174058 -0.25783,1.061809 -0.540544,2.665135 -0.628252,3.562946 -0.142461,1.458276 -0.06598,1.710997 0.717106,2.36945 0.482117,0.405386 2.03906,1.736547 3.459873,2.958135 1.420813,1.221588 2.651902,2.152463 2.735753,2.068613 0.304893,-0.304893 -0.834297,-5.247688 -1.677206,-7.277178 -0.47571,-1.145377 -0.222387,-1.345672 -0.331327,-1.618829 -0.390197,-0.978374 1.431811,1.481328 2.820409,3.796813 1.210208,2.01802 1.454535,2.740016 1.679823,4.963924 0.144997,1.431335 0.309329,2.62838 0.365181,2.660099 1.277812,0.725699 6.711269,5.516085 6.957041,6.133647 l 0.340065,0.854497 0.432997,-1.158847 c 0.774001,-2.071488 0.344701,-10.599998 -0.611448,-12.14708 -0.123021,-0.199052 -1.305213,-0.622565 -2.627092,-0.941139 -1.32188,-0.318574 -2.924899,-0.85997 -3.562265,-1.203101 l -1.158847,-0.623875 3.310991,0.09064 c 3.149032,0.08621 3.306021,0.05825 3.209363,-0.571558 -0.185006,-1.205475 -1.234643,-2.258944 -3.393884,-3.406275 -2.462062,-1.308238 -5.928794,-3.242509 -6.493672,-3.623159 -0.213021,-0.143547 -0.708023,-1.074649 -1.100005,-2.069117 l -0.712696,-1.808123 0.711043,0.643485 c 0.391073,0.353917 0.955449,1.057232 1.254167,1.562922 0.298719,0.50569 0.697244,0.919554 0.885611,0.919697 0.188368,1.44e-4 1.287081,0.447128 2.441585,0.993298 2.459088,1.163339 2.850756,1.222505 2.304714,0.348151 -0.315778,-0.50564 -0.316383,-1.24214 -0.0028,-3.41095 0.219962,-1.521336 0.417692,-4.248279 0.439399,-6.059874 l 0.03947,-3.293808 0.441726,2.152145 c 0.24295,1.183679 0.448681,3.783693 0.457182,5.777807 l 0.01546,3.625663 2.044334,3.100313 c 1.327125,2.012636 2.123903,2.947671 2.271137,2.665222 0.124741,-0.2393 0.55336,-1.874343 0.952486,-3.633429 0.645506,-2.844967 0.674888,-3.320531 0.265937,-4.30429 -0.615105,-1.479679 -1.682139,-5.895821 -1.474682,-6.103278 0.09077,-0.09077 0.867192,1.508719 1.725382,3.55442 1.729349,4.122316 1.742319,4.32864 0.628661,10.00061 -0.467857,2.382846 -0.463266,2.848825 0.05546,5.628687 0.311047,1.666922 0.680515,3.328757 0.821038,3.692966 l 0.255497,0.662199 0.246755,-0.662199 c 0.135715,-0.364209 0.660623,-1.630663 1.166462,-2.814343 0.638995,-1.49527 0.98736,-3.011135 1.14136,-4.966488 0.121909,-1.547889 0.506727,-3.866809 0.855151,-5.153157 0.835308,-3.083881 0.802915,-3.526817 -0.466423,-6.377729 l -1.079999,-2.425658 0.824786,-1.785114 c 0.453633,-0.981813 0.859095,-1.750805 0.901028,-1.708872 0.04193,0.04193 -0.07609,0.790485 -0.262277,1.66345 -0.308548,1.446687 -0.25518,1.754105 0.602806,3.472332 0.517728,1.036818 0.982236,1.950868 1.032239,2.031222 0.05,0.08035 1.283311,-1.037106 2.740683,-2.483244 3.721202,-3.692517 3.703076,-3.747982 0.347085,1.062035 -1.794592,2.572122 -2.996965,5.864117 -3.005277,8.228194 l -0.0035,0.993297 0.60041,-0.910514 c 0.330225,-0.500783 1.260459,-1.459526 2.067188,-2.13054 0.806728,-0.671014 2.751296,-2.458953 4.321261,-3.973199 1.569965,-1.514245 2.964318,-2.753173 3.098561,-2.753173 0.49356,0 -0.243366,1.859658 -1.344027,3.391697 -0.622861,0.866978 -1.132823,1.613227 -1.133248,1.658332 -4.25e-4,0.0451 1.303278,0.04411 2.897118,-0.0022 2.844616,-0.08268 2.877046,-0.07491 1.764023,0.422192 -0.623627,0.278528 -2.635055,0.965206 -4.469839,1.52595 -3.05141,0.932568 -3.473215,1.164863 -4.944909,2.723251 -2.782686,2.946608 -3.096076,3.501305 -3.345221,5.921022 -0.126326,1.226891 -0.744029,3.817362 -1.372672,5.756601 -0.628643,1.93924 -1.098715,3.570162 -1.044604,3.624273 0.05411,0.05411 1.41794,-0.65924 3.030732,-1.585224 3.402587,-1.953594 3.893034,-2.717991 4.480098,-6.982561 0.307559,-2.234183 0.522672,-2.784474 1.585507,-4.055965 0.676318,-0.809093 1.262177,-1.471079 1.301909,-1.471079 0.03973,0 -0.289809,0.891008 -0.732313,1.980016 -0.587557,1.445989 -0.804552,2.606894 -0.804552,4.30429 0,1.27835 0.0863,2.324273 0.191778,2.324273 0.105477,0 1.211833,-0.782222 2.458568,-1.73827 2.158341,-1.655108 2.340043,-1.904598 3.797899,-5.214813 0.842109,-1.912098 1.750725,-3.923525 2.019146,-4.469839 0.440576,-0.896697 0.474095,-0.912797 0.344651,-0.165549 -0.139153,0.803295 -1.884714,7.347688 -2.364204,8.863786 -0.230881,0.730021 -3.646963,3.53297 -7.52391,6.173487 -1.047102,0.713161 -1.903821,1.395559 -1.903821,1.516441 0,0.120882 1.602804,0.254079 3.561785,0.295995 l 3.561786,0.07621 2.480774,-1.714866 2.480775,-1.714866 -2.335698,2.372284 -2.335698,2.372283 -4.451835,0.479726 c -7.261315,0.782474 -6.796488,0.62953 -8.098325,2.664629 -1.644681,2.57105 -2.1493,3.961988 -2.136194,5.888234 0.01166,1.714378 0.719975,6.174056 1.150493,7.243747 0.215736,0.536031 -0.128998,0.579424 -4.603162,0.579424 -2.659999,0 -4.836362,-0.04024 -4.836362,-0.08943 z"
       id="path23"
       sodipodi:nodetypes="ssssssscssscsssssssssssssssssssscsssscssssscssssssscsscssssssssscssssscsssssssscsssssscssssssssssssssssssssscccccsssssss" /></g></svg>
