<?xml version="1.0" encoding="UTF-8" standalone="no"?>
<!-- Created with Inkscape (http://www.inkscape.org/) -->

<svg
   width="100mm"
   height="100mm"
   viewBox="0 0 100 100"
   version="1.1"
   id="svg1"
   inkscape:version="1.4 (86a8ad7, 2024-10-11)"
   sodipodi:docname="tree1.svg"
   xml:space="preserve"
   xmlns:inkscape="http://www.inkscape.org/namespaces/inkscape"
   xmlns:sodipodi="http://sodipodi.sourceforge.net/DTD/sodipodi-0.dtd"
   xmlns="http://www.w3.org/2000/svg"
   xmlns:svg="http://www.w3.org/2000/svg"><sodipodi:namedview
     id="namedview1"
     pagecolor="#ffffff"
     bordercolor="#000000"
     borderopacity="0.25"
     inkscape:showpageshadow="2"
     inkscape:pageopacity="0.0"
     inkscape:pagecheckerboard="true"
     inkscape:deskcolor="#d1d1d1"
     inkscape:document-units="mm"
     inkscape:zoom="1.4464538"
     inkscape:cx="261.67445"
     inkscape:cy="207.05812"
     inkscape:window-width="1920"
     inkscape:window-height="1009"
     inkscape:window-x="1912"
     inkscape:window-y="-8"
     inkscape:window-maximized="1"
     inkscape:current-layer="layer1" /><defs
     id="defs1" /><g
     inkscape:label="Warstwa 1"
     inkscape:groupmode="layer"
     id="layer1"><path
       style="fill:#9aa3a8;fill-opacity:1"
       d="m 45.377485,78.25922 c 0,-0.306583 0.286455,-3.063528 0.636568,-6.126546 0.350113,-3.063018 0.636568,-6.370111 0.636568,-7.349097 V 63.003604 L 44.0903,60.758477 c -1.408176,-1.23482 -2.813361,-2.311298 -3.122633,-2.392175 -0.621963,-0.162647 -5.916413,1.366121 -6.393823,1.846211 -0.165603,0.166533 -0.502463,1.162155 -0.748576,2.212493 -0.246113,1.050338 -0.519134,1.694863 -0.606712,1.432279 -0.08758,-0.262585 -0.359625,-1.121952 -0.604549,-1.909705 -0.403838,-1.298872 -0.630313,-1.523397 -2.43147,-2.410533 -1.092384,-0.538039 -2.072351,-1.064451 -2.177703,-1.169803 -0.105353,-0.105353 1.157962,-0.111038 2.807367,-0.01263 2.348989,0.140143 3.355529,0.06047 4.644406,-0.367626 0.905019,-0.300599 1.643936,-0.642453 1.642039,-0.759677 -0.0019,-0.117223 -1.094184,-0.62202 -2.427304,-1.12177 -1.894572,-0.710223 -2.479077,-0.819285 -2.676747,-0.499447 -0.164047,0.265433 -0.333978,-0.03035 -0.483694,-0.841927 -0.234706,-1.272287 -0.62451,-2.469012 -1.547925,-4.752242 -0.488271,-1.207295 -0.386938,-1.138654 1.959402,1.327259 2.697142,2.834592 3.426439,3.299349 6.377163,4.063959 1.08071,0.28004 2.210867,0.603539 2.511459,0.718887 0.441212,0.16931 0.38185,-0.08492 -0.30805,-1.319287 -0.47002,-0.840957 -0.854581,-1.584618 -0.854581,-1.652581 0,-0.388847 2.522051,1.632615 2.886481,2.313558 0.518761,0.969313 4.118714,3.789208 4.109138,3.218746 -0.02839,-1.691202 -0.962339,-4.492137 -1.922554,-5.765774 -1.185753,-1.572793 -2.39627,-2.1077 -8.684206,-3.837406 -2.443542,-0.672177 -2.957082,-0.939964 -3.887817,-2.027319 -0.590111,-0.689412 -1.47104,-1.333284 -1.958832,-1.431713 -0.487545,-0.09838 -1.130726,-0.273394 -1.429289,-0.388924 -0.35157,-0.13604 -0.813666,0.06077 -1.311451,0.558555 -0.600772,0.600771 -0.859028,1.376369 -1.182688,3.551868 -0.230621,1.550124 -0.517372,2.597188 -0.647216,2.363285 -0.128225,-0.230987 -0.481078,-1.709027 -0.784118,-3.284534 -0.30304,-1.575507 -0.733372,-3.061158 -0.956293,-3.301448 -0.222921,-0.24029 -1.157224,-0.691438 -2.076228,-1.002552 l -1.670918,-0.565661 2.435453,-0.228221 c 1.339499,-0.125521 3.367337,-0.168882 4.506306,-0.09636 1.13897,0.07252 2.070854,0.01804 2.070854,-0.121068 0,-0.507974 -4.504805,-6.309457 -4.771335,-6.144733 -0.151124,0.0934 -0.445751,0.704928 -0.654725,1.358951 -0.61179,1.9147 -0.789129,1.813482 -1.394148,-0.795725 -0.324774,-1.40062 -0.861226,-2.785793 -1.238335,-3.197502 l -0.665335,-0.72638 2.213521,0.816944 c 3.711682,1.369871 3.87066,1.451746 4.211907,2.169179 0.181719,0.382045 1.01681,1.625608 1.855756,2.763474 l 1.525357,2.068848 0.414789,-1.426878 c 0.372863,-1.282654 0.345103,-1.636282 -0.274639,-3.498609 -0.379186,-1.139452 -1.024282,-2.828895 -1.433547,-3.754316 -0.409265,-0.925422 -0.744119,-1.767652 -0.744119,-1.871624 0,-0.452574 0.941467,0.674042 2.678895,3.205729 l 1.867738,2.721568 -0.3498,3.079411 -0.3498,3.079411 0.929015,1.172977 c 0.510958,0.645137 1.118578,1.3303 1.350266,1.522584 0.317054,0.263132 5.815084,1.658004 6.535189,1.658004 0.06549,0 -0.506071,-0.895174 -1.270147,-1.989276 -2.816453,-4.032961 -3.29852,-5.189085 -3.881899,-9.309813 -0.567443,-4.00816 -1.343275,-6.95409 -1.76308,-6.694636 -0.136524,0.08438 -0.429714,0.801627 -0.651534,1.59389 -0.22182,0.792263 -0.501522,1.440478 -0.621559,1.440478 -0.120038,0 -0.471264,-1.969384 -0.780504,-4.376408 -0.309239,-2.407024 -0.673414,-5.052649 -0.809277,-5.879167 -0.135863,-0.826517 -0.141609,-1.437609 -0.01277,-1.357982 0.12884,0.07963 1.32865,1.788129 2.666245,3.796671 2.308412,3.466328 2.48648,3.864623 3.504344,7.838357 l 1.072354,4.186464 1.24973,-1.865255 c 0.687352,-1.025889 1.560903,-2.380406 1.941224,-3.010036 l 0.691493,-1.144782 -0.990933,-1.829561 c -0.903562,-1.668249 -1.071936,-1.817673 -1.90966,-1.694721 -0.719245,0.105563 -0.889082,0.02574 -0.782194,-0.367641 0.07509,-0.276364 0.229195,-1.21862 0.342448,-2.093902 0.200811,-1.551977 1.349704,-5.504182 1.730992,-5.954636 0.104991,-0.124037 0.118054,0.592103 0.02903,1.591421 -0.170199,1.910511 0.09469,3.621279 0.848087,5.47721 0.581494,1.432471 1.588151,2.759682 1.875331,2.472502 0.122872,-0.122871 0.75492,-2.412378 1.404551,-5.087792 0.649632,-2.675414 1.398349,-5.365687 1.663815,-5.978384 l 0.482667,-1.113994 0.191329,2.068847 c 0.10523,1.137866 0.257546,4.145652 0.338478,6.683968 l 0.14715,4.615121 -0.738947,-2.009622 c -0.406421,-1.105291 -0.816461,-2.087135 -0.911201,-2.181875 -0.09474,-0.09474 -0.272702,0.71559 -0.395472,1.800734 -0.178635,1.578926 -0.779732,3.102702 -3.009569,7.629235 l -2.78635,5.656248 2.114697,2.655344 2.114697,2.655345 0.233441,-2.055305 c 0.128393,-1.130417 0.316059,-2.79384 0.417035,-3.696494 0.151135,-1.351042 0.481552,-2.026279 1.868969,-3.81941 0.926957,-1.198022 2.134419,-2.965975 2.68325,-3.928784 l 0.997873,-1.750563 0.003,3.243628 c 0.0031,3.328984 -0.269085,4.175207 -0.898501,2.793791 -0.196901,-0.432152 -0.468494,-0.784031 -0.603539,-0.781954 -0.135045,0.0021 -0.711027,0.851309 -1.27996,1.887181 -0.739641,1.346686 -1.034424,2.296216 -1.034424,3.332003 v 1.448598 l 1.670992,-0.715148 c 1.553304,-0.66478 1.754691,-0.882907 2.859385,-3.097066 0.994407,-1.993109 1.189237,-2.228805 1.193566,-1.443919 0.009,1.633312 -0.693242,8.275263 -0.918917,8.691217 -0.127408,0.234834 -0.46142,-0.321678 -0.811877,-1.352708 -0.351786,-1.034937 -0.782637,-1.751682 -1.052974,-1.751682 -0.251657,0 -0.944533,0.486975 -1.539724,1.082167 -1.612381,1.612381 -1.50592,2.884523 0.524473,6.267139 0.883652,1.472156 1.723407,2.717852 1.866122,2.768214 0.142715,0.05036 0.452242,-0.379322 0.687838,-0.954853 0.235595,-0.575531 1.830714,-2.491712 3.544709,-4.25818 2.938242,-3.028197 3.116354,-3.288145 3.116354,-4.54823 0,-1.196723 -1.11847,-4.118144 -1.449791,-3.786824 -0.07273,0.07274 -0.391877,0.981789 -0.709205,2.02012 l -0.576959,1.887874 -0.558864,-3.934894 c -0.307374,-2.164191 -0.501301,-3.992455 -0.430948,-4.062808 0.235752,-0.235752 5.317188,5.271009 5.317188,5.762246 0,0.745719 0.609176,0.574964 0.998697,-0.279941 0.363393,-0.797562 0.117474,-1.207953 -5.584223,-9.31894 -1.084798,-1.543188 -1.432767,-2.365114 -1.61342,-3.811016 -0.239312,-1.915383 -0.285757,-1.92378 -1.303539,-0.235695 -0.250033,0.414704 -0.275638,-0.02402 -0.09591,-1.643422 0.134846,-1.215033 0.25253,-2.989743 0.261519,-3.9438 0.0097,-1.029059 0.131632,-1.611656 0.299771,-1.432279 0.155885,0.166304 0.753125,1.877877 1.327201,3.803497 0.574075,1.925619 1.148731,3.623251 1.277012,3.772515 0.128282,0.149263 0.77235,-0.22267 1.431263,-0.826518 1.127852,-1.033599 1.197687,-1.207959 1.192284,-2.976805 -0.0032,-1.033394 -0.313484,-2.990512 -0.689616,-4.349152 -0.376132,-1.358639 -0.683603,-2.576076 -0.683268,-2.705415 3.34e-4,-0.129339 0.750486,0.982275 1.667003,2.470254 l 1.666395,2.705415 0.163131,3.710411 c 0.157594,3.584464 -0.06606,4.620432 -0.49913,2.311974 -0.2524,-1.345407 -0.553141,-1.285432 -1.932665,0.385423 l -1.056801,1.279978 2.922142,3.425972 c 3.359476,3.938708 2.967985,4.053684 4.245842,-1.246947 l 0.767308,-3.182842 2.950765,-2.771163 c 2.903728,-2.726989 3.676234,-3.267721 3.311874,-2.318215 -0.101432,0.264328 -0.559498,2.448554 -1.017923,4.853835 -0.458426,2.40528 -0.879298,4.420157 -0.935273,4.477503 -0.05597,0.05735 -0.28055,-0.6946 -0.499057,-1.670992 -0.218507,-0.976392 -0.498688,-1.775258 -0.622625,-1.775258 -0.123937,0 -0.590468,0.551745 -1.036734,1.226099 -0.606728,0.916827 -0.952827,2.14116 -1.372101,4.853834 -0.614938,3.978611 -1.072264,5.102143 -3.740806,9.190192 -0.968604,1.483844 -1.728795,2.730201 -1.689315,2.769681 0.0613,0.0613 4.673514,-0.645265 6.779355,-1.038555 0.375436,-0.07012 1.436489,-0.997698 2.357896,-2.061292 l 1.675285,-1.933807 -0.388586,-4.007664 -0.388586,-4.007664 2.009243,-2.041981 c 2.054782,-2.088261 3.698501,-3.434527 3.921323,-3.211705 0.126381,0.126381 -0.947029,1.916699 -2.966653,4.94802 -1.05587,1.58479 -1.097377,1.753051 -0.89949,3.646335 0.114104,1.091682 0.324529,2.101945 0.467613,2.245028 0.143084,0.143084 0.888778,-0.495171 1.657099,-1.418345 1.732101,-2.081201 1.898045,-2.188165 4.444472,-2.864794 3.167499,-0.841659 3.251825,-0.669217 0.433356,0.886179 -2.545345,1.40467 -2.638239,1.499868 -5.347329,5.479932 l -2.756984,4.050428 1.662148,0.0981 1.662149,0.0981 2.736624,-2.723945 c 1.505143,-1.49817 2.837666,-2.723945 2.961163,-2.723945 0.123496,0 0.07423,0.393877 -0.109477,0.875282 -0.183709,0.481405 -0.510838,2.164332 -0.726954,3.739839 l -0.392938,2.864558 -0.582018,-1.725585 -0.582017,-1.725585 -0.601435,0.825636 c -1.603787,2.201646 -1.460533,2.134561 -6.313393,2.956526 -2.538316,0.429934 -4.758348,0.784122 -4.933405,0.787085 -0.407238,0.0069 1.960145,2.086809 3.070601,2.697743 0.464896,0.255769 2.248354,0.563279 3.978553,0.685994 2.019645,0.143245 2.852693,0.299436 2.34023,0.438778 -0.437641,0.118997 -1.523777,0.586056 -2.413635,1.037909 -1.571531,0.797993 -1.634404,0.883772 -2.192633,2.991498 -0.31609,1.193471 -0.666884,2.34712 -0.779542,2.563663 -0.112659,0.216543 -0.547047,-0.857667 -0.965307,-2.387132 -1.157393,-4.23228 -1.247287,-4.338055 -2.083211,-2.451251 l -0.700047,1.58011 -0.395365,-1.909705 c -0.447666,-2.162333 -1.079907,-3.341984 -1.791154,-3.341984 -0.949486,0 -1.92338,1.41858 -2.348195,3.420398 -0.230648,1.086866 -0.51571,1.916573 -0.63347,1.843794 -0.11776,-0.07278 -0.553773,-1.215383 -0.968917,-2.539118 -0.415144,-1.323734 -0.908626,-2.404068 -1.096626,-2.400742 -0.188,0.0033 -0.986344,0.412841 -1.774097,0.910034 -1.264683,0.798208 -1.544009,1.197867 -2.387131,3.415507 -0.824664,2.169088 -0.949105,2.902089 -0.912693,5.376079 0.03617,2.457228 1.013658,12.439361 1.581763,16.152923 l 0.182593,1.193566 h -4.643097 c -4.211157,0 -4.643097,-0.05186 -4.643097,-0.557422 z"
       id="path20" /><path
       style="fill:#506067;fill-opacity:1"
       d="M 45.5305,77.304792 C 46.65754,67.56486 46.882031,65.113984 46.741721,64.08134 46.602608,63.057507 46.199859,62.540295 44.1027,60.692305 c -1.36117,-1.199446 -2.769506,-2.274329 -3.129634,-2.388629 -0.389168,-0.123517 -2.123351,0.250627 -4.275064,0.922332 -1.991156,0.621583 -3.860622,1.130151 -4.154369,1.130151 -1.164942,0 -0.412216,-0.67669 2.012189,-1.80893 1.40045,-0.654034 2.546274,-1.286078 2.546274,-1.404542 0,-0.118464 -0.961224,-0.570696 -2.136054,-1.004959 l -2.136053,-0.789571 -1.560982,-2.92311 c -0.858541,-1.607711 -1.48534,-2.998754 -1.392887,-3.091207 0.09245,-0.09245 0.96297,0.795568 1.934484,1.97338 0.971513,1.177811 2.320843,2.472112 2.998511,2.876224 1.267396,0.755784 6.041043,2.212463 6.323798,1.929708 0.08715,-0.08715 0.0036,-0.447759 -0.18562,-0.801356 -0.919044,-1.71725 -0.02643,-1.756076 1.207613,-0.05253 0.872981,1.205114 4.015118,3.823754 4.588169,3.823754 0.1478,0 0.18951,-0.250649 0.09269,-0.556998 -0.09682,-0.306348 -0.300539,-1.225101 -0.452706,-2.041673 -0.293972,-1.577541 -1.497822,-3.886272 -2.498773,-4.79212 -0.52103,-0.471525 -4.810475,-1.906929 -9.219372,-3.085136 -0.840528,-0.224617 -1.692573,-0.774307 -2.335838,-1.506945 -1.228993,-1.399745 -4.236243,-2.429523 -8.668785,-2.968468 -1.609455,-0.195691 -2.991258,-0.420778 -3.070674,-0.500194 -0.07942,-0.07942 1.88467,-0.144392 4.364634,-0.144392 2.479964,0 4.509026,-0.084 4.509026,-0.18667 0,-0.102668 -1.069589,-1.606561 -2.376865,-3.341984 -1.307276,-1.735423 -2.307025,-3.155314 -2.221665,-3.155314 0.44898,0 2.705389,1.707 3.935115,2.976961 0.772988,0.798278 1.512471,1.385261 1.643297,1.304406 0.305739,-0.188957 0.628531,-2.126245 0.662857,-3.978242 0.0199,-1.073734 -0.243135,-1.936579 -1.018797,-3.341984 -1.249054,-2.263137 -0.943555,-2.011886 1.094501,0.900147 l 1.510415,2.158124 -0.341292,2.199681 c -0.535995,3.454569 -0.464277,3.938675 0.810233,5.469185 0.633339,0.760552 1.422622,1.486193 1.753961,1.612535 0.917871,0.349992 5.711267,1.28558 5.854206,1.14264 0.06916,-0.06916 -0.698137,-1.355788 -1.705099,-2.85918 -2.436779,-3.638106 -2.760787,-4.509672 -3.411101,-9.175694 -0.456704,-3.27687 -0.883031,-4.841228 -2.41728,-8.869936 -1.024529,-2.690261 -1.862781,-4.961775 -1.862781,-5.047809 0,-0.08603 0.859814,1.152997 1.910697,2.753404 1.14203,1.739216 2.042167,3.513843 2.237498,4.411241 0.544603,2.502047 2.337553,8.344521 2.560783,8.344521 0.11504,0 1.10806,-1.363212 2.206711,-3.02936 l 1.997548,-3.029359 -0.602785,-1.339067 C 41.351901,28.668854 40.751621,27.580863 40.349476,26.987583 39.66495,25.977708 39.642584,25.794452 39.998888,24.115044 l 0.380584,-1.793847 0.372202,1.61602 c 0.379626,1.648251 2.033842,4.484517 2.546245,4.365711 0.155775,-0.03612 0.746218,-1.898081 1.312097,-4.137695 l 1.028871,-4.072026 0.02604,2.546274 c 0.04749,4.643898 -0.379224,6.184868 -3.331943,12.032601 -1.485388,2.941747 -2.600588,5.519849 -2.47822,5.729115 0.370538,0.633676 4.06411,5.287176 4.137936,5.213351 0.03782,-0.03782 0.2371,-1.641987 0.442843,-3.564812 0.418994,-3.915832 0.462129,-4.029947 2.442191,-6.460929 0.781496,-0.959467 1.574387,-2.081349 1.76198,-2.493071 0.187594,-0.411723 0.439308,-0.748587 0.559365,-0.748587 0.361871,0 -0.737007,2.901755 -1.836293,4.849012 -0.782119,1.385433 -1.030445,2.209989 -1.030445,3.421556 0,0.877933 0.08087,1.596242 0.179709,1.596242 0.09884,0 0.894552,-0.307517 1.768249,-0.683371 1.265739,-0.544506 1.748527,-0.981077 2.375859,-2.148419 0.433026,-0.805775 0.722217,-1.178591 0.642645,-0.828478 -0.07957,0.350112 -0.237932,1.100103 -0.351914,1.666647 -0.132277,0.657481 -0.572606,1.280175 -1.217328,1.721494 -0.555549,0.380279 -1.475579,1.12647 -2.044512,1.658203 -0.977971,0.914025 -1.03441,1.089313 -1.034173,3.211911 2.05e-4,1.826449 0.175822,2.616245 0.941739,4.235248 0.624083,1.319192 1.225719,2.11963 1.784579,2.374263 0.814459,0.371093 0.958989,0.265672 4.255707,-3.104119 3.65972,-3.74084 3.839387,-4.085408 3.839387,-7.36326 0,-1.865268 -0.279525,-2.551564 -2.440432,-5.991808 l -1.399459,-2.22799 2.554716,2.642844 c 1.405094,1.453564 2.642666,2.993264 2.750161,3.421555 0.249717,0.994951 0.555709,0.983347 1.230602,-0.04667 0.535987,-0.81802 0.523131,-0.851372 -1.441525,-3.739839 -1.090285,-1.602953 -2.739929,-3.92335 -3.665877,-5.15644 -1.553249,-2.068469 -1.719967,-2.462591 -2.154205,-5.092547 -0.258865,-1.567811 -0.550325,-3.63832 -0.647688,-4.60113 -0.160592,-1.588055 -0.07303,-1.425548 0.943199,1.750564 0.616124,1.925619 1.183057,3.68808 1.259852,3.91658 0.09732,0.289566 0.517486,0.111798 1.386637,-0.586671 1.317533,-1.058798 1.612621,-1.691571 1.619673,-3.473137 0.0062,-1.567651 0.533069,-0.827124 0.781253,1.09808 0.196083,1.521043 0.14778,1.660384 -1.092255,3.150837 -0.713575,0.857679 -1.256802,1.656027 -1.20717,1.774107 0.293253,0.697688 5.556521,6.638435 5.819354,6.568414 0.175057,-0.04664 0.747968,-1.803595 1.273137,-3.90435 l 0.954853,-3.819555 2.227989,-2.029489 c 1.225394,-1.116219 2.574543,-2.322415 2.998108,-2.680437 0.758715,-0.641308 0.763428,-0.64145 0.318284,-0.0096 -0.248509,0.352761 -1.30417,1.78052 -2.345914,3.172797 l -1.894079,2.531412 -0.720574,4.986874 c -0.773221,5.351234 -0.991482,5.906433 -4.241097,10.788285 -1.784665,2.681078 -1.788313,2.689172 -1.089622,2.418061 0.737081,-0.286007 3.145131,-0.708687 5.602833,-0.983452 1.770462,-0.197934 1.84929,-0.249821 3.540309,-2.330375 l 1.729527,-2.127934 -0.240353,-2.068847 c -0.726988,-6.257586 -0.79358,-5.569914 0.695839,-7.185742 2.02278,-2.194458 2.775881,-2.396034 1.211733,-0.324334 -1.041333,1.379236 -1.305318,1.972437 -1.181031,2.653896 0.439634,2.410492 0.939475,4.710353 1.047826,4.821245 0.06675,0.06831 0.69847,-0.397177 1.403826,-1.034424 1.201465,-1.085451 2.235484,-1.498269 2.235484,-0.892486 0,0.14638 -0.82356,1.439943 -1.830134,2.874586 -2.364148,3.369556 -3.262413,4.789397 -3.262413,5.156729 0,0.482789 2.203861,0.33753 3.385371,-0.223133 0.601944,-0.285641 1.87619,-1.395658 2.831658,-2.466703 1.846512,-2.069874 2.256395,-2.293432 0.944366,-0.515076 -0.437641,0.593188 -0.796098,1.301347 -0.796572,1.573686 -4.73e-4,0.272338 -0.537578,1.105482 -1.193565,1.85143 -1.186668,1.349403 -1.211796,1.359473 -4.964173,1.989276 -2.074308,0.348154 -4.186919,0.633008 -4.694692,0.633008 -1.156935,0 -1.171677,0.445358 -0.04794,1.448286 1.880367,1.678219 2.814592,2.062776 5.517582,2.271216 3.040658,0.234479 2.63305,0.584236 -1.072163,0.919994 l -2.339717,0.212019 -2.365774,-1.428573 c -1.301175,-0.785716 -2.852717,-1.677237 -3.447872,-1.981159 l -1.082098,-0.552586 -3.009084,1.544678 c -1.716162,0.880971 -3.120363,1.818193 -3.268071,2.181245 -2.255239,5.543191 -2.296187,6.144563 -1.105295,16.232495 0.433977,3.676182 0.790126,7.149459 0.791441,7.718392 l 0.0024,1.034423 h -4.466941 -4.466942 z"
       id="path19" /></g></svg>
