<?xml version="1.0" encoding="UTF-8" standalone="no"?>
<!-- Created with Inkscape (http://www.inkscape.org/) -->

<svg
   width="100mm"
   height="100mm"
   viewBox="0 0 100 100"
   version="1.1"
   id="svg1"
   inkscape:version="1.4 (86a8ad7, 2024-10-11)"
   sodipodi:docname="boulder4.svg"
   xml:space="preserve"
   xmlns:inkscape="http://www.inkscape.org/namespaces/inkscape"
   xmlns:sodipodi="http://sodipodi.sourceforge.net/DTD/sodipodi-0.dtd"
   xmlns="http://www.w3.org/2000/svg"
   xmlns:svg="http://www.w3.org/2000/svg"><sodipodi:namedview
     id="namedview1"
     pagecolor="#ffffff"
     bordercolor="#000000"
     borderopacity="0.25"
     inkscape:showpageshadow="2"
     inkscape:pageopacity="0.0"
     inkscape:pagecheckerboard="true"
     inkscape:deskcolor="#d1d1d1"
     inkscape:document-units="mm"
     inkscape:zoom="1.7606015"
     inkscape:cx="176.36018"
     inkscape:cy="160.45653"
     inkscape:window-width="1920"
     inkscape:window-height="1009"
     inkscape:window-x="1912"
     inkscape:window-y="-8"
     inkscape:window-maximized="1"
     inkscape:current-layer="layer1"
     showguides="false" /><defs
     id="defs1" /><g
     inkscape:label="Warstwa 1"
     inkscape:groupmode="layer"
     id="layer1"
     style="display:inline"><path
       style="fill:#ff9000;fill-opacity:1;stroke-width:1"
       d="m 21.339378,67.14097 c 1.206949,-0.185574 1.558793,1.030974 3.039398,0.412001 -0.389466,1.100221 0.05958,2.683019 0.60391,3.491542 0.387169,0.575085 1.409585,0.946072 1.907527,1.479375 0.736421,0.78872 1.008409,1.686685 1.934905,2.125823 1.740456,0.824938 3.735585,0.833524 5.656194,0.688702 0.766391,-0.05779 1.484057,-0.424945 2.318273,-0.942816 0.501882,0.866883 1.910942,1.296314 3.157815,2.288043 0.856024,0.680858 1.46707,1.991905 2.331001,2.428199 1.765715,0.891704 3.769248,1.266234 5.7252,1.56142 1.738323,0.262342 3.599376,-0.552144 5.359768,-0.509169 2.150618,0.0525 4.203333,0.926834 6.350865,0.899522 2.954205,-0.03757 3.716279,0.52486 6.593836,-0.144772 0.719121,-0.167346 2.070886,-1.32343 2.855198,-1.47805 1.115346,-0.21988 3.875042,0.11767 4.396623,-0.793578 0.326048,-0.569637 1.337959,-1.583374 0.475602,-2.663715 3.163496,-0.04392 2.872029,-1.052012 4.583986,-1.863504 1.717779,-0.814252 2.388282,-2.035043 4.776259,-2.424888 1.180838,-1.289403 2.552029,-2.806449 2.602365,-4.554135 0.310865,-10.793386 -8.96293,-19.69018 -14.426321,-29.003889 -0.563838,-0.961202 -1.057385,-2.01526 -1.886151,-2.760223 -0.867412,-0.779702 -1.9836,-1.264593 -3.082251,-1.656133 -0.985842,-0.351337 -2.038232,-0.524863 -3.082247,-0.598049 -0.888414,-0.06228 -1.389808,-0.27834 -2.668217,0.13801 -0.204069,-1.68842 -0.693099,-5.337936 -1.288103,-7.958642 -0.54146,-2.38487 -1.230122,-4.741809 -2.070169,-7.038569 -0.535361,-1.463721 -1.108182,-2.927844 -1.886151,-4.278345 -0.454714,-0.789352 -0.758649,-1.884418 -1.61013,-2.208179 -0.674737,-0.256557 -1.448773,0.184957 -2.116172,0.460038 -0.975368,0.402016 -1.814309,1.082616 -2.668214,1.702137 -1.525666,1.106893 -3.036029,2.256957 -4.370353,3.58829 -1.927794,1.923471 -3.717151,4.017345 -5.19842,6.302509 -1.20113,1.852991 -1.988266,3.943901 -2.944238,5.93448 -0.929632,1.935732 -1.921049,3.846938 -2.71422,5.842471 -0.286581,0.721008 -0.412692,1.49146 -0.48304,2.415195 -0.391545,-0.271141 -0.986173,-0.675445 -1.403111,-0.75906 -0.873208,-0.175119 -1.85669,-0.228845 -2.668217,0.13801 -0.820142,0.37075 -1.422495,1.160722 -1.886151,1.932156 -2.155996,3.587158 -2.821826,7.896112 -3.81831,11.960966 -0.81154,3.31043 -1.265743,6.700673 -1.748141,10.074815 -0.274027,1.91669 -1.608862,4.08971 -0.650398,5.772012 z"
       id="path4"
       sodipodi:nodetypes="ccsssscsssssssscscssssscsssssssssscsssssc" /></g></svg>
