<?xml version="1.0" encoding="UTF-8" standalone="no"?>
<!-- Created with Inkscape (http://www.inkscape.org/) -->

<svg
   width="100mm"
   height="100mm"
   viewBox="0 0 100 100"
   version="1.1"
   id="svg1"
   inkscape:version="1.4 (86a8ad7, 2024-10-11)"
   sodipodi:docname="boulder1.svg"
   xml:space="preserve"
   xmlns:inkscape="http://www.inkscape.org/namespaces/inkscape"
   xmlns:sodipodi="http://sodipodi.sourceforge.net/DTD/sodipodi-0.dtd"
   xmlns="http://www.w3.org/2000/svg"
   xmlns:svg="http://www.w3.org/2000/svg"><sodipodi:namedview
     id="namedview1"
     pagecolor="#ffffff"
     bordercolor="#000000"
     borderopacity="0.25"
     inkscape:showpageshadow="2"
     inkscape:pageopacity="0.0"
     inkscape:pagecheckerboard="true"
     inkscape:deskcolor="#d1d1d1"
     inkscape:document-units="mm"
     inkscape:zoom="2.0334082"
     inkscape:cx="286.95665"
     inkscape:cy="196.46818"
     inkscape:window-width="1920"
     inkscape:window-height="1009"
     inkscape:window-x="1912"
     inkscape:window-y="-8"
     inkscape:window-maximized="1"
     inkscape:current-layer="layer1"
     showguides="false" /><defs
     id="defs1" /><g
     inkscape:label="Warstwa 1"
     inkscape:groupmode="layer"
     id="layer1"><path
       style="fill:#ff9000;fill-opacity:1;stroke-width:1.1947"
       d="m 13.429473,59.480602 c 0,0 -1.506002,-5.306381 -0.98929,-7.914324 0.24555,-1.239339 0.997862,-2.382231 1.86866,-3.297636 1.555314,-1.634985 3.919524,-2.261677 5.715901,-3.627402 2.436878,-1.852676 4.159818,-4.632373 6.815114,-6.155587 2.734017,-1.568372 6.068079,-1.735939 9.013538,-2.85795 3.938969,-1.500469 7.58411,-3.715718 11.541726,-5.166293 1.360959,-0.498829 2.750372,-0.952689 4.177003,-1.209134 0.976354,-0.175505 1.979201,-0.301044 2.967874,-0.219842 1.23998,0.101848 2.428437,0.54708 3.627398,0.879368 2.367575,0.656164 4.806741,1.163525 7.034957,2.198425 0.86656,0.402475 1.735502,0.870504 2.418266,1.538895 0.660824,0.646913 1.104773,1.491816 1.538895,2.308346 0.725081,1.363786 0.902804,3.001224 1.75874,4.286926 0.804028,1.207728 1.951416,2.163276 3.077794,3.077794 1.664719,1.351604 3.75254,2.128418 5.386136,3.517478 0.869361,0.739225 1.599234,1.634093 2.308346,2.528185 0.966243,1.218299 1.918747,2.468695 2.638109,3.847244 0.960229,1.840136 1.825974,3.783906 2.198423,5.825822 0.131495,0.720914 0,2.198423 0,2.198423 -0.204579,-1.091083 -3.415298,0.428677 -6.855122,2.048497 -2.258022,1.063307 -4.3208,-0.193657 -6.775105,0.259849 -2.451131,0.45292 -4.388173,2.509348 -6.815114,3.077793 -4.962017,1.162217 -10.338512,1.800002 -15.279045,0.549605 -2.101718,-0.531923 -3.499068,-2.786683 -5.605982,-3.297636 -5.099942,-1.236799 -10.574404,1.916191 -15.718729,0.87937 -2.918253,-0.588163 -5.965673,-1.766576 -8.027482,-3.913917 -1.012027,-1.05401 -4.022495,-1.933516 -8.021011,-1.362299 z"
       id="path1"
       sodipodi:nodetypes="csssssssssssssssssscsssssssc" /></g></svg>
