<?xml version="1.0" encoding="UTF-8" standalone="no"?>
<!-- Created with Inkscape (http://www.inkscape.org/) -->

<svg
   width="100mm"
   height="100mm"
   viewBox="0 0 100 100"
   version="1.1"
   id="svg1"
   inkscape:version="1.4 (86a8ad7, 2024-10-11)"
   sodipodi:docname="boulder2.svg"
   xml:space="preserve"
   xmlns:inkscape="http://www.inkscape.org/namespaces/inkscape"
   xmlns:sodipodi="http://sodipodi.sourceforge.net/DTD/sodipodi-0.dtd"
   xmlns="http://www.w3.org/2000/svg"
   xmlns:svg="http://www.w3.org/2000/svg"><sodipodi:namedview
     id="namedview1"
     pagecolor="#ffffff"
     bordercolor="#000000"
     borderopacity="0.25"
     inkscape:showpageshadow="2"
     inkscape:pageopacity="0.0"
     inkscape:pagecheckerboard="true"
     inkscape:deskcolor="#d1d1d1"
     inkscape:document-units="mm"
     inkscape:zoom="1.4378367"
     inkscape:cx="270.19758"
     inkscape:cy="114.40798"
     inkscape:window-width="1920"
     inkscape:window-height="1009"
     inkscape:window-x="1912"
     inkscape:window-y="-8"
     inkscape:window-maximized="1"
     inkscape:current-layer="layer1"
     showguides="false" /><defs
     id="defs1" /><g
     inkscape:label="Warstwa 1"
     inkscape:groupmode="layer"
     id="layer1"><path
       style="fill:#ff9000;fill-opacity:1;stroke-width:1"
       d="m 17.435833,65.969906 c -2.051966,-2.243153 -1.959674,-5.818409 -2.212009,-8.848034 -0.137226,-1.647587 -0.04604,-3.349832 0.390355,-4.944491 0.624643,-2.282571 1.825993,-4.396266 3.122836,-6.375789 0.623889,-0.952315 1.621615,-1.628929 2.212008,-2.602365 1.553752,-2.561817 1.957913,-5.69204 3.383072,-8.327562 0.652399,-1.20647 1.449876,-2.3414 2.342128,-3.383071 0.778359,-0.908705 1.63842,-1.763442 2.602363,-2.472245 2.800015,-2.058895 6.17716,-3.207062 9.10827,-5.074608 2.121893,-1.351956 3.890785,-3.24902 6.115553,-4.424018 1.019048,-0.538204 2.121689,-0.951152 3.252954,-1.171063 1.107788,-0.215347 2.258751,-0.227417 3.383073,-0.130118 1.237381,0.107084 2.424578,0.541389 3.643308,0.780709 1.210529,0.237709 2.415892,0.52676 3.643309,0.650591 1.769826,0.178553 3.556166,0.10843 5.334844,0.130118 0.91076,0.0111 1.842736,-0.194829 2.732482,0 2.331827,0.510604 4.469065,1.747968 6.505908,2.992718 0.658927,0.402682 1.299838,0.862049 1.821654,1.431299 0.910441,0.993201 1.425119,2.289383 2.212009,3.383072 1.226391,1.704547 2.777516,3.172041 3.903544,4.94449 0.988119,1.55537 1.794613,3.230907 2.472245,4.944491 0.782191,1.97799 1.093887,4.116898 1.821654,6.115553 0.485204,1.332506 1.331975,2.531791 1.691536,3.903546 0.530723,2.024754 0.542014,4.155333 0.650592,6.245669 0.06975,1.342744 0.281219,2.718847 0,4.033663 -0.288299,1.34792 -1.008844,4.091468 -1.821654,5.204727 -4.639449,-0.327178 -5.571835,1.366442 -7.156499,1.951773 -3.499936,1.292779 -4.773342,1.753511 -8.457682,2.342127 -2.953067,0.471787 -5.470084,2.86057 -8.457679,2.992718 -1.565899,0.06926 -2.079514,-0.934237 -4.554135,-1.171064 -2.999063,-0.287018 -5.318596,-2.449668 -8.197445,-1.561418 -2.854883,0.880855 -5.043791,3.419203 -7.937209,4.163782 -4.075275,1.048713 -6.175996,0.73548 -10.149216,-0.650591 -1.861417,-0.649362 -1.665345,-2.54574 -3.383071,-3.513191 -1.96004,-1.103926 -6.418853,-2.243722 -10.019098,-1.561418 z"
       id="path2"
       sodipodi:nodetypes="csssssssssssssssssssssssscssssssssc" /></g></svg>
