<?xml version="1.0" encoding="UTF-8" standalone="no"?>
<!-- Created with Inkscape (http://www.inkscape.org/) -->

<svg
   width="100mm"
   height="100mm"
   viewBox="0 0 100 100"
   version="1.1"
   id="svg1"
   inkscape:version="1.4 (86a8ad7, 2024-10-11)"
   sodipodi:docname="boulder3.svg"
   xml:space="preserve"
   xmlns:inkscape="http://www.inkscape.org/namespaces/inkscape"
   xmlns:sodipodi="http://sodipodi.sourceforge.net/DTD/sodipodi-0.dtd"
   xmlns="http://www.w3.org/2000/svg"
   xmlns:svg="http://www.w3.org/2000/svg"><sodipodi:namedview
     id="namedview1"
     pagecolor="#ffffff"
     bordercolor="#000000"
     borderopacity="0.25"
     inkscape:showpageshadow="2"
     inkscape:pageopacity="0.0"
     inkscape:pagecheckerboard="true"
     inkscape:deskcolor="#d1d1d1"
     inkscape:document-units="mm"
     inkscape:zoom="2.0334082"
     inkscape:cx="233.84385"
     inkscape:cy="157.12536"
     inkscape:window-width="1920"
     inkscape:window-height="1009"
     inkscape:window-x="1912"
     inkscape:window-y="-8"
     inkscape:window-maximized="1"
     inkscape:current-layer="layer1"
     showguides="false" /><defs
     id="defs1" /><g
     inkscape:label="Warstwa 1"
     inkscape:groupmode="layer"
     id="layer1"
     style="display:inline"><path
       style="fill:#ff9000;fill-opacity:1;stroke-width:1"
       d="m 27.845287,65.579553 c -0.838925,-1.927467 -1.979045,-3.784789 -2.342128,-5.855319 -0.112434,-0.641168 0.02284,-1.30219 0.06506,-1.951771 0.0438,-0.673996 0.09347,-1.349114 0.195177,-2.016831 0.303569,-1.993029 0.714637,-3.972977 1.236122,-5.920378 0.413328,-1.543505 1.254986,-2.974582 1.496359,-4.554135 0.461946,-3.022992 -0.598547,-6.151335 -0.130117,-9.173329 0.04202,-0.271077 0.159232,-0.525669 0.260236,-0.780711 0.228657,-0.577373 0.497265,-1.138991 0.780709,-1.691534 0.682624,-1.3307 1.929541,-2.43489 2.212009,-3.903546 0.09094,-0.47285 0.01879,-0.999937 -0.195177,-1.431301 -0.149911,-0.302223 -0.592132,-0.401712 -0.715651,-0.715647 -0.889859,-2.261658 -0.07973,-4.880091 0.260236,-7.286618 0.05003,-0.354145 0.101499,-0.720441 0.260237,-1.040946 0.123259,-0.248869 0.321427,-0.456916 0.520472,-0.65059 1.597814,-1.554703 3.653499,-2.569699 5.334844,-4.033663 0.32382,-0.281953 0.570229,-0.64939 0.910828,-0.910827 0.894051,-0.686257 1.910624,-1.205825 2.92766,-1.691536 0.272568,-0.130171 0.543732,-0.328835 0.845767,-0.325296 0.398671,0.0047 0.752115,0.271774 1.106003,0.455414 2.258788,1.172129 4.282659,2.750308 6.44085,4.098722 1.618159,1.011008 3.181433,2.12244 4.87943,2.992717 0.64875,0.332505 1.399906,0.457386 2.016831,0.845768 0.662977,0.417374 1.232875,0.978789 1.756595,1.561418 0.623562,0.693702 1.141063,1.480561 1.626479,2.277068 0.469409,0.770241 0.576531,1.791918 1.236123,2.407186 0.241543,0.225312 0.683644,0.150568 0.910825,0.390354 1.778917,1.877617 1.543001,4.95731 2.667423,7.286617 0.198877,0.411985 0.460451,0.791386 0.715651,1.171065 0.285514,0.424779 0.65172,0.794738 0.910825,1.236122 0.397966,0.677934 0.702328,1.409971 0.975887,2.146949 0.699725,1.885083 0.69889,4.041599 1.691536,5.790258 0.204535,0.360312 0.664408,0.538313 0.845768,0.910828 0.422935,0.868716 0.238575,1.921045 0.455414,2.862598 0.401841,1.744863 1.113202,3.406138 1.561417,5.139669 0.38863,1.503078 0.562519,3.057671 0.975886,4.554135 0.591619,2.14177 1.477885,4.191877 2.146951,6.310731 0.163251,0.516996 0.378741,1.024707 0.455414,1.561417 0.141078,0.987547 -0.105095,2.000697 0,2.992718 0.130846,1.235094 1.132472,2.452156 0.780709,3.643307 -0.763686,0.49828 -1.106409,1.346417 -1.821654,1.821656 -0.955957,0.635179 -2.063615,1.070313 -3.187895,1.301182 -1.211043,0.248686 -2.487889,-0.132168 -3.708369,0.06506 -1.79437,0.289968 -3.414509,1.311889 -5.204727,1.626476 -0.680972,0.119664 -4.077342,0.07733 -7.228631,-0.02951 -0.698214,-0.02367 -4.444969,-3.649673 -7.095,-5.284958 -1.041561,-0.642728 -1.719216,-0.0444 -2.269251,-0.207686 -2.049261,-0.608344 -1.382462,0.707563 -2.980403,0.120239 -1.725874,-0.634346 -1.573861,0.627997 -3.155078,0.24859 -4.225501,-1.013894 -3.62727,-0.304435 -6.088859,-0.369679 -1.328047,-0.0352 -2.178601,-1.755941 -3.32294,-1.756912 0,0 -1.346078,-2.696707 -2.015853,-4.235543 z"
       id="path3"
       sodipodi:nodetypes="ssssssssssssssssssssssssssssssssssssssscsssssssssscs" /></g></svg>
