<?xml version="1.0" encoding="UTF-8" standalone="no"?>
<!-- Created with Inkscape (http://www.inkscape.org/) -->

<svg
   width="100mm"
   height="100mm"
   viewBox="0 0 100 100"
   version="1.1"
   id="svg1"
   inkscape:version="1.4 (86a8ad7, 2024-10-11)"
   sodipodi:docname="bush1.svg"
   xml:space="preserve"
   xmlns:inkscape="http://www.inkscape.org/namespaces/inkscape"
   xmlns:sodipodi="http://sodipodi.sourceforge.net/DTD/sodipodi-0.dtd"
   xmlns="http://www.w3.org/2000/svg"
   xmlns:svg="http://www.w3.org/2000/svg"><sodipodi:namedview
     id="namedview1"
     pagecolor="#ffffff"
     bordercolor="#000000"
     borderopacity="0.25"
     inkscape:showpageshadow="2"
     inkscape:pageopacity="0.0"
     inkscape:pagecheckerboard="true"
     inkscape:deskcolor="#d1d1d1"
     inkscape:document-units="mm"
     inkscape:zoom="1.0227973"
     inkscape:cx="284.025"
     inkscape:cy="241.98343"
     inkscape:window-width="1920"
     inkscape:window-height="1009"
     inkscape:window-x="1912"
     inkscape:window-y="-8"
     inkscape:window-maximized="1"
     inkscape:current-layer="layer1" /><defs
     id="defs1" /><g
     inkscape:label="Warstwa 1"
     inkscape:groupmode="layer"
     id="layer1"><path
       style="fill:#617463;fill-opacity:1"
       d="m 50.670557,78.179501 c 0,-0.176208 -0.23785,-0.298012 -0.58194,-0.298012 -0.32007,0 -0.50334,0.08414 -0.40727,0.186977 0.21643,0.23167 -0.23603,0.230828 -1.69578,-0.0032 -0.62179,-0.09967 -1.89363,-0.224271 -2.82632,-0.276903 -0.93268,-0.05263 -2.3159,-0.200465 -3.07383,-0.328519 l -1.37804,-0.232825 -1.03454,-1.589309 c -2.39168,-3.674193 -6.18568,-7.23243 -11.11467,-10.423997 -1.62791,-1.054085 -2.8705,-1.916519 -2.76131,-1.916519 0.33894,0 5.16258,2.052902 6.50267,2.767485 0.69952,0.373004 2.13034,1.220885 3.1796,1.88418 1.04927,0.663294 1.90776,1.13608 1.90776,1.050634 0,-0.324706 -2.94871,-3.787021 -4.92022,-5.777214 -1.92341,-1.941641 -4.64644,-4.333867 -7.146,-6.277866 l -1.07613,-0.836943 1.27184,0.605973 c 4.02299,1.916767 8.36904,4.883891 12.51911,8.547015 1.3981,1.234051 2.4477,2.03338 2.33245,1.776286 -0.75937,-1.693931 -5.15202,-9.123807 -7.24062,-12.247028 -1.37541,-2.056752 -2.25217,-3.5292 -1.94834,-3.272106 1.11373,0.942413 4.18915,4.080352 6.19385,6.319748 1.13229,1.264853 2.09802,2.273722 2.14608,2.241932 0.048,-0.03179 -0.35091,-0.889992 -0.88658,-1.907116 -0.53567,-1.017124 -0.90357,-1.996016 -0.81755,-2.175315 0.14917,-0.310922 -0.93315,-1.823908 -3.37143,-4.712971 -0.58584,-0.694154 -0.95663,-1.262099 -0.82397,-1.262099 0.51559,0 4.91161,2.864524 6.30696,4.109724 0.80899,0.721944 1.50542,1.312625 1.54762,1.312625 0.11756,0 -0.65436,-2.151899 -1.40849,-3.926528 -0.72991,-1.71761 -1.49572,-3.209812 -2.25502,-4.393972 l -0.47957,-0.74791 0.90467,0.560932 c 1.89136,1.17273 4.55793,4.048667 5.54388,5.979175 l 0.38407,0.752016 -0.12829,-0.654421 c -0.12126,-0.618636 -0.0836,-0.598187 0.68904,0.373955 0.44953,0.565607 1.48941,2.055379 2.31086,3.310604 0.82145,1.255225 1.51639,2.264903 1.54431,2.24373 0.21642,-0.164109 -1.85651,-10.941243 -2.75322,-14.313954 -0.31028,-1.167054 -0.50712,-2.159651 -0.4374,-2.205771 0.18926,-0.125206 2.01883,2.847629 2.97386,4.832163 0.9047,1.879939 1.73064,4.747616 1.7625,6.119432 0.0109,0.470357 0.12917,1.023475 0.26277,1.22915 0.15474,0.23822 0.25117,-0.440457 0.26568,-1.869775 0.0311,-3.067179 0.47136,-6.234668 1.29691,-9.331549 0.38125,-1.430196 0.74199,-2.63265 0.80165,-2.672118 0.0597,-0.03947 0.046,2.77142 -0.0303,6.246419 -0.14095,6.41573 0.0329,7.438915 0.75596,4.448405 0.66659,-2.757046 2.18977,-5.709083 4.12938,-8.003025 0.41756,-0.493834 0.81997,-0.857667 0.89427,-0.808519 0.0743,0.04915 -0.0687,0.553133 -0.31781,1.119968 -0.81691,1.859035 -1.58768,4.648171 -2.15139,7.785065 -0.76931,4.280985 -0.70488,4.839978 0.26939,2.337219 1.0283,-2.641558 2.237,-4.6915 3.80351,-6.450725 1.27189,-1.428357 3.49778,-3.222766 3.13117,-2.524197 -1.86477,3.553258 -2.51343,5.064324 -3.12232,7.273417 -0.39966,1.450016 -0.96907,3.303744 -1.26535,4.119396 -0.29628,0.815651 -0.49514,1.51182 -0.4419,1.547041 0.0532,0.03522 0.38187,-0.46385 0.7303,-1.109048 0.7667,-1.419748 2.30739,-3.33567 3.49943,-4.351704 1.04055,-0.886908 5.61311,-4.393972 5.72893,-4.393972 0.23743,0 -1.18799,2.273591 -2.81341,4.48746 -1.01929,1.388308 -2.30994,3.529578 -2.86811,4.758377 -0.91465,2.013577 -1.34542,3.281657 -1.11479,3.281657 0.0464,0 0.37125,-0.379955 0.72182,-0.844345 0.9133,-1.209793 4.72532,-4.493334 6.61726,-5.699868 1.83417,-1.169702 1.86584,-1.227149 -1.45963,2.647545 -1.29388,1.507569 -2.8781,3.526927 -3.52049,4.487461 -1.10496,1.652183 -3.08279,5.082119 -3.08279,5.346159 0,0.06715 0.7759,-0.711265 1.72421,-1.729817 2.61258,-2.806101 5.22221,-5.036128 8.32769,-7.116337 3.17128,-2.124289 6.34071,-3.956026 6.34071,-3.664547 0,0.106944 -0.11909,0.243137 -0.26465,0.302651 -0.76112,0.311195 -9.06218,8.861602 -9.06218,9.334386 0,0.0542 1.17646,-0.709439 2.61434,-1.696976 2.31834,-1.592229 7.51069,-4.54493 7.99231,-4.54493 0.0994,0 -0.53942,0.525874 -1.41966,1.16861 -1.9613,1.432121 -5.23083,4.241788 -7.12575,6.123513 -1.46166,1.451493 -3.8503,4.300484 -3.60559,4.300484 0.0765,0 0.8687,-0.393617 1.76032,-0.874703 0.89163,-0.481087 2.38424,-1.201969 3.31692,-1.601959 1.83522,-0.787053 5.78088,-2.08177 5.96765,-1.958209 0.0632,0.04184 -0.68107,0.488858 -1.65403,0.993373 -5.6577,2.93372 -9.03676,5.76682 -13.00781,10.906122 -0.26108,0.33788 -0.88858,0.563112 -2.46974,0.886477 -1.16585,0.23843 -2.59667,0.475556 -3.1796,0.526948 l -1.05987,0.09344 -0.0223,-1.073404 -0.0223,-1.073404 -0.57259,1.087204 c -0.62903,1.194373 -0.87252,1.307944 -3.26896,1.524794 -1.25425,0.113494 -1.48382,0.08816 -1.48382,-0.163744 z"
       id="path49" /><path
       style="fill:#a7b8a9;fill-opacity:1"
       d="m 56.180287,76.474207 c 0.14366,-1.524645 0.0783,-1.524245 -0.80778,0.005 l -0.43335,0.74791 -0.0124,-0.841398 c -0.007,-0.46277 0.11019,-1.346239 0.26006,-1.963264 0.14987,-0.617026 0.40348,-1.894073 0.56357,-2.837882 0.31259,-1.842821 1.21781,-4.584896 1.83086,-5.546016 1.74035,-2.728466 3.08392,-4.729957 3.26105,-4.857908 0.11679,-0.08436 -0.0921,0.542014 -0.46423,1.39194 -1.08453,2.477138 -3.10285,9.269895 -2.8116,9.462574 0.0651,0.04304 0.20249,-0.117402 0.30539,-0.356536 0.4339,-1.008279 2.54313,-4.400306 3.02057,-4.857626 0.28498,-0.272969 0.51815,-0.54479 0.51815,-0.604046 0,-0.118255 1.33292,-1.543643 3.34224,-3.574085 0.71237,-0.719863 2.18286,-2.010437 3.26776,-2.867942 2.04813,-1.618858 8.08952,-5.513096 8.31816,-5.361836 0.0718,0.04749 -0.37148,0.530308 -0.98503,1.072932 -0.61355,0.542623 -1.74424,1.64226 -2.51264,2.443637 -0.7684,0.801376 -1.82515,1.895195 -2.34833,2.430707 -0.52319,0.535513 -1.30648,1.41285 -1.74066,1.949638 -0.43417,0.536788 -1.20975,1.378187 -1.72351,1.869776 -4.7147,4.511228 -7.90595,8.47089 -9.15914,11.364538 -0.40084,0.925538 -0.97647,1.848849 -1.27919,2.051802 -0.54593,0.36601 -0.54925,0.356909 -0.40992,-1.121865 z m -7.05342,-0.135283 c -0.25215,-0.745573 -0.63363,-1.692146 -0.84772,-2.103497 -0.21408,-0.411351 -0.73879,-1.505169 -1.16601,-2.430708 -0.42722,-0.925539 -1.31364,-2.577993 -1.96982,-3.672121 -0.65617,-1.094128 -1.39685,-2.526937 -1.64594,-3.184021 -0.48243,-1.272599 -3.44196,-6.57812 -4.22749,-7.578586 -0.89893,-1.144888 -0.46013,-0.88451 1.08891,0.646151 3.04927,3.013085 4.75512,5.246497 6.96125,9.114139 1.12709,1.975944 1.2611,1.966452 0.81145,-0.05747 -0.15291,-0.688255 -0.54095,-2.42933 -0.86231,-3.869057 -0.55757,-2.497892 -1.97098,-7.415913 -2.57134,-8.947051 -0.54696,-1.394962 -0.0157,-0.85773 1.67528,1.693981 2.65508,4.006636 4.26719,7.685353 5.00684,11.425291 0.10808,0.546481 0.25457,0.955191 0.32553,0.908244 0.071,-0.04695 0.55713,-1.714097 1.08036,-3.704777 1.13432,-4.315619 1.80718,-6.216839 3.10257,-8.766576 0.93167,-1.833798 1.50162,-2.651332 1.16924,-1.677139 -0.35301,1.034657 -1.01685,4.57995 -1.45287,7.759184 -0.32278,2.353562 -0.65933,3.759165 -1.11921,4.674438 -1.4635,2.912715 -2.50516,5.689242 -3.26188,8.694455 -0.29778,1.182633 -0.54407,2.213347 -0.54729,2.290475 -0.003,0.07713 -0.25003,0.140233 -0.54847,0.140233 -0.443,0 -0.62677,-0.24884 -1.00108,-1.355588 z m 13.13628,-0.74791 c 0.57093,-1.350419 2.3116,-4.321898 3.27902,-5.597563 0.78975,-1.0414 3.80484,-2.674468 7.43931,-4.029374 2.38845,-0.890396 4.36526,-1.519216 3.83247,-1.219098 -0.15545,0.08756 -1.04574,0.572497 -1.97842,1.077632 -5.13724,2.782297 -8.99023,6.044953 -11.74764,9.947716 -0.97651,1.382122 -1.44209,1.280896 -0.82474,-0.179313 z m -18.90751,-0.650017 c -0.33697,-0.490901 -0.76852,-1.062016 -0.959,-1.269144 -0.19048,-0.207128 -0.65485,-0.711967 -1.03193,-1.121865 -0.37708,-0.409898 -1.2898,-1.261456 -2.02827,-1.892352 -0.73847,-0.630895 -1.90938,-1.90039 -2.60201,-2.8211 -2.49144,-3.311827 -7.09253,-7.766456 -11.05291,-10.701068 l -0.87171,-0.645936 1.41315,0.731075 c 4.67484,2.418457 8.1256,4.83194 12.06983,8.441705 2.46828,2.258977 2.68739,2.577598 4.48102,6.516362 0.50031,1.098673 1.37101,3.5381 1.2835,3.595992 -0.0489,0.03238 -0.3647,-0.342768 -0.70167,-0.833669 z"
       id="path48" /></g></svg>
