<?xml version="1.0" encoding="UTF-8" standalone="no"?>
<!-- Created with Inkscape (http://www.inkscape.org/) -->

<svg
   width="100mm"
   height="100mm"
   viewBox="0 0 100 100"
   version="1.1"
   id="svg1"
   inkscape:version="1.4 (86a8ad7, 2024-10-11)"
   sodipodi:docname="bush2.svg"
   xml:space="preserve"
   xmlns:inkscape="http://www.inkscape.org/namespaces/inkscape"
   xmlns:sodipodi="http://sodipodi.sourceforge.net/DTD/sodipodi-0.dtd"
   xmlns="http://www.w3.org/2000/svg"
   xmlns:svg="http://www.w3.org/2000/svg"><sodipodi:namedview
     id="namedview1"
     pagecolor="#ffffff"
     bordercolor="#000000"
     borderopacity="0.25"
     inkscape:showpageshadow="2"
     inkscape:pageopacity="0.0"
     inkscape:pagecheckerboard="true"
     inkscape:deskcolor="#d1d1d1"
     inkscape:document-units="mm"
     inkscape:zoom="1.0227973"
     inkscape:cx="284.025"
     inkscape:cy="241.98343"
     inkscape:window-width="1920"
     inkscape:window-height="1009"
     inkscape:window-x="1912"
     inkscape:window-y="-8"
     inkscape:window-maximized="1"
     inkscape:current-layer="layer1" /><defs
     id="defs1" /><g
     inkscape:label="Warstwa 1"
     inkscape:groupmode="layer"
     id="layer1"><path
       style="fill:#617463;fill-opacity:1"
       d="m 45.006376,79.487898 c -2.605686,-0.76131 -5.732969,-1.21443 -6.979788,-1.01131 -0.658341,0.10725 -1.435452,-0.0419 -2.994601,-0.57479 -2.698328,-0.92222 -6.393371,-2.56344 -8.592859,-3.81666 -1.881583,-1.07208 -4.454459,-2.14325 -7.138729,-2.97208 l -1.719791,-0.53103 3.126506,0.0896 c 1.719578,0.0493 3.565047,0.15051 4.101041,0.22493 l 0.974536,0.1353 -1.719792,-1.41978 c -1.816724,-1.49979 -4.347984,-3.07357 -7.163958,-4.4541 -1.666477,-0.81699 -1.678968,-0.83019 -0.64125,-0.67746 2.342513,0.34476 7.564503,2.19254 9.433552,3.33803 0.386266,0.23673 0.778939,0.43042 0.872606,0.43042 0.586571,0 -4.567397,-5.50202 -6.750916,-7.2068 -0.749933,-0.58552 -1.269987,-1.06457 -1.155676,-1.06457 0.476041,0 6.296737,3.32659 7.583278,4.33393 1.680845,1.31607 3.11403,2.20442 3.11403,1.9302 0,-0.37665 -3.389069,-5.35905 -4.383656,-6.44457 -0.545874,-0.59578 -1.717629,-1.74129 -2.6039,-2.54556 -1.722834,-1.56344 -1.346746,-1.54787 1.166723,0.0483 2.388487,1.51681 4.8868,3.52803 6.636198,5.34235 0.905507,0.93911 1.697643,1.66295 1.760301,1.60854 0.217885,-0.18921 -3.09868,-5.78035 -4.708486,-7.93767 -1.505384,-2.01739 -1.557456,-2.12959 -0.735793,-1.58536 1.192211,0.78965 3.805755,3.49095 4.745839,4.90519 0.785639,1.18189 0.958806,1.06463 0.508973,-0.34464 -0.259614,-0.81335 -1.859658,-8.65124 -1.852698,-9.07553 0.0021,-0.12637 0.130275,-0.0747 0.284893,0.11488 0.206455,0.2531 0.243188,0.009 0.138297,-0.91904 -0.142232,-1.25842 -0.139712,-1.25536 0.605392,0.73672 0.411521,1.10022 1.262934,2.85789 1.89203,3.90592 0.629096,1.04804 1.476989,2.47418 1.884206,3.16921 0.922138,1.57387 0.94295,1.14118 0.07077,-1.47132 -0.371981,-1.11422 -0.628432,-2.06744 -0.56989,-2.11828 0.05854,-0.0508 0.497615,0.65848 0.975721,1.57626 2.23208,4.28475 2.997548,5.6443 3.755163,6.66955 0.449208,0.60789 0.859828,1.06785 0.912488,1.02212 0.05266,-0.0457 -0.203916,-0.90265 -0.570169,-1.90426 -0.366252,-1.00161 -0.865322,-2.3757 -1.109043,-3.05353 -0.243722,-0.67783 -1.030441,-1.97023 -1.748265,-2.872 -1.35567,-1.70308 -3.880093,-5.13587 -3.880093,-5.27629 0,-0.31362 6.407677,5.66637 6.851102,6.39382 l 0.56021,0.91905 -0.159633,-0.91905 c -0.0878,-0.50547 -0.326593,-1.57165 -0.530656,-2.3693 -0.460314,-1.79928 -0.455302,-2.20124 0.0163,-1.30686 0.60953,1.15596 0.448833,0.2975 -0.413785,-2.21049 -0.451118,-1.31159 -0.972646,-2.84998 -1.158951,-3.41864 -0.186305,-0.56865 -0.533146,-1.43751 -0.770758,-1.93079 -0.628266,-1.30428 -0.358211,-1.24943 0.692094,0.14057 2.139233,2.83111 3.604663,5.26973 5.385933,8.96272 0.382943,0.79393 0.744519,1.48767 0.803501,1.54164 0.284793,0.26059 -1.104914,-5.336 -1.788839,-7.20396 -0.572246,-1.56295 -2.29801,-5.162 -2.679669,-5.58842 -0.141381,-0.15796 -0.195557,-0.2872 -0.120392,-0.2872 0.07517,0 0.793533,0.74959 1.596372,1.66576 2.820128,3.21822 4.010707,5.62649 5.76455,11.66033 1.065219,3.66474 1.321838,3.17217 0.643219,-1.23461 -0.57533,-3.73605 -2.430459,-12.42092 -3.220811,-15.07836 -0.323254,-1.0869 0.127183,-0.33992 1.177655,1.95296 2.159006,4.71249 3.798406,10.24779 4.184985,14.13025 0.09437,0.94776 0.281273,1.87829 0.415343,2.06785 0.153387,0.21686 0.183481,-0.34931 0.08117,-1.52705 -0.265915,-3.06102 0.940066,-13.66358 1.96929,-17.31329 l 0.226775,-0.80416 0.02697,1.03392 c 0.01483,0.56865 -0.09077,3.67042 -0.234665,6.8928 -0.143899,3.22239 -0.16724,6.58263 -0.05187,7.46721 l 0.209765,1.60832 0.21112,-1.26368 c 0.776232,-4.64621 1.829474,-7.57735 4.052489,-11.27795 1.318754,-2.19529 2.702146,-4.07052 2.358444,-3.19694 -1.501409,3.8161 -2.442664,6.55726 -2.938822,8.55857 -0.336785,1.35845 -0.569324,2.46992 -0.516751,2.46992 0.05257,0 0.285561,-0.28433 0.517752,-0.63184 0.232192,-0.34751 0.352054,-0.43565 0.26636,-0.19587 -0.08569,0.23979 -0.214107,1.22201 -0.285362,2.18272 l -0.129555,1.74675 0.500369,-1.16377 c 0.945659,-2.19945 3.503379,-6.64917 4.715967,-8.20448 1.650782,-2.11735 2.187183,-2.40619 1.131552,-0.60932 -0.996012,1.69539 -2.08243,4.54444 -2.508984,6.57962 -0.232783,1.11067 -0.716855,3.35217 -1.075715,4.98112 -0.358861,1.62896 -0.605858,3.00222 -0.548883,3.05169 0.05697,0.0495 0.261519,-0.24938 0.454541,-0.66413 0.484712,-1.0415 1.30197,-2.13081 4.099511,-5.46417 1.32569,-1.5796 2.807742,-3.41481 3.293449,-4.07824 0.485706,-0.66344 0.913815,-1.20625 0.951353,-1.20625 0.263102,0 -2.009385,5.03679 -3.420869,7.58209 -1.758113,3.17037 -4.001179,8.42038 -3.145758,7.3628 0.250873,-0.31016 1.318605,-1.48215 2.372737,-2.60442 1.054132,-1.12227 2.467647,-2.75371 3.141145,-3.62543 0.673498,-0.87171 1.347469,-1.51895 1.497714,-1.43832 0.150406,0.0807 0.194254,0.0357 0.09757,-0.10013 -0.09658,-0.1357 0.03174,-0.42678 0.285156,-0.64685 0.538774,-0.46786 1.091773,-1.46407 2.476822,-4.46189 0.997861,-2.15979 1.251823,-2.34897 0.779757,-0.58085 -0.326596,1.22326 -0.127499,1.32426 0.280328,0.14221 0.178922,-0.51859 0.362226,-0.91083 0.407342,-0.87165 0.08762,0.0761 -1.617053,7.45892 -1.913048,8.28528 -0.161259,0.4502 -0.128088,0.44318 0.388609,-0.0822 0.310705,-0.31592 0.506964,-0.41931 0.436132,-0.22976 -0.07083,0.18956 -0.303867,1.32687 -0.517855,2.52737 -0.213988,1.20049 -0.467069,2.59629 -0.562402,3.10176 -0.168366,0.8927 -0.137669,0.86966 1.071269,-0.80416 1.363674,-1.88806 3.580152,-4.32097 4.919043,-5.39937 0.915264,-0.73719 0.857275,-0.58908 -0.404807,1.03392 -0.729095,0.9376 -4.212986,8.04161 -3.943699,8.04161 0.06241,0 0.853539,-0.68751 1.758064,-1.52781 1.822914,-1.69348 3.516732,-2.84921 5.855711,-3.99552 l 1.554663,-0.76192 -1.777766,1.56676 c -1.736912,1.53075 -3.923967,4.02761 -4.938039,5.63753 -0.278593,0.44229 -0.710537,1.06264 -0.959876,1.37856 l -0.453344,0.5744 0.631789,-0.45952 c 0.72941,-0.53052 0.581077,-0.24464 -0.655674,1.26369 -2.157932,2.63178 -1.492611,2.27837 1.955772,-1.03888 0.997829,-0.95988 4.300208,-2.94089 7.045937,-4.22667 l 1.5875,-0.74339 -2.258451,1.8294 c -1.242149,1.00618 -2.730408,2.33234 -3.307244,2.94703 -1.003349,1.0692 -1.014402,1.09822 -0.255089,0.66983 0.436535,-0.24629 1.269951,-0.67933 1.852035,-0.96231 1.196181,-0.58151 7.057268,-2.6475 7.188216,-2.53379 0.0469,0.0407 -0.777354,0.55103 -1.831679,1.13401 -3.35956,1.85764 -8.760819,5.90401 -8.353293,6.2579 0.07988,0.0694 0.489176,0.0119 0.90954,-0.12769 0.642192,-0.21326 5.743122,-0.90674 6.585132,-0.89526 0.145521,0.002 -1.054707,0.59447 -2.667173,1.31663 -1.612467,0.72217 -4.053248,2.04198 -5.423959,2.93291 -2.435337,1.58292 -8.052761,4.16176 -10.196115,4.68082 -0.824638,0.19971 -1.364063,0.16876 -2.733979,-0.15684 -1.697824,-0.40354 -1.712756,-0.40295 -2.889112,0.11422 -1.306153,0.57422 -3.637467,0.70599 -4.597447,0.25984 -0.541771,-0.25178 -0.543805,-0.26994 -0.06433,-0.5744 0.557556,-0.35403 0.36015,-0.41939 -0.337206,-0.11164 -0.702709,0.31011 -6.285908,1.86939 -6.564244,1.83326 -0.134853,-0.0175 -1.23859,-0.32207 -2.45275,-0.67681 z m -15.632261,-14.2896 -0.61251,-0.51058 0.464612,0.63901 c 0.255537,0.35146 0.531166,0.58122 0.61251,0.51058 0.08134,-0.0706 -0.127731,-0.35819 -0.464612,-0.63901 z m 29.345148,-2.07502 c 0.0022,-0.10223 -0.115011,-0.12198 -0.260532,-0.0439 -0.145521,0.0781 -0.26276,0.31683 -0.260532,0.53052 0.0035,0.33482 0.0395,0.34089 0.260532,0.0439 0.141064,-0.18955 0.258303,-0.42828 0.260532,-0.53052 z m -6.589644,-25.56641 c 0.0127,-0.26766 0.07539,-0.3221 0.159853,-0.13881 0.07643,0.16585 0.06703,0.36402 -0.02089,0.44037 -0.08792,0.0764 -0.150453,-0.0594 -0.138965,-0.30156 z"
       id="path55" /><path
       style="fill:#a7b8a9;fill-opacity:1"
       d="m 44.435815,79.223588 c -1.791309,-0.54126 -2.803095,-0.69601 -4.972068,-0.76044 -2.160718,-0.0642 -3.089652,-0.20553 -4.497916,-0.68438 -2.665888,-0.90649 -6.285022,-2.52127 -8.613909,-3.84336 -1.142131,-0.64838 -3.344787,-1.63126 -4.894792,-2.18417 l -2.818189,-1.00531 3.175,0.10438 c 1.74625,0.0574 3.383359,0.17871 3.638021,0.26956 1.007737,0.35951 0.368789,-0.37941 -1.5875,-1.83589 -2.113118,-1.57324 -4.719169,-3.15058 -6.893495,-4.17236 -1.212372,-0.56973 -1.22003,-0.58008 -0.316401,-0.42756 2.562482,0.4325 7.359107,2.17266 9.341796,3.38909 0.40856,0.25066 0.802527,0.40391 0.87548,0.34056 0.250935,-0.21791 -3.148445,-3.9589 -5.556623,-6.11502 -2.008669,-1.79843 -2.234834,-2.06919 -1.353361,-1.62026 2.448204,1.24686 5.453086,3.05268 6.48787,3.89897 1.608811,1.31576 3.502648,2.28865 3.01008,1.54632 -0.104814,-0.15796 0.142443,-0.0287 0.54946,0.2872 l 0.740031,0.5744 -0.343509,-0.5744 c -0.553517,-0.92556 -1.392981,-1.83768 -1.696294,-1.8431 -0.154535,-0.003 -0.898631,-0.95913 -1.653548,-2.12528 -0.754916,-1.16614 -2.29622,-3.05079 -3.42512,-4.1881 -1.1289,-1.13732 -1.880459,-1.95762 -1.670133,-1.82291 4.061919,2.60169 6.376971,4.44431 9.051729,7.20454 1.072163,1.10642 1.50023,1.1584 0.875294,0.10629 -0.216582,-0.36463 -0.996303,-1.74858 -1.732712,-3.07544 -0.736409,-1.32687 -1.995725,-3.29132 -2.79848,-4.36545 l -1.459555,-1.95296 2.115529,1.89988 c 1.163541,1.04493 2.550501,2.57531 3.082134,3.40084 0.531633,0.82553 1.02708,1.44845 1.100993,1.38426 0.07391,-0.0642 -0.05413,-0.76742 -0.284535,-1.56276 -0.390777,-1.3489 -1.246671,-5.39896 -1.640856,-7.76446 -0.161078,-0.96663 -0.145512,-1.00401 0.239176,-0.5744 0.382995,0.42772 0.39273,0.39895 0.140686,-0.41578 -0.471733,-1.52486 -0.101606,-1.4395 0.413934,0.0955 0.271381,0.80801 0.700704,1.77929 0.954051,2.15839 0.253347,0.37911 1.185996,1.92999 2.072553,3.4464 1.732748,2.96379 2.002575,2.93175 0.953053,-0.11319 -0.363481,-1.05455 -0.6178,-1.95477 -0.565152,-2.00049 0.05265,-0.0457 0.768924,1.23974 1.591725,2.85658 1.389261,2.72995 2.105577,3.86587 3.902939,6.18919 0.383219,0.49536 1.023304,1.44296 1.422412,2.10578 0.399108,0.66282 0.759431,1.17508 0.800719,1.13836 0.04129,-0.0367 -0.218803,-1.20409 -0.577978,-2.59414 -0.359175,-1.39005 -1.002515,-4.23333 -1.429643,-6.3184 -0.427129,-2.08508 -0.844352,-4.04953 -0.927162,-4.36545 l -0.150564,-0.5744 0.404081,0.5744 c 0.259105,0.36832 0.407445,0.44781 0.413457,0.22155 0.0076,-0.28682 -1.221994,-4.13473 -1.943022,-6.08043 -0.338453,-0.91332 1.47702,2.51909 2.114679,3.9981 0.939798,2.1798 2.063184,5.33322 2.748439,7.71506 0.494128,1.71751 1.157329,3.40217 2.217826,5.63373 0.579916,1.2203 -0.926026,-9.21201 -1.837714,-12.73064 -0.357166,-1.37846 -0.611345,-2.53934 -0.564843,-2.57973 0.19445,-0.16885 2.082403,4.68409 2.687725,6.90874 0.64292,2.36283 1.349802,6.76799 1.653173,10.30227 0.08431,0.98216 0.211657,1.73506 0.283004,1.6731 0.07135,-0.0619 0.397148,-1.07233 0.724005,-2.24527 0.326856,-1.17295 1.098479,-3.7869 1.714718,-5.80879 0.616239,-2.02189 1.274528,-4.39991 1.462864,-5.28449 0.330782,-1.55361 0.343243,-1.57165 0.366309,-0.53052 0.04323,1.95121 0.805722,1.42221 0.814016,-0.56474 0.0044,-1.05548 1.139513,-5.69935 1.732268,-7.08694 0.965573,-2.26032 3.889197,-7.32661 4.227996,-7.32661 0.04191,0 -0.219017,0.74959 -0.579845,1.66576 -0.360827,0.91617 -0.952437,2.54459 -1.314688,3.61872 -1.159872,3.43919 -1.770331,7.04129 -0.891499,5.26041 0.239374,-0.48508 0.252998,-0.46083 0.114906,0.20449 -0.08617,0.41515 -0.195765,1.60416 -0.243554,2.64225 -0.05103,1.10857 -0.319209,2.5037 -0.649881,3.38086 -1.040192,2.7593 -2.115187,6.68065 -2.255891,8.22901 l -0.139562,1.5358 0.558408,-1.33548 c 0.307125,-0.73451 0.583063,-1.30317 0.613195,-1.26368 0.194597,0.25503 -0.39759,5.6038 -0.744632,6.72568 -0.508696,1.64445 -0.524882,2.04748 -0.05112,1.27285 0.542549,-0.8871 0.901589,-2.64203 1.081147,-5.28449 0.09016,-1.32686 0.441118,-3.54979 0.7799,-4.93984 0.338783,-1.39005 0.696135,-3.19941 0.794116,-4.0208 0.09798,-0.8214 0.339973,-2.0621 0.537761,-2.75713 0.197789,-0.69502 0.35457,-1.53213 0.348403,-1.86023 -0.01072,-0.57055 0.646783,-2.06572 2.112043,-4.80281 0.372071,-0.69503 1.319149,-2.11667 2.104617,-3.15921 1.428728,-1.89632 2.000814,-2.45228 1.300333,-1.26368 -1.216652,2.06446 -2.194295,4.83558 -2.816796,7.98417 -0.719133,3.63735 -1.581926,7.03312 -2.377813,9.35856 -0.464151,1.35617 -0.800204,2.57962 -0.746785,2.71879 0.05342,0.13916 0.50335,-0.29838 0.999847,-0.97232 1.008667,-1.36915 2.685,-3.22839 2.811637,-3.11842 0.04532,0.0393 -0.314463,1.05005 -0.799509,2.24599 -1,2.46564 -3.226587,8.54437 -3.447495,9.4119 l -0.146267,0.5744 0.311516,-0.5744 c 0.171333,-0.31592 0.815842,-1.50493 1.432242,-2.64224 1.292289,-2.3844 2.986225,-4.69598 6.065479,-8.27709 2.698485,-3.13829 4.163741,-5.11223 4.251267,-5.72715 0.03685,-0.25886 0.616763,-1.55628 1.288706,-2.88314 1.764498,-3.4843 1.759226,-3.47614 1.645708,-2.54933 -0.08824,0.72045 -0.06625,0.74765 0.278688,0.34464 0.352977,-0.41241 0.366236,-0.40455 0.230788,0.13685 -0.07904,0.31592 -0.275265,1.24645 -0.436063,2.06784 -0.809107,4.13311 -1.756925,6.2463 -3.300618,7.35884 -0.801705,0.57778 -3.048633,3.65211 -4.655073,6.36923 -1.569615,2.65484 -1.959151,3.77461 -0.625744,1.79878 0.390459,-0.57858 0.747877,-1.05196 0.794264,-1.05196 0.08992,0 -0.502725,1.41551 -1.418059,3.38698 -0.307517,0.66234 -0.867517,1.62849 -1.244442,2.14699 -0.825034,1.13493 -0.729955,1.35605 0.212773,0.49484 1.052872,-0.96183 2.330603,-3.0912 3.755462,-6.25857 0.710593,-1.5796 1.613723,-3.38896 2.006957,-4.0208 1.486917,-2.38915 4.267583,-6.18014 4.128935,-5.62913 -0.07949,0.31592 -0.323786,1.50493 -0.542873,2.64225 -0.516,2.67863 -0.872145,4.4119 -1.097638,5.34192 -0.292099,1.20474 0.08086,0.86956 1.150465,-1.03392 1.220356,-2.17175 3.140718,-4.98972 3.650938,-5.35743 0.206448,-0.14879 0.37438,-0.23201 0.373183,-0.18495 -0.0012,0.0471 -0.702849,1.58476 -1.559225,3.4171 -0.856376,1.83234 -1.509508,3.37524 -1.451404,3.42867 0.0581,0.0534 0.551395,-0.35663 1.096204,-0.91124 1.592944,-1.6216 3.266716,-2.96994 4.827019,-3.88852 2.544092,-1.49776 2.898192,-1.5491 1.424908,-0.20662 -1.481873,1.3503 -4.043942,4.21889 -4.272158,4.78326 -0.07912,0.19565 -0.542416,0.84708 -1.02955,1.44763 -0.983158,1.21203 -1.070625,1.43137 -0.494206,1.23929 0.215685,-0.0719 -0.0019,0.3556 -0.484515,0.9519 -0.481804,0.5953 -1.027178,1.32768 -1.211941,1.62753 -0.335486,0.54445 -0.335106,0.54462 0.286077,0.13093 0.342106,-0.22783 1.368012,-1.15979 2.279793,-2.07101 1.66438,-1.66335 3.742832,-3.03178 6.941175,-4.56999 l 1.719791,-0.82711 -1.83142,1.55792 c -2.912426,2.47749 -4.214892,3.73631 -4.031055,3.89595 0.09388,0.0815 0.379779,-0.006 0.635333,-0.19443 1.121705,-0.82719 7.891188,-3.58293 8.181727,-3.33063 0.05286,0.0459 -0.590303,0.47828 -1.429242,0.96085 -3.123755,1.79682 -8.351457,5.86308 -7.966983,6.19696 0.07848,0.0681 0.568619,-0.0306 1.089206,-0.21953 0.849879,-0.30837 5.704537,-0.92687 5.905471,-0.75238 0.04487,0.039 -0.951559,0.526 -2.214287,1.08231 -1.262729,0.55631 -2.655674,1.22565 -3.095435,1.48743 -1.157582,0.6891 -3.951786,2.51355 -4.106856,2.68155 -0.171625,0.18593 -6.102463,2.64503 -7.753233,3.21472 -0.844739,0.29153 -1.421461,0.37027 -1.719792,0.23481 -0.246867,-0.11209 -1.053203,-0.3146 -1.791857,-0.45002 -1.217041,-0.22312 -1.463207,-0.19337 -2.624528,0.31719 -1.422864,0.62554 -3.312543,0.73643 -4.315194,0.25323 l -0.609812,-0.29388 0.710149,-0.28098 c 0.390583,-0.15454 0.635945,-0.34542 0.545249,-0.42418 -0.0907,-0.0788 -0.552566,0.0148 -1.026379,0.20797 -1.478526,0.60269 -6.120749,1.80506 -6.814602,1.76503 -0.363802,-0.021 -1.673489,-0.34395 -2.910416,-0.7177 z m 1.581689,-3.69326 c -0.0066,-2.14246 -0.392002,-3.08373 -2.058409,-5.02747 -1.041543,-1.21488 -2.433697,-2.46622 -2.433697,-2.18753 0,0.27715 1.098675,2.57808 1.833376,3.8396 0.824369,1.41548 2.135374,4.5861 2.135374,5.16432 0,0.20737 0.119063,0.31314 0.264583,0.23505 0.145521,-0.0781 0.261969,-0.98889 0.258773,-2.02397 z m 8.706057,-3.70831 c 0.175678,-0.60585 0.270488,-1.14403 0.21069,-1.19596 -0.17295,-0.15019 -1.204448,2.47044 -1.370475,3.48183 l -0.150866,0.91904 0.495619,-1.05168 c 0.272591,-0.57842 0.639355,-1.54737 0.815032,-2.15323 z m -15.182538,-4.38468 c -2.18038,-1.76088 -2.973096,-2.19194 -1.993201,-1.08386 0.663039,0.74978 3.466689,2.78345 3.845285,2.78924 0.14552,0.002 -0.687917,-0.76519 -1.852084,-1.70538 z m 32.146874,-1.51231 c 0,-0.40365 -0.518729,0.0301 -0.941989,0.78766 l -0.40906,0.73216 0.675525,-0.64466 c 0.371538,-0.35456 0.675524,-0.74838 0.675524,-0.87516 z m -11.773175,-5.79335 c 0.883926,-3.77678 1.214335,-4.98495 1.556158,-5.69024 0.500115,-1.03188 3.602434,-4.50986 3.602434,-4.03864 0,0.089 -0.697219,1.375 -1.549375,2.85788 -0.852157,1.48289 -1.84782,3.3682 -2.212584,4.1896 -1.179485,2.65601 -1.563034,3.39239 -1.396633,2.6814 z m 10.471146,-12.46536 c 0.0127,-0.26766 0.07539,-0.3221 0.159853,-0.13881 0.07643,0.16585 0.06703,0.36402 -0.02089,0.44037 -0.08792,0.0763 -0.150453,-0.0594 -0.138965,-0.30156 z"
       id="path54" /></g></svg>
