<?xml version="1.0" encoding="UTF-8" standalone="no"?>
<!-- Created with Inkscape (http://www.inkscape.org/) -->

<svg
   width="100mm"
   height="100mm"
   viewBox="0 0 100 100"
   version="1.1"
   id="svg1"
   inkscape:version="1.4 (86a8ad7, 2024-10-11)"
   sodipodi:docname="bush4.svg"
   xml:space="preserve"
   xmlns:inkscape="http://www.inkscape.org/namespaces/inkscape"
   xmlns:sodipodi="http://sodipodi.sourceforge.net/DTD/sodipodi-0.dtd"
   xmlns="http://www.w3.org/2000/svg"
   xmlns:svg="http://www.w3.org/2000/svg"><sodipodi:namedview
     id="namedview1"
     pagecolor="#ffffff"
     bordercolor="#000000"
     borderopacity="0.25"
     inkscape:showpageshadow="2"
     inkscape:pageopacity="0.0"
     inkscape:pagecheckerboard="true"
     inkscape:deskcolor="#d1d1d1"
     inkscape:document-units="mm"
     inkscape:zoom="1.0227973"
     inkscape:cx="284.025"
     inkscape:cy="241.98343"
     inkscape:window-width="1920"
     inkscape:window-height="1009"
     inkscape:window-x="1912"
     inkscape:window-y="-8"
     inkscape:window-maximized="1"
     inkscape:current-layer="layer1" /><defs
     id="defs1" /><g
     inkscape:label="Warstwa 1"
     inkscape:groupmode="layer"
     id="layer1"><path
       style="fill:#617463;fill-opacity:1"
       d="m 44.513113,79.903654 c -3.88756,-0.97837 -5.33453,-1.1711 -6.29042,-0.83788 -0.59921,0.20889 -1.08329,0.15404 -2.19986,-0.24923 -0.78737,-0.28437 -2.14597,-0.74609 -3.01909,-1.02603 -0.87313,-0.27994 -1.94469,-0.75387 -2.38125,-1.05318 -0.43656,-0.2993 -1.1728,-0.70831 -1.63608,-0.90891 -0.46327,-0.20059 -1.01842,-0.70526 -1.23366,-1.12149 -0.59039,-1.14168 -2.7918,-3.08232 -5.52775,-4.87294 -1.34773,-0.88206 -2.2123,-1.53626 -1.92126,-1.45376 3.33537,0.94543 6.17605,1.85182 6.77592,2.16202 1.02846,0.53184 1.10657,0.48571 0.58547,-0.34575 -1.31394,-2.09649 -4.09461,-5.33962 -6.75391,-7.87715 l -2.98873,-2.85189 1.5875,0.87295 c 4.74195,2.60757 7.09535,4.2721 8.83604,6.24962 0.59721,0.67847 1.08583,1.13403 1.08583,1.01237 0,-0.12167 -0.32742,-0.57058 -0.7276,-0.99759 -0.70257,-0.74966 -0.70559,-0.76495 -0.0877,-0.44433 l 0.6399,0.33204 -0.73832,-1.28994 c -1.73446,-3.03033 -3.32963,-5.14577 -5.62496,-7.45957 -1.78201,-1.79635 -2.17805,-2.30326 -1.45927,-1.8678 3.2322,1.95821 4.99907,3.30815 7.53495,5.75692 1.56435,1.51061 2.84427,2.68132 2.84427,2.60158 0,-0.52415 -3.52417,-6.6993 -4.82309,-8.45115 -1.20225,-1.62148 -1.3991,-1.99922 -0.82527,-1.58366 1.08176,0.7834 3.85723,3.69326 4.82352,5.05709 0.85854,1.21174 1.0171,1.0663 0.54996,-0.50447 -0.31858,-1.07119 -1.84634,-8.65355 -1.83241,-9.09432 0.005,-0.16315 0.18872,10e-4 0.40791,0.36482 0.30628,0.50834 0.36863,0.53896 0.26932,0.13229 -0.0711,-0.29104 -0.20053,-1.00541 -0.28769,-1.5875 l -0.15847,-1.05833 0.50401,1.32292 c 0.2772,0.7276 0.70533,1.79916 0.9514,2.38125 0.53294,1.26066 4.1641,7.32512 4.30289,7.18632 0.0532,-0.0532 -0.30153,-1.23954 -0.78821,-2.63639 -0.48668,-1.39685 -0.80527,-2.49053 -0.70798,-2.4304 0.0973,0.0601 1.15793,1.88829 2.35698,4.06257 1.19904,2.17428 2.45114,4.20789 2.78244,4.51913 0.55611,0.52244 0.52432,0.33858 -0.41421,-2.39518 -1.154,-3.3614 -1.21677,-3.47211 -3.80915,-6.71855 -2.72044,-3.40681 -2.96685,-4.01896 -0.90435,-2.24666 0.92995,0.7991 2.63288,2.34588 3.78429,3.43728 1.23145,1.16727 2.0304,1.76648 1.94029,1.45521 -0.13915,-0.48069 -0.54694,-2.0875 -0.87292,-3.43958 -0.0997,-0.4136 -0.038,-0.38471 0.28248,0.13229 l 0.41007,0.66146 -0.16292,-0.79375 c -0.29717,-1.44792 -1.74287,-5.53005 -2.59562,-7.32911 -0.46218,-0.97506 -0.69036,-1.64838 -0.50707,-1.49626 0.89847,0.74566 3.47232,4.47015 5.3735,7.77573 1.16663,2.02841 2.12114,3.60778 2.12114,3.50972 0,-0.32137 -0.77331,-3.48207 -1.2816,-5.23821 -0.51685,-1.78571 -2.11628,-5.36793 -3.01241,-6.74687 -0.28797,-0.44311 0.12829,-0.1261 0.94229,0.71764 2.81744,2.92036 4.30328,5.7504 6.13624,11.68752 0.56672,1.83565 1.10518,3.33754 1.19658,3.33754 0.31102,0 -0.5171,-4.73534 -2.25101,-12.8717 -0.2217,-1.04033 -0.70137,-3.00486 -1.06592,-4.36563 -0.36456,-1.36077 -0.66314,-2.53038 -0.66351,-2.59914 -0.002,-0.38277 0.85183,1.26108 1.92029,3.69689 2.03251,4.6336 3.06949,7.97999 3.50696,11.31722 0.22117,1.68723 0.45959,3.12515 0.52982,3.19538 0.0702,0.0702 0.12768,-0.78852 0.12768,-1.90832 0,-3.18405 0.72413,-9.4332 1.61383,-13.9272 0.78097,-3.9448 1.28531,-5.65231 0.93779,-3.175 -0.24394,1.7389 -0.54088,19.21286 -0.32308,19.01198 0.10156,-0.0937 0.29839,-0.98664 0.4374,-1.98437 0.69745,-5.00594 2.25774,-9.21807 4.89563,-13.21608 1.66165,-2.51843 2.62212,-3.50919 1.76913,-1.82493 -0.85632,1.69082 -2.36403,5.90419 -2.93424,8.19986 -0.44457,1.78984 -0.93009,6.48229 -0.67071,6.48229 0.0451,0 0.72795,-1.33945 1.51745,-2.97656 1.59509,-3.30757 3.51899,-6.33188 5.17563,-8.13594 l 1.09334,-1.19062 -0.78748,1.45521 c -1.21795,2.2507 -2.29296,5.15678 -3.0341,8.20208 -0.81117,3.33309 -1.45217,6.35 -1.34916,6.35 0.0411,0 0.43651,-0.64104 0.87868,-1.42453 0.44218,-0.78349 2.26925,-3.07925 4.06015,-5.1017 1.79091,-2.02244 3.58077,-4.09007 3.97745,-4.59474 0.68057,-0.86581 0.6673,-0.79816 -0.23513,1.1991 -0.52602,1.16416 -1.64304,3.25496 -2.48227,4.64622 -1.6339,2.70862 -2.29091,4.02985 -3.14973,6.33398 -0.7369,1.97706 -0.67937,2.43697 0.16549,1.32292 0.38625,-0.50932 1.72827,-1.93807 2.98226,-3.175 1.25399,-1.23693 2.93358,-2.98105 3.73243,-3.87583 1.42818,-1.59968 1.80077,-2.21833 3.40228,-5.64917 0.76301,-1.63456 0.7959,-1.66734 0.66374,-0.66146 -0.13885,1.05686 -0.13845,1.05742 0.28974,0.39688 0.23583,-0.3638 0.36625,-0.45698 0.28983,-0.20706 -0.20927,0.68434 -1.4851,6.78905 -1.4851,7.10605 0,0.15179 0.0962,0.21655 0.21371,0.14391 0.2345,-0.14493 -0.26504,2.79689 -0.8813,5.19008 -0.21491,0.83455 -0.39074,1.64853 -0.39074,1.80885 0,0.16032 0.73236,-0.70108 1.62746,-1.91423 1.61606,-2.19027 5.44049,-6.20618 5.68112,-5.96555 0.0691,0.0691 -0.4016,0.88378 -1.04597,1.81042 -0.64436,0.92665 -1.53115,2.40179 -1.97063,3.27809 -0.7433,1.48209 -2.17531,4.83575 -2.17531,5.09442 0,0.0628 0.93427,-0.76141 2.07617,-1.83156 1.14189,-1.07014 3.02622,-2.50707 4.1874,-3.19316 2.84682,-1.68208 3.33015,-1.82838 1.94329,-0.58821 -1.38997,1.24295 -3.73584,3.69009 -4.42286,4.61378 -1.34228,1.80469 -2.4211,3.67222 -2.03597,3.52443 0.22967,-0.0881 -0.0692,0.4818 -0.66409,1.26652 -1.59698,2.10648 -1.31776,2.19533 0.62901,0.20014 0.94213,-0.96556 2.34111,-2.16813 3.10886,-2.67238 1.66342,-1.09254 5.12285,-2.98467 6.1907,-3.38599 0.92328,-0.34699 0.82873,-0.25161 -1.97923,1.99666 -1.76648,1.41439 -6.57226,6.66405 -7.23612,7.90449 -0.23235,0.43415 -0.20045,0.47829 0.22258,0.30796 1.84841,-0.74427 7.96335,-2.14782 7.14872,-1.64084 -5.15705,3.20948 -5.73627,3.64287 -6.74395,5.04604 -0.6796,0.94632 -1.15143,1.24084 -3.39288,2.11782 -5.47167,2.14084 -6.72591,2.54025 -7.19261,2.29048 -0.24852,-0.133 -1.18269,-0.37435 -2.07595,-0.53632 -1.4718,-0.26689 -1.7245,-0.24217 -2.69492,0.26364 -1.26427,0.65897 -3.66557,0.74221 -5.01714,0.17392 -0.91017,-0.3827 -1.1657,-0.3397 -5.06802,0.85267 -1.25079,0.38219 -1.53013,0.35289 -5.02883,-0.52761 z m -15.12297,-14.4148 c -0.30417,-0.51554 -0.6108,-0.87958 -0.6814,-0.80898 -0.1258,0.12579 0.92196,1.74632 1.12909,1.74632 0.0579,0 -0.14352,-0.4218 -0.44769,-0.93734 z"
       id="path53" /><path
       style="fill:#a7b8a9;fill-opacity:1"
       d="m 64.886033,79.643084 c 0,-0.82435 2.28246,-4.74343 5.10758,-8.76994 0.68333,-0.97392 1.24242,-1.84705 1.24242,-1.9403 0,-0.0933 -0.32742,0.0819 -0.7276,0.38927 -0.40019,0.30735 -1.44198,1.05627 -2.31511,1.66427 -1.54021,1.07252 -1.57241,1.08215 -1.08114,0.32315 0.2785,-0.43027 0.68659,-1.07996 0.90686,-1.44376 0.37584,-0.62074 0.37259,-0.63586 -0.0528,-0.24566 -0.24932,0.22869 -0.836,0.96288 -1.30373,1.63154 -0.46773,0.66865 -1.9094,2.5949 -3.20371,4.28055 -2.0554,2.67684 -2.45141,3.06482 -3.12828,3.06482 h -0.77497 l 0.85883,-1.52135 c 1.93776,-3.43257 3.29049,-5.0002 5.84555,-6.7742 0.97392,-0.6762 1.84144,-1.22945 1.92783,-1.22945 0.0864,0 0.93377,-0.59531 1.88307,-1.32292 1.78677,-1.36948 3.04422,-1.84675 2.09126,-0.79375 -0.26339,0.29105 -0.36376,0.52917 -0.22305,0.52917 0.1407,0 0.51167,-0.34604 0.82436,-0.76898 l 0.56853,-0.76897 -1.57711,-0.18305 c -0.86741,-0.10067 -1.5771,-0.29694 -1.5771,-0.43616 0,-0.43893 1.05363,-2.58834 2.13422,-4.35382 1.19728,-1.95612 1.29758,-2.37632 0.46022,-1.92818 -0.48486,0.25949 -0.44453,0.14109 0.24471,-0.7183 1.26121,-1.57258 4.74585,-4.86822 4.16533,-3.93941 -1.96203,3.13916 -2.7184,4.5337 -3.72057,6.85972 -0.62742,1.45621 -1.09049,2.69794 -1.02904,2.75939 0.0614,0.0614 0.66649,-0.50533 1.34455,-1.25949 1.33369,-1.48339 3.54777,-3.14837 6.04684,-4.54722 l 1.57647,-0.88242 -2.38032,2.37147 c -2.31691,2.3083 -4.97081,5.91397 -4.95304,6.72934 0.005,0.22254 -1.09026,1.77384 -2.43359,3.44733 -2.67047,3.32682 -3.20215,4.23682 -4.09656,7.01146 -0.32836,1.01865 -0.73171,1.97894 -0.89635,2.13398 -0.50422,0.47486 -1.75454,0.92514 -1.75454,0.63187 z m 8.86354,-12.95231 c 0.0899,-0.14552 0.0445,-0.26458 -0.10106,-0.26458 -0.14552,0 -0.33817,0.11906 -0.4281,0.26458 -0.0899,0.14552 -0.0445,0.26458 0.10106,0.26458 0.14552,0 0.33817,-0.11906 0.4281,-0.26458 z m -37.59408,12.15052 c -0.72865,-0.21152 -0.85358,-0.40207 -1.15527,-1.76207 -0.41205,-1.8575 -1.51822,-4.36154 -2.68253,-6.07242 -0.47659,-0.70033 -0.94224,-1.33285 -1.03478,-1.40561 -0.35278,-0.27739 -2.38888,-3.175 -2.23101,-3.175 0.21145,0 -1.23138,-2.56768 -2.60181,-4.63021 -0.58014,-0.87313 -2.02181,-2.58387 -3.2037,-3.80165 -1.29126,-1.33046 -1.83211,-2.02633 -1.35515,-1.74356 3.03407,1.79878 4.79541,3.17496 7.74823,6.0539 l 2.19199,2.13714 -0.93914,0.13229 -0.93915,0.1323 1.65757,1.42374 c 1.39894,1.20159 2.37939,2.44752 3.77249,4.79396 0.29568,0.49803 -0.10704,0.20887 -2.32721,-1.67098 -1.41193,-1.1955 -2.24497,-1.48593 -1.63042,-0.56842 2.72558,4.06923 5.94376,9.63766 5.94376,10.28452 0,0.19262 -0.17216,0.17448 -1.21387,-0.12793 z m -6.37794,-12.96461 c -0.56112,-0.95569 -1.13944,-1.50927 -1.13944,-1.09069 0,0.28377 1.27116,1.90478 1.49369,1.90478 0.068,0 -0.0914,-0.36634 -0.35425,-0.81409 z m 24.67331,11.72815 c 1.00026,-2.26905 1.84611,-3.34954 3.46215,-4.42253 l 1.45651,-0.96707 -1.71302,2.59558 c -2.73406,4.14266 -4.46536,5.65166 -3.20564,2.79402 z m -12.98141,0.6971 c -0.51815,-0.14046 -0.9695,-0.53999 -1.297,-1.14812 -0.27626,-0.51298 -1.14237,-1.85663 -1.92469,-2.98589 -4.66488,-6.73358 -4.5268,-6.41501 -1.89244,-4.36626 1.92882,1.50005 3.67104,3.72985 5.01989,6.42476 0.5899,1.1786 1.03124,2.17621 0.98075,2.21691 -0.0505,0.0407 -0.44942,-0.0229 -0.88651,-0.1414 z m 30.07248,-1.227 c 0.05,-0.11874 0.61651,-1.24431 1.25884,-2.50128 0.96874,-1.89573 1.32963,-2.35584 2.11666,-2.69861 1.02474,-0.4463 4.34397,-1.34132 5.8436,-1.5757 0.79509,-0.12427 0.8552,-0.0997 0.42507,0.17387 -4.6377,2.94946 -5.77533,3.88384 -6.92827,5.69039 -0.13197,0.20677 -2.79566,1.10059 -2.7159,0.91133 z m -41.78749,-0.89154 c -0.76846,-0.44795 -1.794,-1.33412 -2.27897,-1.96926 -1.10749,-1.45044 -2.64955,-2.75606 -5.18736,-4.39201 -1.0914,-0.70356 -1.8575,-1.27921 -1.70244,-1.27923 0.42829,-5e-5 5.85276,1.78783 6.8271,2.25018 0.68101,0.32316 1.16874,1.00087 2.38316,3.31138 0.83981,1.59779 1.4884,2.90244 1.44132,2.89923 -0.0471,-0.003 -0.71434,-0.37234 -1.48281,-0.82029 z m 15.42356,-4.33324 c -1.08225,-1.62866 -3.74296,-4.31665 -3.4075,-3.44244 0.21184,0.55205 0.34601,0.61491 -2.33503,-1.09414 -1.96859,-1.25488 -2.19788,-1.56496 -2.623,-3.54726 -0.1625,-0.75768 -0.37523,-1.2485 -0.47274,-1.09073 -0.0975,0.15778 -0.42723,0.26805 -0.73271,0.24504 -0.45838,-0.0345 -0.81523,-0.7012 -2.04237,-3.81548 -0.81783,-2.07551 -1.48695,-3.89671 -1.48695,-4.04713 0,-0.15042 -0.11907,-0.27349 -0.26459,-0.27349 -0.14552,0 -0.26458,0.061 -0.26458,0.13564 0,0.37142 1.13629,4.04999 2.11177,6.83653 0.60374,1.72464 1.04581,3.18761 0.98237,3.25105 -0.0634,0.0634 -0.41761,-0.0224 -0.78705,-0.19071 -0.4706,-0.21442 -0.8373,-0.7602 -1.22481,-1.823 -0.30421,-0.83433 -0.55311,-1.73476 -0.55311,-2.00095 0,-0.26619 -0.22732,-1.38506 -0.50515,-2.48637 -0.61044,-2.41975 -1.61934,-7.40481 -1.61009,-7.95552 0.006,-0.35278 0.0374,-0.35278 0.28283,0 0.20164,0.28979 0.23505,0.0756 0.12383,-0.79375 l -0.15231,-1.19063 0.42919,1.05834 c 0.65438,1.61361 1.51083,3.35917 2.04374,4.16538 0.26386,0.39919 0.3936,0.87544 0.28831,1.05833 -0.10529,0.1829 -0.092,0.24228 0.0295,0.13197 0.34775,-0.3157 1.18556,1.17179 1.02355,1.81727 -0.0793,0.31599 -0.0266,0.64721 0.11715,0.73605 0.15643,0.0967 0.20369,-0.0776 0.11773,-0.43416 -0.20475,-0.84928 0.31599,-0.31305 0.9708,0.99968 0.77269,1.54905 0.65347,0.40653 -0.23549,-2.25682 -0.41286,-1.23692 -0.72833,-2.27402 -0.70104,-2.30465 0.0273,-0.0306 0.28153,0.38608 0.56498,0.92604 2.01117,3.83118 3.9861,7.03482 5.17196,8.38973 l 1.38914,1.58716 -0.17704,-1.85174 c -0.0974,-1.01846 -0.35957,-2.44706 -0.58265,-3.17466 -0.22309,-0.7276 -0.45299,-1.87605 -0.5109,-2.5521 -0.0579,-0.67605 -0.23937,-1.74762 -0.40325,-2.38125 -0.58292,-2.25388 -0.58363,-2.26105 -0.15458,-1.54894 0.21919,0.3638 0.40275,0.57349 0.40791,0.46597 0.0171,-0.35638 -1.08432,-4.19016 -1.46675,-5.10544 -0.74558,-1.78441 -0.32482,-1.26585 0.86074,1.0608 1.515,2.97319 2.69423,6.32038 3.39487,9.6362 0.10438,0.49399 0.53215,1.47881 0.95059,2.18849 0.41845,0.70969 0.9562,1.88772 1.19502,2.61785 0.23881,0.73014 0.49594,1.26579 0.57138,1.19034 0.23157,-0.23156 -1.00673,-8.85218 -1.67281,-11.64557 -0.34546,-1.44874 -0.593,-2.66916 -0.55011,-2.71206 0.20735,-0.20735 2.37002,5.85208 2.93328,8.21855 0.99711,4.18923 1.00919,4.3724 0.56303,8.53978 -0.23162,2.16349 -0.45061,4.40988 -0.48664,4.99196 l -0.0655,1.05834 z m 14.97145,-1.52136 c 0.14222,-1.48863 0.52587,-2.71817 1.71305,-5.4901 1.65662,-3.86804 2.77663,-5.81604 4.41158,-7.67292 0.57657,-0.65484 1.32948,-1.74414 1.67313,-2.42066 0.34365,-0.67653 0.98586,-1.76502 1.42715,-2.41888 0.44128,-0.65386 1.20291,-2.06487 1.69251,-3.13559 0.4896,-1.07071 1.02624,-2.2444 1.19253,-2.6082 0.20102,-0.4398 0.26416,-0.48413 0.1884,-0.13229 -0.0627,0.29104 -0.18683,0.94588 -0.27594,1.4552 l -0.16201,0.92605 0.41788,-0.66146 c 0.33164,-0.52496 0.38838,-0.55045 0.27493,-0.12354 -0.0786,0.29585 -0.42295,1.86284 -0.76518,3.4822 -0.42874,2.02871 -0.81967,3.19388 -1.25715,3.74692 -0.82676,1.04515 -1.15941,1.05241 -0.62221,0.0136 0.23275,-0.45009 0.36239,-0.87912 0.2881,-0.95342 -0.0743,-0.0743 -0.60688,0.80328 -1.18352,1.95016 -0.57664,1.14688 -1.79729,3.09396 -2.71255,4.32685 -1.92037,2.58682 -4.82873,7.401 -4.47112,7.401 0.1334,0 0.38575,-0.26758 0.56077,-0.59461 0.19054,-0.35602 0.36156,-0.4646 0.42623,-0.27061 0.19049,0.57148 -2.30179,5.09855 -2.80689,5.09855 -0.10612,0 -0.11048,-0.8632 -0.01,-1.91823 z m 14.26158,0.24456 c 0,-0.19291 -0.30051,-0.63307 -0.66779,-0.97811 l -0.6678,-0.62736 1.52769,-1.55607 c 1.46777,-1.49504 4.16134,-3.2787 7.48475,-4.95636 1.96468,-0.99176 2.2156,-1.00229 0.89566,-0.0376 -1.80276,1.3176 -4.67893,4.14615 -6.45584,6.34894 -1.71613,2.12745 -2.11667,2.4693 -2.11667,1.80654 z m -48.48282,-2.89039 c -1.5918,-2.10423 -4.02905,-4.69248 -6.28593,-6.67538 l -1.45521,-1.27856 2.04964,1.09342 c 3.18284,1.69795 5.62545,3.40008 7.21393,5.02702 1.52613,1.56308 2.01979,2.46005 1.45712,2.64761 -0.18135,0.0605 -0.52127,0.33361 -0.75537,0.60701 -0.23409,0.27341 -0.50381,0.49711 -0.59935,0.49711 -0.0955,0 -0.82672,-0.8632 -1.62483,-1.91823 z m 27.23698,-0.65553 c 0.20509,-1.32863 0.34376,-1.43516 0.34376,-0.26408 0,0.52499 -0.11201,1.02375 -0.24891,1.10836 -0.14842,0.0917 -0.18671,-0.24915 -0.0949,-0.84428 z m 11.33991,-0.13822 c 0.42735,-1.38349 2.80835,-5.95932 3.5451,-6.81302 l 0.79917,-0.92604 -1.0341,2.411 c -0.56876,1.32605 -1.1804,2.93339 -1.3592,3.57187 -0.29214,1.04322 -1.35631,2.34677 -1.9186,2.35019 -0.11895,7.2e-4 -0.13351,-0.26658 -0.0324,-0.594 z m -13.51799,-3.67929 c -1.22665,-6.34018 -1.04755,-12.88838 0.59227,-21.65457 0.36749,-1.96453 0.69864,-3.60626 0.73588,-3.64829 0.0372,-0.042 0.0215,4.24421 -0.035,9.525 -0.096,8.97563 0.0604,10.98833 0.551,7.08788 0.32922,-2.6177 1.49102,-6.70308 2.54988,-8.96645 0.86951,-1.85865 3.79567,-6.64397 4.06269,-6.64397 0.0442,0 -0.33369,1.0418 -0.83986,2.31511 -2.00818,5.05179 -2.83663,8.68676 -2.96681,13.0175 -0.0174,0.58035 0.33653,0.0534 1.0575,-1.57428 1.59711,-3.60561 3.99774,-7.42676 6.39911,-10.18563 0.12627,-0.14506 -0.3594,0.98603 -1.07927,2.51354 -1.31007,2.7799 -1.83832,4.47674 -3.08861,9.92105 -0.63928,2.78374 -1.40449,5.05767 -2.18139,6.48229 l -0.36072,0.66146 0.14469,-0.79375 c 0.0796,-0.43656 0.38896,-2.28203 0.68751,-4.10104 0.29855,-1.81901 0.70507,-4.0812 0.90337,-5.02708 0.19831,-0.94589 0.32638,-1.75667 0.28462,-1.80175 -0.0418,-0.0451 -0.7452,1.29438 -1.56318,2.97656 -0.81798,1.68219 -1.55048,3.05852 -1.62777,3.05852 -0.0773,0 -0.0804,-0.38695 -0.007,-0.85989 0.0734,-0.47295 0.19229,-1.69334 0.26412,-2.71198 0.11267,-1.59771 0.0947,-1.70673 -0.13118,-0.79375 -0.14397,0.58208 -0.43901,2.24895 -0.65563,3.70416 -0.319,2.143 -1.39736,6.46976 -2.72632,10.93894 -0.12983,0.43661 -0.41693,-0.58158 -0.96988,-3.43958 z m -14.48584,2.56447 c -0.41398,-0.30272 -0.42066,-0.36303 -0.0557,-0.50307 0.24285,-0.0932 0.47888,0.008 0.56963,0.2447 0.21793,0.56792 0.0351,0.65983 -0.51392,0.25837 z m 31.34473,-1.66331 c 0.43442,-1.12778 1.19585,-3.15547 1.69208,-4.50596 0.86655,-2.35831 2.37812,-5.51871 2.1158,-4.42372 -0.0697,0.29104 -0.31424,1.48166 -0.54337,2.64583 -1.21055,6.15049 -1.74644,7.66814 -2.84259,8.05026 -0.44826,0.15626 -0.90429,0.28411 -1.01339,0.28411 -0.10911,0 0.15706,-0.92273 0.59147,-2.05052 z m -14.29528,0.99219 c 0,-0.3638 0.0601,-0.51263 0.13346,-0.33073 0.0734,0.1819 0.0734,0.47956 0,0.66146 -0.0734,0.1819 -0.13346,0.0331 -0.13346,-0.33073 z m -15.10214,-7.29809 c 0.0127,-0.30822 0.0754,-0.37092 0.15986,-0.15985 0.0764,0.19099 0.067,0.4192 -0.0209,0.50712 -0.0879,0.0879 -0.15045,-0.0683 -0.13897,-0.34727 z m -11.92928,-2.86632 -0.56563,-0.8158 0.65355,0.71072 c 0.35945,0.3909 0.7134,0.65087 0.78656,0.57771 0.0732,-0.0731 0.19923,-0.0259 0.28016,0.10508 0.0809,0.13095 -0.0185,0.23809 -0.22094,0.23809 -0.20244,0 -0.62261,-0.36711 -0.9337,-0.8158 z m 7.54277,-3.59392 c -0.0899,-0.14552 -0.0672,-0.26821 0.0505,-0.27263 0.11773,-0.004 0.007,-0.12859 -0.24572,-0.27592 -0.25288,-0.14732 -0.59784,-0.53066 -0.76658,-0.85185 -0.25373,-0.48294 -0.17643,-0.45514 0.44676,0.16068 0.41447,0.40956 0.77866,0.91558 0.80932,1.12448 0.0649,0.44244 -0.0615,0.49195 -0.29431,0.11524 z m 18.40943,-14.17726 c 0.0127,-0.30822 0.0754,-0.37092 0.15985,-0.15985 0.0764,0.19099 0.067,0.4192 -0.0209,0.50712 -0.0879,0.0879 -0.15046,-0.0683 -0.13897,-0.34727 z"
       id="path52" /></g></svg>
