<?xml version="1.0" encoding="UTF-8" standalone="no"?>
<!-- Created with Inkscape (http://www.inkscape.org/) -->

<svg
   width="100mm"
   height="100mm"
   viewBox="0 0 100 100"
   version="1.1"
   id="svg1"
   inkscape:version="1.4 (86a8ad7, 2024-10-11)"
   sodipodi:docname="bush3.svg"
   xml:space="preserve"
   xmlns:inkscape="http://www.inkscape.org/namespaces/inkscape"
   xmlns:sodipodi="http://sodipodi.sourceforge.net/DTD/sodipodi-0.dtd"
   xmlns="http://www.w3.org/2000/svg"
   xmlns:svg="http://www.w3.org/2000/svg"><sodipodi:namedview
     id="namedview1"
     pagecolor="#ffffff"
     bordercolor="#000000"
     borderopacity="0.25"
     inkscape:showpageshadow="2"
     inkscape:pageopacity="0.0"
     inkscape:pagecheckerboard="true"
     inkscape:deskcolor="#d1d1d1"
     inkscape:document-units="mm"
     inkscape:zoom="1.0227973"
     inkscape:cx="284.025"
     inkscape:cy="241.98343"
     inkscape:window-width="1920"
     inkscape:window-height="1009"
     inkscape:window-x="1912"
     inkscape:window-y="-8"
     inkscape:window-maximized="1"
     inkscape:current-layer="layer1" /><defs
     id="defs1" /><g
     inkscape:label="Warstwa 1"
     inkscape:groupmode="layer"
     id="layer1"><path
       style="fill:#617463;fill-opacity:1"
       d="m 46.545091,80.449106 c -0.49947,-0.246252 -5.34129,-1.411557 -6.57297,-1.581951 -0.59964,-0.08296 -1.44601,-0.03832 -2.0384,0.107505 -0.90051,0.22167 -1.14055,0.19908 -2.1615,-0.203419 -0.63168,-0.24903 -1.86618,-0.682991 -2.74334,-0.964357 -1.99941,-0.641354 -5.30301,-2.471864 -5.51353,-3.055026 -0.28257,-0.782756 -2.98187,-3.055174 -5.49175,-4.623259 -1.34709,-0.841612 -2.33284,-1.530204 -2.19055,-1.530204 0.53605,0 6.05958,1.682382 6.82199,2.077875 1.18076,0.612512 1.31592,0.509724 0.61717,-0.469361 -2.24554,-3.146449 -5.5374,-6.629571 -8.40987,-8.898497 -1.13823,-0.899072 -2.01769,-1.634677 -1.95435,-1.634677 0.1696,0 3.28634,1.645652 5.31855,2.808219 0.97175,0.55591 2.52711,1.593718 3.45635,2.306238 0.92924,0.712521 1.73712,1.253645 1.79529,1.202499 0.0582,-0.05115 0.30873,0.117723 0.55679,0.375266 l 0.45101,0.468261 -0.53115,-0.395381 c -0.81002,-0.602969 -0.63291,-0.07757 0.20765,0.615988 0.53179,0.438791 0.67302,0.493287 0.50403,0.194493 -0.12912,-0.228305 -0.18701,-0.532225 -0.12864,-0.675378 0.12905,-0.316505 -1.40349,-2.850497 -3.09896,-5.123999 -0.68597,-0.919837 -2.19315,-2.552028 -3.34928,-3.627091 -2.24279,-2.085528 -2.08757,-2.121305 0.95506,-0.220131 2.35289,1.470198 4.94085,3.577849 6.96356,5.671175 0.83724,0.866474 1.56213,1.540356 1.61085,1.497515 0.17146,-0.150742 -3.95881,-7.19136 -5.09081,-8.678001 -1.72337,-2.263292 -1.6771,-2.285443 0.55991,-0.268021 1.13391,1.022605 2.57623,2.5523 3.20514,3.399321 1.20899,1.628275 1.36098,1.558235 0.79389,-0.365857 -0.28973,-0.983042 -0.7606,-3.290585 -1.88778,-9.251302 -0.0851,-0.44989 -0.0134,-0.374307 0.25817,0.272409 0.48889,1.16407 0.62561,1.009403 0.32787,-0.37092 -0.42276,-1.959904 -0.22861,-1.815294 0.68957,0.513611 0.79399,2.013923 5.20756,9.728394 5.21003,9.106621 5.1e-4,-0.128226 -0.377,-1.329224 -0.83892,-2.668885 -0.46192,-1.33966 -0.7975,-2.472983 -0.74573,-2.518496 0.0518,-0.04551 0.92118,1.435679 1.93203,3.291536 1.64407,3.018389 3.61726,6.081305 3.80906,5.912675 0.0393,-0.0346 -0.46502,-1.489657 -1.12082,-3.233468 -0.94472,-2.512069 -1.44497,-3.495128 -2.40861,-4.733287 -1.45346,-1.867505 -3.6095,-4.785021 -3.96417,-5.364246 -0.47813,-0.780853 5.96576,4.979278 6.56979,5.872669 0.3315,0.490305 0.64224,0.856724 0.69054,0.814263 0.0735,-0.06461 -0.58036,-2.972362 -0.99027,-4.40388 -0.0928,-0.32394 -0.037,-0.30115 0.25397,0.103775 l 0.37284,0.518876 -0.15516,-0.712499 c -0.23503,-1.079256 -2.44801,-7.06222 -2.95487,-7.988746 -0.24502,-0.447884 -0.40991,-0.845618 -0.36643,-0.883852 0.21951,-0.192989 3.44755,4.481321 5.44377,7.882742 1.24526,2.121849 2.2616,3.653102 2.25852,3.402782 -0.003,-0.250319 -0.41538,-1.85609 -0.91624,-3.568379 -0.89738,-3.067892 -2.34316,-6.578264 -3.46201,-8.405784 l -0.5718,-0.933976 0.60104,0.62265 c 1.00023,1.036192 3.06797,3.664893 3.8366,4.877431 1.12082,1.768127 2.54542,5.473845 4.05735,10.554124 0.45938,1.543571 0.54527,0.773513 0.15156,-1.358925 -0.20661,-1.119094 -0.54616,-3.015391 -0.75455,-4.213994 -0.77493,-4.457151 -1.70024,-8.645919 -3.07184,-13.905865 -0.43682,-1.675163 2.75654,5.50139 3.92504,8.820885 1.02909,2.923429 1.84133,7.228234 1.86996,9.910523 0.003,0.31392 0.0976,0.570763 0.20939,0.570763 0.11182,0 0.26404,-2.031398 0.33827,-4.514217 0.0742,-2.48282 0.307,-5.775085 0.51726,-7.316146 0.42143,-3.088649 1.50631,-8.761298 1.70683,-8.92466 0.0701,-0.05708 0.0637,0.223117 -0.014,0.622651 -0.0778,0.399534 -0.19291,4.929318 -0.25584,10.066186 -0.1062,8.669828 -0.0894,9.220661 0.23395,7.679359 1.38394,-6.596523 1.89043,-8.169336 3.7428,-11.622813 0.91872,-1.712812 3.0632,-4.877431 3.30516,-4.877431 0.0561,0 -0.14837,0.56177 -0.45442,1.248378 -0.49823,1.117771 -2.39941,6.601981 -2.84096,8.195158 -0.25669,0.926144 -0.72457,6.512568 -0.5369,6.410432 0.089,-0.04842 0.37204,-0.576602 0.62903,-1.173734 0.76075,-1.767626 2.82765,-5.745861 3.63083,-6.988391 0.69251,-1.071331 2.96738,-3.955939 3.11974,-3.955939 0.0371,0 -0.44772,1.110861 -1.0773,2.468579 -0.62957,1.357719 -1.40556,3.389117 -1.72442,4.514218 -0.65274,2.303232 -2.03104,8.206434 -2.01327,8.622755 0.006,0.149622 0.36827,-0.335043 0.80419,-1.077036 0.43592,-0.741992 1.46644,-2.152989 2.29004,-3.135548 2.68075,-3.198138 5.98146,-6.999045 6.03666,-6.951471 0.15218,0.131154 -1.80942,4.112349 -3.47648,7.055732 -1.65723,2.926041 -3.67874,7.33829 -3.45302,7.536743 0.0432,0.038 0.36253,-0.308164 0.70959,-0.769249 0.34705,-0.461085 1.13277,-1.332413 1.74603,-1.936285 2.59575,-2.556013 6.21768,-6.382895 6.64758,-7.023737 0.49206,-0.733525 2.13961,-4.22108 2.13961,-4.52917 0,-0.313727 0.48018,-1.309284 0.58644,-1.215862 0.0556,0.04889 -0.0521,0.73253 -0.23929,1.519208 -0.37651,1.582178 -0.31344,2.004257 0.12498,0.836305 0.45624,-1.215411 0.5112,-0.705862 0.103,0.954926 -0.97874,3.982108 -1.24303,5.613718 -0.89002,5.49462 0.19053,-0.06428 0.27556,-0.02368 0.19384,0.09257 -0.0801,0.113892 -0.40297,1.537135 -0.71758,3.162763 -0.31461,1.625628 -0.67773,3.276393 -0.80693,3.668366 -0.34819,1.056386 -0.16383,0.978596 0.57983,-0.244651 1.00268,-1.649315 3.44544,-4.456278 5.19373,-5.968109 l 1.56009,-1.349077 -1.26645,1.867952 c -0.69655,1.027374 -1.60026,2.568435 -2.00824,3.424579 -0.40798,0.856145 -1.10291,2.313189 -1.54428,3.237877 l -0.8025,1.681249 2.03227,-1.798214 c 1.76614,-1.562732 5.92112,-4.266101 7.24152,-4.711581 0.218,-0.07355 -0.63068,0.78703 -1.88594,1.912394 -1.53334,1.374672 -2.79308,2.764374 -3.83884,4.234887 -0.8561,1.203824 -1.7723,2.468963 -2.03599,2.811421 l -0.47943,0.622651 0.51219,-0.395381 c 0.73469,-0.567126 0.64033,-0.339493 -0.45953,1.1086 -1.15275,1.517724 -0.99713,1.971149 0.21823,0.635858 2.14244,-2.353849 4.75029,-4.130616 8.77977,-5.981774 l 2.00657,-0.921826 -2.30841,1.917588 c -2.29304,1.904819 -6.89074,6.674961 -7.60634,7.891619 l -0.3738,0.635534 0.77704,-0.284969 c 0.74491,-0.273186 5.20295,-1.40364 6.67871,-1.693563 0.87025,-0.170968 0.77161,-0.09416 -1.85641,1.445426 -2.53145,1.483011 -4.25337,2.815834 -5.02337,3.888248 -0.3156,0.439559 -0.80891,0.879103 -1.09623,0.976763 -0.28732,0.09766 -1.78151,0.701117 -3.32043,1.341015 -1.53891,0.639897 -2.88175,1.16345 -2.98407,1.16345 -0.10232,0 -0.64607,0.18108 -1.20832,0.4024 -0.5742,0.226021 -1.12873,0.326907 -1.26513,0.230166 -0.13357,-0.09473 -1.06593,-0.331843 -2.0719,-0.526919 l -1.82906,-0.354683 -0.88571,0.475634 c -0.70988,0.381211 -1.2372,0.477371 -2.65622,0.484379 -1.04387,0.0052 -2.07743,-0.112394 -2.51835,-0.286418 -0.69697,-0.275078 -0.92666,-0.243074 -3.37565,0.470341 -2.73925,0.797968 -3.19724,0.867949 -3.78474,0.5783 z M 28.945001,65.600447 c -0.22271,-0.298849 -0.45215,-0.501851 -0.50986,-0.451116 -0.0577,0.05073 0.0773,0.336756 0.30003,0.635605 0.22271,0.298848 0.45215,0.501851 0.50985,0.451116 0.0577,-0.05073 -0.0773,-0.336757 -0.30002,-0.635605 z"
       id="path51" /><path
       style="fill:#a7b8a9;fill-opacity:1"
       d="m 49.535201,79.339119 c 0.16903,-0.783613 2.1228,-5.757871 2.33474,-5.944215 0.17723,-0.155813 -0.12931,1.002309 -0.37978,1.434849 -0.10069,0.173897 -0.35886,0.921078 -0.57371,1.660402 -0.74969,2.579793 -1.10144,3.523502 -1.31334,3.523502 -0.11738,0 -0.14794,-0.303542 -0.0679,-0.674538 z m 14.24277,0.163448 c 0,-0.05279 0.22516,-0.625092 0.50036,-1.271773 0.50777,-1.193193 1.89762,-3.41264 4.30634,-6.876757 0.73207,-1.052831 1.33103,-1.971395 1.33103,-2.041254 0,-0.06986 -0.46427,0.231163 -1.03171,0.668937 -0.56744,0.437773 -1.53792,1.114397 -2.15662,1.503607 l -1.12492,0.707656 0.66808,-1.018981 c 1.75736,-2.680413 2.35452,-3.291172 4.20133,-4.297 0.96629,-0.526268 1.08365,-0.655162 0.74727,-0.82067 -0.21948,-0.10799 -0.815,-0.161471 -1.32337,-0.118846 -0.50838,0.04263 -0.92432,0.04426 -0.92432,0.0036 0,-0.04062 0.27408,-0.696875 0.60906,-1.458336 0.33499,-0.761462 0.76711,-1.758066 0.96027,-2.214676 0.39197,-0.926541 2.30411,-3.614709 3.67322,-5.163981 0.91673,-1.037355 1.24192,-1.150801 0.46034,-0.16059 -0.46689,0.591508 -2.39796,4.473487 -2.39796,4.820544 0,0.115081 -0.19883,0.555758 -0.44184,0.979283 -0.93997,1.638181 -0.6558,1.549085 1.81231,-0.568215 1.71646,-1.472487 3.24448,-2.556887 4.6634,-3.309525 l 2.11044,-1.119432 -2.12461,1.958231 c -1.91749,1.767343 -2.98395,2.992816 -4.48878,5.158062 -0.27767,0.399535 -0.78883,1.105037 -1.13592,1.567783 -0.71919,0.958842 -0.81289,1.312744 -0.23734,0.896346 0.48628,-0.351808 -0.98426,1.643542 -2.8493,3.866153 -1.62364,1.934925 -2.43597,3.441423 -3.2276,5.985641 -0.5301,1.703719 -0.6277,1.855527 -1.36776,2.12739 -0.8199,0.301193 -1.2114,0.364783 -1.2114,0.196764 z m 8.02627,-12.772125 c 0.27735,-0.342457 0.41372,-0.62265 0.30304,-0.62265 -0.11069,0 -0.3895,0.280193 -0.61959,0.62265 -0.23009,0.342458 -0.36646,0.622651 -0.30304,0.622651 0.0634,0 0.34223,-0.280193 0.61959,-0.622651 z m -35.63029,12.152114 c -0.99149,-0.300537 -0.97045,-0.266003 -2.02916,-3.331229 -0.78194,-2.263907 -1.06251,-2.757204 -3.08247,-5.419631 -1.22223,-1.610966 -2.22224,-3.086616 -2.22224,-3.279223 0,-0.192607 -0.16207,-0.625749 -0.36016,-0.962538 -0.49677,-0.844609 -0.26132,-0.77003 0.36016,0.114082 0.28086,0.399534 0.61423,0.726425 0.74084,0.726425 0.1266,0 -0.039,-0.396939 -0.3681,-0.882088 -0.32905,-0.485149 -0.73344,-0.882088 -0.89863,-0.882088 -0.16519,0 -0.7069,-0.607085 -1.2038,-1.349077 -1.72817,-2.580581 -2.98463,-4.057701 -4.92836,-5.793899 -2.17446,-1.942304 -1.82289,-1.889862 1.35628,0.202312 2.08971,1.375211 5.48518,4.252978 6.96483,5.902912 l 0.74452,0.830201 -0.73166,0.06504 c -0.40241,0.03577 -0.73165,0.118196 -0.73165,0.183168 0,0.06497 0.66394,0.653873 1.47542,1.308671 1.01786,0.821333 1.82316,1.740959 2.59673,2.965403 0.61673,0.976174 1.12132,1.840496 1.12132,1.920714 0,0.08022 -0.92338,-0.589457 -2.05197,-1.488168 -1.12858,-0.898712 -1.97688,-1.459403 -1.8851,-1.245981 0.0918,0.213423 0.98511,1.661086 1.98519,3.217029 1.00009,1.555943 2.1126,3.342674 2.47226,3.970513 0.70357,1.228179 1.66362,3.344332 1.55351,3.42425 -0.037,0.02687 -0.43202,-0.06168 -0.87776,-0.196796 z m 17.12022,-0.451162 c 0.57538,-2.105005 2.90369,-5.021668 4.63912,-5.81141 0.59113,-0.269006 0.53738,-0.145877 -0.62075,1.422195 -0.69735,0.944184 -1.65385,2.393831 -2.12555,3.221438 -0.47169,0.827606 -0.95384,1.504739 -1.07142,1.504739 -0.11759,0 -0.38722,0.05851 -0.59919,0.130026 -0.32153,0.108477 -0.35835,0.03108 -0.22221,-0.466988 z m 6.05755,0.190487 c -0.29214,-0.04947 -0.53116,-0.188913 -0.53116,-0.309872 0,-0.424544 2.16645,-3.82687 3.30419,-5.189117 1.01278,-1.212618 4.42196,-3.819799 4.68845,-3.585502 0.13048,0.114715 -1.93113,3.016564 -3.38785,4.768636 -0.66437,0.799068 -1.70452,2.129984 -2.31144,2.957591 -0.60692,0.827606 -1.13219,1.49202 -1.16727,1.476474 -0.0351,-0.01555 -0.30279,-0.06874 -0.59492,-0.11821 z m -18.41321,-0.293279 c -0.42197,-0.107121 -0.76849,-0.308842 -0.77004,-0.448269 -0.002,-0.139427 -1.42009,-2.261552 -3.15231,-4.715833 -1.73221,-2.454282 -3.11692,-4.496856 -3.07714,-4.539055 0.15407,-0.163406 2.48619,1.498886 3.51683,2.506731 0.59618,0.583 1.43777,1.590743 1.87019,2.239429 0.70867,1.063092 2.73378,4.830455 2.73378,5.085709 0,0.131614 -0.17496,0.11153 -1.12131,-0.128712 z m 29.22059,-1.177574 c 0.004,-0.08077 0.61486,-1.211616 1.35739,-2.512997 l 1.35005,-2.366148 1.4164,-0.47144 c 1.30215,-0.433412 3.93997,-1.102346 5.6656,-1.436758 0.67564,-0.130932 0.66217,-0.10787 -0.29304,0.501585 -0.55068,0.351355 -1.06319,0.638828 -1.13891,0.638828 -0.0757,0 -0.92283,0.519541 -1.88246,1.154535 -1.602,1.060049 -2.75427,2.116627 -3.33077,3.054158 -0.22859,0.371752 -3.15791,1.71167 -3.14426,1.438237 z m -39.30351,-0.237901 c -0.0753,-0.107155 -0.72892,-0.492604 -1.45243,-0.856553 -0.93036,-0.467994 -1.54627,-0.97891 -2.10375,-1.745126 -0.94373,-1.297076 -2.5888,-2.630987 -5.28282,-4.283604 -1.09554,-0.672045 -1.89351,-1.221899 -1.77328,-1.221899 0.53015,0 4.61689,1.245204 6.14301,1.871736 l 1.6774,0.68864 1.24687,2.196278 c 1.40986,2.483371 1.94581,3.545355 1.78923,3.545355 -0.059,0 -0.1689,-0.08767 -0.24423,-0.194827 z m 14.20507,-4.262975 c -0.52865,-0.974659 -2.77109,-3.599059 -3.72808,-4.363083 l -0.77992,-0.62265 0.42397,0.596317 c 0.27606,0.388291 0.31248,0.538879 0.1044,0.431667 -1.13715,-0.585886 -2.57372,-1.505089 -3.35593,-2.147332 -0.8054,-0.661272 -0.89213,-0.691602 -0.7435,-0.259987 l 0.16825,0.488618 -0.73548,-0.478079 c -0.47679,-0.309926 -0.82176,-0.773789 -0.98079,-1.318819 -0.67389,-2.309541 -3.55339,-9.342177 -3.9836,-9.729192 -0.543,-0.488469 1.90736,6.999882 3.03697,9.281041 0.2765,0.558382 0.46418,1.04914 0.41705,1.090575 -0.10304,0.09059 -1.62478,-0.342552 -1.86923,-0.532047 -0.15337,-0.118886 -0.43905,-1.065232 -1.72817,-5.724772 -0.45147,-1.631829 -0.96952,-4.073236 -1.40606,-6.626276 -0.42582,-2.490432 -0.42381,-2.359983 -0.0291,-1.885386 0.28197,0.339032 0.29881,0.258106 0.13211,-0.634869 -0.32411,-1.73617 -0.22876,-1.71245 0.47472,0.118096 0.62385,1.623323 1.3143,2.912194 2.72404,5.084981 0.29626,0.456611 0.9977,1.614315 1.55875,2.572677 0.56106,0.958362 1.05409,1.652844 1.09562,1.543294 0.0415,-0.109551 -0.20443,-1.033761 -0.54658,-2.053802 -0.34216,-1.02004 -0.67075,-2.041414 -0.73021,-2.269719 -0.12365,-0.474792 1.7423,2.481293 1.96516,3.113253 0.28897,0.81943 1.34701,2.520602 2.6087,4.194419 0.70638,0.937098 1.59417,2.197966 1.97288,2.801928 0.37872,0.603962 0.6905,0.966298 0.69285,0.805192 0.006,-0.391488 -2.71137,-12.72197 -2.96225,-13.443086 -0.0722,-0.207575 0.0832,-0.05052 0.34541,0.349016 0.2622,0.399535 0.48118,0.674831 0.48662,0.611769 0.0143,-0.166129 -1.55268,-4.949609 -1.88666,-5.759232 -0.15545,-0.376823 -0.23067,-0.730816 -0.16717,-0.786651 0.15331,-0.134788 1.83402,3.279453 2.7679,5.622789 0.40944,1.027374 1.05107,2.969085 1.42585,4.314914 0.37479,1.34583 1.16967,3.540673 1.7664,4.877431 1.54633,3.463946 1.51233,3.411598 1.37622,2.119143 -0.28654,-2.720724 -1.29757,-9.362311 -1.63758,-10.757441 -0.20394,-0.8368 -0.32404,-1.562564 -0.26689,-1.612808 0.15869,-0.139518 1.73033,4.141299 2.29368,6.247517 1.08352,4.05092 1.44002,6.479004 1.16895,7.961501 -0.13861,0.758043 -0.39859,2.719661 -0.57774,4.359153 -0.17914,1.639492 -0.36557,3.015933 -0.41428,3.05876 -0.0487,0.04283 -0.26349,-0.244643 -0.47728,-0.63882 z m 13.99597,-1.64171 c 0,-1.388675 0.16166,-1.96387 1.43298,-5.098681 1.56449,-3.857683 2.59159,-5.65961 4.67594,-8.20337 1.34815,-1.645301 4.21319,-6.527308 5.48367,-9.344144 0.63539,-1.408749 0.9213,-1.350788 0.45085,0.0914 -0.30973,0.94953 -0.11562,1.06313 0.3284,0.192183 0.40291,-0.790321 0.43306,-0.989327 -0.45178,2.981927 -0.32387,1.453572 -0.59043,2.807837 -0.59236,3.009478 -0.002,0.201642 -0.37933,0.740211 -0.83866,1.196821 -0.45933,0.456611 -0.73829,0.643406 -0.61991,0.415101 0.11838,-0.228305 0.27686,-0.741992 0.35216,-1.141526 0.10912,-0.5789 -0.0264,-0.431374 -0.66723,0.726425 -0.44229,0.799069 -0.90039,1.689658 -1.01801,1.979087 -0.11761,0.289429 -0.89687,1.4102 -1.73169,2.490603 -0.83482,1.080402 -1.8991,2.571452 -2.36508,3.313444 -2.46526,3.925569 -3.07256,5.167353 -1.86946,3.822619 0.5874,-0.656547 0.6269,-0.560431 0.15338,0.373232 -0.19013,0.374869 -0.63093,1.335363 -0.97958,2.134431 -0.34864,0.799068 -0.88358,1.716861 -1.18876,2.039539 l -0.55486,0.586688 z m 14.16401,-0.103631 c 0,-0.223639 -0.27675,-0.695779 -0.61499,-1.049202 l -0.61499,-0.642586 1.37764,-1.379608 c 0.75771,-0.758784 1.93061,-1.761003 2.60646,-2.227154 1.3508,-0.931693 5.15592,-2.978385 6.31056,-3.39432 l 0.73209,-0.263721 -0.82224,0.575047 c -1.98871,1.390824 -3.56749,2.852121 -6.17921,5.719354 -1.7455,1.916271 -2.79532,2.916095 -2.79532,2.66219 z m -21.09677,-1.268665 c 0.18407,-2.347016 0.51297,-4.430216 0.78863,-4.995071 0.45993,-0.942449 0.003,4.313681 -0.47745,5.490302 l -0.43326,1.061395 z m 3.16567,0.617891 c -0.005,-0.05969 0.25816,-1.040369 0.58589,-2.179278 0.75118,-2.61051 2.17841,-6.236972 2.77536,-7.051948 0.25084,-0.342458 0.38369,-0.435855 0.29522,-0.20755 -0.0885,0.228305 -0.32162,0.975486 -0.5181,1.660402 -0.60004,2.091702 -3.09311,8.270704 -3.13837,7.778374 z m -29.86812,-2.534658 c -1.15525,-1.433466 -3.0732,-3.39078 -4.9574,-5.059133 l -3.07318,-2.72112 1.79408,0.930346 c 2.721,1.411014 5.84156,3.428385 7.34058,4.745518 1.51649,1.332478 2.63043,2.977038 2.12436,3.136273 -0.32277,0.101562 -0.57827,0.328702 -1.05718,0.939843 -0.25393,0.324044 -0.50433,0.09665 -2.17126,-1.971727 z m 37.88441,-0.0107 c 0,-0.310897 1.47614,-3.79554 1.97186,-4.654878 0.71313,-1.236195 2.51341,-3.734496 2.51341,-3.487919 0,0.09023 -0.40571,1.062037 -0.90159,2.159568 -0.49587,1.097531 -1.09525,2.649294 -1.33196,3.448363 -0.23671,0.799068 -0.54031,1.575757 -0.67467,1.725974 -0.23585,0.263688 -1.57705,0.951607 -1.57705,0.808892 z m -12.14842,-0.97824 c 0.29338,-2.363439 0.57092,-6.309375 0.57579,-8.186292 0.0115,-4.432518 1.52372,-10.453858 3.65171,-14.540458 0.87816,-1.686417 2.91803,-4.87743 3.11792,-4.87743 0.0602,0 0.0643,0.07005 0.009,0.155663 -0.10319,0.159752 -1.91004,5.238002 -2.6193,7.361673 -0.58919,1.764138 -1.3649,9.117273 -0.86007,8.152706 0.11949,-0.228305 0.65764,-1.349076 1.19588,-2.490602 1.59563,-3.384086 3.02965,-5.907356 4.4233,-7.783134 1.75802,-2.3662 1.85984,-2.43333 1.00354,-0.661626 -1.51997,3.144835 -2.4232,6.016544 -3.44158,10.942059 -0.5352,2.588589 -2.64957,8.963825 -2.68233,8.087762 -0.0449,-1.200446 1.60077,-10.654023 2.02306,-11.621561 0.10699,-0.245138 0.0769,-0.332193 -0.0844,-0.244511 -0.13782,0.07489 -1.06253,1.814699 -2.05492,3.866246 -1.33298,2.75565 -2.04412,4.586 -2.72219,7.006482 -0.50482,1.802018 -1.08288,3.836782 -1.28458,4.521698 -0.33405,1.13436 -0.35639,1.162095 -0.25078,0.311325 z m 14.80498,-0.466988 c 0.82154,-1.931726 1.72669,-4.232905 2.42409,-6.162755 0.47203,-1.306231 1.1105,-2.800592 1.41881,-3.320804 0.5574,-0.940507 0.56063,-0.942198 0.57156,-0.299843 0.0131,0.77006 -0.99156,5.201528 -1.53279,6.760984 -0.83829,2.415382 -1.09831,2.892189 -1.68394,3.087951 -0.80845,0.270242 -1.32843,0.241792 -1.19773,-0.06553 z m -10.66419,-2.559786 c 0.0113,-0.241784 0.0673,-0.290964 0.14262,-0.125395 0.0682,0.149826 0.0598,0.328838 -0.0186,0.397805 -0.0785,0.06897 -0.13424,-0.05362 -0.12399,-0.27241 z m 16.05254,-17.226669 c 0.0113,-0.241784 0.0673,-0.290964 0.14262,-0.125395 0.0682,0.149826 0.0598,0.328838 -0.0186,0.397805 -0.0785,0.06897 -0.13424,-0.05362 -0.12399,-0.27241 z"
       id="path50" /></g></svg>
