<?xml version="1.0" encoding="UTF-8" standalone="no"?>
<!-- Created with Inkscape (http://www.inkscape.org/) -->

<svg
   width="100mm"
   height="100mm"
   viewBox="0 0 100 100"
   version="1.1"
   id="svg1"
   inkscape:version="1.4 (86a8ad7, 2024-10-11)"
   sodipodi:docname="base3.svg"
   xmlns:inkscape="http://www.inkscape.org/namespaces/inkscape"
   xmlns:sodipodi="http://sodipodi.sourceforge.net/DTD/sodipodi-0.dtd"
   xmlns="http://www.w3.org/2000/svg"
   xmlns:svg="http://www.w3.org/2000/svg">
  <sodipodi:namedview
     id="namedview1"
     pagecolor="#ffffff"
     bordercolor="#000000"
     borderopacity="0.25"
     inkscape:showpageshadow="2"
     inkscape:pageopacity="0.0"
     inkscape:pagecheckerboard="true"
     inkscape:deskcolor="#d1d1d1"
     inkscape:document-units="mm"
     inkscape:zoom="1.4378367"
     inkscape:cx="55.291397"
     inkscape:cy="184.6524"
     inkscape:window-width="1920"
     inkscape:window-height="1009"
     inkscape:window-x="-8"
     inkscape:window-y="-8"
     inkscape:window-maximized="1"
     inkscape:current-layer="layer1" />
  <defs
     id="defs1" />
  <g
     inkscape:label="Warstwa 1"
     inkscape:groupmode="layer"
     id="layer1">
    <rect
       style="fill:#d9d9d9;stroke-width:0.100069;fill-opacity:1"
       id="rect1"
       width="100"
       height="100"
       x="2.220446e-16"
       y="0" />
    <path
       style="fill:#e5e5e5;fill-opacity:1"
       d="m 58.841964,96.16522 c -1.93893,-0.17185 -5.54669,-1.05263 -8.61378,-2.10294 -4.80476,-1.645364 -9.40356,-2.585486 -12.64743,-2.585486 -2.08847,0 -5.40217,0.483276 -8.76171,1.277824 C 20.06812,94.82426 17.145914,95.2445 13.758072,94.92056 9.6885764,94.53144 7.3701524,93.21918 6.2025164,90.644021 5.4781644,89.046495 5.3425804,88.312045 5.3413724,85.97925 c -9.69e-4,-1.869412 0.04435,-2.394767 0.384984,-4.462704 0.359221,-2.180795 0.382097,-2.475616 0.328813,-4.23769 -0.06446,-2.131571 -0.286014,-3.351178 -1.176772,-6.4778 -0.839972,-2.94836 -1.39255,-5.176612 -1.618276,-6.525646 -0.282818,-1.690242 -0.280994,-5.438541 0.0035,-7.100992 0.427613,-2.499163 1.249425,-5.915578 2.343124,-9.74077 1.923059,-6.725871 2.370332,-9.223554 2.275597,-12.707529 -0.06892,-2.534435 -0.296818,-4.163956 -1.049204,-7.501855 -0.674355,-2.991719 -1.159431,-5.35454 -1.372243,-6.684237 -1.031873,-6.447377 0.09907,-11.1770762 3.171519,-13.2635352 1.9822786,-1.409961 4.3112126,-1.731605 6.6718856,-1.669308 1.666934,0.04866 2.284828,0.123631 4.294955,0.521147 5.279829,1.044122 6.316569,0.969392 12.827599,-0.924628 3.64471,-1.060226 4.6311,-1.251553 6.78905,-1.316845 2.00663,-0.06071 3.34662,0.08 5.32392,0.501823 4.74004,1.011196 10.98426,4.163713 17.95647,4.166224 2.69292,9.7e-4 5.29576,-0.41227 10.14887,-1.611286 6.61072,-1.633256 10.01406,-2.100685 13.38272,-1.838041 2.32352,0.181158 2.53552,0.176786 4.18775,0.866313 0.74212,0.30971 2.01631,1.292952 2.44935,1.80187 0.59539,0.699723 1.41488,2.4643572 1.65198,3.4223662 0.4973,2.009382 0.48153,4.037042 -0.0583,7.495492 -0.33392,2.13931 -0.40457,4.827727 -0.1689,6.426261 0.20525,1.392124 0.74463,3.683382 1.43708,6.104591 0.55445,1.938671 0.97795,3.929611 1.20611,5.670069 0.49641,3.786825 -0.0845,7.78955 -2.13725,14.727068 -2.07279,7.005205 -2.71497,10.517997 -2.57535,14.087453 0.10987,2.808919 0.24821,3.689422 1.3946,8.87624 0.76546,3.463284 0.92901,4.344458 1.2072,6.504017 0.51442,3.993503 0.13581,7.143011 -1.11813,9.301418 -1.09208,1.879792 -2.51862,2.948884 -4.9148,3.683304 -0.96257,0.29502 -1.1398,0.31151 -3.42035,0.31823 -2.44877,0.007 -2.57964,-0.007 -5.32915,-0.56998 -2.67893,-0.54875 -4.95053,-0.62228 -7.16988,-0.23208 -1.20671,0.21216 -1.93879,0.40503 -4.85259,1.27846 -4.24095,1.27124 -6.15645,1.54838 -8.97527,1.29855 z"
       id="path1"
       sodipodi:nodetypes="ssssssssssssssssssssssssssssssssssssssssssss" />
  </g>
</svg>
