<?xml version="1.0" encoding="UTF-8" standalone="no"?>
<!-- Created with Inkscape (http://www.inkscape.org/) -->

<svg
   width="100mm"
   height="100mm"
   viewBox="0 0 100 100"
   version="1.1"
   id="svg1"
   inkscape:version="1.4 (86a8ad7, 2024-10-11)"
   sodipodi:docname="decor7.svg"
   xmlns:inkscape="http://www.inkscape.org/namespaces/inkscape"
   xmlns:sodipodi="http://sodipodi.sourceforge.net/DTD/sodipodi-0.dtd"
   xmlns="http://www.w3.org/2000/svg"
   xmlns:svg="http://www.w3.org/2000/svg">
  <sodipodi:namedview
     id="namedview1"
     pagecolor="#ffffff"
     bordercolor="#000000"
     borderopacity="0.25"
     inkscape:showpageshadow="2"
     inkscape:pageopacity="0.0"
     inkscape:pagecheckerboard="true"
     inkscape:deskcolor="#d1d1d1"
     inkscape:document-units="mm"
     inkscape:zoom="2.0334082"
     inkscape:cx="150.24037"
     inkscape:cy="193.51747"
     inkscape:window-width="1920"
     inkscape:window-height="1009"
     inkscape:window-x="1912"
     inkscape:window-y="-8"
     inkscape:window-maximized="1"
     inkscape:current-layer="layer1" />
  <defs
     id="defs1" />
  <g
     inkscape:label="Warstwa 1"
     inkscape:groupmode="layer"
     id="layer1">
    <path
       style="fill:#dadada;fill-opacity:1;stroke:none;stroke-width:1"
       d="m 86.356327,46.852328 c 5.43561,2.801751 -7.597779,3.417318 -11.969943,3.50553 -11.476988,0.231555 7.894897,4.571469 -2.448334,5.364172 -9.387932,0.71949 -14.614271,6.257313 -15.65051,1.603824 -0.925836,-4.157696 -5.483681,-2.661794 -0.863934,-7.055707 4.409273,-4.193727 23.857981,-7.06445 30.932721,-3.417819 z"
       id="path2"
       sodipodi:nodetypes="ssssss" />
    <path
       style="fill:#dadada;fill-opacity:1;stroke:none;stroke-width:1"
       d="m 22.207009,25.742719 c 10.044303,-7.02599 21.532646,-1.215364 27.325742,2.594702 3.244651,2.133978 6.890191,5.252902 -1.667625,4.973819 -2.541296,-0.08288 -3.520386,-0.326562 -9.404839,-3.86114 -4.408363,-2.647944 -8.099218,3.458363 -14.916694,5.305519 -6.110055,1.655485 -12.960103,-0.882248 -1.336584,-9.0129 z"
       id="path2-8"
       sodipodi:nodetypes="ssssss" />
  </g>
</svg>
